<svg xmlns="http://www.w3.org/2000/svg" width="126" height="126" viewBox="0 0 126 126">
  <g id="Grupo_57252" data-name="Grupo 57252" transform="translate(-232 -26186.309)">
    <g id="Elipse_4110" data-name="Elipse 4110" transform="translate(232 26186.309)" fill="#fff" stroke="#09b291" stroke-width="5">
      <circle cx="63" cy="63" r="63" stroke="none"/>
      <circle cx="63" cy="63" r="60.5" fill="none"/>
    </g>
    <g id="Grupo_56784" data-name="Grupo 56784" transform="translate(-1423.303 25909.734)">
      <path id="Trazado_102022" data-name="Trazado 102022" d="M1741.222,336.052c-2.762-6-5.373-11.672-4.066-17.554a1.221,1.221,0,0,0-2.284-.811,15.729,15.729,0,0,1-3.144,4.134,14.726,14.726,0,0,0-4.355,7.226c-2.684-2.571-2.958-5.408-3.375-9.718a47.585,47.585,0,0,0-6.507-21.239,1.222,1.222,0,0,0-2.27.434,40.053,40.053,0,0,1-5.7,16.149c-2.9,5.194-6.168,11.053-8.357,25.008-1.505-1.379-1.948-3.706-2.445-6.316-.664-3.492-1.417-7.451-5.109-9.665a1.232,1.232,0,0,0-1.849,1.046,39.939,39.939,0,0,1-2.543,14.594,42.541,42.541,0,0,0-2.668,15.366,24.123,24.123,0,0,0,9.113,18.986,32.828,32.828,0,0,0,20.765,6.984c8.011,0,15.389-2.471,20.774-6.958,5.955-4.962,9.1-11.986,9.1-20.314C1746.3,347.091,1743.72,341.478,1741.222,336.052Zm-24.8,42.18c-13.3,0-27.435-8.245-27.435-23.526a39.976,39.976,0,0,1,2.542-14.594,42.512,42.512,0,0,0,2.605-12.708c1.285,1.71,1.723,4.015,2.18,6.417.7,3.652,1.415,7.428,5.326,8.992a1.233,1.233,0,0,0,1.662-.961c2.12-14.835,5.428-20.762,8.346-25.99a42.7,42.7,0,0,0,5.37-13.456,44.617,44.617,0,0,1,4.547,17.158c.492,5.1.881,9.125,5.871,12.689a1.233,1.233,0,0,0,1.915-.792,12.628,12.628,0,0,1,4.13-7.941c.294-.3.6-.618.908-.955.239,5.009,2.453,9.82,4.612,14.509,2.387,5.188,4.857,10.552,4.857,16.328C1743.861,370.462,1729.64,378.232,1716.426,378.232Z" transform="translate(0 0)" fill="#065949"/>
      <path id="Trazado_102023" data-name="Trazado 102023" d="M1724.565,340.588a1.221,1.221,0,0,0-.234,1.71c3.122,4.115,4.773,7.628,4.773,10.161a14.41,14.41,0,1,1-28.819,0c0-6.233,9.738-16.3,14.406-20.509,1.158,1.053,3.436,3.191,5.834,5.813a1.221,1.221,0,1,0,1.8-1.647,89.91,89.91,0,0,0-6.835-6.724,1.219,1.219,0,0,0-1.6,0c-.655.566-16.054,13.981-16.054,23.067a16.852,16.852,0,1,0,33.7,0c0-3.114-1.773-7.029-5.269-11.637A1.222,1.222,0,0,0,1724.565,340.588Z" transform="translate(1.732 4.85)" fill="#065949"/>
      <path id="Trazado_102024" data-name="Trazado 102024" d="M1710.356,344.907a1.219,1.219,0,0,0-1.22,1.22v13.026a1.221,1.221,0,0,0,1.22,1.221h5.211a1.222,1.222,0,0,0,1.221-1.221V346.127a1.22,1.22,0,0,0-1.221-1.22Zm3.99,13.025h-2.768V347.349h2.768Z" transform="translate(3.464 7.275)" fill="#065949"/>
      <path id="Trazado_102025" data-name="Trazado 102025" d="M1712.962,337a3.826,3.826,0,1,0,3.827,3.827A3.83,3.83,0,0,0,1712.962,337Zm0,5.211a1.385,1.385,0,1,1,1.384-1.384A1.387,1.387,0,0,1,1712.962,342.212Z" transform="translate(3.464 6.062)" fill="#065949"/>
    </g>
  </g>
</svg>
