<svg xmlns="http://www.w3.org/2000/svg" width="325.745" height="228.072" viewBox="0 0 325.745 228.072">
  <g id="Grupo_56721" data-name="Grupo 56721" transform="translate(-612.982 -6336.855)">
    <rect id="Rectángulo_8280" data-name="Rectángulo 8280" width="325.745" height="56.655" rx="3.913" transform="translate(612.982 6336.854)" fill="#f94e4e"/>
    <text id="Codificación_de_las_indicaciones_de_peligro_y_los_consejos_de_prudencia_en_el_SGA" data-name="Codificación de las indicaciones de peligro y los consejos de prudencia en el SGA" transform="translate(620.534 6343.868)" fill="#fff" font-size="15.919" font-family="Roboto-Bold, Roboto" font-weight="700"><tspan x="1.407" y="17">Codificación de las indicaciones de peligro </tspan><tspan x="18.173" y="36.103">y los consejos de prudencia en el SGA</tspan></text>
    <text id="P" transform="translate(825.716 6418.566)" fill="#f94e4e" font-size="15.919" font-family="Roboto-BoldItalic, Roboto" font-weight="700" font-style="italic"><tspan x="5.967" y="17">P</tspan></text>
    <text id="H" transform="translate(687.098 6419.426)" fill="#f94e4e" font-size="15.919" font-family="Roboto-BoldItalic, Roboto" font-weight="700" font-style="italic"><tspan x="5.489" y="17">H</tspan></text>
    <text id="Físicos" transform="translate(636.71 6464.265)" fill="#2d5b68" font-size="15.919" font-family="Roboto-BoldItalic, Roboto" font-weight="700" font-style="italic"><tspan x="1.699" y="17">Físicos</tspan></text>
    <text id="Para_la_salud" data-name="Para la salud" transform="translate(637.406 6480.233)" fill="#2d5b68" font-size="15.919" font-family="Roboto-BoldItalic, Roboto" font-weight="700" font-style="italic"><tspan x="0.19" y="17">Para la salud</tspan></text>
    <text id="Para_el_ambiente" data-name="Para el ambiente" transform="translate(638.797 6496.407)" fill="#2d5b68" font-size="15.919" font-family="Roboto-BoldItalic, Roboto" font-weight="700" font-style="italic"><tspan x="32.703" y="17">Para el </tspan></text>
    <text id="Carácter_general" data-name="Carácter general" transform="translate(809.827 6457.814)" fill="#2d5b68" font-size="15.919" font-family="Roboto-BoldItalic, Roboto" font-weight="700" font-style="italic"><tspan x="0" y="17">Carácter </tspan></text>
    <text id="Prevención" transform="translate(810.523 6473.784)" fill="#2d5b68" font-size="15.919" font-family="Roboto-BoldItalic, Roboto" font-weight="700" font-style="italic"><tspan x="0" y="17">Prevención</tspan></text>
    <text id="Intervención" transform="translate(811.914 6489.957)" fill="#2d5b68" font-size="15.919" font-family="Roboto-BoldItalic, Roboto" font-weight="700" font-style="italic"><tspan x="0" y="17">Intervención</tspan></text>
    <text id="Almacenamiento" transform="translate(811.914 6505.262)" fill="#2d5b68" font-size="15.919" font-family="Roboto-BoldItalic, Roboto" font-weight="700" font-style="italic"><tspan x="0" y="17">Almacenamient</tspan></text>
    <text id="Eliminación" transform="translate(811.914 6520.218)" fill="#2d5b68" font-size="15.919" font-family="Roboto-BoldItalic, Roboto" font-weight="700" font-style="italic"><tspan x="0" y="17">Eliminación</tspan></text>
    <line id="Línea_132" data-name="Línea 132" y2="159.538" transform="translate(775.854 6405.391)" fill="none" stroke="#f94e4e" stroke-miterlimit="10" stroke-width="3"/>
    <path id="comprobado" d="M623.622,6476.193l4.482,4.49,8.606-8.6-1.236-1.218-7.37,7.359-3.264-3.258Z" fill="#e94b46"/>
    <path id="comprobado-2" data-name="comprobado" d="M794.013,6470.295l4.482,4.49,8.606-8.6-1.236-1.218-7.37,7.359-3.264-3.258Z" fill="#e94b46"/>
    <path id="comprobado-3" data-name="comprobado" d="M794.013,6485.528l4.482,4.49,8.606-8.6-1.236-1.218-7.37,7.359-3.264-3.258Z" fill="#e94b46"/>
    <path id="comprobado-4" data-name="comprobado" d="M794.013,6501.5l4.482,4.49,8.606-8.6-1.236-1.218-7.37,7.359-3.264-3.258Z" fill="#e94b46"/>
    <path id="comprobado-5" data-name="comprobado" d="M794.013,6517.466l4.482,4.49,8.606-8.6-1.236-1.218-7.37,7.359-3.264-3.258Z" fill="#e94b46"/>
    <path id="comprobado-6" data-name="comprobado" d="M794.013,6533.435l4.482,4.49,8.606-8.6-1.236-1.218-7.37,7.359-3.264-3.258Z" fill="#e94b46"/>
    <path id="comprobado-7" data-name="comprobado" d="M623.622,6492.714l4.482,4.49,8.606-8.6-1.236-1.218-7.37,7.359-3.264-3.258Z" fill="#e94b46"/>
    <path id="comprobado-8" data-name="comprobado" d="M623.622,6508.888l4.482,4.49,8.606-8.6-1.236-1.218-7.37,7.359-3.264-3.258Z" fill="#e94b46"/>
  </g>
</svg>
