<svg xmlns="http://www.w3.org/2000/svg" xmlns:xlink="http://www.w3.org/1999/xlink" width="354.814" height="381.343" viewBox="0 0 354.814 381.343">
  <defs>
    <linearGradient id="linear-gradient" x1="0.5" y1="1.027" x2="0.5" y2="-0.011" gradientUnits="objectBoundingBox">
      <stop offset="0" stop-color="#e6e6e6"/>
      <stop offset="0.42" stop-color="#fff"/>
    </linearGradient>
    <linearGradient id="linear-gradient-2" x1="0.5" x2="0.5" y2="1" gradientUnits="objectBoundingBox">
      <stop offset="0" stop-color="#231f20"/>
      <stop offset="0.903" stop-color="#505052"/>
    </linearGradient>
    <linearGradient id="linear-gradient-4" x1="0.5" y1="1.026" x2="0.5" y2="-0.009" xlink:href="#linear-gradient"/>
    <linearGradient id="linear-gradient-5" x1="0.5" y1="0.119" x2="0.5" y2="1.472" xlink:href="#linear-gradient-2"/>
    <linearGradient id="linear-gradient-6" x1="0.5" y1="-1.601" x2="0.5" y2="1.31" xlink:href="#linear-gradient-2"/>
    <linearGradient id="linear-gradient-7" x1="0.5" y1="-1.631" x2="0.5" y2="1.297" xlink:href="#linear-gradient-2"/>
    <linearGradient id="linear-gradient-8" x1="0.5" y1="-2.189" x2="0.5" y2="0.497" xlink:href="#linear-gradient-2"/>
    <linearGradient id="linear-gradient-9" x1="0.5" y1="-2.18" x2="0.5" y2="0.5" xlink:href="#linear-gradient-2"/>
    <linearGradient id="linear-gradient-10" x1="0.5" y1="-18.279" x2="0.5" y2="9.287" xlink:href="#linear-gradient-2"/>
    <linearGradient id="linear-gradient-11" x1="0.5" y1="-18.832" x2="0.5" y2="5.933" xlink:href="#linear-gradient-2"/>
    <linearGradient id="linear-gradient-12" x1="0.5" y1="-12.723" x2="0.5" y2="9.605" xlink:href="#linear-gradient-2"/>
    <linearGradient id="linear-gradient-13" x1="0.5" y1="-25.224" x2="0.5" y2="11.083" xlink:href="#linear-gradient-2"/>
    <linearGradient id="linear-gradient-14" x1="0.5" y1="-20.924" x2="0.5" y2="2.868" xlink:href="#linear-gradient-2"/>
    <linearGradient id="linear-gradient-15" x1="0.5" y1="-24.074" x2="0.5" y2="13.413" xlink:href="#linear-gradient-2"/>
    <linearGradient id="linear-gradient-16" x1="0.5" y1="-31.123" x2="0.5" y2="8.731" xlink:href="#linear-gradient-2"/>
    <linearGradient id="linear-gradient-17" x1="0.5" y1="-36.2" x2="0.5" y2="9.966" xlink:href="#linear-gradient-2"/>
    <linearGradient id="linear-gradient-18" x1="0.501" y1="-32.179" x2="0.501" y2="18.944" xlink:href="#linear-gradient-2"/>
  </defs>
  <g id="Grupo_57097" data-name="Grupo 57097" transform="translate(-64.744 -436.372)">
    <g id="Grupo_57086" data-name="Grupo 57086" transform="translate(73.536 436.372)">
      <g id="Grupo_57085" data-name="Grupo 57085">
        <g id="Grupo_57081" data-name="Grupo 57081" transform="translate(0 10.307)">
          <path id="Trazado_102558" data-name="Trazado 102558" d="M132.9,446.745l-48.911.952c-11.421,2.7-10.153,12.69-10.153,12.69v76.882s.691,1.369,1.1,2.025c3.04,4.857,16.8,8.524,33.322,8.524,15.405,0,28.412-3.189,32.563-7.558.9-.948,2.864-2.992,2.864-2.992V459.434C143.475,452.455,132.9,446.745,132.9,446.745Z" transform="translate(-73.191 -446.133)" fill="#fff"/>
          <path id="Trazado_102559" data-name="Trazado 102559" d="M108.289,548.456c-16.678,0-30.592-3.622-33.838-8.808-.42-.673-1.1-2.018-1.128-2.075l-.065-.13V460.418c-.008-.029-1.2-10.493,10.62-13.282l.128-.017,49.072-.955.14.076c.444.241,10.887,5.961,11.107,13.206v78.1l-.171.177s-1.963,2.042-2.863,2.989C136.892,545.343,123.628,548.456,108.289,548.456Zm-33.814-11.3c.179.352.689,1.34,1.007,1.851,2.987,4.774,16.784,8.238,32.807,8.238,14.792,0,28-3.029,32.122-7.369.741-.779,2.2-2.3,2.7-2.817v-77.59c-.185-6.114-9.114-11.386-10.333-12.078l-48.68.946c-10.7,2.563-9.675,11.622-9.626,12.007Z" transform="translate(-73.221 -446.164)"/>
        </g>
        <g id="Grupo_57082" data-name="Grupo 57082" transform="translate(8.444 10.548)">
          <ellipse id="Elipse_4145" data-name="Elipse 4145" cx="26.65" cy="10.549" rx="26.65" ry="10.549" transform="translate(0.609 0.608)" fill="#fff"/>
          <path id="Trazado_102560" data-name="Trazado 102560" d="M108.5,468.706c-15.285,0-27.259-4.9-27.259-11.157s11.974-11.157,27.259-11.157,27.258,4.9,27.258,11.157S123.787,468.706,108.5,468.706Zm0-21.1c-14.117,0-26.042,4.553-26.042,9.941s11.925,9.941,26.042,9.941,26.042-4.553,26.042-9.941S122.617,447.609,108.5,447.609Z" transform="translate(-81.243 -446.393)"/>
        </g>
        <path id="Trazado_102561" data-name="Trazado 102561" d="M131.552,458.749l-39.9,1.586-5.869-1.586-3.966-1.032.608-8.307,17-6.207s15.466,1.507,16.022,1.665,14.2,2.063,14.2,2.063l3.886.634,1.586,1.666v8.909Z" transform="translate(-72.768 -436.013)" fill="#fff"/>
        <g id="Grupo_57083" data-name="Grupo 57083" transform="translate(8.444)">
          <ellipse id="Elipse_4146" data-name="Elipse 4146" cx="26.65" cy="10.549" rx="26.65" ry="10.549" transform="translate(0.609 0.607)" fill="#fff"/>
          <path id="Trazado_102562" data-name="Trazado 102562" d="M108.5,458.685c-15.285,0-27.259-4.9-27.259-11.157s11.974-11.157,27.259-11.157,27.258,4.9,27.258,11.157S123.787,458.685,108.5,458.685Zm0-21.1c-14.117,0-26.042,4.553-26.042,9.941s11.925,9.94,26.042,9.94,26.042-4.552,26.042-9.94S122.617,437.588,108.5,437.588Z" transform="translate(-81.243 -436.372)"/>
        </g>
        <rect id="Rectángulo_8534" data-name="Rectángulo 8534" width="1.216" height="10.073" transform="translate(8.444 12.664)"/>
        <rect id="Rectángulo_8535" data-name="Rectángulo 8535" width="1.216" height="10.866" transform="translate(61.744 11.87)"/>
        <g id="Grupo_57084" data-name="Grupo 57084" transform="translate(4.955 52.346)">
          <path id="Trazado_102563" data-name="Trazado 102563" d="M78.506,486.68v23.636s5.88,12.215,29.986,11.1,29.659-10.628,29.659-10.628l.794-24.111s-2.221,9.042-30.22,9.2S78.506,486.68,78.506,486.68Z" transform="translate(-77.898 -486.071)" fill="#fff"/>
          <path id="Trazado_102564" data-name="Trazado 102564" d="M105.441,522.131c-21.648,0-27.217-11.031-27.452-11.522a.6.6,0,0,1-.061-.263V486.71a.61.61,0,0,1,.537-.605.594.594,0,0,1,.662.459c.036.131,2.655,8.741,28.931,8.741l.694,0c26.99-.154,29.61-8.66,29.633-8.745a.609.609,0,0,1,1.2.173l-.794,24.111a.6.6,0,0,1-.083.286c-.233.4-5.995,9.817-30.154,10.929Q106.943,522.132,105.441,522.131Zm-26.3-11.938c.679,1.212,7.251,11.652,29.349,10.65,21.956-1.013,28.332-9.135,29.085-10.214l.713-21.662c-2.468,2.815-9.559,7.437-29.532,7.55-20.15.143-27.214-4.695-29.614-7.577Zm-.608-23.483h0Z" transform="translate(-77.928 -486.101)"/>
        </g>
      </g>
    </g>
    <path id="Trazado_102565" data-name="Trazado 102565" d="M79.072,486.68s3.489,8.5,29.522,8.595c22.368.083,30.233-6.337,30.233-6.337l278.2,76.318-349.285.528Z" transform="translate(0.026 2.647)" fill="#fff" opacity="0.42"/>
    <rect id="Rectángulo_8536" data-name="Rectángulo 8536" width="349.814" height="247.312" transform="translate(67.244 567.903)" fill="#fff" stroke="#000" stroke-miterlimit="10" stroke-width="5"/>
    <rect id="Rectángulo_8537" data-name="Rectángulo 8537" width="183.206" height="37.493" transform="translate(82.747 578.768)"/>
    <g id="Grupo_57091" data-name="Grupo 57091" transform="translate(80.126 620.522)">
      <g id="Grupo_57089" data-name="Grupo 57089">
        <g id="Grupo_57088" data-name="Grupo 57088">
          <g id="Grupo_57087" data-name="Grupo 57087">
            <rect id="Rectángulo_8538" data-name="Rectángulo 8538" width="38.606" height="38.606" transform="translate(0 27.298) rotate(-45)" fill="#d61b22"/>
            <rect id="Rectángulo_8539" data-name="Rectángulo 8539" width="32.871" height="32.871" rx="5.154" transform="translate(4.055 27.298) rotate(-45)" fill="url(#linear-gradient)"/>
          </g>
        </g>
      </g>
      <g id="Grupo_57090" data-name="Grupo 57090" transform="translate(17.165 8.982)">
        <path id="Trazado_102566" data-name="Trazado 102566" d="M109.792,645.773a7.394,7.394,0,1,0-7.839,0H96.307v1.483h19.109v-1.483ZM99.67,639.507a6.2,6.2,0,1,1,6.2,6.2A6.209,6.209,0,0,1,99.67,639.507Z" transform="translate(-95.762 -619.205)" fill="url(#linear-gradient-2)"/>
        <path id="Trazado_102567" data-name="Trazado 102567" d="M96.979,640.152a8.909,8.909,0,0,1,17.817-.09,13.5,13.5,0,0,0,.045-8.176s-1.945-3.3-1.892-6.023c0,0-1.355-.063-2.289,2.917a3.222,3.222,0,0,0-.607-3.175s-1.305-.758-1-1.774l.4-1.128a2.824,2.824,0,0,0-2.322,3.095,3.327,3.327,0,0,1-.241-2.757,5.018,5.018,0,0,0-.174-3.192s-.053.983-2.422,3.337-1.661,4.337-1.241,5.4c0,0-.984-.291-.855-1.967s-.209-2.127-1.048-2.5a3.081,3.081,0,0,1-.854,2.982,3,3,0,0,0-.441,2.96,3.84,3.84,0,0,0-2.752-2.219s.936,1.145-.758,4.966c0,0-1.6,4.514.6,7.8h.044C96.984,640.461,96.979,640.307,96.979,640.152Z" transform="translate(-95.789 -619.85)" fill="url(#linear-gradient-2)"/>
      </g>
    </g>
    <g id="Norma" transform="translate(92.279 579.176)" style="isolation: isolate">
      <text id="PINTURA_FLAMMALINE_CROMATO_DE_PLOMO_" data-name="PINTURA (FLAMMALINE CROMATO DE PLOMO)" fill="#fff" font-size="13.382" font-family="Roboto-Bold, Roboto" font-weight="700" style="isolation: isolate"><tspan x="8.821" y="14">PINTURA (FLAMMALINE </tspan><tspan x="14.741" y="30.059">CROMATO DE PLOMO)</tspan></text>
    </g>
    <g id="Norma-2" data-name="Norma" transform="translate(177.364 636.647)" style="isolation: isolate">
      <text id="PALABRA_DE_ADVERTENCIA_véase_1.4.10.5.2_a_" data-name="PALABRA DE ADVERTENCIA (véase 1.4.10.5.2 a))" font-size="9.891" font-family="Roboto-Bold, Roboto" font-weight="700" style="isolation: isolate"><tspan x="0" y="10">PALABRA DE ADVERTENCIA</tspan><tspan y="10" xml:space="preserve" font-size="6.982"> (véase 1.4.10.5.2 a))</tspan></text>
    </g>
    <g id="Norma-3" data-name="Norma" transform="translate(179.068 660.263)" style="isolation: isolate">
      <text id="Indicación_de_peligro_véase_1.4.10.5.2_b_" data-name="Indicación de peligro (véase 1.4.10.5.2 b))" font-size="6.982" font-family="Roboto-Bold, Roboto" font-weight="700" style="isolation: isolate"><tspan x="0" y="7">Indicación de peligro (véase 1.4.10.5.2 b))</tspan></text>
    </g>
    <g id="Norma-4" data-name="Norma" transform="translate(288.761 589.758)" style="isolation: isolate">
      <text id="Identificación_del_producto" data-name="Identificación del producto" font-size="8.146" font-family="Roboto-Bold, Roboto" font-weight="700" style="isolation: isolate"><tspan x="0" y="9">Identificación del producto</tspan></text>
    </g>
    <g id="Norma-5" data-name="Norma" transform="translate(314.005 604.279)" style="isolation: isolate">
      <text id="_véase_1.4.10.5.2_d_" data-name="(véase 1.4.10.5.2 d))" font-size="8.146" font-family="Roboto-Bold, Roboto" font-weight="700" style="isolation: isolate"><tspan x="0" y="9">(véase 1.4.10.5.2 d))</tspan></text>
    </g>
    <g id="Norma-6" data-name="Norma" transform="translate(79.71 745.871)" style="isolation: isolate">
      <text id="Consejos_de_prudencia_véase_1.4.10.5.2_c_" data-name="Consejos de prudencia (véase 1.4.10.5.2 c))" font-size="8.146" font-family="Roboto-Bold, Roboto" font-weight="700" style="isolation: isolate"><tspan x="0" y="9">Consejos de prudencia (véase 1.4.10.5.2 c))</tspan></text>
    </g>
    <g id="Norma-7" data-name="Norma" transform="translate(90.651 766.642)" style="isolation: isolate">
      <text id="Información_adicional_cuando_lo_requiera_en_su_caso_la_autoridad_competente" data-name="Información adicional cuando lo requiera, en su caso, la autoridad competente" font-size="8.146" font-family="Roboto-Bold, Roboto" font-weight="700" style="isolation: isolate"><tspan x="0" y="9">Información adicional cuando lo requiera, en su caso, la autoridad competente</tspan></text>
    </g>
    <g id="Norma-8" data-name="Norma" transform="translate(79.71 787.413)" style="isolation: isolate">
      <text id="Identificación_del_proveedor_véase_1.4.10.5.2_e_" data-name="Identificación del proveedor (véase 1.4.10.5.2 e))" font-size="8.146" font-family="Roboto-Bold, Roboto" font-weight="700" style="isolation: isolate"><tspan x="0" y="9">Identificación del proveedor (véase 1.4.10.5.2 e))</tspan></text>
    </g>
    <g id="Grupo_57096" data-name="Grupo 57096" transform="translate(78.836 683.591)">
      <g id="Grupo_57094" data-name="Grupo 57094">
        <g id="Grupo_57093" data-name="Grupo 57093">
          <g id="Grupo_57092" data-name="Grupo 57092">
            <rect id="Rectángulo_8540" data-name="Rectángulo 8540" width="40.43" height="40.43" transform="translate(0 28.588) rotate(-45)" fill="#d61b22"/>
            <rect id="Rectángulo_8541" data-name="Rectángulo 8541" width="34.424" height="34.424" rx="5.543" transform="translate(4.246 28.588) rotate(-45)" fill="url(#linear-gradient-4)"/>
          </g>
        </g>
      </g>
      <g id="Grupo_57095" data-name="Grupo 57095" transform="translate(14.485 9.44)">
        <path id="Trazado_102568" data-name="Trazado 102568" d="M97.9,699.659a2.255,2.255,0,0,1-.3.1c-.159.029-.707-.484-.668-.64a.337.337,0,0,1,.2-.176c1.159-.433,2.32-.858,3.481-1.285.275-.1.547-.208.824-.3a.265.265,0,0,0,.212-.264c.047-.617.108-1.234.156-1.851a.4.4,0,0,0-.064-.276,9.857,9.857,0,0,1-1.959-3.666,12.526,12.526,0,0,1-.791-4.442,6.611,6.611,0,0,1,2.517-5.254,5.454,5.454,0,0,1,5.95-.881,6.667,6.667,0,0,1,3.941,5.3,11.8,11.8,0,0,1-.561,5.265,10.514,10.514,0,0,1-1.912,3.8.415.415,0,0,0-.088.247c0,.585.024,1.171.024,1.757,0,.161.069.211.206.252q2.522.753,5.047,1.517c.048.18.028.307-.191.344a.279.279,0,0,0-.164.124c-.108.179-.205.364-.3.551a.5.5,0,0,1-.786.227c-.063-.037-.125-.077-.211-.129-.079.259-.225.426-.439.426a4.813,4.813,0,0,1-.231.681.327.327,0,0,1-.471.149.332.332,0,0,0-.205.013c-.162.045-.32.115-.484.144a.216.216,0,0,1-.184-.107c-.042-.184-.133-.187-.271-.113a.6.6,0,0,1-.7-.076.9.9,0,0,0-.332-.074c-.023.147-.106.321-.056.435.094.207.161.369-.071.514-.187.117-.364.065-.548-.144l-.4.141.043.028c-.106.115-.192.282-.323.332a.619.619,0,0,1-.7-.109.348.348,0,0,1-.1-.451.23.23,0,0,0-.052-.331.683.683,0,0,1-.2-.688,3.866,3.866,0,0,0,.1-.464.932.932,0,0,0-.091-.326c-.009-.028-.065-.058-.06-.073.1-.27-.125-.315-.276-.429-.063-.048-.068-.193-.064-.293,0-.026.134-.045.205-.071a.972.972,0,0,0,.343-.144c.035-.034-.061-.194-.081-.3-.015-.082-.039-.2,0-.25.177-.232.054-.4-.106-.544-.12-.11-.185-.2-.079-.359.026-.041-.023-.172-.076-.218-.385-.345-.4-.475-.114-.906.091-.134.158-.239-.04-.393a.735.735,0,0,1-.159-.533c.005-.206.015-.341-.213-.456s-.256-.387-.262-.639a1.468,1.468,0,0,0-.08-.32,1.664,1.664,0,0,0-.085-.3,2.483,2.483,0,0,0-.191-.293.958.958,0,0,0-.208.209c-.1.178-.188.372.054.524.024.015.053.064.045.082-.1.223.087.528-.213.7-.042.024-.056.164-.033.233a.917.917,0,0,1-.249,1.12.72.72,0,0,0-.084.463c0,.184.055.361-.093.522-.028.032,0,.172.051.206s.2.076.24.04c.216-.2.3-.059.382.122.105.245.057.348-.187.43-.015,0-.026.018-.06.042.038.1.08.2.119.309a.687.687,0,0,1-.287.848c-.066.03-.109.134-.144.212s-.031.165-.063.241c-.139.319-.142.318.041.594-.212.261-.206.259-.092.649a.536.536,0,0,1-.021.259,3,3,0,0,1-.12.352c-.023.06-.051.155-.093.165-.228.055-.293.244-.4.412-.06.094-.2.139-.3.205-.052-.112-.109-.221-.153-.336a.658.658,0,0,1,0-.192.469.469,0,0,1-.508-.235c-.055-.078-.278-.08-.409-.051-.155.036-.278.082-.409-.055s-.2,0-.272.092a.722.722,0,0,1-1.161-.015,1.675,1.675,0,0,1-.137-.366c-.631.016-.582-.031-.744-.415a.546.546,0,0,0-.092.006c-.456.115-.628.05-.854-.34a.369.369,0,0,0-.354-.2c-.223-.023-.429-.258-.633-.414C97.935,699.832,97.93,699.74,97.9,699.659Z" transform="translate(-91.759 -680.201)" fill="url(#linear-gradient-5)"/>
        <path id="Trazado_102569" data-name="Trazado 102569" d="M114.173,708c-.652.159-1.128.007-1.2-.813a.539.539,0,0,1-.767.094.67.67,0,0,1-.239-.313c-.056-.13-.094-.168-.235-.1a.663.663,0,0,1-.981-.267c-.106-.17-.2-.126-.291-.02-.172.2-.315.091-.445-.033a.267.267,0,0,1,.068-.429c.245-.114.153-.325.194-.495.008-.038-.084-.1-.131-.152-.14.255-.369-.36-.508.053a.292.292,0,0,1-.249.135.712.712,0,0,1-.414-.21c-.063-.088,0-.275.028-.413.013-.054.1-.086.138-.139a.364.364,0,0,0-.007-.465c-.115-.143-.267-.094-.378.005-.168.151-.335.249-.515.045-.154-.175-.094-.392.115-.56a4.544,4.544,0,0,1-.095-.537c-.015-.286.152-.426.439-.4.111.008.223,0,.348,0-.178-.436-.032-.663.415-.729a.255.255,0,0,0,.169-.157.938.938,0,0,1,1.155-.8c.222.025.448-.205.708-.226.023,0,.052-.116.054-.179a.953.953,0,0,1,.936-.975.394.394,0,0,0,.439-.365.669.669,0,0,1,1-.385.2.2,0,0,0,.174.027.21.21,0,0,0,.065-.162c0-.257.1-.368.34-.3.182.053.294.021.351-.158a.226.226,0,0,1,.315-.162c.815.247,1.644.46,2.437.765a3.264,3.264,0,0,1,1.671,1.728.8.8,0,0,1,.068.339c.016.972.028,1.942.028,2.913a.489.489,0,0,1-.128.323q-2.132,2.057-4.278,4.1a.474.474,0,0,1-.767-.154A1.522,1.522,0,0,1,114.173,708Z" transform="translate(-91.168 -679.244)" fill="url(#linear-gradient-6)"/>
        <path id="Trazado_102570" data-name="Trazado 102570" d="M96.394,698.989a.782.782,0,0,0,.279-.055c.152-.105.246-.1.336.074s.218.165.388.141a.715.715,0,0,1,.343.1c.049.021.076.087.12.124.251.214.251.213.252.506a2.677,2.677,0,0,1,.316.043c.214.056.364.159.312.426a.3.3,0,0,0,.1.222,3.722,3.722,0,0,0,.353.277c.515-.327.953-.151,1.138.462.056.185.054.448.384.347.025-.007.1.088.123.147a3.281,3.281,0,0,1,.088.354c.817-.208,1.04-.059,1.181.771.006.033.011.093.019.094.355.031.192.548.569.589.167.018.168.253.021.378-.281.241-.286.313-.049.612.178.224.191.379.043.506s-.341.078-.523-.131a.271.271,0,0,0-.211-.078.218.218,0,0,0-.145.141c-.048.216-.074.436-.114.69a.376.376,0,0,1,.193.534.464.464,0,0,1-.589.239.366.366,0,0,1-.185-.523c.057-.142.014-.2-.1-.25l-.232-.1-.413.43c.033.164.265.4,0,.62-.232.2-.464.117-.736-.077a1.992,1.992,0,0,0-.188.585.536.536,0,0,1-.3.578c-.258.116-.528.22-.775-.153a3.811,3.811,0,0,0-.183.412.621.621,0,0,1-.937.423c-.031.043-.064.088-.095.136a.513.513,0,0,1-.829.109q-2.091-2.117-4.17-4.242a.433.433,0,0,1-.1-.265c-.023-.853-.036-1.706-.055-2.56a1.869,1.869,0,0,1,.768-1.584,4.767,4.767,0,0,1,1.056-.619c.7-.293,1.424-.534,2.139-.792C96.258,698.531,96.421,698.655,96.394,698.989Z" transform="translate(-92.017 -679.233)" fill="url(#linear-gradient-7)"/>
        <path id="Trazado_102571" data-name="Trazado 102571" d="M106.551,708.637c-.493-.3-.417-.7-.215-1.116-.425-.043-.5-.146-.4-.52a.261.261,0,0,1,.281-.224c.367-.015.361-.022.382-.367.015-.234.191-.344.384-.417a.467.467,0,0,1,.541.157c.287.321.273.307.581.013a.709.709,0,0,1,.444-.137c.148,0,.294.066.269.282,0,.033.118.115.181.114.684-.007.772.065.869.776a1.355,1.355,0,0,1,.285.005.8.8,0,0,1,.221.115c.045.026.091.087.127.081a.161.161,0,0,0,.1-.116.409.409,0,0,1,.795-.042c.049.144.117.166.262.134a.626.626,0,0,1,.843.5c.065.208.146.306.392.227.327-.1.364-.058.563.24a.387.387,0,0,0,.308.158.4.4,0,0,1,.46.217c.111.18.02.325-.122.46q-2.665,2.531-5.325,5.067l-2.907,2.767c-.091.086-.18.21-.311.072-.109-.116-.052-.215.055-.319.163-.161.148-.378-.022-.646.156-.124.148-.259.034-.421-.042-.061-.055-.215-.014-.25.157-.14.109-.267.041-.423a.634.634,0,0,1,.278-.82,1.047,1.047,0,0,1,.28-1.665c-.366-.363-.7-.74-.321-1.284q-.943-.384-.242-.931c-.019-.048-.04-.1-.06-.153a.391.391,0,0,1,.173-.555.487.487,0,0,1,.644.148c.042.077.006.2,0,.3,0,.076-.036.168,0,.221a.2.2,0,0,0,.193.051c.049-.034.066-.131.078-.2a.877.877,0,0,0-.167-.642A.642.642,0,0,1,106.551,708.637Z" transform="translate(-91.316 -678.846)" fill="url(#linear-gradient-8)"/>
        <path id="Trazado_102572" data-name="Trazado 102572" d="M104.77,710.809c.106,0,.189-.006.271,0,.3.027.4.255.252.512-.038.063-.06.2-.024.232a.477.477,0,0,1,.035.726c.532.578.529.577.131,1.325a.319.319,0,0,0,0,.253,1.1,1.1,0,0,1-.247,1.56.754.754,0,0,0-.059.078c.371.292.384.356.145.674.223.306.222.325-.041.586.075.109.265.236-.019.368-.4-.385-.805-.779-1.211-1.175q-3.347-3.268-6.693-6.539c-.259-.254-.318-.466-.177-.675a.7.7,0,0,1,.835-.238.277.277,0,0,0,.067.01.66.66,0,0,0,.083-.1.86.86,0,0,1,1.28-.349c.139.093.211.072.248-.087.013-.057.032-.114.039-.171.055-.393.312-.576.68-.445.212.075.307.032.414-.162a.468.468,0,0,1,.758-.131c.124.1.2.149.3-.038.151-.28.356-.319.839-.2-.038-.088-.072-.159-.1-.233a.5.5,0,0,1,.194-.595.371.371,0,0,1,.535.073.307.307,0,0,0,.275.034.453.453,0,0,1,.663.158c.038.046.151.045.226.039.105-.008.214-.074.309-.055a.4.4,0,0,1,.245.177c.025.044-.04.171-.1.227-.149.147-.185.259-.018.436a.385.385,0,0,1-.043.546c-.128.141-.154.222.034.345a.541.541,0,0,1,.106.895c-.145.161-.254.263.027.425.3.175.248.5-.081.635a.271.271,0,0,0-.192.328A4.269,4.269,0,0,1,104.77,710.809Z" transform="translate(-91.752 -678.849)" fill="url(#linear-gradient-9)"/>
        <path id="Trazado_102573" data-name="Trazado 102573" d="M106.817,702.315a1.23,1.23,0,0,1-.336-.183.278.278,0,0,1,.031-.423.314.314,0,0,1,.451.026.4.4,0,0,0,.225.112.446.446,0,0,1,.491.367.433.433,0,0,1-.848.166A.284.284,0,0,1,106.817,702.315Z" transform="translate(-91.261 -679.074)" fill="url(#linear-gradient-10)"/>
        <path id="Trazado_102574" data-name="Trazado 102574" d="M107.527,704.995c-.015-.38.1-.562.361-.589a.407.407,0,0,1,.457.336c.047.266-.092.427-.453.519-.033.187-.1.378-.332.354a.4.4,0,0,1-.273-.2C107.2,705.195,107.356,705.077,107.527,704.995Z" transform="translate(-91.215 -678.928)" fill="url(#linear-gradient-11)"/>
        <path id="Trazado_102575" data-name="Trazado 102575" d="M105.014,699.661c-.2-.271-.2-.483,0-.628a.387.387,0,0,1,.518.069c.149.19.091.412-.167.617.119.182.176.373-.036.525a.293.293,0,0,1-.408-.04C104.78,700.06,104.812,699.888,105.014,699.661Z" transform="translate(-91.343 -679.214)" fill="url(#linear-gradient-12)"/>
        <path id="Trazado_102576" data-name="Trazado 102576" d="M102.494,703.016c-.173.046-.352.038-.4-.161-.025-.1.037-.3.1-.314a.864.864,0,0,1,.454.057c.284-.1.512-.055.625.16a.4.4,0,0,1-.179.55C102.858,703.424,102.659,703.327,102.494,703.016Z" transform="translate(-91.488 -679.027)" fill="url(#linear-gradient-13)"/>
        <path id="Trazado_102577" data-name="Trazado 102577" d="M105.208,708.342c-.128-.14-.236-.308-.059-.468a.381.381,0,0,1,.332-.057c.216.092.181.284.1.46.276.2.343.405.2.613a.394.394,0,0,1-.531.116C105.044,708.874,105.024,708.632,105.208,708.342Z" transform="translate(-91.331 -678.749)" fill="url(#linear-gradient-14)"/>
        <path id="Trazado_102578" data-name="Trazado 102578" d="M102.1,701.029a.406.406,0,0,1,.406.391.4.4,0,1,1-.406-.391Z" transform="translate(-91.508 -679.106)" fill="url(#linear-gradient-15)"/>
        <path id="Trazado_102579" data-name="Trazado 102579" d="M104.584,705.742a.377.377,0,0,1,.012-.754.388.388,0,0,1,.382.384A.382.382,0,0,1,104.584,705.742Z" transform="translate(-91.375 -678.897)" fill="url(#linear-gradient-16)"/>
        <path id="Trazado_102580" data-name="Trazado 102580" d="M102.609,705.4a.323.323,0,0,1-.319.327.334.334,0,0,1-.339-.331.327.327,0,0,1,.346-.319A.313.313,0,0,1,102.609,705.4Z" transform="translate(-91.495 -678.892)" fill="url(#linear-gradient-17)"/>
        <path id="Trazado_102581" data-name="Trazado 102581" d="M104.71,701.252a.285.285,0,0,1-.291-.3.291.291,0,0,1,.581-.008A.288.288,0,0,1,104.71,701.252Z" transform="translate(-91.365 -679.125)" fill="url(#linear-gradient-18)"/>
      </g>
    </g>
  </g>
</svg>
