<svg xmlns="http://www.w3.org/2000/svg" width="126" height="126" viewBox="0 0 126 126">
  <g id="Grupo_57241" data-name="Grupo 57241" transform="translate(-232 -19720.002)">
    <g id="Elipse_4074" data-name="Elipse 4074" transform="translate(232 19720.002)" fill="#fff" stroke="#09b291" stroke-width="5">
      <circle cx="63" cy="63" r="63" stroke="none"/>
      <circle cx="63" cy="63" r="60.5" fill="none"/>
    </g>
    <g id="Grupo_56682" data-name="Grupo 56682" transform="translate(-1272.525 19304.795)">
      <g id="Grupo_56681" data-name="Grupo 56681" transform="translate(1534.809 436.106)">
        <path id="Trazado_101904" data-name="Trazado 101904" d="M1572.414,509.581a1.219,1.219,0,0,0-1.22,1.22v1.087a1.219,1.219,0,0,0,2.439,0V510.8a1.219,1.219,0,0,0-1.219-1.22Z" transform="translate(-1539.058 -444.686)" fill="#065949"/>
        <path id="Trazado_101905" data-name="Trazado 101905" d="M1572.3,505.4a1.219,1.219,0,0,0,1.219-1.219v-7.19a1.219,1.219,0,0,0-2.439,0v7.19A1.219,1.219,0,0,0,1572.3,505.4Z" transform="translate(-1539.045 -443.073)" fill="#065949"/>
        <path id="Trazado_101906" data-name="Trazado 101906" d="M1596.118,512.178a4.1,4.1,0,1,0,4.1,4.1A4.109,4.109,0,0,0,1596.118,512.178Zm0,5.771a1.667,1.667,0,1,1,1.667-1.667A1.668,1.668,0,0,1,1596.118,517.949Z" transform="translate(-1541.489 -444.989)" fill="#065949"/>
        <path id="Trazado_101907" data-name="Trazado 101907" d="M1577.422,468.573a4.126,4.126,0,1,0-4.125,4.126A4.131,4.131,0,0,0,1577.422,468.573Zm-5.814,0a1.688,1.688,0,1,1,1.689,1.688,1.69,1.69,0,0,1-1.689-1.688Z" transform="translate(-1538.822 -439.415)" fill="#065949"/>
        <path id="Trazado_101908" data-name="Trazado 101908" d="M1599.085,498.989l-19.26-26.671V449.552a4.178,4.178,0,0,0,2.777-3.93v-5.345a4.176,4.176,0,0,0-4.172-4.171h-3.642a1.219,1.219,0,1,0,0,2.438h3.642a1.735,1.735,0,0,1,1.733,1.733v5.345a1.735,1.735,0,0,1-1.733,1.733h-20.695a1.735,1.735,0,0,1-1.733-1.733v-5.345a1.735,1.735,0,0,1,1.733-1.733h11.857a1.219,1.219,0,1,0,0-2.438h-11.857a4.176,4.176,0,0,0-4.172,4.171v5.345a4.179,4.179,0,0,0,2.939,3.985v22.711l-3.665,5.076a1.219,1.219,0,1,0,1.977,1.427l3.9-5.395a1.218,1.218,0,0,0,.23-.714V449.792h18.446v22.92a1.218,1.218,0,0,0,.231.714l11.093,15.362-.729.3a29.724,29.724,0,0,1-10.683,2.244l-3.134-5.405a7.052,7.052,0,0,0-12.2,0l-2.976,5.132a38.5,38.5,0,0,0-11.406-2.222l4.176-5.782a1.219,1.219,0,1,0-1.977-1.427l-12.537,17.362a12.815,12.815,0,0,0,10.389,20.318H1588.7a12.815,12.815,0,0,0,10.389-20.318Zm-1.15,12.226a10.2,10.2,0,0,1-9.239,5.653h-41.063a10.377,10.377,0,0,1-8.413-16.452l6.626-9.176h.124a36.112,36.112,0,0,1,11.773,1.966L1554.5,498.8a7.051,7.051,0,0,0,6.1,10.588h9.355a1.219,1.219,0,1,0,0-2.438H1560.6a4.614,4.614,0,0,1-3.992-6.928l3.971-6.849,0,0,3.49-6.021a4.614,4.614,0,0,1,7.983,0l7.463,12.874a4.612,4.612,0,0,1-3.991,6.927h-.376a1.219,1.219,0,0,0,0,2.439h.376a7.052,7.052,0,0,0,6.1-10.589l-2.951-5.09a32.112,32.112,0,0,0,10.234-2.368l1.267-.522,6.93,9.6a10.2,10.2,0,0,1,.826,10.8Z" transform="translate(-1534.809 -436.106)" fill="#065949"/>
      </g>
    </g>
  </g>
</svg>
