<svg xmlns="http://www.w3.org/2000/svg" width="126" height="126" viewBox="0 0 126 126">
  <g id="Grupo_57251" data-name="Grupo 57251" transform="translate(-232 -26031.309)">
    <g id="Elipse_4109" data-name="Elipse 4109" transform="translate(232 26031.309)" fill="#fff" stroke="#09b291" stroke-width="5">
      <circle cx="63" cy="63" r="63" stroke="none"/>
      <circle cx="63" cy="63" r="60.5" fill="none"/>
    </g>
    <g id="Grupo_56783" data-name="Grupo 56783" transform="translate(-1442.382 25850.723)">
      <g id="Grupo_56782" data-name="Grupo 56782" transform="translate(1704.666 201.485)">
        <path id="Trazado_102017" data-name="Trazado 102017" d="M1760.561,245.724a1.219,1.219,0,0,0-1.1,1.033,18.78,18.78,0,0,1-4.571,9.437,32.23,32.23,0,0,0,.662-12.148,31.543,31.543,0,0,0-5.376-13.617c-5.91-8.472-7.932-15.484-8.588-19.875a21.177,21.177,0,0,1-.012-7.548,1.228,1.228,0,0,0-1.989-1.221,45.766,45.766,0,0,0-13.7,20.6,37.337,37.337,0,0,0-1.086,4.464c-3.885-6.211-11.78-8.768-12.193-8.9a1.229,1.229,0,0,0-1.417,1.781c3.721,6.313,2.117,11.143-.185,16.359a1.219,1.219,0,0,0,2.229.985c2.134-4.833,3.817-9.687,1.524-15.586,3.4,1.682,8.7,5.184,9.593,10.943a1.221,1.221,0,0,0,2.421-.261c-.01-.142-.666-13.449,12.054-26.305-.115,4.756,1.046,14.053,9.351,25.96,3.3,4.737,8.1,14.667,3.053,27.938a1.228,1.228,0,0,0,1.826,1.44,23.192,23.192,0,0,0,7.542-9.523,15.045,15.045,0,0,1,.252,2.5,28.093,28.093,0,0,1-28.05,28.072,26.173,26.173,0,0,1-19.59-8.458,24.211,24.211,0,0,1-5.933-19.115,39.684,39.684,0,0,1,2.857-10.645,1.219,1.219,0,0,0-2.256-.923,42,42,0,0,0-3.023,11.3,26.623,26.623,0,0,0,6.538,21.011,28.61,28.61,0,0,0,21.407,9.271,30.534,30.534,0,0,0,30.488-30.51,30.062,30.062,0,0,0-1.462-7.618A1.22,1.22,0,0,0,1760.561,245.724Z" transform="translate(-1704.666 -201.485)" fill="#065949"/>
        <path id="Trazado_102018" data-name="Trazado 102018" d="M1749.386,208.784h3.652v3.653a1.219,1.219,0,0,0,2.437,0v-3.653h3.653a1.219,1.219,0,0,0,0-2.437h-3.653v-3.652a1.219,1.219,0,0,0-2.437,0v3.652h-3.652A1.219,1.219,0,0,0,1749.386,208.784Z" transform="translate(-1701.519 -201.483)" fill="#065949"/>
        <path id="Trazado_102019" data-name="Trazado 102019" d="M1775.362,214.02h-3.652v-3.652a1.22,1.22,0,0,0-2.438,0v3.652h-3.652a1.22,1.22,0,0,0,0,2.438h3.652v3.652a1.22,1.22,0,0,0,2.438,0v-3.652h3.652A1.22,1.22,0,0,0,1775.362,214.02Z" transform="translate(-1700.346 -200.928)" fill="#065949"/>
        <path id="Trazado_102020" data-name="Trazado 102020" d="M1763.968,224.752h-3.653V221.1a1.219,1.219,0,1,0-2.437,0v3.652h-3.653a1.22,1.22,0,0,0,0,2.438h3.653v3.652a1.219,1.219,0,0,0,2.437,0v-3.652h3.653A1.22,1.22,0,0,0,1763.968,224.752Z" transform="translate(-1701.169 -200.155)" fill="#065949"/>
        <path id="Trazado_102021" data-name="Trazado 102021" d="M1735.018,256.116a1.219,1.219,0,0,0,2.1-1.242c-2.1-3.554-4.093-6.413-4.177-6.533a1.233,1.233,0,0,0-2,0c-.921,1.322-9,13.065-9,18.153a10,10,0,1,0,20.008,0c0-1.518-.668-3.641-2.043-6.491a1.22,1.22,0,0,0-2.195,1.06c1.488,3.084,1.8,4.655,1.8,5.43a7.566,7.566,0,1,1-15.132,0c0-3.224,4.791-11.108,7.563-15.282C1732.716,252.387,1733.858,254.157,1735.018,256.116Z" transform="translate(-1703.418 -198.135)" fill="#065949"/>
      </g>
    </g>
  </g>
</svg>
