<svg id="Grupo_56218" data-name="Grupo 56218" xmlns="http://www.w3.org/2000/svg" xmlns:xlink="http://www.w3.org/1999/xlink" width="260" height="260" viewBox="0 0 260 260">
  <defs>
    <linearGradient id="linear-gradient" x1="0.5" y1="1.053" x2="0.5" y2="-0.036" gradientUnits="objectBoundingBox">
      <stop offset="0" stop-color="#e6e6e6"/>
      <stop offset="0.42" stop-color="#fff"/>
    </linearGradient>
    <clipPath id="clip-path">
      <rect id="Rectángulo_5411" data-name="Rectángulo 5411" width="149.301" height="149.301" rx="10.497" transform="translate(211.143 105.572) rotate(135)" fill="none"/>
    </clipPath>
    <linearGradient id="linear-gradient-2" y1="0.5" x2="1" y2="0.5" gradientUnits="objectBoundingBox">
      <stop offset="0" stop-color="#231f20"/>
      <stop offset="0.903" stop-color="#505052"/>
    </linearGradient>
    <linearGradient id="linear-gradient-13" x1="0" y1="0.5" x2="1" y2="0.5" xlink:href="#linear-gradient-2"/>
    <linearGradient id="linear-gradient-14" x1="0" y1="0.5" x2="1" y2="0.5" xlink:href="#linear-gradient-2"/>
    <linearGradient id="linear-gradient-16" x1="0" y1="0.5" x2="1" y2="0.5" xlink:href="#linear-gradient-2"/>
    <linearGradient id="linear-gradient-18" x1="0" y1="0.5" x2="1" y2="0.5" xlink:href="#linear-gradient-2"/>
  </defs>
  <g id="Grupo_56204" data-name="Grupo 56204" transform="translate(0 0)">
    <g id="Grupo_56203" data-name="Grupo 56203">
      <g id="Grupo_56202" data-name="Grupo 56202">
        <rect id="Rectángulo_5409" data-name="Rectángulo 5409" width="183.848" height="183.848" rx="10.541" transform="translate(0 130) rotate(-45)" fill="#d61b22"/>
        <rect id="Rectángulo_5410" data-name="Rectángulo 5410" width="156.539" height="156.539" rx="10.497" transform="translate(19.31 130) rotate(-45)" fill="url(#linear-gradient)"/>
      </g>
    </g>
  </g>
  <g id="Grupo_56207" data-name="Grupo 56207" transform="translate(24.428 24.428)">
    <g id="Grupo_56206" data-name="Grupo 56206" transform="translate(0 0)" clip-path="url(#clip-path)">
      <g id="Grupo_56205" data-name="Grupo 56205" transform="translate(-6.765 19.846)">
        <path id="Trazado_101323" data-name="Trazado 101323" d="M203.5,3323.846c-.024.274-.173.7-.054.8,1.6,1.287,2.656,3.178,5.231,3.207,9.448.1,18.893.439,28.339.681a7,7,0,0,0,.889-.1l-.876-4.8c3.345.269,5.26-1.812,7.216-3.866a1.416,1.416,0,0,1,1.218-.383c3.888,1.766,7.742,3.6,11.78,5.506l-3.157,4.394c3.728,0,7-.066,10.27.012,11.659.279,23.316.576,34.971.963a11.771,11.771,0,0,1,3.286,1.142l-.137.643-93.922-3.141,1.681,2.36-.419.506,40.585,5.855-.821,5.2-16.608-4.063c1.738,1.576,3.619,3.022,2.423,5.974-3.932-.606-8.026-.974-11.966-1.962-1.769-.445-3.259-2.092-4.793-3.3-.235-.183-.2-1.071.032-1.4a2.342,2.342,0,0,1,1.476-.983,22.523,22.523,0,0,1,3.1.294,5.482,5.482,0,0,0,1.115-.13l.075-.568-15.262-3.942-1.126,2.442c2.21,1.221,4.342,2.4,6.471,3.576,5.678,3.153,11.336,6.342,17.044,9.439a5.545,5.545,0,0,1,2.747,3.846l-26.282-16.307c-.87.955-.912,1.013,0,1.68q7.127,5.208,14.292,10.361c4.719,3.4,9.449,6.791,14.321,10.291l-1.413,1.59-28.569-22.261c-.639.864-2.055,1.366-.887,2.771l.034-.037c-.572.075-1.37-.067-1.685.258-4.808,4.96-10.689,6.42-17.339,5.475A20.063,20.063,0,0,1,174,3338.991c-2.883,2.617-5.715,5.186-8.969,8.141a20.663,20.663,0,0,1,3.54.045c.764.152,2.032.692,2.051,1.106a4.893,4.893,0,0,1-.852,3.162c-.6.708-1.632,1.655-3.028.636-.445-.325-1.557.263-2.591.481l-2.2-2.6-19.54,17.8-2.132-2.65,33.28-26.625-2.238-3.41-28.7,16.553c-.783-1.152-.5-1.719.562-2.274,8.094-4.225,16.159-8.5,24.233-12.769a7.182,7.182,0,0,0,2.29-1.651l-16.837,5.436c-.484-1.326-.15-1.9,1.131-2.21,5.118-1.24,10.213-2.578,15.314-3.889.462-.119.908-.3,1.361-.446l-.051-.478a9.136,9.136,0,0,0-1.687.1q-16.056,3.979-32.1,7.995c-6.476,1.611-12.959,3.194-19.617,4.833l-.3-1.821L170,3332.641c.005-1.293-.414-1.7-1.568-1.54q-20.682,2.842-41.375,5.611c-9.233,1.231-18.474,2.4-27.876,3.619l-.261-1.8,34.912-3.975-.009-.276-8.616-.419c-.466-1.394-.231-2.35,1.194-2.984,1.3-.58,2.449-2.16,3.906-.275.145.19.41.284.566.468,2.5,2.957,5.559,3.374,9.309,2.841,9.407-1.336,18.875-2.253,28.318-3.341.239-.027.474-.094.709-.143-.42-2.764-.419-2.822-3.079-2.864-3.536-.058-7.073-.015-10.712-.015l.15,2.583a6.716,6.716,0,0,1-1.572-.021c-1.01-.255-1.513.157-2.086.966a2.6,2.6,0,0,1-1.883.878,7.578,7.578,0,0,1-6.445-3.477l.965-1.794c-.529-.07-.975-.162-1.424-.184-7.726-.379-15.454-.713-23.175-1.167a9.2,9.2,0,0,1-2.743-1.138l.206-.582a9.478,9.478,0,0,1,1.185-.059c7.895.574,15.787,1.19,23.686,1.711,1.554.1,3.15-.346,4.7-.211,2.775.244,5.518.835,8.292,1.1,4.579.441,9.2.575,13.754,1.158,2.62.334,5.142,1.37,7.744,1.929a3.145,3.145,0,0,0,2.292-.482c1.9-1.442,3.666-3.065,5.668-4.776l9.209,7.681c2.124-1.342,4.323-2.639,6.4-4.112.449-.32.529-1.267.619-1.946a17.593,17.593,0,0,0,.024-2.317l2.555.594Zm37.215,4.8h3.7C243.089,3326.753,241.9,3327.985,240.717,3328.646Z" transform="translate(-98.926 -3228.764)" fill="url(#linear-gradient-2)"/>
        <path id="Trazado_101324" data-name="Trazado 101324" d="M153.2,3339.338c7.842-14.655,12.375-17.122,28.075-15.244,8.463-23.973,16.935-47.975,25.48-72.178l5.046,1.977-24.918,69.668.357.151c6.135-12.133,12.27-24.265,18.453-36.495l3.176,1.829c-7.591,12.591-15.118,25.075-22.7,37.647l3.917,3.541c17.145-18.361,34.012-36.921,51.154-55.487l2.744,2.449-43.571,44.131c2.08.132,4.089,1.114,5.838-.534,1.466-1.381,3.025-2.664,4.695-4.124-1.018,4.854-4.762,9.291-10.846,12.955l-1.259-2.959a28.121,28.121,0,0,1-2.687,1.174,18.844,18.844,0,0,1-1.971.253,2.131,2.131,0,0,0-1.028.527c-.736.734-1.408,1.533-2.19,2.4l1.081,1.635c-4.683-.386-5.966,3.836-8.71,5.983a42.043,42.043,0,0,0-4.377,4.57l-.352-.349c1.51-1.645,3.016-3.3,4.531-4.938,1.479-1.6,2.969-3.2,4.8-5.164-1.013,0-1.537.051-2.049-.01-1.329-.157-2.131.354-2.2,1.726-.082,1.728-.916,2.262-2.607,2.051a39.008,39.008,0,0,0-4.592-.036c.481,1.422,1.016,2.719,1.331,4.067a2.6,2.6,0,0,1-.293,1.934c-1.3,1.7-2.75,3.276-4.16,4.918-4.448-2.082-8.519-5.212-13.879-3.744l.279.468a13.74,13.74,0,0,1-3.29-.739,17.473,17.473,0,0,1-2.806-2.221c-2.133-1.672-4.281-3.325-6.421-4.99-.695-.539-1.382-1.085-2.074-1.628l.333-.463Q149.362,3336.711,153.2,3339.338Z" transform="translate(-83.042 -3251.916)" fill="url(#linear-gradient-2)"/>
        <path id="Trazado_101325" data-name="Trazado 101325" d="M176.808,3327.7c1.951-.441,3.888-.959,5.856-1.306q12.582-2.216,25.177-4.34c10.755-1.8,21.527-3.506,32.279-5.335,7.97-1.354,15.912-2.875,23.877-4.256,8.329-1.443,16.67-2.807,25.158-4.232v3.619c-3.383.5-6.749,1.016-10.121,1.5q-12.374,1.783-24.752,3.544-21.47,3.055-42.94,6.1c-10.8,1.543-21.594,3.125-32.395,4.667a14.678,14.678,0,0,1-2.171,0Z" transform="translate(-72.197 -3232.58)" fill="url(#linear-gradient-2)"/>
        <path id="Trazado_101326" data-name="Trazado 101326" d="M176,3326.11q12.779-3.328,25.556-6.657,14.4-3.754,28.793-7.512c7.344-1.912,14.693-3.8,22.035-5.719q10.127-2.65,20.24-5.349c3.361-.891,3.362-.893,4.434,2.748L176.15,3326.5Z" transform="translate(-72.464 -3235.276)" fill="url(#linear-gradient-2)"/>
        <path id="Trazado_101327" data-name="Trazado 101327" d="M178.193,3325.7l54.018-38.151a41.829,41.829,0,0,1,.363,4.846c-.013.456-.813.982-1.351,1.313q-14.014,8.631-28.057,17.216-11.6,7.119-23.187,14.254c-.5.309-1.029.577-1.545.864Z" transform="translate(-71.71 -3239.682)" fill="url(#linear-gradient-2)"/>
        <path id="Trazado_101328" data-name="Trazado 101328" d="M242.6,3299.388l-6.531-4.127-3.888,3.339c-1.111-.635-2.214-1.264-3.311-1.9a1.666,1.666,0,0,1-.594-.415c-1.053-1.679,1.042-5.852,3.039-6.011,1.582-.126,3.173-.157,4.809-.233.686-2.156,1.35-4.245,2.022-6.355C242.137,3288.229,244,3293.316,242.6,3299.388Z" transform="translate(-54.61 -3241.007)" fill="url(#linear-gradient-2)"/>
        <path id="Trazado_101329" data-name="Trazado 101329" d="M172.389,3314.321c3.585-14.778,7.169-29.556,10.81-44.567l3.217,1.556q-6.851,21.6-13.671,43.118Z" transform="translate(-73.703 -3245.791)" fill="url(#linear-gradient-2)"/>
        <path id="Trazado_101330" data-name="Trazado 101330" d="M175.021,3286.248a19.13,19.13,0,0,0-1-2.917,18.142,18.142,0,0,0-1.754-2.3c-.278-.356-.833-.738-.8-1.053.2-1.739.547-3.46.864-5.3l2.4.6a8.065,8.065,0,0,0,.626-1.484c.238-1.158.815-1.558,2.039-1.482,1.2.075,1.318.759,1.733,1.66,1.865,4.048.927,7.327-2.313,10.169A20.737,20.737,0,0,0,175.021,3286.248Z" transform="translate(-74.02 -3244.918)" fill="url(#linear-gradient-2)"/>
        <path id="Trazado_101331" data-name="Trazado 101331" d="M181.59,3320.371l31.45-15.042c.351,3.127.349,3.125-2.2,4.123q-13.674,5.346-27.348,10.692c-.556.218-1.13.388-1.694.581Z" transform="translate(-70.544 -3233.576)" fill="url(#linear-gradient-2)"/>
        <path id="Trazado_101332" data-name="Trazado 101332" d="M120.261,3342.743l3.893,1.811a2.9,2.9,0,0,1,4.007.05c.72.761-.181,3.328-1.615,3.551a4.07,4.07,0,0,0-3.681,3.6C118.9,3347.487,118.837,3347.258,120.261,3342.743Z" transform="translate(-91.891 -3220.731)" fill="url(#linear-gradient-2)"/>
        <path id="Trazado_101333" data-name="Trazado 101333" d="M160.765,3325.163l-26.372-3.872c.911-1.433,1.75-2.281,3.657-1.816,7.125,1.741,14.294,3.3,21.445,4.935.457.1.9.278,1.347.419Z" transform="translate(-86.749 -3228.764)" fill="url(#linear-gradient-2)"/>
        <path id="Trazado_101334" data-name="Trazado 101334" d="M192.238,3294.337c-2.791-1.049-2.555-2.991-2.194-5.271.386-2.431,1.531-3.6,4-3.533C195.979,3289.337,195.516,3292.087,192.238,3294.337Z" transform="translate(-67.714 -3240.375)" fill="url(#linear-gradient-13)"/>
        <path id="Trazado_101335" data-name="Trazado 101335" d="M211.158,3305.446l3.963-5.935c2.233,2.488,4.127,4.6,6.088,6.786Z" transform="translate(-60.392 -3235.575)" fill="url(#linear-gradient-14)"/>
        <path id="Trazado_101336" data-name="Trazado 101336" d="M178.47,3334.864c1.226.779,2.493,1.5,3.675,2.347,5.188,3.7,10.381,7.4,15.5,11.2a16.9,16.9,0,0,1,2.487,2.906l-.459.485c-.707-.489-1.443-.939-2.113-1.473q-9.221-7.327-18.413-14.687a4.466,4.466,0,0,1-.642-.819Z" transform="translate(-71.615 -3223.449)" fill="url(#linear-gradient-2)"/>
        <path id="Trazado_101337" data-name="Trazado 101337" d="M136.2,3335.791c.031.463.064.824.075,1.184.012.419,0,.838,0,1.212-2.662,1.092-3,.947-5.483-2.4Z" transform="translate(-87.985 -3223.118)" fill="url(#linear-gradient-16)"/>
        <path id="Trazado_101338" data-name="Trazado 101338" d="M142.29,3315.456l15.611,8.386-.219.418c-5.193-2.837-10.736-5.005-15.771-8.143Z" transform="translate(-84.167 -3230.1)" fill="url(#linear-gradient-2)"/>
        <path id="Trazado_101339" data-name="Trazado 101339" d="M204.477,3326.526c1.179-.661,2.372-1.893,3.7,0Z" transform="translate(-62.686 -3226.645)" fill="url(#linear-gradient-18)"/>
      </g>
    </g>
  </g>
</svg>
