<svg xmlns="http://www.w3.org/2000/svg" xmlns:xlink="http://www.w3.org/1999/xlink" width="348.629" height="356.798" viewBox="0 0 348.629 356.798">
  <defs>
    <clipPath id="clip-path">
      <path id="Trazado_100830" data-name="Trazado 100830" d="M857.507,769.869c8.192-10.1,18.636-26.119,21.482-47.138,3.731-27.564-8.887-39.513-13.812-84.645-3.115-28.536-5-48.483,7.883-61.05,10.1-9.847,28.056-13.984,40.145-7.786,10.052,5.154,17.222,18.057,20.171,27.562,2.4,7.747,2.129,13.649,7.268,17.2,5.253,3.63,9.965.525,14.764,3.089,9.732,5.2,7.5,27.137,7.144,30.681-4,39.436-35.664,69.987-49.634,83.148A240.154,240.154,0,0,1,857.507,769.869Z" transform="translate(-857.507 -566.323)" fill="none"/>
    </clipPath>
    <clipPath id="clip-path-2">
      <path id="Trazado_100835" data-name="Trazado 100835" d="M874.762,741.877c14.638,6.62,34.227,12.964,55.755,12.818,5.493-.037,39.43-.268,41.809-14.621.839-5.056-2.947-7.6-1.945-14.374,1.187-8.034,7.263-9.612,14.332-17.141,4.219-4.492,16.564-17.64,11.067-30.4-3.283-7.623-12.791-14.762-21.686-16.46-13.047-2.491-22.222,7.211-37.463,23.9-13.51,14.79-13.914,19.714-23.828,30.193C905.446,723.569,893.666,733.545,874.762,741.877Z" transform="translate(-874.762 -661.314)" fill="none"/>
    </clipPath>
  </defs>
  <g id="Grupo_55903" data-name="Grupo 55903" transform="translate(-681.572 -566.323)">
    <g id="Grupo_55896" data-name="Grupo 55896" transform="translate(681.572 566.323)">
      <path id="Trazado_100824" data-name="Trazado 100824" d="M924.781,615.738c10.98,15.373-1.44,40.615,14.736,52.094,15.745,11.174,34.746-7.614,49.574,1.992,22,14.247,18.706,80.539-12.8,122.036-9.474,12.481-17.45,17.381-20.857,31.418-7.318,30.142,19.7,47.742,14.748,62.663-11.142,33.6-187.621,63.548-259.61-36.314-33.621-46.64-39.292-114.438-10.236-166.283C752.839,589.66,900.14,581.243,924.781,615.738Z" transform="translate(-681.572 -561.061)" fill="#9de0d3"/>
      <g id="Grupo_55890" data-name="Grupo 55890" transform="translate(206.02)">
        <path id="Trazado_100825" data-name="Trazado 100825" d="M857.507,769.869c8.192-10.1,18.636-26.119,21.482-47.138,3.731-27.564-8.887-39.513-13.812-84.645-3.115-28.536-5-48.483,7.883-61.05,10.1-9.847,28.056-13.984,40.145-7.786,10.052,5.154,17.222,18.057,20.171,27.562,2.4,7.747,2.129,13.649,7.268,17.2,5.253,3.63,9.965.525,14.764,3.089,9.732,5.2,7.5,27.137,7.144,30.681-4,39.436-35.664,69.987-49.634,83.148A240.154,240.154,0,0,1,857.507,769.869Z" transform="translate(-857.507 -566.323)" fill="#a5e3ff"/>
        <g id="Grupo_55889" data-name="Grupo 55889">
          <g id="Grupo_55888" data-name="Grupo 55888" clip-path="url(#clip-path)">
            <g id="Grupo_55887" data-name="Grupo 55887" transform="translate(-12.636 -10.328)">
              <g id="Grupo_55886" data-name="Grupo 55886">
                <path id="Trazado_100826" data-name="Trazado 100826" d="M849.267,779.982l-.471-.864c15.465-8.427,28.489-17.732,38.71-27.66,15.064-14.632,23.557-30.213,25.243-46.313,1.321-12.612-1.467-25.119-5.327-42.43a239.482,239.482,0,0,0-9.539-31.738c-3.96-10.986-7.088-19.663-7.531-32.818a99.616,99.616,0,0,1,7.586-40.655l.912.368a98.66,98.66,0,0,0-7.516,40.254c.439,13,3.543,21.613,7.474,32.518a240.256,240.256,0,0,1,9.573,31.857c1.916,8.592,3.57,16.011,4.6,22.96a77.949,77.949,0,0,1,.748,19.788c-1.711,16.334-10.3,32.119-25.537,46.916C877.906,762.154,864.811,771.514,849.267,779.982Z" transform="translate(-846.36 -557.504)" fill="#69d1ff"/>
                <path id="Trazado_100827" data-name="Trazado 100827" d="M904.339,649.54l-.535-.151a67.468,67.468,0,0,1-20.615-11.2c-9.8-7.674-22.279-21.7-26.017-44.952l.972-.156c3.684,22.917,15.965,36.744,25.62,44.307a68.133,68.133,0,0,0,19.777,10.888c4.2-26.316,15.609-44.023,24.474-54.265,9.684-11.19,18.528-16.15,18.615-16.2l.477.862c-.087.048-8.806,4.945-18.379,16.017-8.83,10.215-20.215,27.927-24.3,54.3Z" transform="translate(-844.928 -554.032)" fill="#69d1ff"/>
                <path id="Trazado_100828" data-name="Trazado 100828" d="M913.3,683.824l-.24-.266a194.755,194.755,0,0,0-24.575-22.27C875.137,651.347,847,651.1,846.716,651.1l0-.985c.287,0,28.743.253,42.35,10.387a195.957,195.957,0,0,1,24.473,22.133c14.383-6.7,27.03-29.406,35.131-47.351a341.805,341.805,0,0,0,14.4-38.165l.943.28a342.627,342.627,0,0,1-14.444,38.28c-11.974,26.528-24.071,42.678-35.953,48Z" transform="translate(-846.716 -550.73)" fill="#69d1ff"/>
                <path id="Trazado_100829" data-name="Trazado 100829" d="M889.691,735.074l.37-.907a33.56,33.56,0,0,0,1.443-22.524A43.78,43.78,0,0,0,881.4,694.552a75.354,75.354,0,0,0-18.984-14.678l.445-.878A76.416,76.416,0,0,1,882.1,693.868c11.258,12.3,14.437,26.024,9.231,39.745A177.775,177.775,0,0,0,921.305,721.5c15.854-8.081,38.113-22.35,54.112-44.43l31.095-42.912.8.577-31.095,42.912c-16.12,22.248-38.526,36.61-54.484,44.742a172.649,172.649,0,0,1-31.089,12.444Z" transform="translate(-844.032 -544.397)" fill="#69d1ff"/>
              </g>
            </g>
          </g>
        </g>
      </g>
      <g id="Grupo_55895" data-name="Grupo 55895" transform="translate(226.225 111.234)">
        <path id="Trazado_100831" data-name="Trazado 100831" d="M874.762,741.877c14.638,6.62,34.227,12.964,55.755,12.818,5.493-.037,39.43-.268,41.809-14.621.839-5.056-2.947-7.6-1.945-14.374,1.187-8.034,7.263-9.612,14.332-17.141,4.219-4.492,16.564-17.64,11.067-30.4-3.283-7.623-12.791-14.762-21.686-16.46-13.047-2.491-22.222,7.211-37.463,23.9-13.51,14.79-13.914,19.714-23.828,30.193C905.446,723.569,893.666,733.545,874.762,741.877Z" transform="translate(-874.762 -661.314)" fill="#87daff"/>
        <g id="Grupo_55894" data-name="Grupo 55894">
          <g id="Grupo_55893" data-name="Grupo 55893" clip-path="url(#clip-path-2)">
            <g id="Grupo_55892" data-name="Grupo 55892" transform="translate(-64.998 -13.016)">
              <g id="Grupo_55891" data-name="Grupo 55891">
                <path id="Trazado_100832" data-name="Trazado 100832" d="M863.137,741.844c-15.572-3.288-30.322-10.482-43.881-21.406l.663-.823c14.147,11.4,29.6,18.7,45.918,21.685,21.742,3.985,44-.215,66.166-12.483,23.1-12.784,40.3-31.124,50.665-44.258,7.161-9.073,11.69-20.633,13.462-34.36l1.048.136c-1.8,13.918-6.4,25.653-13.68,34.878-10.425,13.21-27.732,31.659-50.983,44.529-22.383,12.388-44.88,16.627-66.869,12.6Q864.389,742.109,863.137,741.844Z" transform="translate(-819.256 -650.199)" fill="#69d1ff"/>
                <path id="Trazado_100833" data-name="Trazado 100833" d="M939.369,708.37l-.123-.459a66.239,66.239,0,0,1-1.712-16.4c.141-8.638,2.066-21.126,10.432-31.561l.824.66c-14.534,18.129-9.493,42.891-8.636,46.568,39.867-6.446,49.775-29.586,51.866-36.548a3.339,3.339,0,0,1,.122-.371l.961.438-.48-.219.486.2c-.015.041-.04.125-.077.251-2.144,7.14-12.319,30.932-53.194,37.365Z" transform="translate(-799.032 -648.532)" fill="#69d1ff"/>
                <path id="Trazado_100834" data-name="Trazado 100834" d="M941.293,738.931a77.68,77.68,0,0,1-25.411-10.776l-.239-.151-.007-.283c0-.217-.395-22.007,12.348-45.724l12.822-23.87.931.5L928.916,682.5c-11.824,22.007-12.224,42.312-12.224,44.918,9.82,6.17,24.788,13.094,40.772,11.456,9.6-.984,15.05-4.632,15.1-4.669l.6.872c-.23.157-5.731,3.837-15.592,4.848A52.689,52.689,0,0,1,941.293,738.931Z" transform="translate(-802.775 -648.843)" fill="#69d1ff"/>
              </g>
            </g>
          </g>
        </g>
      </g>
      <path id="Trazado_100836" data-name="Trazado 100836" d="M843.089,630.273a58.151,58.151,0,0,0-19.711-6.971,40.352,40.352,0,0,0-7.669-.349c-8.219.529-13.382,4.034-28.324,4.731-23.26,1.086-28.1-6.595-39.986-4.319-30.259,5.794-53.03,65.965-38.3,80.817,13.7,13.824,50.961-20.618,86.906-1.3,9.039,4.856,19.421,13.88,25.986,9.982,4.565-2.711,3.069-9.167,9.316-22.626,4.147-8.931,6.9-14.869,11.4-15.558,8.583-1.317,20.218,17.035,24.18,33.984.693,2.966.8,4.377,1.977,23.2.7,11.263.333,32.546,2.677,32.821,1.766.207,4.929-11.438,6.771-21.662,2.909-16.147,7.671-42.581-4.19-72.189C865.881,650.291,852.719,635.888,843.089,630.273Z" transform="translate(-677.652 -556.65)" fill="#c3edff"/>
    </g>
    <g id="Grupo_55902" data-name="Grupo 55902" transform="translate(734.496 658.792)">
      <g id="Grupo_55897" data-name="Grupo 55897" transform="translate(146.359)">
        <rect id="Rectángulo_5298" data-name="Rectángulo 5298" width="9.747" height="89.065" transform="translate(6.015 87.655)" fill="#e0ac9e"/>
        <path id="Trazado_100837" data-name="Trazado 100837" d="M914.619,664.067v2.664a9.784,9.784,0,0,0,2.951,6.5l23.216,23.219s7.662,7,7.662,14.407V861.632a11.65,11.65,0,0,1-11.618,11.618H863.377a11.651,11.651,0,0,1-11.623-11.618V818.806c.286-2.414,1.554-5.723,6.4-5.723h14.109s5.724-.573,5.724-7.436V744.889c0-6.866-5.724-7.436-5.724-7.436H858.155c-6.237,0-6.115-3.31-6.4-5.724V710.86c0-7.409,7.661-14.407,7.661-14.407l23.218-23.219a9.784,9.784,0,0,0,2.951-6.5v-9.387h29.036Z" transform="translate(-851.754 -643.228)" fill="#a7b3da" fill-rule="evenodd"/>
        <path id="Rectángulo_5299" data-name="Rectángulo 5299" d="M2.725,0H31.942a2.727,2.727,0,0,1,2.727,2.727V16.552a2.727,2.727,0,0,1-2.727,2.727H2.727A2.727,2.727,0,0,1,0,16.552V2.725A2.725,2.725,0,0,1,2.725,0Z" transform="translate(31.012 0)" fill="#e0ac9e"/>
        <path id="Trazado_100838" data-name="Trazado 100838" d="M901.013,648.482v12.9a3.2,3.2,0,0,1-3.193,3.191h8.545a3.052,3.052,0,0,0,.377-.025,3.2,3.2,0,0,0,2.816-3.166v-12.9a3.2,3.2,0,0,0-3.193-3.193H897.82A3.2,3.2,0,0,1,901.013,648.482Z" transform="translate(-843.877 -645.289)" fill="#d5a092" fill-rule="evenodd"/>
        <path id="Trazado_100839" data-name="Trazado 100839" d="M918.817,695.7s7.656,7,7.656,14.407V860.882A11.651,11.651,0,0,1,914.856,872.5h14.982a11.65,11.65,0,0,0,11.618-11.618V710.11c0-7.409-7.662-14.407-7.662-14.407l-23.216-23.219a9.784,9.784,0,0,1-2.951-6.5v-4.248a3.052,3.052,0,0,1-.377.025h-14.6v4.224a9.745,9.745,0,0,0,2.95,6.5C898.6,675.489,918.817,695.7,918.817,695.7Z" transform="translate(-844.761 -642.477)" fill="#a6aecf" fill-rule="evenodd"/>
        <path id="Trazado_100840" data-name="Trazado 100840" d="M882.532,673.732a1.1,1.1,0,1,1,1.578,1.533L866.4,693.548a1.1,1.1,0,0,1-1.584-1.536l17.718-18.279ZM860.291,696.68a1.1,1.1,0,0,1,1.583,1.536l-1.9,1.963a1.1,1.1,0,1,1-1.584-1.536Z" transform="translate(-850.673 -640.483)" fill="#fffdf2" fill-rule="evenodd"/>
      </g>
      <g id="Grupo_55898" data-name="Grupo 55898" transform="translate(82.257 9.304)">
        <path id="Trazado_100841" data-name="Trazado 100841" d="M855.9,692.406h0a7.631,7.631,0,0,0,7.61-7.609V660.84a7.63,7.63,0,0,0-7.61-7.606h0a7.629,7.629,0,0,0-7.609,7.606V684.8A7.63,7.63,0,0,0,855.9,692.406Z" transform="translate(-788.244 -653.234)" fill="#131742" fill-rule="evenodd"/>
        <path id="Trazado_100842" data-name="Trazado 100842" d="M849.324,666.95H863.3a3.448,3.448,0,0,0,3.442-3.436h0a3.451,3.451,0,0,0-3.442-3.438H849.324a3.445,3.445,0,0,0-3.436,3.438h0A3.442,3.442,0,0,0,849.324,666.95Z" transform="translate(-788.655 -652.064)" fill="#ce7e31" fill-rule="evenodd"/>
        <path id="Trazado_100843" data-name="Trazado 100843" d="M849.624,707.291h15.219a9.166,9.166,0,0,0,9.14-9.137v-20.9a9.164,9.164,0,0,0-9.14-9.135H849.624a9.16,9.16,0,0,0-9.135,9.135v20.9A9.162,9.162,0,0,0,849.624,707.291Z" transform="translate(-789.578 -650.689)" fill="#ce7e31" fill-rule="evenodd"/>
        <path id="Trazado_100844" data-name="Trazado 100844" d="M817.609,741.027c-33.165,45.53-18.35,86.047-9.783,101.516S829.1,868.3,838.764,868.3h51.807c9.667,0,22.377-10.288,30.944-25.757s23.378-55.987-9.787-101.516C896.766,721.21,884.75,709.971,884.75,697.6V679.829c0-3.3-2.533-2.957-2.533-2.957h-35.1s-2.532-.344-2.532,2.957V697.6C844.586,709.971,832.578,721.21,817.609,741.027Z" transform="translate(-797.012 -649.194)" fill="#f6e197" fill-rule="evenodd"/>
        <path id="Trazado_100845" data-name="Trazado 100845" d="M891.245,724.649s-10.7-10.361-40.14,1.062,34.855,15.376,40.566,14.79S894.308,729.519,891.245,724.649Z" transform="translate(-789.076 -641.758)" fill="#d48a31" fill-rule="evenodd"/>
        <path id="Trazado_100846" data-name="Trazado 100846" d="M826.763,727.8c-2.11,2.67-4.2,5.357-6.224,8.1-12.777,17.349-20.577,37.438-19.771,59.173a85.688,85.688,0,0,0,10.294,37.577,61.312,61.312,0,0,0,14,17.409c3.394,2.8,8.489,6.066,13.065,6.066h51.807c4.576,0,9.672-3.265,13.065-6.066a61.193,61.193,0,0,0,14-17.409,85.7,85.7,0,0,0,10.3-37.577c.8-21.735-6.994-41.823-19.771-59.173-2.892-3.928-5.944-7.747-8.983-11.567C910.424,749.12,846.846,707.912,826.763,727.8Z" transform="translate(-796.38 -641.445)" fill="#efc432" fill-rule="evenodd"/>
        <path id="Trazado_100847" data-name="Trazado 100847" d="M837.451,681.572h41.9a3.783,3.783,0,0,0,3.778-3.774h0a3.786,3.786,0,0,0-3.778-3.776h-41.9a3.786,3.786,0,0,0-3.778,3.776h0A3.783,3.783,0,0,0,837.451,681.572Z" transform="translate(-790.743 -649.679)" fill="#efc432" fill-rule="evenodd"/>
      </g>
      <g id="Grupo_55899" data-name="Grupo 55899" transform="translate(50.262 9.304)">
        <path id="Trazado_100848" data-name="Trazado 100848" d="M769.69,715.885c0-6.983,1.927-12.907,6.871-17.852s19.272-19.271,24.545-24.545,8.16-2.7,8.16-2.7l9.736-2.32,7.562,12.218-1.3,5.938v2.353a8.643,8.643,0,0,0,2.605,5.745l20.507,20.509s6.768,6.178,6.768,12.725V861.127a10.291,10.291,0,0,1-10.265,10.261H779.954a10.291,10.291,0,0,1-10.264-10.261Z" transform="translate(-769.69 -650.63)" fill="#aece77" fill-rule="evenodd"/>
        <path id="Trazado_100849" data-name="Trazado 100849" d="M769.711,714.571c.231-6.414,2.214-11.906,6.847-16.538,4.946-4.945,19.272-19.271,24.545-24.545s8.16-2.7,8.16-2.7l9.736-2.32,7.562,12.218-1.3,5.938v2.353a8.643,8.643,0,0,0,2.605,5.745l-12.4-12.5s-4.392-4.135-10.079,1.034-29.976,31.528-29.976,31.528S771.948,718.44,769.711,714.571Z" transform="translate(-769.686 -650.63)" fill="#8ebe5e" fill-rule="evenodd"/>
        <path id="Trazado_100850" data-name="Trazado 100850" d="M773.025,717.731s.523-4.05,9.567-4.224,27.049,9.3,33.854,9.3-20.243,9.045-30.063,7.925S773.462,723.758,773.025,717.731Z" transform="translate(-769.12 -642.928)" fill="#457233" fill-rule="evenodd"/>
        <path id="Trazado_100851" data-name="Trazado 100851" d="M773.025,717.179V852.874a6.386,6.386,0,0,0,6.359,6.359h64.931a6.385,6.385,0,0,0,6.356-6.359V724.763c0-17.228-29.574-1.9-53.348,1.55S773.025,717.179,773.025,717.179Z" transform="translate(-769.12 -642.376)" fill="#5a8848" fill-rule="evenodd"/>
        <path id="Trazado_100852" data-name="Trazado 100852" d="M818.867,671.182l4.375,4.377a1.8,1.8,0,0,0,2.8-.224l10.3-13.876a2.567,2.567,0,0,0-.221-3.241l-2.145-2.145-2.145-2.145a2.567,2.567,0,0,0-3.238-.221l-13.878,10.3a1.8,1.8,0,0,0-.224,2.794Z" transform="translate(-762.125 -653.234)" fill="#131742" fill-rule="evenodd"/>
        <path id="Trazado_100853" data-name="Trazado 100853" d="M803.312,672.217,818.989,687.9a3.132,3.132,0,0,0,4.412,0l8.915-8.916a3.128,3.128,0,0,0,0-4.411l-15.677-15.679a3.125,3.125,0,0,0-4.41,0l-8.915,8.916A3.123,3.123,0,0,0,803.312,672.217Z" transform="translate(-764.096 -652.422)" fill="#457233" fill-rule="evenodd"/>
        <path id="Rectángulo_5300" data-name="Rectángulo 5300" d="M6.255,0H55.691a6.255,6.255,0,0,1,6.255,6.255V87.662a6.257,6.257,0,0,1-6.257,6.257H6.255A6.255,6.255,0,0,1,0,87.664V6.255A6.255,6.255,0,0,1,6.255,0Z" transform="translate(11.755 99.69)" fill="#fff"/>
        <path id="Trazado_100854" data-name="Trazado 100854" d="M825.076,673.528l-6.369,6.369-1.654,1.653a3.125,3.125,0,0,1-4.409,0l4.593,4.593a3.121,3.121,0,0,0,4.412,0l8.915-8.916a3.128,3.128,0,0,0,0-4.411l-2.49-2.491-2.1-2.1a3.123,3.123,0,0,1,0,4.409Z" transform="translate(-762.345 -650.671)" fill="#131742" fill-rule="evenodd"/>
        <path id="Trazado_100855" data-name="Trazado 100855" d="M817.4,695.054a.975.975,0,0,1,1.4-1.358l13.5,13.93a.975.975,0,0,1-1.4,1.36l-13.5-13.932Zm16.919,17.461a.975.975,0,0,1,1.4-1.359l1.3,1.341a.974.974,0,1,1-1.4,1.358Z" transform="translate(-761.579 -646.366)" fill="#fff" fill-rule="evenodd"/>
        <path id="Trazado_100856" data-name="Trazado 100856" d="M823.356,743.613a.433.433,0,1,1,0-.867h4.953a.433.433,0,0,1,0,.867Zm0,17.891a.434.434,0,0,1,0-.868h4.953a.434.434,0,0,1,0,.868Zm0-3.577a.433.433,0,1,1,0-.866h4.953a.433.433,0,0,1,0,.866Zm0-3.577a.434.434,0,0,1,0-.868h4.953a.434.434,0,0,1,0,.868Zm0-3.577a.434.434,0,0,1,0-.868h4.953a.434.434,0,0,1,0,.868Zm0-3.578a.433.433,0,1,1,0-.867h4.953a.433.433,0,0,1,0,.867Z" transform="translate(-760.587 -637.928)" fill="#131742" fill-rule="evenodd"/>
      </g>
      <g id="Grupo_55900" data-name="Grupo 55900" transform="translate(0 52.381)">
        <path id="Trazado_100857" data-name="Trazado 100857" d="M793.489,706.935v2.978c0,3.758,3.521,6.264,3.521,6.264,13.783,10.333,25.837,17.068,29.126,24.74s-1.5,11.673-1.5,11.673-2.9,2.5-5.712,5.012-2.272,6.654-2.272,6.654,6.1,74.389,6.1,87.542-12.529,13.47-12.529,13.47h-66.4S731.3,864.949,731.3,851.8s6.1-87.542,6.1-87.542.547-4.15-2.272-6.654-5.716-5.012-5.716-5.012-4.784-4-1.493-11.673,15.344-14.407,29.126-24.74c0,0,3.52-2.506,3.52-6.264v-2.978h32.92Z" transform="translate(-726.767 -687.128)" fill="#8fccee" fill-rule="evenodd"/>
        <path id="Trazado_100858" data-name="Trazado 100858" d="M740.043,756.732s.135-2.385,3.507-2.661,20.4-.548,32.48,9.9S741.973,779.748,740.043,756.732Z" transform="translate(-724.497 -679.083)" fill="#6aa2d8" fill-rule="evenodd"/>
        <path id="Trazado_100859" data-name="Trazado 100859" d="M740.931,756.331q-1.825,22.272-3.481,44.567c-.643,8.674-1.267,17.352-1.814,26.03-.338,5.378-.783,11.037-.783,16.421,0,3.105.854,5.788,3.683,7.343a10.676,10.676,0,0,0,3.911,1.19h66.244c4.986-.21,7.753-3.645,7.753-8.533,0-5.384-.447-11.043-.786-16.421-.544-8.678-1.169-17.357-1.81-26.03q-1.1-14.77-2.272-29.536c-1.953-17.169-18.611-16.328-43.416-8.059S740.931,756.331,740.931,756.331Z" transform="translate(-725.385 -678.682)" fill="#fff" fill-rule="evenodd"/>
        <rect id="Rectángulo_5301" data-name="Rectángulo 5301" width="38.673" height="21.509" rx="3.039" transform="translate(30.925)" fill="#131742"/>
        <path id="Rectángulo_5302" data-name="Rectángulo 5302" d="M3.039,0H24.7A3.041,3.041,0,0,1,27.74,3.041V18.467A3.042,3.042,0,0,1,24.7,21.509H3.042A3.042,3.042,0,0,1,0,18.467V3.039A3.039,3.039,0,0,1,3.039,0Z" transform="translate(30.925)" fill="#1d204d"/>
        <path id="Trazado_100860" data-name="Trazado 100860" d="M785.924,708.4h-18.9v1.276c0,3.758,3.524,6.264,3.524,6.264,13.781,10.333,25.836,17.068,29.125,24.74s-1.5,11.673-1.5,11.673-2.9,2.5-5.712,5.012-2.272,6.654-2.272,6.654.054.636.145,1.8c9.034.238,14.655,4.221,15.742,13.756q1.172,14.762,2.272,29.536c.642,8.674,1.266,17.352,1.81,26.03.338,5.378.786,11.037.786,16.421,0,4.888-2.767,8.323-7.753,8.533h-9.47c-3.666,4.775-9.955,4.937-9.955,4.937h19.58s12.529-.317,12.529-13.47-6.1-87.542-6.1-87.542-.549-4.15,2.272-6.654,5.712-5.012,5.712-5.012,4.786-4,1.5-11.673-15.344-14.407-29.126-24.74c0,0-3.526-2.506-3.526-6.264v-1.343A3.558,3.558,0,0,1,785.924,708.4Z" transform="translate(-719.884 -686.89)" fill="#71aee1" fill-rule="evenodd"/>
        <path id="Trazado_100861" data-name="Trazado 100861" d="M802.67,771.176c-1.087-9.534-6.707-13.518-15.742-13.756.932,11.425,5.96,73.807,5.96,85.743a13.554,13.554,0,0,1-2.574,8.533h9.47c4.986-.21,7.753-3.645,7.753-8.533,0-5.384-.447-11.043-.786-16.421-.544-8.678-1.169-17.357-1.81-26.03Q803.846,785.941,802.67,771.176Z" transform="translate(-716.48 -678.495)" fill="#8fccee" fill-rule="evenodd"/>
        <path id="Trazado_100862" data-name="Trazado 100862" d="M757.581,717.192a1.23,1.23,0,0,1,1.494,1.954l-1.432,1.093a1.23,1.23,0,0,1-1.494-1.954l1.432-1.093Zm-5.88,4.485a1.232,1.232,0,1,1,1.494,1.959l-19.22,14.676a1.23,1.23,0,1,1-1.494-1.953Z" transform="translate(-725.873 -685.418)" fill="#fff" fill-rule="evenodd"/>
        <path id="Trazado_100863" data-name="Trazado 100863" d="M743.452,808.633h19.406a2.9,2.9,0,0,1,2.889,2.891v22.289a2.9,2.9,0,0,1-2.889,2.891H743.452a2.9,2.9,0,0,1-2.885-2.891V811.524A2.9,2.9,0,0,1,743.452,808.633Z" transform="translate(-724.408 -669.738)" fill="#131742" fill-rule="evenodd"/>
        <path id="Trazado_100864" data-name="Trazado 100864" d="M755.275,814.375a.376.376,0,1,1,0-.753h4.33a.377.377,0,1,1,0,.753Zm0,15.641a.381.381,0,0,1-.377-.384.376.376,0,0,1,.377-.376h4.33a.376.376,0,0,1,.379.376.382.382,0,0,1-.379.384Zm0-3.129a.38.38,0,0,1-.377-.383.375.375,0,0,1,.377-.376h4.33a.376.376,0,0,1,.379.376.381.381,0,0,1-.379.383Zm0-3.129a.379.379,0,0,1,0-.758h4.33a.379.379,0,1,1,0,.758Zm0-3.128a.379.379,0,0,1,0-.759h4.33a.379.379,0,1,1,0,.759Zm0-3.128a.375.375,0,0,1-.377-.376.38.38,0,0,1,.377-.383h4.33a.381.381,0,0,1,.379.383.376.376,0,0,1-.379.376Z" transform="translate(-721.957 -668.885)" fill="#fff" fill-rule="evenodd"/>
        <path id="Trazado_100865" data-name="Trazado 100865" d="M753.061,824.4h0a4.9,4.9,0,1,1-9.117,0h0l4.555-11.592Z" transform="translate(-723.888 -669.023)" fill="#8fccee" fill-rule="evenodd"/>
      </g>
      <g id="Grupo_55901" data-name="Grupo 55901" transform="translate(177.778 94.905)">
        <path id="Trazado_100866" data-name="Trazado 100866" d="M931.4,739.728v2.355c0,2.974,2.789,4.959,2.789,4.959,10.911,8.183,20.452,13.513,23.057,19.589s-1.178,9.238-1.178,9.238-2.294,1.984-4.528,3.968-1.8,5.268-1.8,5.268,4.835,58.892,4.835,69.3-9.923,10.66-9.923,10.66H892.092s-9.917-.247-9.917-10.66,4.829-69.3,4.829-69.3.436-3.285-1.8-5.268-4.522-3.968-4.522-3.968-3.791-3.163-1.185-9.238,12.146-11.406,23.058-19.589c0,0,2.789-1.985,2.789-4.959v-2.355H931.4Z" transform="translate(-878.584 -724.045)" fill="#465ea6" fill-rule="evenodd"/>
        <path id="Trazado_100867" data-name="Trazado 100867" d="M889.093,779.147s.109-1.887,2.779-2.1,16.152-.433,25.713,7.836S890.624,797.372,889.093,779.147Z" transform="translate(-876.787 -717.675)" fill="#8fccee" fill-rule="evenodd"/>
        <path id="Trazado_100868" data-name="Trazado 100868" d="M889.8,778.83q-1.444,17.639-2.755,35.281c-.506,6.87-1,13.739-1.432,20.61-.269,4.259-.624,8.738-.624,13,0,2.46.678,4.582,2.917,5.815a8.415,8.415,0,0,0,3.1.941H943.44c3.946-.166,6.137-2.885,6.137-6.757,0-4.264-.355-8.743-.618-13-.437-6.87-.932-13.739-1.438-20.61q-.864-11.684-1.8-23.375c-1.545-13.6-14.729-12.931-34.369-6.384S889.8,778.83,889.8,778.83Z" transform="translate(-877.49 -717.358)" fill="#fff" fill-rule="evenodd"/>
        <path id="Trazado_100869" data-name="Trazado 100869" d="M902.309,743.364H927.29a2.828,2.828,0,0,0,2.82-2.819V729.156a2.828,2.828,0,0,0-2.82-2.821H902.309a2.824,2.824,0,0,0-2.816,2.821v11.389A2.824,2.824,0,0,0,902.309,743.364Z" transform="translate(-875.009 -726.335)" fill="#131742" fill-rule="evenodd"/>
        <path id="Trazado_100870" data-name="Trazado 100870" d="M902.309,743.364h16.324a2.829,2.829,0,0,0,2.821-2.819V729.156a2.829,2.829,0,0,0-2.821-2.821H902.309a2.824,2.824,0,0,0-2.816,2.821v11.389A2.824,2.824,0,0,0,902.309,743.364Z" transform="translate(-875.009 -726.335)" fill="#1d204d" fill-rule="evenodd"/>
        <path id="Trazado_100871" data-name="Trazado 100871" d="M925.417,740.885H910.45v1.009c0,2.974,2.788,4.959,2.788,4.959,10.913,8.183,20.453,13.513,23.058,19.589s-1.184,9.238-1.184,9.238-2.288,1.984-4.522,3.968-1.8,5.268-1.8,5.268.043.5.118,1.424c7.15.187,11.6,3.34,12.458,10.893q.929,11.684,1.8,23.375c.506,6.87,1,13.739,1.438,20.61.263,4.259.618,8.738.618,13,0,3.871-2.191,6.59-6.137,6.757h-7.494c-2.9,3.78-7.887,3.9-7.887,3.9H939.21s9.923-.247,9.923-10.66-4.835-69.3-4.835-69.3-.432-3.285,1.8-5.268,4.528-3.968,4.528-3.968,3.785-3.163,1.178-9.238-12.146-11.406-23.057-19.589c0,0-2.789-1.985-2.789-4.959v-1.063A2.725,2.725,0,0,1,925.417,740.885Z" transform="translate(-873.135 -723.856)" fill="#2f4697" fill-rule="evenodd"/>
        <path id="Trazado_100872" data-name="Trazado 100872" d="M938.672,790.588c-.856-7.553-5.308-10.705-12.458-10.893.733,9.046,4.712,58.426,4.712,67.879a10.753,10.753,0,0,1-2.03,6.757h7.494c3.946-.166,6.137-2.885,6.137-6.757,0-4.264-.355-8.743-.618-13-.437-6.87-.932-13.739-1.438-20.61Q939.607,802.279,938.672,790.588Z" transform="translate(-870.439 -717.211)" fill="#8fccee" fill-rule="evenodd"/>
        <path id="Trazado_100873" data-name="Trazado 100873" d="M902.98,747.846a.973.973,0,1,1,1.179,1.548l-1.131.864a.974.974,0,1,1-1.184-1.548l1.136-.864Zm-4.657,3.554a.974.974,0,1,1,1.184,1.547l-15.214,11.621a.974.974,0,1,1-1.184-1.548Z" transform="translate(-877.876 -722.691)" fill="#fff" fill-rule="evenodd"/>
        <path id="Trazado_100874" data-name="Trazado 100874" d="M891.8,820.242h15.366a2.287,2.287,0,0,1,2.282,2.282v17.648a2.292,2.292,0,0,1-2.282,2.288H891.8a2.293,2.293,0,0,1-2.288-2.288V822.524A2.289,2.289,0,0,1,891.8,820.242Z" transform="translate(-876.716 -710.277)" fill="#131742" fill-rule="evenodd"/>
        <path id="Trazado_100875" data-name="Trazado 100875" d="M901.156,824.784a.3.3,0,1,1,0-.6h3.424a.3.3,0,1,1,0,.6Zm0,12.378a.3.3,0,1,1,0-.6h3.424a.3.3,0,1,1,0,.6Zm0-2.472a.3.3,0,1,1,0-.6h3.424a.3.3,0,0,1,0,.6Zm0-2.475a.3.3,0,1,1,0-.6h3.424a.3.3,0,0,1,0,.6Zm0-2.477a.3.3,0,1,1,0-.6h3.424a.3.3,0,0,1,0,.6Zm0-2.477a.3.3,0,1,1,0-.6h3.424a.3.3,0,1,1,0,.6Z" transform="translate(-874.776 -709.602)" fill="#fff" fill-rule="evenodd"/>
        <path id="Trazado_100876" data-name="Trazado 100876" d="M899.4,832.722v0a3.873,3.873,0,1,1-7.219,0l0,0,3.608-9.174Z" transform="translate(-876.304 -709.712)" fill="#8fccee" fill-rule="evenodd"/>
      </g>
      <path id="Trazado_100877" data-name="Trazado 100877" d="M745.181,847.611H987.988c1.224,0,2.225-1.3,2.225-2.9h0c0-1.594-1-2.9-2.225-2.9H745.181c-1.223,0-2.226,1.3-2.226,2.9h0C742.955,846.307,743.959,847.611,745.181,847.611Z" transform="translate(-723.999 -611.683)" fill="#03a4c9" fill-rule="evenodd"/>
    </g>
  </g>
</svg>
