<svg xmlns="http://www.w3.org/2000/svg" width="48.233" height="48.234" viewBox="0 0 48.233 48.234">
  <g id="Grupo_56703" data-name="Grupo 56703" transform="translate(-1600.482 -397.232)">
    <g id="Grupo_56702" data-name="Grupo 56702" transform="translate(1600.482 397.232)">
      <path id="Trazado_101932" data-name="Trazado 101932" d="M1623.886,402.635a17.9,17.9,0,1,0,17.9,17.9,17.9,17.9,0,0,0-17.9-17.9Zm-1.074,1.921c.357-.023.716-.037,1.074-.037a16.032,16.032,0,0,1,14.292,8.782c-2.978,1.829-4.631,4.9-5.98,7.415-.875,1.627-1.778,3.311-2.5,3.311-.428,0-1.734-.948-3.416-3.493a14.013,14.013,0,0,1-2.3-4.844c0-.748.6-.986,2.931-1.161a10.267,10.267,0,0,0,2.609-.413,2.294,2.294,0,0,0,1.676-2.243c0-1.716-1.951-2.406-4.016-3.136-1.786-.632-3.812-1.349-4.358-2.591a2.262,2.262,0,0,1-.015-1.59Zm-14.941,15.979a15.85,15.85,0,0,1,1.187-6.061c5.212,1.948,7.854,3.732,7.854,5.305a5.264,5.264,0,0,1-1.146,2.5c-.886,1.341-1.988,3.009-1.237,4.951a4.171,4.171,0,0,0,3.612,2.8,3.6,3.6,0,0,1,2.378,1.2c.81.977,1.416,2.7,1.842,5.24a16.122,16.122,0,0,1-14.49-15.941Zm26.419,12.173a5.6,5.6,0,0,1-.984-2.635c0-1.213,1.51-2.237,3.3-2.237a4.539,4.539,0,0,1,1.421.224A16.128,16.128,0,0,1,1634.29,432.708Zm4.525-6.369a6.312,6.312,0,0,0-2.212-.388c-2.642,0-5.181,1.649-5.181,4.121a7.421,7.421,0,0,0,1.365,3.777,15.836,15.836,0,0,1-8.507,2.694c-.489-3.123-1.229-5.205-2.311-6.51a5.389,5.389,0,0,0-3.444-1.841c-1.127-.235-1.747-.365-2.239-1.639-.373-.966.148-1.865,1.052-3.233a6.6,6.6,0,0,0,1.458-3.542c0-2.543-2.681-4.663-8.918-7.011a16.127,16.127,0,0,1,10.957-7.956,3.831,3.831,0,0,0,.267,2.092c.876,1.989,3.309,2.848,5.455,3.608a15.5,15.5,0,0,1,2.222.9c.44.249.539.418.539.457,0,.176,0,.315-.434.472a9.127,9.127,0,0,1-2.107.306,10.218,10.218,0,0,0-2.875.484,2.592,2.592,0,0,0-1.8,2.555c0,1.334,1.311,3.916,2.611,5.883s3.235,4.339,4.988,4.339c1.846,0,2.917-1.994,4.157-4.3,1.2-2.233,2.662-4.954,5.08-6.554a16.074,16.074,0,0,1-.122,11.287Z" transform="translate(-1599.652 -396.417)" fill="#e94b46"/>
      <path id="Trazado_101933" data-name="Trazado 101933" d="M1606.749,435.393a.943.943,0,0,0,.165-1.322,21.671,21.671,0,0,1,30.406-30.406.942.942,0,1,0,1.157-1.487,23.555,23.555,0,0,0-33.049,33.049.942.942,0,0,0,1.322.166Z" transform="translate(-1600.482 -397.232)" fill="#e94b46"/>
      <circle id="Elipse_4083" data-name="Elipse 4083" cx="0.942" cy="0.942" r="0.942" transform="translate(39.754 39.756)" fill="#e94b46"/>
      <path id="Trazado_101934" data-name="Trazado 101934" d="M1637.871,434.128a.94.94,0,0,0,1.308-.247,23.571,23.571,0,0,0-.862-27.7.942.942,0,0,0-1.488,1.157,21.686,21.686,0,0,1,.794,25.485.942.942,0,0,0,.247,1.31Z" transform="translate(-1595.03 -395.938)" fill="#e94b46"/>
      <path id="Trazado_101935" data-name="Trazado 101935" d="M1637.377,434.622a.943.943,0,0,0-1.31-.247,21.684,21.684,0,0,1-25.484-.794.942.942,0,0,0-1.158,1.487,23.57,23.57,0,0,0,27.7.863A.942.942,0,0,0,1637.377,434.622Z" transform="translate(-1599.188 -391.78)" fill="#e94b46"/>
    </g>
  </g>
</svg>
