<svg xmlns="http://www.w3.org/2000/svg" width="260.092" height="271.569" viewBox="0 0 260.092 271.569">
  <g id="Grupo_57022" data-name="Grupo 57022" transform="translate(-1681.61 -347.46)">
    <g id="Grupo_56067" data-name="Grupo 56067" transform="translate(1681.61 347.46)">
      <path id="Trazado_101072" data-name="Trazado 101072" d="M1723.463,429.584c5.759,4.861.725,10.7.725,10.7s-15.722,18.481-22.53,27.236-8.111,18.647-8.111,26.592v103.64a8.3,8.3,0,0,0,8.265,8.267h74.263a8.292,8.292,0,0,0,8.266-8.267V514.072c0-3.75-.011-18.725-.032-19.672-.7-33.361-16.288-33.819-18.449-53.135-.961-8.594-3.4-31.451-4.623-37.207s-5.755-6.079-5.755-6.079h-29.913a5.929,5.929,0,0,0-4.943,6.069V423.2A7.37,7.37,0,0,0,1723.463,429.584Z" transform="translate(-1678.536 -334.452)" fill="#e2e4f2" fill-rule="evenodd"/>
      <path id="Trazado_101073" data-name="Trazado 101073" d="M1723.463,428.2c5.759,4.861.725,10.7.725,10.7s-15.722,18.481-22.53,27.236-8.111,18.647-8.111,26.592V596.37a8.3,8.3,0,0,0,8.265,8.267h63.618a8.292,8.292,0,0,0,8.266-8.267V512.688c0-3.75-.01-18.725-.031-19.672-.7-33.361-16.288-33.819-18.45-53.135-.961-8.594-3.408-24.692-4.622-30.447s-5.756-6.079-5.756-6.079h-24.21v18.464A7.37,7.37,0,0,0,1723.463,428.2Z" transform="translate(-1678.536 -333.068)" fill="#fff" fill-rule="evenodd"/>
      <rect id="Rectángulo_5369" data-name="Rectángulo 5369" width="4.358" height="9.34" rx="0.574" transform="translate(59.812 67.199)" fill="#bcd79e"/>
      <path id="Rectángulo_5370" data-name="Rectángulo 5370" d="M2.366,0H15.611a2.366,2.366,0,0,1,2.366,2.366V19.9a2.366,2.366,0,0,1-2.366,2.366H2.367A2.367,2.367,0,0,1,0,19.9V2.366A2.366,2.366,0,0,1,2.366,0Z" transform="translate(53.001 50.256)" fill="#ccdfaa"/>
      <path id="Trazado_101074" data-name="Trazado 101074" d="M1714.388,442.892s3.062-4.02,9.737-2.246,11.995,7.773,16.473,8.872-18.669,8.618-23.232,5.322S1712.3,446.139,1714.388,442.892Z" transform="translate(-1673.474 -323.582)" fill="#bcd79e" fill-rule="evenodd"/>
      <path id="Trazado_101075" data-name="Trazado 101075" d="M1718.4,442.34c-4.7,5.573-9.336,11.212-13.764,16.9-5.352,6.883-7.027,14.916-7.027,23.456V586.332a3.177,3.177,0,0,0,3.154,3.155h74.264a3.18,3.18,0,0,0,3.157-3.155V502.65c0-6.495.1-13.082-.031-19.566-.166-7.818-1.187-15.752-4.44-22.934-2.062-4.556-4.871-8.3-7.5-12.416-7.949-10.748-22.693,2.643-36.212,2.285C1718.325,449.705,1718.212,443.907,1718.4,442.34Z" transform="translate(-1677.49 -323.03)" fill="#bcd79e" fill-rule="evenodd"/>
      <path id="Trazado_101076" data-name="Trazado 101076" d="M1718.4,442.34c-4.7,5.573-9.336,11.212-13.764,16.9-5.352,6.883-7.027,14.916-7.027,23.456V586.332a3.177,3.177,0,0,0,3.154,3.155h71.253a8.13,8.13,0,0,0,.63-3.155V502.65c0-3.75-.01-18.725-.031-19.672-.489-23.3-8.234-30.549-13.6-39.382-8.121-.718-18.907,6.69-29.009,6.422C1718.325,449.705,1718.212,443.907,1718.4,442.34Z" transform="translate(-1677.49 -323.03)" fill="#ccdfaa" fill-rule="evenodd"/>
      <path id="Trazado_101077" data-name="Trazado 101077" d="M1683.357,349.683h9.392a1.756,1.756,0,0,1,1.747,1.753V357.3a1.756,1.756,0,0,1-1.747,1.753h-9.392a1.751,1.751,0,0,1-1.746-1.753v-5.861A1.752,1.752,0,0,1,1683.357,349.683Z" transform="translate(-1681.61 -346.888)" fill="#6d6e7e" fill-rule="evenodd"/>
      <path id="Rectángulo_5371" data-name="Rectángulo 5371" d="M2.824,0H18.619A2.822,2.822,0,0,1,21.44,2.822V19.447a2.822,2.822,0,0,1-2.822,2.822H2.822A2.822,2.822,0,0,1,0,19.447V2.824A2.824,2.824,0,0,1,2.824,0Z" transform="translate(51.27 34.084)" fill="#809b7f"/>
      <rect id="Rectángulo_5372" data-name="Rectángulo 5372" width="42.805" height="9.97" rx="3.566" transform="translate(42.667 28.148)" fill="#809b7f"/>
      <path id="Trazado_101078" data-name="Trazado 101078" d="M1699.392,357.006l-7.478,2.954v16.077c0,9-3.345,17.511-6.99,22.252,0,0-.733,1.8,1,1.8h2.978s3.287-.033,6.084-3.678,14.228-30.4,14.228-30.4Z" transform="translate(-1680.797 -345.002)" fill="#9ab87e" fill-rule="evenodd"/>
      <path id="Trazado_101079" data-name="Trazado 101079" d="M1697.929,357.006l-7.478,2.954V367.1l13.1,8.548c2.373-5.369,4.2-9.646,4.2-9.646Z" transform="translate(-1679.334 -345.002)" fill="#809b7f" fill-rule="evenodd"/>
      <path id="Trazado_101080" data-name="Trazado 101080" d="M1768.315,368.66v7.8c0,4.136-2.978,4.136-2.978,4.136h-44.509c-1.641,0-3.83-1.764-3.83-1.764s-13.314-11.732-15.926-13.982-8.639-2.429-8.639-2.429l7.054-9.244,41.1-5.713h7.474s3.588-.089,4.985,1.368,12.708,13.8,12.708,13.8A9.293,9.293,0,0,1,1768.315,368.66Z" transform="translate(-1678.823 -347.46)" fill="#8fad7d" fill-rule="evenodd"/>
      <path id="Rectángulo_5373" data-name="Rectángulo 5373" d="M2.931,0H29.859A2.931,2.931,0,0,1,32.79,2.931V19.338a2.931,2.931,0,0,1-2.931,2.931H2.928A2.928,2.928,0,0,1,0,19.342V2.931A2.931,2.931,0,0,1,2.931,0Z" transform="translate(45.595 41.258)" fill="#8fad7d"/>
      <path id="Rectángulo_5374" data-name="Rectángulo 5374" d="M2.931,0H21.917a2.931,2.931,0,0,1,2.931,2.931V19.338a2.931,2.931,0,0,1-2.931,2.931H2.928A2.928,2.928,0,0,1,0,19.342V2.931A2.931,2.931,0,0,1,2.931,0Z" transform="translate(45.595 41.258)" fill="#9ab87e"/>
      <path id="Rectángulo_5375" data-name="Rectángulo 5375" d="M2.226,0H58.206a2.226,2.226,0,0,1,2.226,2.226V12.735a2.223,2.223,0,0,1-2.223,2.223H2.223A2.223,2.223,0,0,1,0,12.735V2.226A2.226,2.226,0,0,1,2.226,0Z" transform="translate(5.956 0)" fill="#9ab87e"/>
      <path id="Trazado_101081" data-name="Trazado 101081" d="M1716.933,477.611h36.161a8.132,8.132,0,0,1,8.111,8.107v62.863a8.132,8.132,0,0,1-8.111,8.1h-36.161a8.131,8.131,0,0,1-8.112-8.1V485.718A8.131,8.131,0,0,1,1716.933,477.611Z" transform="translate(-1674.604 -313.948)" fill="#fff" fill-rule="evenodd"/>
      <path id="Trazado_101082" data-name="Trazado 101082" d="M1718.856,512.757l7.506-19.768a1.8,1.8,0,0,1,1.684-1.154l16.243.094a1.789,1.789,0,0,1,1.577,2.8l-6.343,9.263h4.2a1.8,1.8,0,0,1,1.585,2.639l-14.634,27.558a1.793,1.793,0,0,1-3.32-1.294l4.721-17.708h-11.541a1.983,1.983,0,0,1-.634-.12A1.79,1.79,0,0,1,1718.856,512.757Z" transform="translate(-1672.05 -310.286)" fill="#ccdfaa" fill-rule="evenodd"/>
    </g>
    <g id="Grupo_56068" data-name="Grupo 56068" transform="translate(1753.839 351.295)">
      <rect id="Rectángulo_5376" data-name="Rectángulo 5376" width="11.265" height="102.877" transform="translate(93.478 101.252)" fill="#c3322b"/>
      <path id="Trazado_101083" data-name="Trazado 101083" d="M1778.12,371.244v3.077a11.291,11.291,0,0,1-3.408,7.512c-3.467,3.471-26.817,26.818-26.817,26.818s-8.846,8.082-8.846,16.643V599.451a13.457,13.457,0,0,0,13.419,13.419h84.846a13.458,13.458,0,0,0,13.424-13.419V549.983c-.328-2.787-1.8-6.609-7.393-6.609h-16.3s-6.61-.663-6.61-8.59V464.6c0-7.935,6.61-8.589,6.61-8.589h16.3c7.2,0,7.064-3.83,7.393-6.612V425.295c0-8.561-8.85-16.643-8.85-16.643s-23.348-23.348-26.817-26.818a11.282,11.282,0,0,1-3.406-7.512V363.478H1778.12Z" transform="translate(-1739.049 -347.171)" fill="#465ea6" fill-rule="evenodd"/>
      <path id="Trazado_101084" data-name="Trazado 101084" d="M1803.893,372.781h-32.671a3.7,3.7,0,0,1-3.686-3.689V354.2a3.7,3.7,0,0,1,3.686-3.689h32.671a3.7,3.7,0,0,1,3.683,3.689v14.892A3.7,3.7,0,0,1,1803.893,372.781Z" transform="translate(-1731.714 -350.51)" fill="#c3322b" fill-rule="evenodd"/>
      <path id="Trazado_101085" data-name="Trazado 101085" d="M1777.4,354.2v14.892a3.7,3.7,0,0,0,3.69,3.689h-9.871c-.148,0-.292-.015-.437-.028a3.7,3.7,0,0,1-3.249-3.662V354.2a3.7,3.7,0,0,1,3.686-3.689h9.871A3.7,3.7,0,0,0,1777.4,354.2Z" transform="translate(-1731.714 -350.51)" fill="#a42429" fill-rule="evenodd"/>
      <path id="Trazado_101086" data-name="Trazado 101086" d="M1765.2,407.436s-8.848,8.082-8.848,16.643V598.236a13.457,13.457,0,0,0,13.42,13.419h-17.3a13.457,13.457,0,0,1-13.419-13.419V424.079c0-8.561,8.846-16.643,8.846-16.643s23.35-23.348,26.817-26.818a11.291,11.291,0,0,0,3.408-7.512V368.2c.145.013.289.028.436.028h16.867v4.879a11.277,11.277,0,0,1-3.408,7.512C1788.547,384.089,1765.2,407.436,1765.2,407.436Z" transform="translate(-1739.049 -345.955)" fill="#2f4697" fill-rule="evenodd"/>
      <path id="Trazado_101087" data-name="Trazado 101087" d="M1799.053,381.126a1.273,1.273,0,0,0-1.827,1.773l20.46,21.116a1.27,1.27,0,1,0,1.826-1.767l-20.46-21.122Zm25.688,26.514a1.273,1.273,0,0,0-1.827,1.774l2.2,2.261a1.271,1.271,0,0,0,1.828-1.767Z" transform="translate(-1724.162 -342.725)" fill="#fff" fill-rule="evenodd"/>
    </g>
    <g id="Grupo_56069" data-name="Grupo 56069" transform="translate(1835.896 347.463)">
      <path id="Trazado_101088" data-name="Trazado 101088" d="M1846.155,429.584c5.759,4.865.732,10.706.732,10.706s-15.729,18.481-22.536,27.236-8.1,18.647-8.1,26.592V597.753a8.292,8.292,0,0,0,8.266,8.267h74.257a8.292,8.292,0,0,0,8.266-8.267V514.076c0-3.752-.008-18.726-.027-19.677-.7-33.357-16.292-33.816-18.454-53.131-.958-8.6-3.4-31.455-4.619-37.206s-5.759-6.079-5.759-6.079h-29.908a5.927,5.927,0,0,0-4.943,6.065V423.2A7.355,7.355,0,0,0,1846.155,429.584Z" transform="translate(-1801.229 -334.454)" fill="#ced1e8" fill-rule="evenodd"/>
      <path id="Trazado_101089" data-name="Trazado 101089" d="M1846.155,428.2c5.759,4.865.732,10.706.732,10.706s-15.729,18.481-22.536,27.236-8.1,18.647-8.1,26.592V596.37a8.292,8.292,0,0,0,8.266,8.267h63.611a8.292,8.292,0,0,0,8.265-8.267V512.693c0-3.752-.012-18.726-.027-19.677-.7-33.357-16.292-33.816-18.454-53.131-.958-8.594-3.407-24.7-4.619-30.451s-5.759-6.079-5.759-6.079h-24.205v18.464A7.355,7.355,0,0,0,1846.155,428.2Z" transform="translate(-1801.229 -333.071)" fill="#fff" fill-rule="evenodd"/>
      <path id="Rectángulo_5377" data-name="Rectángulo 5377" d="M.574,0H3.788a.577.577,0,0,1,.577.577V8.762a.574.574,0,0,1-.574.574H.577A.577.577,0,0,1,0,8.759V.574A.574.574,0,0,1,.574,0Z" transform="translate(59.809 67.201)" fill="#8fccee"/>
      <path id="Rectángulo_5378" data-name="Rectángulo 5378" d="M2.366,0H15.614a2.368,2.368,0,0,1,2.368,2.368V19.9a2.366,2.366,0,0,1-2.366,2.366H2.368A2.368,2.368,0,0,1,0,19.9V2.366A2.366,2.366,0,0,1,2.366,0Z" transform="translate(53.001 50.257)" fill="#bddff2"/>
      <path id="Trazado_101090" data-name="Trazado 101090" d="M1837.082,442.892s3.062-4.016,9.737-2.242,12,7.773,16.474,8.872-18.671,8.617-23.233,5.322S1834.991,446.141,1837.082,442.892Z" transform="translate(-1796.169 -323.584)" fill="#8fccee" fill-rule="evenodd"/>
      <path id="Trazado_101091" data-name="Trazado 101091" d="M1841.1,442.34c-4.69,5.577-9.337,11.215-13.758,16.9-5.351,6.884-7.034,14.913-7.034,23.456V586.332a3.184,3.184,0,0,0,3.162,3.155h74.257a3.183,3.183,0,0,0,3.161-3.155V502.655c0-6.5.1-13.083-.036-19.568-.161-7.822-1.182-15.753-4.434-22.938-2.064-4.552-4.872-8.294-7.5-12.413-7.949-10.751-22.693,2.643-36.21,2.281C1841.019,449.708,1840.914,443.911,1841.1,442.34Z" transform="translate(-1800.185 -323.033)" fill="#8fccee" fill-rule="evenodd"/>
      <path id="Trazado_101092" data-name="Trazado 101092" d="M1841.1,442.34c-4.69,5.577-9.337,11.215-13.758,16.9-5.351,6.884-7.034,14.913-7.034,23.456V586.332a3.184,3.184,0,0,0,3.162,3.155h71.25a8.221,8.221,0,0,0,.626-3.155V502.655c0-3.752-.012-18.726-.027-19.677-.493-23.294-8.238-30.546-13.6-39.378-8.123-.722-18.911,6.689-29.006,6.418C1841.019,449.708,1840.914,443.911,1841.1,442.34Z" transform="translate(-1800.185 -323.033)" fill="#bddff2" fill-rule="evenodd"/>
      <path id="Rectángulo_5379" data-name="Rectángulo 5379" d="M1.393,0H11.5A1.394,1.394,0,0,1,12.89,1.394V7.973A1.391,1.391,0,0,1,11.5,9.364H1.393A1.393,1.393,0,0,1,0,7.97V1.393A1.393,1.393,0,0,1,1.393,0Z" transform="translate(0 2.797)" fill="#131742"/>
      <path id="Rectángulo_5380" data-name="Rectángulo 5380" d="M2.821,0h15.8a2.821,2.821,0,0,1,2.821,2.821V19.444a2.822,2.822,0,0,1-2.822,2.822H2.821A2.821,2.821,0,0,1,0,19.444V2.821A2.821,2.821,0,0,1,2.821,0Z" transform="translate(51.269 34.085)" fill="#131742"/>
      <path id="Rectángulo_5381" data-name="Rectángulo 5381" d="M3.567,0H39.234A3.566,3.566,0,0,1,42.8,3.566v2.84a3.566,3.566,0,0,1-3.566,3.566H3.566A3.566,3.566,0,0,1,0,6.407V3.567A3.567,3.567,0,0,1,3.567,0Z" transform="translate(42.672 28.146)" fill="#1d204d"/>
      <path id="Trazado_101093" data-name="Trazado 101093" d="M1822.092,357.009l-7.486,2.954V376.04c0,9-3.344,17.507-6.99,22.252,0,0-.724,1.792,1.007,1.792h2.978s3.281-.029,6.084-3.678,14.221-30.4,14.221-30.4Z" transform="translate(-1803.49 -345.004)" fill="#c3322b" fill-rule="evenodd"/>
      <path id="Trazado_101094" data-name="Trazado 101094" d="M1820.63,357.009l-7.486,2.954v7.143l13.1,8.548c2.373-5.369,4.2-9.65,4.2-9.65Z" transform="translate(-1802.028 -345.004)" fill="#a42429" fill-rule="evenodd"/>
      <path id="Trazado_101095" data-name="Trazado 101095" d="M1891.009,368.662v7.8c0,4.136-2.978,4.136-2.978,4.136h-44.5c-1.641,0-3.83-1.768-3.83-1.768s-13.321-11.729-15.932-13.978-8.631-2.43-8.631-2.43l7.053-9.244,41.1-5.714h7.469s3.591-.092,4.985,1.369,12.708,13.8,12.708,13.8A9.263,9.263,0,0,1,1891.009,368.662Z" transform="translate(-1801.516 -347.462)" fill="#c3322b" fill-rule="evenodd"/>
      <path id="Rectángulo_5382" data-name="Rectángulo 5382" d="M2.931,0H29.862A2.934,2.934,0,0,1,32.8,2.934v16.4a2.934,2.934,0,0,1-2.934,2.934H2.934A2.934,2.934,0,0,1,0,19.335V2.931A2.931,2.931,0,0,1,2.931,0Z" transform="translate(45.594 41.259)" fill="#a42429"/>
      <path id="Rectángulo_5383" data-name="Rectángulo 5383" d="M2.931,0H21.92a2.934,2.934,0,0,1,2.934,2.934V19.339a2.931,2.931,0,0,1-2.931,2.931H2.934A2.934,2.934,0,0,1,0,19.335V2.931A2.931,2.931,0,0,1,2.931,0Z" transform="translate(45.594 41.259)" fill="#c3322b"/>
      <path id="Trazado_101096" data-name="Trazado 101096" d="M1811.843,347.463h54.833a2.809,2.809,0,0,1,2.8,2.8v9.367a2.806,2.806,0,0,1-2.8,2.8h-54.833a2.805,2.805,0,0,1-2.8-2.8v-9.367A2.808,2.808,0,0,1,1811.843,347.463Z" transform="translate(-1803.085 -347.462)" fill="#ce542b" fill-rule="evenodd"/>
      <path id="Trazado_101097" data-name="Trazado 101097" d="M1839.624,477.611h36.166a8.137,8.137,0,0,1,8.113,8.112v62.859a8.137,8.137,0,0,1-8.113,8.111h-36.166a8.131,8.131,0,0,1-8.1-8.111V485.723A8.131,8.131,0,0,1,1839.624,477.611Z" transform="translate(-1797.297 -313.951)" fill="#131742" fill-rule="evenodd"/>
      <path id="Trazado_101098" data-name="Trazado 101098" d="M1841.549,512.764l7.512-19.769a1.786,1.786,0,0,1,1.683-1.156l16.243.092a1.765,1.765,0,0,1,1.105.309,1.8,1.8,0,0,1,.471,2.492l-6.343,9.259h4.2a1.826,1.826,0,0,1,.844.211,1.8,1.8,0,0,1,.74,2.428l-14.629,27.558a1.8,1.8,0,0,1-3.324-1.3l4.724-17.708h-11.547a1.628,1.628,0,0,1-.626-.119A1.787,1.787,0,0,1,1841.549,512.764Z" transform="translate(-1794.744 -310.287)" fill="#8fccee" fill-rule="evenodd"/>
    </g>
  </g>
</svg>
