<svg xmlns="http://www.w3.org/2000/svg" xmlns:xlink="http://www.w3.org/1999/xlink" width="487.848" height="296.549" viewBox="0 0 487.848 296.549">
  <defs>
    <linearGradient id="linear-gradient" x1="0.5" y1="1.039" x2="0.5" y2="-0.022" gradientUnits="objectBoundingBox">
      <stop offset="0" stop-color="#e6e6e6"/>
      <stop offset="0.42" stop-color="#fff"/>
    </linearGradient>
    <linearGradient id="linear-gradient-2" x1="0.5" y1="0.119" x2="0.5" y2="1.472" gradientUnits="objectBoundingBox">
      <stop offset="0" stop-color="#231f20"/>
      <stop offset="0.903" stop-color="#505052"/>
    </linearGradient>
    <linearGradient id="linear-gradient-3" x1="0.5" y1="-1.601" x2="0.5" y2="1.31" xlink:href="#linear-gradient-2"/>
    <linearGradient id="linear-gradient-4" x1="0.5" y1="-1.631" x2="0.5" y2="1.297" xlink:href="#linear-gradient-2"/>
    <linearGradient id="linear-gradient-5" x1="0.5" y1="-2.189" x2="0.5" y2="0.497" xlink:href="#linear-gradient-2"/>
    <linearGradient id="linear-gradient-6" x1="0.5" y1="-2.18" x2="0.5" y2="0.5" xlink:href="#linear-gradient-2"/>
    <linearGradient id="linear-gradient-7" x1="0.5" y1="-18.273" x2="0.5" y2="9.284" xlink:href="#linear-gradient-2"/>
    <linearGradient id="linear-gradient-8" x1="0.5" y1="-18.837" x2="0.5" y2="5.935" xlink:href="#linear-gradient-2"/>
    <linearGradient id="linear-gradient-9" x1="0.5" y1="-12.719" x2="0.5" y2="9.602" xlink:href="#linear-gradient-2"/>
    <linearGradient id="linear-gradient-10" x1="0.5" y1="-25.229" x2="0.5" y2="11.085" xlink:href="#linear-gradient-2"/>
    <linearGradient id="linear-gradient-11" x1="0.5" y1="-20.917" x2="0.5" y2="2.867" xlink:href="#linear-gradient-2"/>
    <linearGradient id="linear-gradient-12" x1="0.5" y1="-24.085" x2="0.5" y2="13.419" xlink:href="#linear-gradient-2"/>
    <linearGradient id="linear-gradient-13" x1="0.5" y1="-31.128" x2="0.5" y2="8.733" xlink:href="#linear-gradient-2"/>
    <linearGradient id="linear-gradient-14" x1="0.5" y1="-36.205" x2="0.5" y2="9.966" xlink:href="#linear-gradient-2"/>
    <linearGradient id="linear-gradient-15" x1="0.5" y1="-32.163" x2="0.5" y2="18.935" xlink:href="#linear-gradient-2"/>
    <linearGradient id="linear-gradient-16" y1="1.037" y2="-0.02" xlink:href="#linear-gradient"/>
    <linearGradient id="linear-gradient-17" x1="0.5" y1="0.937" x2="0.5" y2="-0.506" xlink:href="#linear-gradient-2"/>
    <linearGradient id="linear-gradient-18" x1="0.5" y1="0.877" x2="0.5" y2="0.05" xlink:href="#linear-gradient-2"/>
    <linearGradient id="linear-gradient-19" y1="1.041" y2="-0.024" xlink:href="#linear-gradient"/>
  </defs>
  <g id="Grupo_56803" data-name="Grupo 56803" transform="translate(-705.719 -30.492)">
    <rect id="Rectángulo_8318" data-name="Rectángulo 8318" width="486.848" height="295.549" rx="29.478" transform="translate(706.219 30.992)" fill="#fff" stroke="#4d4d4d" stroke-miterlimit="10" stroke-width="1"/>
    <g id="Grupo_56789" data-name="Grupo 56789" transform="translate(1026.601 261.727)">
      <rect id="Rectángulo_8319" data-name="Rectángulo 8319" width="102.776" height="63.596" rx="4.368" fill="#fff"/>
      <rect id="Rectángulo_8320" data-name="Rectángulo 8320" width="0.672" height="39.758" transform="translate(16.558 11.191)"/>
      <rect id="Rectángulo_8321" data-name="Rectángulo 8321" width="0.672" height="39.758" transform="translate(18.63 11.191)"/>
      <rect id="Rectángulo_8322" data-name="Rectángulo 8322" width="0.672" height="39.758" transform="translate(24.173 11.191)"/>
      <rect id="Rectángulo_8323" data-name="Rectángulo 8323" width="0.672" height="39.758" transform="translate(25.307 11.191)"/>
      <rect id="Rectángulo_8324" data-name="Rectángulo 8324" width="0.672" height="39.758" transform="translate(26.315 11.191)"/>
      <rect id="Rectángulo_8325" data-name="Rectángulo 8325" width="0.672" height="39.758" transform="translate(32.951 11.191)"/>
      <rect id="Rectángulo_8326" data-name="Rectángulo 8326" width="0.497" height="39.758" transform="translate(40.581 11.191)"/>
      <rect id="Rectángulo_8327" data-name="Rectángulo 8327" width="0.497" height="39.758" transform="translate(41.736 11.191)"/>
      <rect id="Rectángulo_8328" data-name="Rectángulo 8328" width="0.497" height="39.758" transform="translate(42.744 11.191)"/>
      <rect id="Rectángulo_8329" data-name="Rectángulo 8329" width="0.497" height="39.758" transform="translate(43.688 11.191)"/>
      <rect id="Rectángulo_8330" data-name="Rectángulo 8330" width="0.497" height="39.758" transform="translate(48.476 11.191)"/>
      <rect id="Rectángulo_8331" data-name="Rectángulo 8331" width="0.497" height="39.758" transform="translate(49.631 11.191)"/>
      <rect id="Rectángulo_8332" data-name="Rectángulo 8332" width="0.497" height="39.758" transform="translate(50.639 11.191)"/>
      <rect id="Rectángulo_8333" data-name="Rectángulo 8333" width="0.497" height="39.758" transform="translate(60.159 11.191)"/>
      <rect id="Rectángulo_8334" data-name="Rectángulo 8334" width="0.784" height="39.758" transform="translate(68.832 11.191)"/>
      <rect id="Rectángulo_8335" data-name="Rectángulo 8335" width="0.784" height="39.758" transform="translate(74.236 11.191)"/>
      <rect id="Rectángulo_8336" data-name="Rectángulo 8336" width="0.784" height="39.758" transform="translate(69.98 11.191)"/>
      <rect id="Rectángulo_8337" data-name="Rectángulo 8337" width="0.784" height="39.758" transform="translate(75.439 11.191)"/>
      <rect id="Rectángulo_8338" data-name="Rectángulo 8338" width="0.784" height="39.758" transform="translate(76.671 11.191)"/>
      <rect id="Rectángulo_8339" data-name="Rectángulo 8339" width="0.784" height="39.758" transform="translate(79.695 11.191)"/>
      <rect id="Rectángulo_8340" data-name="Rectángulo 8340" width="1.344" height="39.758" transform="translate(77.707 11.191)"/>
      <rect id="Rectángulo_8341" data-name="Rectángulo 8341" width="1.344" height="39.758" transform="translate(81.095 11.191)"/>
      <rect id="Rectángulo_8342" data-name="Rectángulo 8342" width="1.344" height="39.758" transform="translate(83.055 11.191)"/>
      <rect id="Rectángulo_8343" data-name="Rectángulo 8343" width="0.672" height="39.758" transform="translate(85.099 11.191)"/>
      <rect id="Rectángulo_8344" data-name="Rectángulo 8344" width="0.672" height="39.758" transform="translate(65.556 11.191)"/>
      <rect id="Rectángulo_8345" data-name="Rectángulo 8345" width="0.973" height="39.758" transform="translate(63.351 11.191)"/>
      <rect id="Rectángulo_8346" data-name="Rectángulo 8346" width="0.497" height="39.758" transform="translate(51.584 11.191)"/>
      <rect id="Rectángulo_8347" data-name="Rectángulo 8347" width="0.497" height="39.758" transform="translate(59.06 11.191)"/>
      <rect id="Rectángulo_8348" data-name="Rectángulo 8348" width="0.497" height="39.758" transform="translate(55.084 11.191)"/>
      <rect id="Rectángulo_8349" data-name="Rectángulo 8349" width="1.155" height="39.758" transform="translate(44.844 11.191)"/>
      <rect id="Rectángulo_8350" data-name="Rectángulo 8350" width="1.155" height="39.758" transform="translate(46.418 11.191)"/>
      <rect id="Rectángulo_8351" data-name="Rectángulo 8351" width="1.638" height="39.758" transform="translate(52.97 11.191)"/>
      <rect id="Rectángulo_8352" data-name="Rectángulo 8352" width="1.638" height="39.758" transform="translate(56.106 11.191)"/>
      <rect id="Rectángulo_8353" data-name="Rectángulo 8353" width="1.638" height="39.758" transform="translate(61.23 11.191)"/>
      <rect id="Rectángulo_8354" data-name="Rectángulo 8354" width="1.638" height="39.758" transform="translate(66.634 11.191)"/>
      <rect id="Rectángulo_8355" data-name="Rectángulo 8355" width="1.638" height="39.758" transform="translate(71.169 11.191)"/>
      <rect id="Rectángulo_8356" data-name="Rectángulo 8356" width="0.672" height="39.758" transform="translate(38.432 11.191)"/>
      <rect id="Rectángulo_8357" data-name="Rectángulo 8357" width="1.512" height="39.758" transform="translate(19.917 11.191)"/>
      <rect id="Rectángulo_8358" data-name="Rectángulo 8358" width="1.512" height="39.758" transform="translate(22.101 11.191)"/>
      <rect id="Rectángulo_8359" data-name="Rectángulo 8359" width="1.974" height="39.758" transform="translate(28.359 11.191)"/>
      <rect id="Rectángulo_8360" data-name="Rectángulo 8360" width="1.554" height="39.758" transform="translate(30.69 11.191)"/>
      <rect id="Rectángulo_8361" data-name="Rectángulo 8361" width="1.68" height="39.758" transform="translate(34.008 11.191)"/>
      <rect id="Rectángulo_8362" data-name="Rectángulo 8362" width="1.995" height="39.758" transform="translate(36.045 11.191)"/>
      <g id="Grupo_56788" data-name="Grupo 56788" transform="translate(33.464 51.572)">
        <path id="Trazado_102065" data-name="Trazado 102065" d="M1009.083,331.339c-.244,0-.244-.259-.3-.437a2.3,2.3,0,0,1-.132-.537c-1.434-.017-.782-.126-1.163.805a.238.238,0,0,1-.466-.09c0-.033.631-2.46.641-2.494.1-.463.088-.626.531-.626.413,0,.4.215.5.73.186.729.612,2.332.612,2.423A.227.227,0,0,1,1009.083,331.339Zm-.9-2.791-.122.391-.245.955h.706Z" transform="translate(-1007.026 -327.664)"/>
        <path id="Trazado_102066" data-name="Trazado 102066" d="M1010.385,329.664c0-1.149.111-2,1.186-2,1.033,0,1.181.761,1.181,1.8s-.143,1.906-1.181,1.906C1010.614,331.372,1010.385,330.621,1010.385,329.664Zm.48.042c0,.65.127,1.031.381,1.149a.675.675,0,0,0,.287.047c.395,0,.692-.078.734-.913.017-.441.092-1.5-.277-1.761a.912.912,0,0,0-.612-.08C1010.967,328.206,1010.865,329.058,1010.865,329.706Z" transform="translate(-1007.026 -327.664)"/>
        <path id="Trazado_102067" data-name="Trazado 102067" d="M1014.925,330.779c.018-.3,0,.261.009-2.466-.149.149-.564.56-.753.56a.229.229,0,0,1-.235-.231c0-.183.234-.293.7-.715.153-.138.25-.254.452-.254s.315.1.315.292c0,.034-.012,2.559,0,2.767.017.251.025.617-.225.617C1015.009,331.349,1014.906,331.045,1014.925,330.779Z" transform="translate(-1007.026 -327.664)"/>
        <path id="Trazado_102068" data-name="Trazado 102068" d="M1018.307,329.518c-.091-.023-.283.019-.386-.085-.291-.262.32-.618.833-1.223-1.219,0-1.534.089-1.534-.24s.353-.246,1.717-.236c.189,0,.471-.042.466.306s-.51.616-.818,1.059a1.064,1.064,0,0,1,.922,1.106c0,1.492-2.3,1.3-2.3.772a.222.222,0,0,1,.222-.231,4.213,4.213,0,0,0,.72.141C1019.238,330.887,1019.392,329.666,1018.307,329.518Z" transform="translate(-1007.026 -327.664)"/>
        <path id="Trazado_102069" data-name="Trazado 102069" d="M1022.014,329.8c-.4.273-.8.541-.8,1.03h1.139c.113,0,.5-.08.5.236s-.418.235-.593.235h-1.021c-.318,0-.513.036-.513-.358,0-1.493,1.638-1.472,1.638-2.273,0-.278-.2-.522-.65-.522-.414,0-.687.235-.828.235-.214,0-.379-.372.141-.574.879-.341,1.807-.036,1.807.9A2.354,2.354,0,0,1,1022.014,329.8Z" transform="translate(-1007.026 -327.664)"/>
        <path id="Trazado_102070" data-name="Trazado 102070" d="M1025.4,330.525c-1.327.02-1.279-.008-1.351-.094-.195-.261.088-.668.415-1.384l.329-.7c.144-.446.279-.664.461-.664a.23.23,0,0,1,.236.231,1.78,1.78,0,0,1-.278.654c-.016.034-.634,1.363-.706,1.483h.894c0-.3-.108-.772.236-.772s.235.492.235.772c.193,0,.475-.049.475.23s-.316.24-.475.24c0,.283.122.814-.235.814S1025.4,330.773,1025.4,330.525Z" transform="translate(-1007.026 -327.664)"/>
        <path id="Trazado_102071" data-name="Trazado 102071" d="M1028.147,328.21l-.043.677c1.016,0,1.461.482,1.45,1.139a1.293,1.293,0,0,1-.32.852,2.117,2.117,0,0,1-1.36.5c-.434,0-.407-.369-.212-.461a.8.8,0,0,1,.3-.038c1.408,0,1.511-1.485.278-1.52-.313,0-.626.117-.626-.3,0-.151.038-.293.038-.4.025-1.09-.077-.925,1.374-.918.214,0,.513-.043.513.236C1029.535,328.319,1028.657,328.182,1028.147,328.21Z" transform="translate(-1007.026 -327.664)"/>
        <path id="Trazado_102072" data-name="Trazado 102072" d="M1032.512,328.073c-.178.256.037-.122-.823.96a1.194,1.194,0,1,1-.89,1.139,3.652,3.652,0,0,1,1.53-2.485A.261.261,0,0,1,1032.512,328.073Zm-.527,1.4a.652.652,0,0,0-.72.729.716.716,0,1,0,1.431-.038A.782.782,0,0,0,1031.985,329.476Z" transform="translate(-1007.026 -327.664)"/>
        <path id="Trazado_102073" data-name="Trazado 102073" d="M1034.779,331.043c0-1.725.927-2.058,1.252-2.838h-1.257c-.223,0-.564.076-.564-.235,0-.334.462-.236.644-.236l1.356-.005c.466,0,.42.416.193.81a10.838,10.838,0,0,1-.749,1.017c-.651,1.012-.157,1.783-.63,1.783C1034.9,331.339,1034.779,331.264,1034.779,331.043Z" transform="translate(-1007.026 -327.664)"/>
        <path id="Trazado_102074" data-name="Trazado 102074" d="M1038.283,329.306a.84.84,0,0,1-.207-1.417c.611-.429,1.723-.215,1.723.58a.991.991,0,0,1-.508.851,1.064,1.064,0,0,1-.5,2.047A1.1,1.1,0,0,1,1038.283,329.306Zm.772.414c-.241-.165-.269-.207-.48-.056-.822.594-.523,1.233.221,1.233C1039.508,330.9,1039.792,330.245,1039.055,329.72Zm-.818-1.214c0,.27.42.523.545.523a.64.64,0,0,0,.551-.528c0-.211-.226-.362-.532-.362C1038.564,328.139,1038.237,328.232,1038.237,328.506Z" transform="translate(-1007.026 -327.664)"/>
        <path id="Trazado_102075" data-name="Trazado 102075" d="M1041.614,330.826h1.139c.113,0,.5-.08.5.236,0,.341-.289.24-1.788.24-.25,0-.339-.1-.339-.363,0-1.12.9-1.374,1.4-1.807.426-.378.282-.988-.41-.988-.414,0-.687.235-.828.235a.219.219,0,0,1-.2-.235c0-.532,2.151-.912,2.151.56C1043.237,329.226,1041.614,329.854,1041.614,330.826Z" transform="translate(-1007.026 -327.664)"/>
      </g>
    </g>
    <g id="Grupo_56802" data-name="Grupo 56802" transform="translate(724.447 47.619)">
      <g id="Grupo_56794" data-name="Grupo 56794" transform="translate(75.148 57.542)">
        <g id="Grupo_56792" data-name="Grupo 56792">
          <g id="Grupo_56791" data-name="Grupo 56791">
            <g id="Grupo_56790" data-name="Grupo 56790">
              <rect id="Rectángulo_8363" data-name="Rectángulo 8363" width="94.379" height="94.379" rx="7.269" transform="translate(0 66.736) rotate(-45)" fill="#d61b22"/>
              <rect id="Rectángulo_8364" data-name="Rectángulo 8364" width="80.36" height="80.36" rx="10.497" transform="translate(9.913 66.736) rotate(-45)" fill="url(#linear-gradient)"/>
            </g>
          </g>
        </g>
        <g id="Grupo_56793" data-name="Grupo 56793" transform="translate(33.813 22.038)">
          <path id="Trazado_102076" data-name="Trazado 102076" d="M834.293,179.272a5.171,5.171,0,0,1-.706.245c-.371.069-1.65-1.132-1.559-1.494a.782.782,0,0,1,.461-.411c2.7-1.011,5.417-2,8.127-3,.64-.236,1.276-.487,1.924-.7a.621.621,0,0,0,.492-.618c.112-1.441.255-2.879.364-4.319a.944.944,0,0,0-.148-.644,23.006,23.006,0,0,1-4.574-8.56,29.212,29.212,0,0,1-1.845-10.367c.178-4.934,1.923-9.2,5.874-12.265,4.185-3.244,8.914-4.386,13.892-2.057a15.559,15.559,0,0,1,9.2,12.379,27.519,27.519,0,0,1-1.31,12.291,24.523,24.523,0,0,1-4.461,8.878.969.969,0,0,0-.208.577c.008,1.367.058,2.734.058,4.1,0,.378.161.494.481.589q5.887,1.758,11.782,3.541c.114.421.067.717-.444.8a.648.648,0,0,0-.384.291c-.253.416-.478.85-.7,1.283a1.171,1.171,0,0,1-1.835.532c-.147-.086-.291-.179-.491-.3-.184.6-.526,1-1.024.995a11.1,11.1,0,0,1-.539,1.589.762.762,0,0,1-1.1.351.769.769,0,0,0-.479.03c-.38.1-.746.266-1.131.337a.511.511,0,0,1-.43-.252c-.1-.43-.31-.437-.631-.263a1.4,1.4,0,0,1-1.63-.176,2.056,2.056,0,0,0-.772-.173c-.054.343-.249.749-.131,1.015.217.485.375.862-.164,1.2-.437.273-.852.154-1.281-.337l-.933.329.1.067c-.248.267-.449.658-.754.773a1.447,1.447,0,0,1-1.638-.254.814.814,0,0,1-.222-1.053.537.537,0,0,0-.121-.771,1.594,1.594,0,0,1-.463-1.608,8.771,8.771,0,0,0,.244-1.082,2.208,2.208,0,0,0-.211-.762c-.022-.066-.152-.135-.14-.169.226-.633-.293-.735-.644-1-.146-.112-.159-.45-.15-.682,0-.061.313-.106.48-.166a2.258,2.258,0,0,0,.8-.335c.082-.08-.143-.452-.189-.7-.035-.193-.09-.459.006-.585.411-.541.124-.929-.248-1.27-.282-.259-.433-.462-.187-.839.063-.1-.053-.4-.175-.509-.9-.8-.942-1.108-.265-2.115.211-.313.367-.557-.093-.916a1.708,1.708,0,0,1-.372-1.243c.011-.484.034-.8-.5-1.065s-.6-.9-.613-1.493a3.422,3.422,0,0,0-.186-.746,4.043,4.043,0,0,0-.2-.7,5.642,5.642,0,0,0-.444-.685,2.378,2.378,0,0,0-.488.489c-.221.417-.439.869.127,1.224.056.035.124.15.105.192-.228.52.2,1.235-.495,1.632-.1.057-.131.383-.076.542a2.145,2.145,0,0,1-.584,2.616,1.692,1.692,0,0,0-.2,1.081c.01.429.127.842-.216,1.219-.067.073.011.4.118.48.141.1.469.177.559.093.5-.467.712-.135.892.285.247.575.135.814-.437,1a.831.831,0,0,0-.14.1c.089.231.187.475.277.722a1.6,1.6,0,0,1-.669,1.979c-.156.071-.256.313-.337.495s-.071.387-.148.563c-.325.745-.331.742.1,1.385-.493.61-.481.606-.214,1.517a1.215,1.215,0,0,1-.049.605,6.89,6.89,0,0,1-.279.82c-.054.14-.118.362-.217.385-.532.128-.683.57-.934.963-.14.218-.457.322-.694.478-.121-.26-.257-.515-.356-.784a1.529,1.529,0,0,1-.007-.447,1.1,1.1,0,0,1-1.188-.547c-.127-.182-.649-.188-.956-.118-.362.082-.648.19-.955-.128s-.465.01-.633.214a1.688,1.688,0,0,1-2.713-.036,3.97,3.97,0,0,1-.319-.853c-1.472.035-1.358-.072-1.737-.969a1.128,1.128,0,0,0-.214.015c-1.063.267-1.466.117-1.993-.795a.864.864,0,0,0-.825-.467c-.522-.054-1-.6-1.476-.966C834.373,179.679,834.362,179.461,834.293,179.272Z" transform="translate(-819.956 -133.852)" fill="url(#linear-gradient-2)"/>
          <path id="Trazado_102077" data-name="Trazado 102077" d="M873.657,200.985c-1.521.37-2.634.018-2.8-1.9a1.254,1.254,0,0,1-1.79.217,1.545,1.545,0,0,1-.558-.729c-.13-.3-.219-.394-.548-.234a1.546,1.546,0,0,1-2.291-.624c-.248-.4-.47-.295-.679-.046-.4.474-.733.21-1.038-.077a.624.624,0,0,1,.16-1c.572-.266.356-.758.451-1.155.021-.089-.2-.233-.3-.352-.327.594-.862-.84-1.188.123a.676.676,0,0,1-.581.313,1.67,1.67,0,0,1-.967-.489c-.146-.205,0-.641.067-.962.028-.125.234-.2.323-.325a.848.848,0,0,0-.018-1.086c-.268-.334-.624-.219-.883.012-.393.351-.78.582-1.2.106-.36-.408-.22-.915.269-1.308a10.071,10.071,0,0,1-.221-1.253c-.036-.668.353-.995,1.022-.944.26.02.523,0,.814,0-.414-1.018-.073-1.55.969-1.7a.59.59,0,0,0,.394-.367,2.19,2.19,0,0,1,2.7-1.874c.52.058,1.048-.481,1.654-.529.055,0,.121-.27.127-.417a2.223,2.223,0,0,1,2.183-2.276.922.922,0,0,0,1.026-.854,1.561,1.561,0,0,1,2.338-.9.468.468,0,0,0,.406.065.493.493,0,0,0,.153-.38c-.011-.6.235-.859.793-.7.425.123.686.048.817-.37a.529.529,0,0,1,.736-.377c1.9.577,3.838,1.073,5.69,1.785a7.637,7.637,0,0,1,3.9,4.036,1.874,1.874,0,0,1,.159.792c.036,2.266.066,4.532.067,6.8a1.148,1.148,0,0,1-.3.755q-4.977,4.8-9.986,9.568a1.106,1.106,0,0,1-1.791-.359A3.528,3.528,0,0,1,873.657,200.985Z" transform="translate(-819.956 -133.852)" fill="url(#linear-gradient-3)"/>
          <path id="Trazado_102078" data-name="Trazado 102078" d="M830.171,179.969a1.826,1.826,0,0,0,.651-.129c.355-.246.576-.226.785.173.19.363.509.386.906.328a1.678,1.678,0,0,1,.8.239c.114.049.178.2.281.291.583.5.585.495.587,1.181a5.875,5.875,0,0,1,.735.1c.5.131.851.37.728.995a.71.71,0,0,0,.227.519,8.473,8.473,0,0,0,.823.646c1.2-.764,2.224-.351,2.655,1.079.13.431.125,1.047.9.811.059-.018.237.205.288.343a7.546,7.546,0,0,1,.206.826c1.908-.487,2.426-.137,2.758,1.8.013.076.022.217.043.219.829.071.448,1.279,1.33,1.376.39.042.393.589.05.883-.657.563-.67.729-.116,1.427.414.522.445.884.1,1.183s-.8.182-1.222-.306a.639.639,0,0,0-.49-.182.517.517,0,0,0-.34.331c-.112.5-.172,1.016-.264,1.608a.878.878,0,0,1,.448,1.246,1.085,1.085,0,0,1-1.376.559.858.858,0,0,1-.433-1.223c.135-.33.032-.467-.242-.584-.21-.09-.417-.186-.54-.242l-.964,1.006c.075.383.619.924.005,1.448-.541.461-1.085.272-1.718-.18a4.675,4.675,0,0,0-.44,1.367,1.249,1.249,0,0,1-.694,1.349c-.6.271-1.231.513-1.807-.356a8.738,8.738,0,0,0-.428.961,1.451,1.451,0,0,1-2.187.987c-.071.1-.151.205-.22.316a1.2,1.2,0,0,1-1.938.255q-4.879-4.939-9.734-9.9a.994.994,0,0,1-.238-.618c-.056-1.992-.085-3.984-.129-5.976a4.36,4.36,0,0,1,1.8-3.7,11.039,11.039,0,0,1,2.463-1.444c1.637-.683,3.324-1.246,4.995-1.847C829.855,178.9,830.235,179.19,830.171,179.969Z" transform="translate(-819.956 -133.852)" fill="url(#linear-gradient-4)"/>
          <path id="Trazado_102079" data-name="Trazado 102079" d="M855.52,203.4c-1.149-.692-.972-1.629-.5-2.606-.99-.1-1.156-.341-.931-1.214a.611.611,0,0,1,.656-.523c.86-.035.844-.052.894-.857.034-.547.444-.805.895-.975a1.091,1.091,0,0,1,1.264.367c.67.749.636.718,1.355.03a1.66,1.66,0,0,1,1.038-.32c.346-.007.687.155.629.658-.009.076.276.269.424.267,1.6-.017,1.8.151,2.028,1.811a3.175,3.175,0,0,1,.668.011,1.908,1.908,0,0,1,.516.267c.105.062.211.205.3.191a.378.378,0,0,0,.225-.271.956.956,0,0,1,1.856-.1c.115.337.273.388.61.312a1.461,1.461,0,0,1,1.969,1.162c.153.486.341.716.916.532.762-.245.848-.136,1.313.56a.9.9,0,0,0,.719.367.942.942,0,0,1,1.075.506c.258.42.046.761-.285,1.075q-6.222,5.908-12.431,11.829l-6.786,6.459c-.212.2-.422.49-.725.168-.256-.271-.121-.5.126-.744.383-.378.348-.884-.051-1.51.363-.289.346-.6.08-.982-.1-.142-.129-.5-.034-.585.367-.326.256-.625.1-.988a1.479,1.479,0,0,1,.649-1.913c-1.073-1.544-.877-2.908.655-3.889-.856-.848-1.636-1.726-.751-3q-2.2-.9-.565-2.173c-.044-.113-.093-.235-.14-.357a.912.912,0,0,1,.4-1.294,1.137,1.137,0,0,1,1.5.346c.1.179.015.46.009.694-.005.176-.083.391-.008.515a.463.463,0,0,0,.45.117c.116-.077.155-.3.181-.472a2.038,2.038,0,0,0-.389-1.5A1.5,1.5,0,0,1,855.52,203.4Z" transform="translate(-819.956 -133.852)" fill="url(#linear-gradient-5)"/>
          <path id="Trazado_102080" data-name="Trazado 102080" d="M850.344,208.46c.248,0,.441-.015.631,0a.721.721,0,0,1,.586,1.193c-.087.148-.139.464-.056.542a1.112,1.112,0,0,1,.082,1.695c1.241,1.35,1.235,1.347.3,3.1a.733.733,0,0,0,0,.588c.8,1.581.68,2.406-.577,3.643a1.368,1.368,0,0,0-.138.181c.864.681.9.832.338,1.572.521.717.519.76-.1,1.37.174.255.62.551-.044.861-.929-.9-1.88-1.819-2.826-2.742q-7.812-7.634-15.624-15.267c-.6-.591-.74-1.088-.411-1.573a1.642,1.642,0,0,1,1.947-.556.688.688,0,0,0,.157.022,1.381,1.381,0,0,0,.194-.24,2.007,2.007,0,0,1,2.988-.816c.325.216.493.166.58-.205.031-.133.074-.264.092-.4.128-.915.728-1.344,1.588-1.039.494.176.718.074.965-.377a1.092,1.092,0,0,1,1.769-.306c.289.236.475.349.711-.088.352-.652.83-.744,1.957-.456-.087-.207-.166-.372-.227-.543a1.171,1.171,0,0,1,.452-1.39.871.871,0,0,1,1.249.17.7.7,0,0,0,.639.078,1.059,1.059,0,0,1,1.548.371c.089.106.352.1.53.09.244-.019.5-.172.722-.129a.942.942,0,0,1,.572.413c.059.1-.093.4-.226.531-.349.345-.431.6-.04,1.018a.9.9,0,0,1-.1,1.275c-.3.33-.359.518.08.8a1.264,1.264,0,0,1,.247,2.09c-.339.376-.592.613.064.991.709.409.581,1.16-.189,1.483a.632.632,0,0,0-.446.767A10.159,10.159,0,0,1,850.344,208.46Z" transform="translate(-819.956 -133.852)" fill="url(#linear-gradient-6)"/>
          <path id="Trazado_102081" data-name="Trazado 102081" d="M856.271,188.108a2.973,2.973,0,0,1-.785-.428.65.65,0,0,1,.072-.989.73.73,0,0,1,1.051.062.92.92,0,0,0,.527.259,1.044,1.044,0,0,1,1.145.858,1.01,1.01,0,0,1-1.981.388A.682.682,0,0,1,856.271,188.108Z" transform="translate(-819.956 -133.852)" fill="url(#linear-gradient-7)"/>
          <path id="Trazado_102082" data-name="Trazado 102082" d="M858.036,194.7c-.037-.888.228-1.313.841-1.377a.95.95,0,0,1,1.066.783c.111.621-.213,1-1.057,1.213-.076.437-.228.88-.772.824a.925.925,0,0,1-.638-.477C857.265,195.169,857.635,194.893,858.036,194.7Z" transform="translate(-819.956 -133.852)" fill="url(#linear-gradient-8)"/>
          <path id="Trazado_102083" data-name="Trazado 102083" d="M851.869,181.584c-.474-.632-.473-1.129,0-1.469a.906.906,0,0,1,1.21.162c.349.444.211.962-.392,1.44.278.426.41.871-.082,1.226a.684.684,0,0,1-.954-.091C851.324,182.515,851.4,182.112,851.869,181.584Z" transform="translate(-819.956 -133.852)" fill="url(#linear-gradient-9)"/>
          <path id="Trazado_102084" data-name="Trazado 102084" d="M845.65,189.854c-.4.108-.82.089-.942-.377-.058-.222.087-.7.224-.732a2.032,2.032,0,0,1,1.059.133c.663-.231,1.194-.129,1.461.374a.926.926,0,0,1-.419,1.285C846.5,190.8,846.033,190.579,845.65,189.854Z" transform="translate(-819.956 -133.852)" fill="url(#linear-gradient-10)"/>
          <path id="Trazado_102085" data-name="Trazado 102085" d="M852.347,202.935c-.3-.328-.549-.721-.136-1.1a.887.887,0,0,1,.775-.133c.5.214.423.664.236,1.074.643.461.8.947.476,1.43a.917.917,0,0,1-1.238.27C851.966,204.173,851.92,203.61,852.347,202.935Z" transform="translate(-819.956 -133.852)" fill="url(#linear-gradient-11)"/>
          <path id="Trazado_102086" data-name="Trazado 102086" d="M844.677,185.03a.947.947,0,0,1,.948.911.937.937,0,1,1-.948-.911Z" transform="translate(-819.956 -133.852)" fill="url(#linear-gradient-12)"/>
          <path id="Trazado_102087" data-name="Trazado 102087" d="M850.79,196.517a.88.88,0,0,1,.029-1.759.907.907,0,0,1,.891.9A.89.89,0,0,1,850.79,196.517Z" transform="translate(-819.956 -133.852)" fill="url(#linear-gradient-13)"/>
          <path id="Trazado_102088" data-name="Trazado 102088" d="M845.9,195.737a.754.754,0,0,1-.744.764.783.783,0,0,1-.793-.772.766.766,0,0,1,.81-.744A.731.731,0,0,1,845.9,195.737Z" transform="translate(-819.956 -133.852)" fill="url(#linear-gradient-14)"/>
          <path id="Trazado_102089" data-name="Trazado 102089" d="M851.108,185.507a.664.664,0,0,1-.678-.711.679.679,0,0,1,1.356-.02A.674.674,0,0,1,851.108,185.507Z" transform="translate(-819.956 -133.852)" fill="url(#linear-gradient-15)"/>
        </g>
      </g>
      <g id="Grupo_56797" data-name="Grupo 56797" transform="translate(8.895)">
        <g id="Grupo_56795" data-name="Grupo 56795">
          <rect id="Rectángulo_8365" data-name="Rectángulo 8365" width="90.101" height="90.101" rx="6.94" transform="translate(0 63.711) rotate(-45)" fill="#d61b22"/>
          <rect id="Rectángulo_8366" data-name="Rectángulo 8366" width="76.718" height="76.718" rx="10.497" transform="translate(9.464 63.711) rotate(-45)" fill="url(#linear-gradient-16)"/>
        </g>
        <g id="Grupo_56796" data-name="Grupo 56796" transform="translate(53.116 27.769)">
          <circle id="Elipse_4114" data-name="Elipse 4114" cx="8.003" cy="8.003" r="8.003" transform="translate(2.599 51.469)" fill="url(#linear-gradient-17)"/>
          <path id="Trazado_102090" data-name="Trazado 102090" d="M794.038,87.813h0a10.594,10.594,0,1,0-21.029-1.83c0,1.587,7.361,33.554,7.361,33.554h.1a3.429,3.429,0,0,0,6.663,0h0l.018-.083.015-.066Z" transform="translate(-773.006 -75.388)" fill="url(#linear-gradient-18)"/>
        </g>
      </g>
      <g id="Grupo_56801" data-name="Grupo 56801" transform="translate(0 117.961)">
        <g id="Grupo_56799" data-name="Grupo 56799">
          <g id="Grupo_56798" data-name="Grupo 56798">
            <rect id="Rectángulo_8367" data-name="Rectángulo 8367" width="98.799" height="98.799" rx="7.61" transform="translate(0 69.862) rotate(-45)" fill="#d61b22"/>
            <rect id="Rectángulo_8368" data-name="Rectángulo 8368" width="84.124" height="84.124" rx="10.497" transform="translate(10.377 69.862) rotate(-45)" fill="url(#linear-gradient-19)"/>
          </g>
        </g>
        <g id="Grupo_56800" data-name="Grupo 56800" transform="translate(42.128 22.04)">
          <path id="Trazado_102091" data-name="Trazado 102091" d="M793.54,270.8s8.586-3.826,5.7-13.433c0,0-1.913-5.4-1.254-7.928,0,0-2.529-.914-4.712,3.635a3.671,3.671,0,0,1-4.208,1.544s3.486-3.6,1.19-9.777a23.169,23.169,0,0,1-.878-6.433s-1.7-.113-1.786,5.526-3,6.178-3,6.178,2.578-10.032-4.166-13.716a26.657,26.657,0,0,1-1.077,9.749c-1.615,5.951.935,12.157.935,12.157s-3.741-.142-6.886-7.17a11.74,11.74,0,0,0-4.634-6.22s2.721,11.095-2.678,10.925A7,7,0,0,1,763.1,253.6s-5.059,7.765,1.658,14.141l4.378,3.061s-5.144,1.232-11.1-4c0,0-5.4-3.613-4.888-12.965a37.959,37.959,0,0,1,3.273-12.838,10.017,10.017,0,0,0-.043-5.866s3.316-.467,7.524,4.506c0,0,.383-1.02-1.4-4.336,0,0-2.083-4.081,2.253-9.564,0,0,4.165-5.016,1.955-8.034,0,0,3.953,1.955,3.358,8.884,0,0-1.063,9.777,4.591,13.518,0,0-4.973-11.393-1.53-18.959,0,0,1.658-5.7,7.779-11.945,0,0,3.57-3.783,2.89-7.226,0,0,3.486,2.933.468,11.647s1.1,13.815,1.1,13.815-2.8-9.479,6.376-14.368c0,0-3.273,5.866.553,9.565s5.337,9.33,1.4,14.75c0,0,1.147.51,5.653-4.421,0,0,3.061-2.933,5.4-2.975,0,0-3.783,2.21-.893,8.416s7.439,14.011,2.593,25.369A13.468,13.468,0,0,1,793.54,270.8Z" transform="translate(-753.123 -201.984)" fill="url(#linear-gradient-18)"/>
          <rect id="Rectángulo_8369" data-name="Rectángulo 8369" width="50.16" height="4.931" transform="translate(3.009 71.201)" fill="url(#linear-gradient-18)"/>
        </g>
      </g>
    </g>
    <text id="S230_THINNER" data-name="S230 THINNER" transform="translate(961.684 69.707)" font-size="27.184" font-family="Roboto-Bold, Roboto" font-weight="700"><tspan x="0" y="0">S230 THINNER</tspan></text>
    <text id="DANGER" transform="translate(958.085 248.57)" font-size="17.78" font-family="Roboto-Bold, Roboto" font-weight="700"><tspan x="0" y="0">DANGER</tspan></text>
    <text id="Lorem_ipsum_dolor_sit_amet_consectetuer_adipiscing_elit_sed_diam_nonummy_nibh_euismod_tincidunt_ut_laoreet_dolore_magna_aliquam_erat_volutpat._Ut_wisi_enim_ad_minim_veniam_quis_nostrud_exerci_tation_ullamcorper_suscipit_lobortis_nisl_ut_aliquip_ex_ea_co" data-name="Lorem ipsum dolor sit amet, consectetuer adipiscing elit, sed diam nonummy nibh euismod tincidunt ut laoreet dolore magna aliquam erat volutpat. Ut wisi enim ad minim veniam, quis nostrud exerci tation ullamcorper suscipit lobortis nisl ut aliquip ex ea co" transform="translate(956.251 74.417)" font-size="10" font-family="Roboto-Regular, Roboto"><tspan x="0" y="10">Lorem ipsum dolor sit amet, consectetuer </tspan><tspan x="0" y="22">adipiscing elit, sed diam nonummy nibh euismod </tspan><tspan x="0" y="34">tincidunt ut laoreet dolore magna aliquam erat </tspan><tspan x="0" y="46">volutpat. Ut wisi enim ad minim veniam, quis </tspan><tspan x="0" y="58">nostrud exerci tation ullamcorper suscipit lobortis </tspan><tspan x="0" y="70">nisl ut aliquip ex ea commodo consequat. Duis </tspan><tspan x="0" y="82">Lorem ipsum dolor sit amet, consectetuer </tspan><tspan x="0" y="94">adipiscing elit, sed diam nonummy nibh euismod </tspan><tspan x="0" y="106">tincidunt ut laoreet dolore magna aliquam erat </tspan><tspan x="0" y="118">volutpat. Ut wisi enim ad minim veniam, quis </tspan><tspan x="0" y="130">nostrud exerci tation ullamcorper suscipit lobortis </tspan><tspan x="0" y="142">nisl ut aliquip ex ea commodo consequat. Duis </tspan></text>
    <line id="Línea_134" data-name="Línea 134" x2="223.035" transform="translate(961.684 229.649)" fill="none" stroke="#4d4d4d" stroke-miterlimit="10" stroke-width="1"/>
    <line id="Línea_135" data-name="Línea 135" x2="223.035" transform="translate(961.684 255.19)" fill="none" stroke="#4d4d4d" stroke-miterlimit="10" stroke-width="1"/>
  </g>
</svg>
