<svg xmlns="http://www.w3.org/2000/svg" xmlns:xlink="http://www.w3.org/1999/xlink" width="368.678" height="223.185" viewBox="0 0 368.678 223.185">
  <defs>
    <linearGradient id="linear-gradient" x1="0.5" y1="1.042" x2="0.5" y2="-0.026" gradientUnits="objectBoundingBox">
      <stop offset="0" stop-color="#e6e6e6"/>
      <stop offset="0.42" stop-color="#fff"/>
    </linearGradient>
    <linearGradient id="linear-gradient-2" x1="0.5" x2="0.5" y2="1" gradientUnits="objectBoundingBox">
      <stop offset="0" stop-color="#231f20"/>
      <stop offset="0.903" stop-color="#505052"/>
    </linearGradient>
    <clipPath id="clip-path">
      <rect id="Rectángulo_5205" data-name="Rectángulo 5205" width="47.764" height="47.764" rx="10.497" transform="translate(67.549 33.775) rotate(135)" fill="none"/>
    </clipPath>
    <linearGradient id="linear-gradient-5" x1="0" y1="0.5" x2="1" y2="0.5" xlink:href="#linear-gradient-2"/>
    <linearGradient id="linear-gradient-11" x1="0" y1="0.5" x2="1" y2="0.5" xlink:href="#linear-gradient-2"/>
    <linearGradient id="linear-gradient-12" x1="0" y1="0.5" x2="1" y2="0.5" xlink:href="#linear-gradient-2"/>
    <linearGradient id="linear-gradient-17" x1="0" y1="0.5" x2="1" y2="0.5" xlink:href="#linear-gradient-2"/>
    <linearGradient id="linear-gradient-19" x1="0" y1="0.5" x2="1" y2="0.5" xlink:href="#linear-gradient-2"/>
    <linearGradient id="linear-gradient-21" x1="0" y1="0.5" x2="1" y2="0.5" xlink:href="#linear-gradient-2"/>
    <linearGradient id="linear-gradient-22" x1="0.5" y1="1.054" x2="0.5" y2="-0.037" xlink:href="#linear-gradient"/>
    <linearGradient id="linear-gradient-23" x1="0.5" y1="0.119" x2="0.5" y2="1.472" xlink:href="#linear-gradient-2"/>
    <linearGradient id="linear-gradient-24" x1="0.5" y1="-1.601" x2="0.5" y2="1.31" xlink:href="#linear-gradient-2"/>
    <linearGradient id="linear-gradient-25" x1="0.5" y1="-1.631" x2="0.5" y2="1.297" xlink:href="#linear-gradient-2"/>
    <linearGradient id="linear-gradient-26" x1="0.5" y1="-2.189" x2="0.5" y2="0.497" xlink:href="#linear-gradient-2"/>
    <linearGradient id="linear-gradient-27" x1="0.5" y1="-2.18" x2="0.5" y2="0.5" xlink:href="#linear-gradient-2"/>
    <linearGradient id="linear-gradient-28" x1="0.5" y1="-18.274" x2="0.5" y2="9.285" xlink:href="#linear-gradient-2"/>
    <linearGradient id="linear-gradient-29" x1="0.5" y1="-18.836" x2="0.5" y2="5.935" xlink:href="#linear-gradient-2"/>
    <linearGradient id="linear-gradient-30" x1="0.5" y1="-12.718" x2="0.5" y2="9.602" xlink:href="#linear-gradient-2"/>
    <linearGradient id="linear-gradient-31" x1="0.5" y1="-25.24" x2="0.5" y2="11.09" xlink:href="#linear-gradient-2"/>
    <linearGradient id="linear-gradient-32" x1="0.5" y1="-20.919" x2="0.5" y2="2.867" xlink:href="#linear-gradient-2"/>
    <linearGradient id="linear-gradient-33" x1="0.5" y1="-24.076" x2="0.5" y2="13.415" xlink:href="#linear-gradient-2"/>
    <linearGradient id="linear-gradient-34" x1="0.5" y1="-31.119" x2="0.5" y2="8.73" xlink:href="#linear-gradient-2"/>
    <linearGradient id="linear-gradient-35" x1="0.5" y1="-36.208" x2="0.5" y2="9.967" xlink:href="#linear-gradient-2"/>
    <linearGradient id="linear-gradient-36" x1="0.5" y1="-32.169" x2="0.5" y2="18.939" xlink:href="#linear-gradient-2"/>
    <linearGradient id="linear-gradient-38" x1="0.5" y1="0.877" x2="0.5" y2="0.05" xlink:href="#linear-gradient-2"/>
    <linearGradient id="linear-gradient-39" x1="0.5" y1="1.041" x2="0.5" y2="-0.024" xlink:href="#linear-gradient"/>
    <linearGradient id="linear-gradient-40" x1="0.5" y1="0.877" x2="0.5" y2="0.05" xlink:href="#linear-gradient-2"/>
    <linearGradient id="linear-gradient-43" x1="0.5" y1="0.003" x2="0.5" y2="1.216" gradientUnits="objectBoundingBox">
      <stop offset="0.053" stop-color="#231f20"/>
      <stop offset="0.987" stop-color="#505052"/>
    </linearGradient>
    <linearGradient id="linear-gradient-44" x1="0.5" y1="-0.598" x2="0.5" y2="1.636" xlink:href="#linear-gradient-43"/>
    <linearGradient id="linear-gradient-45" x1="0.5" y1="-0.599" x2="0.5" y2="1.636" xlink:href="#linear-gradient-43"/>
    <linearGradient id="linear-gradient-46" x1="0.5" y1="-1.524" x2="0.5" y2="0.901" xlink:href="#linear-gradient-43"/>
    <linearGradient id="linear-gradient-47" x1="0.5" y1="-1.558" x2="0.5" y2="0.901" xlink:href="#linear-gradient-43"/>
    <linearGradient id="linear-gradient-48" x1="0.5" y1="1.054" x2="0.5" y2="-0.037" xlink:href="#linear-gradient"/>
    <linearGradient id="linear-gradient-56" x1="-2.881" y1="0.877" x2="-2.881" y2="0.05" xlink:href="#linear-gradient-2"/>
    <linearGradient id="linear-gradient-62" x1="0.5" y1="1.068" x2="0.5" y2="-0.051" xlink:href="#linear-gradient"/>
    <linearGradient id="linear-gradient-63" x1="0.5" y1="0.937" x2="0.5" y2="-0.506" xlink:href="#linear-gradient-2"/>
  </defs>
  <g id="Grupo_55735" data-name="Grupo 55735" transform="translate(-1104.111 -260.132)">
    <g id="Grupo_55699" data-name="Grupo 55699" transform="translate(1179.081 261.095)">
      <g id="Grupo_55698" data-name="Grupo 55698" transform="translate(0 0)">
        <g id="Grupo_55697" data-name="Grupo 55697">
          <rect id="Rectángulo_5201" data-name="Rectángulo 5201" width="58.817" height="58.817" rx="7.849" transform="translate(0 41.59) rotate(-45)" fill="#d61b22"/>
          <rect id="Rectángulo_5202" data-name="Rectángulo 5202" width="50.08" height="50.08" rx="10.497" transform="translate(6.178 41.59) rotate(-45)" fill="url(#linear-gradient)"/>
        </g>
      </g>
    </g>
    <g id="Grupo_55700" data-name="Grupo 55700" transform="translate(1205.233 274.779)">
      <path id="Trazado_100593" data-name="Trazado 100593" d="M1301.3,340.395a11.265,11.265,0,1,0-11.943,0h-8.6v2.26h29.113v-2.26Zm-15.421-9.546a9.45,9.45,0,1,1,9.45,9.45A9.461,9.461,0,0,1,1285.879,330.849Z" transform="translate(-1279.926 -299.918)" fill="url(#linear-gradient-2)"/>
      <path id="Trazado_100594" data-name="Trazado 100594" d="M1281.131,316.441a13.573,13.573,0,0,1,27.144-.136,20.564,20.564,0,0,0,.069-12.456s-2.964-5.027-2.882-9.177c0,0-2.063-.1-3.487,4.444.123-.386.9-3.084-.925-4.837,0,0-1.99-1.154-1.523-2.7l.614-1.719a4.3,4.3,0,0,0-3.537,4.715,5.071,5.071,0,0,1-.368-4.2,7.644,7.644,0,0,0-.264-4.863s-.08,1.5-3.691,5.084-2.53,6.607-1.891,8.228c0,0-1.5-.442-1.3-3s-.319-3.242-1.6-3.807c0,0,.81,1.989-1.3,4.543a4.576,4.576,0,0,0-.672,4.511c-.677-1.27-2.033-3.155-4.191-3.38,0,0,1.425,1.744-1.154,7.565,0,0-2.432,6.877.909,11.888h.067Q1281.131,316.8,1281.131,316.441Z" transform="translate(-1279.318 -285.51)" fill="url(#linear-gradient-2)"/>
    </g>
    <g id="Grupo_55703" data-name="Grupo 55703" transform="translate(1314.762 261.095)">
      <g id="Grupo_55702" data-name="Grupo 55702" transform="translate(0 0)">
        <g id="Grupo_55701" data-name="Grupo 55701">
          <rect id="Rectángulo_5203" data-name="Rectángulo 5203" width="58.817" height="58.817" rx="7.849" transform="translate(0 41.59) rotate(-45)" fill="#d61b22"/>
          <rect id="Rectángulo_5204" data-name="Rectángulo 5204" width="50.08" height="50.08" rx="10.497" transform="translate(6.178 41.59) rotate(-45)" fill="url(#linear-gradient)"/>
        </g>
      </g>
    </g>
    <g id="Grupo_55706" data-name="Grupo 55706" transform="translate(1322.577 268.91)">
      <g id="Grupo_55705" data-name="Grupo 55705" transform="translate(0)" clip-path="url(#clip-path)">
        <g id="Grupo_55704" data-name="Grupo 55704" transform="translate(-2.164 6.349)">
          <path id="Trazado_100595" data-name="Trazado 100595" d="M1512.339,337.991c-.008.088-.056.225-.017.256.511.412.849,1.017,1.673,1.026,3.023.033,6.045.141,9.067.218a2.193,2.193,0,0,0,.284-.034l-.28-1.535a2.808,2.808,0,0,0,2.309-1.237.453.453,0,0,1,.39-.123c1.243.566,2.476,1.153,3.768,1.762l-1.01,1.406c1.193,0,2.24-.021,3.286,0,3.73.089,7.459.185,11.188.308a3.763,3.763,0,0,1,1.051.365l-.044.205-30.048-1,.538.755-.134.162,12.984,1.873-.263,1.665-5.313-1.3c.556.5,1.157.967.775,1.911-1.258-.194-2.568-.311-3.828-.628a4.78,4.78,0,0,1-1.534-1.055c-.075-.059-.065-.343.011-.448a.747.747,0,0,1,.472-.314,7.3,7.3,0,0,1,.993.094,1.766,1.766,0,0,0,.357-.041l.024-.182-4.883-1.261-.36.781c.707.39,1.389.766,2.07,1.144,1.816,1.008,3.627,2.028,5.453,3.019a1.779,1.779,0,0,1,.879,1.23l-8.409-5.217c-.279.306-.292.324,0,.538q2.28,1.666,4.573,3.315c1.509,1.089,3.022,2.172,4.581,3.292l-.453.508-9.14-7.122c-.2.276-.657.437-.283.887l.011-.012c-.184.024-.438-.021-.539.083a6.071,6.071,0,0,1-5.547,1.752,6.417,6.417,0,0,1-4.091-2.2l-2.87,2.6a6.584,6.584,0,0,1,1.133.015c.244.048.65.221.656.353a1.567,1.567,0,0,1-.272,1.012.658.658,0,0,1-.969.2c-.143-.1-.5.084-.829.154l-.7-.831-6.251,5.694-.682-.847,10.647-8.518-.716-1.091-9.18,5.3c-.251-.369-.16-.55.179-.727,2.589-1.352,5.169-2.721,7.752-4.085a2.291,2.291,0,0,0,.733-.529l-5.386,1.739c-.155-.424-.049-.608.361-.707,1.637-.4,3.267-.825,4.9-1.244.148-.038.29-.095.435-.143l-.016-.152a2.874,2.874,0,0,0-.54.032q-5.136,1.273-10.27,2.558c-2.072.515-4.146,1.022-6.276,1.546l-.1-.583,16.982-3.78c0-.414-.133-.543-.5-.492q-6.617.909-13.236,1.795c-2.954.394-5.91.768-8.919,1.158l-.083-.575,11.169-1.272,0-.089-2.757-.134a.663.663,0,0,1,.383-.955c.417-.185.783-.691,1.249-.088.047.06.131.09.181.149a2.95,2.95,0,0,0,2.979.909c3.01-.427,6.038-.72,9.06-1.068.076-.009.151-.031.227-.046-.134-.884-.134-.9-.985-.916-1.131-.018-2.263,0-3.427,0l.049.826a2.14,2.14,0,0,1-.5-.007c-.323-.081-.484.05-.667.309a.831.831,0,0,1-.6.282,2.426,2.426,0,0,1-2.062-1.113l.309-.574c-.17-.022-.312-.051-.456-.059-2.471-.121-4.943-.228-7.414-.374a2.941,2.941,0,0,1-.878-.364l.066-.186a3.089,3.089,0,0,1,.379-.019c2.526.183,5.051.381,7.577.548.5.033,1.008-.111,1.5-.068.888.078,1.766.267,2.653.353,1.465.141,2.942.184,4.4.371.838.107,1.645.439,2.478.617a1.006,1.006,0,0,0,.733-.155c.608-.462,1.173-.981,1.813-1.528l2.947,2.458c.679-.429,1.383-.844,2.046-1.315.143-.1.169-.406.2-.623a5.6,5.6,0,0,0,.007-.742l.817.19Zm11.906,1.536h1.183C1525,338.921,1524.622,339.315,1524.245,339.527Z" transform="translate(-1478.883 -307.572)" fill="url(#linear-gradient-5)"/>
          <path id="Trazado_100596" data-name="Trazado 100596" d="M1515.9,314.31c2.509-4.688,3.959-5.478,8.982-4.877,2.707-7.669,5.418-15.348,8.152-23.091l1.614.632-7.971,22.289.114.048,5.9-11.675,1.016.586-7.261,12.043,1.254,1.133c5.485-5.874,10.881-11.812,16.365-17.752l.879.784L1531,308.548c.666.042,1.308.356,1.868-.171.468-.442.967-.852,1.5-1.319a6.765,6.765,0,0,1-3.47,4.145l-.4-.947a9.033,9.033,0,0,1-.859.376,6.192,6.192,0,0,1-.63.081.678.678,0,0,0-.329.169c-.235.235-.45.49-.7.768l.346.523c-1.5-.124-1.908,1.228-2.786,1.914a13.45,13.45,0,0,0-1.4,1.462l-.113-.112q.725-.79,1.449-1.58c.474-.513.95-1.022,1.535-1.652-.324,0-.492.016-.655,0-.425-.05-.682.113-.7.552-.026.552-.293.723-.833.656a12.326,12.326,0,0,0-1.469-.012c.154.455.324.87.425,1.3a.832.832,0,0,1-.094.618c-.415.544-.88,1.049-1.331,1.574-1.423-.666-2.726-1.667-4.441-1.2l.089.149a4.389,4.389,0,0,1-1.052-.236,5.556,5.556,0,0,1-.9-.71c-.682-.536-1.37-1.064-2.054-1.6-.223-.173-.443-.347-.664-.521l.107-.148Z" transform="translate(-1493.45 -286.342)" fill="url(#linear-gradient-5)"/>
          <path id="Trazado_100597" data-name="Trazado 100597" d="M1536.862,334.506c.625-.141,1.244-.307,1.874-.418q4.024-.708,8.054-1.388c3.441-.577,6.887-1.122,10.326-1.707,2.55-.433,5.091-.92,7.639-1.362,2.664-.462,5.333-.9,8.049-1.353v1.157c-1.082.161-2.16.325-3.238.481q-3.96.571-7.92,1.134-6.868.977-13.737,1.951c-3.455.494-6.909,1-10.364,1.493a4.651,4.651,0,0,1-.694,0Z" transform="translate(-1503.395 -304.074)" fill="url(#linear-gradient-5)"/>
          <path id="Trazado_100598" data-name="Trazado 100598" d="M1536.273,330.661l8.175-2.13q4.606-1.2,9.211-2.4c2.35-.612,4.7-1.216,7.05-1.83q3.239-.847,6.474-1.711c1.076-.285,1.076-.286,1.419.879l-32.281,7.32Z" transform="translate(-1503.15 -301.601)" fill="url(#linear-gradient-5)"/>
          <path id="Trazado_100599" data-name="Trazado 100599" d="M1537.907,325.078l17.282-12.205a13.246,13.246,0,0,1,.116,1.55c0,.146-.26.314-.432.42q-4.483,2.761-8.976,5.508-3.711,2.278-7.419,4.56c-.161.1-.329.185-.494.276Z" transform="translate(-1503.841 -297.56)" fill="url(#linear-gradient-5)"/>
          <path id="Trazado_100600" data-name="Trazado 100600" d="M1579.666,315.022l-2.09-1.32-1.244,1.068c-.355-.2-.708-.4-1.059-.608a.521.521,0,0,1-.19-.132,1.624,1.624,0,0,1,.972-1.923c.506-.041,1.015-.051,1.538-.074l.647-2.033A5.408,5.408,0,0,1,1579.666,315.022Z" transform="translate(-1519.522 -296.346)" fill="url(#linear-gradient-5)"/>
          <path id="Trazado_100601" data-name="Trazado 100601" d="M1533.585,313.882l3.458-14.258,1.029.5q-2.191,6.911-4.374,13.794Z" transform="translate(-1502.014 -291.958)" fill="url(#linear-gradient-11)"/>
          <path id="Trazado_100602" data-name="Trazado 100602" d="M1534.035,305.982a6.091,6.091,0,0,0-.321-.933,5.8,5.8,0,0,0-.562-.738c-.089-.114-.267-.236-.255-.337.064-.556.175-1.107.276-1.7l.767.193a2.579,2.579,0,0,0,.2-.475c.076-.371.261-.5.652-.474s.422.242.554.531a2.526,2.526,0,0,1-.74,3.253A6.674,6.674,0,0,0,1534.035,305.982Z" transform="translate(-1501.722 -292.76)" fill="url(#linear-gradient-12)"/>
          <path id="Trazado_100603" data-name="Trazado 100603" d="M1540.436,330.927l10.062-4.812c.113,1,.112,1-.7,1.319q-4.375,1.711-8.75,3.421c-.177.069-.361.124-.542.186Z" transform="translate(-1504.91 -303.16)" fill="url(#linear-gradient-5)"/>
          <path id="Trazado_100604" data-name="Trazado 100604" d="M1494.41,353.974l1.246.579a.929.929,0,0,1,1.282.016c.23.243-.059,1.064-.517,1.135a1.3,1.3,0,0,0-1.177,1.152C1493.975,355.492,1493.954,355.419,1494.41,353.974Z" transform="translate(-1485.334 -314.94)" fill="url(#linear-gradient-11)"/>
          <path id="Trazado_100605" data-name="Trazado 100605" d="M1513.73,338.413l-8.437-1.239c.291-.459.56-.73,1.169-.581,2.28.557,4.573,1.056,6.861,1.579.146.033.288.089.431.134Z" transform="translate(-1490.05 -307.573)" fill="url(#linear-gradient-5)"/>
          <path id="Trazado_100606" data-name="Trazado 100606" d="M1547.343,314.189c-.893-.335-.817-.957-.7-1.686.124-.778.49-1.152,1.278-1.13C1548.54,312.59,1548.392,313.469,1547.343,314.189Z" transform="translate(-1507.505 -296.926)" fill="url(#linear-gradient-11)"/>
          <path id="Trazado_100607" data-name="Trazado 100607" d="M1562.454,323.681l1.268-1.9,1.948,2.171Z" transform="translate(-1514.22 -301.328)" fill="url(#linear-gradient-17)"/>
          <path id="Trazado_100608" data-name="Trazado 100608" d="M1538.113,348.091c.392.249.8.481,1.176.751,1.66,1.186,3.322,2.369,4.959,3.585a5.381,5.381,0,0,1,.8.93l-.147.155c-.226-.156-.461-.3-.676-.471q-2.95-2.344-5.89-4.7a1.405,1.405,0,0,1-.206-.262Z" transform="translate(-1503.928 -312.447)" fill="url(#linear-gradient-5)"/>
          <path id="Trazado_100609" data-name="Trazado 100609" d="M1504.341,348.8c.009.148.02.263.024.379,0,.134,0,.268,0,.388-.852.35-.959.3-1.755-.766Z" transform="translate(-1488.917 -312.751)" fill="url(#linear-gradient-19)"/>
          <path id="Trazado_100610" data-name="Trazado 100610" d="M1511.012,333.655l4.994,2.683-.07.133c-1.661-.907-3.434-1.6-5.046-2.6Z" transform="translate(-1492.417 -306.348)" fill="url(#linear-gradient-5)"/>
          <path id="Trazado_100611" data-name="Trazado 100611" d="M1557.479,341.471c.377-.212.759-.605,1.182,0Z" transform="translate(-1512.117 -309.516)" fill="url(#linear-gradient-21)"/>
        </g>
      </g>
    </g>
    <g id="Grupo_55711" data-name="Grupo 55711" transform="translate(1108.529 283.751)">
      <g id="Grupo_55709" data-name="Grupo 55709" transform="translate(0 0)">
        <g id="Grupo_55708" data-name="Grupo 55708" transform="translate(0)">
          <g id="Grupo_55707" data-name="Grupo 55707" transform="translate(0)">
            <rect id="Rectángulo_5206" data-name="Rectángulo 5206" width="81.606" height="81.606" rx="10.89" transform="translate(0 57.704) rotate(-45)" fill="#d61b22"/>
            <rect id="Rectángulo_5207" data-name="Rectángulo 5207" width="69.485" height="69.485" rx="10.497" transform="translate(8.571 57.704) rotate(-45)" fill="url(#linear-gradient-22)"/>
          </g>
        </g>
      </g>
      <g id="Grupo_55710" data-name="Grupo 55710" transform="translate(29.237 19.055)">
        <path id="Trazado_100612" data-name="Trazado 100612" d="M1182.463,373.344a4.425,4.425,0,0,1-.609.211c-.322.06-1.427-.978-1.349-1.291a.677.677,0,0,1,.4-.356c2.339-.874,4.684-1.733,7.027-2.594.554-.2,1.1-.421,1.664-.6a.536.536,0,0,0,.426-.534c.1-1.246.22-2.489.315-3.734a.815.815,0,0,0-.129-.556,19.878,19.878,0,0,1-3.954-7.4,25.276,25.276,0,0,1-1.6-8.964,13.341,13.341,0,0,1,5.078-10.605c3.619-2.8,7.708-3.793,12.012-1.778a13.453,13.453,0,0,1,7.954,10.7,23.8,23.8,0,0,1-1.133,10.627,21.193,21.193,0,0,1-3.857,7.677.836.836,0,0,0-.179.5c.006,1.182.05,2.364.05,3.546,0,.326.139.427.416.51q5.09,1.519,10.187,3.061c.1.364.058.62-.384.694a.567.567,0,0,0-.333.252c-.219.36-.413.735-.606,1.11a1.013,1.013,0,0,1-1.587.46c-.127-.074-.251-.155-.425-.262-.159.522-.454.862-.885.86a9.593,9.593,0,0,1-.466,1.375.659.659,0,0,1-.949.3.67.67,0,0,0-.415.027c-.328.091-.645.23-.978.291a.441.441,0,0,1-.372-.217c-.084-.372-.268-.378-.545-.228a1.213,1.213,0,0,1-1.41-.152,1.78,1.78,0,0,0-.668-.149c-.046.3-.215.648-.112.877.188.42.324.745-.142,1.037-.378.236-.737.133-1.107-.291l-.807.284.086.058c-.214.23-.387.568-.651.668a1.253,1.253,0,0,1-1.417-.22.7.7,0,0,1-.191-.91.465.465,0,0,0-.105-.667,1.377,1.377,0,0,1-.4-1.39,7.588,7.588,0,0,0,.211-.936,1.894,1.894,0,0,0-.182-.658c-.02-.058-.132-.117-.121-.147.2-.547-.253-.635-.557-.867-.127-.1-.137-.389-.13-.59,0-.053.271-.092.415-.144a1.938,1.938,0,0,0,.692-.289c.072-.069-.124-.391-.163-.6-.031-.166-.078-.4,0-.506.355-.467.108-.8-.214-1.1-.244-.224-.374-.4-.162-.725.054-.083-.046-.346-.152-.44-.778-.7-.814-.958-.229-1.829.182-.27.318-.481-.081-.792a1.478,1.478,0,0,1-.322-1.074c.01-.419.029-.69-.429-.921s-.518-.782-.531-1.291a2.892,2.892,0,0,0-.16-.645,3.537,3.537,0,0,0-.173-.6,5.029,5.029,0,0,0-.385-.592,2.014,2.014,0,0,0-.421.423c-.192.36-.38.751.109,1.059.049.03.107.129.091.166-.2.45.177,1.068-.428,1.412-.087.049-.114.33-.066.468a1.855,1.855,0,0,1-.5,2.262,1.465,1.465,0,0,0-.17.935c.009.371.11.728-.186,1.053-.058.063.009.347.1.416.122.09.406.153.484.081.436-.4.615-.118.771.246.213.5.116.7-.378.867a.728.728,0,0,0-.122.086c.078.2.162.411.24.625a1.383,1.383,0,0,1-.578,1.712c-.136.061-.221.27-.292.428s-.061.335-.128.487c-.281.644-.286.642.082,1.2-.427.526-.416.524-.185,1.311a1.059,1.059,0,0,1-.042.523,5.968,5.968,0,0,1-.241.709c-.047.121-.1.313-.188.334-.46.111-.591.493-.808.832-.121.189-.4.279-.6.413-.1-.225-.222-.446-.308-.678a1.317,1.317,0,0,1-.006-.387.947.947,0,0,1-1.027-.473c-.11-.157-.562-.162-.827-.1-.313.071-.56.164-.825-.111s-.4.008-.548.185a1.458,1.458,0,0,1-2.345-.032,3.4,3.4,0,0,1-.276-.738c-1.273.031-1.174-.062-1.5-.838a1.024,1.024,0,0,0-.185.013c-.919.231-1.268.1-1.723-.687a.747.747,0,0,0-.714-.4c-.451-.047-.867-.519-1.276-.836C1182.532,373.7,1182.523,373.508,1182.463,373.344Z" transform="translate(-1170.067 -334.071)" fill="url(#linear-gradient-23)"/>
        <path id="Trazado_100613" data-name="Trazado 100613" d="M1233.976,420.441c-1.316.32-2.278.016-2.422-1.639a1.085,1.085,0,0,1-1.548.188,1.336,1.336,0,0,1-.483-.631c-.112-.263-.189-.34-.473-.2a1.337,1.337,0,0,1-1.981-.54c-.214-.344-.406-.255-.587-.04-.346.411-.634.182-.9-.066a.54.54,0,0,1,.138-.867c.495-.23.309-.656.39-1,.018-.076-.17-.2-.263-.3-.283.514-.745-.727-1.027.107a.585.585,0,0,1-.5.271,1.445,1.445,0,0,1-.836-.424c-.127-.177,0-.554.058-.831.024-.109.2-.174.279-.282a.732.732,0,0,0-.016-.938c-.231-.289-.54-.19-.764.01-.34.3-.674.5-1.038.092-.311-.352-.19-.791.232-1.131a8.774,8.774,0,0,1-.191-1.083c-.032-.578.305-.861.884-.816.225.017.452,0,.7,0-.357-.88-.063-1.34.839-1.472a.509.509,0,0,0,.34-.317,1.894,1.894,0,0,1,2.331-1.621c.449.05.906-.416,1.429-.457.047,0,.1-.234.11-.361a1.922,1.922,0,0,1,1.887-1.968.8.8,0,0,0,.887-.739,1.349,1.349,0,0,1,2.021-.776.4.4,0,0,0,.352.056.422.422,0,0,0,.132-.328c-.009-.518.2-.742.686-.6.367.107.593.041.706-.32a.457.457,0,0,1,.636-.326c1.646.5,3.319.927,4.92,1.543a6.6,6.6,0,0,1,3.372,3.49,1.607,1.607,0,0,1,.137.685c.032,1.96.058,3.919.059,5.878a.993.993,0,0,1-.26.652q-4.3,4.151-8.634,8.273a.956.956,0,0,1-1.549-.311A3.076,3.076,0,0,1,1233.976,420.441Z" transform="translate(-1187.542 -362.394)" fill="url(#linear-gradient-24)"/>
        <path id="Trazado_100614" data-name="Trazado 100614" d="M1171.255,402.581a1.589,1.589,0,0,0,.563-.111c.307-.213.5-.2.678.149.164.313.44.334.783.284a1.447,1.447,0,0,1,.694.206c.1.042.154.176.242.252.5.43.506.428.508,1.021a5.159,5.159,0,0,1,.635.088c.432.113.736.32.629.86a.613.613,0,0,0,.2.448,7.263,7.263,0,0,0,.712.559c1.038-.661,1.922-.3,2.3.933.112.373.108.905.776.7.051-.016.205.178.249.3a6.253,6.253,0,0,1,.178.714c1.65-.421,2.1-.118,2.385,1.555.011.066.02.188.037.189.716.062.388,1.106,1.15,1.19.337.037.34.51.043.764-.568.487-.579.63-.1,1.233.358.452.385.765.087,1.023s-.687.157-1.057-.265a.551.551,0,0,0-.424-.157.446.446,0,0,0-.293.286c-.1.435-.149.879-.229,1.39a.76.76,0,0,1,.388,1.078.938.938,0,0,1-1.19.483.741.741,0,0,1-.374-1.057c.116-.286.027-.4-.209-.5-.182-.078-.361-.162-.467-.209l-.833.869c.065.331.536.8,0,1.252-.467.4-.938.235-1.485-.155a4.025,4.025,0,0,0-.38,1.182,1.081,1.081,0,0,1-.6,1.166c-.52.234-1.065.444-1.563-.308a7.457,7.457,0,0,0-.369.831,1.256,1.256,0,0,1-1.892.854c-.061.087-.13.177-.19.273a1.036,1.036,0,0,1-1.676.22q-4.219-4.271-8.417-8.562a.863.863,0,0,1-.205-.534c-.049-1.722-.073-3.444-.111-5.167a3.772,3.772,0,0,1,1.552-3.2,9.583,9.583,0,0,1,2.13-1.249c1.415-.59,2.874-1.077,4.318-1.6C1170.982,401.656,1171.31,401.908,1171.255,402.581Z" transform="translate(-1162.422 -362.705)" fill="url(#linear-gradient-25)"/>
        <path id="Trazado_100615" data-name="Trazado 100615" d="M1213.926,434.3c-.994-.6-.84-1.409-.434-2.253-.856-.088-1-.3-.805-1.05a.528.528,0,0,1,.568-.452c.743-.03.729-.044.773-.742.029-.472.384-.7.774-.842a.943.943,0,0,1,1.093.317c.579.648.55.621,1.172.026a1.429,1.429,0,0,1,.9-.276c.3-.006.594.134.544.568-.008.066.24.233.367.231,1.379-.014,1.557.13,1.754,1.566a2.754,2.754,0,0,1,.577.01,1.636,1.636,0,0,1,.446.231c.091.053.183.177.257.165a.326.326,0,0,0,.195-.234.827.827,0,0,1,1.6-.085c.1.292.237.336.528.27a1.264,1.264,0,0,1,1.7,1.005c.132.42.295.619.792.459.659-.211.733-.117,1.136.485a.781.781,0,0,0,.622.317.815.815,0,0,1,.93.438c.223.363.039.657-.247.929q-5.379,5.109-10.748,10.228l-5.868,5.585c-.183.174-.365.424-.627.145-.221-.234-.1-.433.109-.644.331-.327.3-.764-.044-1.306.314-.249.3-.521.069-.848-.087-.123-.111-.433-.029-.506.317-.282.221-.541.083-.854a1.278,1.278,0,0,1,.561-1.655c-.928-1.336-.758-2.514.566-3.362-.74-.733-1.415-1.492-.65-2.591-1.267-.517-1.429-1.146-.488-1.879-.038-.1-.08-.2-.121-.309a.787.787,0,0,1,.35-1.119.982.982,0,0,1,1.3.3c.085.154.013.4.007.6,0,.152-.071.339-.006.446a.4.4,0,0,0,.389.1c.1-.066.134-.262.156-.408a1.766,1.766,0,0,0-.336-1.294A1.294,1.294,0,0,1,1213.926,434.3Z" transform="translate(-1183.175 -374.167)" fill="url(#linear-gradient-26)"/>
        <path id="Trazado_100616" data-name="Trazado 100616" d="M1196.541,438.608c.215,0,.381-.013.545,0,.6.056.813.514.507,1.031-.076.128-.12.4-.049.468a.963.963,0,0,1,.071,1.466c1.073,1.168,1.068,1.165.263,2.676a.635.635,0,0,0,0,.508,2.215,2.215,0,0,1-.5,3.15,1.391,1.391,0,0,0-.119.156c.747.589.774.72.292,1.36.451.619.45.657-.083,1.184.151.22.537.477-.037.745-.8-.779-1.626-1.573-2.444-2.371q-6.755-6.6-13.509-13.2c-.523-.511-.641-.941-.356-1.36a1.419,1.419,0,0,1,1.684-.48.62.62,0,0,0,.136.018,1.237,1.237,0,0,0,.168-.208,1.735,1.735,0,0,1,2.583-.705c.281.188.427.144.5-.177.026-.115.063-.228.08-.345.11-.791.629-1.162,1.372-.9.428.152.621.064.835-.326a.943.943,0,0,1,1.529-.264c.251.2.411.3.615-.077.3-.564.718-.643,1.692-.394-.075-.179-.143-.321-.2-.469a1.011,1.011,0,0,1,.39-1.2.753.753,0,0,1,1.08.147.608.608,0,0,0,.553.068.916.916,0,0,1,1.339.32c.077.092.3.089.458.077.211-.016.431-.148.624-.111a.81.81,0,0,1,.495.357c.051.089-.08.345-.2.459-.3.3-.372.523-.034.881a.777.777,0,0,1-.089,1.1c-.257.286-.31.448.069.7a1.091,1.091,0,0,1,.214,1.806c-.293.326-.512.531.055.858.613.354.5,1-.162,1.282a.545.545,0,0,0-.386.663A8.9,8.9,0,0,1,1196.541,438.608Z" transform="translate(-1170.266 -374.098)" fill="url(#linear-gradient-27)"/>
        <path id="Trazado_100617" data-name="Trazado 100617" d="M1216.207,414.333a2.613,2.613,0,0,1-.679-.37.563.563,0,0,1,.062-.855.632.632,0,0,1,.909.053.792.792,0,0,0,.456.225.9.9,0,0,1,.99.742.873.873,0,0,1-1.713.335A.6.6,0,0,1,1216.207,414.333Z" transform="translate(-1184.807 -367.42)" fill="url(#linear-gradient-28)"/>
        <path id="Trazado_100618" data-name="Trazado 100618" d="M1219.078,424.358c-.031-.768.2-1.135.727-1.191a.822.822,0,0,1,.922.678c.1.537-.184.863-.914,1.049-.066.378-.2.761-.668.712a.8.8,0,0,1-.552-.412C1218.412,424.761,1218.731,424.522,1219.078,424.358Z" transform="translate(-1186.152 -371.743)" fill="url(#linear-gradient-29)"/>
        <path id="Trazado_100619" data-name="Trazado 100619" d="M1209.968,404.548c-.41-.547-.409-.976,0-1.27a.784.784,0,0,1,1.046.14c.3.384.182.832-.339,1.245.24.369.354.754-.071,1.061a.592.592,0,0,1-.825-.079C1209.5,405.353,1209.56,405,1209.968,404.548Z" transform="translate(-1182.374 -363.276)" fill="url(#linear-gradient-30)"/>
        <path id="Trazado_100620" data-name="Trazado 100620" d="M1200.311,417.248c-.349.093-.709.077-.814-.326-.05-.193.075-.6.193-.633a1.75,1.75,0,0,1,.916.115c.574-.2,1.033-.111,1.263.324a.8.8,0,0,1-.361,1.11C1201.044,418.069,1200.642,417.874,1200.311,417.248Z" transform="translate(-1178.094 -368.825)" fill="url(#linear-gradient-31)"/>
        <path id="Trazado_100621" data-name="Trazado 100621" d="M1210.726,436.764c-.258-.283-.475-.624-.118-.946a.763.763,0,0,1,.67-.115c.435.185.366.574.2.928.555.4.691.819.411,1.236a.791.791,0,0,1-1.07.234C1210.4,437.835,1210.356,437.348,1210.726,436.764Z" transform="translate(-1182.718 -377.031)" fill="url(#linear-gradient-32)"/>
        <path id="Trazado_100622" data-name="Trazado 100622" d="M1198.873,410.742a.819.819,0,0,1,.819.788.81.81,0,1,1-.819-.788Z" transform="translate(-1177.497 -366.491)" fill="url(#linear-gradient-33)"/>
        <path id="Trazado_100623" data-name="Trazado 100623" d="M1208.082,426.838a.761.761,0,0,1,.025-1.521.783.783,0,0,1,.77.776A.769.769,0,0,1,1208.082,426.838Z" transform="translate(-1181.42 -372.654)" fill="url(#linear-gradient-34)"/>
        <path id="Trazado_100624" data-name="Trazado 100624" d="M1200.318,426.306a.653.653,0,0,1-.644.661.676.676,0,0,1-.685-.667.661.661,0,0,1,.7-.644A.632.632,0,0,1,1200.318,426.306Z" transform="translate(-1177.885 -372.797)" fill="url(#linear-gradient-35)"/>
        <path id="Trazado_100625" data-name="Trazado 100625" d="M1208.663,410.589a.574.574,0,0,1-.586-.615.587.587,0,0,1,1.173-.017A.584.584,0,0,1,1208.663,410.589Z" transform="translate(-1181.727 -365.924)" fill="url(#linear-gradient-36)"/>
      </g>
    </g>
    <g id="Grupo_55715" data-name="Grupo 55715" transform="translate(1354.031 283.751)">
      <g id="Grupo_55714" data-name="Grupo 55714" transform="translate(0 0)">
        <g id="Grupo_55713" data-name="Grupo 55713" transform="translate(0)">
          <g id="Grupo_55712" data-name="Grupo 55712" transform="translate(0)">
            <rect id="Rectángulo_5208" data-name="Rectángulo 5208" width="81.606" height="81.606" rx="10.89" transform="translate(0 57.704) rotate(-45)" fill="#d61b22"/>
            <rect id="Rectángulo_5209" data-name="Rectángulo 5209" width="69.485" height="69.485" rx="10.497" transform="translate(8.571 57.704) rotate(-45)" fill="url(#linear-gradient-22)"/>
          </g>
        </g>
      </g>
    </g>
    <path id="Trazado_100626" data-name="Trazado 100626" d="M1298.084,539.125h0l-1.721-3.559-1.572,3.5c-.017.037-.035.074-.05.112l-.022.049.006,0a1.789,1.789,0,0,0-.112.607,1.808,1.808,0,1,0,3.47-.711Z" transform="translate(-80.553 -116.466)" fill="url(#linear-gradient-38)"/>
    <g id="Grupo_55719" data-name="Grupo 55719" transform="translate(1392.057 363.212)">
      <g id="Grupo_55717" data-name="Grupo 55717" transform="translate(0 0)">
        <g id="Grupo_55716" data-name="Grupo 55716" transform="translate(0)">
          <rect id="Rectángulo_5210" data-name="Rectángulo 5210" width="57.086" height="57.086" rx="7.618" transform="translate(0 40.366) rotate(-45)" fill="#d61b22"/>
          <rect id="Rectángulo_5211" data-name="Rectángulo 5211" width="48.606" height="48.606" rx="10.497" transform="translate(5.996 40.366) rotate(-45)" fill="url(#linear-gradient-39)"/>
        </g>
      </g>
      <g id="Grupo_55718" data-name="Grupo 55718" transform="translate(24.341 12.735)">
        <path id="Trazado_100627" data-name="Trazado 100627" d="M1668.544,500.56a6.308,6.308,0,0,0,3.291-7.761s-1.105-3.12-.724-4.581c0,0-1.461-.528-2.722,2.1a2.121,2.121,0,0,1-2.432.892,5.427,5.427,0,0,0,.688-5.649,13.376,13.376,0,0,1-.508-3.717s-.982-.065-1.031,3.193-1.736,3.57-1.736,3.57,1.49-5.8-2.407-7.925a15.394,15.394,0,0,1-.622,5.632,12.373,12.373,0,0,0,.54,7.025s-2.161-.082-3.979-4.143a6.779,6.779,0,0,0-2.677-3.594s1.572,6.41-1.547,6.312a4.05,4.05,0,0,1-1.719-1.294s-2.923,4.487.958,8.171l2.53,1.768s-2.972.712-6.411-2.309c0,0-3.119-2.088-2.824-7.491a21.928,21.928,0,0,1,1.891-7.418,5.79,5.79,0,0,0-.025-3.39s1.916-.27,4.347,2.6c0,0,.221-.589-.81-2.505,0,0-1.2-2.358,1.3-5.526,0,0,2.407-2.9,1.13-4.641,0,0,2.284,1.129,1.94,5.133,0,0-.614,5.649,2.652,7.81,0,0-2.873-6.582-.884-10.954a18.411,18.411,0,0,1,4.5-6.9s2.063-2.186,1.67-4.175c0,0,2.014,1.695.271,6.73s.638,7.983.638,7.983a7.207,7.207,0,0,1,3.684-8.3s-1.891,3.39.319,5.526a6.206,6.206,0,0,1,.811,8.523s.663.294,3.267-2.554c0,0,1.768-1.695,3.119-1.719,0,0-2.186,1.277-.516,4.863s4.3,8.1,1.5,14.658A7.78,7.78,0,0,1,1668.544,500.56Z" transform="translate(-1645.191 -460.796)" fill="url(#linear-gradient-40)"/>
        <rect id="Rectángulo_5212" data-name="Rectángulo 5212" width="28.982" height="2.849" transform="translate(1.739 41.14)" fill="url(#linear-gradient-40)"/>
      </g>
    </g>
    <g id="Grupo_55724" data-name="Grupo 55724" transform="translate(1104.111 363.212)">
      <g id="Grupo_55721" data-name="Grupo 55721" transform="translate(0 0)">
        <g id="Grupo_55720" data-name="Grupo 55720">
          <rect id="Rectángulo_5213" data-name="Rectángulo 5213" width="57.086" height="57.086" rx="7.618" transform="translate(0 40.366) rotate(-45)" fill="#d61b22"/>
          <rect id="Rectángulo_5214" data-name="Rectángulo 5214" width="48.606" height="48.606" rx="10.497" transform="translate(5.996 40.366) rotate(-45)" fill="url(#linear-gradient-39)"/>
        </g>
      </g>
      <g id="Grupo_55723" data-name="Grupo 55723" transform="translate(21.048 18.859)">
        <path id="Trazado_100628" data-name="Trazado 100628" d="M1166.417,503.8a6.113,6.113,0,0,1-2.414,1.86,8.963,8.963,0,0,1-2.878.638,11.771,11.771,0,0,1-4.483-.536,5.428,5.428,0,0,1-2.355-1.682.374.374,0,0,0-.562-.106c-1.293.7-2.59,1.4-3.9,2.066a2.623,2.623,0,0,0-1.047.963,19.192,19.192,0,0,1-1.236,1.723,1.473,1.473,0,0,1-1.664.45,1.392,1.392,0,0,1-.826-1.116c-.085-.5-.1-1.006-.183-1.5a1.07,1.07,0,0,0-.27-.524c-.354-.375-.752-.709-1.11-1.081a1.47,1.47,0,0,1-.126-1.944,1.726,1.726,0,0,1,1.187-.56,3.256,3.256,0,0,1,1.682.128,1.86,1.86,0,0,0,1.386-.088c1.659-.782,3.309-1.585,4.962-2.381.269-.13.157-.377.151-.572a.425.425,0,0,0-.193-.312q-3.549-1.721-7.108-3.421a2.488,2.488,0,0,0-1.577-.047,4.15,4.15,0,0,1-2.342-.171,1.224,1.224,0,0,1-.639-1.994,4.016,4.016,0,0,1,.9-1,1.613,1.613,0,0,0,.632-1.356,4.418,4.418,0,0,1,.207-1.131,1.344,1.344,0,0,1,2.038-.858,2.928,2.928,0,0,1,1.366,1.408,4.863,4.863,0,0,0,.4.77,2.267,2.267,0,0,0,.679.664c1.176.624,2.374,1.205,3.565,1.8a.791.791,0,0,0,.148.027,3.891,3.891,0,0,1-1.015-2.138,6.933,6.933,0,0,1,.106-2.845.462.462,0,0,0-.08-.361,10.132,10.132,0,0,1-2.289-4.626,9.567,9.567,0,0,1-.289-3.066,9.28,9.28,0,0,1,5.728-8.086,16.739,16.739,0,0,1,5.292-1.269,19.33,19.33,0,0,1,4.315.012,18.812,18.812,0,0,1,5.383,1.445,8.933,8.933,0,0,1,3.9,3.65,9.85,9.85,0,0,1,1.413,5.509,8.758,8.758,0,0,1-2.4,5.991.8.8,0,0,0-.209.852,6,6,0,0,1-.16,3.674,9.562,9.562,0,0,1-.632,1.175l.35-.173c.945-.464,1.883-.941,2.837-1.383a2.184,2.184,0,0,0,1.126-1.183,3.627,3.627,0,0,1,.893-1.435,2.268,2.268,0,0,1,1.435-.718,1.194,1.194,0,0,1,1.2.843c.171.65.267,1.319.41,1.977a.944.944,0,0,0,.2.412c.4.461.846.888,1.234,1.36a1.2,1.2,0,0,1-.223,1.8,2.74,2.74,0,0,1-1.019.436,3.818,3.818,0,0,1-1.97-.058,1.737,1.737,0,0,0-1.312.118q-3.554,1.673-7.1,3.358a.393.393,0,0,0-.185.28c-.043.582-.037.587.49.831q2.366,1.1,4.735,2.187a1.551,1.551,0,0,0,1.164.074,3.323,3.323,0,0,1,2.477.13,1.4,1.4,0,0,1,.9,1.011,1.2,1.2,0,0,1-.32,1.068,13.988,13.988,0,0,1-1.187,1.134.993.993,0,0,0-.337.691,10.769,10.769,0,0,1-.355,1.851,1.179,1.179,0,0,1-1.707.682,3.186,3.186,0,0,1-1.6-1.654,2.893,2.893,0,0,0-1.468-1.548C1169.162,505.241,1167.809,504.516,1166.417,503.8Zm4.066-24.288a4.28,4.28,0,0,1,.457.94,5.54,5.54,0,0,1-.211,3.016,6.658,6.658,0,0,0-.482,2.862c.024.312.065.623.108,1.025a7.913,7.913,0,0,0,1.242-1.9,8.8,8.8,0,0,0,.453-6.015,8.477,8.477,0,0,0-4.05-5.4,12.184,12.184,0,0,0-2.7-1.015,15.838,15.838,0,0,0-4.4-.7,23.014,23.014,0,0,0-3.76.253,14.365,14.365,0,0,0-3.976,1.116,8.342,8.342,0,0,0-5.013,7.391,9.713,9.713,0,0,0,1.1,5.006c.24.484.545.936.82,1.4l.1-.04a5.932,5.932,0,0,0-.049-3.018,9.138,9.138,0,0,1-.616-3.168,2.058,2.058,0,0,1,.631-1.65l.513.6a4.491,4.491,0,0,0-.22.886,5.084,5.084,0,0,0,.284,2.186,8.362,8.362,0,0,1,.253,5,9.266,9.266,0,0,0-.348,2.8c.2,1.72.617,2.26,1.971,2.734a13.5,13.5,0,0,1,1.456.51,3.3,3.3,0,0,1,2.2,3.021.348.348,0,0,0,.227.239,13.085,13.085,0,0,0,1.9.307c1.16.049,2.324.054,3.483,0a17.216,17.216,0,0,0,2.191-.333c.1-.017.249-.156.254-.243a3.005,3.005,0,0,1,1.675-2.682c.726-.383,1.5-.665,2.262-.988a2.187,2.187,0,0,0,1.237-.923,4.422,4.422,0,0,0,.457-2.66c-.151-1.114-.42-2.216-.529-3.333a9.23,9.23,0,0,1,.091-2.3c.117-.745.46-1.454.578-2.2a2.588,2.588,0,0,0-.216-2Zm-17.53,15.45a14.188,14.188,0,0,1,.5,1.469,6.559,6.559,0,0,1,.289,1.985,8.137,8.137,0,0,0,.077,2.814,5,5,0,0,0,3.253,3.709,10.064,10.064,0,0,0,4.136.435,6.478,6.478,0,0,0,2.952-.817,5.283,5.283,0,0,0,2.624-5.471,6.268,6.268,0,0,1,.2-2.534c.169-.547.367-1.086.552-1.628l-.082-.077c-.164.154-.4.277-.483.466a13.74,13.74,0,0,0-1.173,4.257,2.051,2.051,0,0,1-1.037,1.634c-.072.047-.146.091-.221.133a7.179,7.179,0,0,1-3.625.974,19.537,19.537,0,0,1-2.948-.216,5.148,5.148,0,0,1-2.916-1.464,1.16,1.16,0,0,1-.359-.76,16.006,16.006,0,0,0-1.255-4.636A.416.416,0,0,0,1152.953,494.958Zm14.638,3.339c.148-.061.247-.1.342-.141l6.7-3.155a2.583,2.583,0,0,1,1.878-.189,3.593,3.593,0,0,0,1.869,0c.583-.134.7-.481.309-.915-.365-.408-.745-.806-1.144-1.18a1.065,1.065,0,0,1-.341-.754,12.781,12.781,0,0,0-.311-1.764c-.09-.376-.342-.464-.66-.259a2.372,2.372,0,0,0-1.048,1.14,5.9,5.9,0,0,1-.375.784,2.7,2.7,0,0,1-1.235,1.18c-1.733.829-3.453,1.682-5.177,2.53a.331.331,0,0,0-.159.145A7.883,7.883,0,0,0,1167.591,498.3Zm-14.74.042a2.236,2.236,0,0,0,0-.455c-.142-.592-.306-1.18-.447-1.772a.978.978,0,0,0-.614-.679c-1.577-.755-3.135-1.55-4.718-2.3a3.348,3.348,0,0,1-1.729-1.781c-.059-.138-.132-.27-.2-.4a1.946,1.946,0,0,0-.961-.914c-.327-.148-.483-.122-.618.215a3.1,3.1,0,0,0-.246,1.049,2.074,2.074,0,0,1-.868,1.914,3.463,3.463,0,0,0-.8.872c-.247.333-.179.5.214.65a3.334,3.334,0,0,0,1.834.119,3.292,3.292,0,0,1,2.084.1q2.355,1.119,4.707,2.243C1151.255,497.564,1152.023,497.939,1152.851,498.339ZM1167,503.052c.014.008.057.04.1.064,1.266.657,2.516,1.349,3.806,1.958a3.685,3.685,0,0,1,1.9,1.958,2.581,2.581,0,0,0,.81,1.018c.576.461.832.375,1.008-.348a.8.8,0,0,0,.012-.1c.052-.479.119-.957.151-1.437a1.048,1.048,0,0,1,.394-.768c.438-.38.869-.77,1.273-1.184.266-.272.218-.451-.112-.63a2.156,2.156,0,0,0-1.734-.208,3.068,3.068,0,0,1-2.34-.193c-1.45-.7-2.917-1.358-4.378-2.033a1.8,1.8,0,0,0-.2-.073Zm-14.213-2.022c-.063.032-.129.068-.2.1-1.568.745-3.132,1.5-4.707,2.228a2.565,2.565,0,0,1-1.859.1,2.777,2.777,0,0,0-1.638-.039.493.493,0,0,0-.287.824,2.757,2.757,0,0,0,.309.328c.341.328.7.64,1.022.984a1.082,1.082,0,0,1,.27.52c.105.591.165,1.19.252,1.785.075.517.4.649.813.331a1.281,1.281,0,0,0,.274-.271c.4-.571.774-1.158,1.186-1.72a2.275,2.275,0,0,1,.66-.682c1.475-.811,2.972-1.583,4.46-2.37a1.026,1.026,0,0,0,.129-.085Zm2.862-.529c0-.936,0-1.827,0-2.717,0-.062-.048-.163-.1-.178-.235-.074-.219-.252-.224-.44a2.175,2.175,0,0,0-1.349-1.773c.023.069.04.128.062.185a15.705,15.705,0,0,1,1.042,3.936C1155.122,499.892,1155.145,500.3,1155.647,500.5Zm10.769-5.055a2.172,2.172,0,0,0-1.2,1.819.329.329,0,0,1-.156.241c-.2.086-.221.231-.217.417.016.775.022,1.549.033,2.323,0,.079.014.156.021.235l.1.033a2.94,2.94,0,0,0,.287-.6c.227-1,.411-2.013.648-3.013C1166.042,496.429,1166.236,495.976,1166.416,495.447Zm-7.133,2.882v1.706c.185,0,.346-.012.5,0,.231.021.337-.051.317-.3s0-.493,0-.74c0-.766,0-.766-.772-.693C1159.318,498.3,1159.309,498.312,1159.283,498.329Zm1.939,1.606V498.31h-.794v1.053c0,.718,0,.718.715.612A.387.387,0,0,0,1161.222,499.935Zm.028.379c-.23,0-.391.009-.55,0-.212-.016-.287.07-.275.28.014.257,0,.515,0,.773,0,.586.052.633.642.524.068-.013.17-.109.172-.17C1161.256,501.26,1161.25,500.8,1161.25,500.313Zm1.347-.493c.277-.071.485-.116.686-.181.061-.019.148-.091.149-.141.011-.477.006-.954.006-1.437a4.685,4.685,0,0,0-.626.085c-.084.024-.2.133-.205.208C1162.588,498.824,1162.6,499.293,1162.6,499.82Zm-4.754-1.618-.835-.113c0,.484-.006.911.006,1.338a.256.256,0,0,0,.129.193c.215.08.44.132.7.2Zm1.4,2.131c0,.465,0,.911.005,1.356a.206.206,0,0,0,.121.155c.236.028.476.032.708.044v-1.513Zm3.37,1.323c.276-.087.492-.147.7-.226a.228.228,0,0,0,.133-.154c.011-.434.006-.867.006-1.338-.263.064-.472.1-.669.17a.279.279,0,0,0-.162.194C1162.606,500.73,1162.614,501.158,1162.614,501.656Zm-5.607-1.714c0,.467,0,.884,0,1.3,0,.055.034.144.074.159.23.085.467.153.755.244,0-.32,0-.554,0-.788a4.58,4.58,0,0,0,0-.545.289.289,0,0,0-.16-.194C1157.476,500.047,1157.266,500.007,1157.007,499.942Zm1.875-1.649c-.147-.016-.265-.02-.379-.044-.255-.053-.353.038-.334.3.019.245,0,.493,0,.739,0,.663,0,.663.662.671.009,0,.017-.009.048-.025Zm2.721,1.657a3.181,3.181,0,0,0,.435-.053c.079-.021.2-.092.207-.143.016-.507.009-1.016.009-1.55l-.651.063Zm.647,1.775V500.25a3.472,3.472,0,0,0-.486.007c-.064.009-.164.093-.166.146-.013.466-.007.933-.007,1.441Zm-3.363-1.4-.693-.084v1.477l.693.086Zm-2.913-.84c-.016.3-.033.559-.043.815-.021.555.149.765.756.9,0-.424.006-.839-.007-1.255a.279.279,0,0,0-.134-.189C1156.381,499.656,1156.2,499.585,1155.974,499.481Zm8.555-.028c-.245.119-.445.21-.638.313a.2.2,0,0,0-.1.141c-.008.431,0,.862,0,1.354a3.616,3.616,0,0,0,.526-.3.564.564,0,0,0,.208-.338C1164.546,500.252,1164.529,499.878,1164.529,499.453Zm-7.839-1.447-.721-.206c0,.294,0,.538,0,.781,0,.54.141.708.721.806Zm7.108-.013v1.517c.281-.221.618-.353.68-.565a4.414,4.414,0,0,0,.028-1.173Z" transform="translate(-1140.579 -471.408)" fill="url(#linear-gradient-43)"/>
        <g id="Grupo_55722" data-name="Grupo 55722" transform="translate(11.425 14.076)">
          <path id="Trazado_100629" data-name="Trazado 100629" d="M1160.375,498.09a1.942,1.942,0,0,1,1.6-1.832c.951-.155,1.909-.268,2.864-.394a2.746,2.746,0,0,1,.762-.055,1.485,1.485,0,0,1,1.172,1.227,2.016,2.016,0,0,1-.18,1.526,11.667,11.667,0,0,1-1.761,2.533,1.983,1.983,0,0,1-2.881.122,2.7,2.7,0,0,1-.889-1.2c-.15-.435-.354-.851-.518-1.281A6.517,6.517,0,0,1,1160.375,498.09Z" transform="translate(-1160.375 -495.796)" fill="url(#linear-gradient-44)"/>
          <path id="Trazado_100630" data-name="Trazado 100630" d="M1184.233,498.143c-.191.506-.387,1.009-.573,1.516a3.447,3.447,0,0,1-1,1.542,2.073,2.073,0,0,1-2.474.28,4.256,4.256,0,0,1-.9-.953,23.192,23.192,0,0,1-1.322-2.054,1.944,1.944,0,0,1,.051-1.937,1.308,1.308,0,0,1,1.505-.709c.7.11,1.4.165,2.1.27a9.133,9.133,0,0,1,1.379.29,1.764,1.764,0,0,1,1.156,1.724Z" transform="translate(-1167.709 -495.799)" fill="url(#linear-gradient-45)"/>
          <path id="Trazado_100631" data-name="Trazado 100631" d="M1172.675,504.145c0,1.5,0,2.916,0,4.33a.269.269,0,0,1-.05.175,8.957,8.957,0,0,1-.877.846c-.354.271-.584.183-.8-.22a3.072,3.072,0,0,1-.234-1.6,4.313,4.313,0,0,1,1.127-2.767C1172.076,504.647,1172.36,504.431,1172.675,504.145Z" transform="translate(-1164.743 -499.326)" fill="url(#linear-gradient-46)"/>
          <path id="Trazado_100632" data-name="Trazado 100632" d="M1175.178,504.268a4.467,4.467,0,0,1,1.816,4.842c-.186.662-.554.766-1.081.318a7.435,7.435,0,0,1-.648-.671.521.521,0,0,1-.086-.2.466.466,0,0,1,0-.129Z" transform="translate(-1166.633 -499.378)" fill="url(#linear-gradient-47)"/>
        </g>
      </g>
    </g>
    <g id="Grupo_55727" data-name="Grupo 55727" transform="translate(1313.55 367.53)">
      <g id="Grupo_55726" data-name="Grupo 55726" transform="translate(0 0)">
        <g id="Grupo_55725" data-name="Grupo 55725">
          <rect id="Rectángulo_5215" data-name="Rectángulo 5215" width="81.874" height="81.874" rx="10.926" transform="translate(0 57.893) rotate(-45)" fill="#d61b22"/>
          <rect id="Rectángulo_5216" data-name="Rectángulo 5216" width="69.712" height="69.712" rx="10.497" transform="translate(8.599 57.893) rotate(-45)" fill="url(#linear-gradient-48)"/>
        </g>
      </g>
      <path id="Trazado_100633" data-name="Trazado 100633" d="M1574.936,524.076a2.3,2.3,0,0,0-3.013-1.233l-6.674,2.8a6.55,6.55,0,0,0-7.436-1.983l-37.895,14.6a6.55,6.55,0,0,0-3.757,8.466l.142.369a6.549,6.549,0,0,0,8.466,3.757l37.895-14.6a6.546,6.546,0,0,0,4.187-6.289l6.851-2.87A2.3,2.3,0,0,0,1574.936,524.076Z" transform="translate(-1487.597 -478.539)" fill="url(#linear-gradient-40)"/>
    </g>
    <g id="Grupo_55731" data-name="Grupo 55731" transform="translate(1147.976 365.696)">
      <g id="Grupo_55729" data-name="Grupo 55729" transform="translate(0 0)">
        <g id="Grupo_55728" data-name="Grupo 55728" transform="translate(0)">
          <rect id="Rectángulo_5217" data-name="Rectángulo 5217" width="81.874" height="81.874" rx="10.926" transform="translate(0 57.893) rotate(-45)" fill="#d61b22"/>
          <rect id="Rectángulo_5218" data-name="Rectángulo 5218" width="69.712" height="69.712" rx="10.497" transform="translate(8.599 57.893) rotate(-45)" fill="url(#linear-gradient-48)"/>
        </g>
      </g>
      <g id="Grupo_55730" data-name="Grupo 55730" transform="translate(23.505 26.279)">
        <path id="Trazado_100634" data-name="Trazado 100634" d="M1220.838,561.975l8.5,8.548h16.26v-8.548h-5.223s-.213,1.163-2.145.982a2.125,2.125,0,0,1-1.965,1.146,3.268,3.268,0,0,1-2.276-1.49s-1.391.18-1.866-.721h-11.282Z" transform="translate(-1220.838 -519.573)" fill="url(#linear-gradient-40)"/>
        <path id="Trazado_100635" data-name="Trazado 100635" d="M1247.81,552.913h0l-1.721-3.559-1.571,3.5c-.018.037-.036.074-.051.113l-.021.048.005,0a1.79,1.79,0,0,0-.112.607,1.808,1.808,0,1,0,3.471-.711Z" transform="translate(-1230.776 -514.271)" fill="url(#linear-gradient-38)"/>
        <path id="Trazado_100636" data-name="Trazado 100636" d="M1243.64,540.373h0l-1.721-3.559-1.572,3.5c-.017.037-.035.074-.05.113l-.022.048.006,0a1.8,1.8,0,1,0,3.359-.1Z" transform="translate(-1229.012 -508.969)" fill="url(#linear-gradient-40)"/>
        <path id="Trazado_100637" data-name="Trazado 100637" d="M1294.951,526.217h0l-1.721-3.559-1.572,3.5c-.017.037-.035.074-.05.113l-.022.048.006,0a1.782,1.782,0,0,0-.112.607,1.808,1.808,0,1,0,3.47-.711Z" transform="translate(-1250.709 -502.982)" fill="url(#linear-gradient-40)"/>
        <path id="Trazado_100638" data-name="Trazado 100638" d="M1263.993,519.455l-15.293-2.587-1.375-1.932-1.832-.123-1.9,10.21,2.24.294,1.1-1.211,16.276,2.948s3.995,1.081,4.912-2.948S1263.993,519.455,1263.993,519.455Zm2.841,4.388-11.618-.27-8.572-1.105-.786.958h-.466l1.252-6.754h.295l.442,1.572,15.4,2.628C1267.694,521.313,1266.834,523.843,1266.834,523.843Z" transform="translate(-1230.459 -499.665)" fill="url(#linear-gradient-40)"/>
        <path id="Trazado_100639" data-name="Trazado 100639" d="M1262.425,493.211l15.293-2.587,1.375-1.932,1.831-.124,1.9,10.21-2.24.295-1.1-1.212-16.276,2.948s-4,1.08-4.912-2.948S1262.425,493.211,1262.425,493.211Zm-1.413,2.03,11.208.362,7.553.621.786.958h.466l-1.253-6.754h-.295l-.442,1.572-15.4,2.628C1261.217,494.963,1261.013,495.241,1261.013,495.241Z" transform="translate(-1236.631 -488.568)" fill="url(#linear-gradient-56)"/>
        <path id="Trazado_100640" data-name="Trazado 100640" d="M1308.925,547.5l-2.628.123-1.76-1.707a1.439,1.439,0,0,0-.376-.618l-10.631-10.205a1.457,1.457,0,0,0-2.06.042l-.615.641a1.457,1.457,0,0,0,.042,2.06l5.687,5.459-.553-.119-5.993.811-.132.046a1.956,1.956,0,0,1,.074.527,2.063,2.063,0,0,1-2.1,2.03,2.092,2.092,0,0,1-1.963-1.325,1.636,1.636,0,0,1-1.394.735,1.545,1.545,0,0,1-1.585-1.261h-8.194a1.457,1.457,0,0,0-1.457,1.457v.074a1.457,1.457,0,0,0,1.457,1.457h11.384v.76h-12.579a1.458,1.458,0,0,0-1.457,1.457v.075a1.458,1.458,0,0,0,1.457,1.457h12.579v.392h-11.314a1.457,1.457,0,0,0-1.457,1.457v.466a1.457,1.457,0,0,0,1.457,1.457h11.314v.389h-8.109a1.458,1.458,0,0,0-1.457,1.457v.086a1.457,1.457,0,0,0,1.457,1.457h24.713l8.572-7.974Z" transform="translate(-1242.512 -508.069)" fill="url(#linear-gradient-40)"/>
      </g>
    </g>
    <circle id="Elipse_4005" data-name="Elipse 4005" cx="1.608" cy="1.608" r="1.608" transform="translate(1426.212 339.351)" fill="url(#linear-gradient-2)"/>
    <rect id="Rectángulo_5219" data-name="Rectángulo 5219" width="16.24" height="2.532" transform="translate(1432.953 339.866)" fill="url(#linear-gradient-2)"/>
    <path id="Trazado_100641" data-name="Trazado 100641" d="M1638.222,409.839l-2.088-.147-1.129-2.481-1.032-.172-.491-.958-.417-2.039a8.138,8.138,0,0,0,2.7-7.057,36.074,36.074,0,0,0,2.579-4.191,11.4,11.4,0,0,0,1.154-5.526l-1.866-.762c-1.621,1.817-4.593,4.028-5.5,2.6s.86-2.726.86-2.726l-.589-.418-.467-.982a10.2,10.2,0,0,0-4.249.884c-7.319-1.473-9.628,2.837-9.628,2.837l1.924,2.583c-4.323,3.668-8.384,10.807-8.384,10.807l-3.93-.384-1.441.711,2.816,4h-1.965l-.72,1.31h-3.209l-2.816,3.93h-6.812l-1.244,1.768-3.733.655-1.9,2.489h51.218l3.382-3.512Zm-8.08-22.989s-1.081,2.874,1.35,4.053,5.674-1.4,5.674-1.4-1.744,11.3-8.818,5.993C1628.349,395.5,1622.675,390.78,1630.142,386.85Zm-5.625.393-3.131,2.616-.823-.884C1621.521,387.5,1624.517,387.243,1624.517,387.243Zm-11.527,21.123-3.324-4.4,3.831.262Zm2.366-3.832.2-1.113-.638-.753H1613.5v-.688s7.385-10.9,11.217-12.477c0,0-1.326,4.462,1.67,6.959a6.818,6.818,0,0,0,5.109,2.153s-5.726,4.593-15.721,6.558Zm7.541,1.99-.4-.712-.36-.418c4.887-.81,11.617-6.017,11.617-6.017C1632.279,404.46,1622.9,406.524,1622.9,406.524Z" transform="translate(-204.036 -52.781)" fill="url(#linear-gradient-2)"/>
    <path id="Trazado_100642" data-name="Trazado 100642" d="M1610.317,378.425l1.375-2.554h-11.4l5.423-10.2h5.207v-2.227h-3.733l2.031-4.323-1.867-1.212-2.784,4.912-.1-2.98-2.555.033.066,8.023-1.7,2.907V360.669l1.686-2.105,7.369-2.9-.95-2.129-3.864,1.441,2.734-3.93-1.981-1.392-6.058,8.105,3.258-11.495-2.309-.753-1.441,4.634-3.471-4.11-1.867,1.523,4.7,5.485-1.179,3.75-4.437-7.237-2.129,1.457,2.44,3.684h-4.093v2.292l5.485.082,1.146,1.959v5.6l-2.636-6.5-2.292.884,1.7,4.519-4.487-4.519-1.768,1.67,3.439,3.5-2.718,1.965,1.244,2.116,3.308-2.214,4.208,4.524v5.284h-25.445v2.554h25.445v2.25l-5.289,1.467.884,2.211,4.192-1.048-1.032,1.728,2,1.055,1.9-3.193,5.764.508v-2.26l-3.455-.826v-1.892Z" transform="translate(-196.946 -36.103)" fill="url(#linear-gradient-2)"/>
    <g id="Grupo_55734" data-name="Grupo 55734" transform="translate(1176.11 260.132)">
      <g id="Grupo_55732" data-name="Grupo 55732" transform="translate(0 0)">
        <rect id="Rectángulo_5220" data-name="Rectángulo 5220" width="157.54" height="157.54" rx="21.023" transform="translate(0 111.397) rotate(-45)" fill="#d61b22"/>
        <rect id="Rectángulo_5221" data-name="Rectángulo 5221" width="134.139" height="134.139" rx="10.497" transform="translate(16.547 111.397) rotate(-45)" fill="url(#linear-gradient-62)"/>
      </g>
      <g id="Grupo_55733" data-name="Grupo 55733" transform="translate(92.872 48.554)">
        <circle id="Elipse_4006" data-name="Elipse 4006" cx="13.994" cy="13.994" r="13.994" transform="translate(4.544 89.992)" fill="url(#linear-gradient-63)"/>
        <path id="Trazado_100643" data-name="Trazado 100643" d="M1426.546,365.983h0a18.524,18.524,0,1,0-36.769-3.2c0,2.774,12.87,58.667,12.87,58.667h.178a6,6,0,0,0,11.65,0h.006l.032-.145c.009-.039.017-.077.025-.116Z" transform="translate(-1389.772 -344.258)" fill="url(#linear-gradient-40)"/>
      </g>
    </g>
  </g>
</svg>
