<svg xmlns="http://www.w3.org/2000/svg" xmlns:xlink="http://www.w3.org/1999/xlink" width="351.408" height="359.642" viewBox="0 0 351.408 359.642">
  <defs>
    <clipPath id="clip-path">
      <path id="Trazado_101036" data-name="Trazado 101036" d="M204.3,771.491c8.258-10.184,18.785-26.327,21.653-47.513,3.761-27.784-8.958-39.828-13.922-85.319-3.14-28.764-5.041-48.869,7.946-61.537,10.178-9.925,28.28-14.1,40.465-7.848,10.131,5.195,17.359,18.2,20.331,27.781,2.422,7.809,2.146,13.758,7.326,17.338,5.295,3.659,10.045.529,14.882,3.114,9.81,5.243,7.564,27.353,7.2,30.926-4.037,39.75-35.948,70.545-50.03,83.811A242.064,242.064,0,0,1,204.3,771.491Z" transform="translate(-204.296 -566.323)" fill="none"/>
    </clipPath>
    <clipPath id="clip-path-2">
      <path id="Trazado_101041" data-name="Trazado 101041" d="M221.551,742.519c14.754,6.672,34.5,13.067,56.2,12.92,5.538-.038,39.745-.27,42.144-14.738.845-5.1-2.971-7.656-1.961-14.489,1.2-8.1,7.32-9.688,14.446-17.278,4.252-4.528,16.7-17.781,11.155-30.639-3.31-7.684-12.893-14.879-21.859-16.591-13.151-2.51-22.4,7.268-37.761,24.086C270.3,700.7,269.889,705.661,259.9,716.224,252.479,724.065,240.605,734.121,221.551,742.519Z" transform="translate(-221.551 -661.314)" fill="none"/>
    </clipPath>
    <clipPath id="clip-path-3">
      <circle id="Elipse_4022" data-name="Elipse 4022" cx="112.907" cy="112.907" r="112.907" fill="none"/>
    </clipPath>
    <linearGradient id="linear-gradient" x1="0.632" y1="0.817" x2="0.28" y2="-0.029" gradientUnits="objectBoundingBox">
      <stop offset="0" stop-color="#8de7ff"/>
      <stop offset="0.445" stop-color="#69d1ff"/>
      <stop offset="1" stop-color="#69d1ff"/>
    </linearGradient>
    <linearGradient id="linear-gradient-2" y1="0.5" x2="1" y2="0.5" gradientUnits="objectBoundingBox">
      <stop offset="0" stop-color="#24abb5"/>
      <stop offset="1" stop-color="#40cf9f"/>
    </linearGradient>
    <linearGradient id="linear-gradient-3" x1="0.43" y1="1.585" x2="0.504" y2="0.437" gradientUnits="objectBoundingBox">
      <stop offset="0" stop-color="#fcc64e"/>
      <stop offset="0.008" stop-color="#fcc64d"/>
      <stop offset="0.113" stop-color="#fece46"/>
      <stop offset="0.318" stop-color="#ffd145"/>
      <stop offset="0.566" stop-color="#fcc73a"/>
      <stop offset="0.866" stop-color="#f8b627"/>
      <stop offset="1" stop-color="#f8b627"/>
    </linearGradient>
    <linearGradient id="linear-gradient-4" x1="0" y1="0.5" x2="1" y2="0.5" xlink:href="#linear-gradient-3"/>
    <linearGradient id="linear-gradient-7" x1="0" y1="0.5" x2="1.207" y2="0.5" xlink:href="#linear-gradient-3"/>
    <linearGradient id="linear-gradient-13" x1="5.158" y1="-0.052" x2="5.557" y2="0.731" gradientUnits="objectBoundingBox">
      <stop offset="0" stop-color="#442321"/>
      <stop offset="1" stop-color="#892d2a"/>
    </linearGradient>
    <linearGradient id="linear-gradient-14" x1="5.123" y1="-0.052" x2="5.521" y2="0.734" gradientUnits="objectBoundingBox">
      <stop offset="0" stop-color="#ff3e34"/>
      <stop offset="1" stop-color="#fb4343"/>
    </linearGradient>
    <linearGradient id="linear-gradient-15" x1="6.958" y1="0.096" x2="7.517" y2="0.835" xlink:href="#linear-gradient-14"/>
  </defs>
  <g id="Grupo_56066" data-name="Grupo 56066" transform="translate(-28.361 -566.323)">
    <g id="Grupo_56046" data-name="Grupo 56046" transform="translate(28.361 566.323)">
      <path id="Trazado_101030" data-name="Trazado 101030" d="M273.507,615.887c11.069,15.5-1.451,40.939,14.853,52.51,15.871,11.263,35.023-7.675,49.971,2.008,22.174,14.361,18.855,81.181-12.9,123.008-9.55,12.58-17.589,17.52-21.024,31.668-7.375,30.382,19.854,48.122,14.866,63.162-11.231,33.865-189.117,64.054-261.679-36.6-33.89-47.011-39.6-115.35-10.317-167.608C100.2,589.6,248.67,581.116,273.507,615.887Z" transform="translate(-28.361 -560.774)" fill="#9de0d3"/>
      <g id="Grupo_56040" data-name="Grupo 56040" transform="translate(207.662)">
        <path id="Trazado_101031" data-name="Trazado 101031" d="M204.3,771.491c8.258-10.184,18.785-26.327,21.653-47.513,3.761-27.784-8.958-39.828-13.922-85.319-3.14-28.764-5.041-48.869,7.946-61.537,10.178-9.925,28.28-14.1,40.465-7.848,10.131,5.195,17.359,18.2,20.331,27.781,2.422,7.809,2.146,13.758,7.326,17.338,5.295,3.659,10.045.529,14.882,3.114,9.81,5.243,7.564,27.353,7.2,30.926-4.037,39.75-35.948,70.545-50.03,83.811A242.064,242.064,0,0,1,204.3,771.491Z" transform="translate(-204.296 -566.323)" fill="#a5e3ff"/>
        <g id="Grupo_56039" data-name="Grupo 56039">
          <g id="Grupo_56038" data-name="Grupo 56038" clip-path="url(#clip-path)">
            <g id="Grupo_56037" data-name="Grupo 56037" transform="translate(-12.737 -10.41)">
              <g id="Grupo_56036" data-name="Grupo 56036">
                <path id="Trazado_101032" data-name="Trazado 101032" d="M196.06,781.756l-.474-.871C211.174,772.391,224.3,763.011,234.6,753c15.184-14.748,23.745-30.454,25.444-46.682,1.331-12.712-1.48-25.319-5.369-42.768a241.549,241.549,0,0,0-9.615-31.991c-3.992-11.074-7.145-19.82-7.592-33.08a100.432,100.432,0,0,1,7.647-40.979l.92.371a99.447,99.447,0,0,0-7.575,40.575c.443,13.1,3.572,21.785,7.533,32.777a242.177,242.177,0,0,1,9.65,32.111c1.931,8.66,3.6,16.139,4.634,23.143a78.569,78.569,0,0,1,.754,19.945c-1.724,16.464-10.386,32.375-25.741,47.29C224.927,763.785,211.727,773.219,196.06,781.756Z" transform="translate(-193.13 -557.504)" fill="#69d1ff"/>
                <path id="Trazado_101033" data-name="Trazado 101033" d="M251.5,650.111l-.538-.152a67.989,67.989,0,0,1-20.78-11.29c-9.884-7.735-22.457-21.875-26.225-45.311l.98-.157c3.713,23.1,16.093,37.037,25.825,44.66A68.672,68.672,0,0,0,250.7,648.837c4.235-26.526,15.734-44.373,24.669-54.7,9.76-11.279,18.675-16.279,18.764-16.329l.48.869c-.087.048-8.876,4.984-18.525,16.145-8.9,10.3-20.376,28.15-24.5,54.734Z" transform="translate(-191.62 -553.842)" fill="#69d1ff"/>
                <path id="Trazado_101034" data-name="Trazado 101034" d="M260.616,684.515l-.241-.268A196.311,196.311,0,0,0,235.605,661.8c-13.452-10.02-41.814-10.271-42.1-10.272l0-.993c.289,0,28.972.255,42.688,10.469a197.623,197.623,0,0,1,24.668,22.309c14.5-6.749,27.246-29.64,35.411-47.728a344.79,344.79,0,0,0,14.518-38.469l.95.282a345.313,345.313,0,0,1-14.559,38.585c-12.07,26.739-24.263,43.018-36.24,48.384Z" transform="translate(-193.505 -550.361)" fill="#69d1ff"/>
                <path id="Trazado_101035" data-name="Trazado 101035" d="M236.7,735.879l.373-.915a33.834,33.834,0,0,0,1.454-22.7,44.128,44.128,0,0,0-10.187-17.227,75.951,75.951,0,0,0-19.136-14.8l.449-.885a77.05,77.05,0,0,1,19.4,14.991c11.347,12.4,14.552,26.232,9.3,40.062a179.2,179.2,0,0,0,30.208-12.214c15.981-8.146,38.416-22.528,54.543-44.784l31.341-43.254.8.582-31.343,43.254c-16.248,22.425-38.833,36.9-54.919,45.1a174.027,174.027,0,0,1-31.337,12.543Z" transform="translate(-190.675 -543.682)" fill="#69d1ff"/>
              </g>
            </g>
          </g>
        </g>
      </g>
      <g id="Grupo_56045" data-name="Grupo 56045" transform="translate(228.029 112.121)">
        <path id="Trazado_101037" data-name="Trazado 101037" d="M221.551,742.519c14.754,6.672,34.5,13.067,56.2,12.92,5.538-.038,39.745-.27,42.144-14.738.845-5.1-2.971-7.656-1.961-14.489,1.2-8.1,7.32-9.688,14.446-17.278,4.252-4.528,16.7-17.781,11.155-30.639-3.31-7.684-12.893-14.879-21.859-16.591-13.151-2.51-22.4,7.268-37.761,24.086C270.3,700.7,269.889,705.661,259.9,716.224,252.479,724.065,240.605,734.121,221.551,742.519Z" transform="translate(-221.551 -661.314)" fill="#87daff"/>
        <g id="Grupo_56044" data-name="Grupo 56044">
          <g id="Grupo_56043" data-name="Grupo 56043" clip-path="url(#clip-path-2)">
            <g id="Grupo_56042" data-name="Grupo 56042" transform="translate(-65.516 -13.12)">
              <g id="Grupo_56041" data-name="Grupo 56041">
                <path id="Trazado_101038" data-name="Trazado 101038" d="M210.276,742.574c-15.7-3.314-30.565-10.565-44.231-21.576l.668-.83c14.26,11.488,29.832,18.844,46.284,21.857,21.915,4.017,44.355-.217,66.694-12.582,23.282-12.886,40.621-31.372,51.068-44.611,7.218-9.145,11.782-20.8,13.569-34.633l1.056.137c-1.812,14.029-6.451,25.858-13.789,35.156-10.509,13.315-27.953,31.911-51.389,44.883-22.561,12.487-45.238,16.76-67.4,12.7Q211.537,742.842,210.276,742.574Z" transform="translate(-166.045 -650.199)" fill="#69d1ff"/>
                <path id="Trazado_101039" data-name="Trazado 101039" d="M286.173,708.756l-.124-.463a66.8,66.8,0,0,1-1.727-16.534c.143-8.707,2.083-21.294,10.516-31.812l.832.666c-14.65,18.274-9.569,43.233-8.7,46.94,40.184-6.5,50.171-29.822,52.279-36.839a3.345,3.345,0,0,1,.123-.374l.969.441-.484-.221.49.207c-.015.041-.04.126-.078.253-2.161,7.2-12.417,31.178-53.618,37.663Z" transform="translate(-144.717 -648.441)" fill="#69d1ff"/>
                <path id="Trazado_101040" data-name="Trazado 101040" d="M288.286,739.575a78.3,78.3,0,0,1-25.613-10.861l-.241-.152-.007-.286c-.006-.218-.4-22.182,12.445-46.088l12.926-24.06.938.505-12.926,24.059c-11.917,22.182-12.32,42.649-12.32,45.276,9.9,6.219,24.985,13.2,41.1,11.547,9.674-.992,15.17-4.669,15.224-4.706l.6.879c-.23.158-5.777,3.868-15.715,4.887A53.109,53.109,0,0,1,288.286,739.575Z" transform="translate(-148.665 -648.769)" fill="#69d1ff"/>
              </g>
            </g>
          </g>
        </g>
      </g>
      <path id="Trazado_101042" data-name="Trazado 101042" d="M190.983,630.332a58.616,58.616,0,0,0-19.869-7.027,40.668,40.668,0,0,0-7.73-.352c-8.286.533-13.489,4.066-28.551,4.769-23.445,1.094-28.326-6.648-40.3-4.353-30.5,5.84-53.453,66.491-38.61,81.461,13.813,13.934,51.367-20.782,87.6-1.31,9.111,4.895,19.576,13.99,26.193,10.061,4.6-2.732,3.094-9.24,9.391-22.806,4.18-9,6.957-14.988,11.486-15.682,8.652-1.328,20.38,17.17,24.373,34.254.7,2.99.805,4.412,1.992,23.388.711,11.353.335,32.805,2.7,33.082,1.78.209,4.968-11.53,6.825-21.835,2.932-16.276,7.732-42.92-4.223-72.764C213.956,650.509,200.689,635.992,190.983,630.332Z" transform="translate(-24.227 -556.122)" fill="#c3edff"/>
    </g>
    <g id="Grupo_56051" data-name="Grupo 56051" transform="translate(35.579 676.078)">
      <g id="Grupo_56050" data-name="Grupo 56050" clip-path="url(#clip-path-3)">
        <g id="Grupo_56049" data-name="Grupo 56049" transform="translate(-1.442 -1.341)">
          <path id="Trazado_101043" data-name="Trazado 101043" d="M261.894,772.518a113.473,113.473,0,0,1-20.484,65.113c-.05.077-.231.149-.231.225v0c-20.217,29.622-54.856,48.812-93.714,48.812a67.235,67.235,0,0,1-9.334-.578h0c-.013,0-.019.189-.032.189-1.532-.126-3.051-.185-4.564-.372-.538-.064-1.076-.085-1.611-.161-.476-.064-.947-.106-1.419-.178-.412-.06-.82-.112-1.225-.178-.092-.017-.184-.026-.275-.039-1-.164-1.991-.335-2.983-.525H126A114.7,114.7,0,0,1,38.285,738.646c.519-1.678,1.166-3.337,1.6-4.98v0c1.29-2.737,2.155-5.425,3.343-8.063.478-1.054,1.006-2.1,1.51-3.14a114.412,114.412,0,0,1,9.7-16.269c.333-.465.678-.927,1.016-1.389q2.033-2.764,4.234-5.4,3.291-3.95,6.923-7.594a114.819,114.819,0,0,1,20.954-16.619q3.537-2.19,7.247-4.122a113.134,113.134,0,0,1,18.81-7.76,114.975,114.975,0,0,1,139.419,64.373c1.652,3.869,2.769,7.844,4.489,11.916v0c0,.019-.2.032-.19.051A114.17,114.17,0,0,1,261.894,772.518Z" transform="translate(-33.254 -658.173)" fill="url(#linear-gradient)"/>
          <g id="Grupo_56048" data-name="Grupo 56048" transform="translate(5.034 4.235)" style="mix-blend-mode: soft-light;isolation: isolate">
            <path id="Trazado_101044" data-name="Trazado 101044" d="M122.1,851.6v0h.009l-.006,0Z" transform="translate(-22.265 -627.528)" fill="#fff"/>
            <path id="Trazado_101045" data-name="Trazado 101045" d="M171.746,810.422c-2.454,3.457-10.045,7.9-4.894,16.613,5.106,8.7-.355,10.327-3.869,9.512-3.529-.8-14.5-1.254-12.672,3.732s4.967,6.864.947,8.791S145.542,856,141.43,862.9c-4.084,6.911-13.79.934-10.916,7.86s5.106,6.259,4.838,11.087c-.064,1.326.816,2.688,2.007,3.982-1.532-.127-3.071-.282-4.6-.469-.538-.064-1.076-.133-1.611-.209-.476-.064-.947-.13-1.419-.2q-.618-.09-1.225-.19c-.092-.015-.068-.032-.159-.045-.982-.164-1.491-.341-2.782-.528v0c-.859-.817-.321-1.7-.191-2.659,1.282-8.914-11.017-15.04-13.078-21.286-2.025-6.23-.025-9.945-.493-15.109s1.2-11.987-1.762-16.331c-2.966-4.327-14.924-5.777-17.2-14.511-2.292-8.714,3.038-21.767,5.108-23.989,2.046-2.223-9.9-12.333-15.586-12.656-5.71-.349-3.425-11.846-13.08-10.1-9.674,1.7-27.054-3.7-23.464-9.506,2.963-4.784,7.937-15.335-8.3-20.038.519-1.678,1.163-3.337,1.592-4.98v0c1.29-2.737,2.155-5.425,3.343-8.063.478-1.054,1.006-2.1,1.51-3.14a114.954,114.954,0,0,1,9.7-16.269c.333-.465.678-.927,1.016-1.389q2.038-2.764,4.234-5.4,3.291-3.95,6.923-7.594A114.819,114.819,0,0,1,86.79,674.544c3.216,2.253,6.888,3.644,10.061,1.931,7.777-4.353,2.65-5.021-.535-5.183a4.1,4.1,0,0,1-2.279-.87,113.165,113.165,0,0,1,18.81-7.76c-.484,4.391-6.452,11.445-2.061,10.583,5.11-.971,7.2-14.777,10.948-10.19,3.8,4.606-4.163,10.643,3.32,7.145,7.493-3.463,8.494-11.193,16.845-7.433,8.392,3.808,7.626,8.315,9.968,7.869s9.881,4.632,5.315,8.8c-4.606,4.184-8.829-1.146-15.733-2.754-6.907-1.59-6.74,4.061-9.918,5.353-3.232,1.247-18.823-6.288-22.649.522-3.869,6.756-5.515,11.469.228,11.3s6.106-1.646,5.657,2.6.585,7.423,5.784,3.431c5.182-3.986,4.02-7.873,8.072-5.974s4.532.18,8.844-2.95,9.979-3.457,11.462,3.567-1.054,8.6-8.632,8.959-8.439-2.023-10.856,4.315-12.431,14.483-21.234,17.837-12.233,8.33-12.03,15.03-3.1,13.8-5.3,8.262-8.428-14.893-14.765-8.648-17.4,17.323-5.189,19.346c12.188,2.061,5.828-9.358,11.989-7.075,6.151,2.3-3.9,7.331.215,9.148,4.119,1.833,5.844.976,5.812,6.589s1.364,11.057,6.363,8.677,11.413-13.369,18.64-6.864c7.237,6.521,6.723,5.674,10.519,3.773s6.207,3.79,7.762,6.38,7.651-.054,12.593,7.651,6.875,9.079,12.507,6.305,7.927-.712,9.4,3.179,4.933.089,6.6,5.23S174.184,806.962,171.746,810.422Z" transform="translate(-37.519 -661.761)" fill="#fff"/>
            <g id="Grupo_56047" data-name="Grupo 56047" transform="translate(147.23 21.153)">
              <path id="Trazado_101046" data-name="Trazado 101046" d="M167.659,713.839c-3.992-8.566,15.787-7.6,19.281-6.945,3.517.585,11.767-5.863,12.815-8.861,1.076-3.019,2.842-1.585,9.1-1.671,6.255-.066.728-1.481-6.158-3.751s-1-2.492-7.331-7.493c-2.725-2.191-1.867-4.052-.051-5.435A114.707,114.707,0,0,1,228.686,723.8a2.223,2.223,0,0,0-.589-.1c-4.381-.025-5.347-9.712-7.6-11.6-2.226-1.884.063,5.321.608,8.281s-1.2.471-3.384,3.19-6.154,2.774-6.512-1.31-3.235-8.076-9.064-9.937-10.871-.333-15.606,1.494C181.824,715.618,171.679,722.338,167.659,713.839Z" transform="translate(-161.376 -679.682)" fill="#fff"/>
              <path id="Trazado_101047" data-name="Trazado 101047" d="M218.193,827.219c.4-2.941,1.041-5.98-.186-7.091-2.985-2.77-3.638-10.316-2.6-14.14s9.076-3.615,3.619-9.981c-5.474-6.386-10.406-13.965-8.108-18.3s1.6-4.645-2.707-4.619-6.205.215-10.5-3.621c-4.3-3.888-10.212,9.174-26.392-1.3-16.176-10.579-6.964-28.411-.9-28.456,6.1-.1,13.226-3.181,8.228-10.621-4.983-7.468,2.8-8.522,6.609-6.825,3.812,1.677,10.57-2.831,17.458-4.863,6.9-2.022,6.6,9.225,10.434,11.475,3.856,2.255,11.08.466,14.834-3.136,2.682-2.571,3.267.427,5.917,3.273a114.584,114.584,0,0,1-15.7,98.2Z" transform="translate(-162.255 -672.923)" fill="#fff"/>
              <path id="Trazado_101048" data-name="Trazado 101048" d="M185.788,699.29c0-.007,5.045-2.283,3.218-5.949-1.811-3.667-4.682-14.906-6.78-11.364-2.112,3.558,1,10.465.321,13.445S181.844,699.977,185.788,699.29Z" transform="translate(-158.788 -679.391)" fill="#fff"/>
              <path id="Trazado_101049" data-name="Trazado 101049" d="M181.838,694.525c-.071-1.182.674-5.98-3.1-5.83.007-.007-5.463,2.274-2.263,6.152S181.921,695.7,181.838,694.525Z" transform="translate(-159.872 -678.057)" fill="#fff"/>
            </g>
          </g>
        </g>
        <path id="Trazado_101050" data-name="Trazado 101050" d="M261.534,772.273a113.358,113.358,0,0,1-20.33,65.114.4.4,0,0,0-.08.224v0a113.975,113.975,0,0,1-93.866,48.721,69.636,69.636,0,0,1-9.486-.672h0c-.012,0-.019.282-.031.282-1.533-.126-3.052-.142-4.566-.328-.538-.064-1.076-.061-1.611-.138-.474-.063-.947-.093-1.418-.166-.412-.06-.82-.1-1.225-.17-.092-.017-.184-.024-.276-.037-1-.164-1.991-.334-2.982-.524h-.017a114.441,114.441,0,0,1-92.081-99.914A99.276,99.276,0,0,0,108.176,849.1h.013a8.13,8.13,0,0,0,2.573.486c.08.009.162.037.241.05.348.057.7.114,1.058.165.4.064.813.115,1.225.169.463.066.924.106,1.389.161,1.308.16,2.618.459,3.941.567.013,0,.02.124.03.124h0c2.688,0,5.366.216,8.111.216a98.581,98.581,0,0,0,80.976-42.387c0-.066.107-.156.149-.222A98.728,98.728,0,0,0,221.377,723.8c0-.016-.039-.035-.039-.051v0a67.517,67.517,0,0,0-3.671-10.288,98.895,98.895,0,0,0-59.785-55.044,113.769,113.769,0,0,1,61.217,24.9,115.054,115.054,0,0,1,33.512,44.123c1.652,3.868,2.706,7.844,4.427,11.915v0c0,.019-.135.032-.128.051A114.2,114.2,0,0,1,261.534,772.273Z" transform="translate(-34.641 -659.47)" opacity="0.3" fill="url(#linear-gradient-2)" style="mix-blend-mode: multiply;isolation: isolate"/>
      </g>
    </g>
    <g id="Grupo_56062" data-name="Grupo 56062" transform="translate(161.286 745.505)">
      <g id="Grupo_56056" data-name="Grupo 56056" transform="translate(60.421)">
        <ellipse id="Elipse_4023" data-name="Elipse 4023" cx="51.65" cy="11.833" rx="51.65" ry="11.833" transform="translate(0.062)" fill="url(#linear-gradient-3)"/>
        <ellipse id="Elipse_4024" data-name="Elipse 4024" cx="51.65" cy="11.833" rx="51.65" ry="11.833" transform="translate(0.062 145.547)" fill="#f8b627"/>
        <g id="Grupo_56054" data-name="Grupo 56054" transform="translate(0.953 2.457)">
          <rect id="Rect치ngulo_5367" data-name="Rect치ngulo 5367" width="101.517" height="142.83" transform="translate(0 11.2)" fill="url(#linear-gradient-4)"/>
          <g id="Grupo_56053" data-name="Grupo 56053" transform="translate(25.662 58.955)">
            <g id="Grupo_56052" data-name="Grupo 56052">
              <path id="Trazado_101051" data-name="Trazado 101051" d="M259.391,797.85a3.925,3.925,0,0,0-5.21.885h0a1.141,1.141,0,0,1-1.6.179l-3.815-3.046A3.784,3.784,0,0,1,246,799.556l3.633,2.9a1.231,1.231,0,0,1,.194,1.73h0a3.866,3.866,0,0,0,.61,5.433h0a3.866,3.866,0,0,0,5.433-.61h0a3.863,3.863,0,0,0,.4-4.2,3.868,3.868,0,0,0,4-1.325h0A3.867,3.867,0,0,0,259.391,797.85Z" transform="translate(-209.074 -765.522)" fill="#fff"/>
              <path id="Trazado_101052" data-name="Trazado 101052" d="M216.59,782.772a3.926,3.926,0,0,0,5.211-.885h0a1.138,1.138,0,0,1,1.6-.179l3.724,2.972a13.624,13.624,0,0,1,2.452-3.934l-3.229-2.578a1.232,1.232,0,0,1-.2-1.732h0a3.866,3.866,0,0,0-6.042-4.824h0a3.868,3.868,0,0,0-.406,4.2,3.861,3.861,0,0,0-4,1.326h0A3.865,3.865,0,0,0,216.59,782.772Z" transform="translate(-214.69 -770.158)" fill="#fff"/>
              <path id="Trazado_101053" data-name="Trazado 101053" d="M230.121,799.407a3.689,3.689,0,0,1-1.7-4.057,3.232,3.232,0,0,0,.072-.51l-5.2,4.034a1.14,1.14,0,0,1-1.6-.2l-.055-.072a3.866,3.866,0,0,0-5.424-.687h0a3.867,3.867,0,0,0-.687,5.424h0a3.862,3.862,0,0,0,3.985,1.382,3.864,3.864,0,0,0,.345,4.2h0a3.864,3.864,0,0,0,5.424.687h0a3.865,3.865,0,0,0,.687-5.424h0a1.231,1.231,0,0,1,.218-1.726Z" transform="translate(-214.715 -765.707)" fill="#fff"/>
              <path id="Trazado_101054" data-name="Trazado 101054" d="M247.01,780.354a12.153,12.153,0,0,1,2.651,3.769l2.873-2.225a1.137,1.137,0,0,1,1.6.2h0a3.926,3.926,0,0,0,5.367.845,3.865,3.865,0,0,0,.8-5.509h0a3.865,3.865,0,0,0-3.984-1.382,3.865,3.865,0,0,0-5.769-4.89h0a3.866,3.866,0,0,0-.687,5.424h0a1.232,1.232,0,0,1-.218,1.728Z" transform="translate(-208.892 -770.123)" fill="#fff"/>
            </g>
            <path id="Trazado_101055" data-name="Trazado 101055" d="M246.4,778.49a13.779,13.779,0,0,0-15.147.561,11.858,11.858,0,0,0-3.841,15.294,6.631,6.631,0,0,1,.934,4.736,1.693,1.693,0,0,0,1.241,2.116,13.721,13.721,0,0,0,2.74.478c1.6.142,2.04.644,1.749,2.2-.039.2-.093.4-.151.6a1.488,1.488,0,0,0,1.061,2.023,11.714,11.714,0,0,0,7.846.281c2.279-.693,2.526-1.152,1.868-3.066a1.565,1.565,0,0,1-.047-.308c-.139-1.2.222-1.672,1.413-1.824.721-.091,1.458-.1,2.166-.244,1.8-.372,2.323-1.128,2.059-2.941a4.435,4.435,0,0,1,.366-3.219c1.275-2.007,1.6-4.254,1.636-7.725C252.447,784,250.326,780.661,246.4,778.49ZM235.8,797.1a20.757,20.757,0,0,1-2.493.661c-1.547-.067-2.534-.664-2.8-1.778a2.85,2.85,0,0,1,1.555-3.392,8.874,8.874,0,0,1,2.5-.628,2.32,2.32,0,0,1,2.871,1.762A2.593,2.593,0,0,1,235.8,797.1Zm4.665,4.8-2.024.019a1.141,1.141,0,0,1-1.049-1.614l1.2-2.646a.9.9,0,0,1,1.637-.015l1.252,2.623A1.141,1.141,0,0,1,240.468,801.9Zm7.647-6.034c-.266,1.1-1.256,1.7-3.177,1.678A14.481,14.481,0,0,1,243,797.1a2.642,2.642,0,0,1-1.835-3.449c.224-.94.783-1.667,1.739-1.667a11.494,11.494,0,0,1,3.54.473A2.774,2.774,0,0,1,248.115,795.868Z" transform="translate(-212.669 -769.016)" fill="#fff"/>
          </g>
          <ellipse id="Elipse_4025" data-name="Elipse 4025" cx="50.759" cy="11.2" rx="50.759" ry="11.2" fill="url(#linear-gradient-4)"/>
          <ellipse id="Elipse_4026" data-name="Elipse 4026" cx="50.759" cy="11.2" rx="50.759" ry="11.2" transform="translate(0 142.532)" fill="url(#linear-gradient-4)"/>
        </g>
        <path id="Trazado_101056" data-name="Trazado 101056" d="M253.84,846.883c-4.085-18.992,7.737-25.443,1.669-43.371-10.067-29.741-45.213-36.04-44.325-61.005a53.067,53.067,0,0,1,5.173-20.8c-14.065,1.991-23.384,5.473-23.384,9.434v142.83h.018c.714,6.048,23.158,10.9,50.741,10.9a183.087,183.087,0,0,0,33.357-2.76C266.392,873.2,257.012,861.625,253.84,846.883Z" transform="translate(-192.021 -717.484)" opacity="0.4" fill="url(#linear-gradient-7)" style="mix-blend-mode: multiply;isolation: isolate"/>
        <g id="Grupo_56055" data-name="Grupo 56055" transform="translate(0 39.448)">
          <path id="Trazado_101057" data-name="Trazado 101057" d="M244.182,824.094A415.663,415.663,0,0,1,193,820.915a.953.953,0,0,1,.234-1.892,406.773,406.773,0,0,0,101.28,0,.953.953,0,1,1,.241,1.891A401.38,401.38,0,0,1,244.182,824.094Z" transform="translate(-192.167 -739.384)" fill="#f8b627"/>
          <path id="Trazado_101058" data-name="Trazado 101058" d="M244.182,751.55A415.888,415.888,0,0,0,193,754.728a.953.953,0,0,0,.234,1.892,406.828,406.828,0,0,1,101.28,0,.953.953,0,1,0,.241-1.891A401.163,401.163,0,0,0,244.182,751.55Z" transform="translate(-192.167 -751.55)" fill="#f8b627"/>
        </g>
      </g>
      <g id="Grupo_56061" data-name="Grupo 56061" transform="translate(0 39.534)">
        <ellipse id="Elipse_4027" data-name="Elipse 4027" cx="40.67" cy="9.317" rx="40.67" ry="9.317" transform="translate(0.049)" fill="url(#linear-gradient-3)"/>
        <ellipse id="Elipse_4028" data-name="Elipse 4028" cx="40.67" cy="9.317" rx="40.67" ry="9.317" transform="translate(0.049 114.607)" fill="#f8b627"/>
        <g id="Grupo_56057" data-name="Grupo 56057" transform="translate(0.751 1.934)">
          <rect id="Rect치ngulo_5368" data-name="Rect치ngulo 5368" width="79.936" height="112.467" transform="translate(0 8.819)" fill="url(#linear-gradient-4)"/>
          <ellipse id="Elipse_4029" data-name="Elipse 4029" cx="39.968" cy="8.819" rx="39.968" ry="8.819" fill="url(#linear-gradient-4)"/>
          <ellipse id="Elipse_4030" data-name="Elipse 4030" cx="39.968" cy="8.819" rx="39.968" ry="8.819" transform="translate(0 112.233)" fill="url(#linear-gradient-4)"/>
        </g>
        <g id="Grupo_56059" data-name="Grupo 56059" transform="translate(19.408 43.52)">
          <g id="Grupo_56058" data-name="Grupo 56058">
            <path id="Trazado_101059" data-name="Trazado 101059" d="M196.732,812.861a3.455,3.455,0,0,0-4.586.779h0a1,1,0,0,1-1.409.158l-3.357-2.681a3.327,3.327,0,0,1-2.43,3.245l3.2,2.552a1.083,1.083,0,0,1,.17,1.523h0a3.4,3.4,0,0,0,.537,4.78h0a3.4,3.4,0,0,0,4.78-.536h0a3.4,3.4,0,0,0,.356-3.694,3.4,3.4,0,0,0,3.523-1.166h0A3.4,3.4,0,0,0,196.732,812.861Z" transform="translate(-152.455 -784.414)" fill="#fff"/>
            <path id="Trazado_101060" data-name="Trazado 101060" d="M159.069,799.594a3.455,3.455,0,0,0,4.586-.779h0a1,1,0,0,1,1.409-.158l3.277,2.616a11.983,11.983,0,0,1,2.156-3.462l-2.842-2.269a1.085,1.085,0,0,1-.171-1.524h0a3.4,3.4,0,0,0-5.317-4.244h0a3.4,3.4,0,0,0-.356,3.694,3.4,3.4,0,0,0-3.523,1.166h0A3.4,3.4,0,0,0,159.069,799.594Z" transform="translate(-157.397 -788.494)" fill="#fff"/>
            <path id="Trazado_101061" data-name="Trazado 101061" d="M170.975,814.231a3.246,3.246,0,0,1-1.494-3.571,2.7,2.7,0,0,0,.064-.448l-4.579,3.55a1,1,0,0,1-1.407-.178l-.048-.062a3.4,3.4,0,0,0-4.773-.606h0a3.4,3.4,0,0,0-.6,4.773h0a3.4,3.4,0,0,0,3.506,1.216,3.4,3.4,0,0,0,.3,3.7h0a3.4,3.4,0,0,0,4.772.6h0a3.4,3.4,0,0,0,.6-4.772h0a1.083,1.083,0,0,1,.192-1.519Z" transform="translate(-157.42 -784.578)" fill="#fff"/>
            <path id="Trazado_101062" data-name="Trazado 101062" d="M185.838,797.466a10.732,10.732,0,0,1,2.332,3.317l2.527-1.958A1,1,0,0,1,192.1,799h0a3.455,3.455,0,0,0,4.723.744,3.4,3.4,0,0,0,.7-4.848h0a3.4,3.4,0,0,0-3.506-1.216,3.4,3.4,0,0,0-5.077-4.3h0a3.4,3.4,0,0,0-.6,4.772h0a1.085,1.085,0,0,1-.192,1.521Z" transform="translate(-152.295 -788.463)" fill="#fff"/>
          </g>
          <path id="Trazado_101063" data-name="Trazado 101063" d="M185.3,795.826a12.123,12.123,0,0,0-13.328.495,10.433,10.433,0,0,0-3.379,13.457,5.834,5.834,0,0,1,.822,4.167,1.489,1.489,0,0,0,1.091,1.861,12.042,12.042,0,0,0,2.411.421c1.412.125,1.794.568,1.539,1.938-.033.18-.083.357-.133.532a1.309,1.309,0,0,0,.934,1.78,10.3,10.3,0,0,0,6.9.247c2.007-.609,2.223-1.014,1.644-2.7a1.367,1.367,0,0,1-.04-.271c-.124-1.053.195-1.471,1.243-1.6.634-.08,1.282-.086,1.905-.215,1.585-.327,2.044-.994,1.812-2.588a3.907,3.907,0,0,1,.322-2.833c1.121-1.765,1.4-3.743,1.439-6.8C190.622,800.673,188.755,797.735,185.3,795.826Zm-9.325,16.379a18.346,18.346,0,0,1-2.193.582c-1.361-.06-2.23-.585-2.462-1.564a2.508,2.508,0,0,1,1.369-2.985,7.778,7.778,0,0,1,2.2-.554,2.044,2.044,0,0,1,2.526,1.552A2.281,2.281,0,0,1,175.976,812.205Zm4.105,4.222-1.781.017a1,1,0,0,1-.924-1.42l1.059-2.328a.8.8,0,0,1,1.441-.014l1.1,2.308A1,1,0,0,1,180.081,816.427Zm6.729-5.309c-.234.97-1.1,1.5-2.8,1.477a12.805,12.805,0,0,1-1.7-.393,2.325,2.325,0,0,1-1.615-3.036c.2-.826.688-1.466,1.53-1.466a10.114,10.114,0,0,1,3.115.417A2.44,2.44,0,0,1,186.81,811.118Z" transform="translate(-155.619 -787.489)" fill="#fff"/>
        </g>
        <path id="Trazado_101064" data-name="Trazado 101064" d="M189.54,853.006c-3.216-14.954,6.092-20.034,1.314-34.151-7.926-23.419-35.6-28.38-34.9-48.037a41.791,41.791,0,0,1,4.073-16.377c-11.075,1.569-18.413,4.309-18.413,7.428V874.336h.014c.563,4.763,18.235,8.586,39.954,8.586a144.2,144.2,0,0,0,26.266-2.173C199.423,873.733,192.038,864.615,189.54,853.006Z" transform="translate(-140.863 -751.115)" opacity="0.4" fill="url(#linear-gradient-7)" style="mix-blend-mode: multiply;isolation: isolate"/>
        <g id="Grupo_56060" data-name="Grupo 56060" transform="translate(0 31.061)">
          <path id="Trazado_101065" data-name="Trazado 101065" d="M181.936,835.062a327.594,327.594,0,0,1-40.3-2.5.751.751,0,1,1,.185-1.49,320.367,320.367,0,0,0,79.749,0,.751.751,0,0,1,.189,1.49A316.137,316.137,0,0,1,181.936,835.062Z" transform="translate(-140.977 -768.359)" fill="#f8b627"/>
          <path id="Trazado_101066" data-name="Trazado 101066" d="M181.936,777.939a327.368,327.368,0,0,0-40.3,2.5.751.751,0,1,0,.185,1.49,320.311,320.311,0,0,1,79.749,0,.751.751,0,1,0,.189-1.49A315.92,315.92,0,0,0,181.936,777.939Z" transform="translate(-140.977 -777.939)" fill="#f8b627"/>
        </g>
      </g>
    </g>
    <g id="Grupo_56065" data-name="Grupo 56065" transform="translate(47.38 622.881)">
      <g id="Grupo_56063" data-name="Grupo 56063">
        <path id="Trazado_101067" data-name="Trazado 101067" d="M44.474,627.3v48.868A12.949,12.949,0,0,0,57.71,688.912l27.21-.11,3.594-.013,12.7,15.559c.963.75,3.27.783,4.045-.155l1.884-2.488,9.852-13.032.91-.007,24.883-.1a10.518,10.518,0,0,0,6.884-2.6,11.648,11.648,0,0,0,4-9.046V632.594c0-6.41-4.83-11.9-11.047-12.271l-5.277-.316L57.57,615.284a12.8,12.8,0,0,0-5.5.866A11.792,11.792,0,0,0,44.474,627.3Z" transform="translate(-44.474 -614.056)" fill="url(#linear-gradient-13)"/>
        <path id="Trazado_101068" data-name="Trazado 101068" d="M46.116,626.219v48.732c0,7.05,6.1,12.749,13.385,12.729l25.735-.051,5.065-.013,12.634,14.836a2.237,2.237,0,0,0,3.439-.013l.463-.55L117.6,688.85l1.073-1.3,25.659-.058a10.468,10.468,0,0,0,5.107-1.344,11.556,11.556,0,0,0,5.871-10.261V631.679c0-6.4-4.875-11.882-11.066-12.258l-6.055-.368L59.6,614.266a13.243,13.243,0,0,0-8.05,2.068A11.846,11.846,0,0,0,46.116,626.219Z" transform="translate(-44.178 -614.24)" fill="url(#linear-gradient-14)"/>
      </g>
      <g id="Grupo_56064" data-name="Grupo 56064" transform="translate(54.754 11.681)">
        <path id="Trazado_101069" data-name="Trazado 101069" d="M99.3,659.749l-4.409-.1a2.442,2.442,0,0,1-2.31-2.317l-1.614-31.055a2.016,2.016,0,0,1,.636-1.6,2.119,2.119,0,0,1,1.683-.528l7.592.529a2.329,2.329,0,0,1,1.643.735,2.356,2.356,0,0,1,.617,1.694l-1.571,30.489A2.245,2.245,0,0,1,99.3,659.749Z" transform="translate(-90.844 -624.137)" fill="#fff"/>
        <path id="Trazado_101070" data-name="Trazado 101070" d="M92.519,660.969a6.3,6.3,0,0,1,4.641-1.527,6.554,6.554,0,0,1,4.674,1.621,6.143,6.143,0,0,1,1.592,4.581,6.011,6.011,0,0,1-1.628,4.5,6.349,6.349,0,0,1-4.639,1.6,6.272,6.272,0,0,1-4.622-1.656,6.124,6.124,0,0,1-1.675-4.547A6.03,6.03,0,0,1,92.519,660.969Z" transform="translate(-90.863 -617.77)" fill="#fff"/>
      </g>
      <path id="Trazado_101071" data-name="Trazado 101071" d="M78.7,688.25l3.619-.013L95.027,703.8c.963.749,3.277.783,4.052-.155l1.886-2.488,10.765-13.039,24.884-.1a10.71,10.71,0,0,0,6.956-2.6,11.557,11.557,0,0,0,5.87-10.261V630.944c0-6.4-4.875-11.882-11.066-12.258l-6.055-.368c-.381.362-.728.737-1.084,1.138-4.058,4.465-6.923,11.049-6.4,20.754,1.544,28.864-17.634,33.534-34.964,38.95-5.371,1.68-8.579,4.562-10.452,7.735C79.155,687.339,78.919,687.792,78.7,688.25Z" transform="translate(-38.302 -613.505)" opacity="0.3" fill="url(#linear-gradient-15)" style="mix-blend-mode: multiply;isolation: isolate"/>
    </g>
  </g>
</svg>
