<svg xmlns="http://www.w3.org/2000/svg" xmlns:xlink="http://www.w3.org/1999/xlink" width="297.719" height="304.695" viewBox="0 0 297.719 304.695">
  <defs>
    <clipPath id="clip-path">
      <path id="Trazado_101182" data-name="Trazado 101182" d="M517.916,740.145c7-8.628,15.915-22.3,18.345-40.254,3.186-23.539-7.588-33.743-11.795-72.284-2.66-24.369-4.27-41.4,6.733-52.135,8.622-8.409,23.959-11.942,34.282-6.649,8.584,4.4,14.707,15.42,17.225,23.537,2.052,6.616,1.818,11.656,6.208,14.689,4.486,3.1,8.509.448,12.607,2.638,8.311,4.442,6.409,23.174,6.1,26.2-3.42,33.677-30.456,59.767-42.386,71.006A205.039,205.039,0,0,1,517.916,740.145Z" fill="none"/>
    </clipPath>
    <clipPath id="clip-path-2">
      <path id="Trazado_101187" data-name="Trazado 101187" d="M535.172,730.112c12.5,5.653,29.229,11.071,47.612,10.946,4.691-.032,33.673-.229,35.7-12.486.716-4.318-2.517-6.486-1.661-12.275,1.015-6.861,6.2-8.208,12.24-14.638,3.6-3.836,14.144-15.064,9.451-25.958-2.8-6.51-10.923-12.606-18.52-14.056-11.142-2.127-18.977,6.158-31.991,20.406-11.538,12.63-11.882,16.835-20.349,25.784C561.375,714.478,551.314,723,535.172,730.112Z" fill="none"/>
    </clipPath>
    <linearGradient id="linear-gradient" x1="0.5" y1="1.055" x2="0.5" y2="-0.038" gradientUnits="objectBoundingBox">
      <stop offset="0" stop-color="#e6e6e6"/>
      <stop offset="0.42" stop-color="#fff"/>
    </linearGradient>
    <linearGradient id="linear-gradient-2" x1="0.5" y1="0.937" x2="0.5" y2="-0.506" gradientUnits="objectBoundingBox">
      <stop offset="0" stop-color="#231f20"/>
      <stop offset="0.903" stop-color="#505052"/>
    </linearGradient>
    <linearGradient id="linear-gradient-3" x1="0.5" y1="0.877" x2="0.5" y2="0.05" xlink:href="#linear-gradient-2"/>
  </defs>
  <g id="Grupo_56129" data-name="Grupo 56129" transform="translate(-341.982 -566.323)">
    <g id="Grupo_56118" data-name="Grupo 56118">
      <path id="Trazado_101176" data-name="Trazado 101176" d="M549.674,613.016c9.378,13.128-1.229,34.684,12.584,44.487,13.446,9.542,29.672-6.5,42.335,1.7,18.786,12.167,15.975,68.778-10.931,104.215-8.092,10.658-14.9,14.843-17.812,26.83-6.248,25.74,16.821,40.77,12.6,53.512-9.515,28.691-160.223,54.268-221.7-31.011-28.712-39.829-33.554-97.727-8.742-142C402.841,590.746,528.632,583.558,549.674,613.016Z" fill="#9de0d3"/>
      <g id="Grupo_56112" data-name="Grupo 56112">
        <path id="Trazado_101177" data-name="Trazado 101177" d="M517.916,740.145c7-8.628,15.915-22.3,18.345-40.254,3.186-23.539-7.588-33.743-11.795-72.284-2.66-24.369-4.27-41.4,6.733-52.135,8.622-8.409,23.959-11.942,34.282-6.649,8.584,4.4,14.707,15.42,17.225,23.537,2.052,6.616,1.818,11.656,6.208,14.689,4.486,3.1,8.509.448,12.607,2.638,8.311,4.442,6.409,23.174,6.1,26.2-3.42,33.677-30.456,59.767-42.386,71.006A205.039,205.039,0,0,1,517.916,740.145Z" fill="#a5e3ff"/>
        <g id="Grupo_56111" data-name="Grupo 56111">
          <g id="Grupo_56110" data-name="Grupo 56110" clip-path="url(#clip-path)">
            <g id="Grupo_56109" data-name="Grupo 56109">
              <g id="Grupo_56108" data-name="Grupo 56108">
                <path id="Trazado_101178" data-name="Trazado 101178" d="M509.607,747.494l-.4-.738c13.206-7.2,24.328-15.143,33.056-23.621,12.864-12.495,20.117-25.8,21.557-39.55,1.128-10.77-1.253-21.451-4.549-36.234a204.513,204.513,0,0,0-8.146-27.1c-3.381-9.382-6.053-16.792-6.431-28.026a85.069,85.069,0,0,1,6.478-34.718l.78.314a84.236,84.236,0,0,0-6.418,34.376c.374,11.1,3.025,18.457,6.382,27.769a205.189,205.189,0,0,1,8.175,27.205c1.636,7.337,3.049,13.673,3.927,19.607a66.517,66.517,0,0,1,.638,16.9c-1.461,13.949-8.8,27.429-21.807,40.065C534.065,732.269,522.881,740.262,509.607,747.494Z" fill="#69d1ff"/>
                <path id="Trazado_101179" data-name="Trazado 101179" d="M557.86,639.065l-.457-.129a57.6,57.6,0,0,1-17.6-9.565c-8.374-6.553-19.027-18.533-22.219-38.388l.83-.133c3.146,19.57,13.635,31.378,21.879,37.837a58.184,58.184,0,0,0,16.889,9.3c3.588-22.473,13.331-37.594,20.9-46.341,8.27-9.556,15.822-13.792,15.9-13.834l.407.736c-.075.041-7.521,4.223-15.7,13.678-7.542,8.723-17.264,23.849-20.755,46.372Z" fill="#69d1ff"/>
                <path id="Trazado_101180" data-name="Trazado 101180" d="M563.984,671.162l-.205-.227a166.317,166.317,0,0,0-20.986-19.018c-11.4-8.489-35.426-8.7-35.667-8.7l0-.841c.244,0,24.546.216,36.166,8.87a167.292,167.292,0,0,1,20.9,18.9c12.283-5.718,23.083-25.112,30-40.436a291.741,291.741,0,0,0,12.3-32.592l.806.239a292.684,292.684,0,0,1-12.336,32.69c-10.225,22.654-20.555,36.446-30.7,40.992Z" fill="#69d1ff"/>
                <path id="Trazado_101181" data-name="Trazado 101181" d="M546.116,720.337l.316-.775a28.658,28.658,0,0,0,1.232-19.235,37.386,37.386,0,0,0-8.631-14.6A64.372,64.372,0,0,0,522.822,673.2l.379-.75a65.236,65.236,0,0,1,16.437,12.7c9.614,10.505,12.33,22.224,7.883,33.941a151.779,151.779,0,0,0,25.593-10.348c13.54-6.9,32.547-19.086,46.21-37.942l26.554-36.646.681.493-26.554,36.646c-13.766,19-32.9,31.264-46.529,38.208a147.437,147.437,0,0,1-26.549,10.627Z" fill="#69d1ff"/>
              </g>
            </g>
          </g>
        </g>
      </g>
      <g id="Grupo_56117" data-name="Grupo 56117">
        <path id="Trazado_101183" data-name="Trazado 101183" d="M535.172,730.112c12.5,5.653,29.229,11.071,47.612,10.946,4.691-.032,33.673-.229,35.7-12.486.716-4.318-2.517-6.486-1.661-12.275,1.015-6.861,6.2-8.208,12.24-14.638,3.6-3.836,14.144-15.064,9.451-25.958-2.8-6.51-10.923-12.606-18.52-14.056-11.142-2.127-18.977,6.158-31.991,20.406-11.538,12.63-11.882,16.835-20.349,25.784C561.375,714.478,551.314,723,535.172,730.112Z" fill="#87daff"/>
        <g id="Grupo_56116" data-name="Grupo 56116">
          <g id="Grupo_56115" data-name="Grupo 56115" clip-path="url(#clip-path-2)">
            <g id="Grupo_56114" data-name="Grupo 56114">
              <g id="Grupo_56113" data-name="Grupo 56113">
                <path id="Trazado_101184" data-name="Trazado 101184" d="M517.138,728.461c-13.3-2.808-25.894-8.951-37.473-18.28l.566-.7c12.081,9.733,25.275,15.965,39.213,18.518,18.567,3.4,37.578-.184,56.505-10.66,19.724-10.917,34.415-26.579,43.265-37.795,6.115-7.748,9.983-17.62,11.5-29.342l.9.116c-1.535,11.886-5.466,21.907-11.683,29.785-8.9,11.281-23.682,27.036-43.537,38.026-19.114,10.579-38.327,14.2-57.1,10.758Q518.207,728.688,517.138,728.461Z" fill="#69d1ff"/>
                <path id="Trazado_101185" data-name="Trazado 101185" d="M599.51,701.3l-.1-.392a56.535,56.535,0,0,1-1.463-14.008c.121-7.377,1.764-18.041,8.909-26.952l.7.564c-12.412,15.482-8.106,36.628-7.375,39.768,34.045-5.505,42.506-25.266,44.292-31.211a3.075,3.075,0,0,1,.1-.317l.821.374-.41-.187.416.175c-.013.035-.034.107-.066.214-1.832,6.1-10.521,26.415-45.426,31.909Z" fill="#69d1ff"/>
                <path id="Trazado_101186" data-name="Trazado 101186" d="M597.955,727.131a66.344,66.344,0,0,1-21.7-9.2l-.2-.129-.005-.242a87.177,87.177,0,0,1,10.544-39.047l10.95-20.384.8.428-10.95,20.383A86.924,86.924,0,0,0,576.946,717.3c8.387,5.269,21.169,11.182,34.819,9.783,8.2-.84,12.852-3.956,12.9-3.987l.508.745c-.2.134-4.894,3.277-13.315,4.14A45,45,0,0,1,597.955,727.131Z" fill="#69d1ff"/>
              </g>
            </g>
          </g>
        </g>
      </g>
      <path id="Trazado_101188" data-name="Trazado 101188" d="M483.26,629.2a49.658,49.658,0,0,0-16.832-5.953,34.467,34.467,0,0,0-6.549-.3c-7.02.452-11.429,3.445-24.189,4.04-19.863.927-24-5.632-34.147-3.688-25.84,4.948-45.286,56.332-32.711,69.015,11.7,11.8,43.519-17.607,74.216-1.11,7.718,4.147,16.585,11.853,22.191,8.524,3.9-2.315,2.62-7.828,7.955-19.322,3.541-7.627,5.895-12.7,9.731-13.286,7.33-1.125,17.266,14.547,20.649,29.021.592,2.533.682,3.738,1.688,19.815.6,9.618.285,27.793,2.286,28.028,1.508.177,4.209-9.768,5.782-18.5,2.484-13.789,6.551-36.363-3.578-61.647C502.724,646.29,491.483,633.991,483.26,629.2Z" fill="#c3edff"/>
    </g>
    <g id="Grupo_56120" data-name="Grupo 56120">
      <g id="Grupo_56119" data-name="Grupo 56119">
        <path id="Trazado_101189" data-name="Trazado 101189" d="M448.155,640.662a4.74,4.74,0,0,1,.359-1.857,4.339,4.339,0,0,1,1.014-1.477,4.646,4.646,0,0,1,1.575-.974,5.8,5.8,0,0,1,2.074-.35,5.938,5.938,0,0,1,2.09.35,4.627,4.627,0,0,1,1.59.974,4.339,4.339,0,0,1,1.014,1.477,4.74,4.74,0,0,1,.359,1.857,4.626,4.626,0,0,1-.359,1.841,4.367,4.367,0,0,1-1.014,1.462,4.613,4.613,0,0,1-1.59.974,5.939,5.939,0,0,1-2.09.35,5.8,5.8,0,0,1-2.074-.35,4.631,4.631,0,0,1-1.575-.974,4.367,4.367,0,0,1-1.014-1.462A4.625,4.625,0,0,1,448.155,640.662ZM456.92,632h-7.486l-1.06-25.578h9.606Z" fill="#098970"/>
      </g>
    </g>
    <rect id="Rectángulo_5385" data-name="Rectángulo 5385" width="190.043" height="3.147" rx="0.575" transform="translate(406.87 844.543)" fill="#03a4c9"/>
    <g id="Grupo_56122" data-name="Grupo 56122">
      <g id="Grupo_56121" data-name="Grupo 56121">
        <path id="Trazado_101190" data-name="Trazado 101190" d="M375.593,712.475a6.17,6.17,0,0,1,.467-2.42,5.651,5.651,0,0,1,1.321-1.924,6.074,6.074,0,0,1,2.052-1.269,7.554,7.554,0,0,1,2.7-.456,7.723,7.723,0,0,1,2.723.456,6.035,6.035,0,0,1,2.073,1.269,5.649,5.649,0,0,1,1.32,1.924,6.171,6.171,0,0,1,.468,2.42,6.022,6.022,0,0,1-.468,2.4,5.677,5.677,0,0,1-1.32,1.9,6.005,6.005,0,0,1-2.073,1.27,7.745,7.745,0,0,1-2.723.456,7.575,7.575,0,0,1-2.7-.456,6.044,6.044,0,0,1-2.052-1.27,5.679,5.679,0,0,1-1.321-1.9A6.021,6.021,0,0,1,375.593,712.475Zm11.419-11.288h-9.753l-1.382-33.325h12.517Z" fill="#35697c"/>
      </g>
    </g>
    <g id="Grupo_56125" data-name="Grupo 56125">
      <g id="Grupo_56123" data-name="Grupo 56123">
        <rect id="Rectángulo_5386" data-name="Rectángulo 5386" width="145.994" height="145.994" rx="11.245" transform="translate(398.658 728.132) rotate(-45)" fill="#d61b22"/>
        <rect id="Rectángulo_5387" data-name="Rectángulo 5387" width="124.308" height="124.308" rx="10.497" transform="translate(413.992 728.132) rotate(-45)" fill="url(#linear-gradient)"/>
      </g>
      <g id="Grupo_56124" data-name="Grupo 56124">
        <circle id="Elipse_4032" data-name="Elipse 4032" cx="12.968" cy="12.968" r="12.968" transform="translate(488.935 753.291)" fill="url(#linear-gradient-2)"/>
        <path id="Trazado_101191" data-name="Trazado 101191" d="M518.8,690.027h0a17.166,17.166,0,1,0-34.074-2.965c0,2.571,11.927,54.368,11.927,54.368h.164a5.556,5.556,0,0,0,10.8,0h.006l.029-.134c.008-.036.016-.072.023-.108Z" fill="url(#linear-gradient-3)"/>
      </g>
    </g>
    <path id="Trazado_101192" data-name="Trazado 101192" d="M419.826,740.587c-.5-.956,10.816-4.4,11,5.038,0,0,21.191-.521,11.072-12.333-3.5-4.089-3.142-7.47-3.037-10.617s-2.182-12.295-10.026-11.373a5.838,5.838,0,0,0-4.617.494C418.384,714.82,405.325,744.067,419.826,740.587Z" fill="#0b3563"/>
    <path id="Trazado_101193" data-name="Trazado 101193" d="M454.47,749.249s1.38-2.1,2.491-2.141,3.171-.617,3.006-.206-1.441.453-1.564.7,1.894.618,2.47.659,1.935,0,1.894.288-2.449,1.483-4.148,1.318a11.516,11.516,0,0,0-3.8.494Z" fill="#ffae73"/>
    <path id="Trazado_101194" data-name="Trazado 101194" d="M434.522,749.929a20.654,20.654,0,0,0,2.109,3.19c1.64,2.053,4.167,4.425,7.34,4.893a7.882,7.882,0,0,0,4.36-.708h.005a19.888,19.888,0,0,0,6.752-5.645,3.169,3.169,0,0,0-.432-3.109s-7.782,1.75-8.523,1.38-5.3-10.48-6.119-12.163a9.225,9.225,0,0,0-4.513-4.6Z" fill="#bdf1ff"/>
    <path id="Trazado_101195" data-name="Trazado 101195" d="M436.631,753.119c1.64,2.053,4.167,4.425,7.34,4.893a7.882,7.882,0,0,0,4.36-.708c-.15.02-4,.495-5.533-2.249-1.565-2.8-3.258-7.247-5.582-5.765C436.213,749.93,436.257,751.52,436.631,753.119Z" fill="#8eb5bf"/>
    <path id="Trazado_101196" data-name="Trazado 101196" d="M405.489,833.93s-2.375,2.167-1.911,3.707,2.606,2.566,2.895,4.448,1.448,2.908,2.491,2.908h4.97s.767-1.324-1.086-1.723-2.552-2.611-2.436-4.664a36.124,36.124,0,0,0-.174-4.79L406.3,832.9Z" fill="#173359"/>
    <path id="Trazado_101197" data-name="Trazado 101197" d="M425.587,834.85s-.854,9.18.188,9.693l13.342-.027s0-1.54-2.143-1.882-5.908-1.6-6.545-4.391S425.587,834.85,425.587,834.85Z" fill="#173359"/>
    <path id="Trazado_101198" data-name="Trazado 101198" d="M415.324,743.737a53.073,53.073,0,0,0,0,6.166c.132,2.23,2.388,5.216,2.707,5.955.8,1.852,1.709,2.154,1.709,2.154l7.005,1.717,2.463.6,7.767-2.32s3.538-9.874,2.117-15.433a42.748,42.748,0,0,0-3.591-9.418s-5.265-2.079-14.59-.527Z" fill="#bdf1ff"/>
    <path id="Trazado_101199" data-name="Trazado 101199" d="M417.374,750.813a21.91,21.91,0,0,0,.657,5.045c.8,1.852,1.709,2.154,1.709,2.154l7.005,1.717,3.042-.9s-10.156-1.539-9.031-10.276Z" fill="#f8caa4"/>
    <path id="Trazado_101200" data-name="Trazado 101200" d="M436.481,759.511s3.846,11.972,4.093,16.048-7.352,57.907-7.658,59.785c-.288,1.77-2.487,2.9-2.487,2.9a3.329,3.329,0,0,1-2.454.189,6.067,6.067,0,0,1-2.635-1.242s-2.994-38.392-1.141-52.106a217.053,217.053,0,0,0,1.874-25.573Z" fill="#076754"/>
    <path id="Trazado_101201" data-name="Trazado 101201" d="M420.184,759.154s-5.867,7.872-6.414,13.194-.858,24.014-2.023,29.2S406.3,816.722,406.3,832.9a3.227,3.227,0,0,0,1.819,1.422,14.937,14.937,0,0,0,1.6.442,2.515,2.515,0,0,0,2.813-1.335c2.894-5.828,12.115-24.625,12.588-28.527.334-2.762,3.246-21.037,9.6-31.761,1.525-2.574-.935-12.812-.935-12.812Z" fill="#098970"/>
    <path id="Trazado_101202" data-name="Trazado 101202" d="M437.1,757.662a8.06,8.06,0,0,1-4.611,1.284c-3.664.073-12.744-.934-12.744-.934a7.522,7.522,0,0,0-.387,2.317s11.089,2.8,17.514.408A4.058,4.058,0,0,0,437.1,757.662Z" fill="#1e3865"/>
    <g id="Grupo_56126" data-name="Grupo 56126">
      <path id="Trazado_101203" data-name="Trazado 101203" d="M431.691,760.211a1.685,1.685,0,1,1,1.672,1.892A1.794,1.794,0,0,1,431.691,760.211Zm.554,0a1.136,1.136,0,1,0,1.118-1.338A1.244,1.244,0,0,0,432.245,760.211Z" fill="#fff"/>
    </g>
    <rect id="Rectángulo_5388" data-name="Rectángulo 5388" width="20.62" height="15.064" rx="1.562" transform="translate(407.803 759.828) rotate(-48.952)" fill="#ff7b35"/>
    <path id="Trazado_101204" data-name="Trazado 101204" d="M422.3,759.865c.127.033,4.783.581,4.783,1.542a2.892,2.892,0,0,1-2.65,2.532c-.521-.028-2.923-2.236-2.923-2.236Z" fill="#ffae73"/>
    <path id="Trazado_101205" data-name="Trazado 101205" d="M424.693,732.125a15.479,15.479,0,0,0,.83-5.662l.352.069,5.913,1.171s-.135,1.861-.138,3.614v.043c-.007,1.523,1.029,3.051-1.413,3.655C429.481,735.2,423.581,734.823,424.693,732.125Z" fill="#ffae73"/>
    <path id="Trazado_101206" data-name="Trazado 101206" d="M431.788,727.7s-.135,1.861-.138,3.614c-3.309-.093-5.059-3.112-5.775-4.785Z" fill="#f48f4e"/>
    <path id="Trazado_101207" data-name="Trazado 101207" d="M432.893,729.363s-7.829.129-7.834-4.748-1.02-8.144,3.979-8.433,5.971,1.571,6.369,3.2S434.929,729.2,432.893,729.363Z" fill="#ffae73"/>
    <path id="Trazado_101208" data-name="Trazado 101208" d="M432.6,716.063s-2.143,5.721-5.433,6.567-4.717-.036-4.717-.036a9.31,9.31,0,0,0,3.047-5.5S430.986,713.339,432.6,716.063Z" fill="#0b3563"/>
    <path id="Trazado_101209" data-name="Trazado 101209" d="M432.072,716.527a4.853,4.853,0,0,1,2.244,1.754,7.875,7.875,0,0,1,1.058,4.477s1.615-3.889-.2-6.089C433.25,714.336,432.072,716.527,432.072,716.527Z" fill="#0b3563"/>
    <path id="Trazado_101210" data-name="Trazado 101210" d="M422.3,759.865a5.319,5.319,0,0,1,1.861-.255c.745.105,1.3-.014,1.3.194s-.963.307-1.167.407A10.166,10.166,0,0,1,422.3,759.865Z" fill="#ffae73"/>
    <path id="Trazado_101211" data-name="Trazado 101211" d="M420.911,732.634s-5.558.39-7.688,5.569-6.172,13.873-6.172,15.336,2.258,5.972,14.383,8.564c0,0,1.254-1.319,1.178-2.362,0,0-7.569-6.5-7.548-7.262.038-1.437,1.241-3.334,7.886-9.982C424.757,740.69,420.911,732.634,420.911,732.634Z" fill="#bdf1ff"/>
    <g id="Grupo_56128" data-name="Grupo 56128">
      <path id="Trazado_101212" data-name="Trazado 101212" d="M560.663,844.446h13.9c1-.675-.268-7.279-.268-7.279s-3.794-1.439-4.449,1.488-4.833,3.856-7.042,4.212A2.379,2.379,0,0,0,560.663,844.446Z" fill="#1d4071"/>
      <g id="Grupo_56127" data-name="Grupo 56127">
        <path id="Trazado_101213" data-name="Trazado 101213" d="M570.8,748.968a50.445,50.445,0,0,1-5.511,8.218h0c-2.092,2.5-4.234,4.4-6.041,5.039l-.014.005c-.094.032-.187.063-.28.088a.024.024,0,0,1-.014,0v0a3.3,3.3,0,0,1-1.05.135c-5.931-.267-12.182-12.989-12.182-12.989a4.519,4.519,0,0,1,1.316-2.574,5.325,5.325,0,0,1,1.781-1.172s6.387,6.559,7.948,7.032c.982.3,2.272-4.285,4.121-10.038s8.346-7.171,8.346-7.171S575.8,739.708,570.8,748.968Z" fill="#bdf1ff"/>
        <path id="Trazado_101214" data-name="Trazado 101214" d="M565.293,757.186h0c-2.092,2.5-4.234,4.4-6.041,5.039l-.014.005-.28.088-.015.005v0a4.591,4.591,0,0,0,2.3-2.908c.31-1.9-1.7-3.459,3.355-6.4C567.55,751.3,565.293,757.186,565.293,757.186Z" fill="#8eb5bf"/>
        <path id="Trazado_101215" data-name="Trazado 101215" d="M581.86,776s-.438,8.109-.986,17.506c-.4,6.737-.844,14.138-1.229,19.68-.052.735-.1,1.438-.151,2.1q-.021.309-.045.615a123.512,123.512,0,0,1-4.323,23.314c-3.908.824-5.674-.683-5.674-.683s-2.693-31.559-3.69-44.288c-.734-9.37-1.359-23.012-1.359-23.012Z" fill="#468ca5"/>
        <path id="Trazado_101216" data-name="Trazado 101216" d="M580.874,793.506c-.4,6.737-.844,14.138-1.229,19.68-2.556-6.027-7.775-29.518-7.775-29.518Z" fill="#234653"/>
        <path id="Trazado_101217" data-name="Trazado 101217" d="M581.279,844.446h13.9c1-.675-.268-7.279-.268-7.279s-3.794-1.439-4.449,1.488-4.833,3.856-7.042,4.212A2.379,2.379,0,0,0,581.279,844.446Z" fill="#1d4071"/>
        <path id="Trazado_101218" data-name="Trazado 101218" d="M568.179,774.387s9.926,24.71,13.1,34.076c2.26,6.672,8.635,30.077,8.635,30.077a6.409,6.409,0,0,0,5.1-.787s2.372-23.913-2.419-30.655c-2.542-3.577-.632-37.186-10.937-37.474S568.179,774.387,568.179,774.387Z" fill="#468ca5"/>
        <path id="Trazado_101219" data-name="Trazado 101219" d="M588.505,766.44c-.042,3.513-.081,6.093-.071,6.745.028,2.126-1.332,2.606-2.733,2.93,0,0-1.295.278-2.929.556a32.353,32.353,0,0,1-4.891.523,44.124,44.124,0,0,1-12.8-2.108c-1.312,0-1.91-2.028-2.125-4.86-.145-1.917.446-21.035.521-25.809a12.455,12.455,0,0,1,2.455-7.05c4.867-4.3,19.23-3.762,21.814-.793.64.734.825,7.812.847,15.565C588.6,757.13,588.553,762.4,588.505,766.44Z" fill="#bdf1ff"/>
        <path id="Trazado_101220" data-name="Trazado 101220" d="M579.881,734.871c-1.833,1.986-7.991,1.692-7.809-.042.025-.214.065-1.484.085-1.68.016-.158.031-.313.044-.459q.063-.641.1-1.132c.082-.95.108-1.466.108-1.466h.006c.177-.05,4.136-1.174,6.106-1.64a3.183,3.183,0,0,1,1.092-.181C579.013,732.7,580.482,734.219,579.881,734.871Z" fill="#ffae73"/>
        <path id="Trazado_101221" data-name="Trazado 101221" d="M578.734,729.757s-1.654,1.681-6.429,1.8c.082-.95.108-1.466.108-1.466h.006c.177-.05,4.136-1.174,6.106-1.64C578.872,728.595,578.412,729.519,578.734,729.757Z" fill="#f9924f"/>
        <path id="Trazado_101222" data-name="Trazado 101222" d="M571.2,729.857a14.936,14.936,0,0,0,2.751.641c2.254.3,5.219.125,6.15-2.6,1.568-4.591,3.572-7.343-1.044-9.218-2.471-1-4.052-1.057-5.125-.673a3.7,3.7,0,0,0-1.9,1.644C571.139,721.053,569.335,729.053,571.2,729.857Z" fill="#ffae73"/>
        <path id="Trazado_101223" data-name="Trazado 101223" d="M572.382,716.095a2.177,2.177,0,0,0,.833,3.962,15.959,15.959,0,0,1,2.706.5c1.147.51,2.134,1.051,1.863,2.831-.092.606-.388,1.344,1.171.978a.76.76,0,0,1,.567.033c.646.384-.18,2.244-.429,2.646,0,0-.359,1.332.437,1.981.1.077,1.66.761,5.428-5.006a5.354,5.354,0,0,0,.243-4.908c-.913-1.964-3.462-4.447-8.262-4.447A9.154,9.154,0,0,0,572.382,716.095Z" fill="#1e3865"/>
        <path id="Trazado_101224" data-name="Trazado 101224" d="M588.505,766.44c-.7,3.259-.523,3.293-1.6,2.438-4.384-3.484-3.1-5.309-2.128-8.329s-2.445-7.742,0-9.755c2.391-1.968,3.753,1.2,3.812,1.345C588.6,757.13,588.553,762.4,588.505,766.44Z" fill="#8eb5bf"/>
        <path id="Trazado_101225" data-name="Trazado 101225" d="M588.4,766.021s-1.652,2.7-2.735,2.606-2.545-.5-3.389.306-2.205,2.883-1.824,3.436,1.908.063,3.006-.543,2.828.3,3.75-.389a32.285,32.285,0,0,0,3.128-3.421Z" fill="#ffae73"/>
        <path id="Trazado_101226" data-name="Trazado 101226" d="M587.743,736.574s13.714,12.9,11.933,21.487c-.812,3.911-3.33,7.211-10.04,12.553,0,0-3.174-2.193-3.871-3.974,0,0,6.091-8.579,5.855-10.039-.288-1.788-4.446-6.272-5.937-6.969S584.328,738.071,587.743,736.574Z" fill="#bdf1ff"/>
        <path id="Trazado_101227" data-name="Trazado 101227" d="M585.662,768.627s-1.445-.632-1.91-.9-.361.168-.219.387a1.6,1.6,0,0,0,1.1.761A1.81,1.81,0,0,0,585.662,768.627Z" fill="#ffae73"/>
        <path id="Trazado_101228" data-name="Trazado 101228" d="M548.579,748.542s-.194-3.663-1.566-4.533-3.544-3.111-3.639-2.47,1.484,1.631,1.458,2.033-2.843-.614-3.6-.986-2.441-1.423-2.6-1.03,2,3.671,4.261,4.713a16.816,16.816,0,0,1,4.427,3.417Z" fill="#ffae73"/>
      </g>
    </g>
  </g>
</svg>
