<svg xmlns="http://www.w3.org/2000/svg" xmlns:xlink="http://www.w3.org/1999/xlink" width="239.343" height="188.407" viewBox="0 0 239.343 188.407">
  <defs>
    <linearGradient id="linear-gradient" x1="0.5" y1="1" x2="0.5" gradientUnits="objectBoundingBox">
      <stop offset="0" stop-color="#e6e6e6"/>
      <stop offset="0.42" stop-color="#fff"/>
    </linearGradient>
  </defs>
  <g id="Grupo_57076" data-name="Grupo 57076" transform="translate(-1280.707 -9205.84)">
    <g id="Grupo_57037" data-name="Grupo 57037" transform="translate(1353.609 9205.84)">
      <path id="Trazado_102494" data-name="Trazado 102494" d="M1454.707,9246.911l-92.515.212.879-40.833H1453.6Z" transform="translate(-1361.778 -9205.886)" fill="#fff"/>
      <path id="Trazado_102495" data-name="Trazado 102495" d="M1361.732,9247.483l.9-41.644h91.317l1.13,41.43Zm1.688-40.834-.861,40.022,91.686-.21-1.086-39.812Z" transform="translate(-1361.732 -9205.84)"/>
    </g>
    <g id="Grupo_57038" data-name="Grupo 57038" transform="translate(1446.39 9236.37)">
      <path id="Trazado_102496" data-name="Trazado 102496" d="M1465.426,9250.638l22.579,71.536,50.012-12.45-28.7-69.427Z" transform="translate(-1464.91 -9239.825)" fill="#fff"/>
      <path id="Trazado_102497" data-name="Trazado 102497" d="M1487.677,9322.6l-22.825-72.313,44.651-10.518,29.009,70.176-.455.116Zm-21.792-71.725,22.334,70.757,49.188-12.244-28.389-68.674Z" transform="translate(-1464.852 -9239.772)"/>
    </g>
    <g id="Grupo_57039" data-name="Grupo 57039" transform="translate(1280.707 9236.37)">
      <path id="Trazado_102498" data-name="Trazado 102498" d="M1353.913,9250.638l-22.579,71.536-50.012-12.45,28.7-69.427Z" transform="translate(-1280.769 -9239.825)" fill="#fff"/>
      <path id="Trazado_102499" data-name="Trazado 102499" d="M1331.543,9322.6l-50.836-12.655,29.009-70.176,44.652,10.518Zm-49.73-13.212L1331,9321.636l22.334-70.757-43.133-10.161Z" transform="translate(-1280.707 -9239.772)"/>
    </g>
    <path id="Trazado_102500" data-name="Trazado 102500" d="M1454.051,9251.438l-92.686.321-5.714,18.371h104.607Z" transform="translate(-7.514 -4.572)" fill="#fff"/>
    <g id="Grupo_57044" data-name="Grupo 57044" transform="translate(1408.005 9248.438)">
      <g id="Grupo_57040" data-name="Grupo 57040" transform="translate(0 5.094)">
        <path id="Trazado_102501" data-name="Trazado 102501" d="M1451.736,9259.183l-24.175.471c-5.645,1.332-5.018,6.272-5.018,6.272v38s.341.678.544,1c1.5,2.4,8.3,4.214,16.47,4.214,7.615,0,14.044-1.576,16.1-3.736.444-.469,1.415-1.479,1.415-1.479v-38.472C1456.963,9262.006,1451.736,9259.183,1451.736,9259.183Z" transform="translate(-1422.224 -9258.88)" fill="#fff"/>
        <path id="Trazado_102502" data-name="Trazado 102502" d="M1439.524,9309.408c-8.243,0-15.121-1.789-16.725-4.352-.208-.334-.543-1-.558-1.027l-.031-.064v-38.072c0-.014-.591-5.186,5.249-6.564l.063-.008,24.255-.473.069.037c.22.121,5.381,2.947,5.49,6.527v38.6l-.084.088s-.97,1.01-1.415,1.479C1453.661,9307.869,1447.1,9309.408,1439.524,9309.408Zm-16.714-5.586c.088.174.341.662.5.912,1.476,2.361,8.3,4.074,16.215,4.074,7.311,0,13.84-1.5,15.877-3.643.366-.385,1.089-1.139,1.334-1.393v-38.352c-.092-3.021-4.5-5.627-5.108-5.971l-24.062.469c-5.287,1.268-4.782,5.744-4.758,5.936Z" transform="translate(-1422.191 -9258.848)"/>
      </g>
      <g id="Grupo_57041" data-name="Grupo 57041" transform="translate(4.173 5.215)">
        <ellipse id="Elipse_4133" data-name="Elipse 4133" cx="13.172" cy="5.214" rx="13.172" ry="5.214" transform="translate(0.301 0.3)" fill="#fff"/>
        <path id="Trazado_102503" data-name="Trazado 102503" d="M1440.3,9270.01c-7.555,0-13.474-2.422-13.474-5.515s5.919-5.515,13.474-5.515,13.473,2.422,13.473,5.515S1447.858,9270.01,1440.3,9270.01Zm0-10.428c-6.977,0-12.873,2.251-12.873,4.913s5.9,4.913,12.873,4.913,12.872-2.249,12.872-4.913S1447.28,9259.582,1440.3,9259.582Z" transform="translate(-1426.829 -9258.98)"/>
      </g>
      <path id="Trazado_102504" data-name="Trazado 102504" d="M1451.744,9264.818l-19.719.784-2.9-.784-1.961-.509.3-4.106,8.4-3.068s7.645.745,7.919.824,7.017,1.019,7.017,1.019l1.921.314.785.824v4.4Z" transform="translate(-1422.689 -9253.581)" fill="#fff"/>
      <g id="Grupo_57042" data-name="Grupo 57042" transform="translate(4.173 0)">
        <ellipse id="Elipse_4134" data-name="Elipse 4134" cx="13.172" cy="5.214" rx="13.172" ry="5.214" transform="translate(0.301 0.3)" fill="#fff"/>
        <path id="Trazado_102505" data-name="Trazado 102505" d="M1440.3,9264.215c-7.555,0-13.474-2.422-13.474-5.514s5.919-5.516,13.474-5.516,13.473,2.422,13.473,5.516S1447.858,9264.215,1440.3,9264.215Zm0-10.43c-6.977,0-12.873,2.252-12.873,4.916s5.9,4.912,12.873,4.912,12.872-2.25,12.872-4.912S1447.28,9253.785,1440.3,9253.785Z" transform="translate(-1426.829 -9253.186)"/>
      </g>
      <rect id="Rectángulo_8516" data-name="Rectángulo 8516" width="0.601" height="4.979" transform="translate(4.173 6.26)"/>
      <rect id="Rectángulo_8517" data-name="Rectángulo 8517" width="0.601" height="5.371" transform="translate(30.518 5.868)"/>
      <g id="Grupo_57043" data-name="Grupo 57043" transform="translate(2.448 25.875)">
        <path id="Trazado_102506" data-name="Trazado 102506" d="M1425.246,9282.276v11.683s2.907,6.037,14.822,5.488,14.659-5.253,14.659-5.253l.392-11.918s-1.1,4.471-14.937,4.549S1425.246,9282.276,1425.246,9282.276Z" transform="translate(-1424.945 -9281.976)" fill="#fff"/>
        <path id="Trazado_102507" data-name="Trazado 102507" d="M1438.511,9299.751c-10.7,0-13.453-5.453-13.569-5.7a.281.281,0,0,1-.031-.129v-11.683a.3.3,0,0,1,.265-.3.294.294,0,0,1,.328.226c.017.064,1.312,4.32,14.3,4.32h.343c13.341-.076,14.636-4.28,14.648-4.322a.3.3,0,0,1,.591.084l-.392,11.919a.305.305,0,0,1-.041.142c-.115.2-2.964,4.852-14.905,5.4Q1439.255,9299.75,1438.511,9299.751Zm-13-5.9c.336.6,3.584,5.76,14.507,5.265,10.852-.5,14-4.515,14.375-5.049l.353-10.707c-1.22,1.392-4.724,3.676-14.6,3.732-9.959.07-13.451-2.32-14.638-3.745Zm-.3-11.606h0Z" transform="translate(-1424.912 -9281.942)"/>
      </g>
      <path id="Trazado_102508" data-name="Trazado 102508" d="M1448.249,9295.412l-4.732-4.73,4.732-4.731,4.731,4.731Zm-3.032-4.73,3.032,3.031,3.03-3.031-3.03-3.031Z" transform="translate(-1424.329 -9256.47)"/>
    </g>
    <g id="Grupo_57049" data-name="Grupo 57049" transform="translate(1356.825 9248.952)">
      <g id="Grupo_57045" data-name="Grupo 57045" transform="translate(0 5.307)">
        <path id="Trazado_102509" data-name="Trazado 102509" d="M1396.08,9260l-25.18.491c-5.88,1.388-5.227,6.532-5.227,6.532v39.581s.355.705.567,1.043c1.565,2.5,8.65,4.389,17.154,4.389,7.931,0,14.628-1.643,16.765-3.892.464-.489,1.475-1.54,1.475-1.54v-40.071C1401.526,9262.945,1396.08,9260,1396.08,9260Z" transform="translate(-1365.341 -9259.689)" fill="#fff"/>
        <path id="Trazado_102510" data-name="Trazado 102510" d="M1383.36,9312.317c-8.586,0-15.749-1.865-17.42-4.536-.217-.346-.566-1.037-.581-1.067l-.033-.066v-39.656c0-.014-.615-5.4,5.468-6.837l.066-.008,25.263-.492.073.04c.229.123,5.6,3.068,5.718,6.8V9306.7l-.087.09s-1.011,1.053-1.475,1.54C1398.086,9310.714,1391.257,9312.317,1383.36,9312.317Zm-17.408-5.82c.092.182.355.69.519.953,1.538,2.457,8.64,4.242,16.889,4.242,7.616,0,14.416-1.562,16.537-3.795.382-.4,1.134-1.184,1.389-1.451V9266.5c-.1-3.147-4.692-5.861-5.319-6.219l-25.062.488c-5.507,1.319-4.981,5.983-4.956,6.182Z" transform="translate(-1365.307 -9259.654)"/>
      </g>
      <g id="Grupo_57046" data-name="Grupo 57046" transform="translate(4.348 5.431)">
        <ellipse id="Elipse_4135" data-name="Elipse 4135" cx="13.72" cy="5.431" rx="13.72" ry="5.431" transform="translate(0.313 0.314)" fill="#fff"/>
        <path id="Trazado_102511" data-name="Trazado 102511" d="M1384.171,9271.279c-7.869,0-14.032-2.521-14.032-5.744s6.163-5.742,14.032-5.742,14.033,2.521,14.033,5.742S1392.041,9271.279,1384.171,9271.279Zm0-10.861c-7.267,0-13.407,2.346-13.407,5.117s6.14,5.119,13.407,5.119,13.407-2.344,13.407-5.119S1391.44,9260.418,1384.171,9260.418Z" transform="translate(-1370.139 -9259.793)"/>
      </g>
      <path id="Trazado_102512" data-name="Trazado 102512" d="M1396.089,9265.874l-20.539.818-3.021-.818-2.042-.53.313-4.276,8.752-3.2s7.963.776,8.248.858,7.309,1.062,7.309,1.062l2,.327.816.856v4.587Z" transform="translate(-1365.826 -9254.169)" fill="#fff"/>
      <g id="Grupo_57047" data-name="Grupo 57047" transform="translate(4.348 0)">
        <ellipse id="Elipse_4136" data-name="Elipse 4136" cx="13.72" cy="5.431" rx="13.72" ry="5.431" transform="translate(0.313 0.314)" fill="#fff"/>
        <path id="Trazado_102513" data-name="Trazado 102513" d="M1384.171,9265.245c-7.869,0-14.032-2.523-14.032-5.745s6.163-5.744,14.032-5.744,14.033,2.523,14.033,5.744S1392.041,9265.245,1384.171,9265.245Zm0-10.862c-7.267,0-13.407,2.344-13.407,5.117s6.14,5.118,13.407,5.118,13.407-2.344,13.407-5.118S1391.44,9254.383,1384.171,9254.383Z" transform="translate(-1370.139 -9253.756)"/>
      </g>
      <rect id="Rectángulo_8518" data-name="Rectángulo 8518" width="0.626" height="5.186" transform="translate(4.347 6.52)"/>
      <rect id="Rectángulo_8519" data-name="Rectángulo 8519" width="0.626" height="5.594" transform="translate(31.787 6.112)"/>
      <g id="Grupo_57048" data-name="Grupo 57048" transform="translate(2.551 26.95)">
        <path id="Trazado_102514" data-name="Trazado 102514" d="M1368.49,9284.057v12.169s3.027,6.289,15.438,5.716,15.269-5.471,15.269-5.471l.409-12.414s-1.144,4.656-15.557,4.738S1368.49,9284.057,1368.49,9284.057Z" transform="translate(-1368.177 -9283.743)" fill="#fff"/>
        <path id="Trazado_102515" data-name="Trazado 102515" d="M1382.307,9302.257c-11.145,0-14.012-5.678-14.133-5.931a.313.313,0,0,1-.032-.136v-12.168a.314.314,0,0,1,.276-.312.306.306,0,0,1,.341.235c.018.067,1.367,4.5,14.894,4.5h.357c13.9-.078,15.244-4.458,15.256-4.5a.314.314,0,0,1,.616.091l-.409,12.412a.316.316,0,0,1-.043.147c-.12.206-3.086,5.054-15.524,5.626Q1383.08,9302.258,1382.307,9302.257Zm-13.538-6.145c.35.623,3.733,6,15.109,5.482,11.3-.521,14.587-4.7,14.973-5.258l.367-11.152c-1.27,1.449-4.921,3.828-15.2,3.888-10.374.073-14.011-2.417-15.246-3.9Zm-.313-12.09h0Z" transform="translate(-1368.142 -9283.709)"/>
      </g>
      <path id="Trazado_102516" data-name="Trazado 102516" d="M1392.448,9297.74l-4.928-4.928,4.928-4.928,4.928,4.928Zm-3.157-4.928,3.157,3.157,3.157-3.157-3.157-3.158Z" transform="translate(-1367.534 -9257.179)"/>
    </g>
    <path id="Trazado_102517" data-name="Trazado 102517" d="M1459.369,9272.561H1354.762l-7.98,24.7h120.184Z" transform="translate(-6.625 -6.689)" fill="#fff"/>
    <g id="Grupo_57054" data-name="Grupo 57054" transform="translate(1406.058 9266.369)">
      <g id="Grupo_57050" data-name="Grupo 57050" transform="translate(0 6.53)">
        <path id="Trazado_102518" data-name="Trazado 102518" d="M1457.9,9280.8l-30.986.6c-7.236,1.709-6.431,8.041-6.431,8.041v48.706s.437.867.7,1.283c1.925,3.076,10.645,5.4,21.11,5.4,9.76,0,18-2.02,20.629-4.787.572-.6,1.815-1.9,1.815-1.9v-49.31C1464.6,9284.421,1457.9,9280.8,1457.9,9280.8Z" transform="translate(-1420.069 -9280.416)" fill="#fff"/>
        <path id="Trazado_102519" data-name="Trazado 102519" d="M1442.243,9345.178c-10.566,0-19.381-2.3-21.436-5.581-.266-.426-.7-1.278-.715-1.314l-.041-.083v-48.8c-.005-.018-.758-6.647,6.728-8.414l.081-.011,31.089-.6.088.049c.281.152,6.9,3.776,7.037,8.365v49.477l-.108.112s-1.244,1.294-1.814,1.895C1460.363,9343.2,1451.961,9345.178,1442.243,9345.178Zm-21.422-7.162c.113.223.436.849.639,1.172,1.892,3.024,10.632,5.22,20.783,5.22,9.372,0,17.739-1.92,20.35-4.67.469-.493,1.395-1.457,1.709-1.783V9288.8c-.118-3.874-5.775-7.215-6.547-7.652l-30.84.6c-6.777,1.623-6.129,7.362-6.1,7.605Z" transform="translate(-1420.026 -9280.372)"/>
      </g>
      <g id="Grupo_57051" data-name="Grupo 57051" transform="translate(5.35 6.683)">
        <ellipse id="Elipse_4137" data-name="Elipse 4137" cx="16.883" cy="6.683" rx="16.883" ry="6.683" transform="translate(0.385 0.385)" fill="#fff"/>
        <path id="Trazado_102520" data-name="Trazado 102520" d="M1443.241,9294.678c-9.684,0-17.269-3.1-17.269-7.066s7.585-7.069,17.269-7.069,17.269,3.1,17.269,7.069S1452.925,9294.678,1443.241,9294.678Zm0-13.365c-8.943,0-16.5,2.883-16.5,6.3s7.555,6.3,16.5,6.3,16.5-2.884,16.5-6.3S1452.184,9281.313,1443.241,9281.313Z" transform="translate(-1425.972 -9280.542)"/>
      </g>
      <path id="Trazado_102521" data-name="Trazado 102521" d="M1457.906,9288.025l-25.276,1-3.718-1-2.513-.651.386-5.265,10.769-3.933s9.8.956,10.151,1.056,8.994,1.307,8.994,1.307l2.463.4,1.005,1.055v5.645Z" transform="translate(-1420.665 -9273.622)" fill="#fff"/>
      <g id="Grupo_57052" data-name="Grupo 57052" transform="translate(5.35)">
        <ellipse id="Elipse_4138" data-name="Elipse 4138" cx="16.883" cy="6.683" rx="16.883" ry="6.683" transform="translate(0.385 0.385)" fill="#fff"/>
        <path id="Trazado_102522" data-name="Trazado 102522" d="M1443.241,9287.252c-9.684,0-17.269-3.105-17.269-7.069s7.585-7.068,17.269-7.068,17.269,3.105,17.269,7.068S1452.925,9287.252,1443.241,9287.252Zm0-13.368c-8.943,0-16.5,2.886-16.5,6.3s7.555,6.3,16.5,6.3,16.5-2.885,16.5-6.3S1452.184,9273.884,1443.241,9273.884Z" transform="translate(-1425.972 -9273.114)"/>
      </g>
      <rect id="Rectángulo_8520" data-name="Rectángulo 8520" width="0.77" height="6.381" transform="translate(5.35 8.023)"/>
      <rect id="Rectángulo_8521" data-name="Rectángulo 8521" width="0.77" height="6.884" transform="translate(39.117 7.52)"/>
      <g id="Grupo_57053" data-name="Grupo 57053" transform="translate(3.139 33.162)">
        <path id="Trazado_102523" data-name="Trazado 102523" d="M1423.943,9310.4v14.974s3.726,7.737,19,7.034,18.789-6.732,18.789-6.732l.5-15.275s-1.407,5.728-19.145,5.827S1423.943,9310.4,1423.943,9310.4Z" transform="translate(-1423.558 -9310.016)" fill="#fff"/>
        <path id="Trazado_102524" data-name="Trazado 102524" d="M1440.946,9332.8c-13.715,0-17.243-6.988-17.392-7.3a.371.371,0,0,1-.039-.168v-14.973a.387.387,0,0,1,.34-.384.378.378,0,0,1,.419.29c.023.083,1.682,5.539,18.329,5.539l.439,0c17.1-.1,18.76-5.486,18.774-5.54a.386.386,0,0,1,.758.109l-.5,15.274a.386.386,0,0,1-.052.183c-.148.253-3.8,6.219-19.1,6.924Q1441.9,9332.8,1440.946,9332.8Zm-16.661-7.563c.431.769,4.6,7.383,18.594,6.748,13.909-.642,17.95-5.787,18.426-6.47l.452-13.724c-1.564,1.783-6.055,4.71-18.71,4.783-12.765.09-17.24-2.974-18.761-4.8Zm-.385-14.876h0Z" transform="translate(-1423.515 -9309.973)"/>
      </g>
      <path id="Trazado_102525" data-name="Trazado 102525" d="M1453.425,9327.239l-6.064-6.065,6.064-6.063,6.063,6.063Zm-3.885-6.065,3.885,3.886,3.885-3.886-3.885-3.885Z" transform="translate(-1422.767 -9277.324)"/>
    </g>
    <g id="Grupo_57059" data-name="Grupo 57059" transform="translate(1348.764 9266.566)">
      <g id="Grupo_57055" data-name="Grupo 57055" transform="translate(0 6.622)">
        <path id="Trazado_102526" data-name="Trazado 102526" d="M1394.747,9281.129l-31.42.612c-7.338,1.732-6.522,8.151-6.522,8.151v49.389s.444.88.708,1.3c1.952,3.119,10.793,5.475,21.4,5.475,9.9,0,18.252-2.048,20.918-4.854.578-.609,1.84-1.922,1.84-1.922v-50C1401.54,9284.8,1394.747,9281.129,1394.747,9281.129Z" transform="translate(-1356.391 -9280.736)" fill="#fff"/>
        <path id="Trazado_102527" data-name="Trazado 102527" d="M1378.875,9346.4c-10.714,0-19.652-2.328-21.737-5.659-.27-.432-.706-1.295-.724-1.333l-.042-.082v-49.48c-.005-.02-.768-6.74,6.822-8.533l.083-.01,31.523-.613.09.049c.285.154,6.994,3.829,7.135,8.482v50.169l-.11.113s-1.26,1.313-1.839,1.921C1397.248,9344.4,1388.728,9346.4,1378.875,9346.4Zm-21.723-7.261c.115.226.444.859.648,1.188,1.919,3.066,10.782,5.292,21.075,5.292,9.5,0,17.987-1.946,20.635-4.733.476-.5,1.414-1.479,1.733-1.811v-49.842c-.119-3.927-5.854-7.315-6.637-7.759l-31.271.608c-6.872,1.646-6.215,7.465-6.184,7.714Z" transform="translate(-1356.348 -9280.693)"/>
      </g>
      <g id="Grupo_57056" data-name="Grupo 57056" transform="translate(5.425 6.776)">
        <ellipse id="Elipse_4139" data-name="Elipse 4139" cx="17.119" cy="6.776" rx="17.119" ry="6.776" transform="translate(0.391 0.39)" fill="#fff"/>
        <path id="Trazado_102528" data-name="Trazado 102528" d="M1379.887,9295.2c-9.819,0-17.51-3.147-17.51-7.167s7.691-7.167,17.51-7.167,17.51,3.147,17.51,7.167S1389.706,9295.2,1379.887,9295.2Zm0-13.554c-9.068,0-16.729,2.926-16.729,6.387s7.661,6.386,16.729,6.386,16.729-2.925,16.729-6.386S1388.955,9281.646,1379.887,9281.646Z" transform="translate(-1362.377 -9280.866)"/>
      </g>
      <path id="Trazado_102529" data-name="Trazado 102529" d="M1394.757,9288.455l-25.628,1.018-3.771-1.018-2.547-.663.391-5.336,10.921-3.988s9.935.968,10.291,1.07,9.12,1.324,9.12,1.324l2.5.408,1.019,1.07v5.724Z" transform="translate(-1356.996 -9273.849)" fill="#fff"/>
      <g id="Grupo_57057" data-name="Grupo 57057" transform="translate(5.425 0)">
        <ellipse id="Elipse_4140" data-name="Elipse 4140" cx="17.119" cy="6.776" rx="17.119" ry="6.776" transform="translate(0.391 0.39)" fill="#fff"/>
        <path id="Trazado_102530" data-name="Trazado 102530" d="M1379.887,9287.668c-9.819,0-17.51-3.149-17.51-7.167s7.691-7.167,17.51-7.167,17.51,3.147,17.51,7.167S1389.706,9287.668,1379.887,9287.668Zm0-13.553c-9.068,0-16.729,2.925-16.729,6.386s7.661,6.388,16.729,6.388,16.729-2.926,16.729-6.388S1388.955,9274.115,1379.887,9274.115Z" transform="translate(-1362.377 -9273.334)"/>
      </g>
      <rect id="Rectángulo_8522" data-name="Rectángulo 8522" width="0.781" height="6.47" transform="translate(5.424 8.135)"/>
      <rect id="Rectángulo_8523" data-name="Rectángulo 8523" width="0.781" height="6.98" transform="translate(39.663 7.625)"/>
      <g id="Grupo_57058" data-name="Grupo 57058" transform="translate(3.183 33.626)">
        <path id="Trazado_102531" data-name="Trazado 102531" d="M1360.319,9311.142v15.184s3.778,7.848,19.263,7.134,19.052-6.827,19.052-6.827l.509-15.49s-1.427,5.81-19.412,5.911S1360.319,9311.142,1360.319,9311.142Z" transform="translate(-1359.929 -9310.751)" fill="#fff"/>
        <path id="Trazado_102532" data-name="Trazado 102532" d="M1377.56,9333.853c-13.906,0-17.484-7.086-17.635-7.4a.378.378,0,0,1-.04-.169V9311.1a.391.391,0,0,1,.346-.388.38.38,0,0,1,.425.295c.023.083,1.7,5.614,18.585,5.614h.445c17.339-.1,19.021-5.563,19.036-5.618a.391.391,0,0,1,.769.111l-.509,15.488a.4.4,0,0,1-.054.185c-.149.257-3.851,6.3-19.37,7.02C1378.869,9333.838,1378.2,9333.853,1377.56,9333.853Zm-16.893-7.669c.436.779,4.658,7.486,18.853,6.842,14.1-.649,18.2-5.868,18.684-6.561l.457-13.916c-1.585,1.809-6.14,4.779-18.971,4.851-12.944.093-17.482-3.016-19.023-4.867Zm-.391-15.085h0Z" transform="translate(-1359.885 -9310.708)"/>
      </g>
      <path id="Trazado_102533" data-name="Trazado 102533" d="M1390.214,9328.215l-6.149-6.149,6.149-6.148,6.149,6.148Zm-3.94-6.149,3.94,3.939,3.939-3.939-3.939-3.939Z" transform="translate(-1359.127 -9277.604)"/>
    </g>
    <path id="Trazado_102534" data-name="Trazado 102534" d="M1465.976,9300.011H1345.791l-8.885,28.15H1475.12Z" transform="translate(-5.635 -9.442)" fill="#fff"/>
    <g id="Grupo_57064" data-name="Grupo 57064" transform="translate(1409.232 9293.612)">
      <g id="Grupo_57060" data-name="Grupo 57060" transform="translate(0 6.856)">
        <path id="Trazado_102535" data-name="Trazado 102535" d="M1463.312,9311.466l-32.532.634c-7.6,1.793-6.753,8.439-6.753,8.439v51.139s.459.911.732,1.346c2.021,3.231,11.176,5.67,22.163,5.67,10.246,0,18.9-2.121,21.659-5.027.6-.63,1.906-1.988,1.906-1.988v-51.771C1470.347,9315.265,1463.312,9311.466,1463.312,9311.466Z" transform="translate(-1423.599 -9311.059)" fill="#fff"/>
        <path id="Trazado_102536" data-name="Trazado 102536" d="M1446.879,9379.054c-11.094,0-20.349-2.409-22.507-5.859-.28-.446-.732-1.342-.75-1.38l-.043-.086V9320.5c-.005-.019-.8-6.979,7.064-8.833l.086-.013,32.639-.636.094.052c.3.161,7.241,3.964,7.388,8.784V9371.8l-.113.117s-1.305,1.358-1.9,1.988C1465.9,9376.983,1457.081,9379.054,1446.879,9379.054Zm-22.492-7.519c.12.233.459.891.67,1.23,1.988,3.175,11.164,5.479,21.822,5.479,9.839,0,18.624-2.016,21.365-4.9.493-.519,1.464-1.53,1.794-1.874v-51.606c-.122-4.066-6.062-7.574-6.872-8.033l-32.379.628c-7.115,1.705-6.436,7.73-6.4,7.988Z" transform="translate(-1423.554 -9311.014)"/>
      </g>
      <g id="Grupo_57061" data-name="Grupo 57061" transform="translate(5.616 7.018)">
        <ellipse id="Elipse_4141" data-name="Elipse 4141" cx="17.726" cy="7.016" rx="17.726" ry="7.016" transform="translate(0.405 0.403)" fill="#fff"/>
        <path id="Trazado_102537" data-name="Trazado 102537" d="M1447.927,9326.035c-10.167,0-18.131-3.26-18.131-7.421s7.964-7.42,18.131-7.42,18.13,3.258,18.13,7.42S1458.093,9326.035,1447.927,9326.035Zm0-14.033c-9.39,0-17.322,3.028-17.322,6.612s7.932,6.612,17.322,6.612,17.321-3.029,17.321-6.612S1457.315,9312,1447.927,9312Z" transform="translate(-1429.796 -9311.194)"/>
      </g>
      <path id="Trazado_102538" data-name="Trazado 102538" d="M1463.323,9319.052l-26.536,1.055-3.9-1.055-2.638-.687.4-5.526,11.308-4.129s10.287,1,10.657,1.109,9.443,1.37,9.443,1.37l2.585.422,1.055,1.108v5.926Z" transform="translate(-1424.225 -9303.927)" fill="#fff"/>
      <g id="Grupo_57062" data-name="Grupo 57062" transform="translate(5.616)">
        <ellipse id="Elipse_4142" data-name="Elipse 4142" cx="17.726" cy="7.016" rx="17.726" ry="7.016" transform="translate(0.405 0.405)" fill="#fff"/>
        <path id="Trazado_102539" data-name="Trazado 102539" d="M1447.927,9318.236c-10.167,0-18.131-3.26-18.131-7.421s7.964-7.422,18.131-7.422,18.13,3.26,18.13,7.422S1458.093,9318.236,1447.927,9318.236Zm0-14.033c-9.39,0-17.322,3.028-17.322,6.612s7.932,6.612,17.322,6.612,17.321-3.028,17.321-6.612S1457.315,9304.2,1447.927,9304.2Z" transform="translate(-1429.796 -9303.394)"/>
      </g>
      <rect id="Rectángulo_8524" data-name="Rectángulo 8524" width="0.809" height="6.7" transform="translate(5.616 8.424)"/>
      <rect id="Rectángulo_8525" data-name="Rectángulo 8525" width="0.809" height="7.227" transform="translate(41.068 7.896)"/>
      <g id="Grupo_57063" data-name="Grupo 57063" transform="translate(3.296 34.818)">
        <path id="Trazado_102540" data-name="Trazado 102540" d="M1427.666,9342.542v15.722s3.911,8.125,19.945,7.386,19.727-7.069,19.727-7.069l.527-16.038s-1.477,6.014-20.1,6.12S1427.666,9342.542,1427.666,9342.542Z" transform="translate(-1427.262 -9342.138)" fill="#fff"/>
        <path id="Trazado_102541" data-name="Trazado 102541" d="M1445.517,9366.057c-14.4,0-18.1-7.337-18.26-7.664a.4.4,0,0,1-.04-.175V9342.5a.408.408,0,0,1,.356-.4.4.4,0,0,1,.441.3c.023.089,1.765,5.815,19.243,5.815l.461,0c17.953-.1,19.7-5.759,19.71-5.817a.405.405,0,0,1,.8.116l-.527,16.037a.4.4,0,0,1-.056.19c-.155.266-3.988,6.529-20.056,7.269Q1446.517,9366.057,1445.517,9366.057Zm-17.491-7.939c.452.807,4.824,7.749,19.521,7.084,14.6-.673,18.845-6.076,19.345-6.795l.474-14.407c-1.641,1.872-6.358,4.946-19.643,5.022-13.4.095-18.1-3.123-19.7-5.039Zm-.4-15.619h0Z" transform="translate(-1427.217 -9342.092)"/>
      </g>
      <path id="Trazado_102542" data-name="Trazado 102542" d="M1458.62,9360.22l-6.368-6.367,6.368-6.366,6.366,6.366Zm-4.079-6.367,4.079,4.078,4.079-4.078-4.079-4.079Z" transform="translate(-1426.431 -9307.814)"/>
    </g>
    <rect id="Rectángulo_8526" data-name="Rectángulo 8526" width="120.184" height="0.809" transform="translate(1340.156 9290.164)"/>
    <g id="Grupo_57069" data-name="Grupo 57069" transform="translate(1344.66 9293.612)">
      <g id="Grupo_57065" data-name="Grupo 57065" transform="translate(0 6.856)">
        <path id="Trazado_102543" data-name="Trazado 102543" d="M1391.544,9311.466l-32.532.634c-7.6,1.793-6.753,8.439-6.753,8.439v51.139s.46.911.733,1.346c2.022,3.231,11.176,5.67,22.163,5.67,10.246,0,18.9-2.121,21.659-5.027.6-.63,1.906-1.988,1.906-1.988v-51.771C1398.579,9315.265,1391.544,9311.466,1391.544,9311.466Z" transform="translate(-1351.831 -9311.059)" fill="#fff"/>
        <path id="Trazado_102544" data-name="Trazado 102544" d="M1375.111,9379.054c-11.093,0-20.349-2.409-22.507-5.859-.279-.446-.731-1.342-.75-1.38l-.043-.086V9320.5c-.005-.019-.8-6.979,7.064-8.833l.086-.013,32.639-.636.094.052c.3.161,7.241,3.964,7.388,8.784V9371.8l-.113.117s-1.306,1.358-1.9,1.988C1394.135,9376.983,1385.313,9379.054,1375.111,9379.054Zm-22.492-7.519c.12.233.459.891.671,1.23,1.987,3.175,11.163,5.479,21.821,5.479,9.839,0,18.624-2.016,21.365-4.9.493-.519,1.465-1.53,1.8-1.874v-51.606c-.123-4.066-6.062-7.574-6.873-8.033l-32.379.628c-7.115,1.705-6.435,7.73-6.4,7.988Z" transform="translate(-1351.786 -9311.014)"/>
      </g>
      <g id="Grupo_57066" data-name="Grupo 57066" transform="translate(5.616 7.018)">
        <ellipse id="Elipse_4143" data-name="Elipse 4143" cx="17.726" cy="7.016" rx="17.726" ry="7.016" transform="translate(0.405 0.403)" fill="#fff"/>
        <path id="Trazado_102545" data-name="Trazado 102545" d="M1376.159,9326.035c-10.167,0-18.131-3.26-18.131-7.421s7.964-7.42,18.131-7.42,18.13,3.258,18.13,7.42S1386.325,9326.035,1376.159,9326.035Zm0-14.033c-9.39,0-17.322,3.028-17.322,6.612s7.932,6.612,17.322,6.612,17.321-3.029,17.321-6.612S1385.548,9312,1376.159,9312Z" transform="translate(-1358.028 -9311.194)"/>
      </g>
      <path id="Trazado_102546" data-name="Trazado 102546" d="M1391.555,9319.052l-26.535,1.055-3.9-1.055-2.638-.687.4-5.526,11.307-4.129s10.287,1,10.656,1.109,9.443,1.37,9.443,1.37l2.585.422,1.055,1.108v5.926Z" transform="translate(-1352.457 -9303.927)" fill="#fff"/>
      <g id="Grupo_57067" data-name="Grupo 57067" transform="translate(5.616)">
        <ellipse id="Elipse_4144" data-name="Elipse 4144" cx="17.726" cy="7.016" rx="17.726" ry="7.016" transform="translate(0.405 0.405)" fill="#fff"/>
        <path id="Trazado_102547" data-name="Trazado 102547" d="M1376.159,9318.236c-10.167,0-18.131-3.26-18.131-7.421s7.964-7.422,18.131-7.422,18.13,3.26,18.13,7.422S1386.325,9318.236,1376.159,9318.236Zm0-14.033c-9.39,0-17.322,3.028-17.322,6.612s7.932,6.612,17.322,6.612,17.321-3.028,17.321-6.612S1385.548,9304.2,1376.159,9304.2Z" transform="translate(-1358.028 -9303.394)"/>
      </g>
      <rect id="Rectángulo_8527" data-name="Rectángulo 8527" width="0.809" height="6.7" transform="translate(5.617 8.424)"/>
      <rect id="Rectángulo_8528" data-name="Rectángulo 8528" width="0.809" height="7.227" transform="translate(41.068 7.896)"/>
      <g id="Grupo_57068" data-name="Grupo 57068" transform="translate(3.296 34.818)">
        <path id="Trazado_102548" data-name="Trazado 102548" d="M1355.9,9342.542v15.722s3.911,8.125,19.946,7.386,19.727-7.069,19.727-7.069l.527-16.038s-1.477,6.014-20.1,6.12S1355.9,9342.542,1355.9,9342.542Z" transform="translate(-1355.494 -9342.138)" fill="#fff"/>
        <path id="Trazado_102549" data-name="Trazado 102549" d="M1373.749,9366.057c-14.4,0-18.1-7.337-18.259-7.664a.389.389,0,0,1-.041-.175V9342.5a.408.408,0,0,1,.357-.4.4.4,0,0,1,.44.3c.023.089,1.765,5.815,19.243,5.815l.461,0c17.953-.1,19.7-5.759,19.711-5.817a.405.405,0,0,1,.8.116l-.528,16.037a.413.413,0,0,1-.055.19c-.155.266-3.988,6.529-20.057,7.269Q1374.749,9366.057,1373.749,9366.057Zm-17.491-7.939c.452.807,4.823,7.749,19.522,7.084,14.6-.673,18.845-6.076,19.344-6.795L1395.6,9344c-1.641,1.872-6.358,4.946-19.643,5.022-13.4.095-18.1-3.123-19.7-5.039Zm-.405-15.619h0Z" transform="translate(-1355.449 -9342.092)"/>
      </g>
      <path id="Trazado_102550" data-name="Trazado 102550" d="M1386.852,9360.22l-6.368-6.367,6.368-6.366,6.366,6.366Zm-4.08-6.367,4.08,4.078,4.078-4.078-4.078-4.079Z" transform="translate(-1354.663 -9307.814)"/>
    </g>
    <g id="Grupo_57070" data-name="Grupo 57070" transform="translate(1309.967 9318.313)">
      <path id="Trazado_102551" data-name="Trazado 102551" d="M1472.839,9331.3H1334.625l-20.474,26.166h174.725Z" transform="translate(-1313.321 -9330.893)" fill="#fff"/>
      <path id="Trazado_102552" data-name="Trazado 102552" d="M1489.506,9357.823H1313.228l21.107-26.977h138.637l.119.192Zm-174.617-.81h173.173l-15.543-25.357h-137.79Z" transform="translate(-1313.228 -9330.847)"/>
    </g>
    <g id="Grupo_57071" data-name="Grupo 57071" transform="translate(1338.732 9344.481)">
      <path id="Trazado_102553" data-name="Trazado 102553" d="M1453.434,9409.337h-92.005l-15.615-48.958h122.392Z" transform="translate(-1345.26 -9359.975)" fill="#fff"/>
      <path id="Trazado_102554" data-name="Trazado 102554" d="M1453.673,9409.7h-92.6l-.09-.281L1345.2,9359.93h123.489Zm-92.01-.809h91.41l14.527-48.146H1346.306Z" transform="translate(-1345.198 -9359.93)"/>
    </g>
    <rect id="Rectángulo_8529" data-name="Rectángulo 8529" width="0.809" height="72.169" transform="translate(1399.761 9246.55)"/>
    <rect id="Rectángulo_8530" data-name="Rectángulo 8530" width="104.608" height="0.809" transform="translate(1348.137 9265.153)"/>
    <g id="Grupo_57073" data-name="Grupo 57073" transform="translate(1376.357 9347.64)">
      <path id="Trazado_102555" data-name="Trazado 102555" d="M1387.015,9385.6l23.071-22.159,23.071,22.159-23.071,22.159Z" transform="translate(-1387.015 -9363.442)" fill="#b6b7bb"/>
      <path id="Trazado_102556" data-name="Trazado 102556" d="M1410.539,9404.289a2.917,2.917,0,0,1-2.024-.806l-16.141-15.5a2.679,2.679,0,0,1,0-3.892l16.141-15.5a2.951,2.951,0,0,1,4.05,0l16.14,15.5a2.679,2.679,0,0,1,0,3.892l-16.14,15.5A2.917,2.917,0,0,1,1410.539,9404.289Zm0-35.764a2.133,2.133,0,0,0-1.478.588l-16.141,15.5a1.956,1.956,0,0,0,0,2.841l16.141,15.5a2.157,2.157,0,0,0,2.958,0l16.14-15.5a1.956,1.956,0,0,0,0-2.841l-16.14-15.5A2.134,2.134,0,0,0,1410.539,9368.525Z" transform="translate(-1387.468 -9363.878)" fill="url(#linear-gradient)"/>
      <g id="Grupo_57072" data-name="Grupo 57072" transform="translate(17.528 6.856)">
        <path id="Trazado_102557" data-name="Trazado 102557" d="M1414.574,9384.271a2.08,2.08,0,0,0,1.138-2.578,3.658,3.658,0,0,1-.251-1.521s-.506-.176-.941.7a.744.744,0,0,1-.841.3,1.751,1.751,0,0,0,.238-1.877,4.313,4.313,0,0,1-.175-1.234s-.339-.023-.356,1.061-.6,1.186-.6,1.186.515-1.926-.833-2.633a4.91,4.91,0,0,1-.215,1.871,3.96,3.96,0,0,0,.187,2.334s-.748-.027-1.377-1.375a2.251,2.251,0,0,0-.926-1.2s.544,2.129-.534,2.1a1.407,1.407,0,0,1-.595-.428,2.089,2.089,0,0,0,.331,2.713l.874.588a3,3,0,0,1-3.194-3.256,7.056,7.056,0,0,1,.654-2.465,1.85,1.85,0,0,0-.008-1.125s.662-.09,1.5.865c0,0,.077-.2-.281-.832a1.712,1.712,0,0,1,.451-1.836s.832-.963.39-1.543c0,0,.79.377.671,1.705,0,0-.212,1.879.918,2.6,0,0-.994-2.187-.306-3.639a6.075,6.075,0,0,1,1.554-2.293s.714-.727.578-1.387c0,0,.7.563.094,2.234a2.735,2.735,0,0,0,.221,2.652,2.349,2.349,0,0,1,1.274-2.758s-.654,1.125.111,1.836a2.006,2.006,0,0,1,.28,2.832s.229.1,1.13-.85a2.24,2.24,0,0,1,1.079-.57s-.756.422-.178,1.615,1.487,2.689.518,4.869A2.7,2.7,0,0,1,1414.574,9384.271Z" transform="translate(-1406.497 -9371.063)" fill="#fff"/>
        <rect id="Rectángulo_8531" data-name="Rectángulo 8531" width="10.024" height="0.946" transform="translate(0.602 13.667)" fill="#fff"/>
      </g>
      <text id="_3" data-name="3" transform="translate(22.272 32.523)" fill="#fff" font-size="5" font-family="Roboto-Regular, Roboto" style="isolation: isolate"><tspan x="-1.404" y="0">3</tspan></text>
    </g>
  </g>
</svg>
