<svg xmlns="http://www.w3.org/2000/svg" xmlns:xlink="http://www.w3.org/1999/xlink" width="860.022" height="295.453" viewBox="0 0 860.022 295.453">
  <defs>
    <linearGradient id="linear-gradient" x1="0.5" y1="1" x2="0.5" gradientUnits="objectBoundingBox">
      <stop offset="0" stop-color="#e6e6e6"/>
      <stop offset="0.42" stop-color="#fff"/>
    </linearGradient>
  </defs>
  <g id="Grupo_57120" data-name="Grupo 57120" transform="translate(-211.648 -1101.855)">
    <rect id="Rectángulo_8552" data-name="Rectángulo 8552" width="408.091" height="288.512" transform="translate(661.078 1106.044)" fill="#fff" stroke="#000" stroke-miterlimit="10" stroke-width="5"/>
    <rect id="Rectángulo_8553" data-name="Rectángulo 8553" width="213.727" height="43.739" transform="translate(679.164 1118.719)"/>
    <g id="Norma" transform="translate(690.284 1128.648)" style="isolation: isolate">
      <text id="_2-METIL_FLAMMALINE" data-name="2-METIL FLAMMALINE" fill="#fff" font-size="14.995" font-family="Roboto-Bold, Roboto" font-weight="700" style="isolation: isolate"><tspan x="19.122" y="16">2-METIL FLAMMALINE</tspan></text>
    </g>
    <g id="Norma-2" data-name="Norma" transform="translate(789.544 1185.368)" style="isolation: isolate">
      <text id="PALABRA_DE_ADVERTENCIA_véase_1.4.10.5.2_a_" data-name="PALABRA DE ADVERTENCIA (véase 1.4.10.5.2 a))" font-size="11.083" font-family="Roboto-Bold, Roboto" font-weight="700" style="isolation: isolate"><tspan x="0" y="12">PALABRA DE ADVERTENCIA</tspan><tspan y="12" xml:space="preserve" font-size="7.824"> (véase 1.4.10.5.2 a))</tspan></text>
    </g>
    <g id="Norma-3" data-name="Norma" transform="translate(791.532 1213.619)" style="isolation: isolate">
      <text id="Indicación_de_peligro_véase_1.4.10.5.2_b_" data-name="Indicación de peligro (véase 1.4.10.5.2 b))" font-size="7.824" font-family="Roboto-Bold, Roboto" font-weight="700" style="isolation: isolate"><tspan x="0" y="8">Indicación de peligro (véase 1.4.10.5.2 b))</tspan></text>
    </g>
    <g id="Norma-4" data-name="Norma" transform="translate(919.499 1131.632)" style="isolation: isolate">
      <text id="Identificación_del_producto" data-name="Identificación del producto" font-size="9.128" font-family="Roboto-Bold, Roboto" font-weight="700" style="isolation: isolate"><tspan x="0" y="10">Identificación del producto</tspan></text>
    </g>
    <g id="Norma-5" data-name="Norma" transform="translate(948.948 1148.571)" style="isolation: isolate">
      <text id="_véase_1.4.10.5.2_d_" data-name="(véase 1.4.10.5.2 d))" font-size="9.128" font-family="Roboto-Bold, Roboto" font-weight="700" style="isolation: isolate"><tspan x="0" y="10">(véase 1.4.10.5.2 d))</tspan></text>
    </g>
    <g id="Norma-6" data-name="Norma" transform="translate(675.621 1313.754)" style="isolation: isolate">
      <text id="Consejos_de_prudencia_véase_1.4.10.5.2_e_" data-name="Consejos de prudencia (véase 1.4.10.5.2 e))" font-size="9.128" font-family="Roboto-Bold, Roboto" font-weight="700" style="isolation: isolate"><tspan x="0" y="10">Consejos de prudencia (véase 1.4.10.5.2 e))</tspan></text>
    </g>
    <g id="Norma-7" data-name="Norma" transform="translate(688.384 1337.984)" style="isolation: isolate">
      <text id="Información_adicional_cuando_lo_requiera_en_su_caso_la_autoridad_competente" data-name="Información adicional cuando lo requiera, en su caso, la autoridad competente" font-size="9.128" font-family="Roboto-Bold, Roboto" font-weight="700" style="isolation: isolate"><tspan x="0" y="10">Información adicional cuando lo requiera, en su caso, la autoridad competente</tspan></text>
    </g>
    <g id="Norma-8" data-name="Norma" transform="translate(675.621 1362.215)" style="isolation: isolate">
      <text id="Identificación_del_proveedor_véase_1.4.10.5.2_e_" data-name="Identificación del proveedor (véase 1.4.10.5.2 e))" font-size="9.128" font-family="Roboto-Bold, Roboto" font-weight="700" style="isolation: isolate"><tspan x="0" y="10">Identificación del proveedor (véase 1.4.10.5.2 e))</tspan></text>
    </g>
    <g id="Grupo_57119" data-name="Grupo 57119" transform="translate(212.148 1102.356)">
      <rect id="Rectángulo_8554" data-name="Rectángulo 8554" width="168.477" height="285.715" transform="translate(10.519 5.429)" fill="#fff" stroke="gray" stroke-miterlimit="10" stroke-width="1"/>
      <rect id="Rectángulo_8555" data-name="Rectángulo 8555" width="189.685" height="10.859" fill="#fff" stroke="gray" stroke-miterlimit="10" stroke-width="1"/>
      <rect id="Rectángulo_8556" data-name="Rectángulo 8556" width="189.685" height="10.859" transform="translate(0 63.2)" fill="#fff" stroke="gray" stroke-miterlimit="10" stroke-width="1"/>
      <rect id="Rectángulo_8557" data-name="Rectángulo 8557" width="189.685" height="10.859" transform="translate(0 231.677)" fill="#fff" stroke="gray" stroke-miterlimit="10" stroke-width="1"/>
      <rect id="Rectángulo_8558" data-name="Rectángulo 8558" width="189.685" height="10.859" transform="translate(0 283.594)" fill="#fff" stroke="gray" stroke-miterlimit="10" stroke-width="1"/>
      <rect id="Rectángulo_8559" data-name="Rectángulo 8559" width="74.275" height="42.246" transform="translate(49.419 179.166)" fill="#fff" stroke="gray" stroke-miterlimit="10" stroke-width="1"/>
      <rect id="Rectángulo_8560" data-name="Rectángulo 8560" width="38.254" height="38.254" transform="translate(85.608 115.578) rotate(45)" fill="#fff" stroke="gray" stroke-miterlimit="10" stroke-width="1"/>
      <g id="Norma-9" data-name="Norma" transform="translate(23.118 80.715)" style="isolation: isolate">
        <text id="_2-METIL_flammaline-2" data-name="2-METIL flammaline" font-size="9.268" font-family="Roboto-Bold, Roboto" font-weight="700" style="isolation: isolate"><tspan x="0" y="10">2-METIL flammaline</tspan></text>
      </g>
      <g id="Norma-10" data-name="Norma" transform="translate(23.118 92.422)" style="isolation: isolate">
        <text id="UN-XXXX" font-size="9.268" font-family="Roboto-Bold, Roboto" font-weight="700" style="isolation: isolate"><tspan x="0" y="10">UN-XXXX</tspan></text>
      </g>
      <line id="Línea_157" data-name="Línea 157" y1="66.822" x2="199.557" transform="translate(89.891 73.395)" fill="none" stroke="#963030" stroke-miterlimit="10" stroke-width="3"/>
      <g id="Grupo_57118" data-name="Grupo 57118" transform="translate(284.899 2.081)">
        <rect id="Rectángulo_8561" data-name="Rectángulo 8561" width="100.853" height="100.853" transform="translate(0 71.314) rotate(-45)" fill="#d61b22"/>
        <path id="Trazado_102609" data-name="Trazado 102609" d="M542.327,1233.207a8.821,8.821,0,0,1-6.259-2.589l-49.891-49.891a8.862,8.862,0,0,1,0-12.52l49.891-49.89a8.861,8.861,0,0,1,12.518,0l49.891,49.89a8.864,8.864,0,0,1,0,12.52l-49.891,49.891A8.824,8.824,0,0,1,542.327,1233.207Zm0-115.091a6.443,6.443,0,0,0-4.57,1.89l-49.891,49.89a6.474,6.474,0,0,0,0,9.142l49.891,49.891a6.474,6.474,0,0,0,9.141,0l49.891-49.891a6.474,6.474,0,0,0,0-9.142l-49.891-49.89A6.448,6.448,0,0,0,542.327,1118.116Z" transform="translate(-471.014 -1103.154)" fill="url(#linear-gradient)"/>
        <g id="Grupo_57117" data-name="Grupo 57117" transform="translate(54.182 22.066)">
          <path id="Trazado_102610" data-name="Trazado 102610" d="M546.521,1166.9a6.746,6.746,0,0,0,3.519-8.3s-1.181-3.335-.775-4.9c0,0-1.563-.564-2.911,2.244a2.267,2.267,0,0,1-2.6.954s2.154-2.224.735-6.04a14.3,14.3,0,0,1-.543-3.974s-1.05-.07-1.1,3.414-1.855,3.816-1.855,3.816,1.592-6.2-2.573-8.473a16.472,16.472,0,0,1-.665,6.022,13.22,13.22,0,0,0,.578,7.509s-2.311-.086-4.254-4.428a7.254,7.254,0,0,0-2.861-3.842s1.68,6.854-1.655,6.749a4.332,4.332,0,0,1-1.838-1.383s-3.125,4.8,1.023,8.735l2.7,1.891s-3.177.76-6.853-2.469c0,0-3.335-2.231-3.02-8.008a23.448,23.448,0,0,1,2.022-7.93,6.193,6.193,0,0,0-.026-3.624s2.048-.288,4.648,2.783c0,0,.237-.63-.866-2.678,0,0-1.287-2.521,1.391-5.908,0,0,2.574-3.1,1.209-4.962,0,0,2.442,1.208,2.073,5.488,0,0-.656,6.038,2.836,8.35,0,0-3.072-7.037-.945-11.711a19.674,19.674,0,0,1,4.8-7.379s2.206-2.337,1.785-4.464c0,0,2.153,1.812.289,7.195s.683,8.534.683,8.534a7.706,7.706,0,0,1,3.939-8.876s-2.022,3.624.341,5.908a6.633,6.633,0,0,1,.867,9.111s.709.316,3.493-2.73c0,0,1.891-1.812,3.335-1.839,0,0-2.338,1.365-.552,5.2s4.6,8.654,1.6,15.67A8.321,8.321,0,0,1,546.521,1166.9Z" transform="translate(-521.555 -1124.389)" fill="#fff"/>
          <rect id="Rectángulo_8562" data-name="Rectángulo 8562" width="30.984" height="3.046" transform="translate(1.86 43.981)" fill="#fff"/>
        </g>
        <text id="_3" data-name="3" transform="translate(70.739 109.726)" fill="#fff" font-size="20" font-family="Roboto-Regular, Roboto" style="isolation: isolate"><tspan x="-5.615" y="0">3</tspan></text>
      </g>
    </g>
  </g>
</svg>
