<svg xmlns="http://www.w3.org/2000/svg" xmlns:xlink="http://www.w3.org/1999/xlink" width="724.975" height="537.752" viewBox="0 0 724.975 537.752">
  <defs>
    <linearGradient id="linear-gradient" x1="0.5" y1="1" x2="0.5" gradientUnits="objectBoundingBox">
      <stop offset="0" stop-color="#e6e6e6"/>
      <stop offset="0.42" stop-color="#fff"/>
    </linearGradient>
  </defs>
  <g id="Grupo_56913" data-name="Grupo 56913" transform="translate(-244.871 -8713.044)">
    <path id="Trazado_103363" data-name="Trazado 103363" d="M0,0H724.975V537.752H0Z" transform="translate(244.871 8713.044)" fill="#fdefef"/>
    <g id="Grupo_56955" data-name="Grupo 56955">
      <g id="Grupo_56913-2" data-name="Grupo 56913">
        <path id="Trazado_102227" data-name="Trazado 102227" d="M708.4,8908.24l-124.894.285L584.7,8853.4H706.908Z" fill="#fff"/>
        <path id="Trazado_102228" data-name="Trazado 102228" d="M582.952,8909.073l1.21-56.217H707.439l1.526,55.929Zm2.279-55.125-1.164,54.029,123.776-.282-1.466-53.747Z"/>
      </g>
      <g id="Grupo_56914" data-name="Grupo 56914">
        <path id="Trazado_102229" data-name="Trazado 102229" d="M708.9,8908.668l30.482,96.572,67.515-16.808-38.743-93.724Z" fill="#fff"/>
        <path id="Trazado_102230" data-name="Trazado 102230" d="M739.018,9005.893l-30.813-97.621,60.278-14.2,39.163,94.737-.614.154ZM709.6,8909.064l30.15,95.521,66.4-16.53-38.324-92.709Z"/>
      </g>
      <g id="Grupo_56915" data-name="Grupo 56915">
        <path id="Trazado_102231" data-name="Trazado 102231" d="M583.279,8908.668,552.8,9005.24l-67.515-16.808,38.743-93.724Z" fill="#fff"/>
        <path id="Trazado_102232" data-name="Trazado 102232" d="M553.163,9005.893l-68.628-17.084,39.163-94.737,60.279,14.2Zm-67.135-17.837,66.4,16.53,30.15-95.521-58.229-13.718Z"/>
      </g>
      <path id="Trazado_102233" data-name="Trazado 102233" d="M708.4,8908.24l-125.125.434-7.714,24.8H716.784Z" fill="#fff"/>
      <g id="Grupo_56920" data-name="Grupo 56920">
        <g id="Grupo_56916" data-name="Grupo 56916">
          <path id="Trazado_102234" data-name="Trazado 102234" d="M826.745,9040.565l-43.918.854c-10.255,2.422-9.116,11.4-9.116,11.4v69.034s.621,1.23.989,1.818c2.729,4.362,15.087,7.654,29.92,7.654,13.832,0,25.513-2.863,29.239-6.786.809-.853,2.572-2.687,2.572-2.687V9051.96C836.241,9045.693,826.745,9040.565,826.745,9040.565Z" fill="#fff"/>
          <path id="Trazado_102235" data-name="Trazado 102235" d="M804.62,9131.867c-14.976,0-27.47-3.252-30.383-7.909-.378-.6-.988-1.812-1.013-1.863l-.059-.117v-69.163c-.007-.025-1.074-9.422,9.536-11.927l.115-.015,44.063-.857.126.068c.4.217,9.776,5.353,9.973,11.858v70.126l-.153.158s-1.762,1.834-2.571,2.685C830.3,9129.071,818.393,9131.867,804.62,9131.867Zm-30.363-10.15c.161.316.62,1.2.9,1.662,2.682,4.286,15.071,7.4,29.458,7.4,13.283,0,25.142-2.721,28.843-6.617.665-.7,1.977-2.065,2.423-2.529v-69.67c-.167-5.489-8.184-10.224-9.278-10.845l-43.712.85c-9.6,2.3-8.687,10.436-8.643,10.782Z"/>
        </g>
        <g id="Grupo_56917" data-name="Grupo 56917">
          <ellipse id="Elipse_4115" data-name="Elipse 4115" cx="23.93" cy="9.472" rx="23.93" ry="9.472" transform="translate(781.26 9040.778)" fill="#fff"/>
          <path id="Trazado_102236" data-name="Trazado 102236" d="M805.19,9060.269c-13.725,0-24.476-4.4-24.476-10.018s10.751-10.018,24.476-10.018,24.475,4.4,24.475,10.018S818.915,9060.269,805.19,9060.269Zm0-18.943c-12.676,0-23.384,4.087-23.384,8.926s10.708,8.926,23.384,8.926,23.383-4.088,23.383-8.926S817.865,9041.325,805.19,9041.325Z"/>
        </g>
        <path id="Trazado_102237" data-name="Trazado 102237" d="M825.915,9051.176l-35.823,1.425-5.271-1.425-3.561-.926.546-7.459,15.265-5.574s13.888,1.354,14.386,1.5,12.748,1.853,12.748,1.853l3.49.568,1.424,1.5v8Z" fill="#fff"/>
        <g id="Grupo_56918" data-name="Grupo 56918">
          <ellipse id="Elipse_4116" data-name="Elipse 4116" cx="23.93" cy="9.472" rx="23.93" ry="9.472" transform="translate(781.26 9031.307)" fill="#fff"/>
          <path id="Trazado_102238" data-name="Trazado 102238" d="M805.19,9050.8c-13.725,0-24.476-4.4-24.476-10.018s10.751-10.019,24.476-10.019,24.475,4.4,24.475,10.019S818.915,9050.8,805.19,9050.8Zm0-18.944c-12.676,0-23.384,4.088-23.384,8.927s10.708,8.926,23.384,8.926,23.383-4.088,23.383-8.926S817.865,9031.853,805.19,9031.853Z"/>
        </g>
        <rect id="Rectángulo_8459" data-name="Rectángulo 8459" width="1.092" height="9.044" transform="translate(780.714 9042.132)"/>
        <rect id="Rectángulo_8460" data-name="Rectángulo 8460" width="1.092" height="9.757" transform="translate(828.573 9041.42)"/>
        <g id="Grupo_56919" data-name="Grupo 56919">
          <path id="Trazado_102239" data-name="Trazado 102239" d="M778.127,9078.311v21.224s5.28,10.968,26.925,9.971,26.631-9.544,26.631-9.544l.713-21.65s-1.995,8.119-27.135,8.262S778.127,9078.311,778.127,9078.311Z" fill="#fff"/>
          <path id="Trazado_102240" data-name="Trazado 102240" d="M802.286,9110.116c-19.439,0-24.438-9.905-24.651-10.347a.532.532,0,0,1-.054-.236V9078.31a.547.547,0,0,1,.482-.542.533.533,0,0,1,.594.411c.032.118,2.384,7.85,25.978,7.85l.623,0c24.236-.139,26.588-7.775,26.608-7.853a.547.547,0,0,1,1.075.155l-.712,21.649a.541.541,0,0,1-.075.258c-.209.359-5.383,8.813-27.076,9.813Q803.635,9110.116,802.286,9110.116ZM778.673,9099.4c.61,1.088,6.512,10.463,26.354,9.563,19.714-.909,25.44-8.2,26.115-9.171l.64-19.451c-2.216,2.527-8.582,6.678-26.518,6.78-18.093.128-24.436-4.216-26.591-6.8Zm-.546-21.088h0Z"/>
        </g>
        <path id="Trazado_102241" data-name="Trazado 102241" d="M816.586,9101.5l-8.6-8.594,8.6-8.6,8.594,8.6Zm-5.507-8.594,5.507,5.506,5.506-5.506-5.506-5.507Z"/>
      </g>
      <g id="Grupo_56925" data-name="Grupo 56925">
        <g id="Grupo_56921" data-name="Grupo 56921">
          <path id="Trazado_102242" data-name="Trazado 102242" d="M696.228,8917.649l-32.637.635c-7.621,1.8-6.774,8.468-6.774,8.468v51.3s.461.914.735,1.352c2.028,3.24,11.211,5.688,22.234,5.688,10.279,0,18.959-2.128,21.728-5.043.6-.633,1.912-2,1.912-2v-51.937C703.284,8921.459,696.228,8917.649,696.228,8917.649Z" fill="#fff"/>
          <path id="Trazado_102243" data-name="Trazado 102243" d="M679.786,8985.5c-11.129,0-20.414-2.417-22.579-5.878-.28-.449-.733-1.347-.753-1.385l-.043-.086v-51.4c-.006-.019-.8-7,7.086-8.863l.086-.011,32.744-.637.093.051c.3.161,7.265,3.977,7.412,8.811v52.113l-.114.118s-1.31,1.363-1.91,1.994C698.872,8983.42,690.021,8985.5,679.786,8985.5Zm-22.564-7.543c.12.234.461.894.673,1.235,1.993,3.185,11.2,5.5,21.891,5.5,9.87,0,18.684-2.021,21.434-4.917.494-.52,1.469-1.534,1.8-1.88v-51.772c-.123-4.079-6.081-7.6-6.894-8.06l-32.484.633c-7.138,1.71-6.455,7.754-6.423,8.012Z"/>
        </g>
        <g id="Grupo_56922" data-name="Grupo 56922">
          <ellipse id="Elipse_4117" data-name="Elipse 4117" cx="17.783" cy="7.039" rx="17.783" ry="7.039" transform="translate(662.427 8917.808)" fill="#fff"/>
          <path id="Trazado_102244" data-name="Trazado 102244" d="M680.209,8932.291c-10.2,0-18.188-3.27-18.188-7.445s7.989-7.443,18.188-7.443,18.189,3.27,18.189,7.443S690.409,8932.291,680.209,8932.291Zm0-14.078c-9.419,0-17.377,3.038-17.377,6.633s7.958,6.635,17.377,6.635,17.377-3.038,17.377-6.635S689.629,8918.213,680.209,8918.213Z"/>
        </g>
        <path id="Trazado_102245" data-name="Trazado 102245" d="M695.61,8925.534l-26.621,1.059-3.916-1.059-2.646-.688.406-5.543,11.343-4.142s10.32,1.006,10.691,1.112,9.473,1.376,9.473,1.376l2.593.423,1.059,1.11v5.946Z" fill="#fff"/>
        <g id="Grupo_56923" data-name="Grupo 56923">
          <ellipse id="Elipse_4118" data-name="Elipse 4118" cx="17.783" cy="7.039" rx="17.783" ry="7.039" transform="translate(662.427 8910.769)" fill="#fff"/>
          <path id="Trazado_102246" data-name="Trazado 102246" d="M680.209,8925.252c-10.2,0-18.188-3.27-18.188-7.444s7.989-7.444,18.188-7.444,18.189,3.27,18.189,7.444S690.409,8925.252,680.209,8925.252Zm0-14.078c-9.419,0-17.377,3.038-17.377,6.634s7.958,6.634,17.377,6.634,17.377-3.038,17.377-6.634S689.629,8911.174,680.209,8911.174Z"/>
        </g>
        <rect id="Rectángulo_8461" data-name="Rectángulo 8461" width="0.812" height="6.721" transform="translate(662.021 8918.813)"/>
        <rect id="Rectángulo_8462" data-name="Rectángulo 8462" width="0.812" height="7.25" transform="translate(697.586 8918.284)"/>
        <g id="Grupo_56924" data-name="Grupo 56924">
          <path id="Trazado_102247" data-name="Trazado 102247" d="M660.1,8945.7v15.771s3.924,8.15,20.009,7.409,19.79-7.091,19.79-7.091l.529-16.089s-1.481,6.033-20.164,6.139S660.1,8945.7,660.1,8945.7Z" fill="#fff"/>
          <path id="Trazado_102248" data-name="Trazado 102248" d="M678.051,8969.333c-14.445,0-18.16-7.36-18.318-7.687a.4.4,0,0,1-.04-.177V8945.7a.407.407,0,0,1,.358-.4.4.4,0,0,1,.441.306c.024.088,1.771,5.833,19.3,5.833l.463,0c18.01-.1,19.758-5.777,19.773-5.835a.406.406,0,0,1,.8.115L700.3,8961.8a.417.417,0,0,1-.056.191c-.155.267-4,6.55-20.121,7.292C679.411,8969.318,678.719,8969.333,678.051,8969.333Zm-17.547-7.965c.453.808,4.839,7.774,19.584,7.105,14.65-.675,18.906-6.095,19.407-6.813l.476-14.455c-1.647,1.878-6.378,4.962-19.706,5.038-13.446.1-18.159-3.132-19.761-5.057Zm-.406-15.67h0Z"/>
        </g>
        <path id="Trazado_102249" data-name="Trazado 102249" d="M688.678,8962.935l-6.388-6.387,6.388-6.387,6.386,6.387Zm-4.093-6.387,4.093,4.092,4.091-4.092-4.091-4.092Z"/>
      </g>
      <g id="Grupo_56930" data-name="Grupo 56930">
        <g id="Grupo_56926" data-name="Grupo 56926">
          <path id="Trazado_102250" data-name="Trazado 102250" d="M628.791,8918.646l-33.993.66c-7.938,1.874-7.056,8.82-7.056,8.82v53.434s.48.952.765,1.407c2.113,3.376,11.678,5.925,23.159,5.925,10.706,0,19.747-2.217,22.631-5.253.626-.658,1.991-2.079,1.991-2.079v-54.1C636.141,8922.615,628.791,8918.646,628.791,8918.646Z" fill="#fff"/>
          <path id="Trazado_102251" data-name="Trazado 102251" d="M611.666,8989.315c-11.591,0-21.262-2.518-23.517-6.122-.292-.468-.764-1.4-.784-1.442l-.046-.09v-53.534c0-.02-.831-7.292,7.381-9.23l.089-.012,34.1-.664.1.054c.309.167,7.567,4.143,7.719,9.178v54.278l-.118.122s-1.364,1.421-1.99,2.078C631.545,8987.151,622.327,8989.315,611.666,8989.315Zm-23.5-7.856c.124.244.479.931.7,1.286,2.076,3.316,11.665,5.725,22.8,5.725,10.281,0,19.46-2.105,22.325-5.122.515-.541,1.53-1.6,1.875-1.958v-53.925c-.129-4.248-6.334-7.913-7.181-8.394l-33.834.657c-7.434,1.781-6.724,8.077-6.69,8.346Z"/>
        </g>
        <g id="Grupo_56927" data-name="Grupo 56927">
          <ellipse id="Elipse_4119" data-name="Elipse 4119" cx="18.522" cy="7.332" rx="18.522" ry="7.332" transform="translate(593.585 8918.812)" fill="#fff"/>
          <path id="Trazado_102252" data-name="Trazado 102252" d="M612.107,8933.9c-10.623,0-18.944-3.406-18.944-7.755s8.321-7.754,18.944-7.754,18.944,3.405,18.944,7.754S622.73,8933.9,612.107,8933.9Zm0-14.663c-9.811,0-18.1,3.164-18.1,6.908s8.288,6.909,18.1,6.909,18.1-3.164,18.1-6.909S621.918,8919.234,612.107,8919.234Z"/>
        </g>
        <path id="Trazado_102253" data-name="Trazado 102253" d="M628.148,8926.859l-27.727,1.1-4.079-1.1-2.757-.717.423-5.773,11.815-4.314s10.749,1.047,11.135,1.158,9.867,1.434,9.867,1.434l2.7.44,1.1,1.157v6.192Z" fill="#fff"/>
        <g id="Grupo_56928" data-name="Grupo 56928">
          <ellipse id="Elipse_4120" data-name="Elipse 4120" cx="18.522" cy="7.332" rx="18.522" ry="7.332" transform="translate(593.585 8911.479)" fill="#fff"/>
          <path id="Trazado_102254" data-name="Trazado 102254" d="M612.107,8926.565c-10.623,0-18.944-3.405-18.944-7.755s8.321-7.754,18.944-7.754,18.944,3.406,18.944,7.754S622.73,8926.565,612.107,8926.565Zm0-14.663c-9.811,0-18.1,3.164-18.1,6.908s8.288,6.909,18.1,6.909,18.1-3.164,18.1-6.909S621.918,8911.9,612.107,8911.9Z"/>
        </g>
        <rect id="Rectángulo_8463" data-name="Rectángulo 8463" width="0.845" height="7" transform="translate(593.162 8919.858)"/>
        <rect id="Rectángulo_8464" data-name="Rectángulo 8464" width="0.845" height="7.552" transform="translate(630.206 8919.308)"/>
        <g id="Grupo_56929" data-name="Grupo 56929">
          <path id="Trazado_102255" data-name="Trazado 102255" d="M591.16,8947.862v16.427s4.087,8.489,20.841,7.717,20.612-7.387,20.612-7.387l.551-16.757s-1.543,6.284-21,6.394S591.16,8947.862,591.16,8947.862Z" fill="#fff"/>
          <path id="Trazado_102256" data-name="Trazado 102256" d="M609.859,8972.479c-15.046,0-18.915-7.667-19.08-8.008a.411.411,0,0,1-.042-.183v-16.427a.424.424,0,0,1,.373-.42.412.412,0,0,1,.46.318c.025.091,1.845,6.075,20.108,6.075l.482,0c18.758-.106,20.579-6.018,20.6-6.077a.423.423,0,0,1,.832.119l-.551,16.758a.432.432,0,0,1-.058.2c-.162.278-4.167,6.822-20.958,7.6Q610.9,8972.479,609.859,8972.479Zm-18.276-8.3c.472.842,5.04,8.1,20.4,7.4,15.258-.7,19.691-6.348,20.213-7.1l.5-15.057c-1.715,1.957-6.643,5.169-20.525,5.249-14.005.1-18.914-3.263-20.582-5.267Zm-.423-16.321h0Z"/>
        </g>
        <path id="Trazado_102257" data-name="Trazado 102257" d="M620.927,8965.814l-6.653-6.652,6.653-6.653,6.653,6.653Zm-4.262-6.652,4.262,4.262,4.262-4.262-4.262-4.262Z"/>
      </g>
      <path id="Trazado_102258" data-name="Trazado 102258" d="M716.784,8933.9H575.565l-10.773,33.342H727.039Z" fill="#fff"/>
      <g id="Grupo_56935" data-name="Grupo 56935">
        <g id="Grupo_56931" data-name="Grupo 56931">
          <path id="Trazado_102259" data-name="Trazado 102259" d="M704.823,8943.908l-41.83.813c-9.769,2.307-8.683,10.854-8.683,10.854v65.754s.591,1.172.941,1.731c2.6,4.154,14.371,7.29,28.5,7.29,13.174,0,24.3-2.727,27.849-6.464.77-.811,2.45-2.558,2.45-2.558v-66.568C713.868,8948.792,704.823,8943.908,704.823,8943.908Z" fill="#fff"/>
          <path id="Trazado_102260" data-name="Trazado 102260" d="M683.75,9030.871c-14.264,0-26.165-3.1-28.94-7.533-.359-.575-.94-1.726-.965-1.774l-.056-.111v-65.877c-.007-.024-1.022-8.974,9.083-11.359l.11-.014,41.968-.817.12.065c.38.207,9.312,5.1,9.5,11.294v66.794l-.145.151s-1.679,1.746-2.449,2.557C708.212,9028.208,696.868,9030.871,683.75,9030.871Zm-28.921-9.667c.154.3.591,1.145.863,1.582,2.554,4.082,14.354,7.045,28.058,7.045,12.651,0,23.947-2.591,27.472-6.3.633-.667,1.883-1.969,2.307-2.41v-66.358c-.158-5.228-7.795-9.737-8.837-10.329l-41.634.81c-9.149,2.191-8.274,9.938-8.233,10.269Z"/>
        </g>
        <g id="Grupo_56932" data-name="Grupo 56932">
          <ellipse id="Elipse_4121" data-name="Elipse 4121" cx="22.792" cy="9.022" rx="22.792" ry="9.022" transform="translate(661.5 8944.111)" fill="#fff"/>
          <path id="Trazado_102261" data-name="Trazado 102261" d="M684.292,8962.675c-13.072,0-23.312-4.19-23.312-9.542s10.24-9.541,23.312-9.541,23.312,4.191,23.312,9.541S697.365,8962.675,684.292,8962.675Zm0-18.043c-12.073,0-22.272,3.894-22.272,8.5s10.2,8.5,22.272,8.5,22.272-3.893,22.272-8.5S696.365,8944.632,684.292,8944.632Z"/>
        </g>
        <path id="Trazado_102262" data-name="Trazado 102262" d="M704.032,8954.015l-34.12,1.357-5.02-1.357-3.392-.882.52-7.1,14.539-5.31s13.228,1.289,13.7,1.424,12.142,1.765,12.142,1.765l3.324.543,1.357,1.424v7.62Z" fill="#fff"/>
        <g id="Grupo_56933" data-name="Grupo 56933">
          <ellipse id="Elipse_4122" data-name="Elipse 4122" cx="22.792" cy="9.022" rx="22.792" ry="9.022" transform="translate(661.5 8935.09)" fill="#fff"/>
          <path id="Trazado_102263" data-name="Trazado 102263" d="M684.292,8953.654c-13.072,0-23.312-4.191-23.312-9.542s10.24-9.542,23.312-9.542,23.312,4.19,23.312,9.542S697.365,8953.654,684.292,8953.654Zm0-18.044c-12.073,0-22.272,3.893-22.272,8.5s10.2,8.5,22.272,8.5,22.272-3.894,22.272-8.5S696.365,8935.61,684.292,8935.61Z"/>
        </g>
        <rect id="Rectángulo_8465" data-name="Rectángulo 8465" width="1.04" height="8.615" transform="translate(660.98 8945.4)"/>
        <rect id="Rectángulo_8466" data-name="Rectángulo 8466" width="1.04" height="9.293" transform="translate(706.564 8944.722)"/>
        <g id="Grupo_56934" data-name="Grupo 56934">
          <path id="Trazado_102264" data-name="Trazado 102264" d="M658.515,8979.86v20.215s5.029,10.446,25.646,9.5,25.366-9.089,25.366-9.089l.678-20.622s-1.9,7.732-25.845,7.868S658.515,8979.86,658.515,8979.86Z" fill="#fff"/>
          <path id="Trazado_102265" data-name="Trazado 102265" d="M681.526,9010.153c-18.515,0-23.276-9.435-23.479-9.854a.521.521,0,0,1-.051-.226V8979.86a.521.521,0,0,1,.459-.518.507.507,0,0,1,.565.393c.031.111,2.271,7.476,24.744,7.476l.593,0c23.084-.131,25.325-7.406,25.344-7.479a.521.521,0,0,1,1.024.146l-.679,20.622a.513.513,0,0,1-.071.244c-.2.343-5.127,8.4-25.79,9.347Q682.811,9010.154,681.526,9010.153Zm-22.49-10.209c.581,1.036,6.2,9.965,25.1,9.107,18.777-.865,24.231-7.812,24.874-8.733l.61-18.527c-2.111,2.407-8.175,6.36-25.258,6.458-17.233.122-23.274-4.015-25.327-6.481Zm-.52-20.084h0Z"/>
        </g>
        <path id="Trazado_102266" data-name="Trazado 102266" d="M695.146,9001.952l-8.187-8.187,8.187-8.187,8.186,8.187Zm-5.245-8.187,5.245,5.245,5.245-5.245-5.245-5.244Z"/>
      </g>
      <g id="Grupo_56940" data-name="Grupo 56940">
        <g id="Grupo_56936" data-name="Grupo 56936">
          <path id="Trazado_102267" data-name="Trazado 102267" d="M628.191,8944.3l-42.415.826c-9.905,2.338-8.8,11-8.8,11v66.673s.6,1.188.955,1.757c2.636,4.212,14.571,7.392,28.9,7.392,13.359,0,24.64-2.765,28.239-6.554.781-.822,2.484-2.595,2.484-2.595v-67.5C637.362,8949.258,628.191,8944.3,628.191,8944.3Z" fill="#fff"/>
          <path id="Trazado_102268" data-name="Trazado 102268" d="M606.823,9032.485c-14.464,0-26.53-3.143-29.344-7.641-.365-.582-.954-1.749-.979-1.8l-.056-.112v-66.8c-.008-.024-1.037-9.1,9.209-11.518l.112-.016,42.555-.827.122.065c.385.209,9.441,5.169,9.632,11.452v67.727l-.148.154s-1.7,1.771-2.483,2.592C631.627,9029.784,620.125,9032.485,606.823,9032.485Zm-29.325-9.8c.156.3.6,1.161.875,1.6,2.59,4.14,14.555,7.144,28.45,7.144,12.828,0,24.282-2.627,27.856-6.391.643-.676,1.909-2,2.34-2.443V8955.31c-.161-5.3-7.9-9.874-8.961-10.474l-42.216.821c-9.277,2.223-8.39,10.078-8.348,10.413Z"/>
        </g>
        <g id="Grupo_56937" data-name="Grupo 56937">
          <ellipse id="Elipse_4123" data-name="Elipse 4123" cx="23.111" cy="9.148" rx="23.111" ry="9.148" transform="translate(584.262 8944.512)" fill="#fff"/>
          <path id="Trazado_102269" data-name="Trazado 102269" d="M607.373,8963.335c-13.255,0-23.638-4.25-23.638-9.675s10.383-9.676,23.638-9.676,23.638,4.25,23.638,9.676S620.628,8963.335,607.373,8963.335Zm0-18.3c-12.242,0-22.584,3.948-22.584,8.621s10.342,8.62,22.584,8.62,22.584-3.947,22.584-8.62S619.615,8945.039,607.373,8945.039Z"/>
        </g>
        <path id="Trazado_102270" data-name="Trazado 102270" d="M627.389,8954.554l-34.6,1.375-5.09-1.375-3.439-.894.528-7.205,14.742-5.383s13.413,1.307,13.894,1.444,12.312,1.788,12.312,1.788l3.37.551,1.376,1.444v7.727Z" fill="#fff"/>
        <g id="Grupo_56938" data-name="Grupo 56938">
          <ellipse id="Elipse_4124" data-name="Elipse 4124" cx="23.111" cy="9.148" rx="23.111" ry="9.148" transform="translate(584.262 8935.363)" fill="#fff"/>
          <path id="Trazado_102271" data-name="Trazado 102271" d="M607.373,8954.187c-13.255,0-23.638-4.25-23.638-9.675s10.383-9.676,23.638-9.676,23.638,4.25,23.638,9.676S620.628,8954.187,607.373,8954.187Zm0-18.3c-12.242,0-22.584,3.948-22.584,8.621s10.342,8.62,22.584,8.62,22.584-3.947,22.584-8.62S619.615,8935.891,607.373,8935.891Z"/>
        </g>
        <rect id="Rectángulo_8467" data-name="Rectángulo 8467" width="1.055" height="8.735" transform="translate(583.735 8945.818)"/>
        <rect id="Rectángulo_8468" data-name="Rectángulo 8468" width="1.055" height="9.423" transform="translate(629.957 8945.131)"/>
        <g id="Grupo_56939" data-name="Grupo 56939">
          <path id="Trazado_102272" data-name="Trazado 102272" d="M581.236,8980.76v20.5s5.1,10.593,26,9.63,25.72-9.217,25.72-9.217l.688-20.91s-1.926,7.841-26.206,7.979S581.236,8980.76,581.236,8980.76Z" fill="#fff"/>
          <path id="Trazado_102273" data-name="Trazado 102273" d="M604.568,9011.477c-18.773,0-23.6-9.565-23.807-9.991a.518.518,0,0,1-.052-.229v-20.5a.529.529,0,0,1,.465-.524.516.516,0,0,1,.574.4c.031.113,2.3,7.58,25.089,7.58l.6,0c23.406-.133,25.679-7.509,25.7-7.583a.528.528,0,0,1,1.038.149l-.688,20.909a.52.52,0,0,1-.072.248c-.2.348-5.2,8.514-26.15,9.479Q605.871,9011.478,604.568,9011.477Zm-22.8-10.352c.589,1.05,6.289,10.105,25.452,9.235,19.04-.877,24.571-7.921,25.223-8.856l.618-18.786c-2.141,2.441-8.289,6.449-25.611,6.548-17.474.124-23.6-4.07-25.682-6.57Zm-.527-20.365h0Z"/>
        </g>
        <path id="Trazado_102274" data-name="Trazado 102274" d="M618.379,9003.161l-8.3-8.3,8.3-8.3,8.3,8.3Zm-5.319-8.3,5.319,5.316,5.318-5.316-5.318-5.319Z"/>
      </g>
      <path id="Trazado_102275" data-name="Trazado 102275" d="M727.039,8967.238H564.792l-11.995,38H739.384Z" fill="#fff"/>
      <g id="Grupo_56945" data-name="Grupo 56945">
        <g id="Grupo_56941" data-name="Grupo 56941">
          <path id="Trazado_102276" data-name="Trazado 102276" d="M711.656,8981.153l-43.918.854c-10.256,2.422-9.116,11.4-9.116,11.4v69.035s.62,1.229.988,1.817c2.729,4.362,15.088,7.654,29.921,7.654,13.832,0,25.512-2.863,29.239-6.786.808-.852,2.572-2.686,2.572-2.686v-69.891C721.152,8986.281,711.656,8981.153,711.656,8981.153Z" fill="#fff"/>
          <path id="Trazado_102277" data-name="Trazado 102277" d="M689.531,9072.456c-14.976,0-27.47-3.252-30.384-7.91-.377-.6-.987-1.811-1.013-1.863l-.059-.115V8993.4c-.007-.026-1.073-9.421,9.536-11.927l.116-.015,44.062-.856.126.067c.4.217,9.776,5.353,9.973,11.858v70.126l-.152.159s-1.763,1.834-2.571,2.684C715.214,9069.66,703.3,9072.456,689.531,9072.456Zm-30.364-10.15c.161.316.62,1.2.906,1.661,2.682,4.286,15.071,7.4,29.458,7.4,13.282,0,25.142-2.721,28.842-6.617.666-.7,1.978-2.066,2.423-2.53v-69.669c-.166-5.489-8.183-10.224-9.278-10.845l-43.711.85c-9.606,2.3-8.688,10.436-8.644,10.782Z"/>
        </g>
        <g id="Grupo_56942" data-name="Grupo 56942">
          <ellipse id="Elipse_4125" data-name="Elipse 4125" cx="23.93" cy="9.472" rx="23.93" ry="9.472" transform="translate(666.171 8981.367)" fill="#fff"/>
          <path id="Trazado_102278" data-name="Trazado 102278" d="M690.1,9000.857c-13.725,0-24.475-4.4-24.475-10.019s10.75-10.018,24.475-10.018,24.476,4.4,24.476,10.018S703.825,9000.857,690.1,9000.857Zm0-18.944c-12.675,0-23.383,4.088-23.383,8.926s10.708,8.926,23.383,8.926,23.384-4.087,23.384-8.926S702.776,8981.913,690.1,8981.913Z"/>
        </g>
        <path id="Trazado_102279" data-name="Trazado 102279" d="M710.825,8991.765,675,8993.189l-5.27-1.425-3.561-.926.546-7.459,15.264-5.574s13.888,1.354,14.387,1.5,12.748,1.852,12.748,1.852l3.49.569,1.424,1.5v8Z" fill="#fff"/>
        <g id="Grupo_56943" data-name="Grupo 56943">
          <ellipse id="Elipse_4126" data-name="Elipse 4126" cx="23.93" cy="9.472" rx="23.93" ry="9.472" transform="translate(666.171 8971.895)" fill="#fff"/>
          <path id="Trazado_102280" data-name="Trazado 102280" d="M690.1,8991.385c-13.725,0-24.475-4.4-24.475-10.018s10.75-10.019,24.475-10.019,24.476,4.4,24.476,10.019S703.825,8991.385,690.1,8991.385Zm0-18.943c-12.675,0-23.383,4.088-23.383,8.926s10.708,8.926,23.383,8.926,23.384-4.087,23.384-8.926S702.776,8972.441,690.1,8972.441Z"/>
        </g>
        <rect id="Rectángulo_8469" data-name="Rectángulo 8469" width="1.092" height="9.044" transform="translate(665.625 8982.721)"/>
        <rect id="Rectángulo_8470" data-name="Rectángulo 8470" width="1.092" height="9.757" transform="translate(713.484 8982.008)"/>
        <g id="Grupo_56944" data-name="Grupo 56944">
          <path id="Trazado_102281" data-name="Trazado 102281" d="M663.037,9018.9v21.224s5.28,10.967,26.926,9.97,26.631-9.543,26.631-9.543l.712-21.65s-1.994,8.118-27.134,8.262S663.037,9018.9,663.037,9018.9Z" fill="#fff"/>
          <path id="Trazado_102282" data-name="Trazado 102282" d="M687.2,9050.7c-19.438,0-24.438-9.905-24.65-10.345a.543.543,0,0,1-.054-.237V9018.9a.546.546,0,0,1,.482-.543.533.533,0,0,1,.594.411c.032.117,2.383,7.85,25.978,7.85l.622,0c24.236-.139,26.589-7.776,26.609-7.853a.547.547,0,0,1,1.075.154l-.712,21.651a.556.556,0,0,1-.075.257c-.209.358-5.383,8.813-27.077,9.813Q688.545,9050.705,687.2,9050.7Zm-23.612-10.718c.61,1.087,6.511,10.462,26.353,9.562,19.714-.908,25.441-8.2,26.116-9.17l.64-19.452c-2.216,2.528-8.583,6.678-26.518,6.781-18.093.128-24.436-4.216-26.591-6.8Zm-.546-21.087h0Z"/>
        </g>
        <path id="Trazado_102283" data-name="Trazado 102283" d="M701.5,9042.094,692.9,9033.5l8.595-8.6,8.594,8.6Zm-5.507-8.594,5.507,5.506L707,9033.5l-5.506-5.507Z"/>
      </g>
      <rect id="Rectángulo_8471" data-name="Rectángulo 8471" width="162.247" height="1.092" transform="translate(564.792 8966.692)"/>
      <g id="Grupo_56950" data-name="Grupo 56950">
        <g id="Grupo_56946" data-name="Grupo 56946">
          <path id="Trazado_102284" data-name="Trazado 102284" d="M624.484,8981.153l-43.918.854c-10.256,2.422-9.116,11.4-9.116,11.4v69.035s.62,1.229.989,1.817c2.729,4.362,15.087,7.654,29.92,7.654,13.832,0,25.512-2.863,29.239-6.786.809-.852,2.572-2.686,2.572-2.686v-69.891C633.98,8986.281,624.484,8981.153,624.484,8981.153Z" fill="#fff"/>
          <path id="Trazado_102285" data-name="Trazado 102285" d="M602.359,9072.456c-14.976,0-27.47-3.252-30.384-7.91-.377-.6-.987-1.811-1.013-1.863l-.058-.115V8993.4c-.008-.026-1.074-9.421,9.536-11.927l.115-.015,44.062-.856.126.067c.4.217,9.776,5.353,9.974,11.858v70.126l-.153.159s-1.763,1.834-2.571,2.684C628.042,9069.66,616.132,9072.456,602.359,9072.456ZM572,9062.306c.161.316.619,1.2.905,1.661,2.682,4.286,15.071,7.4,29.458,7.4,13.282,0,25.142-2.721,28.843-6.617.665-.7,1.977-2.066,2.422-2.53v-69.669c-.166-5.489-8.183-10.224-9.277-10.845l-43.712.85c-9.606,2.3-8.687,10.436-8.644,10.782Z"/>
        </g>
        <g id="Grupo_56947" data-name="Grupo 56947">
          <ellipse id="Elipse_4127" data-name="Elipse 4127" cx="23.93" cy="9.472" rx="23.93" ry="9.472" transform="translate(578.999 8981.367)" fill="#fff"/>
          <path id="Trazado_102286" data-name="Trazado 102286" d="M602.928,9000.857c-13.724,0-24.475-4.4-24.475-10.019s10.751-10.018,24.475-10.018,24.476,4.4,24.476,10.018S616.653,9000.857,602.928,9000.857Zm0-18.944c-12.675,0-23.383,4.088-23.383,8.926s10.708,8.926,23.383,8.926,23.384-4.087,23.384-8.926S615.6,8981.913,602.928,8981.913Z"/>
        </g>
        <path id="Trazado_102287" data-name="Trazado 102287" d="M623.653,8991.765l-35.823,1.425-5.27-1.425-3.561-.926.546-7.459,15.265-5.574s13.887,1.354,14.386,1.5,12.748,1.852,12.748,1.852l3.49.569,1.424,1.5v8Z" fill="#fff"/>
        <g id="Grupo_56948" data-name="Grupo 56948">
          <ellipse id="Elipse_4128" data-name="Elipse 4128" cx="23.93" cy="9.472" rx="23.93" ry="9.472" transform="translate(578.999 8971.895)" fill="#fff"/>
          <path id="Trazado_102288" data-name="Trazado 102288" d="M602.928,8991.385c-13.724,0-24.475-4.4-24.475-10.018s10.751-10.019,24.475-10.019,24.476,4.4,24.476,10.019S616.653,8991.385,602.928,8991.385Zm0-18.943c-12.675,0-23.383,4.088-23.383,8.926s10.708,8.926,23.383,8.926,23.384-4.087,23.384-8.926S615.6,8972.441,602.928,8972.441Z"/>
        </g>
        <rect id="Rectángulo_8472" data-name="Rectángulo 8472" width="1.092" height="9.044" transform="translate(578.453 8982.721)"/>
        <rect id="Rectángulo_8473" data-name="Rectángulo 8473" width="1.092" height="9.757" transform="translate(626.312 8982.008)"/>
        <g id="Grupo_56949" data-name="Grupo 56949">
          <path id="Trazado_102289" data-name="Trazado 102289" d="M575.866,9018.9v21.224s5.28,10.967,26.925,9.97,26.631-9.543,26.631-9.543l.712-21.65s-1.994,8.118-27.134,8.262S575.866,9018.9,575.866,9018.9Z" fill="#fff"/>
          <path id="Trazado_102290" data-name="Trazado 102290" d="M600.025,9050.7c-19.439,0-24.439-9.905-24.651-10.345a.543.543,0,0,1-.054-.237V9018.9a.547.547,0,0,1,.482-.543.532.532,0,0,1,.594.411c.032.117,2.383,7.85,25.978,7.85l.623,0c24.235-.139,26.588-7.776,26.608-7.853a.547.547,0,0,1,1.075.154l-.712,21.651a.544.544,0,0,1-.075.257c-.209.358-5.383,8.813-27.077,9.813Q601.374,9050.705,600.025,9050.7Zm-23.613-10.718c.61,1.087,6.511,10.462,26.353,9.562,19.714-.908,25.441-8.2,26.116-9.17l.64-19.452c-2.216,2.528-8.583,6.678-26.518,6.781-18.093.128-24.436-4.216-26.591-6.8Zm-.546-21.087h0Z"/>
        </g>
        <path id="Trazado_102291" data-name="Trazado 102291" d="M614.324,9042.094l-8.595-8.594,8.595-8.6,8.6,8.6Zm-5.507-8.594,5.507,5.506,5.506-5.506-5.506-5.507Z"/>
      </g>
      <g id="Grupo_56951" data-name="Grupo 56951">
        <path id="Trazado_102292" data-name="Trazado 102292" d="M739.384,9005.24H552.8l-27.64,35.324H761.034Z" fill="#fff"/>
        <path id="Trazado_102293" data-name="Trazado 102293" d="M762.009,9041.111H524.037l28.494-36.417H739.69l.16.26Zm-235.73-1.093H760.06l-20.982-34.232H553.063Z"/>
      </g>
      <g id="Grupo_56952" data-name="Grupo 56952">
        <path id="Trazado_102294" data-name="Trazado 102294" d="M708.9,9106.655H584.7l-21.081-66.091H728.843Z" fill="#fff"/>
        <path id="Trazado_102295" data-name="Trazado 102295" d="M709.307,9107.2H584.3l-.122-.38-21.307-66.8H729.578Zm-124.212-1.092H708.5l19.611-65H564.364Z"/>
      </g>
      <rect id="Rectángulo_8474" data-name="Rectángulo 8474" width="1.092" height="97.427" transform="translate(645.257 8907.813)"/>
      <rect id="Rectángulo_8475" data-name="Rectángulo 8475" width="141.219" height="1.092" transform="translate(575.565 8932.929)"/>
      <g id="Grupo_56954" data-name="Grupo 56954">
        <path id="Trazado_102296" data-name="Trazado 102296" d="M613.661,9074.2l31.145-29.915,31.145,29.915-31.145,29.915Z" fill="#b6b7bb"/>
        <path id="Trazado_102297" data-name="Trazado 102297" d="M644.806,9098.839a3.935,3.935,0,0,1-2.733-1.086l-21.789-20.928a3.614,3.614,0,0,1,0-5.252l21.789-20.929a3.985,3.985,0,0,1,5.467,0l21.789,20.929a3.616,3.616,0,0,1,0,5.252l-21.789,20.928A3.939,3.939,0,0,1,644.806,9098.839Zm0-48.279a2.881,2.881,0,0,0-2,.793l-21.789,20.93a2.639,2.639,0,0,0,0,3.835l21.789,20.928a2.912,2.912,0,0,0,3.992,0l21.79-20.928a2.641,2.641,0,0,0,0-3.835l-21.79-20.93A2.879,2.879,0,0,0,644.806,9050.56Z" fill="url(#linear-gradient)"/>
        <g id="Grupo_56953" data-name="Grupo 56953">
          <path id="Trazado_102298" data-name="Trazado 102298" d="M648.228,9071.373a2.809,2.809,0,0,0,1.537-3.481,4.937,4.937,0,0,1-.339-2.054s-.682-.237-1.271.942a1,1,0,0,1-1.135.4,2.362,2.362,0,0,0,.321-2.532,5.782,5.782,0,0,1-.237-1.667s-.459-.03-.482,1.432-.81,1.6-.81,1.6.7-2.6-1.124-3.555a6.654,6.654,0,0,1-.29,2.526,5.345,5.345,0,0,0,.252,3.15s-1.009-.037-1.858-1.857a3.043,3.043,0,0,0-1.25-1.612s.734,2.875-.722,2.831a1.894,1.894,0,0,1-.8-.58,2.823,2.823,0,0,0,.447,3.664l1.181.793a4.048,4.048,0,0,1-4.311-4.4,9.5,9.5,0,0,1,.883-3.325,2.506,2.506,0,0,0-.012-1.521s.895-.121,2.03,1.167c0,0,.1-.264-.378-1.123a2.31,2.31,0,0,1,.607-2.479s1.124-1.3.528-2.081c0,0,1.066.506.906,2.3,0,0-.287,2.533,1.238,3.5,0,0-1.341-2.952-.413-4.912a8.212,8.212,0,0,1,2.1-3.095s.963-.981.78-1.873c0,0,.94.76.126,3.018a3.692,3.692,0,0,0,.3,3.58,3.171,3.171,0,0,1,1.72-3.723s-.883,1.52.149,2.478a2.708,2.708,0,0,1,.379,3.822s.309.133,1.525-1.145a3.024,3.024,0,0,1,1.456-.771s-1.02.573-.24,2.182,2.006,3.63.7,6.572A3.646,3.646,0,0,1,648.228,9071.373Z" fill="#fff"/>
          <rect id="Rectángulo_8476" data-name="Rectángulo 8476" width="13.532" height="1.278" transform="translate(638.136 9071.99)" fill="#fff"/>
        </g>
        <text id="_3" data-name="3" transform="translate(644.807 9091.157)" fill="#fff" font-size="9.029" font-family="Roboto-Regular, Roboto" style="isolation: isolate"><tspan x="-2.535" y="0">3</tspan></text>
      </g>
    </g>
    <g id="Norma" style="isolation: isolate">
      <text id="Marcado_y_etiquetado_de_unidad_de_embalaje_externa_para_un_embalaje_combinado_producto_quimico:_2_metilflamaline_líquido_inflamable_caja_X_6_UND" data-name="Marcado y etiquetado de unidad de embalaje externa
(para un embalaje combinado) producto quimico: 
2 metilflamaline (líquido inflamable), caja X 6 UND" transform="translate(400.567 8775.391)" fill="#963030" font-size="18" font-family="Roboto-Bold, Roboto" font-weight="700" style="isolation: isolate"><tspan x="0" y="0">Marcado y etiquetado de unidad de embalaje externa</tspan><tspan x="0" y="22">(para un embalaje combinado) producto quimico: </tspan><tspan x="0" y="44">2 metilflamaline (líquido inflamable), caja X 6 UND</tspan></text>
    </g>
    <g id="Norma-2" data-name="Norma" style="isolation: isolate">
      <text id="Denominación_oficial_del_producto_quimico_de_acuerdo_a_libro_naranja_UNXXXX" data-name="Denominación oficial del 
producto quimico de 
acuerdo a libro naranja
UNXXXX" transform="translate(311.162 9024.904)" fill="#963030" font-size="18" font-family="Roboto-Bold, Roboto" font-weight="700" style="isolation: isolate"><tspan x="0" y="0">Denominación oficial del </tspan><tspan x="0" y="21.6">producto quimico de </tspan><tspan x="0" y="43.2">acuerdo a libro naranja</tspan><tspan x="0" y="64.8">UNXXXX</tspan></text>
    </g>
    <g id="Norma-3" data-name="Norma">
      <g id="Grupo_56956" data-name="Grupo 56956">
        <text id="_2-METIL_FLAMMALINE_UNXXXX" data-name="2-METIL FLAMMALINE
UNXXXX" transform="translate(571.949 9049.704)" fill="#b6b7bb" font-size="5" font-family="Roboto-Bold, Roboto" font-weight="700" style="isolation: isolate"><tspan x="0" y="0">2-METIL FLAMMALINE</tspan><tspan x="0" y="6">UNXXXX</tspan></text>
      </g>
    </g>
    <g id="Norma-4" data-name="Norma" style="isolation: isolate">
      <text id="Número_ONU:_Establecido_en_libro_naranja_UNXXXX" data-name="Número ONU:
(Establecido en libro naranja)
UNXXXX" transform="translate(311.162 9141.773)" fill="#963030" font-size="18" font-family="Roboto-Bold, Roboto" font-weight="700" style="isolation: isolate"><tspan x="0" y="0">Número ONU:</tspan><tspan x="0" y="21.6">(Establecido en libro naranja)</tspan><tspan x="0" y="43.2">UNXXXX</tspan></text>
    </g>
    <g id="Norma-5" data-name="Norma" style="isolation: isolate">
      <text id="Pictograma_de_peligro_para_transporte" data-name="Pictograma de 
peligro para 
transporte" transform="translate(757.925 9165.773)" fill="#963030" font-size="18" font-family="Roboto-Bold, Roboto" font-weight="700" style="isolation: isolate"><tspan x="0" y="0">Pictograma de </tspan><tspan x="0" y="21.6">peligro para </tspan><tspan x="0" y="43.2">transporte</tspan></text>
    </g>
    <path id="Trazado_102299" data-name="Trazado 102299" d="M404.536,9080.314h119.5l45.021-30.61" fill="none" stroke="#963030" stroke-linecap="round" stroke-miterlimit="10" stroke-width="2"/>
    <path id="Trazado_102300" data-name="Trazado 102300" d="M430.623,9136h119.5l21.021-78.957" fill="none" stroke="#963030" stroke-linecap="round" stroke-miterlimit="10" stroke-width="2"/>
    <path id="Trazado_102301" data-name="Trazado 102301" d="M750.365,9170.254H688.677l-31.49-91.943" fill="none" stroke="#963030" stroke-linecap="round" stroke-miterlimit="10" stroke-width="2"/>
  </g>
</svg>
