<svg xmlns="http://www.w3.org/2000/svg" xmlns:xlink="http://www.w3.org/1999/xlink" width="276.523" height="276.523" viewBox="0 0 276.523 276.523">
  <defs>
    <linearGradient id="linear-gradient" x1="0.5" y1="1.056" x2="0.5" y2="-0.039" gradientUnits="objectBoundingBox">
      <stop offset="0" stop-color="#e6e6e6"/>
      <stop offset="0.42" stop-color="#fff"/>
    </linearGradient>
    <linearGradient id="linear-gradient-2" x1="0.5" y1="0.119" x2="0.5" y2="1.472" gradientUnits="objectBoundingBox">
      <stop offset="0" stop-color="#231f20"/>
      <stop offset="0.903" stop-color="#505052"/>
    </linearGradient>
    <linearGradient id="linear-gradient-3" x1="0.5" y1="-1.601" x2="0.5" y2="1.31" xlink:href="#linear-gradient-2"/>
    <linearGradient id="linear-gradient-4" x1="0.5" y1="-1.631" x2="0.5" y2="1.297" xlink:href="#linear-gradient-2"/>
    <linearGradient id="linear-gradient-5" x1="0.5" y1="-2.189" x2="0.5" y2="0.497" xlink:href="#linear-gradient-2"/>
    <linearGradient id="linear-gradient-6" x1="0.5" y1="-2.18" x2="0.5" y2="0.5" xlink:href="#linear-gradient-2"/>
    <linearGradient id="linear-gradient-7" x1="0.5" y1="-18.278" x2="0.5" y2="9.286" xlink:href="#linear-gradient-2"/>
    <linearGradient id="linear-gradient-8" x1="0.5" y1="-18.838" x2="0.5" y2="5.935" xlink:href="#linear-gradient-2"/>
    <linearGradient id="linear-gradient-9" x1="0.5" y1="-12.72" x2="0.5" y2="9.603" xlink:href="#linear-gradient-2"/>
    <linearGradient id="linear-gradient-10" x1="0.5" y1="-25.235" x2="0.5" y2="11.088" xlink:href="#linear-gradient-2"/>
    <linearGradient id="linear-gradient-11" x1="0.5" y1="-20.918" x2="0.5" y2="2.867" xlink:href="#linear-gradient-2"/>
    <linearGradient id="linear-gradient-12" x1="0.5" y1="-24.083" x2="0.5" y2="13.418" xlink:href="#linear-gradient-2"/>
    <linearGradient id="linear-gradient-13" x1="0.5" y1="-31.11" x2="0.5" y2="8.728" xlink:href="#linear-gradient-2"/>
    <linearGradient id="linear-gradient-14" x1="0.5" y1="-36.209" x2="0.5" y2="9.968" xlink:href="#linear-gradient-2"/>
    <linearGradient id="linear-gradient-15" x1="0.5" y1="-32.16" x2="0.5" y2="18.933" xlink:href="#linear-gradient-2"/>
  </defs>
  <g id="Grupo_56517" data-name="Grupo 56517" transform="translate(-474.691 -470.445)">
    <g id="Grupo_56520" data-name="Grupo 56520" transform="translate(474.691 470.446)">
      <g id="Grupo_56519" data-name="Grupo 56519">
        <g id="Grupo_56518" data-name="Grupo 56518">
          <rect id="Rect치ngulo_8213" data-name="Rect치ngulo 8213" width="195.531" height="195.531" rx="11.73" transform="translate(0 138.262) rotate(-45)" fill="#d61b22"/>
          <rect id="Rect치ngulo_8214" data-name="Rect치ngulo 8214" width="166.487" height="166.487" rx="10.497" transform="translate(20.537 138.262) rotate(-45)" fill="url(#linear-gradient)"/>
        </g>
      </g>
    </g>
    <g id="Grupo_56521" data-name="Grupo 56521" transform="translate(544.743 516.102)">
      <path id="Trazado_101611" data-name="Trazado 101611" d="M553.427,600.106a10.68,10.68,0,0,1-1.461.506c-.77.144-3.42-2.344-3.232-3.094a1.621,1.621,0,0,1,.955-.853c5.6-2.094,11.221-4.151,16.837-6.217,1.326-.488,2.644-1.008,3.987-1.448a1.285,1.285,0,0,0,1.018-1.281c.232-2.984.529-5.963.755-8.948a1.952,1.952,0,0,0-.307-1.333c-4.688-5.1-7.322-11.3-9.477-17.735-2.332-6.96-4.091-14.056-3.822-21.479.37-10.22,3.984-19.066,12.169-25.41,8.672-6.72,18.469-9.088,28.78-4.261,10.784,5.047,17.235,13.71,19.06,25.648,1.336,8.741-.187,17.116-2.714,25.463-2.029,6.7-4.717,12.983-9.242,18.395a1.994,1.994,0,0,0-.43,1.2c.014,2.832.118,5.663.118,8.5,0,.782.334,1.022,1,1.22q12.2,3.642,24.41,7.335c.235.872.137,1.485-.921,1.664a1.349,1.349,0,0,0-.8.6c-.524.863-.99,1.762-1.452,2.659a2.426,2.426,0,0,1-3.8,1.1c-.3-.179-.6-.37-1.017-.627-.383,1.252-1.09,2.063-2.122,2.061a22.86,22.86,0,0,1-1.117,3.293,1.579,1.579,0,0,1-2.274.725,1.606,1.606,0,0,0-.994.063c-.786.217-1.545.552-2.342.7a1.049,1.049,0,0,1-.89-.52c-.2-.891-.643-.905-1.307-.546a2.911,2.911,0,0,1-3.379-.365,4.262,4.262,0,0,0-1.6-.358c-.11.71-.515,1.551-.27,2.1.449,1.005.777,1.786-.34,2.484-.907.566-1.765.318-2.654-.7l-1.934.68.207.14c-.512.552-.928,1.362-1.56,1.6a3,3,0,0,1-3.4-.528,1.683,1.683,0,0,1-.458-2.18,1.113,1.113,0,0,0-.252-1.6,3.3,3.3,0,0,1-.958-3.331,18.322,18.322,0,0,0,.5-2.243,4.562,4.562,0,0,0-.436-1.578c-.048-.139-.316-.28-.29-.352.467-1.31-.606-1.521-1.334-2.079-.3-.234-.33-.933-.312-1.414.005-.127.65-.22.995-.344a4.633,4.633,0,0,0,1.658-.693c.171-.166-.3-.936-.392-1.447-.073-.4-.186-.951.011-1.212.853-1.12.259-1.923-.513-2.631-.584-.535-.895-.956-.386-1.738.13-.2-.11-.827-.363-1.054-1.864-1.668-1.952-2.3-.548-4.382.437-.648.76-1.154-.194-1.9a3.546,3.546,0,0,1-.769-2.574c.023-1,.069-1.652-1.027-2.206-1.131-.573-1.242-1.875-1.271-3.094a7.052,7.052,0,0,0-.385-1.547,8.436,8.436,0,0,0-.413-1.447,11.912,11.912,0,0,0-.922-1.419,4.864,4.864,0,0,0-1.009,1.013c-.458.863-.91,1.8.262,2.536.117.073.255.311.218.4-.472,1.077.422,2.559-1.026,3.382-.207.118-.272.792-.158,1.122.832,2.4.485,3.621-1.209,5.419a3.508,3.508,0,0,0-.407,2.24c.022.888.264,1.744-.447,2.524-.139.151.022.831.245.995.293.216.972.366,1.158.194,1.044-.969,1.475-.282,1.849.589.51,1.191.277,1.686-.906,2.077a1.746,1.746,0,0,0-.291.207c.185.48.388.985.575,1.5.5,1.355.162,3.4-1.385,4.1-.325.146-.53.646-.7,1.025-.162.362-.148.8-.307,1.166-.673,1.543-.686,1.537.2,2.871-1.022,1.262-1,1.254-.444,3.142a2.566,2.566,0,0,1-.1,1.254,14.365,14.365,0,0,1-.578,1.7c-.113.29-.245.75-.451.8-1.1.266-1.415,1.181-1.935,1.994-.29.452-.948.669-1.438.991-.25-.539-.533-1.068-.737-1.624a3.158,3.158,0,0,1-.015-.927,2.266,2.266,0,0,1-2.46-1.134c-.263-.376-1.346-.389-1.982-.244-.749.171-1.342.393-1.979-.264s-.962.019-1.311.443a3.5,3.5,0,0,1-5.62-.074,8.22,8.22,0,0,1-.662-1.768c-3.049.073-2.812-.149-3.6-2.008a2.4,2.4,0,0,0-.443.032c-2.2.555-3.038.243-4.129-1.646a1.787,1.787,0,0,0-1.71-.968c-1.081-.112-2.076-1.244-3.057-2C553.592,600.948,553.569,600.5,553.427,600.106Z" transform="translate(-523.723 -506.005)" fill="url(#linear-gradient-2)"/>
      <path id="Trazado_101612" data-name="Trazado 101612" d="M622.342,624.6c-3.152.768-5.458.039-5.8-3.929-1.23,1.457-2.522,1.121-3.709.451a3.179,3.179,0,0,1-1.157-1.511c-.268-.629-.453-.815-1.135-.484-2.089,1.017-3.553.63-4.748-1.293-.512-.826-.972-.611-1.406-.1-.828.985-1.518.437-2.149-.158a1.292,1.292,0,0,1,.33-2.077c1.186-.551.74-1.572.935-2.393.042-.184-.407-.484-.629-.731-.678,1.233-1.786-1.74-2.463.257a1.4,1.4,0,0,1-1.2.648,3.478,3.478,0,0,1-2-1.014c-.3-.425-.008-1.329.141-1.993.058-.259.483-.417.668-.674a1.752,1.752,0,0,0-.039-2.248c-.553-.693-1.292-.455-1.828.023-.815.728-1.615,1.207-2.487.219-.746-.844-.456-1.894.556-2.709a20.938,20.938,0,0,1-.457-2.6c-.076-1.384.732-2.062,2.119-1.955.538.042,1.082.008,1.685.008-.856-2.108-.15-3.21,2.009-3.528a1.225,1.225,0,0,0,.817-.759c.677-3.038,2.583-4.214,5.585-3.883,1.075.118,2.17-1,3.426-1.1.113-.009.25-.56.264-.864a4.6,4.6,0,0,1,4.522-4.716,1.911,1.911,0,0,0,2.125-1.769,3.232,3.232,0,0,1,4.843-1.86.961.961,0,0,0,.841.134,1.006,1.006,0,0,0,.317-.786c-.022-1.242.489-1.78,1.645-1.444.879.256,1.42.1,1.692-.766a1.1,1.1,0,0,1,1.524-.781c3.942,1.2,7.953,2.222,11.788,3.7,3.886,1.5,6.25,4.745,8.08,8.362a3.879,3.879,0,0,1,.327,1.64c.076,4.7.137,9.391.141,14.085a2.383,2.383,0,0,1-.624,1.564q-10.309,9.947-20.687,19.822a2.291,2.291,0,0,1-3.712-.745A7.324,7.324,0,0,1,622.342,624.6Z" transform="translate(-511.085 -485.522)" fill="url(#linear-gradient-3)"/>
      <path id="Trazado_101613" data-name="Trazado 101613" d="M550.415,580.84a3.846,3.846,0,0,0,1.351-.267c.734-.51,1.192-.469,1.625.358.393.751,1.054.8,1.876.68a3.49,3.49,0,0,1,1.664.493c.235.1.367.422.58.6,1.208,1.03,1.212,1.026,1.217,2.447a12.234,12.234,0,0,1,1.523.209c1.034.271,1.763.766,1.507,2.061a1.467,1.467,0,0,0,.47,1.075,17.522,17.522,0,0,0,1.706,1.34c2.487-1.584,4.607-.729,5.5,2.234.27.894.259,2.169,1.859,1.681.122-.037.493.425.6.71a15.566,15.566,0,0,1,.426,1.711c3.953-1.009,5.028-.282,5.715,3.725.027.158.046.451.089.454,1.718.148.93,2.651,2.757,2.85.806.087.813,1.221.1,1.83-1.36,1.167-1.388,1.51-.241,2.957.859,1.082.923,1.832.208,2.451-.742.642-1.647.376-2.532-.634a1.316,1.316,0,0,0-1.016-.376,1.067,1.067,0,0,0-.7.684c-.232,1.041-.357,2.106-.548,3.332a1.822,1.822,0,0,1,.93,2.582,2.248,2.248,0,0,1-2.852,1.157,1.777,1.777,0,0,1-.9-2.532c.279-.686.067-.968-.5-1.211-.435-.186-.864-.386-1.118-.5l-2,2.082c.157.795,1.283,1.914.01,3-1.12.955-2.247.564-3.56-.372a9.628,9.628,0,0,0-.909,2.832c.026,1.29-.265,2.264-1.438,2.794-1.245.561-2.552,1.063-3.745-.737a17.777,17.777,0,0,0-.886,1.99c-.654,2.2-2.38,3.021-4.532,2.045-.146.211-.312.425-.456.653a2.48,2.48,0,0,1-4.013.53q-10.109-10.234-20.168-20.516a2.055,2.055,0,0,1-.493-1.28c-.115-4.127-.175-8.254-.267-12.381a9.037,9.037,0,0,1,3.719-7.664,22.912,22.912,0,0,1,5.1-2.992c3.391-1.415,6.886-2.582,10.347-3.827C549.761,578.624,550.547,579.227,550.415,580.84Z" transform="translate(-529.252 -485.297)" fill="url(#linear-gradient-4)"/>
      <path id="Trazado_101614" data-name="Trazado 101614" d="M587.925,621.087c-2.382-1.432-2.014-3.375-1.04-5.4-2.053-.211-2.4-.707-1.93-2.515a1.268,1.268,0,0,1,1.36-1.085c1.781-.071,1.747-.107,1.851-1.776.069-1.132.919-1.668,1.855-2.018a2.261,2.261,0,0,1,2.618.76c1.388,1.551,1.317,1.487,2.808.062a3.427,3.427,0,0,1,2.149-.663c.718-.015,1.424.321,1.3,1.364-.018.157.573.556.879.552,3.3-.035,3.73.312,4.2,3.752a6.64,6.64,0,0,1,1.383.023,3.935,3.935,0,0,1,1.07.555c.217.127.438.424.616.394a.784.784,0,0,0,.466-.561,1.981,1.981,0,0,1,3.844-.2c.239.7.567.805,1.265.646,2.165-.493,3.4.24,4.08,2.409.316,1.007.706,1.483,1.9,1.1,1.578-.506,1.756-.28,2.721,1.162a1.867,1.867,0,0,0,1.489.759,1.955,1.955,0,0,1,2.228,1.05c.534.869.094,1.574-.592,2.226q-12.888,12.241-25.753,24.506-7.028,6.693-14.059,13.382c-.438.417-.874,1.016-1.5.348-.53-.562-.252-1.037.261-1.542.794-.782.722-1.831-.1-3.129.752-.6.715-1.249.164-2.034-.208-.294-.267-1.037-.071-1.212.76-.675.53-1.294.2-2.047-.749-1.7,0-2.958,1.346-3.963-2.222-3.2-1.818-6.024,1.356-8.057-1.773-1.756-3.39-3.576-1.556-6.208q-4.555-1.857-1.17-4.5c-.091-.234-.193-.487-.289-.74-.48-1.257-.2-2.142.836-2.681a2.354,2.354,0,0,1,3.115.718c.2.37.032.951.019,1.435-.01.366-.172.811-.015,1.07a.966.966,0,0,0,.932.241c.239-.16.32-.629.375-.978a4.228,4.228,0,0,0-.806-3.1A3.1,3.1,0,0,1,587.925,621.087Z" transform="translate(-514.243 -477.007)" fill="url(#linear-gradient-5)"/>
      <path id="Trazado_101615" data-name="Trazado 101615" d="M586.537,631.627c.514,0,.913-.031,1.307.005,1.442.135,1.948,1.231,1.216,2.472-.181.307-.289.96-.117,1.122a2.307,2.307,0,0,1,.17,3.513c2.572,2.8,2.559,2.789.63,6.412a1.52,1.52,0,0,0,0,1.217c1.663,3.275,1.409,4.985-1.2,7.547a3.265,3.265,0,0,0-.285.375c1.79,1.411,1.854,1.726.7,3.259,1.081,1.484,1.077,1.573-.2,2.838.361.528,1.285,1.141-.09,1.783-1.925-1.867-3.9-3.768-5.855-5.681q-16.187-15.812-32.369-31.628c-1.253-1.225-1.534-2.255-.853-3.26a3.4,3.4,0,0,1,4.034-1.15,1.389,1.389,0,0,0,.326.044,2.888,2.888,0,0,0,.4-.5,4.157,4.157,0,0,1,6.19-1.691c.673.449,1.022.345,1.2-.425.064-.275.151-.546.191-.824.263-1.9,1.507-2.786,3.288-2.153,1.025.363,1.488.153,2-.782a2.26,2.26,0,0,1,3.664-.633c.6.488.984.723,1.473-.184.729-1.351,1.72-1.542,4.055-.945-.181-.429-.343-.769-.469-1.123a2.426,2.426,0,0,1,.935-2.881,1.8,1.8,0,0,1,2.588.353,1.456,1.456,0,0,0,1.324.162c1.484-.662,2.139-.516,3.207.768.184.221.729.216,1.1.186.506-.04,1.032-.356,1.495-.266a1.94,1.94,0,0,1,1.185.855c.125.214-.193.826-.467,1.1-.723.715-.892,1.253-.083,2.111a1.861,1.861,0,0,1-.212,2.641c-.617.684-.743,1.072.164,1.668,1.718,1.127,1.885,2.8.512,4.328-.7.782-1.227,1.271.132,2.055,1.469.846,1.2,2.4-.39,3.072a1.308,1.308,0,0,0-.924,1.587A21.208,21.208,0,0,1,586.537,631.627Z" transform="translate(-523.579 -477.058)" fill="url(#linear-gradient-6)"/>
      <path id="Trazado_101616" data-name="Trazado 101616" d="M588.3,594.293a6.164,6.164,0,0,1-1.625-.887,1.347,1.347,0,0,1,.149-2.048,1.514,1.514,0,0,1,2.178.127,1.917,1.917,0,0,0,1.093.538,2.164,2.164,0,0,1,2.373,1.777,2.093,2.093,0,0,1-4.1.8A1.443,1.443,0,0,1,588.3,594.293Z" transform="translate(-513.063 -481.887)" fill="url(#linear-gradient-7)"/>
      <path id="Trazado_101617" data-name="Trazado 101617" d="M590.982,604.828c-.074-1.839.474-2.721,1.742-2.852a1.969,1.969,0,0,1,2.211,1.623c.229,1.286-.442,2.067-2.19,2.513-.157.905-.472,1.823-1.6,1.706a1.92,1.92,0,0,1-1.322-.987C589.387,605.8,590.152,605.223,590.982,604.828Z" transform="translate(-512.09 -478.761)" fill="url(#linear-gradient-8)"/>
      <path id="Trazado_101618" data-name="Trazado 101618" d="M580.939,583.772c-.981-1.31-.98-2.338.005-3.043a1.88,1.88,0,0,1,2.506.335c.722.919.437,1.994-.811,2.984.575.883.849,1.805-.171,2.541a1.417,1.417,0,0,1-1.977-.19C579.811,585.7,579.962,584.868,580.939,583.772Z" transform="translate(-514.822 -484.884)" fill="url(#linear-gradient-9)"/>
      <path id="Trazado_101619" data-name="Trazado 101619" d="M571.15,596.893c-.837.223-1.7.184-1.95-.779-.121-.462.178-1.443.462-1.518a4.2,4.2,0,0,1,2.193.276c1.375-.48,2.475-.267,3.027.776a1.914,1.914,0,0,1-.867,2.66C572.906,598.861,571.944,598.394,571.15,596.893Z" transform="translate(-517.918 -480.871)" fill="url(#linear-gradient-10)"/>
      <path id="Trazado_101620" data-name="Trazado 101620" d="M581.682,618.06c-.618-.679-1.138-1.495-.282-2.269a1.834,1.834,0,0,1,1.6-.275c1.043.443.877,1.374.489,2.224,1.331.955,1.655,1.963.986,2.963a1.9,1.9,0,0,1-2.564.56C580.892,620.625,580.8,619.458,581.682,618.06Z" transform="translate(-514.574 -474.936)" fill="url(#linear-gradient-11)"/>
      <path id="Trazado_101621" data-name="Trazado 101621" d="M569.568,588.587a1.961,1.961,0,0,1,1.962,1.887,1.94,1.94,0,1,1-1.962-1.887Z" transform="translate(-518.349 -482.559)" fill="url(#linear-gradient-12)"/>
      <path id="Trazado_101622" data-name="Trazado 101622" d="M579.394,607.93a1.824,1.824,0,0,1,.059-3.646,1.88,1.88,0,0,1,1.846,1.86A1.845,1.845,0,0,1,579.394,607.93Z" transform="translate(-515.512 -478.102)" fill="url(#linear-gradient-13)"/>
      <path id="Trazado_101623" data-name="Trazado 101623" d="M571.821,606.209a1.561,1.561,0,0,1-1.541,1.583,1.622,1.622,0,0,1-1.642-1.6,1.586,1.586,0,0,1,1.678-1.541A1.514,1.514,0,0,1,571.821,606.209Z" transform="translate(-518.069 -477.998)" fill="url(#linear-gradient-14)"/>
      <path id="Trazado_101624" data-name="Trazado 101624" d="M579.831,589.987a1.378,1.378,0,0,1-1.4-1.475,1.407,1.407,0,0,1,2.81-.041A1.4,1.4,0,0,1,579.831,589.987Z" transform="translate(-515.29 -482.969)" fill="url(#linear-gradient-15)"/>
    </g>
  </g>
</svg>
