<svg xmlns="http://www.w3.org/2000/svg" width="126" height="126" viewBox="0 0 126 126">
  <g id="Grupo_57243" data-name="Grupo 57243" transform="translate(-232 -20086.002)">
    <g id="Elipse_4076" data-name="Elipse 4076" transform="translate(232 20086.002)" fill="#fff" stroke="#09b291" stroke-width="5">
      <circle cx="63" cy="63" r="63" stroke="none"/>
      <circle cx="63" cy="63" r="60.5" fill="none"/>
    </g>
    <g id="Grupo_56687" data-name="Grupo 56687" transform="translate(-1405.918 19656.773)">
      <g id="Grupo_56686" data-name="Grupo 56686">
        <g id="Grupo_56685" data-name="Grupo 56685">
          <circle id="Elipse_4077" data-name="Elipse 4077" cx="1.174" cy="1.174" r="1.174" transform="translate(1681.408 501.116)" fill="#065949"/>
          <circle id="Elipse_4078" data-name="Elipse 4078" cx="1.174" cy="1.174" r="1.174" transform="translate(1681.408 508.451)" fill="#065949"/>
          <circle id="Elipse_4079" data-name="Elipse 4079" cx="1.174" cy="1.174" r="1.174" transform="translate(1685.222 505.517)" fill="#065949"/>
          <circle id="Elipse_4080" data-name="Elipse 4080" cx="1.174" cy="1.174" r="1.174" transform="translate(1677.594 504.05)" fill="#065949"/>
          <path id="Trazado_101923" data-name="Trazado 101923" d="M1731.948,486.467a1.089,1.089,0,1,0-1.6,1.472,13.332,13.332,0,1,1-19.882,17.762,1.087,1.087,0,0,0-.863-.376l-3.574.131,1.879-2.961a1.085,1.085,0,0,0,.1-.958,13.338,13.338,0,0,1,18.627-16.429,1.089,1.089,0,0,0,1-1.938,15.549,15.549,0,0,0-3.253-1.232q-.766-.2-1.538-.314v-.018a27.054,27.054,0,0,0-54.108,0v.089a4.029,4.029,0,0,0-2.934,3.872V493.2a4.028,4.028,0,0,0,4.023,4.023h1.845v3.458a16.167,16.167,0,0,0,4.893,11.554l.805.781a1.089,1.089,0,1,0,1.515-1.565l-.8-.78a13.982,13.982,0,0,1-4.23-9.99v-4.342l4.935-12.612h4.014a1.089,1.089,0,0,0,0-2.178h-4.757a1.089,1.089,0,0,0-1.014.692l-3.178,8.12v-7.723a1.089,1.089,0,0,0-1.089-1.089h-1.845a24.875,24.875,0,0,1,49.749-.1,15.343,15.343,0,0,0-5.97,1.143l-.139-.355a1.09,1.09,0,0,0-1.014-.692h-25.665a1.089,1.089,0,1,0,0,2.178h24.584a15.511,15.511,0,0,0-6.671,18.05l-2.706,4.264a1.088,1.088,0,0,0,.959,1.672l5.132-.187a15.4,15.4,0,0,0,4.247,3.224l-7.949,7.7a13.913,13.913,0,0,1-19.362,0l-3.548-3.439a1.089,1.089,0,0,0-1.516,1.564l3.217,3.118v8.123a1.089,1.089,0,1,0,2.178,0v-6.26a16.09,16.09,0,0,0,18.7,0v6.263a1.089,1.089,0,0,0,2.179,0v-8.123l7.7-7.462q.289-.282.561-.572.545.183,1.107.328a15.633,15.633,0,0,0,3.875.491,15.515,15.515,0,0,0,11.393-26.01Zm-60.284-2.745V495.04h-1.845a1.848,1.848,0,0,1-1.845-1.845v-7.628a1.848,1.848,0,0,1,1.845-1.845Z" fill="#065949"/>
          <path id="Trazado_101924" data-name="Trazado 101924" d="M1708.832,496.962a11.7,11.7,0,1,0,11.7-11.7A11.709,11.709,0,0,0,1708.832,496.962Zm21.213,0a9.517,9.517,0,1,1-9.517-9.517A9.529,9.529,0,0,1,1730.045,496.962Z" fill="#065949"/>
          <path id="Trazado_101925" data-name="Trazado 101925" d="M1717.576,492.268a3.289,3.289,0,1,0,3.289-3.29,3.293,3.293,0,0,0-3.289,3.29Zm3.289-1.112a1.111,1.111,0,1,1-1.111,1.112,1.113,1.113,0,0,1,1.111-1.112Z" fill="#065949"/>
          <path id="Trazado_101926" data-name="Trazado 101926" d="M1720.8,499.749a3.289,3.289,0,1,0,3.289-3.29A3.293,3.293,0,0,0,1720.8,499.749Zm4.4,0a1.112,1.112,0,1,1-1.112-1.111,1.113,1.113,0,0,1,1.112,1.111Z" fill="#065949"/>
          <path id="Trazado_101927" data-name="Trazado 101927" d="M1716.171,495.433a3.289,3.289,0,1,0,3.289,3.289A3.292,3.292,0,0,0,1716.171,495.433Zm0,4.4a1.111,1.111,0,1,1,1.111-1.111A1.112,1.112,0,0,1,1716.171,499.833Z" fill="#065949"/>
        </g>
      </g>
    </g>
  </g>
</svg>
