<svg xmlns="http://www.w3.org/2000/svg" width="325" height="239.715" viewBox="0 0 325 239.715">
  <g id="Grupo_57238" data-name="Grupo 57238" transform="translate(-865 -6528.87)">
    <g id="Image_Place_Holder" data-name="Image Place Holder" transform="translate(865 6548.585)" opacity="0.1">
      <rect id="Image_Place_Holder-2" data-name="Image Place Holder" width="325" height="220" rx="10" fill="#e94b46"/>
    </g>
    <g id="Grupo_56071" data-name="Grupo 56071" transform="translate(-744.984 6181.41)">
      <g id="Grupo_56067" data-name="Grupo 56067" transform="translate(1681.61 347.46)">
        <path id="Trazado_101072" data-name="Trazado 101072" d="M1714.452,420.065c4.024,3.4.507,7.479.507,7.479s-10.987,12.915-15.744,19.032-5.668,13.031-5.668,18.582V537.58a5.8,5.8,0,0,0,5.776,5.777h51.894a5.794,5.794,0,0,0,5.776-5.777V479.1c0-2.62-.008-13.085-.022-13.747-.487-23.312-11.382-23.632-12.892-37.13-.672-6.005-2.379-21.978-3.23-26s-4.022-4.248-4.022-4.248h-20.9a4.144,4.144,0,0,0-3.454,4.241v13.385A5.15,5.15,0,0,0,1714.452,420.065Z" transform="translate(-1683.058 -353.587)" fill="#e2e4f2" fill-rule="evenodd"/>
        <path id="Trazado_101073" data-name="Trazado 101073" d="M1714.452,420.717c4.024,3.4.507,7.479.507,7.479s-10.987,12.915-15.744,19.032-5.668,13.03-5.668,18.582v72.422a5.8,5.8,0,0,0,5.776,5.777h44.455a5.794,5.794,0,0,0,5.776-5.777V479.756c0-2.62-.007-13.085-.022-13.747-.487-23.312-11.382-23.632-12.892-37.13-.671-6.005-2.381-17.254-3.23-21.276s-4.022-4.248-4.022-4.248h-16.918v12.9A5.15,5.15,0,0,0,1714.452,420.717Z" transform="translate(-1683.058 -354.239)" fill="#fff" fill-rule="evenodd"/>
        <rect id="Rectángulo_5369" data-name="Rectángulo 5369" width="3.045" height="6.526" rx="0.574" transform="translate(41.796 46.958)" fill="#bcd79e"/>
        <path id="Rectángulo_5370" data-name="Rectángulo 5370" d="M2.366,0H10.2a2.366,2.366,0,0,1,2.366,2.366V13.2A2.366,2.366,0,0,1,10.2,15.562H2.367A2.367,2.367,0,0,1,0,13.195V2.366A2.366,2.366,0,0,1,2.366,0Z" transform="translate(37.037 35.118)" fill="#ccdfaa"/>
        <path id="Trazado_101074" data-name="Trazado 101074" d="M1714.032,442.08s2.14-2.809,6.8-1.569,8.382,5.431,11.511,6.2-13.045,6.022-16.234,3.719A6.283,6.283,0,0,1,1714.032,442.08Z" transform="translate(-1685.442 -358.707)" fill="#bcd79e" fill-rule="evenodd"/>
        <path id="Trazado_101075" data-name="Trazado 101075" d="M1712.141,442.34c-3.282,3.894-6.524,7.835-9.618,11.807-3.74,4.81-4.91,10.423-4.91,16.391V542.96a2.22,2.22,0,0,0,2.2,2.2h51.894a2.222,2.222,0,0,0,2.206-2.2V484.484c0-4.539.069-9.141-.022-13.673-.116-5.463-.829-11.008-3.1-16.026a69.257,69.257,0,0,0-5.239-8.676c-5.555-7.51-15.858,1.847-25.3,1.6C1712.086,447.487,1712.007,443.435,1712.141,442.34Z" transform="translate(-1683.551 -358.967)" fill="#bcd79e" fill-rule="evenodd"/>
        <path id="Trazado_101076" data-name="Trazado 101076" d="M1712.141,442.34c-3.282,3.894-6.524,7.835-9.618,11.807-3.74,4.81-4.91,10.423-4.91,16.391V542.96a2.22,2.22,0,0,0,2.2,2.2h49.791a5.682,5.682,0,0,0,.44-2.2V484.484c0-2.62-.007-13.085-.022-13.747-.342-16.279-5.754-21.348-9.5-27.52-5.675-.5-13.212,4.675-20.271,4.488C1712.086,447.487,1712.007,443.435,1712.141,442.34Z" transform="translate(-1683.551 -358.967)" fill="#ccdfaa" fill-rule="evenodd"/>
        <path id="Trazado_101077" data-name="Trazado 101077" d="M1682.831,349.683h6.563a1.227,1.227,0,0,1,1.221,1.225V355a1.227,1.227,0,0,1-1.221,1.225h-6.563A1.224,1.224,0,0,1,1681.61,355v-4.1A1.224,1.224,0,0,1,1682.831,349.683Z" transform="translate(-1681.61 -347.73)" fill="#6d6e7e" fill-rule="evenodd"/>
        <path id="Rectángulo_5371" data-name="Rectángulo 5371" d="M2.824,0h9.336a2.822,2.822,0,0,1,2.822,2.822v9.918a2.822,2.822,0,0,1-2.822,2.822H2.822A2.822,2.822,0,0,1,0,12.739V2.824A2.824,2.824,0,0,1,2.824,0Z" transform="translate(35.827 23.818)" fill="#809b7f"/>
        <rect id="Rectángulo_5372" data-name="Rectángulo 5372" width="29.912" height="6.967" rx="3.483" transform="translate(29.815 19.67)" fill="#809b7f"/>
        <path id="Trazado_101078" data-name="Trazado 101078" d="M1694.988,357.006l-5.226,2.064V370.3a27.05,27.05,0,0,1-4.885,15.55s-.512,1.255.7,1.255h2.081a5.929,5.929,0,0,0,4.251-2.57c1.953-2.552,9.943-21.245,9.943-21.245Z" transform="translate(-1681.993 -348.618)" fill="#9ab87e" fill-rule="evenodd"/>
        <path id="Trazado_101079" data-name="Trazado 101079" d="M1695.677,357.006l-5.226,2.064v4.991l9.151,5.974c1.658-3.752,2.938-6.741,2.938-6.741Z" transform="translate(-1682.682 -348.618)" fill="#809b7f" fill-rule="evenodd"/>
        <path id="Trazado_101080" data-name="Trazado 101080" d="M1745.458,362.274v5.449c0,2.89-2.081,2.89-2.081,2.89h-31.1a5.713,5.713,0,0,1-2.677-1.233s-9.3-8.2-11.129-9.77-6.037-1.7-6.037-1.7l4.929-6.459,28.719-3.992h5.222s2.507-.062,3.483.956,8.88,9.646,8.88,9.646A6.493,6.493,0,0,1,1745.458,362.274Z" transform="translate(-1682.923 -347.46)" fill="#8fad7d" fill-rule="evenodd"/>
        <path id="Rectángulo_5373" data-name="Rectángulo 5373" d="M2.931,0H19.982a2.931,2.931,0,0,1,2.931,2.931v9.7a2.931,2.931,0,0,1-2.931,2.931H2.928A2.928,2.928,0,0,1,0,12.634v-9.7A2.931,2.931,0,0,1,2.931,0Z" transform="translate(31.862 28.831)" fill="#8fad7d"/>
        <path id="Rectángulo_5374" data-name="Rectángulo 5374" d="M2.931,0h11.5a2.931,2.931,0,0,1,2.931,2.931v9.7a2.931,2.931,0,0,1-2.931,2.931H2.928A2.928,2.928,0,0,1,0,12.634v-9.7A2.931,2.931,0,0,1,2.931,0Z" transform="translate(31.862 28.831)" fill="#9ab87e"/>
        <path id="Rectángulo_5375" data-name="Rectángulo 5375" d="M2.226,0H40a2.226,2.226,0,0,1,2.226,2.226v6a2.223,2.223,0,0,1-2.223,2.223H2.223A2.223,2.223,0,0,1,0,8.229v-6A2.226,2.226,0,0,1,2.226,0Z" transform="translate(4.162 0)" fill="#9ab87e"/>
        <path id="Trazado_101081" data-name="Trazado 101081" d="M1714.49,477.611h25.269a5.683,5.683,0,0,1,5.668,5.665V527.2a5.683,5.683,0,0,1-5.668,5.663H1714.49a5.682,5.682,0,0,1-5.669-5.663V483.276A5.682,5.682,0,0,1,1714.49,477.611Z" transform="translate(-1684.91 -363.245)" fill="#fff" fill-rule="evenodd"/>
        <path id="Trazado_101082" data-name="Trazado 101082" d="M1718.821,506.455l5.245-13.813a1.254,1.254,0,0,1,1.177-.807l11.35.066a1.25,1.25,0,0,1,1.1,1.956l-4.432,6.473h2.934a1.256,1.256,0,0,1,1.107,1.844l-10.226,19.257a1.253,1.253,0,0,1-2.32-.9l3.3-12.374h-8.065a1.383,1.383,0,0,1-.443-.083A1.251,1.251,0,0,1,1718.821,506.455Z" transform="translate(-1686.113 -364.97)" fill="#ccdfaa" fill-rule="evenodd"/>
      </g>
      <g id="Grupo_56068" data-name="Grupo 56068" transform="translate(1732.083 350.14)">
        <rect id="Rectángulo_5376" data-name="Rectángulo 5376" width="7.872" height="71.889" transform="translate(65.321 70.754)" fill="#c3322b"/>
        <path id="Trazado_101083" data-name="Trazado 101083" d="M1766.351,368.9v2.15a7.89,7.89,0,0,1-2.381,5.249c-2.423,2.425-18.74,18.74-18.74,18.74s-6.182,5.647-6.182,11.63v121.7a9.4,9.4,0,0,0,9.377,9.377h59.29a9.4,9.4,0,0,0,9.38-9.377V493.806c-.229-1.947-1.255-4.619-5.166-4.619h-11.39s-4.619-.463-4.619-6V434.143c0-5.545,4.619-6,4.619-6h11.39c5.033,0,4.937-2.677,5.166-4.62V406.675c0-5.982-6.184-11.63-6.184-11.63l-18.74-18.74a7.883,7.883,0,0,1-2.38-5.249v-7.577h-23.441Z" transform="translate(-1739.049 -352.083)" fill="#465ea6" fill-rule="evenodd"/>
        <path id="Trazado_101084" data-name="Trazado 101084" d="M1792.942,366.073h-22.83a2.585,2.585,0,0,1-2.576-2.578V353.088a2.584,2.584,0,0,1,2.576-2.578h22.83a2.583,2.583,0,0,1,2.574,2.578v10.407A2.585,2.585,0,0,1,1792.942,366.073Z" transform="translate(-1742.504 -350.51)" fill="#c3322b" fill-rule="evenodd"/>
        <path id="Trazado_101085" data-name="Trazado 101085" d="M1774.431,353.088v10.407a2.587,2.587,0,0,0,2.578,2.578h-6.9c-.1,0-.2-.01-.305-.019a2.587,2.587,0,0,1-2.271-2.559V353.088a2.584,2.584,0,0,1,2.576-2.578h6.9A2.585,2.585,0,0,0,1774.431,353.088Z" transform="translate(-1742.504 -350.51)" fill="#a42429" fill-rule="evenodd"/>
        <path id="Trazado_101086" data-name="Trazado 101086" d="M1757.322,395.618s-6.183,5.647-6.183,11.63v121.7a9.4,9.4,0,0,0,9.378,9.377h-12.091a9.4,9.4,0,0,1-9.377-9.377v-121.7c0-5.982,6.182-11.63,6.182-11.63s16.317-16.315,18.74-18.74a7.89,7.89,0,0,0,2.381-5.249V368.2c.1.009.2.019.305.019h11.786v3.409a7.88,7.88,0,0,1-2.381,5.249C1773.638,379.3,1757.322,395.618,1757.322,395.618Z" transform="translate(-1739.049 -352.655)" fill="#2f4697" fill-rule="evenodd"/>
        <path id="Trazado_101087" data-name="Trazado 101087" d="M1798.394,381.011a.889.889,0,0,0-1.277,1.239l14.3,14.755a.888.888,0,1,0,1.276-1.235l-14.3-14.76Zm17.951,18.528a.89.89,0,0,0-1.277,1.24l1.534,1.58a.888.888,0,0,0,1.278-1.235Z" transform="translate(-1746.061 -354.177)" fill="#fff" fill-rule="evenodd"/>
      </g>
      <g id="Grupo_56069" data-name="Grupo 56069" transform="translate(1789.424 347.462)">
        <path id="Trazado_101088" data-name="Trazado 101088" d="M1837.146,420.065c4.024,3.4.511,7.481.511,7.481s-10.991,12.914-15.748,19.032-5.663,13.03-5.663,18.582V537.58a5.794,5.794,0,0,0,5.776,5.777h51.89a5.794,5.794,0,0,0,5.776-5.777V479.108c0-2.622-.005-13.086-.019-13.75-.492-23.31-11.385-23.63-12.9-37.128-.67-6.007-2.376-21.98-3.228-26s-4.024-4.248-4.024-4.248h-20.9a4.141,4.141,0,0,0-3.454,4.238v13.385A5.139,5.139,0,0,0,1837.146,420.065Z" transform="translate(-1805.753 -353.589)" fill="#ced1e8" fill-rule="evenodd"/>
        <path id="Trazado_101089" data-name="Trazado 101089" d="M1837.146,420.717c4.024,3.4.511,7.481.511,7.481s-10.991,12.914-15.748,19.032-5.663,13.03-5.663,18.582v72.419a5.794,5.794,0,0,0,5.776,5.777h44.451a5.794,5.794,0,0,0,5.776-5.777V479.759c0-2.622-.009-13.086-.019-13.75-.492-23.31-11.385-23.63-12.9-37.128-.669-6.005-2.381-17.257-3.228-21.279s-4.024-4.248-4.024-4.248h-16.914v12.9A5.139,5.139,0,0,0,1837.146,420.717Z" transform="translate(-1805.753 -354.241)" fill="#fff" fill-rule="evenodd"/>
        <path id="Rectángulo_5377" data-name="Rectángulo 5377" d="M.574,0h1.9a.577.577,0,0,1,.577.577V5.95a.574.574,0,0,1-.574.574H.577A.577.577,0,0,1,0,5.947V.574A.574.574,0,0,1,.574,0Z" transform="translate(41.794 46.959)" fill="#8fccee"/>
        <path id="Rectángulo_5378" data-name="Rectángulo 5378" d="M2.366,0H10.2a2.368,2.368,0,0,1,2.368,2.368V13.194A2.366,2.366,0,0,1,10.2,15.559H2.368A2.368,2.368,0,0,1,0,13.191V2.366A2.366,2.366,0,0,1,2.366,0Z" transform="translate(37.037 35.119)" fill="#bddff2"/>
        <path id="Trazado_101090" data-name="Trazado 101090" d="M1836.726,442.08s2.14-2.807,6.8-1.567,8.384,5.431,11.512,6.2-13.047,6.022-16.235,3.719A6.286,6.286,0,0,1,1836.726,442.08Z" transform="translate(-1808.137 -358.709)" fill="#8fccee" fill-rule="evenodd"/>
        <path id="Trazado_101091" data-name="Trazado 101091" d="M1834.835,442.34c-3.278,3.9-6.524,7.837-9.614,11.81-3.739,4.81-4.915,10.421-4.915,16.391V542.96a2.225,2.225,0,0,0,2.21,2.2h51.89a2.224,2.224,0,0,0,2.209-2.2V484.488c0-4.541.069-9.142-.025-13.674-.113-5.466-.826-11.008-3.1-16.029a69.526,69.526,0,0,0-5.24-8.674c-5.554-7.513-15.857,1.847-25.3,1.594C1834.78,447.488,1834.706,443.437,1834.835,442.34Z" transform="translate(-1806.245 -358.969)" fill="#8fccee" fill-rule="evenodd"/>
        <path id="Trazado_101092" data-name="Trazado 101092" d="M1834.835,442.34c-3.278,3.9-6.524,7.837-9.614,11.81-3.739,4.81-4.915,10.421-4.915,16.391V542.96a2.225,2.225,0,0,0,2.21,2.2H1872.3a5.747,5.747,0,0,0,.438-2.2V484.488c0-2.622-.009-13.086-.019-13.75-.344-16.277-5.757-21.345-9.506-27.517-5.677-.5-13.214,4.674-20.269,4.485C1834.78,447.488,1834.706,443.437,1834.835,442.34Z" transform="translate(-1806.245 -358.969)" fill="#bddff2" fill-rule="evenodd"/>
        <path id="Rectángulo_5379" data-name="Rectángulo 5379" d="M1.393,0H7.614A1.394,1.394,0,0,1,9.008,1.394V5.152A1.391,1.391,0,0,1,7.617,6.543H1.393A1.393,1.393,0,0,1,0,5.15V1.393A1.393,1.393,0,0,1,1.393,0Z" transform="translate(0 1.954)" fill="#131742"/>
        <path id="Rectángulo_5380" data-name="Rectángulo 5380" d="M2.821,0h9.343a2.821,2.821,0,0,1,2.821,2.821v9.916a2.822,2.822,0,0,1-2.822,2.822H2.821A2.821,2.821,0,0,1,0,12.738V2.821A2.821,2.821,0,0,1,2.821,0Z" transform="translate(35.826 23.818)" fill="#131742"/>
        <path id="Rectángulo_5381" data-name="Rectángulo 5381" d="M3.485,0H26.424a3.484,3.484,0,0,1,3.484,3.484v0a3.484,3.484,0,0,1-3.484,3.484H3.484A3.484,3.484,0,0,1,0,3.485v0A3.485,3.485,0,0,1,3.485,0Z" transform="translate(29.819 19.668)" fill="#1d204d"/>
        <path id="Trazado_101093" data-name="Trazado 101093" d="M1817.686,357.009l-5.231,2.064v11.234a27.05,27.05,0,0,1-4.885,15.55s-.506,1.252.7,1.252h2.081a5.925,5.925,0,0,0,4.251-2.57c1.953-2.549,9.938-21.245,9.938-21.245Z" transform="translate(-1804.688 -348.62)" fill="#c3322b" fill-rule="evenodd"/>
        <path id="Trazado_101094" data-name="Trazado 101094" d="M1818.375,357.009l-5.231,2.064v4.991l9.156,5.974c1.658-3.752,2.932-6.743,2.932-6.743Z" transform="translate(-1805.377 -348.62)" fill="#a42429" fill-rule="evenodd"/>
        <path id="Trazado_101095" data-name="Trazado 101095" d="M1868.154,362.276v5.45c0,2.89-2.081,2.89-2.081,2.89h-31.1a5.708,5.708,0,0,1-2.677-1.235s-9.308-8.2-11.133-9.768-6.031-1.7-6.031-1.7l4.929-6.459,28.718-3.993H1854s2.51-.064,3.483.957,8.88,9.646,8.88,9.646A6.473,6.473,0,0,1,1868.154,362.276Z" transform="translate(-1805.618 -347.462)" fill="#c3322b" fill-rule="evenodd"/>
        <path id="Rectángulo_5382" data-name="Rectángulo 5382" d="M2.931,0H19.983a2.934,2.934,0,0,1,2.934,2.934v9.694a2.934,2.934,0,0,1-2.934,2.934H2.934A2.934,2.934,0,0,1,0,12.627v-9.7A2.931,2.931,0,0,1,2.931,0Z" transform="translate(31.86 28.832)" fill="#a42429"/>
        <path id="Rectángulo_5383" data-name="Rectángulo 5383" d="M2.931,0h11.5a2.934,2.934,0,0,1,2.934,2.934v9.7a2.931,2.931,0,0,1-2.931,2.931H2.934A2.934,2.934,0,0,1,0,12.627v-9.7A2.931,2.931,0,0,1,2.931,0Z" transform="translate(31.86 28.832)" fill="#c3322b"/>
        <path id="Trazado_101096" data-name="Trazado 101096" d="M1811,347.463h38.317a1.963,1.963,0,0,1,1.958,1.953v6.546a1.961,1.961,0,0,1-1.958,1.953H1811a1.96,1.96,0,0,1-1.958-1.953v-6.546A1.962,1.962,0,0,1,1811,347.463Z" transform="translate(-1804.879 -347.462)" fill="#ce542b" fill-rule="evenodd"/>
        <path id="Trazado_101097" data-name="Trazado 101097" d="M1837.183,477.611h25.273a5.686,5.686,0,0,1,5.669,5.669V527.2a5.686,5.686,0,0,1-5.669,5.668h-25.273a5.682,5.682,0,0,1-5.663-5.668V483.28A5.682,5.682,0,0,1,1837.183,477.611Z" transform="translate(-1807.605 -363.247)" fill="#131742" fill-rule="evenodd"/>
        <path id="Trazado_101098" data-name="Trazado 101098" d="M1841.515,506.461l5.25-13.814a1.247,1.247,0,0,1,1.176-.807l11.35.064a1.233,1.233,0,0,1,.772.216,1.255,1.255,0,0,1,.33,1.742l-4.432,6.47h2.932a1.278,1.278,0,0,1,.59.148,1.256,1.256,0,0,1,.517,1.7l-10.223,19.257a1.255,1.255,0,0,1-2.323-.905l3.3-12.374h-8.069a1.138,1.138,0,0,1-.438-.083A1.249,1.249,0,0,1,1841.515,506.461Z" transform="translate(-1808.808 -364.973)" fill="#8fccee" fill-rule="evenodd"/>
      </g>
    </g>
  </g>
</svg>
