<svg xmlns="http://www.w3.org/2000/svg" xmlns:xlink="http://www.w3.org/1999/xlink" width="340.817" height="326.143" viewBox="0 0 340.817 326.143">
  <defs>
    <linearGradient id="linear-gradient" x1="0.5" y1="1.056" x2="0.5" y2="-0.039" gradientUnits="objectBoundingBox">
      <stop offset="0" stop-color="#e6e6e6"/>
      <stop offset="0.42" stop-color="#fff"/>
    </linearGradient>
    <linearGradient id="linear-gradient-2" x1="0.5" y1="0.877" x2="0.5" y2="0.05" gradientUnits="objectBoundingBox">
      <stop offset="0" stop-color="#231f20"/>
      <stop offset="0.903" stop-color="#505052"/>
    </linearGradient>
    <linearGradient id="linear-gradient-7" x1="39.912" y1="0.877" x2="39.912" y2="0.05" xlink:href="#linear-gradient-2"/>
    <linearGradient id="linear-gradient-11" x1="0.5" y1="0" x2="0.5" y2="1" xlink:href="#linear-gradient-2"/>
    <clipPath id="clip-path">
      <rect id="Rectángulo_5359" data-name="Rectángulo 5359" width="93.608" height="93.608" rx="10.497" transform="translate(132.382 66.191) rotate(135)" fill="none"/>
    </clipPath>
    <linearGradient id="linear-gradient-14" x1="0" y1="0.5" x2="1" y2="0.5" xlink:href="#linear-gradient-2"/>
    <linearGradient id="linear-gradient-21" x1="0" y1="0.5" x2="1" y2="0.5" xlink:href="#linear-gradient-2"/>
    <linearGradient id="linear-gradient-25" x1="0" y1="0.5" x2="1" y2="0.5" xlink:href="#linear-gradient-2"/>
    <linearGradient id="linear-gradient-26" x1="0" y1="0.5" x2="1" y2="0.5" xlink:href="#linear-gradient-2"/>
    <linearGradient id="linear-gradient-28" x1="0" y1="0.5" x2="1" y2="0.5" xlink:href="#linear-gradient-2"/>
    <linearGradient id="linear-gradient-30" x1="0" y1="0.5" x2="1" y2="0.5" xlink:href="#linear-gradient-2"/>
  </defs>
  <g id="Grupo_56029" data-name="Grupo 56029" transform="translate(-23.432 -1517.355)">
    <g id="Grupo_56009" data-name="Grupo 56009" transform="translate(23.432 1680.484)">
      <g id="Grupo_56008" data-name="Grupo 56008" transform="translate(0 0)">
        <g id="Grupo_56006" data-name="Grupo 56006">
          <g id="Grupo_56005" data-name="Grupo 56005">
            <rect id="Rectángulo_5353" data-name="Rectángulo 5353" width="115.268" height="115.268" rx="11.73" transform="translate(0 81.507) rotate(-45)" fill="#d61b22"/>
            <rect id="Rectángulo_5354" data-name="Rectángulo 5354" width="98.147" height="98.147" rx="10.497" transform="translate(12.107 81.507) rotate(-45)" fill="url(#linear-gradient)"/>
          </g>
        </g>
        <g id="Grupo_56007" data-name="Grupo 56007" transform="translate(33.093 36.998)">
          <path id="Trazado_101001" data-name="Trazado 101001" d="M67.154,1860.6l11.964,12.034h22.891V1860.6H94.656s-.3,1.637-3.02,1.384a2.992,2.992,0,0,1-2.766,1.614,4.6,4.6,0,0,1-3.2-2.1s-1.96.253-2.628-1.014H67.154Z" transform="translate(-67.154 -1800.9)" fill="url(#linear-gradient-2)"/>
          <path id="Trazado_101002" data-name="Trazado 101002" d="M97.27,1852.031h0l-2.423-5.011-2.212,4.927c-.025.053-.05.1-.071.159l-.03.067.008.005a2.541,2.541,0,1,0,4.728-.147Z" transform="translate(-73.288 -1797.627)" fill="url(#linear-gradient-2)"/>
          <path id="Trazado_101003" data-name="Trazado 101003" d="M92.792,1838.569h0l-2.423-5.01-2.212,4.927c-.025.053-.05.1-.072.159l-.03.067.008.005a2.541,2.541,0,1,0,4.728-.147Z" transform="translate(-72.199 -1794.354)" fill="url(#linear-gradient-2)"/>
          <path id="Trazado_101004" data-name="Trazado 101004" d="M147.878,1823.371h0l-2.424-5.01-2.212,4.927c-.025.052-.05.1-.071.159l-.03.067.008.005a2.516,2.516,0,0,0-.157.854,2.546,2.546,0,1,0,4.886-1Z" transform="translate(-85.591 -1790.66)" fill="url(#linear-gradient-2)"/>
          <path id="Trazado_101005" data-name="Trazado 101005" d="M120.3,1816.474l-21.531-3.642-1.936-2.72-2.578-.174-2.679,14.374,3.154.416,1.549-1.706,22.914,4.149s5.625,1.521,6.916-4.149S120.3,1816.474,120.3,1816.474Zm4,6.178-16.356-.38-12.068-1.556-1.107,1.349h-.657l1.764-9.51h.415l.622,2.213,21.681,3.7C125.514,1819.09,124.3,1822.651,124.3,1822.651Z" transform="translate(-73.092 -1788.612)" fill="url(#linear-gradient-2)"/>
          <path id="Trazado_101006" data-name="Trazado 101006" d="M113.217,1788.3l21.531-3.642,1.937-2.72,2.577-.174,2.679,14.375-3.154.415-1.549-1.706L114.323,1799s-5.625,1.521-6.916-4.15S113.217,1788.3,113.217,1788.3Zm-1.989,2.858,15.779.509,10.635.875,1.107,1.348h.656l-1.763-9.509h-.416l-.622,2.213-21.681,3.7C111.515,1790.767,111.228,1791.156,111.228,1791.156Z" transform="translate(-76.902 -1781.762)" fill="url(#linear-gradient-7)"/>
          <path id="Trazado_101007" data-name="Trazado 101007" d="M174.033,1849.312l-3.7.173-2.478-2.4a2.032,2.032,0,0,0-.528-.87l-14.968-14.367a2.052,2.052,0,0,0-2.9.06l-.866.9a2.052,2.052,0,0,0,.059,2.9l8.008,7.686-.78-.167-8.437,1.141-.185.064a2.772,2.772,0,0,1,.1.743,2.906,2.906,0,0,1-2.95,2.859,2.946,2.946,0,0,1-2.764-1.865,2.3,2.3,0,0,1-1.962,1.035,2.177,2.177,0,0,1-2.232-1.776H125.916a2.052,2.052,0,0,0-2.051,2.052v.105a2.052,2.052,0,0,0,2.051,2.052h16.028v1.07h-17.71a2.052,2.052,0,0,0-2.052,2.052v.105a2.052,2.052,0,0,0,2.052,2.051h17.71v.552H126.015a2.052,2.052,0,0,0-2.052,2.052v.657a2.052,2.052,0,0,0,2.052,2.052h15.929v.547H130.527a2.052,2.052,0,0,0-2.052,2.052v.121a2.052,2.052,0,0,0,2.052,2.052h34.792l12.069-11.227Z" transform="translate(-80.532 -1793.799)" fill="url(#linear-gradient-2)"/>
        </g>
      </g>
      <path id="Trazado_101008" data-name="Trazado 101008" d="M144.514,1838.569h0l-2.424-5.01-2.212,4.927c-.025.053-.05.1-.072.159l-.03.067.008.005a2.542,2.542,0,1,0,4.729-.147Z" transform="translate(-51.68 -1757.357)" fill="url(#linear-gradient-2)"/>
    </g>
    <g id="Grupo_56014" data-name="Grupo 56014" transform="translate(112.794 1597.349)">
      <g id="Grupo_56012" data-name="Grupo 56012" transform="translate(0 0)">
        <g id="Grupo_56011" data-name="Grupo 56011">
          <g id="Grupo_56010" data-name="Grupo 56010">
            <rect id="Rectángulo_5355" data-name="Rectángulo 5355" width="115.268" height="115.268" rx="11.73" transform="translate(0 81.507) rotate(-45)" fill="#d61b22"/>
            <rect id="Rectángulo_5356" data-name="Rectángulo 5356" width="98.147" height="98.147" rx="10.497" transform="translate(12.107 81.507) rotate(-45)" fill="url(#linear-gradient)"/>
          </g>
        </g>
      </g>
      <g id="Grupo_56013" data-name="Grupo 56013" transform="translate(51.252 26.818)">
        <path id="Trazado_101009" data-name="Trazado 101009" d="M251.623,1750.18a22.078,22.078,0,1,0-23.4,0H211.361v4.429h57.055v-4.429ZM221.4,1731.472a18.519,18.519,0,1,1,18.52,18.52A18.54,18.54,0,0,1,221.4,1731.472Z" transform="translate(-209.734 -1670.854)" fill="url(#linear-gradient-11)"/>
        <path id="Trazado_101010" data-name="Trazado 101010" d="M212.764,1719.093a26.6,26.6,0,0,1,53.2-.267,40.3,40.3,0,0,0,.135-24.41s-5.808-9.852-5.648-17.987c0,0-4.044-.188-6.835,8.709.241-.757,1.755-6.044-1.814-9.479,0,0-3.9-2.262-2.984-5.3l1.2-3.369s-7.22,1.01-6.932,9.242c0,0-2.214-3.129-.722-8.231a14.973,14.973,0,0,0-.516-9.531s-.157,2.937-7.233,9.964-4.958,12.948-3.706,16.125c0,0-2.937-.867-2.551-5.873s-.625-6.353-3.128-7.461c0,0,1.588,3.9-2.551,8.9a8.966,8.966,0,0,0-1.315,8.839c-1.328-2.489-3.984-6.182-8.215-6.624,0,0,2.792,3.417-2.262,14.825,0,0-4.765,13.478,1.781,23.3h.132Q212.764,1719.787,212.764,1719.093Z" transform="translate(-209.211 -1658.475)" fill="url(#linear-gradient-11)"/>
      </g>
    </g>
    <g id="Grupo_56021" data-name="Grupo 56021" transform="translate(23.432 1517.355)">
      <g id="Grupo_56017" data-name="Grupo 56017" transform="translate(0 0)">
        <g id="Grupo_56016" data-name="Grupo 56016">
          <g id="Grupo_56015" data-name="Grupo 56015">
            <rect id="Rectángulo_5357" data-name="Rectángulo 5357" width="115.268" height="115.268" rx="11.73" transform="translate(0 81.507) rotate(-45)" fill="#d61b22"/>
            <rect id="Rectángulo_5358" data-name="Rectángulo 5358" width="98.147" height="98.147" rx="10.497" transform="translate(12.107 81.507) rotate(-45)" fill="url(#linear-gradient)"/>
          </g>
        </g>
      </g>
      <g id="Grupo_56020" data-name="Grupo 56020" transform="translate(15.316 15.316)">
        <g id="Grupo_56019" data-name="Grupo 56019" transform="translate(0 0)" clip-path="url(#clip-path)">
          <g id="Grupo_56018" data-name="Grupo 56018" transform="translate(-4.242 12.443)">
            <path id="Trazado_101011" data-name="Trazado 101011" d="M103.63,1631.885c-.015.172-.108.441-.033.5,1,.807,1.664,1.993,3.28,2.01,5.923.064,11.845.276,17.768.428a4.523,4.523,0,0,0,.557-.066l-.549-3.008c2.1.168,3.3-1.136,4.524-2.424a.89.89,0,0,1,.764-.241c2.437,1.108,4.854,2.26,7.386,3.453l-1.979,2.755c2.337,0,4.389-.042,6.439.008,7.309.175,14.619.361,21.926.6a7.378,7.378,0,0,1,2.06.716l-.086.4-58.887-1.969,1.054,1.481-.263.317,25.446,3.672-.515,3.263-10.413-2.548c1.089.989,2.268,1.9,1.519,3.746-2.465-.38-5.033-.61-7.5-1.231-1.11-.279-2.044-1.312-3.006-2.068-.146-.115-.126-.672.021-.877a1.469,1.469,0,0,1,.925-.616,14.129,14.129,0,0,1,1.946.184,3.456,3.456,0,0,0,.7-.081l.048-.356-9.569-2.471-.705,1.531c1.385.765,2.722,1.5,4.056,2.242,3.56,1.976,7.108,3.976,10.687,5.917a3.477,3.477,0,0,1,1.723,2.411l-16.479-10.224c-.545.6-.571.635,0,1.054q4.468,3.264,8.961,6.5c2.959,2.134,5.924,4.258,8.979,6.452l-.886,1-17.913-13.956c-.4.542-1.287.856-.556,1.737l.021-.022c-.359.047-.858-.042-1.056.161-3.014,3.11-6.7,4.024-10.871,3.432a12.579,12.579,0,0,1-8.017-4.316l-5.624,5.1a12.966,12.966,0,0,1,2.219.029c.479.095,1.275.434,1.286.693a3.068,3.068,0,0,1-.534,1.983,1.288,1.288,0,0,1-1.9.4c-.279-.2-.977.164-1.626.3l-1.381-1.629-12.251,11.16-1.337-1.661,20.867-16.694-1.4-2.138-17.991,10.378c-.491-.722-.314-1.078.352-1.425,5.074-2.649,10.131-5.332,15.193-8.006a4.516,4.516,0,0,0,1.437-1.035l-10.556,3.408c-.3-.831-.1-1.191.708-1.385,3.209-.777,6.4-1.617,9.6-2.438.289-.075.569-.186.853-.28l-.033-.3a5.751,5.751,0,0,0-1.057.064q-10.067,2.5-20.127,5.013c-4.061,1.01-8.125,2-12.3,3.03l-.185-1.141,33.28-7.409c0-.811-.26-1.064-.984-.965q-12.967,1.781-25.941,3.518c-5.789.773-11.582,1.505-17.477,2.269l-.163-1.127,21.889-2.492-.005-.174-5.4-.263a1.3,1.3,0,0,1,.749-1.87c.817-.364,1.535-1.354,2.449-.173.092.118.257.177.354.293,1.566,1.854,3.485,2.115,5.837,1.781,5.9-.837,11.834-1.412,17.754-2.094.151-.017.3-.059.445-.089-.263-1.734-.263-1.77-1.931-1.8-2.217-.036-4.435-.009-6.716-.009l.095,1.62a4.226,4.226,0,0,1-.986-.013c-.633-.161-.948.1-1.308.6a1.626,1.626,0,0,1-1.18.552,4.753,4.753,0,0,1-4.041-2.181l.6-1.125c-.332-.045-.611-.1-.892-.116-4.844-.238-9.689-.447-14.53-.732a5.771,5.771,0,0,1-1.72-.713l.129-.365a5.816,5.816,0,0,1,.743-.037c4.95.359,9.9.746,14.85,1.073.975.064,1.975-.217,2.945-.132,1.74.152,3.46.524,5.2.691,2.872.276,5.764.361,8.623.727,1.642.21,3.224.859,4.855,1.21a1.979,1.979,0,0,0,1.437-.3c1.192-.905,2.3-1.922,3.554-2.995l5.774,4.816c1.331-.841,2.71-1.654,4.009-2.579.282-.2.332-.794.389-1.22a11.1,11.1,0,0,0,.014-1.453l1.6.373Zm23.333,3.009h2.318C128.451,1633.709,127.7,1634.481,126.963,1634.895Z" transform="translate(-38.063 -1572.272)" fill="url(#linear-gradient-14)"/>
            <path id="Trazado_101012" data-name="Trazado 101012" d="M94.568,1608.842c4.917-9.188,7.759-10.735,17.6-9.557,5.307-15.031,10.618-30.079,15.976-45.254l3.164,1.238q-7.833,21.9-15.623,43.681l.223.094,11.571-22.881,1.991,1.147-14.23,23.6,2.456,2.221c10.75-11.511,21.325-23.15,32.072-34.789l1.721,1.536-27.318,27.669c1.3.083,2.564.7,3.66-.334.919-.867,1.9-1.67,2.944-2.586-.638,3.043-2.986,5.825-6.8,8.123l-.789-1.856a17.532,17.532,0,0,1-1.684.737,11.622,11.622,0,0,1-1.236.158,1.338,1.338,0,0,0-.645.331c-.461.46-.882.961-1.372,1.5l.678,1.025c-2.936-.241-3.741,2.406-5.461,3.751a26.494,26.494,0,0,0-2.744,2.866l-.22-.219q1.419-1.549,2.841-3.1c.927-1,1.861-2,3.009-3.237-.635,0-.964.032-1.284-.006-.833-.1-1.336.221-1.377,1.082-.051,1.083-.574,1.418-1.634,1.286a24.411,24.411,0,0,0-2.878-.023c.3.892.636,1.705.834,2.55a1.625,1.625,0,0,1-.184,1.212c-.813,1.065-1.724,2.055-2.608,3.085-2.788-1.306-5.341-3.268-8.7-2.348l.175.294a8.6,8.6,0,0,1-2.063-.463,10.989,10.989,0,0,1-1.76-1.393c-1.337-1.049-2.683-2.085-4.025-3.128-.435-.338-.867-.681-1.3-1.022l.209-.291Z" transform="translate(-50.579 -1554.031)" fill="url(#linear-gradient-14)"/>
            <path id="Trazado_101013" data-name="Trazado 101013" d="M124.712,1628.906c1.223-.276,2.438-.6,3.672-.819q7.887-1.39,15.785-2.722c6.744-1.129,13.5-2.2,20.238-3.344,5-.849,9.976-1.8,14.971-2.669,5.221-.9,10.451-1.76,15.774-2.652v2.268c-2.122.315-4.233.636-6.346.942q-7.759,1.117-15.519,2.222-13.461,1.915-26.923,3.824c-6.771.967-13.539,1.959-20.311,2.925a9.157,9.157,0,0,1-1.361,0Z" transform="translate(-59.123 -1569.267)" fill="url(#linear-gradient-14)"/>
            <path id="Trazado_101014" data-name="Trazado 101014" d="M123.827,1624.092q8.012-2.087,16.023-4.173,9.027-2.353,18.053-4.71c4.6-1.2,9.213-2.381,13.816-3.585q6.348-1.661,12.689-3.354c2.107-.559,2.109-.56,2.78,1.723l-63.265,14.345Z" transform="translate(-58.913 -1567.142)" fill="url(#linear-gradient-14)"/>
            <path id="Trazado_101015" data-name="Trazado 101015" d="M126.269,1617.6l33.869-23.92a26.118,26.118,0,0,1,.228,3.038c-.009.286-.509.616-.848.824q-8.786,5.41-17.591,10.794-7.272,4.463-14.538,8.937c-.315.194-.645.362-.968.542Z" transform="translate(-59.507 -1563.67)" fill="url(#linear-gradient-14)"/>
            <path id="Trazado_101016" data-name="Trazado 101016" d="M190.848,1599.228l-4.095-2.587-2.438,2.094c-.7-.4-1.387-.792-2.076-1.191a1.025,1.025,0,0,1-.372-.26c-.661-1.053.653-3.669,1.9-3.769.992-.079,1.989-.1,3.015-.146.43-1.352.847-2.661,1.268-3.984C190.555,1592.232,191.725,1595.422,190.848,1599.228Z" transform="translate(-72.98 -1562.626)" fill="url(#linear-gradient-14)"/>
            <path id="Trazado_101017" data-name="Trazado 101017" d="M119.811,1601.823l6.777-27.943,2.017.975q-4.295,13.546-8.571,27.035Z" transform="translate(-57.937 -1558.857)" fill="url(#linear-gradient-14)"/>
            <path id="Trazado_101018" data-name="Trazado 101018" d="M121.012,1585.457a11.909,11.909,0,0,0-.63-1.828,11.3,11.3,0,0,0-1.1-1.446c-.174-.223-.522-.462-.5-.66.127-1.09.344-2.169.542-3.324l1.5.378a5.064,5.064,0,0,0,.393-.931c.149-.727.511-.977,1.278-.929s.827.475,1.087,1.04c1.169,2.539.581,4.594-1.451,6.377A13.112,13.112,0,0,0,121.012,1585.457Z" transform="translate(-57.687 -1559.545)" fill="url(#linear-gradient-21)"/>
            <path id="Trazado_101019" data-name="Trazado 101019" d="M130.049,1622.9l19.718-9.432c.22,1.961.22,1.96-1.381,2.585q-8.574,3.352-17.147,6.7c-.349.136-.708.243-1.063.364Z" transform="translate(-60.426 -1568.481)" fill="url(#linear-gradient-14)"/>
            <path id="Trazado_101020" data-name="Trazado 101020" d="M61.393,1655.1l2.442,1.135a1.819,1.819,0,0,1,2.512.032c.452.476-.114,2.085-1.013,2.225a2.551,2.551,0,0,0-2.307,2.257C60.543,1658.076,60.5,1657.931,61.393,1655.1Z" transform="translate(-43.606 -1578.602)" fill="url(#linear-gradient-14)"/>
            <path id="Trazado_101021" data-name="Trazado 101021" d="M94.064,1632.711l-16.534-2.427c.571-.9,1.1-1.43,2.293-1.138,4.467,1.091,8.962,2.069,13.445,3.094.287.065.564.173.845.262Z" transform="translate(-47.658 -1572.273)" fill="url(#linear-gradient-14)"/>
            <path id="Trazado_101022" data-name="Trazado 101022" d="M140.729,1596.957c-1.75-.657-1.6-1.876-1.375-3.3.241-1.525.96-2.259,2.505-2.215C143.074,1593.822,142.784,1595.546,140.729,1596.957Z" transform="translate(-62.655 -1563.124)" fill="url(#linear-gradient-25)"/>
            <path id="Trazado_101023" data-name="Trazado 101023" d="M162.952,1610.714l2.484-3.722,3.818,4.255Z" transform="translate(-68.425 -1566.906)" fill="url(#linear-gradient-26)"/>
            <path id="Trazado_101024" data-name="Trazado 101024" d="M126.577,1646.314c.77.489,1.564.943,2.3,1.471,3.253,2.323,6.509,4.643,9.718,7.025a10.592,10.592,0,0,1,1.559,1.822l-.288.3c-.443-.307-.9-.589-1.325-.923q-5.781-4.594-11.545-9.208a2.829,2.829,0,0,1-.4-.513Z" transform="translate(-59.582 -1576.461)" fill="url(#linear-gradient-14)"/>
            <path id="Trazado_101025" data-name="Trazado 101025" d="M76.912,1647.364c.019.291.04.516.047.742.008.263,0,.526,0,.761-1.67.685-1.879.594-3.438-1.5Z" transform="translate(-46.684 -1576.721)" fill="url(#linear-gradient-28)"/>
            <path id="Trazado_101026" data-name="Trazado 101026" d="M86.133,1624.736l9.787,5.258-.138.262c-3.255-1.779-6.73-3.138-9.888-5.106Z" transform="translate(-49.691 -1571.22)" fill="url(#linear-gradient-14)"/>
            <path id="Trazado_101027" data-name="Trazado 101027" d="M155.518,1636.565c.739-.414,1.487-1.186,2.318,0Z" transform="translate(-66.618 -1573.942)" fill="url(#linear-gradient-30)"/>
          </g>
        </g>
      </g>
    </g>
    <g id="Grupo_56025" data-name="Grupo 56025" transform="translate(201.235 1517.355)">
      <g id="Grupo_56023" data-name="Grupo 56023" transform="translate(0 0)">
        <g id="Grupo_56022" data-name="Grupo 56022">
          <rect id="Rectángulo_5360" data-name="Rectángulo 5360" width="115.268" height="115.268" rx="11.73" transform="translate(0 81.507) rotate(-45)" fill="#d61b22"/>
          <rect id="Rectángulo_5361" data-name="Rectángulo 5361" width="98.147" height="98.147" rx="10.497" transform="translate(12.107 81.507) rotate(-45)" fill="url(#linear-gradient)"/>
        </g>
      </g>
      <g id="Grupo_56024" data-name="Grupo 56024" transform="translate(49.15 25.714)">
        <path id="Trazado_101028" data-name="Trazado 101028" d="M370.436,1631.621s10.018-4.464,6.646-15.672c0,0-2.232-6.3-1.463-9.249,0,0-2.951-1.066-5.5,4.24a4.284,4.284,0,0,1-4.91,1.8s4.067-4.2,1.389-11.406a27.022,27.022,0,0,1-1.026-7.505s-1.983-.132-2.083,6.447-3.5,7.207-3.5,7.207,3.009-11.7-4.86-16c0,0,.628,4.431-1.256,11.374s1.091,14.184,1.091,14.184-4.364-.166-8.034-8.365a13.7,13.7,0,0,0-5.406-7.257s3.174,12.944-3.124,12.745a8.164,8.164,0,0,1-3.472-2.612s-5.9,9.059,1.934,16.5l5.108,3.571s-6,1.438-12.944-4.662c0,0-6.3-4.215-5.7-15.126,0,0,.1-6.2,3.819-14.977a11.7,11.7,0,0,0-.05-6.844s3.868-.545,8.778,5.257c0,0,.447-1.191-1.636-5.059,0,0-2.43-4.761,2.628-11.158,0,0,4.861-5.852,2.281-9.373,0,0,4.612,2.281,3.918,10.365,0,0-1.24,11.407,5.356,15.771,0,0-5.8-13.292-1.785-22.119,0,0,1.935-6.646,9.076-13.936,0,0,4.166-4.414,3.373-8.431,0,0,4.067,3.422.546,13.589s1.289,16.119,1.289,16.119-3.273-11.06,7.439-16.763c0,0-3.819,6.844.645,11.158s6.227,10.886,1.636,17.209c0,0,1.339.595,6.6-5.158,0,0,3.57-3.422,6.3-3.472,0,0-4.414,2.579-1.042,9.82s8.679,16.346,3.025,29.6A15.713,15.713,0,0,1,370.436,1631.621Z" transform="translate(-323.282 -1551.328)" fill="url(#linear-gradient-2)"/>
        <rect id="Rectángulo_5362" data-name="Rectángulo 5362" width="58.521" height="5.753" transform="translate(3.512 83.07)" fill="url(#linear-gradient-2)"/>
      </g>
    </g>
    <g id="Grupo_56028" data-name="Grupo 56028" transform="translate(201.235 1680.484)">
      <g id="Grupo_56027" data-name="Grupo 56027" transform="translate(0 0)">
        <g id="Grupo_56026" data-name="Grupo 56026">
          <rect id="Rectángulo_5363" data-name="Rectángulo 5363" width="115.268" height="115.268" rx="11.73" transform="translate(0 81.507) rotate(-45)" fill="#d61b22"/>
          <rect id="Rectángulo_5364" data-name="Rectángulo 5364" width="98.147" height="98.147" rx="10.497" transform="translate(12.107 81.507) rotate(-45)" fill="url(#linear-gradient)"/>
        </g>
      </g>
      <path id="Trazado_101029" data-name="Trazado 101029" d="M394.026,1816.944a3.241,3.241,0,0,0-4.242-1.737l-9.4,3.936a9.221,9.221,0,0,0-10.469-2.791L316.567,1836.9a9.222,9.222,0,0,0-5.29,11.92l.2.519a9.22,9.22,0,0,0,11.92,5.29l53.352-20.552a9.216,9.216,0,0,0,5.895-8.854l9.645-4.04A3.241,3.241,0,0,0,394.026,1816.944Z" transform="translate(-271.063 -1752.834)" fill="url(#linear-gradient-2)"/>
    </g>
  </g>
</svg>
