<svg xmlns="http://www.w3.org/2000/svg" width="126" height="126" viewBox="0 0 126 126">
  <g id="Grupo_57253" data-name="Grupo 57253" transform="translate(-232 -26341.309)">
    <g id="Elipse_4111" data-name="Elipse 4111" transform="translate(232 26341.309)" fill="#fff" stroke="#09b291" stroke-width="5">
      <circle cx="63" cy="63" r="63" stroke="none"/>
      <circle cx="63" cy="63" r="60.5" fill="none"/>
    </g>
    <g id="Grupo_56785" data-name="Grupo 56785" transform="translate(-1528.579 26160.693)">
      <g id="Grupo_56785-2" data-name="Grupo 56785" transform="translate(1785.82 201.515)">
        <path id="Trazado_102026" data-name="Trazado 102026" d="M1814.03,282.27h-5.566V269.081a1.223,1.223,0,1,0-2.445,0v5.76h-9.232v-4.355a21.706,21.706,0,0,1,15.744-20.867,8.506,8.506,0,0,0,16.891,0,21.693,21.693,0,0,1,8.685,4.852,1.222,1.222,0,0,0,1.649-1.8,24.154,24.154,0,0,0-8.62-5.073,16.673,16.673,0,0,0,5.834-8.614,6.014,6.014,0,0,0,6.618-9.254c3.014-7.483,3.028-14.761.015-20.065a10.929,10.929,0,0,0-7.788-5.792,14.136,14.136,0,0,0-7.133.83,7.184,7.184,0,0,0-1.543-1.327c-2.068-1.341-4.94-1.96-8.536-1.841-2.981.1-5.785,1.276-8.82,3.7a1.222,1.222,0,0,0,1.527,1.909c2.6-2.081,4.947-3.088,7.375-3.169,6.733-.226,8.345,2.547,8.455,2.753a1.165,1.165,0,0,0,.722.694,1.21,1.21,0,0,0,1.026-.128,11.016,11.016,0,0,1,6.6-1,8.52,8.52,0,0,1,5.989,4.577c1.225,2.155,3.576,7.994.169,17.107a5.987,5.987,0,0,0-4.046-.681v-.2a6.072,6.072,0,0,0-1.933-4.458,57.871,57.871,0,0,1-7.177-8.941,2.019,2.019,0,0,0-1.534-.9,2.04,2.04,0,0,0-1.662.66c-6.334,6.917-14.687,9.163-17.983,9.807a3.669,3.669,0,0,0-2.958,3.6v.432a6.062,6.062,0,0,0-1.086-.1,6,6,0,0,0-1.881.3,27.072,27.072,0,0,1-3.833-12.573,11.774,11.774,0,0,0,4.134-.25c2.137-.577,4.139-2.487,6.075-4.333a1.222,1.222,0,0,0-1.687-1.769c-1.715,1.636-3.489,3.327-5.025,3.742a10.658,10.658,0,0,1-4.457-.009,1.223,1.223,0,0,0-1.5,1.171,29.035,29.035,0,0,0,4.176,15.247,6.016,6.016,0,0,0,5.719,10.258,16.68,16.68,0,0,0,5.833,8.613,24.146,24.146,0,0,0-16.474,22.893v13.007a1.223,1.223,0,0,0,1.223,1.223h18.464a1.222,1.222,0,1,0,0-2.444Zm23.571-47.825v-4.639a3.574,3.574,0,1,1-.137,6.763,16.736,16.736,0,0,0,.137-2.124Zm-34.332,2.34a3.574,3.574,0,1,1,1.085-6.979v4.639a16.736,16.736,0,0,0,.137,2.124A3.564,3.564,0,0,1,1803.269,236.786Zm17.708,17.882a6.075,6.075,0,0,1-5.9-4.682,16.6,16.6,0,0,0,11.806,0A6.073,6.073,0,0,1,1820.977,254.667ZM1806.8,234.445v-7.585a1.22,1.22,0,0,1,.982-1.2,36.467,36.467,0,0,0,18.97-10.182,58.212,58.212,0,0,0,7.26,8.949,3.618,3.618,0,0,1,1.147,2.661v7.352a14.179,14.179,0,0,1-28.359,0Zm-.779,47.825h-9.232v-4.985h9.233v4.985Z" transform="translate(-1785.097 -201.515)" fill="#065949"/>
        <path id="Trazado_102027" data-name="Trazado 102027" d="M1839.635,251.97a1.222,1.222,0,0,0-.289,1.7,21.551,21.551,0,0,1,3.993,12.547v4.355h-9.233v-5.76a1.222,1.222,0,1,0-2.444,0v13.189h-14.576a1.222,1.222,0,1,0,0,2.444h27.475a1.221,1.221,0,0,0,1.222-1.222V266.221a23.986,23.986,0,0,0-4.445-13.963A1.223,1.223,0,0,0,1839.635,251.97Zm3.7,26.036h-9.233V273.02h9.233Z" transform="translate(-1783.269 -197.25)" fill="#065949"/>
        <path id="Trazado_102028" data-name="Trazado 102028" d="M1810.049,231.028a1.221,1.221,0,0,0,1.067.623,1.208,1.208,0,0,0,.6-.157l3.151-1.773a1.222,1.222,0,0,0-.039-2.151l-3.151-1.625a1.222,1.222,0,1,0-1.121,2.172l1.136.586-1.175.662a1.222,1.222,0,0,0-.465,1.664Z" transform="translate(-1783.776 -199.452)" fill="#065949"/>
        <path id="Trazado_102029" data-name="Trazado 102029" d="M1823.359,229.72l3.151,1.773a1.222,1.222,0,1,0,1.2-2.13l-1.175-.662,1.136-.586a1.222,1.222,0,0,0-1.121-2.172l-3.151,1.625a1.222,1.222,0,0,0-.039,2.151Z" transform="translate(-1782.686 -199.452)" fill="#065949"/>
        <path id="Trazado_102030" data-name="Trazado 102030" d="M1813.085,235.82a1.222,1.222,0,0,0,1.9,1.537,1.817,1.817,0,0,1,.995-.624,3.789,3.789,0,0,1,.409.355,4.01,4.01,0,0,0,6.039,0,3.777,3.777,0,0,1,.409-.355,1.815,1.815,0,0,1,.994.623,1.222,1.222,0,0,0,1.9-1.536,4.131,4.131,0,0,0-2.931-1.532,2.943,2.943,0,0,0-2.053,1.026c-.486.46-.767.7-1.339.7s-.853-.241-1.339-.7a2.943,2.943,0,0,0-2.053-1.026,4.134,4.134,0,0,0-2.932,1.532Z" transform="translate(-1783.528 -198.732)" fill="#065949"/>
        <path id="Trazado_102031" data-name="Trazado 102031" d="M1795.722,250.2l-.1-.4a1.122,1.122,0,0,1,1.331-1.37,1.222,1.222,0,1,0,.53-2.386,3.567,3.567,0,0,0-4.232,4.355l.1.4a1.122,1.122,0,0,1-.89,1.379l-.475.085a3.568,3.568,0,0,0-2.229,5.648,1.121,1.121,0,0,1-.469,1.709l-.214.088a3.567,3.567,0,0,0-1.345,5.618l.66.769a1.122,1.122,0,0,1-.239,1.671l-.712.463a3.568,3.568,0,0,0-.569,5.517l.69.686a1.122,1.122,0,0,1-.174,1.733,1.222,1.222,0,1,0,1.347,2.04,3.566,3.566,0,0,0,.55-5.5l-.69-.686a1.123,1.123,0,0,1,.179-1.736l.711-.463a3.567,3.567,0,0,0,.762-5.31l-.66-.769a1.122,1.122,0,0,1,.423-1.767l.214-.089a3.567,3.567,0,0,0,1.493-5.432,1.121,1.121,0,0,1,.7-1.776l.475-.086a3.566,3.566,0,0,0,2.829-4.384Z" transform="translate(-1785.82 -197.741)" fill="#065949"/>
        <path id="Trazado_102032" data-name="Trazado 102032" d="M1851.385,276.158a1.122,1.122,0,0,1-.174-1.733l.69-.685a3.566,3.566,0,0,0-.57-5.518l-.71-.463a1.122,1.122,0,0,1-.239-1.671l.66-.769a3.567,3.567,0,0,0-1.345-5.618l-.213-.088a1.122,1.122,0,0,1-.47-1.709,3.568,3.568,0,0,0-2.228-5.648l-.475-.085a1.12,1.12,0,0,1-.89-1.379l.1-.4a3.567,3.567,0,0,0-4.232-4.355,1.222,1.222,0,1,0,.529,2.386,1.123,1.123,0,0,1,1.332,1.37l-.1.4a3.566,3.566,0,0,0,2.829,4.384l.475.085a1.123,1.123,0,0,1,.7,1.777,3.568,3.568,0,0,0,1.493,5.432l.214.088a1.123,1.123,0,0,1,.423,1.767l-.661.77a3.567,3.567,0,0,0,.762,5.31l.711.462a1.122,1.122,0,0,1,.179,1.737l-.689.686a3.566,3.566,0,0,0,.55,5.5,1.222,1.222,0,0,0,1.348-2.04Z" transform="translate(-1781.192 -197.741)" fill="#065949"/>
        <path id="Trazado_102033" data-name="Trazado 102033" d="M1791.462,233.7l.489.278a.7.7,0,0,1,.277.924l-.188.368a3.143,3.143,0,0,0,2.334,4.536l.034.005a.69.69,0,0,1,.493.328,1.222,1.222,0,1,0,2.089-1.27,3.136,3.136,0,0,0-2.219-1.474l-.034-.005a.7.7,0,0,1-.518-1.008l.188-.368a3.139,3.139,0,0,0-1.246-4.161l-.488-.278a.7.7,0,0,1-.083-1.158,3.143,3.143,0,0,0,1.2-2.7,1.222,1.222,0,1,0-2.439.169.7.7,0,0,1-.268.6,3.145,3.145,0,0,0,.378,5.212Z" transform="translate(-1785.476 -199.387)" fill="#065949"/>
        <path id="Trazado_102034" data-name="Trazado 102034" d="M1843.623,237.386l-.039.005a3.14,3.14,0,0,0-2.216,1.474,1.222,1.222,0,0,0,2.088,1.27.691.691,0,0,1,.49-.328l.039-.005a3.143,3.143,0,0,0,2.33-4.536l-.188-.368a.7.7,0,0,1,.277-.924l.489-.278a3.144,3.144,0,0,0,.378-5.211.7.7,0,0,1-.268-.6,1.222,1.222,0,1,0-2.438-.17,3.139,3.139,0,0,0,1.2,2.7.7.7,0,0,1-.083,1.158l-.489.279a3.138,3.138,0,0,0-1.245,4.16l.188.368a.7.7,0,0,1-.515,1.008Z" transform="translate(-1781.119 -199.386)" fill="#065949"/>
      </g>
    </g>
  </g>
</svg>
