<svg xmlns="http://www.w3.org/2000/svg" width="325" height="243.345" viewBox="0 0 325 243.345">
  <g id="Grupo_57237" data-name="Grupo 57237" transform="translate(-520.5 -6525.24)">
    <g id="Image_Place_Holder" data-name="Image Place Holder" transform="translate(520.5 6548.585)" opacity="0.1">
      <rect id="Image_Place_Holder-2" data-name="Image Place Holder" width="325" height="220" rx="10" fill="#e94b46"/>
    </g>
    <g id="Grupo_56106" data-name="Grupo 56106" transform="translate(64.574 4916.536)">
      <g id="Grupo_56096" data-name="Grupo 56096" transform="translate(605.19 1608.704)">
        <path id="Trazado_101133" data-name="Trazado 101133" d="M719.8,1642.319l.011-12.424h0c.011-11.7-6.764-21.191-15.132-21.191h-2.08c-8.368,0-22.1,9.488-22.114,21.191H614.467l-.1,102.619H710.3a9.415,9.415,0,0,0,9.413-9.405Z" transform="translate(-614.365 -1608.704)" fill="#cc4040"/>
      </g>
      <path id="Trazado_101134" data-name="Trazado 101134" d="M694.892,1608.7H547.56a21.214,21.214,0,0,0-21.21,21.191h0l-.11,132.066-.019,7.01a15.847,15.847,0,0,0,15.848,15.861H657.705A15.847,15.847,0,0,0,673.553,1769l.019-7.037.111-132.066h0A21.213,21.213,0,0,1,694.892,1608.7Z" fill="#f4fbff"/>
      <g id="Grupo_56099" data-name="Grupo 56099" transform="translate(552.568 1712.396)">
        <g id="Grupo_56097" data-name="Grupo 56097" transform="translate(33.062 2.193)">
          <line id="Línea_120" data-name="Línea 120" x2="60.404" fill="none" stroke="#cc4040" stroke-linecap="round" stroke-miterlimit="10" stroke-width="4"/>
          <line id="Línea_121" data-name="Línea 121" x2="60.404" transform="translate(0 32.115)" fill="none" stroke="#cc4040" stroke-linecap="round" stroke-miterlimit="10" stroke-width="4"/>
          <line id="Línea_122" data-name="Línea 122" x2="26.388" transform="translate(0 10.135)" fill="none" stroke="#cc4040" stroke-linecap="round" stroke-miterlimit="10" stroke-width="4"/>
          <line id="Línea_123" data-name="Línea 123" x2="26.388" transform="translate(0 42.299)" fill="none" stroke="#cc4040" stroke-linecap="round" stroke-miterlimit="10" stroke-width="4"/>
        </g>
        <g id="Grupo_56098" data-name="Grupo 56098">
          <path id="Trazado_101135" data-name="Trazado 101135" d="M555.629,1730.527l6.3,5.3,11.418-11.386" transform="translate(-555.629 -1724.443)" fill="#fff" stroke="#9cd000" stroke-linecap="round" stroke-miterlimit="10" stroke-width="7"/>
          <path id="Trazado_101136" data-name="Trazado 101136" d="M555.629,1766.374l6.3,5.3,11.418-11.386" transform="translate(-555.629 -1728.174)" fill="#fff" stroke="#9cd000" stroke-linecap="round" stroke-miterlimit="10" stroke-width="7"/>
        </g>
      </g>
      <g id="Grupo_56102" data-name="Grupo 56102" transform="translate(552.568 1645.496)">
        <g id="Grupo_56100" data-name="Grupo 56100" transform="translate(33.062 2.193)">
          <line id="Línea_124" data-name="Línea 124" x2="60.404" fill="none" stroke="#cc4040" stroke-linecap="round" stroke-miterlimit="10" stroke-width="4"/>
          <line id="Línea_125" data-name="Línea 125" x2="60.404" transform="translate(0 32.115)" fill="none" stroke="#cc4040" stroke-linecap="round" stroke-miterlimit="10" stroke-width="4"/>
          <line id="Línea_126" data-name="Línea 126" x2="26.388" transform="translate(0 10.135)" fill="none" stroke="#cc4040" stroke-linecap="round" stroke-miterlimit="10" stroke-width="4"/>
          <line id="Línea_127" data-name="Línea 127" x2="26.388" transform="translate(0 42.299)" fill="none" stroke="#cc4040" stroke-linecap="round" stroke-miterlimit="10" stroke-width="4"/>
        </g>
        <g id="Grupo_56101" data-name="Grupo 56101">
          <path id="Trazado_101137" data-name="Trazado 101137" d="M555.629,1655.856l6.3,5.3,11.418-11.386" transform="translate(-555.629 -1649.771)" fill="#fff" stroke="#9cd000" stroke-linecap="round" stroke-miterlimit="10" stroke-width="7"/>
          <path id="Trazado_101138" data-name="Trazado 101138" d="M555.629,1691.7l6.3,5.3,11.418-11.386" transform="translate(-555.629 -1653.502)" fill="#fff" stroke="#9cd000" stroke-linecap="round" stroke-miterlimit="10" stroke-width="7"/>
        </g>
      </g>
      <g id="Grupo_56105" data-name="Grupo 56105" transform="translate(608.001 1673.732)">
        <path id="Trazado_101139" data-name="Trazado 101139" d="M635.2,1739.506a25.494,25.494,0,1,1,36.053-.215A25.494,25.494,0,0,1,635.2,1739.506Z" transform="translate(-618.556 -1682.806)" opacity="0.13" style="mix-blend-mode: multiply;isolation: isolate"/>
        <rect id="Rectángulo_5384" data-name="Rectángulo 5384" width="21.412" height="7.694" transform="translate(64.377 69.413) rotate(-135.342)" fill="#3b3b3b"/>
        <path id="Trazado_101140" data-name="Trazado 101140" d="M683.132,1756.21l28.149,27.815a6.862,6.862,0,0,0,9.7-.057h0a6.862,6.862,0,0,0-.057-9.7l-28.15-27.815Z" transform="translate(-624.333 -1688.069)" fill="#4d4d4d"/>
        <circle id="Elipse_4031" data-name="Elipse 4031" cx="26.339" cy="26.339" r="26.339" transform="matrix(0.988, -0.156, 0.156, 0.988, 2.631, 11.07)" fill="#adfff7" opacity="0.76"/>
        <g id="Grupo_56104" data-name="Grupo 56104">
          <path id="Trazado_101141" data-name="Trazado 101141" d="M627.046,1691.11a33.059,33.059,0,1,0,46.751-.28A33.059,33.059,0,0,0,627.046,1691.11Zm5.381,5.317a25.494,25.494,0,1,1,.215,36.053A25.494,25.494,0,0,1,632.427,1696.427Z" transform="translate(-617.502 -1681.287)" fill="#4d4d4d"/>
          <g id="Grupo_56103" data-name="Grupo 56103" transform="translate(14.407 13.752)">
            <path id="Trazado_101142" data-name="Trazado 101142" d="M635.287,1712.894a1.084,1.084,0,0,0,.456-.7,16.411,16.411,0,0,1,19.163-13.093,1.089,1.089,0,1,0,.4-2.141,18.59,18.59,0,0,0-21.707,14.831,1.089,1.089,0,0,0,1.685,1.1Z" transform="translate(-633.583 -1696.636)" fill="#fff"/>
          </g>
        </g>
      </g>
      <path id="Trazado_101143" data-name="Trazado 101143" d="M695.457,1847.323c0,2.146-35.04,3.886-78.264,3.886s-78.265-1.74-78.265-3.886,35.04-3.886,78.265-3.886S695.457,1845.177,695.457,1847.323Z" transform="translate(-1.323 -24.433)" fill="#cc4040" opacity="0.17" style="mix-blend-mode: multiply;isolation: isolate"/>
    </g>
  </g>
</svg>
