<svg id="Capa_1" data-name="Capa 1" xmlns="http://www.w3.org/2000/svg" xmlns:xlink="http://www.w3.org/1999/xlink" viewBox="0 0 925.08 482.91"><defs><style>.cls-1,.cls-5{fill:none;stroke-miterlimit:10;stroke-width:3px;}.cls-1{stroke:#963030;}.cls-2{fill:#0dcea9;}.cls-3{isolation:isolate;}.cls-4{fill:#fff;}.cls-5{stroke:#468ca5;}.cls-6{fill:#69d1ff;}.cls-7{fill:#d61b22;}.cls-8{fill:url(#Degradado_sin_nombre);}.cls-9{fill:url(#Degradado_sin_nombre_2);}.cls-10{fill:url(#Degradado_sin_nombre_3);}.cls-11{fill:url(#Degradado_sin_nombre_4);}.cls-12{fill:#f94e4e;}</style><linearGradient id="Degradado_sin_nombre" x1="-491.78" y1="778.02" x2="-491.78" y2="779.13" gradientTransform="matrix(191.57, 0, 0, -191.57, 94368.94, 149423.65)" gradientUnits="userSpaceOnUse"><stop offset="0" stop-color="#e6e6e6"/><stop offset="0.42" stop-color="#fff"/></linearGradient><linearGradient id="Degradado_sin_nombre_2" x1="-482.61" y1="777.12" x2="-482.59" y2="776.01" gradientTransform="matrix(49.78, 0, 0, -57.66, 24129.13, 45028.93)" gradientUnits="userSpaceOnUse"><stop offset="0" stop-color="#231f20"/><stop offset="0.9" stop-color="#505052"/></linearGradient><linearGradient id="Degradado_sin_nombre_3" x1="-481.92" y1="777.05" x2="-481.89" y2="775.91" gradientTransform="matrix(46.5, 0, 0, -56.48, 22573.42, 44109.87)" xlink:href="#Degradado_sin_nombre_2"/><linearGradient id="Degradado_sin_nombre_4" x1="-479.8" y1="777.2" x2="-479.77" y2="776.09" gradientTransform="matrix(38.72, 0, 0, -58.17, 18790.9, 45429.93)" xlink:href="#Degradado_sin_nombre_2"/></defs><g id="Grupo_55961" data-name="Grupo 55961"><line id="Línea_113" data-name="Línea 113" class="cls-1" x1="582.04" y1="386.95" x2="751.29" y2="330.99"/><line id="Línea_114" data-name="Línea 114" class="cls-1" x1="582.04" y1="395.73" x2="751.29" y2="451.69"/><rect id="Rectángulo_5323" data-name="Rectángulo 5323" class="cls-2" x="744.21" y="420.46" width="180.87" height="62.45" rx="3.91"/><rect id="Rectángulo_5324" data-name="Rectángulo 5324" class="cls-2" x="744.21" y="299.77" width="180.87" height="62.45" rx="3.91"/><g id="_Etiquetas" data-name=" Etiquetas" class="cls-3"><g class="cls-3"><path class="cls-4" d="M815.61,329.89h-4.93v3.34h5.79v2.07h-8.36V322.82h8.34v2.09h-5.77v3h4.93Z" transform="translate(-7.18)"/><path class="cls-4" d="M820.78,323.75V326h1.58v1.81h-1.58v4.63a1.07,1.07,0,0,0,.2.74,1,1,0,0,0,.75.22,4,4,0,0,0,.73-.06v1.88a5.44,5.44,0,0,1-1.5.22,2.37,2.37,0,0,1-2.66-2.63v-5H817V326h1.35v-2.28Z" transform="translate(-7.18)"/><path class="cls-4" d="M823.73,323.63a1.22,1.22,0,0,1,.37-.92,1.4,1.4,0,0,1,1-.36,1.39,1.39,0,0,1,1,.36,1.19,1.19,0,0,1,.38.92,1.18,1.18,0,0,1-.38.92,1.58,1.58,0,0,1-2,0A1.18,1.18,0,0,1,823.73,323.63Zm2.63,11.67h-2.49V326h2.49Z" transform="translate(-7.18)"/><path class="cls-4" d="M828,330.58a5.55,5.55,0,0,1,1-3.46,3.19,3.19,0,0,1,2.67-1.26A2.83,2.83,0,0,1,834,327l.17-1h2.17v12.83h-2.48V334.5a2.84,2.84,0,0,1-2.25,1,3.13,3.13,0,0,1-2.63-1.29A5.77,5.77,0,0,1,828,330.58Zm2.48.17a3.68,3.68,0,0,0,.46,2,1.5,1.5,0,0,0,1.32.69,1.66,1.66,0,0,0,1.61-.91v-3.83a1.64,1.64,0,0,0-1.59-.88,1.49,1.49,0,0,0-1.33.7A4,4,0,0,0,830.49,330.75Z" transform="translate(-7.18)"/><path class="cls-4" d="M843.86,334.36a3.12,3.12,0,0,1-2.54,1.11,2.93,2.93,0,0,1-2.27-.86,3.66,3.66,0,0,1-.8-2.51V326h2.47v6c0,1,.44,1.45,1.32,1.45a1.79,1.79,0,0,0,1.73-.87V326h2.49v9.27h-2.33Z" transform="translate(-7.18)"/><path class="cls-4" d="M852.39,335.47a4.58,4.58,0,0,1-3.32-1.25,4.48,4.48,0,0,1-1.28-3.33v-.24a5.57,5.57,0,0,1,.54-2.5,4,4,0,0,1,1.53-1.7,4.26,4.26,0,0,1,2.26-.59,3.82,3.82,0,0,1,3,1.2,4.86,4.86,0,0,1,1.1,3.4v1H850.3a2.26,2.26,0,0,0,.73,1.45,2.16,2.16,0,0,0,1.53.55,2.65,2.65,0,0,0,2.23-1L856,333.8A3.84,3.84,0,0,1,854.5,335,5,5,0,0,1,852.39,335.47Zm-.28-7.62a1.54,1.54,0,0,0-1.19.5,2.51,2.51,0,0,0-.59,1.43h3.44v-.2a1.88,1.88,0,0,0-.44-1.28A1.61,1.61,0,0,0,852.11,327.85Z" transform="translate(-7.18)"/><path class="cls-4" d="M860.58,323.75V326h1.58v1.81h-1.58v4.63a1.13,1.13,0,0,0,.19.74,1,1,0,0,0,.76.22,4.07,4.07,0,0,0,.73-.06v1.88a5.44,5.44,0,0,1-1.5.22,2.37,2.37,0,0,1-2.66-2.63v-5h-1.35V326h1.35v-2.28Z" transform="translate(-7.18)"/><path class="cls-4" d="M868.91,335.3a2.81,2.81,0,0,1-.25-.83,3,3,0,0,1-2.34,1,3.25,3.25,0,0,1-2.25-.79,2.53,2.53,0,0,1-.9-2,2.64,2.64,0,0,1,1.09-2.26,5.47,5.47,0,0,1,3.16-.8h1.14v-.53a1.49,1.49,0,0,0-.33-1,1.29,1.29,0,0,0-1-.39,1.47,1.47,0,0,0-1,.3,1,1,0,0,0-.36.82h-2.47a2.45,2.45,0,0,1,.5-1.49,3.2,3.2,0,0,1,1.4-1.07,5.08,5.08,0,0,1,2-.39,4,4,0,0,1,2.72.86,3,3,0,0,1,1,2.42v4a4.33,4.33,0,0,0,.36,2v.15Zm-2-1.72a2.19,2.19,0,0,0,1-.25,1.64,1.64,0,0,0,.68-.65v-1.6h-.92q-1.86,0-2,1.29v.14a1,1,0,0,0,.32.77A1.29,1.29,0,0,0,866.87,333.58Z" transform="translate(-7.18)"/><path class="cls-4" d="M878,332.74a.8.8,0,0,0-.45-.72,5.33,5.33,0,0,0-1.44-.47q-3.32-.69-3.31-2.81a2.55,2.55,0,0,1,1-2.06,4.14,4.14,0,0,1,2.68-.82,4.38,4.38,0,0,1,2.82.83,2.6,2.6,0,0,1,1.06,2.16h-2.47a1.19,1.19,0,0,0-.35-.88,1.45,1.45,0,0,0-1.07-.35,1.48,1.48,0,0,0-1,.28.89.89,0,0,0-.34.72.77.77,0,0,0,.39.67,4,4,0,0,0,1.32.43,12.39,12.39,0,0,1,1.55.42,2.57,2.57,0,0,1,2,2.49,2.45,2.45,0,0,1-1.09,2.06,4.72,4.72,0,0,1-2.81.78,4.84,4.84,0,0,1-2.07-.42,3.37,3.37,0,0,1-1.42-1.14,2.64,2.64,0,0,1-.51-1.56h2.34a1.32,1.32,0,0,0,.49,1,1.92,1.92,0,0,0,1.22.35,1.83,1.83,0,0,0,1.08-.27A.83.83,0,0,0,878,332.74Z" transform="translate(-7.18)"/></g></g><g id="FDS" class="cls-3"><g class="cls-3"><path class="cls-4" d="M834.54,453.85H829.6V459H827V446.47h8.13v2.08H829.6v3.22h4.94Z" transform="translate(-7.18)"/><path class="cls-4" d="M836.65,459V446.47h3.83a5.9,5.9,0,0,1,2.95.74,5.2,5.2,0,0,1,2,2.11,6.45,6.45,0,0,1,.73,3.1V453a6.58,6.58,0,0,1-.71,3.09,5.11,5.11,0,0,1-2,2.1,5.9,5.9,0,0,1-2.94.76Zm2.57-10.4v8.33h1.24a2.8,2.8,0,0,0,2.3-1,4.47,4.47,0,0,0,.82-2.82v-.66a4.59,4.59,0,0,0-.79-2.89,2.8,2.8,0,0,0-2.31-1Z" transform="translate(-7.18)"/><path class="cls-4" d="M854.52,455.67a1.32,1.32,0,0,0-.52-1.12,6.77,6.77,0,0,0-1.85-.82,13.22,13.22,0,0,1-2.11-.85,3.47,3.47,0,0,1-2.13-3.09,3,3,0,0,1,.57-1.81,3.66,3.66,0,0,1,1.64-1.23,6.1,6.1,0,0,1,2.39-.45,5.7,5.7,0,0,1,2.39.48,3.9,3.9,0,0,1,1.62,1.37,3.63,3.63,0,0,1,.58,2h-2.57a1.68,1.68,0,0,0-.54-1.33,2.21,2.21,0,0,0-1.52-.47,2.31,2.31,0,0,0-1.46.4,1.24,1.24,0,0,0-.53,1,1.2,1.2,0,0,0,.62,1,6.61,6.61,0,0,0,1.8.78,7.86,7.86,0,0,1,3.2,1.63,3.29,3.29,0,0,1,1,2.44,3,3,0,0,1-1.23,2.54,5.36,5.36,0,0,1-3.3.92,6.39,6.39,0,0,1-2.62-.53,4.1,4.1,0,0,1-1.8-1.44,3.66,3.66,0,0,1-.62-2.13h2.58q0,2.07,2.46,2.07a2.36,2.36,0,0,0,1.43-.38A1.19,1.19,0,0,0,854.52,455.67Z" transform="translate(-7.18)"/></g></g><line id="Línea_115" data-name="Línea 115" class="cls-5" x1="245.2" y1="220.74" x2="407.37" y2="129.1"/><line id="Línea_116" data-name="Línea 116" class="cls-1" x1="582.04" y1="116.11" x2="744.21" y2="24.47"/><line id="Línea_117" data-name="Línea 117" class="cls-1" x1="582.04" y1="141.26" x2="744.21" y2="232.89"/><line id="Línea_118" data-name="Línea 118" class="cls-1" x1="582.04" y1="130.46" x2="744.21" y2="130.63"/><line id="Línea_119" data-name="Línea 119" class="cls-5" x1="245.2" y1="295.31" x2="407.37" y2="386.94"/><rect id="Rectángulo_5325" data-name="Rectángulo 5325" class="cls-6" x="404.76" y="97.39" width="180.87" height="62.45" rx="3.91"/><g id="Clasificación_de_peligros" data-name="Clasificación de peligros" class="cls-3"><g class="cls-3"><path d="M448.22,121.36a4.38,4.38,0,0,1-1.48,3.17,5.19,5.19,0,0,1-3.54,1.16,4.71,4.71,0,0,1-3.77-1.61,6.63,6.63,0,0,1-1.38-4.44v-.76a7.5,7.5,0,0,1,.64-3.17,4.75,4.75,0,0,1,1.81-2.11,5.17,5.17,0,0,1,2.74-.73,5.1,5.1,0,0,1,3.48,1.16,4.74,4.74,0,0,1,1.52,3.25h-2.57a2.65,2.65,0,0,0-.67-1.76,2.51,2.51,0,0,0-1.76-.54,2.21,2.21,0,0,0-1.93.92,5.23,5.23,0,0,0-.65,2.86v.94a5.54,5.54,0,0,0,.61,3,2.14,2.14,0,0,0,1.93.93,2.54,2.54,0,0,0,1.78-.54,2.46,2.46,0,0,0,.67-1.69Z" transform="translate(-7.18)"/><path d="M452.36,125.52h-2.48V112.36h2.48Z" transform="translate(-7.18)"/><path d="M459.77,125.52a3.14,3.14,0,0,1-.25-.83,3,3,0,0,1-2.33,1,3.26,3.26,0,0,1-2.26-.79,2.53,2.53,0,0,1-.9-2,2.64,2.64,0,0,1,1.09-2.26,5.42,5.42,0,0,1,3.16-.79h1.14v-.54a1.51,1.51,0,0,0-.33-1,1.28,1.28,0,0,0-1-.39,1.47,1.47,0,0,0-1,.3,1,1,0,0,0-.36.82h-2.47a2.45,2.45,0,0,1,.5-1.49,3.34,3.34,0,0,1,1.4-1.07,5.15,5.15,0,0,1,2-.39,4,4,0,0,1,2.72.86,3,3,0,0,1,1,2.42v4a4.47,4.47,0,0,0,.36,2v.15Zm-2-1.72a2.07,2.07,0,0,0,1-.25,1.64,1.64,0,0,0,.68-.65v-1.6h-.92q-1.86,0-2,1.29v.14a1,1,0,0,0,.32.77A1.29,1.29,0,0,0,457.73,123.8Z" transform="translate(-7.18)"/><path d="M468.83,123a.8.8,0,0,0-.45-.72,5.33,5.33,0,0,0-1.44-.47c-2.21-.46-3.31-1.39-3.31-2.81a2.57,2.57,0,0,1,1-2.06,4.16,4.16,0,0,1,2.68-.82,4.38,4.38,0,0,1,2.82.83,2.6,2.6,0,0,1,1.06,2.16h-2.47a1.19,1.19,0,0,0-.35-.88,1.45,1.45,0,0,0-1.07-.35,1.53,1.53,0,0,0-1,.28.89.89,0,0,0-.34.72.77.77,0,0,0,.39.67,4.15,4.15,0,0,0,1.32.44,11.54,11.54,0,0,1,1.56.41,2.57,2.57,0,0,1,2,2.49,2.43,2.43,0,0,1-1.09,2.06,4.72,4.72,0,0,1-2.81.78,4.84,4.84,0,0,1-2.07-.42,3.42,3.42,0,0,1-1.42-1.13,2.7,2.7,0,0,1-.51-1.57h2.35a1.28,1.28,0,0,0,.48,1,1.92,1.92,0,0,0,1.22.35,1.83,1.83,0,0,0,1.08-.27A.83.83,0,0,0,468.83,123Z" transform="translate(-7.18)"/><path d="M472.81,113.85a1.23,1.23,0,0,1,.38-.92,1.39,1.39,0,0,1,1-.36,1.4,1.4,0,0,1,1,.36,1.23,1.23,0,0,1,.38.92,1.21,1.21,0,0,1-.38.92,1.38,1.38,0,0,1-1,.37,1.36,1.36,0,0,1-1-.37A1.19,1.19,0,0,1,472.81,113.85Zm2.63,11.67H473v-9.27h2.48Z" transform="translate(-7.18)"/><path d="M478.16,125.52v-7.46h-1.38v-1.81h1.38v-.79a3.18,3.18,0,0,1,.9-2.42,3.46,3.46,0,0,1,2.5-.86,6.1,6.1,0,0,1,1.26.17l0,1.92a3.28,3.28,0,0,0-.76-.08c-.93,0-1.39.44-1.39,1.31v.75h1.84v1.81h-1.84v7.46Z" transform="translate(-7.18)"/><path d="M483.75,113.85a1.23,1.23,0,0,1,.38-.92,1.6,1.6,0,0,1,2,0,1.19,1.19,0,0,1,.38.92,1.21,1.21,0,0,1-.38.92,1.55,1.55,0,0,1-2,0A1.19,1.19,0,0,1,483.75,113.85Zm2.64,11.67H483.9v-9.27h2.49Z" transform="translate(-7.18)"/><path d="M492.28,123.69a1.6,1.6,0,0,0,1.11-.37,1.31,1.31,0,0,0,.45-1h2.32a3.18,3.18,0,0,1-.51,1.73,3.44,3.44,0,0,1-1.39,1.22,4.28,4.28,0,0,1-1.94.43,4,4,0,0,1-3.13-1.26,5,5,0,0,1-1.15-3.49v-.17a4.94,4.94,0,0,1,1.14-3.42,4,4,0,0,1,3.13-1.27,3.89,3.89,0,0,1,2.78,1,3.48,3.48,0,0,1,1.07,2.63h-2.32a1.67,1.67,0,0,0-.45-1.17,1.45,1.45,0,0,0-1.13-.46,1.48,1.48,0,0,0-1.3.63,3.62,3.62,0,0,0-.45,2V121a3.73,3.73,0,0,0,.44,2.06A1.51,1.51,0,0,0,492.28,123.69Z" transform="translate(-7.18)"/><path d="M503,125.52a2.54,2.54,0,0,1-.25-.83,3,3,0,0,1-2.34,1,3.28,3.28,0,0,1-2.26-.79,2.52,2.52,0,0,1-.89-2,2.62,2.62,0,0,1,1.09-2.26,5.4,5.4,0,0,1,3.16-.79h1.14v-.54a1.51,1.51,0,0,0-.33-1,1.3,1.3,0,0,0-1-.39,1.49,1.49,0,0,0-1,.3,1,1,0,0,0-.35.82h-2.48a2.52,2.52,0,0,1,.5-1.49,3.34,3.34,0,0,1,1.4-1.07,5.15,5.15,0,0,1,2-.39,4,4,0,0,1,2.72.86,3,3,0,0,1,1,2.42v4a4.45,4.45,0,0,0,.37,2v.15Zm-2.05-1.72a2.07,2.07,0,0,0,1-.25,1.61,1.61,0,0,0,.69-.65v-1.6h-.93q-1.86,0-2,1.29v.14a1,1,0,0,0,.33.77A1.24,1.24,0,0,0,500.9,123.8Z" transform="translate(-7.18)"/><path d="M510.84,123.69a1.62,1.62,0,0,0,1.11-.37,1.31,1.31,0,0,0,.45-1h2.32a3.27,3.27,0,0,1-.51,1.73,3.44,3.44,0,0,1-1.39,1.22,4.28,4.28,0,0,1-1.94.43,4,4,0,0,1-3.13-1.26,5,5,0,0,1-1.15-3.49v-.17a4.94,4.94,0,0,1,1.14-3.42,4,4,0,0,1,3.12-1.27,3.9,3.9,0,0,1,2.79,1,3.48,3.48,0,0,1,1.07,2.63H512.4a1.67,1.67,0,0,0-.45-1.17,1.45,1.45,0,0,0-1.13-.46,1.5,1.5,0,0,0-1.31.63,3.71,3.71,0,0,0-.44,2V121a3.73,3.73,0,0,0,.44,2.06A1.5,1.5,0,0,0,510.84,123.69Z" transform="translate(-7.18)"/><path d="M516.12,113.85a1.22,1.22,0,0,1,.37-.92,1.4,1.4,0,0,1,1-.36,1.39,1.39,0,0,1,1,.36,1.19,1.19,0,0,1,.38.92,1.21,1.21,0,0,1-.38.92,1.55,1.55,0,0,1-2,0A1.18,1.18,0,0,1,516.12,113.85Zm2.63,11.67h-2.49v-9.27h2.49Z" transform="translate(-7.18)"/><path d="M520.4,120.8a5.56,5.56,0,0,1,.53-2.46,3.87,3.87,0,0,1,1.53-1.67,4.42,4.42,0,0,1,2.32-.59,4.2,4.2,0,0,1,3.06,1.15,4.63,4.63,0,0,1,1.33,3.11V121A4.81,4.81,0,0,1,528,124.4a4.61,4.61,0,0,1-6.4,0,4.94,4.94,0,0,1-1.19-3.49Zm2.48.17a3.46,3.46,0,0,0,.49,2,1.63,1.63,0,0,0,1.42.7,1.66,1.66,0,0,0,1.41-.69,3.75,3.75,0,0,0,.51-2.21,3.38,3.38,0,0,0-.51-2,1.76,1.76,0,0,0-2.83,0A3.86,3.86,0,0,0,522.88,121Zm2.39-8.61H528L525.59,115h-2Z" transform="translate(-7.18)"/><path d="M533,116.25l.07,1.07a3.24,3.24,0,0,1,2.67-1.24,2.7,2.7,0,0,1,2.19.86,4,4,0,0,1,.74,2.59v6h-2.48v-5.93a1.57,1.57,0,0,0-.34-1.14,1.53,1.53,0,0,0-1.14-.36,1.71,1.71,0,0,0-1.57.89v6.54h-2.47v-9.27Z" transform="translate(-7.18)"/><path d="M544.52,120.81a5.58,5.58,0,0,1,1-3.45,3.18,3.18,0,0,1,2.66-1.28,2.83,2.83,0,0,1,2.24,1v-4.73h2.48v13.16h-2.23l-.12-1a2.9,2.9,0,0,1-2.39,1.16,3.14,3.14,0,0,1-2.62-1.29A5.76,5.76,0,0,1,544.52,120.81ZM547,121a3.67,3.67,0,0,0,.46,2,1.48,1.48,0,0,0,1.32.69,1.66,1.66,0,0,0,1.62-1v-3.66a1.64,1.64,0,0,0-1.6-1Q547,118.09,547,121Z" transform="translate(-7.18)"/><path d="M559.06,125.69a4.56,4.56,0,0,1-3.32-1.25,4.42,4.42,0,0,1-1.28-3.33v-.24a5.6,5.6,0,0,1,.54-2.5,4,4,0,0,1,1.53-1.7,4.34,4.34,0,0,1,2.25-.59,3.86,3.86,0,0,1,3,1.2,4.86,4.86,0,0,1,1.09,3.4v1H557a2.34,2.34,0,0,0,.72,1.46,2.2,2.2,0,0,0,1.53.54,2.69,2.69,0,0,0,2.24-1l1.21,1.36a3.72,3.72,0,0,1-1.5,1.23A5,5,0,0,1,559.06,125.69Zm-.28-7.62a1.56,1.56,0,0,0-1.2.5A2.61,2.61,0,0,0,557,120h3.45v-.2a1.84,1.84,0,0,0-.45-1.28A1.58,1.58,0,0,0,558.78,118.07Z" transform="translate(-7.18)"/></g><g class="cls-3"><path d="M479.81,142a5.54,5.54,0,0,1-1,3.43,3.13,3.13,0,0,1-2.63,1.29,2.89,2.89,0,0,1-2.27-1v4.37h-2.48V137.31h2.3l.09.9a2.9,2.9,0,0,1,2.34-1.08,3.16,3.16,0,0,1,2.67,1.27,5.75,5.75,0,0,1,.95,3.5Zm-2.48-.18a3.7,3.7,0,0,0-.45-2,1.5,1.5,0,0,0-1.34-.7,1.63,1.63,0,0,0-1.6.89v3.79a1.63,1.63,0,0,0,1.62.92C476.74,144.75,477.33,143.78,477.33,141.85Z" transform="translate(-7.18)"/><path d="M485.61,146.75a4.56,4.56,0,0,1-3.32-1.25,4.48,4.48,0,0,1-1.28-3.34v-.24a5.56,5.56,0,0,1,.54-2.49,4,4,0,0,1,1.53-1.7,4.27,4.27,0,0,1,2.26-.6,3.85,3.85,0,0,1,3,1.2,4.89,4.89,0,0,1,1.09,3.41v1h-5.9a2.29,2.29,0,0,0,.72,1.45,2.2,2.2,0,0,0,1.53.55,2.66,2.66,0,0,0,2.24-1l1.22,1.37a3.91,3.91,0,0,1-1.51,1.23A5,5,0,0,1,485.61,146.75Zm-.28-7.62a1.58,1.58,0,0,0-1.2.5,2.58,2.58,0,0,0-.58,1.43H487v-.2a1.82,1.82,0,0,0-.45-1.28A1.58,1.58,0,0,0,485.33,139.13Z" transform="translate(-7.18)"/><path d="M493.44,146.58H491V133.42h2.48Z" transform="translate(-7.18)"/><path d="M495.46,134.91a1.23,1.23,0,0,1,.38-.92,1.37,1.37,0,0,1,1-.36,1.4,1.4,0,0,1,1,.36,1.3,1.3,0,0,1,0,1.84,1.6,1.6,0,0,1-2,0A1.23,1.23,0,0,1,495.46,134.91Zm2.63,11.67h-2.48v-9.27h2.48Z" transform="translate(-7.18)"/><path d="M499.77,141.87a5.39,5.39,0,0,1,1-3.43,3.28,3.28,0,0,1,2.74-1.31,2.89,2.89,0,0,1,2.37,1.05l.1-.87h2.25v9a3.93,3.93,0,0,1-.56,2.11,3.45,3.45,0,0,1-1.55,1.37,5.39,5.39,0,0,1-2.35.48,5.14,5.14,0,0,1-2-.41,3.51,3.51,0,0,1-1.46-1l1.1-1.51a2.89,2.89,0,0,0,2.24,1,2.11,2.11,0,0,0,1.53-.53,2,2,0,0,0,.55-1.49v-.5a2.88,2.88,0,0,1-2.25,1,3.26,3.26,0,0,1-2.7-1.31,5.4,5.4,0,0,1-1-3.46Zm2.48.19a3.45,3.45,0,0,0,.5,2,1.63,1.63,0,0,0,1.39.71,1.7,1.7,0,0,0,1.62-.85V140a1.7,1.7,0,0,0-1.6-.85,1.61,1.61,0,0,0-1.4.73A3.79,3.79,0,0,0,502.25,142.06Z" transform="translate(-7.18)"/><path d="M515.36,139.63a6.18,6.18,0,0,0-.89-.07,1.84,1.84,0,0,0-1.85.95v6.07h-2.47v-9.27h2.34l.07,1.1a2.28,2.28,0,0,1,2.06-1.28,2.39,2.39,0,0,1,.77.12Z" transform="translate(-7.18)"/><path d="M515.86,141.86a5.42,5.42,0,0,1,.53-2.46,3.81,3.81,0,0,1,1.53-1.67,4.37,4.37,0,0,1,2.31-.6,4.28,4.28,0,0,1,3.07,1.15,4.62,4.62,0,0,1,1.32,3.12l0,.64a4.86,4.86,0,0,1-1.19,3.42,4.61,4.61,0,0,1-6.4,0,4.89,4.89,0,0,1-1.19-3.49Zm2.47.17a3.46,3.46,0,0,0,.5,2,1.62,1.62,0,0,0,1.42.7,1.66,1.66,0,0,0,1.41-.69,3.86,3.86,0,0,0,.5-2.21,3.51,3.51,0,0,0-.5-2,1.67,1.67,0,0,0-1.43-.71,1.62,1.62,0,0,0-1.4.71A3.85,3.85,0,0,0,518.33,142Z" transform="translate(-7.18)"/><path d="M531.18,144a.79.79,0,0,0-.45-.71,5,5,0,0,0-1.44-.47Q526,142.14,526,140a2.53,2.53,0,0,1,1-2.06,4.12,4.12,0,0,1,2.67-.83,4.44,4.44,0,0,1,2.83.84,2.61,2.61,0,0,1,1,2.15h-2.47a1.22,1.22,0,0,0-.34-.87,1.43,1.43,0,0,0-1.08-.35,1.46,1.46,0,0,0-1,.28.9.9,0,0,0-.35.72.77.77,0,0,0,.39.67,4.19,4.19,0,0,0,1.32.43,10.68,10.68,0,0,1,1.56.42,2.56,2.56,0,0,1,2,2.49A2.4,2.4,0,0,1,532.5,146a4.63,4.63,0,0,1-2.81.79,4.91,4.91,0,0,1-2.07-.42,3.49,3.49,0,0,1-1.41-1.14,2.59,2.59,0,0,1-.52-1.56H528a1.26,1.26,0,0,0,.49,1,2,2,0,0,0,1.21.35,1.79,1.79,0,0,0,1.08-.27A.84.84,0,0,0,531.18,144Z" transform="translate(-7.18)"/></g></g><g id="Grupo_55960" data-name="Grupo 55960"><g id="Grupo_55958" data-name="Grupo 55958"><rect id="Rectángulo_5326" data-name="Rectángulo 5326" class="cls-7" x="46.6" y="159.3" width="224.99" height="224.99" rx="17.33" transform="translate(-152.77 192.1) rotate(-45)"/><rect id="Rectángulo_5327" data-name="Rectángulo 5327" class="cls-8" x="63.31" y="176.01" width="191.57" height="191.57" rx="10.5" transform="translate(-152.77 192.1) rotate(-45)"/></g><g id="Grupo_55959" data-name="Grupo 55959"><path id="Trazado_100947" data-name="Trazado 100947" class="cls-9" d="M131.85,293.64A62.89,62.89,0,0,1,113,296.82c-10.31,0-17.77-2.6-23-7.54s-8-12.32-8-20.61c.08-18.77,13.74-29.5,32.26-29.5,7.29,0,12.9,1.42,15.67,2.68l-2.68,10.31c-3.1-1.43-6.87-2.43-13.07-2.43-10.65,0-18.77,6-18.77,18.26,0,11.74,7.37,18.52,17.85,18.52a19.43,19.43,0,0,0,6.2-.75v-11.9h-8.72v-10h21Z" transform="translate(-7.18)"/><path id="Trazado_100948" data-name="Trazado 100948" class="cls-10" d="M154.65,239.76v21.78h21V239.76h12.74v56.48H175.68V272.69h-21v23.55H141.92V239.76Z" transform="translate(-7.18)"/><path id="Trazado_100949" data-name="Trazado 100949" class="cls-11" d="M200,283.08a32.15,32.15,0,0,0,14.16,3.52c5.87,0,9-2.43,9-6.12,0-3.52-2.69-5.53-9.47-7.87-9.39-3.36-15.59-8.55-15.59-16.76,0-9.64,8.13-16.93,21.37-16.93a33.07,33.07,0,0,1,14.41,2.85L231,252a26.46,26.46,0,0,0-11.73-2.68c-5.53,0-8.21,2.6-8.21,5.45,0,3.6,3.1,5.19,10.47,8,10,3.69,14.58,8.88,14.58,16.84,0,9.47-7.2,17.52-22.7,17.52-6.46,0-12.83-1.76-16-3.52Z" transform="translate(-7.18)"/></g></g><rect id="Rectángulo_5328" data-name="Rectángulo 5328" class="cls-6" x="404.76" y="355.72" width="180.87" height="62.45" rx="3.91"/><g id="Métodos_de_comunicación" data-name="Métodos de comunicación" class="cls-3"><g class="cls-3"><path d="M458.15,369.18l3.21,9.05,3.18-9.05h3.38v12.48h-2.58v-3.41l.26-5.89-3.37,9.3h-1.77l-3.35-9.29.25,5.88v3.41h-2.57V369.18Z" transform="translate(-7.18)"/><path d="M474.27,381.83a4.56,4.56,0,0,1-3.32-1.25,4.42,4.42,0,0,1-1.28-3.33V377a5.6,5.6,0,0,1,.54-2.5,4,4,0,0,1,1.53-1.7,4.34,4.34,0,0,1,2.25-.59,3.86,3.86,0,0,1,3,1.2,4.86,4.86,0,0,1,1.09,3.4v1h-5.9a2.34,2.34,0,0,0,.72,1.46,2.2,2.2,0,0,0,1.53.54,2.69,2.69,0,0,0,2.24-1l1.21,1.36a3.72,3.72,0,0,1-1.5,1.23A5,5,0,0,1,474.27,381.83Zm-.29-7.62a1.54,1.54,0,0,0-1.19.5,2.61,2.61,0,0,0-.59,1.43h3.45v-.2a1.8,1.8,0,0,0-.45-1.27A1.56,1.56,0,0,0,474,374.21Zm.23-5.71h2.7l-2.38,2.66h-2Z" transform="translate(-7.18)"/><path d="M482.45,370.11v2.28H484v1.82h-1.59v4.62a1.13,1.13,0,0,0,.2.74,1,1,0,0,0,.75.22,4,4,0,0,0,.73-.06v1.88a5.09,5.09,0,0,1-1.5.22A2.37,2.37,0,0,1,480,379.2v-5h-1.35v-1.82H480v-2.28Z" transform="translate(-7.18)"/><path d="M484.77,376.94a5.56,5.56,0,0,1,.53-2.46,3.93,3.93,0,0,1,1.53-1.67,4.42,4.42,0,0,1,2.32-.59,4.2,4.2,0,0,1,3.06,1.15,4.59,4.59,0,0,1,1.33,3.11v.64a4.81,4.81,0,0,1-1.19,3.42,4.6,4.6,0,0,1-6.39,0,4.9,4.9,0,0,1-1.2-3.49Zm2.48.17a3.37,3.37,0,0,0,.5,2,1.78,1.78,0,0,0,2.82,0,3.75,3.75,0,0,0,.51-2.21,3.38,3.38,0,0,0-.51-2,1.63,1.63,0,0,0-1.42-.72,1.61,1.61,0,0,0-1.4.71A3.77,3.77,0,0,0,487.25,377.11Z" transform="translate(-7.18)"/><path d="M494.69,377a5.6,5.6,0,0,1,1-3.46,3.15,3.15,0,0,1,2.66-1.28,2.81,2.81,0,0,1,2.23,1V368.5h2.49v13.16h-2.24l-.12-1a2.89,2.89,0,0,1-2.38,1.16,3.16,3.16,0,0,1-2.63-1.29A5.75,5.75,0,0,1,494.69,377Zm2.48.18a3.68,3.68,0,0,0,.45,2,1.5,1.5,0,0,0,1.32.69,1.64,1.64,0,0,0,1.62-1V375.2a1.63,1.63,0,0,0-1.6-1C497.77,374.23,497.17,375.2,497.17,377.14Z" transform="translate(-7.18)"/><path d="M504.58,376.94a5.56,5.56,0,0,1,.53-2.46,3.93,3.93,0,0,1,1.53-1.67,4.42,4.42,0,0,1,2.32-.59,4.2,4.2,0,0,1,3.06,1.15,4.63,4.63,0,0,1,1.33,3.11v.64a4.81,4.81,0,0,1-1.19,3.42,4.6,4.6,0,0,1-6.39,0,4.9,4.9,0,0,1-1.2-3.49Zm2.48.17a3.44,3.44,0,0,0,.49,2,1.79,1.79,0,0,0,2.83,0,3.75,3.75,0,0,0,.51-2.21,3.38,3.38,0,0,0-.51-2,1.76,1.76,0,0,0-2.83,0A3.86,3.86,0,0,0,507.06,377.11Z" transform="translate(-7.18)"/><path d="M519.91,379.1a.8.8,0,0,0-.45-.72,5,5,0,0,0-1.45-.46c-2.2-.47-3.3-1.4-3.3-2.82a2.57,2.57,0,0,1,1-2.06,4.14,4.14,0,0,1,2.68-.82,4.38,4.38,0,0,1,2.82.83,2.6,2.6,0,0,1,1.06,2.16h-2.48a1.18,1.18,0,0,0-.34-.88,1.45,1.45,0,0,0-1.07-.35,1.53,1.53,0,0,0-1,.28.89.89,0,0,0-.34.72.77.77,0,0,0,.39.67,4.16,4.16,0,0,0,1.31.44,10.79,10.79,0,0,1,1.56.41,2.57,2.57,0,0,1,2,2.49,2.45,2.45,0,0,1-1.09,2.06,4.72,4.72,0,0,1-2.81.78,5,5,0,0,1-2.07-.41,3.52,3.52,0,0,1-1.42-1.14,2.7,2.7,0,0,1-.51-1.57h2.34a1.32,1.32,0,0,0,.49,1,1.92,1.92,0,0,0,1.22.35,1.78,1.78,0,0,0,1.07-.27A.82.82,0,0,0,519.91,379.1Z" transform="translate(-7.18)"/><path d="M527.89,377a5.6,5.6,0,0,1,1-3.46,3.15,3.15,0,0,1,2.66-1.28,2.81,2.81,0,0,1,2.23,1V368.5h2.49v13.16H534l-.12-1a2.89,2.89,0,0,1-2.38,1.16,3.16,3.16,0,0,1-2.63-1.29A5.75,5.75,0,0,1,527.89,377Zm2.48.18a3.68,3.68,0,0,0,.45,2,1.5,1.5,0,0,0,1.32.69,1.64,1.64,0,0,0,1.62-1V375.2a1.63,1.63,0,0,0-1.6-1C531,374.23,530.37,375.2,530.37,377.14Z" transform="translate(-7.18)"/><path d="M542.43,381.83a4.58,4.58,0,0,1-3.32-1.25,4.46,4.46,0,0,1-1.28-3.33V377a5.6,5.6,0,0,1,.54-2.5,4,4,0,0,1,1.53-1.7,4.35,4.35,0,0,1,2.26-.59,3.82,3.82,0,0,1,3,1.2,4.86,4.86,0,0,1,1.1,3.4v1h-5.91a2.3,2.3,0,0,0,.73,1.46,2.2,2.2,0,0,0,1.53.54,2.65,2.65,0,0,0,2.23-1l1.22,1.36a3.75,3.75,0,0,1-1.51,1.23A5,5,0,0,1,542.43,381.83Zm-.28-7.62a1.54,1.54,0,0,0-1.19.5,2.54,2.54,0,0,0-.59,1.43h3.44v-.2a1.84,1.84,0,0,0-.44-1.27A1.58,1.58,0,0,0,542.15,374.21Z" transform="translate(-7.18)"/></g><g class="cls-3"><path d="M451.85,400.89a1.59,1.59,0,0,0,1.11-.38,1.29,1.29,0,0,0,.44-1h2.33a3.22,3.22,0,0,1-.52,1.73,3.32,3.32,0,0,1-1.38,1.21,4.32,4.32,0,0,1-1.94.44,4,4,0,0,1-3.14-1.27,5,5,0,0,1-1.15-3.49V398a4.94,4.94,0,0,1,1.14-3.42,4,4,0,0,1,3.13-1.28,3.9,3.9,0,0,1,2.79,1,3.51,3.51,0,0,1,1.07,2.64H453.4a1.68,1.68,0,0,0-.44-1.18,1.66,1.66,0,0,0-2.44.18,3.69,3.69,0,0,0-.44,2.05v.26a3.67,3.67,0,0,0,.44,2.05A1.5,1.5,0,0,0,451.85,400.89Z" transform="translate(-7.18)"/><path d="M456.75,398a5.43,5.43,0,0,1,.54-2.46,3.81,3.81,0,0,1,1.53-1.67,4.37,4.37,0,0,1,2.31-.6,4.28,4.28,0,0,1,3.07,1.15,4.62,4.62,0,0,1,1.32,3.12l0,.63a4.87,4.87,0,0,1-1.19,3.43,4.61,4.61,0,0,1-6.4,0,4.9,4.9,0,0,1-1.2-3.49Zm2.48.17a3.46,3.46,0,0,0,.5,2,1.62,1.62,0,0,0,1.42.7,1.66,1.66,0,0,0,1.41-.69,3.86,3.86,0,0,0,.5-2.21,3.51,3.51,0,0,0-.5-2,1.67,1.67,0,0,0-1.43-.71,1.62,1.62,0,0,0-1.4.71A3.85,3.85,0,0,0,459.23,398.17Z" transform="translate(-7.18)"/><path d="M469.38,393.45l.08,1a3.29,3.29,0,0,1,2.67-1.21,2.47,2.47,0,0,1,2.45,1.42,3.21,3.21,0,0,1,2.79-1.42,2.76,2.76,0,0,1,2.24.88,4,4,0,0,1,.74,2.65v5.92h-2.48V396.8a1.8,1.8,0,0,0-.31-1.15,1.39,1.39,0,0,0-1.09-.36,1.54,1.54,0,0,0-1.54,1.06v6.37h-2.48v-5.91a1.75,1.75,0,0,0-.32-1.16,1.38,1.38,0,0,0-1.08-.36,1.6,1.6,0,0,0-1.52.87v6.56h-2.48v-9.27Z" transform="translate(-7.18)"/><path d="M487.8,401.77a3.07,3.07,0,0,1-2.53,1.12A3,3,0,0,1,483,402a3.66,3.66,0,0,1-.8-2.51v-6.07h2.48v6c0,1,.44,1.45,1.32,1.45a1.79,1.79,0,0,0,1.73-.87v-6.57h2.48v9.27h-2.33Z" transform="translate(-7.18)"/><path d="M494.35,393.45l.08,1.07a3.23,3.23,0,0,1,2.66-1.25,2.7,2.7,0,0,1,2.2.87,4,4,0,0,1,.73,2.59v6h-2.47v-5.93a1.61,1.61,0,0,0-.35-1.15,1.55,1.55,0,0,0-1.14-.35,1.68,1.68,0,0,0-1.56.89v6.54H492v-9.27Z" transform="translate(-7.18)"/><path d="M501.88,391.05a1.24,1.24,0,0,1,.37-.92,1.61,1.61,0,0,1,2,0,1.21,1.21,0,0,1,.38.92,1.23,1.23,0,0,1-.38.92,1.6,1.6,0,0,1-2,0A1.23,1.23,0,0,1,501.88,391.05Zm2.63,11.67H502v-9.27h2.48Z" transform="translate(-7.18)"/><path d="M510.41,400.89a1.58,1.58,0,0,0,1.11-.38,1.29,1.29,0,0,0,.45-1h2.32a3.22,3.22,0,0,1-.52,1.73,3.26,3.26,0,0,1-1.38,1.21,4.32,4.32,0,0,1-1.94.44,4,4,0,0,1-3.14-1.27,5,5,0,0,1-1.14-3.49V398a4.94,4.94,0,0,1,1.14-3.42,4,4,0,0,1,3.12-1.28,3.9,3.9,0,0,1,2.79,1,3.51,3.51,0,0,1,1.07,2.64H512a1.69,1.69,0,0,0-.45-1.18,1.48,1.48,0,0,0-1.13-.45,1.5,1.5,0,0,0-1.31.63,3.69,3.69,0,0,0-.44,2.05v.26a3.67,3.67,0,0,0,.44,2.05A1.5,1.5,0,0,0,510.41,400.89Z" transform="translate(-7.18)"/><path d="M521.07,402.72a2.89,2.89,0,0,1-.24-.84,3,3,0,0,1-2.34,1,3.33,3.33,0,0,1-2.26-.79,2.54,2.54,0,0,1-.9-2,2.63,2.63,0,0,1,1.1-2.26,5.36,5.36,0,0,1,3.15-.8h1.14v-.53a1.53,1.53,0,0,0-.33-1,1.31,1.31,0,0,0-1-.38,1.49,1.49,0,0,0-1,.3,1,1,0,0,0-.35.82h-2.48a2.5,2.5,0,0,1,.5-1.49,3.28,3.28,0,0,1,1.4-1.08,5.15,5.15,0,0,1,2-.39,4.07,4.07,0,0,1,2.72.86,3,3,0,0,1,1,2.43v4a4.36,4.36,0,0,0,.37,2v.15ZM519,401a2.18,2.18,0,0,0,1-.24,1.55,1.55,0,0,0,.68-.66V398.5h-.92q-1.86,0-2,1.29v.14a1,1,0,0,0,.32.76A1.29,1.29,0,0,0,519,401Z" transform="translate(-7.18)"/><path d="M529,400.89a1.6,1.6,0,0,0,1.12-.38,1.32,1.32,0,0,0,.44-1h2.33a3.22,3.22,0,0,1-.52,1.73,3.38,3.38,0,0,1-1.38,1.21,4.32,4.32,0,0,1-1.94.44,4,4,0,0,1-3.14-1.27,5,5,0,0,1-1.15-3.49V398a4.94,4.94,0,0,1,1.14-3.42,4,4,0,0,1,3.13-1.28,3.9,3.9,0,0,1,2.79,1,3.54,3.54,0,0,1,1.07,2.64h-2.33a1.73,1.73,0,0,0-.44-1.18,1.66,1.66,0,0,0-2.44.18,3.69,3.69,0,0,0-.44,2.05v.26a3.67,3.67,0,0,0,.44,2.05A1.5,1.5,0,0,0,529,400.89Z" transform="translate(-7.18)"/><path d="M534.24,391.05a1.21,1.21,0,0,1,.38-.92,1.37,1.37,0,0,1,1-.36,1.4,1.4,0,0,1,1,.36,1.21,1.21,0,0,1,.38.92,1.23,1.23,0,0,1-.38.92,1.6,1.6,0,0,1-2,0A1.23,1.23,0,0,1,534.24,391.05Zm2.63,11.67h-2.48v-9.27h2.48Z" transform="translate(-7.18)"/><path d="M538.53,398a5.42,5.42,0,0,1,.53-2.46,3.81,3.81,0,0,1,1.53-1.67,4.41,4.41,0,0,1,2.32-.6,4.24,4.24,0,0,1,3.06,1.15,4.62,4.62,0,0,1,1.32,3.12l0,.63a4.87,4.87,0,0,1-1.19,3.43,4.61,4.61,0,0,1-6.4,0,4.94,4.94,0,0,1-1.19-3.49Zm2.47.17a3.46,3.46,0,0,0,.5,2,1.62,1.62,0,0,0,1.42.7,1.66,1.66,0,0,0,1.41-.69,3.86,3.86,0,0,0,.5-2.21,3.51,3.51,0,0,0-.5-2,1.65,1.65,0,0,0-1.42-.71,1.62,1.62,0,0,0-1.41.71A3.85,3.85,0,0,0,541,398.17Zm2.39-8.61h2.7l-2.37,2.65h-2Z" transform="translate(-7.18)"/><path d="M551.11,393.45l.08,1.07a3.23,3.23,0,0,1,2.66-1.25,2.69,2.69,0,0,1,2.2.87,4.1,4.1,0,0,1,.74,2.59v6h-2.48v-5.93a1.66,1.66,0,0,0-.34-1.15,1.57,1.57,0,0,0-1.14-.35,1.69,1.69,0,0,0-1.57.89v6.54h-2.48v-9.27Z" transform="translate(-7.18)"/></g></g><rect id="Rectángulo_5329" data-name="Rectángulo 5329" class="cls-12" x="736.25" y="99.4" width="180.87" height="62.45" rx="3.91"/><rect id="Rectángulo_5330" data-name="Rectángulo 5330" class="cls-12" x="736.25" y="189.51" width="180.87" height="62.45" rx="3.91"/><rect id="Rectángulo_5331" data-name="Rectángulo 5331" class="cls-12" x="736.25" width="180.87" height="62.45" rx="3.91"/><g id="_Peligros_físicos" data-name=" Peligros físicos" class="cls-3"><g class="cls-3"><path class="cls-4" d="M778.53,34.42v4.4H776V26.34h4.87a5.65,5.65,0,0,1,2.47.52,3.77,3.77,0,0,1,1.64,1.46,4,4,0,0,1,.58,2.15,3.59,3.59,0,0,1-1.26,2.9,5.25,5.25,0,0,1-3.47,1.05Zm0-2.08h2.3a2.23,2.23,0,0,0,1.55-.48,1.73,1.73,0,0,0,.54-1.37,2.06,2.06,0,0,0-.54-1.48,2,2,0,0,0-1.49-.58h-2.36Z" transform="translate(-7.18)"/><path class="cls-4" d="M791.39,39a4.56,4.56,0,0,1-3.32-1.25,4.42,4.42,0,0,1-1.28-3.33v-.24a5.6,5.6,0,0,1,.53-2.5,4,4,0,0,1,1.53-1.7,4.38,4.38,0,0,1,2.26-.59,3.86,3.86,0,0,1,3,1.2A4.91,4.91,0,0,1,795.2,34v1h-5.91a2.41,2.41,0,0,0,.73,1.46,2.2,2.2,0,0,0,1.53.54,2.69,2.69,0,0,0,2.24-1L795,37.32a3.69,3.69,0,0,1-1.51,1.23A5,5,0,0,1,791.39,39Zm-.29-7.62a1.54,1.54,0,0,0-1.19.5,2.61,2.61,0,0,0-.59,1.43h3.45v-.2a1.89,1.89,0,0,0-.45-1.28A1.61,1.61,0,0,0,791.1,31.37Z" transform="translate(-7.18)"/><path class="cls-4" d="M799.22,38.82h-2.49V25.66h2.49Z" transform="translate(-7.18)"/><path class="cls-4" d="M801.24,27.15a1.22,1.22,0,0,1,.37-.92,1.61,1.61,0,0,1,2,0,1.22,1.22,0,0,1,.37.92,1.18,1.18,0,0,1-.38.92,1.55,1.55,0,0,1-2,0A1.21,1.21,0,0,1,801.24,27.15Zm2.63,11.67h-2.49V29.55h2.49Z" transform="translate(-7.18)"/><path class="cls-4" d="M805.55,34.11a5.46,5.46,0,0,1,1-3.43,3.29,3.29,0,0,1,2.74-1.3,2.88,2.88,0,0,1,2.37,1l.11-.87H814v9a4,4,0,0,1-.55,2.12A3.59,3.59,0,0,1,811.91,42a5.49,5.49,0,0,1-2.34.47,5.1,5.1,0,0,1-2-.41A3.55,3.55,0,0,1,806.11,41l1.1-1.51a2.89,2.89,0,0,0,2.25,1A2.1,2.1,0,0,0,811,40a2,2,0,0,0,.55-1.49V38a2.86,2.86,0,0,1-2.26,1,3.26,3.26,0,0,1-2.7-1.31,5.4,5.4,0,0,1-1-3.46Zm2.47.19a3.37,3.37,0,0,0,.51,2,1.6,1.6,0,0,0,1.39.71,1.72,1.72,0,0,0,1.62-.85v-3.9a1.71,1.71,0,0,0-1.6-.85,1.62,1.62,0,0,0-1.41.73A3.81,3.81,0,0,0,808,34.3Z" transform="translate(-7.18)"/><path class="cls-4" d="M821.13,31.87a6,6,0,0,0-.89-.07,1.81,1.81,0,0,0-1.84.95v6.07h-2.48V29.55h2.34l.07,1.1a2.3,2.3,0,0,1,2.07-1.27,2.43,2.43,0,0,1,.77.11Z" transform="translate(-7.18)"/><path class="cls-4" d="M821.63,34.1a5.56,5.56,0,0,1,.53-2.46A3.93,3.93,0,0,1,823.69,30a4.42,4.42,0,0,1,2.32-.59,4.23,4.23,0,0,1,3.06,1.14,4.62,4.62,0,0,1,1.32,3.12l0,.64a4.81,4.81,0,0,1-1.19,3.42,4.6,4.6,0,0,1-6.39,0,4.9,4.9,0,0,1-1.2-3.49Zm2.48.17a3.46,3.46,0,0,0,.49,2,1.79,1.79,0,0,0,2.83,0,3.75,3.75,0,0,0,.51-2.21,3.38,3.38,0,0,0-.51-2,1.76,1.76,0,0,0-2.83,0A3.86,3.86,0,0,0,824.11,34.27Z" transform="translate(-7.18)"/><path class="cls-4" d="M837,36.26a.8.8,0,0,0-.45-.72,5.3,5.3,0,0,0-1.45-.47c-2.2-.46-3.3-1.39-3.3-2.81a2.57,2.57,0,0,1,1-2.06,4.14,4.14,0,0,1,2.68-.82,4.4,4.4,0,0,1,2.82.83,2.6,2.6,0,0,1,1.06,2.16h-2.48a1.18,1.18,0,0,0-.34-.88,1.45,1.45,0,0,0-1.07-.35,1.53,1.53,0,0,0-1,.28.89.89,0,0,0-.34.72.77.77,0,0,0,.39.67,4.16,4.16,0,0,0,1.31.44,10.79,10.79,0,0,1,1.56.41,2.57,2.57,0,0,1,2,2.49,2.45,2.45,0,0,1-1.09,2.06,4.72,4.72,0,0,1-2.81.78,4.84,4.84,0,0,1-2.07-.42A3.36,3.36,0,0,1,832,37.44a2.7,2.7,0,0,1-.51-1.57h2.34a1.32,1.32,0,0,0,.49,1,1.92,1.92,0,0,0,1.22.35,1.78,1.78,0,0,0,1.07-.27A.82.82,0,0,0,837,36.26Z" transform="translate(-7.18)"/><path class="cls-4" d="M846,38.82V31.36h-1.38V29.55H846v-.79a3.18,3.18,0,0,1,.89-2.42,3.49,3.49,0,0,1,2.51-.86,6.1,6.1,0,0,1,1.26.17l0,1.92a3.19,3.19,0,0,0-.75-.08c-.93,0-1.4.44-1.4,1.31v.75h1.84v1.81h-1.84v7.46Z" transform="translate(-7.18)"/><path class="cls-4" d="M854.29,38.82h-2.48V29.55h2.48Zm-.73-13h2.7l-2.37,2.65h-2Z" transform="translate(-7.18)"/><path class="cls-4" d="M861.45,36.26a.82.82,0,0,0-.45-.72,5.43,5.43,0,0,0-1.45-.47c-2.2-.46-3.31-1.39-3.31-2.81a2.58,2.58,0,0,1,1-2.06,4.12,4.12,0,0,1,2.68-.82,4.42,4.42,0,0,1,2.82.83,2.63,2.63,0,0,1,1.06,2.16h-2.48a1.18,1.18,0,0,0-.34-.88,1.47,1.47,0,0,0-1.07-.35,1.53,1.53,0,0,0-1,.28.89.89,0,0,0-.34.72.77.77,0,0,0,.39.67,4.07,4.07,0,0,0,1.31.44,10.79,10.79,0,0,1,1.56.41,2.56,2.56,0,0,1,2,2.49,2.43,2.43,0,0,1-1.09,2.06A4.7,4.7,0,0,1,860,39a4.91,4.91,0,0,1-2.07-.42,3.39,3.39,0,0,1-1.41-1.13,2.64,2.64,0,0,1-.52-1.57h2.35a1.28,1.28,0,0,0,.49,1,1.9,1.9,0,0,0,1.22.35,1.78,1.78,0,0,0,1.07-.27A.84.84,0,0,0,861.45,36.26Z" transform="translate(-7.18)"/><path class="cls-4" d="M865.43,27.15a1.22,1.22,0,0,1,.37-.92,1.61,1.61,0,0,1,2,0,1.23,1.23,0,0,1,.38.92,1.19,1.19,0,0,1-.39.92,1.55,1.55,0,0,1-2,0A1.21,1.21,0,0,1,865.43,27.15Zm2.63,11.67h-2.49V29.55h2.49Z" transform="translate(-7.18)"/><path class="cls-4" d="M874,37a1.65,1.65,0,0,0,1.12-.37,1.34,1.34,0,0,0,.44-1h2.33a3.19,3.19,0,0,1-.52,1.73,3.48,3.48,0,0,1-1.38,1.22A4.31,4.31,0,0,1,874,39a4,4,0,0,1-3.14-1.26,5.05,5.05,0,0,1-1.15-3.5v-.16a4.94,4.94,0,0,1,1.14-3.42A4,4,0,0,1,874,29.38a3.9,3.9,0,0,1,2.79,1A3.52,3.52,0,0,1,877.84,33h-2.33a1.7,1.7,0,0,0-.44-1.17,1.46,1.46,0,0,0-1.13-.46,1.49,1.49,0,0,0-1.31.63,3.71,3.71,0,0,0-.44,2v.26a3.64,3.64,0,0,0,.44,2.06A1.49,1.49,0,0,0,874,37Z" transform="translate(-7.18)"/><path class="cls-4" d="M878.86,34.1a5.56,5.56,0,0,1,.53-2.46A3.93,3.93,0,0,1,880.92,30a4.42,4.42,0,0,1,2.32-.59,4.23,4.23,0,0,1,3.06,1.14,4.59,4.59,0,0,1,1.33,3.12l0,.64a4.86,4.86,0,0,1-1.19,3.42,4.61,4.61,0,0,1-6.4,0,4.9,4.9,0,0,1-1.2-3.49Zm2.48.17a3.39,3.39,0,0,0,.5,2,1.78,1.78,0,0,0,2.82,0,3.75,3.75,0,0,0,.51-2.21,3.38,3.38,0,0,0-.51-2,1.75,1.75,0,0,0-2.82,0A3.77,3.77,0,0,0,881.34,34.27Z" transform="translate(-7.18)"/><path class="cls-4" d="M894.19,36.26a.8.8,0,0,0-.45-.72,5.33,5.33,0,0,0-1.44-.47c-2.21-.46-3.31-1.39-3.31-2.81a2.57,2.57,0,0,1,1-2.06,4.16,4.16,0,0,1,2.68-.82,4.43,4.43,0,0,1,2.83.83,2.62,2.62,0,0,1,1.05,2.16H894.1a1.19,1.19,0,0,0-.35-.88,1.43,1.43,0,0,0-1.07-.35,1.55,1.55,0,0,0-1,.28.92.92,0,0,0-.34.72.77.77,0,0,0,.39.67,4.15,4.15,0,0,0,1.32.44,11.16,11.16,0,0,1,1.56.41,2.56,2.56,0,0,1,2,2.49,2.43,2.43,0,0,1-1.09,2.06,4.7,4.7,0,0,1-2.81.78,4.84,4.84,0,0,1-2.07-.42,3.49,3.49,0,0,1-1.42-1.13,2.7,2.7,0,0,1-.51-1.57h2.35a1.26,1.26,0,0,0,.49,1,1.87,1.87,0,0,0,1.21.35,1.81,1.81,0,0,0,1.08-.27A.83.83,0,0,0,894.19,36.26Z" transform="translate(-7.18)"/></g></g><g id="_Peligros_a_la_salud" data-name=" Peligros a la salud" class="cls-3"><g class="cls-3"><path class="cls-4" d="M767.47,130.82v4.39H764.9V122.74h4.87a5.68,5.68,0,0,1,2.47.51,3.83,3.83,0,0,1,1.64,1.46,4.1,4.1,0,0,1,.57,2.16,3.6,3.6,0,0,1-1.25,2.89,5.22,5.22,0,0,1-3.48,1.06Zm0-2.08h2.3a2.25,2.25,0,0,0,1.55-.48,1.74,1.74,0,0,0,.54-1.37,2.07,2.07,0,0,0-.54-1.49,2,2,0,0,0-1.49-.58h-2.36Z" transform="translate(-7.18)"/><path class="cls-4" d="M780.32,135.38a4.52,4.52,0,0,1-3.32-1.25,4.44,4.44,0,0,1-1.28-3.33v-.24a5.63,5.63,0,0,1,.54-2.5,3.93,3.93,0,0,1,1.53-1.69,4.27,4.27,0,0,1,2.26-.6,3.85,3.85,0,0,1,3,1.2,4.88,4.88,0,0,1,1.09,3.4v1h-5.9a2.32,2.32,0,0,0,.72,1.46,2.2,2.2,0,0,0,1.53.55,2.68,2.68,0,0,0,2.24-1l1.22,1.36a3.74,3.74,0,0,1-1.51,1.23A4.89,4.89,0,0,1,780.32,135.38Zm-.28-7.61a1.54,1.54,0,0,0-1.2.5,2.58,2.58,0,0,0-.58,1.43h3.44v-.2a1.82,1.82,0,0,0-.45-1.28A1.58,1.58,0,0,0,780,127.77Z" transform="translate(-7.18)"/><path class="cls-4" d="M788.15,135.21h-2.48V122.05h2.48Z" transform="translate(-7.18)"/><path class="cls-4" d="M790.17,123.54a1.21,1.21,0,0,1,.38-.91,1.37,1.37,0,0,1,1-.36,1.4,1.4,0,0,1,1,.36,1.21,1.21,0,0,1,.38.91,1.24,1.24,0,0,1-.38.93,1.6,1.6,0,0,1-2,0A1.24,1.24,0,0,1,790.17,123.54Zm2.63,11.67h-2.48v-9.27h2.48Z" transform="translate(-7.18)"/><path class="cls-4" d="M794.48,130.51a5.44,5.44,0,0,1,1-3.44,3.32,3.32,0,0,1,2.74-1.3,2.89,2.89,0,0,1,2.37,1l.1-.88H803v9a3.93,3.93,0,0,1-.56,2.11,3.45,3.45,0,0,1-1.55,1.37,5.39,5.39,0,0,1-2.35.47,5.13,5.13,0,0,1-2-.4,3.51,3.51,0,0,1-1.46-1.05l1.1-1.51a2.89,2.89,0,0,0,2.24,1,2.11,2.11,0,0,0,1.53-.53,2,2,0,0,0,.55-1.5v-.49a2.87,2.87,0,0,1-2.25,1,3.27,3.27,0,0,1-2.7-1.3,5.43,5.43,0,0,1-1-3.47Zm2.48.18a3.43,3.43,0,0,0,.5,2,1.61,1.61,0,0,0,1.39.72,1.7,1.7,0,0,0,1.62-.85v-3.91a1.71,1.71,0,0,0-1.6-.84,1.63,1.63,0,0,0-1.4.72A3.84,3.84,0,0,0,797,130.69Z" transform="translate(-7.18)"/><path class="cls-4" d="M810.07,128.27a6.18,6.18,0,0,0-.89-.07,1.82,1.82,0,0,0-1.85,1v6.06h-2.47v-9.27h2.34l.07,1.11a2.28,2.28,0,0,1,2.06-1.28,2.7,2.7,0,0,1,.77.11Z" transform="translate(-7.18)"/><path class="cls-4" d="M810.56,130.49a5.43,5.43,0,0,1,.54-2.46,3.91,3.91,0,0,1,1.52-1.67,4.52,4.52,0,0,1,2.32-.59,4.28,4.28,0,0,1,3.07,1.15,4.62,4.62,0,0,1,1.32,3.12l0,.63a4.89,4.89,0,0,1-1.19,3.43,4.64,4.64,0,0,1-6.4,0,4.92,4.92,0,0,1-1.2-3.5Zm2.48.18a3.48,3.48,0,0,0,.5,2,1.62,1.62,0,0,0,1.42.7,1.66,1.66,0,0,0,1.41-.69,3.86,3.86,0,0,0,.5-2.21,3.49,3.49,0,0,0-.5-2,1.67,1.67,0,0,0-1.43-.71,1.6,1.6,0,0,0-1.4.71A3.85,3.85,0,0,0,813,130.67Z" transform="translate(-7.18)"/><path class="cls-4" d="M825.89,132.65a.79.79,0,0,0-.45-.71,5,5,0,0,0-1.44-.47q-3.32-.69-3.31-2.81a2.53,2.53,0,0,1,1-2.06,4.12,4.12,0,0,1,2.67-.83,4.49,4.49,0,0,1,2.83.83,2.65,2.65,0,0,1,1.06,2.16H825.8a1.26,1.26,0,0,0-.34-.88,1.84,1.84,0,0,0-2-.06.9.9,0,0,0-.35.72.75.75,0,0,0,.39.66,3.91,3.91,0,0,0,1.32.44,9.55,9.55,0,0,1,1.56.42,2.56,2.56,0,0,1,2,2.49,2.41,2.41,0,0,1-1.09,2,4.7,4.7,0,0,1-2.81.78,4.87,4.87,0,0,1-2.07-.41,3.49,3.49,0,0,1-1.41-1.14,2.59,2.59,0,0,1-.52-1.56h2.35a1.27,1.27,0,0,0,.49,1,2,2,0,0,0,1.21.35,1.79,1.79,0,0,0,1.08-.27A.85.85,0,0,0,825.89,132.65Z" transform="translate(-7.18)"/><path class="cls-4" d="M839.64,135.21a2.54,2.54,0,0,1-.25-.83,3,3,0,0,1-2.34,1,3.32,3.32,0,0,1-2.26-.78,2.53,2.53,0,0,1-.89-2,2.61,2.61,0,0,1,1.09-2.26,5.39,5.39,0,0,1,3.16-.8h1.14V129a1.59,1.59,0,0,0-.33-1,1.31,1.31,0,0,0-1.05-.38,1.49,1.49,0,0,0-1,.3,1,1,0,0,0-.35.82H834.1a2.47,2.47,0,0,1,.5-1.49,3.28,3.28,0,0,1,1.4-1.08,5.15,5.15,0,0,1,2-.39,4.07,4.07,0,0,1,2.72.86,3,3,0,0,1,1,2.42v4a4.5,4.5,0,0,0,.37,2v.14Zm-2-1.72a2.18,2.18,0,0,0,1-.24,1.63,1.63,0,0,0,.69-.66V131h-.93c-1.24,0-1.9.43-2,1.28v.15a1,1,0,0,0,.33.76A1.24,1.24,0,0,0,837.59,133.49Z" transform="translate(-7.18)"/><path class="cls-4" d="M850.65,135.21h-2.48V122.05h2.48Z" transform="translate(-7.18)"/><path class="cls-4" d="M858.07,135.21a2.54,2.54,0,0,1-.25-.83,3,3,0,0,1-2.34,1,3.32,3.32,0,0,1-2.26-.78,2.54,2.54,0,0,1-.9-2,2.61,2.61,0,0,1,1.1-2.26,5.38,5.38,0,0,1,3.15-.8h1.14V129a1.53,1.53,0,0,0-.33-1,1.28,1.28,0,0,0-1-.38,1.49,1.49,0,0,0-1,.3,1,1,0,0,0-.35.82h-2.48a2.47,2.47,0,0,1,.5-1.49,3.28,3.28,0,0,1,1.4-1.08,5.15,5.15,0,0,1,2-.39,4.07,4.07,0,0,1,2.72.86,3,3,0,0,1,1,2.42v4a4.36,4.36,0,0,0,.37,2v.14ZM856,133.49a2.18,2.18,0,0,0,1-.24,1.55,1.55,0,0,0,.68-.66V131h-.92c-1.24,0-1.9.43-2,1.28v.15a1,1,0,0,0,.33.76A1.24,1.24,0,0,0,856,133.49Z" transform="translate(-7.18)"/><path class="cls-4" d="M871.49,132.65a.79.79,0,0,0-.45-.71,5,5,0,0,0-1.44-.47q-3.32-.69-3.31-2.81a2.55,2.55,0,0,1,1-2.06,4.16,4.16,0,0,1,2.68-.83,4.44,4.44,0,0,1,2.82.83,2.63,2.63,0,0,1,1.06,2.16H871.4a1.22,1.22,0,0,0-.35-.88,1.82,1.82,0,0,0-2-.06.9.9,0,0,0-.35.72.75.75,0,0,0,.39.66,3.91,3.91,0,0,0,1.32.44,10.14,10.14,0,0,1,1.56.42,2.57,2.57,0,0,1,2,2.49,2.41,2.41,0,0,1-1.09,2,4.7,4.7,0,0,1-2.81.78,4.84,4.84,0,0,1-2.07-.41,3.59,3.59,0,0,1-1.42-1.14,2.64,2.64,0,0,1-.51-1.56h2.35a1.27,1.27,0,0,0,.49,1,1.93,1.93,0,0,0,1.21.35,1.81,1.81,0,0,0,1.08-.27A.85.85,0,0,0,871.49,132.65Z" transform="translate(-7.18)"/><path class="cls-4" d="M880.87,135.21a2.54,2.54,0,0,1-.25-.83,3,3,0,0,1-2.34,1,3.32,3.32,0,0,1-2.26-.78,2.54,2.54,0,0,1-.9-2,2.61,2.61,0,0,1,1.1-2.26,5.38,5.38,0,0,1,3.15-.8h1.14V129a1.53,1.53,0,0,0-.33-1,1.28,1.28,0,0,0-1-.38,1.49,1.49,0,0,0-1,.3,1,1,0,0,0-.35.82h-2.48a2.47,2.47,0,0,1,.5-1.49,3.28,3.28,0,0,1,1.4-1.08,5.15,5.15,0,0,1,2-.39,4.07,4.07,0,0,1,2.72.86,3,3,0,0,1,1,2.42v4a4.36,4.36,0,0,0,.37,2v.14Zm-2-1.72a2.18,2.18,0,0,0,1-.24,1.55,1.55,0,0,0,.68-.66V131h-.92c-1.24,0-1.9.43-2,1.28v.15a1,1,0,0,0,.33.76A1.24,1.24,0,0,0,878.82,133.49Z" transform="translate(-7.18)"/><path class="cls-4" d="M887.51,135.21H885V122.05h2.48Z" transform="translate(-7.18)"/><path class="cls-4" d="M895.1,134.27a3.1,3.1,0,0,1-2.53,1.11,2.94,2.94,0,0,1-2.28-.85,3.66,3.66,0,0,1-.8-2.51v-6.08H892v6c0,1,.44,1.45,1.32,1.45a1.78,1.78,0,0,0,1.73-.88v-6.57h2.48v9.27h-2.33Z" transform="translate(-7.18)"/><path class="cls-4" d="M899,130.51a5.56,5.56,0,0,1,1-3.45,3.15,3.15,0,0,1,2.66-1.29,2.83,2.83,0,0,1,2.23,1v-4.73h2.49v13.16H905.1l-.12-1a2.9,2.9,0,0,1-2.38,1.15A3.15,3.15,0,0,1,900,134.1,5.85,5.85,0,0,1,899,130.51Zm2.47.18a3.59,3.59,0,0,0,.46,2,1.46,1.46,0,0,0,1.31.7,1.64,1.64,0,0,0,1.62-1v-3.67a1.62,1.62,0,0,0-1.6-1C902.06,127.79,901.46,128.75,901.46,130.69Z" transform="translate(-7.18)"/></g></g><g id="_Peligros_ambientales" data-name=" Peligros ambientales" class="cls-3"><g class="cls-3"><path class="cls-4" d="M756.5,219.1v4.4h-2.57V211h4.86a5.72,5.72,0,0,1,2.48.51,3.82,3.82,0,0,1,1.64,1.46,4.1,4.1,0,0,1,.57,2.16,3.6,3.6,0,0,1-1.25,2.89,5.28,5.28,0,0,1-3.48,1Zm0-2.08h2.29a2.28,2.28,0,0,0,1.56-.48,1.72,1.72,0,0,0,.53-1.37,2,2,0,0,0-.54-1.48,2,2,0,0,0-1.49-.58H756.5Z" transform="translate(-7.18)"/><path class="cls-4" d="M769.35,223.67a4.56,4.56,0,0,1-3.32-1.25,4.44,4.44,0,0,1-1.28-3.33v-.24a5.6,5.6,0,0,1,.54-2.5,4,4,0,0,1,1.53-1.7,4.35,4.35,0,0,1,2.26-.59,3.85,3.85,0,0,1,3,1.2,4.86,4.86,0,0,1,1.09,3.4v1h-5.9a2.32,2.32,0,0,0,.72,1.46,2.24,2.24,0,0,0,1.53.54,2.67,2.67,0,0,0,2.24-1L773,222a3.74,3.74,0,0,1-1.51,1.23A5,5,0,0,1,769.35,223.67Zm-.28-7.62a1.58,1.58,0,0,0-1.2.5,2.61,2.61,0,0,0-.58,1.43h3.44v-.2a1.8,1.8,0,0,0-.45-1.27A1.59,1.59,0,0,0,769.07,216.05Z" transform="translate(-7.18)"/><path class="cls-4" d="M777.18,223.5H774.7V210.34h2.48Z" transform="translate(-7.18)"/><path class="cls-4" d="M779.2,211.83a1.23,1.23,0,0,1,.38-.92,1.37,1.37,0,0,1,1-.36,1.4,1.4,0,0,1,1,.36,1.32,1.32,0,0,1,0,1.85,1.6,1.6,0,0,1-2,0A1.24,1.24,0,0,1,779.2,211.83Zm2.63,11.67h-2.48v-9.27h2.48Z" transform="translate(-7.18)"/><path class="cls-4" d="M783.51,218.8a5.42,5.42,0,0,1,1-3.44,3.27,3.27,0,0,1,2.73-1.3,2.92,2.92,0,0,1,2.38,1l.1-.87H792v9a4,4,0,0,1-.56,2.12,3.57,3.57,0,0,1-1.55,1.37,5.54,5.54,0,0,1-2.35.47,5.14,5.14,0,0,1-2-.41,3.51,3.51,0,0,1-1.46-1.05l1.09-1.5a2.91,2.91,0,0,0,2.25,1,2.1,2.1,0,0,0,1.53-.52,2,2,0,0,0,.55-1.5v-.5a2.84,2.84,0,0,1-2.25,1,3.29,3.29,0,0,1-2.71-1.3,5.51,5.51,0,0,1-1-3.47ZM786,219a3.45,3.45,0,0,0,.5,2,1.6,1.6,0,0,0,1.39.71,1.71,1.71,0,0,0,1.62-.84v-3.91a1.7,1.7,0,0,0-1.6-.85,1.6,1.6,0,0,0-1.4.73A3.81,3.81,0,0,0,786,219Z" transform="translate(-7.18)"/><path class="cls-4" d="M799.1,216.55a8.05,8.05,0,0,0-.89-.07,1.84,1.84,0,0,0-1.85,1v6.07h-2.47v-9.27h2.34l.06,1.1a2.3,2.3,0,0,1,2.07-1.27,2.76,2.76,0,0,1,.77.11Z" transform="translate(-7.18)"/><path class="cls-4" d="M799.59,218.78a5.56,5.56,0,0,1,.53-2.46,3.93,3.93,0,0,1,1.53-1.67,4.42,4.42,0,0,1,2.32-.59,4.24,4.24,0,0,1,3.07,1.15,4.58,4.58,0,0,1,1.32,3.12l0,.63a4.86,4.86,0,0,1-1.19,3.42,4.63,4.63,0,0,1-6.4,0,4.94,4.94,0,0,1-1.2-3.5Zm2.48.18a3.48,3.48,0,0,0,.5,2,1.79,1.79,0,0,0,2.82,0,3.75,3.75,0,0,0,.51-2.21,3.38,3.38,0,0,0-.51-2,1.75,1.75,0,0,0-2.82,0A3.86,3.86,0,0,0,802.07,219Z" transform="translate(-7.18)"/><path class="cls-4" d="M814.92,220.94a.81.81,0,0,0-.45-.72,5,5,0,0,0-1.44-.46c-2.21-.47-3.31-1.4-3.31-2.81a2.55,2.55,0,0,1,1-2.07,4.11,4.11,0,0,1,2.67-.82,4.43,4.43,0,0,1,2.83.83,2.62,2.62,0,0,1,1,2.16h-2.47a1.22,1.22,0,0,0-.34-.88,1.48,1.48,0,0,0-1.08-.35,1.45,1.45,0,0,0-1,.29.87.87,0,0,0-.35.72.76.76,0,0,0,.39.66,4.15,4.15,0,0,0,1.32.44,10.79,10.79,0,0,1,1.56.41,2.56,2.56,0,0,1,2,2.49,2.41,2.41,0,0,1-1.09,2.06,4.7,4.7,0,0,1-2.81.78,5,5,0,0,1-2.07-.41,3.59,3.59,0,0,1-1.42-1.14,2.7,2.7,0,0,1-.51-1.57h2.35a1.26,1.26,0,0,0,.49,1,1.88,1.88,0,0,0,1.21.36,1.79,1.79,0,0,0,1.08-.27A.86.86,0,0,0,814.92,220.94Z" transform="translate(-7.18)"/><path class="cls-4" d="M828.67,223.5a2.54,2.54,0,0,1-.25-.83,3,3,0,0,1-2.34,1,3.28,3.28,0,0,1-2.26-.79,2.51,2.51,0,0,1-.9-2,2.63,2.63,0,0,1,1.1-2.27,5.38,5.38,0,0,1,3.15-.79h1.14v-.53a1.52,1.52,0,0,0-.33-1,1.28,1.28,0,0,0-1-.39,1.49,1.49,0,0,0-1,.3,1,1,0,0,0-.35.82h-2.48a2.52,2.52,0,0,1,.5-1.49,3.34,3.34,0,0,1,1.4-1.07,5.15,5.15,0,0,1,2-.39,4.07,4.07,0,0,1,2.72.86,3,3,0,0,1,1,2.42v4a4.32,4.32,0,0,0,.37,2v.15Zm-2-1.72a2.07,2.07,0,0,0,1-.25,1.53,1.53,0,0,0,.68-.65v-1.6h-.92q-1.86,0-2,1.29v.15a1,1,0,0,0,.33.76A1.24,1.24,0,0,0,826.62,221.78Z" transform="translate(-7.18)"/><path class="cls-4" d="M835,214.23l.08,1a3.24,3.24,0,0,1,2.66-1.21,2.46,2.46,0,0,1,2.46,1.41,3.19,3.19,0,0,1,2.79-1.41,2.75,2.75,0,0,1,2.24.88,4,4,0,0,1,.74,2.64v5.92H843.5v-5.91a1.78,1.78,0,0,0-.3-1.15,1.35,1.35,0,0,0-1.09-.37,1.55,1.55,0,0,0-1.54,1.06v6.37H838.1v-5.9a1.76,1.76,0,0,0-.32-1.17,1.38,1.38,0,0,0-1.08-.36,1.59,1.59,0,0,0-1.52.88v6.55H832.7v-9.27Z" transform="translate(-7.18)"/><path class="cls-4" d="M856.25,219a5.55,5.55,0,0,1-1,3.47,3.12,3.12,0,0,1-2.65,1.25,2.87,2.87,0,0,1-2.41-1.16l-.11,1h-2.23V210.34h2.48v4.72a2.81,2.81,0,0,1,2.25-1,3.17,3.17,0,0,1,2.66,1.24,5.68,5.68,0,0,1,1,3.51Zm-2.48-.18a3.64,3.64,0,0,0-.45-2.05,1.5,1.5,0,0,0-1.32-.65,1.62,1.62,0,0,0-1.63,1v3.66a1.65,1.65,0,0,0,1.64,1,1.53,1.53,0,0,0,1.58-1.18A6.05,6.05,0,0,0,853.77,218.77Z" transform="translate(-7.18)"/><path class="cls-4" d="M857.75,211.83a1.23,1.23,0,0,1,.38-.92,1.37,1.37,0,0,1,1-.36,1.4,1.4,0,0,1,1,.36,1.32,1.32,0,0,1,0,1.85,1.6,1.6,0,0,1-2,0A1.24,1.24,0,0,1,857.75,211.83Zm2.63,11.67H857.9v-9.27h2.48Z" transform="translate(-7.18)"/><path class="cls-4" d="M866.69,223.67a4.56,4.56,0,0,1-3.32-1.25,4.44,4.44,0,0,1-1.28-3.33v-.24a5.6,5.6,0,0,1,.54-2.5,4,4,0,0,1,1.53-1.7,4.35,4.35,0,0,1,2.26-.59,3.85,3.85,0,0,1,3,1.2,4.86,4.86,0,0,1,1.09,3.4v1h-5.9a2.32,2.32,0,0,0,.72,1.46,2.24,2.24,0,0,0,1.53.54,2.67,2.67,0,0,0,2.24-1L870.3,222a3.64,3.64,0,0,1-1.5,1.23A5,5,0,0,1,866.69,223.67Zm-.28-7.62a1.58,1.58,0,0,0-1.2.5,2.69,2.69,0,0,0-.59,1.43h3.45v-.2a1.8,1.8,0,0,0-.45-1.27A1.59,1.59,0,0,0,866.41,216.05Z" transform="translate(-7.18)"/><path class="cls-4" d="M874.19,214.23l.07,1.07a3.24,3.24,0,0,1,2.67-1.24,2.7,2.7,0,0,1,2.19.86,4,4,0,0,1,.74,2.59v6h-2.48v-5.93a1.59,1.59,0,0,0-.34-1.14,1.53,1.53,0,0,0-1.14-.36,1.71,1.71,0,0,0-1.57.89v6.54h-2.47v-9.27Z" transform="translate(-7.18)"/><path class="cls-4" d="M884.7,212v2.28h1.58v1.82H884.7v4.62a1.06,1.06,0,0,0,.2.74,1,1,0,0,0,.75.22,4,4,0,0,0,.73-.06v1.88a5.09,5.09,0,0,1-1.5.22,2.37,2.37,0,0,1-2.66-2.63v-5h-1.35v-1.82h1.35V212Z" transform="translate(-7.18)"/><path class="cls-4" d="M893,223.5a2.54,2.54,0,0,1-.25-.83,3,3,0,0,1-2.34,1,3.28,3.28,0,0,1-2.26-.79,2.51,2.51,0,0,1-.9-2,2.63,2.63,0,0,1,1.1-2.27,5.38,5.38,0,0,1,3.15-.79h1.14v-.53a1.52,1.52,0,0,0-.33-1,1.28,1.28,0,0,0-1-.39,1.49,1.49,0,0,0-1,.3,1,1,0,0,0-.35.82H887.5a2.52,2.52,0,0,1,.5-1.49,3.34,3.34,0,0,1,1.4-1.07,5.15,5.15,0,0,1,2-.39,4.07,4.07,0,0,1,2.72.86,3,3,0,0,1,1,2.42v4a4.32,4.32,0,0,0,.37,2v.15Zm-2-1.72a2.07,2.07,0,0,0,1-.25,1.53,1.53,0,0,0,.68-.65v-1.6h-.92q-1.86,0-2,1.29v.15a1,1,0,0,0,.33.76A1.24,1.24,0,0,0,891,221.78Z" transform="translate(-7.18)"/><path class="cls-4" d="M899.68,223.5H897.2V210.34h2.48Z" transform="translate(-7.18)"/><path class="cls-4" d="M906,223.67a4.56,4.56,0,0,1-3.32-1.25,4.44,4.44,0,0,1-1.28-3.33v-.24a5.6,5.6,0,0,1,.54-2.5,4,4,0,0,1,1.53-1.7,4.35,4.35,0,0,1,2.26-.59,3.85,3.85,0,0,1,3,1.2,4.86,4.86,0,0,1,1.09,3.4v1h-5.9a2.32,2.32,0,0,0,.72,1.46,2.24,2.24,0,0,0,1.53.54,2.67,2.67,0,0,0,2.24-1l1.22,1.36a3.74,3.74,0,0,1-1.51,1.23A5,5,0,0,1,906,223.67Zm-.28-7.62a1.58,1.58,0,0,0-1.2.5,2.69,2.69,0,0,0-.59,1.43h3.45v-.2a1.8,1.8,0,0,0-.45-1.27A1.59,1.59,0,0,0,905.71,216.05Z" transform="translate(-7.18)"/><path class="cls-4" d="M916.23,220.94a.81.81,0,0,0-.45-.72,5,5,0,0,0-1.45-.46c-2.2-.47-3.3-1.4-3.3-2.81a2.57,2.57,0,0,1,1-2.07,4.14,4.14,0,0,1,2.68-.82,4.38,4.38,0,0,1,2.82.83,2.6,2.6,0,0,1,1.06,2.16h-2.48a1.18,1.18,0,0,0-.34-.88,1.45,1.45,0,0,0-1.07-.35,1.48,1.48,0,0,0-1,.29.86.86,0,0,0-.34.72.76.76,0,0,0,.39.66,4.16,4.16,0,0,0,1.31.44,10.79,10.79,0,0,1,1.56.41,2.57,2.57,0,0,1,2,2.49,2.44,2.44,0,0,1-1.09,2.06,4.72,4.72,0,0,1-2.81.78,5,5,0,0,1-2.07-.41,3.52,3.52,0,0,1-1.42-1.14,2.7,2.7,0,0,1-.51-1.57h2.34a1.32,1.32,0,0,0,.49,1,1.92,1.92,0,0,0,1.22.36,1.78,1.78,0,0,0,1.07-.27A.85.85,0,0,0,916.23,220.94Z" transform="translate(-7.18)"/></g></g></g></svg>