<svg xmlns="http://www.w3.org/2000/svg" width="126" height="126" viewBox="0 0 126 126">
  <g id="Grupo_57250" data-name="Grupo 57250" transform="translate(-232 -25876.309)">
    <g id="Elipse_4108" data-name="Elipse 4108" transform="translate(232 25876.309)" fill="#fff" stroke="#09b291" stroke-width="5">
      <circle cx="63" cy="63" r="63" stroke="none"/>
      <circle cx="63" cy="63" r="60.5" fill="none"/>
    </g>
    <g id="Grupo_56781" data-name="Grupo 56781" transform="translate(-1351.396 25690.586)">
      <g id="tag" transform="translate(1600.984 206.621)">
        <path id="Trazado_102009" data-name="Trazado 102009" d="M1662.644,246.709l-1.461,2.357a15.156,15.156,0,0,1,7.225,12.971h2.774a17.915,17.915,0,0,0-8.538-15.328Z" transform="translate(-1595.316 -202.847)" fill="#065949"/>
        <path id="Trazado_102010" data-name="Trazado 102010" d="M1673.84,247.694l-19.178-11.356V221.056l3.994-3.979a4.162,4.162,0,0,1,5.88,0l8.555,8.556,1.969-1.969-8.555-8.556a6.956,6.956,0,0,0-9.818,0l-2.025,2.038v-6.365a4.172,4.172,0,0,0-4.16-4.16h-24.96a4.172,4.172,0,0,0-4.16,4.16v6.365l-2.025-2.038a6.965,6.965,0,0,0-9.817,0l-8.556,8.556,1.969,1.969,8.555-8.556a4.238,4.238,0,0,1,5.88,0l3.994,3.979v36.872a4.172,4.172,0,0,0,4.16,4.16h5.588a6,6,0,0,0,.6.735l10.456,12.259v2.259a12.5,12.5,0,0,0,12.48,12.481h24.961a2.782,2.782,0,0,0,2.773-2.774V263.031a17.93,17.93,0,0,0-8.555-15.337Zm-49.685-24.544a6.934,6.934,0,0,0,7.683-1.442l2.87-2.884a4.158,4.158,0,1,0-.777-3.134l-4.062,4.048a4.239,4.239,0,0,1-5.714.139v-9.1a1.387,1.387,0,0,1,1.387-1.386h24.96a1.387,1.387,0,0,1,1.387,1.386v15.254h-27.734Zm12.481-6.822a1.386,1.386,0,1,1,1.386,1.386A1.387,1.387,0,0,1,1636.636,216.328Zm-6.753,42.987h-4.341a1.388,1.388,0,0,1-1.387-1.387v-29.12h27.734v29.12a1.388,1.388,0,0,1-1.387,1.387h-2.51l-6.378-6.227a6.947,6.947,0,0,0-11.731,6.227Zm49.74,27.733h-24.961a9.717,9.717,0,0,1-9.706-9.707v-2.773a1.35,1.35,0,0,0-.333-.9l-10.858-12.729a4.162,4.162,0,0,1,0-5.88,4.255,4.255,0,0,1,5.894.014l18.192,17.721,1.942-2-8.986-8.736a4.159,4.159,0,0,0,3.855-4.133V239.555l17.736,10.51a15.173,15.173,0,0,1,7.225,12.966Z" transform="translate(-1600.984 -206.621)" fill="#065949"/>
        <path id="Trazado_102011" data-name="Trazado 102011" d="M1624.7,229.434h2.774v2.773H1624.7Z" transform="translate(-1598.751 -204.473)" fill="#065949"/>
        <path id="Trazado_102012" data-name="Trazado 102012" d="M1629.766,229.434h16.64v2.773h-16.64Z" transform="translate(-1598.274 -204.473)" fill="#065949"/>
        <path id="Trazado_102013" data-name="Trazado 102013" d="M1624.7,234.5h13.867v2.774H1624.7Z" transform="translate(-1598.751 -203.996)" fill="#065949"/>
        <path id="Trazado_102014" data-name="Trazado 102014" d="M1639.9,234.5h5.547v2.774H1639.9Z" transform="translate(-1597.32 -203.996)" fill="#065949"/>
        <path id="Trazado_102015" data-name="Trazado 102015" d="M1624.7,239.572h5.547v2.774H1624.7Z" transform="translate(-1598.751 -203.519)" fill="#065949"/>
        <path id="Trazado_102016" data-name="Trazado 102016" d="M1632.3,239.572h13.867v2.774H1632.3Z" transform="translate(-1598.036 -203.519)" fill="#065949"/>
      </g>
    </g>
  </g>
</svg>
