<svg xmlns="http://www.w3.org/2000/svg" width="79.951" height="80.049" viewBox="0 0 79.951 80.049">
  <g id="Grupo_57151" data-name="Grupo 57151" transform="translate(-71.136 -2864.869)">
    <path id="Trazado_102767" data-name="Trazado 102767" d="M128.308,2868.775a40.007,40.007,0,0,0-48.948,60.443h0a40.126,40.126,0,0,0,14.432,11.754v.01c.043.02.087.036.13.057s.078.041.118.06v-.009a39.94,39.94,0,0,0,41.482-4.509l0,0,5.463-5.112a40.087,40.087,0,0,0,6.195-9.339l0,0h0A40.045,40.045,0,0,0,128.308,2868.775Z" fill="#f94e4e"/>
    <g id="Grupo_57150" data-name="Grupo 57150">
      <g id="Grupo_57149" data-name="Grupo 57149">
        <g id="Grupo_57147" data-name="Grupo 57147">
          <g id="Grupo_57146" data-name="Grupo 57146">
            <path id="Trazado_102768" data-name="Trazado 102768" d="M111.111,2932.425c27.8-11.383,27-43.414,27-43.414-8.736-8.736-27-11.648-27-11.648s-18.265,2.912-27,11.648C84.11,2889.011,83.316,2921.042,111.111,2932.425Z" fill="#bdf1ff"/>
            <path id="Trazado_102769" data-name="Trazado 102769" d="M111.111,2932.425c-27.8-11.383-27-43.414-27-43.414,8.546-8.547,26.213-11.519,26.976-11.643-.593.115-11.512,2.291-19.207,8.2a8.978,8.978,0,0,0-3.462,7.878C89.193,2902.646,92.965,2923.658,111.111,2932.425Z" fill="#69d1ff"/>
            <path id="Trazado_102770" data-name="Trazado 102770" d="M111.111,2925.953c-8.6-4.184-14.717-11.269-18.217-21.092a51.589,51.589,0,0,1-2.777-13.262c6.115-4.689,16.287-7.362,20.989-8.237,4.7.883,14.9,3.571,21,8.24a51.6,51.6,0,0,1-2.778,13.259C125.829,2914.684,119.706,2921.769,111.111,2925.953Z" fill="#f5f0f0"/>
            <path id="Trazado_102771" data-name="Trazado 102771" d="M111.112,2925.954c-8.6-4.185-14.718-11.27-18.217-21.093a51.549,51.549,0,0,1-2.778-13.262c6.116-4.688,16.287-7.361,20.989-8.237a55.259,55.259,0,0,0-10.351,3.414,11.792,11.792,0,0,0-6.716,13.181c.327,1.557.741,3.209,1.265,4.9C98.341,2914.684,103.653,2921.769,111.112,2925.954Z" fill="#e8ded8"/>
          </g>
        </g>
        <g id="Grupo_57148" data-name="Grupo 57148">
          <path id="Trazado_102772" data-name="Trazado 102772" d="M120.082,2898.705q-1.64-.071-3.28-.114a1.241,1.241,0,0,1-1.208-1.209q-.045-1.64-.115-3.279a1.231,1.231,0,0,0-.985-1.159,17.31,17.31,0,0,0-6.766,0,1.233,1.233,0,0,0-.985,1.159q-.07,1.64-.114,3.279a1.242,1.242,0,0,1-1.209,1.209q-1.639.044-3.279.114a1.233,1.233,0,0,0-1.159.985,17.313,17.313,0,0,0,0,6.766,1.232,1.232,0,0,0,1.159.985q1.64.071,3.279.115a1.241,1.241,0,0,1,1.209,1.208q.043,1.64.114,3.28a1.233,1.233,0,0,0,.985,1.158,17.31,17.31,0,0,0,6.766,0,1.231,1.231,0,0,0,.985-1.158q.071-1.641.115-3.28a1.24,1.24,0,0,1,1.208-1.208q1.639-.045,3.28-.115a1.233,1.233,0,0,0,1.159-.985,17.313,17.313,0,0,0,0-6.766,1.234,1.234,0,0,0-1.159-.985Z" fill="#f94e4e"/>
        </g>
      </g>
    </g>
  </g>
</svg>
