<svg xmlns="http://www.w3.org/2000/svg" xmlns:xlink="http://www.w3.org/1999/xlink" width="86.901" height="112.652" viewBox="0 0 86.901 112.652">
  <defs>
    <clipPath id="clip-path">
      <path id="Trazado_101717" data-name="Trazado 101717" d="M877.034,5424.36c.087-.236.169-.473.251-.709.183-.529.364-1.058.525-1.591.128-.421.237-.844.352-1.266q.261-.972.479-1.949c.111-.505.218-1.01.311-1.517q.094-.521.177-1.042c.1-.629.182-1.258.253-1.887.025-.22.058-.439.079-.659.083-.852.136-1.7.167-2.555.009-.227.01-.454.014-.681q.022-1.023-.005-2.041c-.006-.236-.01-.471-.02-.706-.037-.865-.093-1.727-.182-2.586-.011-.111-.029-.221-.042-.332-.083-.754-.189-1.5-.312-2.25-.043-.263-.09-.525-.138-.787q-.189-1.03-.427-2.049c-.041-.176-.076-.354-.12-.53-.2-.825-.436-1.641-.688-2.452-.071-.229-.149-.455-.223-.683q-.327-.993-.7-1.969c-.072-.187-.139-.374-.213-.559q-.5-1.26-1.083-2.489c-.023-.049-.049-.1-.073-.147-.394-.825-.819-1.636-1.265-2.436-.031-.055,6.131-24.042,6.1-24.1-4.21-7.461-27.38-17.311-35.7-21.278-21.516-10.257-47.755,7.322-47.478,28.906.009.735-.128,20.308-.409,20.981-.008.02-.017.04-.025.059-.238.575-.459,1.153-.671,1.734-.086.237-.17.475-.252.713-.182.528-.363,1.055-.523,1.587-.13.428-.242.858-.358,1.287-.172.64-.331,1.281-.473,1.926-.112.507-.219,1.014-.312,1.522q-.094.519-.177,1.041c-.1.628-.182,1.257-.253,1.886-.025.22-.058.439-.079.659-.083.853-.136,1.706-.168,2.557-.008.226-.008.451-.013.677q-.023,1.025.005,2.046c.006.234.01.468.02.7.037.865.093,1.728.182,2.587.011.111.029.221.042.333.083.753.189,1.5.312,2.25.043.262.09.525.138.787q.189,1.029.427,2.047c.042.177.076.355.119.532.205.824.437,1.64.688,2.45.072.23.15.458.225.686q.327.993.7,1.968c.071.186.139.373.213.558.336.841.7,1.671,1.083,2.49l.073.146c.394.825.818,1.635,1.265,2.435l.093.169a43.15,43.15,0,0,0,76.52-2.669c.317-.665.6-1.341.876-2.016l.023-.053C876.6,5425.521,876.822,5424.942,877.034,5424.36Z" fill="none"/>
    </clipPath>
  </defs>
  <g id="Grupo_56600" data-name="Grupo 56600" transform="translate(-793.349 -5340.109)">
    <path id="Trazado_101702" data-name="Trazado 101702" d="M877.034,5424.36c.087-.236.169-.473.251-.709.183-.529.364-1.058.525-1.591.128-.421.237-.844.352-1.266q.261-.972.479-1.949c.111-.505.218-1.01.311-1.517q.094-.521.177-1.042c.1-.629.182-1.258.253-1.887.025-.22.058-.439.079-.659.083-.852.136-1.7.167-2.555.009-.227.01-.454.014-.681q.022-1.023-.005-2.041c-.006-.236-.01-.471-.02-.706-.037-.865-.093-1.727-.182-2.586-.011-.111-.029-.221-.042-.332-.083-.754-.189-1.5-.312-2.25-.043-.263-.09-.525-.138-.787q-.189-1.03-.427-2.049c-.041-.176-.076-.354-.12-.53-.2-.825-.436-1.641-.688-2.452-.071-.229-.149-.455-.223-.683q-.327-.993-.7-1.969c-.072-.187-.139-.374-.213-.559q-.5-1.26-1.083-2.489c-.023-.049-.049-.1-.073-.147-.394-.825-.819-1.636-1.265-2.436-.031-.055-.061-.111-.093-.166a43.148,43.148,0,0,0-76.519,2.667c-.317.663-.594,1.338-.875,2.011-.008.02-.017.04-.025.059-.238.575-.459,1.153-.671,1.734-.086.237-.17.475-.252.713-.182.528-.363,1.055-.523,1.587-.13.428-.242.858-.358,1.287-.172.64-.331,1.281-.473,1.926-.112.507-.219,1.014-.312,1.522q-.094.519-.177,1.041c-.1.628-.182,1.257-.253,1.886-.025.22-.058.439-.079.659-.083.853-.136,1.706-.168,2.557-.008.226-.008.451-.013.677q-.023,1.025.005,2.046c.006.234.01.468.02.7.037.865.093,1.728.182,2.587.011.111.029.221.042.333.083.753.189,1.5.312,2.25.043.262.09.525.138.787q.189,1.029.427,2.047c.042.177.076.355.119.532.205.824.437,1.64.688,2.45.072.23.15.458.225.686q.327.993.7,1.968c.071.186.139.373.213.558.336.841.7,1.671,1.083,2.49l.073.146c.394.825.818,1.635,1.265,2.435l.093.169a43.15,43.15,0,0,0,76.52-2.669c.317-.665.6-1.341.876-2.016l.023-.053C876.6,5425.521,876.822,5424.942,877.034,5424.36Z" fill="#0dcea9"/>
    <path id="Trazado_2310" data-name="Trazado 2310" d="M801.246,5384.66c5.1,3.658,12.959,3.831,15.922-1.329,1.969-3.429-.035-8.109-1.96-11.312A43.377,43.377,0,0,0,801.246,5384.66Z" fill="#09b291"/>
    <path id="Trazado_2311" data-name="Trazado 2311" d="M879.645,5409.565a43.047,43.047,0,0,0-14.613-32.365c-1.756,2.328-2.282,6.052-1.226,11.14,2.114,10.189-11.566,12.356-2.994,23.263,4.476,5.695,12.117,5.725,18.341,4.483a43.523,43.523,0,0,0,.494-6.521Z" fill="#09b291"/>
    <g id="Grupo_56604" data-name="Grupo 56604">
      <g id="Grupo_56603" data-name="Grupo 56603" clip-path="url(#clip-path)">
        <g id="Grupo_56602" data-name="Grupo 56602">
          <g id="Grupo_56601" data-name="Grupo 56601">
            <circle id="Elipse_4069" data-name="Elipse 4069" cx="31.159" cy="31.159" r="31.159" transform="translate(797.739 5356.734)" fill="#e5efef"/>
            <path id="Trazado_101703" data-name="Trazado 101703" d="M825.275,5387.168h-4.348a8.7,8.7,0,0,0-8.7,8.7v9.064a22.7,22.7,0,0,0,12.475,20.574c.646.311,1.32.6,2.017.852V5435h31.884V5424.69a16.906,16.906,0,0,0,7.247-13.88v-38.859a5.072,5.072,0,0,0-10.145,0v-14.493a5.073,5.073,0,0,0-10.145,0v-5.8a5.073,5.073,0,0,0-5.073-5.072c-2.8,0-5.072,3.72-5.072,6.521v5.8a5.072,5.072,0,1,0-10.145,0v28.26Z" fill="#ffded5"/>
            <g id="Grupo_56600-2" data-name="Grupo 56600">
              <path id="Trazado_101704" data-name="Trazado 101704" d="M835.42,5387.893a1.449,1.449,0,0,1-1.449-1.449v-27.536a3.624,3.624,0,1,0-7.247,0V5386.4a1.449,1.449,0,1,1-2.9,0v-27.488a6.522,6.522,0,1,1,13.043,0v27.536A1.449,1.449,0,0,1,835.42,5387.893Z" fill="#963030"/>
              <path id="Trazado_101705" data-name="Trazado 101705" d="M858.608,5436.444a1.449,1.449,0,0,1-1.449-1.449V5424.69a1.449,1.449,0,0,1,.619-1.188,15.508,15.508,0,0,0,6.627-12.692v-38.859a3.623,3.623,0,1,0-7.246,0v13.39a10.017,10.017,0,0,0,2.532,6.662,1.449,1.449,0,1,1-2.165,1.925,12.9,12.9,0,0,1-3.265-8.586v-13.391a6.522,6.522,0,1,1,13.043,0v38.859a18.409,18.409,0,0,1-7.246,14.616V5435a1.449,1.449,0,0,1-1.45,1.449Z" fill="#963030"/>
              <path id="Trazado_101706" data-name="Trazado 101706" d="M826.724,5436.444a1.449,1.449,0,0,1-1.449-1.449v-7.652c-.414-.172-.814-.351-1.2-.536a24.2,24.2,0,0,1-13.3-21.879v-9.064a10.157,10.157,0,0,1,10.145-10.145l10.879.014a6.515,6.515,0,0,1,0,13.03h-4.732a11.548,11.548,0,0,0,4.659,6.184c5.253,3.5,5.819,5.629,5.819,6.38a1.449,1.449,0,0,1-2.886.189c-.074-.194-.718-1.608-4.541-4.157a14.3,14.3,0,0,1-6.292-9.917,1.449,1.449,0,0,1,1.444-1.578H831.8a3.616,3.616,0,1,0,0-7.232l-10.879-.014a7.254,7.254,0,0,0-7.244,7.246v9.064a21.284,21.284,0,0,0,11.655,19.268c.587.283,1.223.552,1.891.8a1.45,1.45,0,0,1,.947,1.36V5435a1.449,1.449,0,0,1-1.45,1.449Zm7.928-25.113h0Zm0,0h0Z" fill="#963030"/>
              <path id="Trazado_101707" data-name="Trazado 101707" d="M855.71,5387.893a1.448,1.448,0,0,1-1.449-1.449v-28.986a3.624,3.624,0,0,0-7.247,0v26.087a1.449,1.449,0,1,1-2.9,0v-26.087a6.521,6.521,0,0,1,13.043,0v28.986A1.449,1.449,0,0,1,855.71,5387.893Z" fill="#963030"/>
              <path id="Trazado_101708" data-name="Trazado 101708" d="M835.42,5390.067a1.449,1.449,0,0,1-1.449-1.449v-36.957a6.521,6.521,0,1,1,13.043,0v31.884a1.449,1.449,0,1,1-2.9,0v-31.884a3.624,3.624,0,0,0-7.247,0v36.957A1.449,1.449,0,0,1,835.42,5390.067Z" fill="#963030"/>
            </g>
            <path id="Trazado_101709" data-name="Trazado 101709" d="M842.665,5417.6a1.449,1.449,0,0,1-1.25-2.18l10.144-17.391a1.449,1.449,0,1,1,2.5,1.461l-10.145,17.391A1.446,1.446,0,0,1,842.665,5417.6Z" fill="#f53e28"/>
            <path id="Trazado_101710" data-name="Trazado 101710" d="M847.013,5421.951a1.45,1.45,0,0,1-1.251-2.18l10.145-17.391a1.45,1.45,0,1,1,2.5,1.461l-10.145,17.391A1.45,1.45,0,0,1,847.013,5421.951Z" fill="#f53e28"/>
            <path id="Trazado_101711" data-name="Trazado 101711" d="M857.161,5413.255a1.446,1.446,0,0,1-1.189-.618l-10.145-14.493a1.449,1.449,0,1,1,2.374-1.661l10.145,14.492a1.449,1.449,0,0,1-1.185,2.28Z" fill="#f53e28"/>
            <path id="Trazado_101712" data-name="Trazado 101712" d="M854.262,5419.052a1.448,1.448,0,0,1-1.189-.618l-10.145-14.493a1.449,1.449,0,0,1,2.375-1.661l10.145,14.492a1.448,1.448,0,0,1-1.186,2.28Z" fill="#f53e28"/>
            <path id="Trazado_101713" data-name="Trazado 101713" d="M806.434,5365.429a1.449,1.449,0,0,1-1.449-1.449v-2.9a1.449,1.449,0,0,1,2.9,0v2.9A1.449,1.449,0,0,1,806.434,5365.429Z" fill="#4c241d"/>
            <path id="Trazado_101714" data-name="Trazado 101714" d="M806.434,5374.125a1.449,1.449,0,0,1-1.449-1.449v-2.9a1.449,1.449,0,0,1,2.9,0v2.9A1.449,1.449,0,0,1,806.434,5374.125Z" fill="#4c241d"/>
            <path id="Trazado_101715" data-name="Trazado 101715" d="M803.536,5368.328h-2.9a1.449,1.449,0,0,1,0-2.9h2.9a1.449,1.449,0,0,1,0,2.9Z" fill="#4c241d"/>
            <path id="Trazado_101716" data-name="Trazado 101716" d="M812.232,5368.328h-2.9a1.449,1.449,0,0,1,0-2.9h2.9a1.449,1.449,0,0,1,0,2.9Z" fill="#4c241d"/>
          </g>
        </g>
      </g>
    </g>
  </g>
</svg>
