<svg xmlns="http://www.w3.org/2000/svg" xmlns:xlink="http://www.w3.org/1999/xlink" width="313.405" height="310.443" viewBox="0 0 313.405 310.443">
  <defs>
    <clipPath id="clip-path">
      <path id="Trazado_101246" data-name="Trazado 101246" d="M589.191,2436.245c7-8.627,15.916-22.305,18.345-40.254,3.186-23.539-7.588-33.742-11.795-72.284-2.66-24.369-4.27-41.4,6.733-52.134,8.622-8.41,23.959-11.943,34.282-6.65,8.584,4.4,14.707,15.42,17.225,23.538,2.052,6.616,1.818,11.655,6.208,14.688,4.486,3.1,8.51.448,12.608,2.639,8.31,4.441,6.408,23.173,6.1,26.2-3.419,33.677-30.455,59.768-42.386,71.006A205.036,205.036,0,0,1,589.191,2436.245Z" fill="none"/>
    </clipPath>
    <clipPath id="clip-path-2">
      <path id="Trazado_101251" data-name="Trazado 101251" d="M606.447,2426.212c12.5,5.653,29.229,11.071,47.612,10.946,4.691-.032,33.673-.229,35.7-12.486.715-4.318-2.517-6.486-1.662-12.275,1.015-6.86,6.2-8.208,12.24-14.638,3.6-3.836,14.144-15.064,9.451-25.958-2.805-6.51-10.923-12.606-18.519-14.056-11.142-2.127-18.978,6.158-31.992,20.406-11.537,12.63-11.882,16.835-20.349,25.785C632.65,2410.578,622.589,2419.1,606.447,2426.212Z" fill="none"/>
    </clipPath>
    <linearGradient id="linear-gradient" x1="0.5" y1="1.06" x2="0.5" y2="-0.043" gradientUnits="objectBoundingBox">
      <stop offset="0" stop-color="#e6e6e6"/>
      <stop offset="0.42" stop-color="#fff"/>
    </linearGradient>
    <linearGradient id="linear-gradient-2" x1="0.5" y1="0.937" x2="0.5" y2="-0.506" gradientUnits="objectBoundingBox">
      <stop offset="0" stop-color="#231f20"/>
      <stop offset="0.903" stop-color="#505052"/>
    </linearGradient>
    <linearGradient id="linear-gradient-3" x1="0.5" y1="0.877" x2="0.5" y2="0.05" xlink:href="#linear-gradient-2"/>
    <linearGradient id="linear-gradient-4" x1="-1.086" y1="12.061" x2="0.74" y2="-1.253" gradientUnits="objectBoundingBox">
      <stop offset="0" stop-color="#ebbe3b"/>
      <stop offset="1" stop-color="#f8bb1d"/>
    </linearGradient>
    <linearGradient id="linear-gradient-5" x1="1.15" y1="-7.725" x2="-0.15" y2="8.729" xlink:href="#linear-gradient-4"/>
    <linearGradient id="linear-gradient-6" x1="1.469" y1="-0.736" x2="-0.118" y2="1.289" gradientUnits="objectBoundingBox">
      <stop offset="0" stop-color="#ddb32f"/>
      <stop offset="1" stop-color="#94782f"/>
    </linearGradient>
    <linearGradient id="linear-gradient-7" x1="1.17" y1="-4.949" x2="-0.417" y2="7.96" xlink:href="#linear-gradient-6"/>
    <linearGradient id="linear-gradient-8" x1="1.767" y1="-9.804" x2="0.18" y2="3.105" xlink:href="#linear-gradient-6"/>
    <linearGradient id="linear-gradient-9" x1="1.038" y1="-31.574" x2="-0.261" y2="45.116" xlink:href="#linear-gradient-4"/>
    <linearGradient id="linear-gradient-10" x1="0.209" y1="33.56" x2="0.734" y2="-25.546" xlink:href="#linear-gradient-4"/>
    <linearGradient id="linear-gradient-13" x1="-0.091" y1="-0.075" x2="1.025" y2="1.012" xlink:href="#linear-gradient-6"/>
    <linearGradient id="linear-gradient-14" x1="0.244" y1="-1.089" x2="1.36" y2="5.842" xlink:href="#linear-gradient-6"/>
    <linearGradient id="linear-gradient-15" x1="-0.424" y1="-5.24" x2="0.692" y2="1.691" xlink:href="#linear-gradient-6"/>
    <linearGradient id="linear-gradient-16" x1="1.038" y1="-31.564" x2="-0.261" y2="45.103" xlink:href="#linear-gradient-4"/>
    <linearGradient id="linear-gradient-17" x1="0.209" y1="33.547" x2="0.734" y2="-25.535" xlink:href="#linear-gradient-4"/>
    <linearGradient id="linear-gradient-18" x1="-1.086" y1="12.061" x2="0.74" y2="-1.253" xlink:href="#linear-gradient-4"/>
    <linearGradient id="linear-gradient-19" x1="1.15" y1="-7.725" x2="-0.15" y2="8.729" xlink:href="#linear-gradient-4"/>
    <linearGradient id="linear-gradient-20" x1="0.755" y1="0.168" x2="-0.813" y2="2.211" xlink:href="#linear-gradient-6"/>
    <linearGradient id="linear-gradient-21" x1="0.459" y1="0.837" x2="-1.109" y2="13.864" xlink:href="#linear-gradient-6"/>
    <linearGradient id="linear-gradient-22" x1="1.05" y1="-4.066" x2="-0.519" y2="8.961" xlink:href="#linear-gradient-6"/>
    <linearGradient id="linear-gradient-23" x1="1.038" y1="-31.569" x2="-0.261" y2="45.11" xlink:href="#linear-gradient-4"/>
    <linearGradient id="linear-gradient-24" x1="0.209" y1="33.553" x2="0.734" y2="-25.54" xlink:href="#linear-gradient-4"/>
    <linearGradient id="linear-gradient-25" x1="-345.179" y1="-0.484" x2="-348.015" y2="6.012" gradientUnits="objectBoundingBox">
      <stop offset="0" stop-color="#2b3582"/>
      <stop offset="1" stop-color="#150e42"/>
    </linearGradient>
    <linearGradient id="linear-gradient-26" x1="-1376.906" y1="0.5" x2="-1375.906" y2="0.5" gradientUnits="objectBoundingBox">
      <stop offset="0" stop-color="#f9b776"/>
      <stop offset="1" stop-color="#f47960"/>
    </linearGradient>
    <linearGradient id="linear-gradient-27" x1="-415.166" y1="0.031" x2="-418.063" y2="0.887" xlink:href="#linear-gradient-25"/>
    <linearGradient id="linear-gradient-28" x1="-859.888" y1="-2.223" x2="-866.906" y2="5.383" xlink:href="#linear-gradient-25"/>
    <linearGradient id="linear-gradient-29" x1="-1603.485" y1="0.5" x2="-1602.485" y2="0.5" xlink:href="#linear-gradient-26"/>
    <linearGradient id="linear-gradient-30" x1="-292.957" y1="-0.035" x2="-294.998" y2="0.806" xlink:href="#linear-gradient-25"/>
    <linearGradient id="linear-gradient-31" x1="-159.34" y1="0.5" x2="-158.34" y2="0.5" xlink:href="#linear-gradient-25"/>
    <linearGradient id="linear-gradient-32" x1="1313.337" y1="1.605" x2="1315.337" y2="4.278" xlink:href="#linear-gradient-26"/>
    <linearGradient id="linear-gradient-33" x1="-1918.306" y1="0.706" x2="-1916.287" y2="-1.072" xlink:href="#linear-gradient-26"/>
    <linearGradient id="linear-gradient-34" x1="-539.816" y1="0.5" x2="-538.816" y2="0.5" xlink:href="#linear-gradient-26"/>
    <linearGradient id="linear-gradient-35" x1="-1012.872" y1="1.848" x2="-1009.362" y2="-5.381" gradientUnits="objectBoundingBox">
      <stop offset="0" stop-color="#9cfffb"/>
      <stop offset="1" stop-color="#9bfffa"/>
    </linearGradient>
    <linearGradient id="linear-gradient-36" x1="-1264.693" y1="0.5" x2="-1263.693" y2="0.5" xlink:href="#linear-gradient-35"/>
    <linearGradient id="linear-gradient-37" x1="-197.968" y1="-0.062" x2="-197.454" y2="2.428" gradientUnits="objectBoundingBox">
      <stop offset="0" stop-color="#fdf53f"/>
      <stop offset="1" stop-color="#d93c65"/>
    </linearGradient>
    <linearGradient id="linear-gradient-38" x1="-1037.972" y1="-3.496" x2="-1038.546" y2="1.804" gradientUnits="objectBoundingBox">
      <stop offset="0" stop-color="#53d8ff"/>
      <stop offset="1" stop-color="#3840f7"/>
    </linearGradient>
    <linearGradient id="linear-gradient-39" x1="-543.569" y1="-1.235" x2="-543.713" y2="1.146" xlink:href="#linear-gradient-38"/>
    <linearGradient id="linear-gradient-40" x1="-684.263" y1="0.5" x2="-683.263" y2="0.5" xlink:href="#linear-gradient-26"/>
    <linearGradient id="linear-gradient-41" x1="-537.034" y1="-260.159" x2="-538.242" y2="-258.865" xlink:href="#linear-gradient-26"/>
    <linearGradient id="linear-gradient-42" x1="-386.16" y1="-169.004" x2="-385.124" y2="-169.004" xlink:href="#linear-gradient-25"/>
    <linearGradient id="linear-gradient-43" x1="-1495.734" y1="-820.46" x2="-1493.046" y2="-823.003" xlink:href="#linear-gradient-26"/>
  </defs>
  <g id="Grupo_56184" data-name="Grupo 56184" transform="translate(-413.257 -2256.676)">
    <g id="Grupo_56156" data-name="Grupo 56156">
      <g id="Grupo_56155" data-name="Grupo 56155">
        <path id="Trazado_101240" data-name="Trazado 101240" d="M620.949,2309.116c9.378,13.128-1.229,34.684,12.584,44.487,13.446,9.542,29.672-6.5,42.336,1.7,18.786,12.167,15.974,68.778-10.932,104.215-8.092,10.658-14.9,14.843-17.812,26.83-6.248,25.74,16.821,40.77,12.595,53.512-9.515,28.692-160.223,54.268-221.7-31.011-28.712-39.829-33.554-97.727-8.741-142C474.116,2286.847,599.907,2279.659,620.949,2309.116Z" fill="#9de0d3"/>
        <g id="Grupo_56149" data-name="Grupo 56149">
          <path id="Trazado_101241" data-name="Trazado 101241" d="M589.191,2436.245c7-8.627,15.916-22.305,18.345-40.254,3.186-23.539-7.588-33.742-11.795-72.284-2.66-24.369-4.27-41.4,6.733-52.134,8.622-8.41,23.959-11.943,34.282-6.65,8.584,4.4,14.707,15.42,17.225,23.538,2.052,6.616,1.818,11.655,6.208,14.688,4.486,3.1,8.51.448,12.608,2.639,8.31,4.441,6.408,23.173,6.1,26.2-3.419,33.677-30.455,59.768-42.386,71.006A205.036,205.036,0,0,1,589.191,2436.245Z" fill="#a5e3ff"/>
          <g id="Grupo_56148" data-name="Grupo 56148">
            <g id="Grupo_56147" data-name="Grupo 56147" clip-path="url(#clip-path)">
              <g id="Grupo_56146" data-name="Grupo 56146">
                <g id="Grupo_56145" data-name="Grupo 56145">
                  <path id="Trazado_101242" data-name="Trazado 101242" d="M580.883,2443.594l-.4-.738c13.206-7.2,24.328-15.143,33.057-23.621,12.864-12.5,20.116-25.8,21.556-39.549,1.128-10.771-1.253-21.452-4.549-36.235a204.42,204.42,0,0,0-8.146-27.1c-3.381-9.382-6.052-16.793-6.431-28.027a85.079,85.079,0,0,1,6.478-34.717l.78.313a84.237,84.237,0,0,0-6.418,34.376c.374,11.1,3.026,18.457,6.382,27.769a205.269,205.269,0,0,1,8.176,27.205c1.635,7.337,3.048,13.673,3.926,19.607a66.515,66.515,0,0,1,.638,16.9c-1.461,13.949-8.8,27.429-21.807,40.065C605.34,2428.369,594.156,2436.362,580.883,2443.594Z" fill="#69d1ff"/>
                  <path id="Trazado_101243" data-name="Trazado 101243" d="M629.135,2335.165l-.457-.129a57.575,57.575,0,0,1-17.6-9.565c-8.374-6.553-19.026-18.533-22.219-38.388l.83-.133c3.147,19.57,13.635,31.378,21.879,37.837a58.2,58.2,0,0,0,16.889,9.3c3.588-22.473,13.331-37.594,20.9-46.341,8.27-9.555,15.823-13.792,15.9-13.833l.407.735c-.074.041-7.521,4.223-15.7,13.678-7.541,8.723-17.264,23.849-20.755,46.372Z" fill="#69d1ff"/>
                  <path id="Trazado_101244" data-name="Trazado 101244" d="M635.259,2367.262l-.2-.227a166.23,166.23,0,0,0-20.986-19.018c-11.4-8.489-35.426-8.7-35.667-8.7l0-.841c.244,0,24.546.216,36.166,8.87a167.3,167.3,0,0,1,20.9,18.9c12.284-5.717,23.083-25.111,30-40.436a291.674,291.674,0,0,0,12.3-32.592l.806.239a292.811,292.811,0,0,1-12.335,32.69c-10.226,22.654-20.556,36.446-30.7,40.992Z" fill="#69d1ff"/>
                  <path id="Trazado_101245" data-name="Trazado 101245" d="M617.392,2416.437l.315-.775a28.656,28.656,0,0,0,1.232-19.234,37.389,37.389,0,0,0-8.631-14.6A64.365,64.365,0,0,0,594.1,2369.3l.379-.75a65.264,65.264,0,0,1,16.437,12.7c9.614,10.5,12.33,22.224,7.883,33.941a151.681,151.681,0,0,0,25.593-10.348c13.54-6.9,32.547-19.085,46.21-37.942l26.554-36.646.681.493-26.554,36.647c-13.766,19-32.9,31.263-46.529,38.207a147.313,147.313,0,0,1-26.549,10.627Z" fill="#69d1ff"/>
                </g>
              </g>
            </g>
          </g>
        </g>
        <g id="Grupo_56154" data-name="Grupo 56154">
          <path id="Trazado_101247" data-name="Trazado 101247" d="M606.447,2426.212c12.5,5.653,29.229,11.071,47.612,10.946,4.691-.032,33.673-.229,35.7-12.486.715-4.318-2.517-6.486-1.662-12.275,1.015-6.86,6.2-8.208,12.24-14.638,3.6-3.836,14.144-15.064,9.451-25.958-2.805-6.51-10.923-12.606-18.519-14.056-11.142-2.127-18.978,6.158-31.992,20.406-11.537,12.63-11.882,16.835-20.349,25.785C632.65,2410.578,622.589,2419.1,606.447,2426.212Z" fill="#87daff"/>
          <g id="Grupo_56153" data-name="Grupo 56153">
            <g id="Grupo_56152" data-name="Grupo 56152" clip-path="url(#clip-path-2)">
              <g id="Grupo_56151" data-name="Grupo 56151">
                <g id="Grupo_56150" data-name="Grupo 56150">
                  <path id="Trazado_101248" data-name="Trazado 101248" d="M588.413,2424.561c-13.3-2.808-25.894-8.951-37.473-18.28l.567-.7c12.08,9.733,25.274,15.964,39.212,18.517,18.567,3.4,37.578-.184,56.505-10.66,19.724-10.917,34.415-26.579,43.266-37.794,6.114-7.749,9.982-17.621,11.5-29.342l.895.115c-1.535,11.886-5.465,21.907-11.683,29.786-8.9,11.28-23.681,27.035-43.537,38.025-19.114,10.579-38.327,14.2-57.1,10.758Q589.483,2424.788,588.413,2424.561Z" fill="#69d1ff"/>
                  <path id="Trazado_101249" data-name="Trazado 101249" d="M670.785,2397.4l-.1-.392A56.544,56.544,0,0,1,669.217,2383c.121-7.377,1.764-18.041,8.909-26.952l.7.564c-12.412,15.482-8.106,36.628-7.375,39.768,34.046-5.5,42.506-25.266,44.292-31.211a2.755,2.755,0,0,1,.1-.317l.821.374-.411-.187.416.175c-.013.035-.034.107-.066.214-1.832,6.1-10.52,26.415-45.426,31.909Z" fill="#69d1ff"/>
                  <path id="Trazado_101250" data-name="Trazado 101250" d="M669.231,2423.231a66.307,66.307,0,0,1-21.7-9.2l-.2-.129-.006-.241a87.177,87.177,0,0,1,10.544-39.048l10.95-20.383.795.427-10.95,20.383a86.927,86.927,0,0,0-10.439,38.359c8.387,5.269,21.169,11.182,34.819,9.783,8.2-.84,12.852-3.956,12.9-3.987l.508.746c-.2.133-4.894,3.276-13.314,4.139A44.989,44.989,0,0,1,669.231,2423.231Z" fill="#69d1ff"/>
                </g>
              </g>
            </g>
          </g>
        </g>
        <path id="Trazado_101252" data-name="Trazado 101252" d="M554.535,2325.3a49.675,49.675,0,0,0-16.832-5.953,34.486,34.486,0,0,0-6.549-.3c-7.02.452-11.429,3.445-24.189,4.04-19.863.928-24-5.632-34.147-3.688-25.839,4.948-45.286,56.332-32.711,69.016,11.7,11.8,43.519-17.608,74.216-1.111,7.718,4.148,16.585,11.853,22.191,8.524,3.9-2.315,2.62-7.828,7.956-19.322,3.54-7.627,5.894-12.7,9.73-13.286,7.33-1.125,17.266,14.547,20.65,29.021.591,2.533.681,3.739,1.687,19.815.6,9.618.285,27.793,2.287,28.028,1.507.177,4.208-9.767,5.781-18.5,2.484-13.789,6.551-36.363-3.578-61.647C574,2342.391,562.758,2330.091,554.535,2325.3Z" fill="#c3edff"/>
      </g>
      <path id="Trazado_101253" data-name="Trazado 101253" d="M476.541,2542.866H683.89a2.253,2.253,0,0,0,1.9-2.474h0a2.253,2.253,0,0,0-1.9-2.475H476.541a2.253,2.253,0,0,0-1.9,2.475h0A2.253,2.253,0,0,0,476.541,2542.866Z" fill="#03a4c9" fill-rule="evenodd"/>
    </g>
    <g id="Grupo_56159" data-name="Grupo 56159">
      <g id="Grupo_56157" data-name="Grupo 56157">
        <rect id="Rectángulo_5397" data-name="Rectángulo 5397" width="180.158" height="180.158" rx="13.876" transform="translate(434.726 2384.067) rotate(-45)" fill="#d61b22"/>
        <rect id="Rectángulo_5398" data-name="Rectángulo 5398" width="153.397" height="153.397" rx="10.497" transform="translate(453.648 2384.067) rotate(-45)" fill="url(#linear-gradient)"/>
      </g>
      <g id="Grupo_56158" data-name="Grupo 56158">
        <circle id="Elipse_4034" data-name="Elipse 4034" cx="16.003" cy="16.003" r="16.003" transform="translate(546.128 2415.114)" fill="url(#linear-gradient-2)"/>
        <path id="Trazado_101254" data-name="Trazado 101254" d="M582.984,2337.046h0a21.184,21.184,0,1,0-42.049-3.659c0,3.173,14.718,67.091,14.718,67.091h.2a6.857,6.857,0,0,0,13.323,0h.007l.036-.166c.009-.044.02-.088.028-.132Z" fill="url(#linear-gradient-3)"/>
      </g>
    </g>
    <g id="Grupo_56183" data-name="Grupo 56183">
      <g id="Grupo_56161" data-name="Grupo 56161">
        <path id="Trazado_101255" data-name="Trazado 101255" d="M674.253,2426.4a20.162,20.162,0,0,0-4.269-6.547,21.816,21.816,0,0,1-4.37-6.49c-.9-2.465-.741-5.5,1.08-7.386,2.363-2.449,6.505-2.157,9.153-4.294,2.891-2.332,3.023-6.776,1.825-10.292s-3.425-6.618-4.54-10.16c-1.9-6.044-.351-12.648,2.083-18.5a39.043,39.043,0,0,1,9.142-13.9c4.107-3.79,9.54-6.34,15.127-6.219,5.174.113,10.093,2.477,14.165,5.672a33.624,33.624,0,0,1,12.941,23.534c.662,9.194-3.289,18.75-10.67,24.271a15.093,15.093,0,0,1-5.934,2.877c-2.755.559-5.6.012-8.4-.132a6.1,6.1,0,0,0-3.5.594,6.225,6.225,0,0,0-1.827,1.992,45.573,45.573,0,0,1-3.8,5.513,8.583,8.583,0,0,1-5.733,3.121c-2.549.123-4.939-1.362-7.49-1.413a6.981,6.981,0,0,0-6.806,5.714c-.839,5.419,4.878,10.1,4.46,15.568-.106,1.389-3.178,6.65-3.466,4.656-.114-.784,1.18-2.894,1.286-3.929A10.292,10.292,0,0,0,674.253,2426.4Z" fill="#fff"/>
        <g id="Grupo_56160" data-name="Grupo 56160">
          <path id="Trazado_101256" data-name="Trazado 101256" d="M699.346,2347.646c-10.726,0-19.422,8.643-19.422,18.763a13.789,13.789,0,0,0,5.927,11.7,4.677,4.677,0,0,1,1.974,3.806v5.99a3.189,3.189,0,0,0,3.189,3.19h16.664a3.19,3.19,0,0,0,3.19-3.19v-5.99a4.674,4.674,0,0,1,1.974-3.806,13.788,13.788,0,0,0,5.926-11.7C718.768,2356.289,710.073,2347.646,699.346,2347.646Zm-8.778,23.92a4.609,4.609,0,0,1-4.609-4.608c0-2.546,2.942-4.609,5.487-4.609s3.731,2.063,3.731,4.609A4.609,4.609,0,0,1,690.568,2371.566Zm8.161,2.578c-.529,2.706-3.422,3.97-3.6,2.521-.149-1.192,2.11-2.384,3.158-2.869A.318.318,0,0,1,698.729,2374.144Zm4.838,2.521c-.181,1.449-3.075.185-3.6-2.521a.318.318,0,0,1,.446-.348C701.458,2374.281,703.716,2375.473,703.567,2376.665Zm4.557-4.879a4.609,4.609,0,0,1-4.608-4.609c0-2.545,1.185-4.608,3.731-4.608s5.486,2.063,5.486,4.608A4.609,4.609,0,0,1,708.124,2371.786Z" fill="#f94e4e"/>
          <path id="Trazado_101257" data-name="Trazado 101257" d="M692.484,2390.33a.219.219,0,0,1-.219-.22v-7.461a.219.219,0,1,1,.439,0v7.461A.22.22,0,0,1,692.484,2390.33Z" fill="#963030"/>
          <path id="Trazado_101258" data-name="Trazado 101258" d="M695.227,2390.33a.219.219,0,0,1-.219-.22v-7.461a.22.22,0,1,1,.439,0v7.461A.22.22,0,0,1,695.227,2390.33Z" fill="#963030"/>
          <path id="Trazado_101259" data-name="Trazado 101259" d="M697.97,2390.33a.219.219,0,0,1-.219-.22v-7.461a.22.22,0,1,1,.439,0v7.461A.219.219,0,0,1,697.97,2390.33Z" fill="#963030"/>
          <path id="Trazado_101260" data-name="Trazado 101260" d="M700.714,2390.33a.219.219,0,0,1-.22-.22v-7.461a.219.219,0,1,1,.439,0v7.461A.219.219,0,0,1,700.714,2390.33Z" fill="#963030"/>
          <path id="Trazado_101261" data-name="Trazado 101261" d="M703.457,2390.33a.22.22,0,0,1-.22-.22v-7.461a.22.22,0,1,1,.439,0v7.461A.219.219,0,0,1,703.457,2390.33Z" fill="#963030"/>
          <path id="Trazado_101262" data-name="Trazado 101262" d="M706.2,2390.33a.219.219,0,0,1-.219-.22v-7.461a.219.219,0,1,1,.439,0v7.461A.22.22,0,0,1,706.2,2390.33Z" fill="#963030"/>
        </g>
      </g>
      <g id="Grupo_56177" data-name="Grupo 56177">
        <g id="Grupo_56166" data-name="Grupo 56166">
          <ellipse id="Elipse_4035" data-name="Elipse 4035" cx="24.949" cy="5.716" rx="24.949" ry="5.716" transform="translate(581.105 2463.013)" fill="url(#linear-gradient-4)"/>
          <ellipse id="Elipse_4036" data-name="Elipse 4036" cx="24.949" cy="5.716" rx="24.949" ry="5.716" transform="translate(581.105 2533.318)" fill="url(#linear-gradient-5)"/>
          <g id="Grupo_56162" data-name="Grupo 56162">
            <rect id="Rectángulo_5399" data-name="Rectángulo 5399" width="49.036" height="68.992" transform="translate(581.535 2469.61)" fill="url(#linear-gradient-6)"/>
            <ellipse id="Elipse_4037" data-name="Elipse 4037" cx="24.518" cy="5.41" rx="24.518" ry="5.41" transform="translate(581.535 2464.2)" fill="url(#linear-gradient-7)"/>
            <ellipse id="Elipse_4038" data-name="Elipse 4038" cx="24.518" cy="5.41" rx="24.518" ry="5.41" transform="translate(581.535 2533.048)" fill="url(#linear-gradient-8)"/>
          </g>
          <g id="Grupo_56163" data-name="Grupo 56163">
            <path id="Trazado_101263" data-name="Trazado 101263" d="M606.2,2522.986a200.948,200.948,0,0,1-24.722-1.535.46.46,0,1,1,.114-.914,196.5,196.5,0,0,0,48.922,0,.46.46,0,0,1,.116.913A193.75,193.75,0,0,1,606.2,2522.986Z" fill="url(#linear-gradient-9)"/>
            <path id="Trazado_101264" data-name="Trazado 101264" d="M606.2,2482.068a200.8,200.8,0,0,0-24.722,1.535.461.461,0,0,0,.114.914,196.477,196.477,0,0,1,48.922,0,.461.461,0,0,0,.116-.914A193.8,193.8,0,0,0,606.2,2482.068Z" fill="url(#linear-gradient-10)"/>
          </g>
          <g id="Grupo_56165" data-name="Grupo 56165">
            <g id="Grupo_56164" data-name="Grupo 56164">
              <path id="Trazado_101265" data-name="Trazado 101265" d="M618.839,2507.968a1.923,1.923,0,0,0-2.553.434h0a.557.557,0,0,1-.784.088l-1.87-1.492a1.853,1.853,0,0,1-1.354,1.806l1.781,1.422a.6.6,0,0,1,.1.848h0a1.893,1.893,0,0,0,.3,2.662h0a1.894,1.894,0,0,0,2.662-.3h0a1.893,1.893,0,0,1,2.161-2.706h0A1.9,1.9,0,0,0,618.839,2507.968Z" fill="#fff"/>
              <path id="Trazado_101266" data-name="Trazado 101266" d="M595.111,2498.307a1.924,1.924,0,0,0,2.554-.434h0a.558.558,0,0,1,.784-.088l1.825,1.457a6.673,6.673,0,0,1,1.2-1.928l-1.583-1.264a.6.6,0,0,1-.1-.848h0a1.894,1.894,0,0,0-2.961-2.364h0a1.894,1.894,0,0,1-2.161,2.707h0A1.9,1.9,0,0,0,595.111,2498.307Z" fill="#fff"/>
              <path id="Trazado_101267" data-name="Trazado 101267" d="M601.73,2508.64a1.807,1.807,0,0,1-.833-1.988,1.568,1.568,0,0,0,.036-.25l-2.55,1.977a.559.559,0,0,1-.784-.1l-.027-.035a1.9,1.9,0,0,0-2.658-.337h0a1.894,1.894,0,0,0-.337,2.658h0a1.893,1.893,0,0,1,2.122,2.737h0a1.9,1.9,0,0,0,2.658.337h0a1.894,1.894,0,0,0,.337-2.658h0a.6.6,0,0,1,.107-.846Z" fill="#fff"/>
              <path id="Trazado_101268" data-name="Trazado 101268" d="M612.861,2497.139a5.983,5.983,0,0,1,1.3,1.847l1.407-1.091a.56.56,0,0,1,.784.1h0a1.924,1.924,0,0,0,2.63.414,1.9,1.9,0,0,0,.392-2.7h0a1.893,1.893,0,0,1-2.122-2.737,1.894,1.894,0,0,0-2.658-.337h0a1.894,1.894,0,0,0-.336,2.658h0a.6.6,0,0,1-.108.847Z" fill="#fff"/>
            </g>
            <path id="Trazado_101269" data-name="Trazado 101269" d="M610.711,2496.768a6.755,6.755,0,0,0-7.424.275,5.812,5.812,0,0,0-1.882,7.5,3.248,3.248,0,0,1,.458,2.321.829.829,0,0,0,.607,1.037,6.751,6.751,0,0,0,1.343.234c.786.07,1,.316.857,1.08a2.792,2.792,0,0,1-.074.3.728.728,0,0,0,.52.991,5.742,5.742,0,0,0,3.845.138c1.117-.34,1.238-.565.916-1.5a.745.745,0,0,1-.023-.151c-.069-.586.109-.819.692-.894.354-.044.715-.047,1.062-.119.882-.182,1.138-.554,1.009-1.442a2.172,2.172,0,0,1,.179-1.577,6.792,6.792,0,0,0,.8-3.786A4.917,4.917,0,0,0,610.711,2496.768Zm-5.194,9.122a10.2,10.2,0,0,1-1.222.325c-.758-.034-1.241-.326-1.37-.872a1.4,1.4,0,0,1,.762-1.662,4.352,4.352,0,0,1,1.224-.308,1.139,1.139,0,0,1,1.408.864A1.27,1.27,0,0,1,605.517,2505.89Zm2.286,2.352-.992.009a.559.559,0,0,1-.514-.791l.59-1.3a.442.442,0,0,1,.8-.008l.614,1.285A.56.56,0,0,1,607.8,2508.242Zm3.748-2.957c-.13.54-.615.834-1.557.822a6.981,6.981,0,0,1-.948-.219,1.3,1.3,0,0,1-.9-1.69c.11-.46.383-.817.852-.817a5.649,5.649,0,0,1,1.735.232A1.36,1.36,0,0,1,611.551,2505.285Z" fill="#fff"/>
          </g>
        </g>
        <g id="Grupo_56171" data-name="Grupo 56171">
          <ellipse id="Elipse_4039" data-name="Elipse 4039" cx="24.949" cy="5.716" rx="24.949" ry="5.716" transform="translate(493.231 2462.15)" fill="url(#linear-gradient-4)"/>
          <ellipse id="Elipse_4040" data-name="Elipse 4040" cx="24.949" cy="5.716" rx="24.949" ry="5.716" transform="translate(493.231 2532.454)" fill="url(#linear-gradient-5)"/>
          <g id="Grupo_56167" data-name="Grupo 56167">
            <rect id="Rectángulo_5400" data-name="Rectángulo 5400" width="49.036" height="68.992" transform="translate(493.661 2468.747)" fill="url(#linear-gradient-13)"/>
            <ellipse id="Elipse_4041" data-name="Elipse 4041" cx="24.518" cy="5.41" rx="24.518" ry="5.41" transform="translate(493.661 2463.336)" fill="url(#linear-gradient-14)"/>
            <ellipse id="Elipse_4042" data-name="Elipse 4042" cx="24.518" cy="5.41" rx="24.518" ry="5.41" transform="translate(493.661 2532.185)" fill="url(#linear-gradient-15)"/>
          </g>
          <g id="Grupo_56168" data-name="Grupo 56168">
            <path id="Trazado_101270" data-name="Trazado 101270" d="M518.326,2522.123a200.73,200.73,0,0,1-24.721-1.536.46.46,0,1,1,.113-.914,196.548,196.548,0,0,0,48.922,0,.46.46,0,0,1,.116.913A193.749,193.749,0,0,1,518.326,2522.123Z" fill="url(#linear-gradient-16)"/>
            <path id="Trazado_101271" data-name="Trazado 101271" d="M518.326,2481.2a200.778,200.778,0,0,0-24.721,1.536.461.461,0,1,0,.113.914,196.524,196.524,0,0,1,48.922,0,.46.46,0,0,0,.116-.913A193.8,193.8,0,0,0,518.326,2481.2Z" fill="url(#linear-gradient-17)"/>
          </g>
          <g id="Grupo_56170" data-name="Grupo 56170">
            <g id="Grupo_56169" data-name="Grupo 56169">
              <path id="Trazado_101272" data-name="Trazado 101272" d="M530.965,2507.1a1.923,1.923,0,0,0-2.553.434h0a.558.558,0,0,1-.785.088l-1.87-1.493a1.854,1.854,0,0,1-1.354,1.807l1.781,1.422a.6.6,0,0,1,.095.847h0a1.9,1.9,0,0,0,.3,2.663h0a1.9,1.9,0,0,0,2.663-.3h0a1.893,1.893,0,0,1,2.16-2.707h0A1.894,1.894,0,0,0,530.965,2507.1Z" fill="#fff"/>
              <path id="Trazado_101273" data-name="Trazado 101273" d="M507.237,2497.444a1.924,1.924,0,0,0,2.554-.434h0a.558.558,0,0,1,.785-.088l1.824,1.457a6.661,6.661,0,0,1,1.2-1.928l-1.583-1.264a.605.605,0,0,1-.1-.849h0a1.894,1.894,0,1,0-2.961-2.363h0a1.894,1.894,0,0,1-2.161,2.707h0A1.9,1.9,0,0,0,507.237,2497.444Z" fill="#fff"/>
              <path id="Trazado_101274" data-name="Trazado 101274" d="M513.856,2507.777a1.808,1.808,0,0,1-.833-1.988,1.571,1.571,0,0,0,.036-.25l-2.55,1.977a.559.559,0,0,1-.784-.1l-.027-.035a1.9,1.9,0,0,0-2.658-.337h0a1.9,1.9,0,0,0-.337,2.658h0a1.893,1.893,0,0,1,2.122,2.737h0a1.9,1.9,0,0,0,2.658.337h0a1.9,1.9,0,0,0,.337-2.658h0a.6.6,0,0,1,.107-.846Z" fill="#fff"/>
              <path id="Trazado_101275" data-name="Trazado 101275" d="M524.987,2496.276a5.967,5.967,0,0,1,1.3,1.847l1.408-1.091a.558.558,0,0,1,.783.1h0a1.923,1.923,0,0,0,2.63.414,1.894,1.894,0,0,0,.392-2.7h0a1.893,1.893,0,0,1-2.122-2.737,1.9,1.9,0,0,0-2.658-.337h0a1.894,1.894,0,0,0-.336,2.658h0a.6.6,0,0,1-.108.847Z" fill="#fff"/>
            </g>
            <path id="Trazado_101276" data-name="Trazado 101276" d="M522.837,2495.905a6.755,6.755,0,0,0-7.424.275,5.812,5.812,0,0,0-1.882,7.5,3.248,3.248,0,0,1,.458,2.321.828.828,0,0,0,.607,1.036,6.682,6.682,0,0,0,1.343.235c.787.069,1,.316.857,1.079a2.809,2.809,0,0,1-.074.3.73.73,0,0,0,.52.991,5.735,5.735,0,0,0,3.845.137c1.117-.339,1.238-.564.916-1.5a.771.771,0,0,1-.023-.151c-.069-.587.109-.82.693-.894.353-.045.714-.048,1.061-.119.882-.183,1.138-.554,1.009-1.442a2.175,2.175,0,0,1,.179-1.578,6.788,6.788,0,0,0,.8-3.786A4.917,4.917,0,0,0,522.837,2495.905Zm-5.194,9.122a10.19,10.19,0,0,1-1.222.324c-.757-.033-1.241-.326-1.37-.871a1.4,1.4,0,0,1,.762-1.662,4.31,4.31,0,0,1,1.225-.308,1.138,1.138,0,0,1,1.407.864A1.271,1.271,0,0,1,517.643,2505.027Zm2.286,2.352-.992.009a.559.559,0,0,1-.514-.791l.59-1.3a.443.443,0,0,1,.8-.007l.614,1.285A.56.56,0,0,1,519.929,2507.379Zm3.748-2.957c-.13.54-.615.834-1.557.822a7.136,7.136,0,0,1-.948-.219,1.3,1.3,0,0,1-.9-1.691c.11-.46.383-.816.852-.816a5.616,5.616,0,0,1,1.735.232A1.359,1.359,0,0,1,523.677,2504.422Z" fill="#fff"/>
          </g>
        </g>
        <g id="Grupo_56176" data-name="Grupo 56176">
          <ellipse id="Elipse_4043" data-name="Elipse 4043" cx="27.553" cy="6.312" rx="27.553" ry="6.312" transform="translate(536.605 2458.212)" fill="url(#linear-gradient-18)"/>
          <ellipse id="Elipse_4044" data-name="Elipse 4044" cx="27.553" cy="6.312" rx="27.553" ry="6.312" transform="translate(536.605 2535.854)" fill="url(#linear-gradient-19)"/>
          <g id="Grupo_56172" data-name="Grupo 56172">
            <rect id="Rectángulo_5401" data-name="Rectángulo 5401" width="54.155" height="76.193" transform="translate(537.081 2465.497)" fill="url(#linear-gradient-20)"/>
            <ellipse id="Elipse_4045" data-name="Elipse 4045" cx="27.077" cy="5.975" rx="27.077" ry="5.975" transform="translate(537.081 2459.522)" fill="url(#linear-gradient-21)"/>
            <ellipse id="Elipse_4046" data-name="Elipse 4046" cx="27.077" cy="5.975" rx="27.077" ry="5.975" transform="translate(537.081 2535.556)" fill="url(#linear-gradient-22)"/>
          </g>
          <g id="Grupo_56173" data-name="Grupo 56173">
            <path id="Trazado_101277" data-name="Trazado 101277" d="M564.321,2524.444a221.95,221.95,0,0,1-27.3-1.7.509.509,0,1,1,.126-1.01,216.967,216.967,0,0,0,54.028,0,.509.509,0,0,1,.128,1.009A214.011,214.011,0,0,1,564.321,2524.444Z" fill="url(#linear-gradient-23)"/>
            <path id="Trazado_101278" data-name="Trazado 101278" d="M564.321,2479.255a221.95,221.95,0,0,0-27.3,1.7.509.509,0,1,0,.126,1.01,216.967,216.967,0,0,1,54.028,0,.509.509,0,0,0,.128-1.009A214.011,214.011,0,0,0,564.321,2479.255Z" fill="url(#linear-gradient-24)"/>
          </g>
          <g id="Grupo_56175" data-name="Grupo 56175">
            <g id="Grupo_56174" data-name="Grupo 56174">
              <path id="Trazado_101279" data-name="Trazado 101279" d="M578.279,2507.859a2.126,2.126,0,0,0-2.821.479h0a.616.616,0,0,1-.866.1l-2.065-1.649a2.047,2.047,0,0,1-1.495,1.995l1.966,1.57a.666.666,0,0,1,.105.937h0a2.093,2.093,0,0,0,.33,2.94h0a2.093,2.093,0,0,0,2.941-.33h0a2.09,2.09,0,0,1,2.386-2.989h0A2.093,2.093,0,0,0,578.279,2507.859Z" fill="#fff"/>
              <path id="Trazado_101280" data-name="Trazado 101280" d="M552.074,2497.19a2.125,2.125,0,0,0,2.82-.48h0a.618.618,0,0,1,.867-.1l2.015,1.609a7.386,7.386,0,0,1,1.327-2.13l-1.748-1.4a.667.667,0,0,1-.106-.937h0a2.092,2.092,0,0,0-3.27-2.61h0a2.091,2.091,0,0,1-2.386,2.989h0A2.093,2.093,0,0,0,552.074,2497.19Z" fill="#fff"/>
              <path id="Trazado_101281" data-name="Trazado 101281" d="M559.383,2508.6a2,2,0,0,1-.919-2.2,1.654,1.654,0,0,0,.039-.276l-2.816,2.184a.615.615,0,0,1-.865-.11l-.031-.039a2.092,2.092,0,0,0-2.935-.371h0a2.092,2.092,0,0,0-.372,2.935h0a2.091,2.091,0,0,1,2.344,3.023h0a2.092,2.092,0,0,0,2.935.372h0a2.093,2.093,0,0,0,.372-2.936h0a.665.665,0,0,1,.118-.934Z" fill="#fff"/>
              <path id="Trazado_101282" data-name="Trazado 101282" d="M571.676,2495.9a6.6,6.6,0,0,1,1.435,2.041l1.554-1.2a.616.616,0,0,1,.865.109h0a2.125,2.125,0,0,0,2.9.458,2.092,2.092,0,0,0,.433-2.981h0a2.091,2.091,0,0,1-2.343-3.023,2.091,2.091,0,0,0-2.935-.372h0a2.091,2.091,0,0,0-.372,2.935h0a.667.667,0,0,1-.119.935Z" fill="#fff"/>
            </g>
            <path id="Trazado_101283" data-name="Trazado 101283" d="M569.3,2495.49a7.458,7.458,0,0,0-8.2.3,6.417,6.417,0,0,0-2.078,8.277,3.588,3.588,0,0,1,.505,2.563.916.916,0,0,0,.671,1.145,7.428,7.428,0,0,0,1.483.259c.869.076,1.1.349.947,1.192-.021.11-.051.219-.082.327a.805.805,0,0,0,.574,1.1,6.338,6.338,0,0,0,4.247.152c1.233-.375,1.367-.624,1.011-1.66a.764.764,0,0,1-.025-.167c-.076-.647.119-.905.764-.986.39-.05.789-.053,1.172-.132.975-.2,1.258-.612,1.115-1.593a2.4,2.4,0,0,1,.2-1.742,7.508,7.508,0,0,0,.885-4.181C572.574,2498.472,571.426,2496.665,569.3,2495.49Zm-5.736,10.074a11.061,11.061,0,0,1-1.349.358c-.837-.037-1.371-.36-1.514-.962a1.542,1.542,0,0,1,.842-1.836,4.808,4.808,0,0,1,1.352-.34,1.257,1.257,0,0,1,1.554.954A1.4,1.4,0,0,1,563.566,2505.564Zm2.525,2.6-1.1.01a.617.617,0,0,1-.568-.873l.651-1.432a.489.489,0,0,1,.886-.008l.678,1.419A.617.617,0,0,1,566.091,2508.161Zm4.139-3.265c-.144.6-.68.921-1.72.908a7.922,7.922,0,0,1-1.047-.242,1.431,1.431,0,0,1-.993-1.867c.122-.508.424-.9.941-.9a6.251,6.251,0,0,1,1.916.256A1.5,1.5,0,0,1,570.23,2504.9Z" fill="#fff"/>
          </g>
        </g>
      </g>
      <g id="Grupo_56182" data-name="Grupo 56182">
        <path id="Trazado_101284" data-name="Trazado 101284" d="M648.018,2542.558s.391,2.215.583,4.408a1.511,1.511,0,0,1-1.445,1.637c-2.92.122-9.167.358-11.409.258a.491.491,0,0,1-.432-.673,1.1,1.1,0,0,1,.563-.593l10.318-4.743Z" fill="url(#linear-gradient-25)"/>
        <path id="Trazado_101285" data-name="Trazado 101285" d="M648.339,2541.256l-.315,2.65s-1.807.841-3.042-.106l.749-2.953Z" fill="url(#linear-gradient-26)"/>
        <path id="Trazado_101286" data-name="Trazado 101286" d="M648.1,2491.439c.136.692.729,34.532-2.888,49.7a.514.514,0,0,0,.3.6,8.958,8.958,0,0,0,2.946.6.885.885,0,0,0,.879-.636c1.034-3.518,5.989-21.146,6.635-37.986.722-18.817,0-.641,0-.641l-.423-11.631Z" fill="url(#linear-gradient-27)"/>
        <path id="Trazado_101287" data-name="Trazado 101287" d="M659.887,2543.713a15.953,15.953,0,0,1,1.226,4.091.921.921,0,0,1-.811,1.1c-.964.095-2.448.217-3.638.209a.918.918,0,0,1-.909-1.025,7.75,7.75,0,0,1,1.809-4.252Z" fill="url(#linear-gradient-28)"/>
        <path id="Trazado_101288" data-name="Trazado 101288" d="M660.435,2540.3l-.735,4.007a2.588,2.588,0,0,1-2.163.149l.35-4.311Z" fill="url(#linear-gradient-29)"/>
        <path id="Trazado_101289" data-name="Trazado 101289" d="M662.419,2492.478c2.959,17.854-.642,44.127-1.856,49.269a.8.8,0,0,1-.647.609,5.386,5.386,0,0,1-2.314-.092.736.736,0,0,1-.529-.677c-.162-4.157.131-29.68-2.626-39.766a2.292,2.292,0,0,0-.884-1.265l-5.35-3.8-.41-6.148Z" fill="url(#linear-gradient-30)"/>
        <path id="Trazado_101290" data-name="Trazado 101290" d="M643.568,2458.648a83.364,83.364,0,0,1,18.648,2.328c2.643,15.42.462,33.2.462,33.2-6.863,1.8-14.606-1.1-14.606-1.1-1.14-6.445-6.463-24.584-6.463-24.584-4.332-.537-3.391-4.092-6.329-5.744,2.241-2.6-1.211-1.339-.752-3.293C637.662,2460.434,640.834,2458.693,643.568,2458.648Z" fill="url(#linear-gradient-31)"/>
        <path id="Trazado_101291" data-name="Trazado 101291" d="M617.381,2445.589a1.7,1.7,0,0,1,1.973-.554c1.3,5.511,8.146,9.98,15.174,12.164a19,19,0,0,1-3.758,7.858C619.107,2458.5,617.381,2445.589,617.381,2445.589Z" fill="#69d1ff"/>
        <g id="Grupo_56178" data-name="Grupo 56178">
          <path id="Trazado_101292" data-name="Trazado 101292" d="M617.592,2445.857c-.091.29.964.731,1.586-.454.022-.568.367-3,.028-3.463a45.394,45.394,0,0,0-5.311-5.553.834.834,0,0,0-.105,1.159l1.7,1.77a8.213,8.213,0,0,0-.992,1.962,2.382,2.382,0,0,0,.237,1.753c.3.538.705,1.236,1.09,1.783A2.353,2.353,0,0,0,617.592,2445.857Z" fill="url(#linear-gradient-32)"/>
          <path id="Trazado_101293" data-name="Trazado 101293" d="M616.233,2440.465l1.549,1.313.487,1.307-1.381,1.533a17.856,17.856,0,0,0-.81-3.156C615.733,2440.9,615.912,2440.629,616.233,2440.465Z" fill="url(#linear-gradient-33)"/>
        </g>
        <path id="Trazado_101294" data-name="Trazado 101294" d="M658.816,2469.56l3.4-8.584s8.281,5.626,9.643,12.76a19.619,19.619,0,0,0-7.2,1.93C664.048,2472.3,658.816,2469.56,658.816,2469.56Z" fill="#bdf1ff"/>
        <path id="Trazado_101295" data-name="Trazado 101295" d="M652.549,2451.451l2.821,8.157a.294.294,0,0,1-.134.354,6.631,6.631,0,0,1-6.878-.462,1.386,1.386,0,0,1-.638-.989l-.913-7.06Z" fill="url(#linear-gradient-34)"/>
        <path id="Trazado_101296" data-name="Trazado 101296" d="M657.9,2460.057l-3.366-2.858-5.035,12.294,3.672,48.852,11.465.343a.292.292,0,0,0,.3-.3l-1.6-47s-.043-10.156-1.123-10.41S657.9,2460.057,657.9,2460.057Z" fill="#bdf1ff"/>
        <path id="Trazado_101297" data-name="Trazado 101297" d="M649.5,2468.862,647.55,2457.2l-1.669,1.467-3.519-.034-.753,9.865,5.021,50.482a.294.294,0,0,0,.334.262l6.209-.9Z" fill="#69d1ff"/>
        <path id="Trazado_101298" data-name="Trazado 101298" d="M642.825,2458.645s-5.656-.39-8.921-1.646c-3.834,6.814-4.831,7.014-4.831,7.014a21.521,21.521,0,0,0,12.536,4.484C649.5,2468.862,642.825,2458.645,642.825,2458.645Z" fill="#69d1ff"/>
        <path id="Trazado_101299" data-name="Trazado 101299" d="M647.437,2469.393v1.2l-4.561-.266v-1.329Z" fill="url(#linear-gradient-35)"/>
        <path id="Trazado_101300" data-name="Trazado 101300" d="M649.772,2472.378a.182.182,0,0,0,.084-.021l3.869-2.078a.177.177,0,0,0,.091-.129l.523-3.529,1.372-.243a.179.179,0,0,0,.138-.122l1.493-4.849a.176.176,0,0,0-.117-.22.175.175,0,0,0-.22.116l-1.461,4.747-1.391.247a.175.175,0,0,0-.144.147l-.529,3.566-3.791,2.036a.177.177,0,0,0,.083.332Z" fill="#468ca5"/>
        <path id="Trazado_101301" data-name="Trazado 101301" d="M648.853,2471.169a.127.127,0,0,0,.065-.017.132.132,0,0,0,.05-.18l-2.023-3.547.332-2a.131.131,0,0,0-.067-.138l-1.61-.857.413-5.759a.132.132,0,0,0-.122-.141.124.124,0,0,0-.142.122l-.419,5.845a.132.132,0,0,0,.07.126l1.6.852-.324,1.949a.131.131,0,0,0,.015.087l2.046,3.587A.132.132,0,0,0,648.853,2471.169Z" fill="url(#linear-gradient-36)"/>
        <g id="Grupo_56180" data-name="Grupo 56180">
          <path id="Trazado_101302" data-name="Trazado 101302" d="M651.569,2477.387s9.3,5.254,12.434.768a3.528,3.528,0,0,0,.647-2.741,19.594,19.594,0,0,1,7.2-1.929,9.854,9.854,0,0,1-1.07,6.75c-5.5,10.052-20.441-.556-20.441-.556Z" fill="#bdf1ff"/>
          <g id="Grupo_56179" data-name="Grupo 56179">
            <path id="Trazado_101303" data-name="Trazado 101303" d="M652.686,2484.034l-5.074-17.72a.517.517,0,0,0-.437-.372c-.92-.107-3.584-.409-6.659-.669a75.622,75.622,0,0,0-10.579-.351.519.519,0,0,0-.424.746c1.462,2.958,7.476,14.99,10.488,18.932a.523.523,0,0,0,.418.2l11.773-.11A.518.518,0,0,0,652.686,2484.034Z" fill="url(#linear-gradient-37)"/>
            <path id="Trazado_101304" data-name="Trazado 101304" d="M639.989,2463.737l-3.679-.613a.264.264,0,0,0-.294.343l.364,1.1a.266.266,0,0,0,.216.179l3.54.473a.264.264,0,0,0,.292-.322l-.225-.964A.265.265,0,0,0,639.989,2463.737Z" fill="url(#linear-gradient-38)"/>
            <path id="Trazado_101305" data-name="Trazado 101305" d="M642.744,2466.852l-.3-1.579a.365.365,0,0,0-.322-.294l-7.43-.754a.364.364,0,0,0-.392.448l.473,1.967a.363.363,0,0,0,.336.279l7.261.366A.364.364,0,0,0,642.744,2466.852Z" fill="url(#linear-gradient-39)"/>
            <path id="Trazado_101306" data-name="Trazado 101306" d="M651.46,2479.753s.707-2.907.422-3.938-.838-2.357-2.679-2.062a27.025,27.025,0,0,0-4.014,1.07,1.054,1.054,0,0,0,1.509.91l-.867.672s.124,1.075,1.306.5l-.807.891a.94.94,0,0,0,1.377.317C648.577,2477.546,648.994,2480.1,651.46,2479.753Z" fill="url(#linear-gradient-40)"/>
          </g>
        </g>
        <path id="Trazado_101307" data-name="Trazado 101307" d="M660.322,2480.05a4.822,4.822,0,0,0,2.286-.464.176.176,0,1,0-.169-.309c-2.454,1.347-8.546-.972-8.607-1a3.182,3.182,0,0,1-1.6-1.22.176.176,0,1,0-.313.16,3.484,3.484,0,0,0,1.794,1.392A22.273,22.273,0,0,0,660.322,2480.05Z" fill="#468ca5"/>
        <path id="Trazado_101308" data-name="Trazado 101308" d="M663.675,2484.733a.176.176,0,0,0,.006-.352,19.729,19.729,0,0,1-11.087-3.5.176.176,0,1,0-.223.272,20.068,20.068,0,0,0,11.3,3.575Z" fill="#468ca5"/>
        <g id="Grupo_56181" data-name="Grupo 56181">
          <path id="Trazado_101309" data-name="Trazado 101309" d="M645.9,2442.329c-.092.127-2.953,10.1-2.953,10.1l5.729,1.513,4.117-9.05S647.435,2440.2,645.9,2442.329Z" fill="url(#linear-gradient-41)"/>
          <path id="Trazado_101310" data-name="Trazado 101310" d="M650.517,2445.562a.852.852,0,0,1,.08.746l-1.768,4.863a.828.828,0,0,1-.109.206,1.4,1.4,0,0,1-2.2.411,7.49,7.49,0,0,0-2.5-1.831.851.851,0,0,0-1.055.59,31.747,31.747,0,0,0-.965,4.588.847.847,0,0,0,.682.926,23.611,23.611,0,0,0,5.3.491.85.85,0,0,0,.725-.49c.588-1.251,2.25-4.753,2.871-5.67.577-.851,1.949-.838,2.577-.783a.858.858,0,0,0,.651-.217,1.875,1.875,0,0,0,.15-2.936.851.851,0,0,1,.038-1.186,1.884,1.884,0,0,0,.2-2.761,2.656,2.656,0,0,0-3.091-.834.886.886,0,0,1-1.009-.329.561.561,0,0,0-.5-.256.827.827,0,0,1-.841-.826,2.18,2.18,0,0,0-1.671-2.22c-2.5-.8-4.088,1.6-4.26,3.412s2.59,2.525,4.219,2.418C649.243,2443.8,650.131,2444.946,650.517,2445.562Z" fill="url(#linear-gradient-42)"/>
          <path id="Trazado_101311" data-name="Trazado 101311" d="M650.91,2452.182s.434-3.136,1.742-3.277,2.569.943,1.254,2.694C652.27,2453.775,650.91,2452.182,650.91,2452.182Z" fill="url(#linear-gradient-43)"/>
        </g>
      </g>
    </g>
  </g>
</svg>
