<svg xmlns="http://www.w3.org/2000/svg" xmlns:xlink="http://www.w3.org/1999/xlink" width="86.901" height="109.648" viewBox="0 0 86.901 109.648">
  <defs>
    <clipPath id="clip-path">
      <path id="Trazado_101689" data-name="Trazado 101689" d="M674.7,5424.36c.086-.236.169-.473.251-.709.182-.529.363-1.058.524-1.591.128-.421.238-.844.352-1.266.174-.648.336-1.3.479-1.949.112-.505.218-1.01.311-1.517.063-.347.123-.694.177-1.042q.148-.943.254-1.887c.024-.22.057-.439.078-.659.083-.852.136-1.7.168-2.555.008-.227.009-.454.014-.681q.021-1.023-.005-2.041c-.006-.236-.01-.471-.02-.706-.037-.865-.094-1.727-.182-2.586-.012-.111-.03-.221-.042-.332q-.126-1.131-.312-2.25-.066-.394-.138-.787-.189-1.03-.427-2.049c-.042-.176-.076-.354-.12-.53-.2-.825-.436-1.641-.688-2.452-.071-.229-.149-.455-.224-.683q-.327-.993-.7-1.969c-.071-.187-.139-.374-.213-.559q-.5-1.26-1.083-2.489c-.023-.049-.049-.1-.072-.147q-.592-1.237-1.266-2.436c-.031-.055,6.132-24.042,6.1-24.1-4.21-7.461-29.651-13.9-37.972-17.869-21.516-10.258-42.782,3.913-42.506,25.5.009.735-2.828,20.308-3.108,20.981-.008.02-.018.04-.026.059-.238.575-.458,1.153-.67,1.734-.087.237-.17.475-.253.713-.182.528-.362,1.055-.523,1.587-.13.428-.241.858-.358,1.287-.171.64-.331,1.281-.472,1.926-.112.507-.219,1.014-.312,1.522-.064.346-.122.693-.177,1.041q-.148.942-.254,1.886c-.024.22-.057.439-.078.659-.083.853-.136,1.706-.168,2.557-.008.226-.009.451-.014.677q-.021,1.025.005,2.046c.007.234.01.468.02.7.037.865.094,1.728.182,2.587.012.111.03.221.042.333.084.753.19,1.5.312,2.25q.066.393.138.787.189,1.029.428,2.047c.041.177.075.355.119.532.2.824.436,1.64.688,2.45.071.23.149.458.225.686q.325.993.7,1.968c.071.186.138.373.213.558q.5,1.261,1.083,2.49c.023.049.049.1.072.146.395.825.819,1.635,1.265,2.435.032.056.062.112.094.169a43.149,43.149,0,0,0,76.519-2.669c.317-.665.6-1.341.876-2.016l.023-.053C674.264,5425.521,674.486,5424.942,674.7,5424.36Z" fill="none"/>
    </clipPath>
  </defs>
  <g id="Grupo_56568" data-name="Grupo 56568" transform="translate(-591.012 -5343.113)">
    <path id="Trazado_101680" data-name="Trazado 101680" d="M674.7,5424.36c.086-.236.169-.473.251-.709.182-.529.363-1.058.524-1.591.128-.421.238-.844.352-1.266.174-.648.336-1.3.479-1.949.112-.505.218-1.01.311-1.517.063-.347.123-.694.177-1.042q.148-.943.254-1.887c.024-.22.057-.439.078-.659.083-.852.136-1.7.168-2.555.008-.227.009-.454.014-.681q.021-1.023-.005-2.041c-.006-.236-.01-.471-.02-.706-.037-.865-.094-1.727-.182-2.586-.012-.111-.03-.221-.042-.332q-.126-1.131-.312-2.25-.066-.394-.138-.787-.189-1.03-.427-2.049c-.042-.176-.076-.354-.12-.53-.2-.825-.436-1.641-.688-2.452-.071-.229-.149-.455-.224-.683q-.327-.993-.7-1.969c-.071-.187-.139-.374-.213-.559q-.5-1.26-1.083-2.489c-.023-.049-.049-.1-.072-.147q-.592-1.237-1.266-2.436c-.031-.055-.061-.111-.092-.166a43.149,43.149,0,0,0-76.52,2.667c-.316.663-.594,1.338-.874,2.011-.008.02-.018.04-.026.059-.238.575-.458,1.153-.67,1.734-.087.237-.17.475-.253.713-.182.528-.362,1.055-.523,1.587-.13.428-.241.858-.358,1.287-.171.64-.331,1.281-.472,1.926-.112.507-.219,1.014-.312,1.522-.064.346-.122.693-.177,1.041q-.148.942-.254,1.886c-.024.22-.057.439-.078.659-.083.853-.136,1.706-.168,2.557-.008.226-.009.451-.014.677q-.021,1.025.005,2.046c.007.234.01.468.02.7.037.865.094,1.728.182,2.587.012.111.03.221.042.333.084.753.19,1.5.312,2.25q.066.393.138.787.189,1.029.428,2.047c.041.177.075.355.119.532.2.824.436,1.64.688,2.45.071.23.149.458.225.686q.325.993.7,1.968c.071.186.138.373.213.558q.5,1.261,1.083,2.49c.023.049.049.1.072.146.395.825.819,1.635,1.265,2.435.032.056.062.112.094.169a43.149,43.149,0,0,0,76.519-2.669c.317-.665.6-1.341.876-2.016l.023-.053C674.264,5425.521,674.486,5424.942,674.7,5424.36Z" fill="#0dcea9"/>
    <path id="Trazado_2310" data-name="Trazado 2310" d="M598.909,5384.66c5.1,3.658,12.959,3.831,15.922-1.329,1.969-3.429-.035-8.109-1.96-11.312A43.377,43.377,0,0,0,598.909,5384.66Z" fill="#09b291"/>
    <path id="Trazado_2311" data-name="Trazado 2311" d="M677.308,5409.565A43.047,43.047,0,0,0,662.7,5377.2c-1.756,2.328-2.282,6.052-1.226,11.14,2.114,10.189-11.566,12.356-2.994,23.263,4.476,5.695,12.117,5.725,18.341,4.483a43.4,43.4,0,0,0,.494-6.521Z" fill="#09b291"/>
    <g id="Grupo_56576" data-name="Grupo 56576">
      <g id="Grupo_56575" data-name="Grupo 56575" clip-path="url(#clip-path)">
        <g id="Grupo_56574" data-name="Grupo 56574">
          <g id="Grupo_56573" data-name="Grupo 56573">
            <g id="Grupo_56572" data-name="Grupo 56572">
              <g id="Grupo_56568-2" data-name="Grupo 56568">
                <path id="Trazado_101681" data-name="Trazado 101681" d="M607,5355.335l.434,1.655a42.333,42.333,0,0,1-3.368,30.222l-1.02,1.967a47.966,47.966,0,0,0-.8,42.549l1.925,4.079h29.993v-80.472Z" fill="#f6dccd"/>
                <path id="Trazado_101682" data-name="Trazado 101682" d="M665.284,5389.179l-1.02-1.967a42.333,42.333,0,0,1-3.368-30.222l.434-1.655H634.164v80.472h29.994l1.924-4.079A47.963,47.963,0,0,0,665.284,5389.179Z" fill="#f1cbbc"/>
              </g>
              <path id="Trazado_101683" data-name="Trazado 101683" d="M622.064,5408.968l-2.662,3.892,12.4,8.484v14.463h2.358l1.371-8.108-1.371-10.455Z" fill="#f1cbbc"/>
              <g id="Grupo_56569" data-name="Grupo 56569">
                <path id="Trazado_101684" data-name="Trazado 101684" d="M617.471,5385.466a16.694,16.694,0,0,0,16.693,16.693l2.768-16.693-2.768-16.693a16.693,16.693,0,0,0-16.693,16.693Z" fill="#df5b5b"/>
                <path id="Trazado_101685" data-name="Trazado 101685" d="M634.164,5368.773v33.386a16.693,16.693,0,0,0,0-33.386Z" fill="#c30048"/>
              </g>
              <g id="Grupo_56570" data-name="Grupo 56570">
                <path id="Trazado_101686" data-name="Trazado 101686" d="M625.828,5383.108h8.762v4.715h-8.762Z" fill="#eaf2fe"/>
              </g>
              <g id="Grupo_56571" data-name="Grupo 56571">
                <path id="Trazado_101687" data-name="Trazado 101687" d="M634.164,5383.108H642.5v4.715h-8.336Z" fill="#d6e7fe"/>
              </g>
            </g>
            <path id="Trazado_101688" data-name="Trazado 101688" d="M646.265,5408.968l-12.1,8.276v18.563h2.358v-14.463l12.4-8.484Z" fill="#eebca8"/>
          </g>
        </g>
      </g>
    </g>
  </g>
</svg>
