<svg xmlns="http://www.w3.org/2000/svg" xmlns:xlink="http://www.w3.org/1999/xlink" width="425.063" height="205.541" viewBox="0 0 425.063 205.541">
  <defs>
    <linearGradient id="linear-gradient" x1="0.5" y1="1.042" x2="0.5" y2="-0.026" gradientUnits="objectBoundingBox">
      <stop offset="0" stop-color="#e6e6e6"/>
      <stop offset="0.42" stop-color="#fff"/>
    </linearGradient>
    <linearGradient id="linear-gradient-2" x1="0.5" y1="0.937" x2="0.5" y2="-0.506" gradientUnits="objectBoundingBox">
      <stop offset="0" stop-color="#231f20"/>
      <stop offset="0.903" stop-color="#505052"/>
    </linearGradient>
    <linearGradient id="linear-gradient-3" y1="0.877" y2="0.05" xlink:href="#linear-gradient-2"/>
    <linearGradient id="linear-gradient-5" y1="0" y2="1" xlink:href="#linear-gradient-2"/>
  </defs>
  <g id="Grupo_55811" data-name="Grupo 55811" transform="translate(198.188 -1774.13)">
    <g id="Grupo_55805" data-name="Grupo 55805" transform="translate(21.334 1774.13)">
      <g id="Grupo_55803" data-name="Grupo 55803">
        <rect id="Rectángulo_5255" data-name="Rectángulo 5255" width="145.339" height="145.339" rx="7.849" transform="translate(0 102.771) rotate(-45)" fill="#d61b22"/>
        <rect id="Rectángulo_5256" data-name="Rectángulo 5256" width="123.751" height="123.751" rx="10.497" transform="translate(15.265 102.771) rotate(-45)" fill="url(#linear-gradient)"/>
      </g>
      <g id="Grupo_55804" data-name="Grupo 55804" transform="translate(85.68 44.794)">
        <circle id="Elipse_4008" data-name="Elipse 4008" cx="12.91" cy="12.91" r="12.91" transform="translate(4.191 83.023)" fill="url(#linear-gradient-2)"/>
        <path id="Trazado_100716" data-name="Trazado 100716" d="M49.736,1825.582h0a17.089,17.089,0,1,0-33.922-2.951c0,2.56,11.873,54.124,11.873,54.124h.164a5.531,5.531,0,0,0,10.748,0H38.6l.029-.134c.007-.036.016-.07.023-.107Z" transform="translate(-15.811 -1805.538)" fill="url(#linear-gradient-3)"/>
      </g>
    </g>
    <g id="Grupo_55810" data-name="Grupo 55810" transform="translate(-198.189 1774.13)">
      <g id="Grupo_55809" data-name="Grupo 55809">
        <g id="Grupo_55808" data-name="Grupo 55808">
          <g id="Grupo_55807" data-name="Grupo 55807">
            <g id="Grupo_55806" data-name="Grupo 55806">
              <rect id="Rectángulo_5257" data-name="Rectángulo 5257" width="145.339" height="145.339" rx="7.849" transform="translate(0 102.771) rotate(-45)" fill="#d61b22"/>
              <rect id="Rectángulo_5258" data-name="Rectángulo 5258" width="123.751" height="123.751" rx="10.497" transform="translate(15.265 102.771) rotate(-45)" fill="url(#linear-gradient)"/>
            </g>
          </g>
        </g>
      </g>
      <circle id="Elipse_4009" data-name="Elipse 4009" cx="2.864" cy="2.864" r="2.864" transform="translate(128.553 99.023)" fill="url(#linear-gradient-5)"/>
      <rect id="Rectángulo_5259" data-name="Rectángulo 5259" width="28.923" height="4.509" transform="translate(140.559 99.94)" fill="url(#linear-gradient-5)"/>
      <path id="Trazado_100717" data-name="Trazado 100717" d="M-70.643,1878.919l-3.718-.262-2.012-4.418-1.837-.306-.874-1.706-.744-3.631a14.489,14.489,0,0,0,4.812-12.569c1.371-1.488,4.594-7.465,4.594-7.465a20.31,20.31,0,0,0,2.055-9.842l-3.324-1.356c-2.887,3.237-8.179,7.174-9.8,4.636s1.53-4.855,1.53-4.855l-1.05-.744-.831-1.75c-3.1-.394-7.567,1.574-7.567,1.574-13.035-2.624-17.147,5.053-17.147,5.053l3.427,4.6c-7.7,6.532-14.931,19.246-14.931,19.246l-7-.683-2.566,1.266,5.016,7.115h-3.5l-1.284,2.333h-5.715l-5.016,7h-12.131l-2.216,3.15-6.649,1.167-3.383,4.433h91.217l6.023-6.255Zm-14.392-40.944s-1.924,5.119,2.406,7.218,10.1-2.493,10.1-2.493-3.1,20.122-15.7,10.673C-88.228,1853.373-98.332,1844.975-85.034,1837.975Zm-10.016.7-5.578,4.659-1.465-1.576C-100.387,1839.134-95.051,1838.675-95.051,1838.675Zm-20.53,37.618-5.92-7.844,6.823.467Zm4.213-6.823.365-1.984-1.138-1.341h-2.537v-1.225S-101.525,1845.5-94.7,1842.7c0,0-2.362,7.947,2.975,12.393,0,0,3.674,4.184,9.1,3.835,0,0-10.2,8.179-28,11.679Zm13.429,3.543-.715-1.268-.64-.745c8.7-1.443,20.69-10.716,20.69-10.716C-81.228,1869.34-97.939,1873.014-97.939,1873.014Z" transform="translate(213.398 -1748.359)" fill="url(#linear-gradient-5)"/>
      <path id="Trazado_100718" data-name="Trazado 100718" d="M-102.564,1864.788l2.45-4.549h-20.3l9.658-18.168h9.274V1838.1h-6.649l3.616-7.7-3.324-2.158-4.958,8.749-.175-5.308-4.549.058.117,14.29-3.033,5.177v-18.05l3-3.75,13.123-5.162-1.692-3.791-6.882,2.566,4.87-7-3.529-2.479-10.79,14.435,5.8-20.472-4.112-1.341-2.566,8.253-6.182-7.32-3.324,2.712,8.369,9.769-2.1,6.678-7.9-12.889-3.791,2.6,4.345,6.561h-7.291v4.083l9.769.146,2.041,3.489v9.974l-4.7-11.568-4.083,1.575,3.033,8.049-7.99-8.049-3.149,2.975,6.124,6.24-4.841,3.5,2.216,3.768,5.891-3.943,7.495,8.057v9.411h-45.318v4.549h45.318v4.007l-9.419,2.613,1.575,3.937,7.465-1.866-1.837,3.078,3.558,1.879,3.383-5.687,10.265.9v-4.024l-6.153-1.471v-3.37Z" transform="translate(208.247 -1760.474)" fill="url(#linear-gradient-5)"/>
    </g>
  </g>
</svg>
