<svg xmlns="http://www.w3.org/2000/svg" xmlns:xlink="http://www.w3.org/1999/xlink" width="59.715" height="59.715" viewBox="0 0 59.715 59.715">
  <defs>
    <linearGradient id="linear-gradient" x1="0.5" y1="1.053" x2="0.5" y2="-0.036" gradientUnits="objectBoundingBox">
      <stop offset="0" stop-color="#e6e6e6"/>
      <stop offset="0.42" stop-color="#fff"/>
    </linearGradient>
    <linearGradient id="linear-gradient-2" x1="0.5" y1="0.877" x2="0.5" y2="0.05" gradientUnits="objectBoundingBox">
      <stop offset="0" stop-color="#231f20"/>
      <stop offset="0.903" stop-color="#505052"/>
    </linearGradient>
  </defs>
  <g id="Grupo_56226" data-name="Grupo 56226" transform="translate(-428.254 -224.927)">
    <g id="Grupo_56224" data-name="Grupo 56224">
      <g id="Grupo_56223" data-name="Grupo 56223">
        <rect id="Rectángulo_5435" data-name="Rectángulo 5435" width="42.225" height="42.225" transform="translate(428.254 254.785) rotate(-45)" fill="#d61b22"/>
        <rect id="Rectángulo_5436" data-name="Rectángulo 5436" width="35.953" height="35.953" rx="3.206" transform="translate(432.689 254.785) rotate(-45)" fill="url(#linear-gradient)"/>
      </g>
    </g>
    <g id="Grupo_56225" data-name="Grupo 56225">
      <path id="Trazado_101343" data-name="Trazado 101343" d="M463.532,263.759a4.667,4.667,0,0,0,2.435-5.741s-.818-2.307-.536-3.388c0,0-1.081-.39-2.014,1.554a1.569,1.569,0,0,1-1.8.66,4.016,4.016,0,0,0,.508-4.179,9.889,9.889,0,0,1-.375-2.749s-.727-.049-.763,2.362-1.284,2.64-1.284,2.64,1.1-4.288-1.78-5.862a11.38,11.38,0,0,1-.461,4.166,9.153,9.153,0,0,0,.4,5.2s-1.6-.06-2.943-3.064a5.021,5.021,0,0,0-1.98-2.659s1.162,4.742-1.145,4.669a2.993,2.993,0,0,1-1.272-.956,4.8,4.8,0,0,0,.709,6.043l1.871,1.308s-2.2.527-4.742-1.707c0,0-2.307-1.545-2.089-5.541a16.244,16.244,0,0,1,1.4-5.487,4.283,4.283,0,0,0-.018-2.507s1.417-.2,3.216,1.926c0,0,.163-.436-.6-1.853,0,0-.89-1.744.963-4.088,0,0,1.78-2.144.836-3.434,0,0,1.689.836,1.435,3.8,0,0-.454,4.179,1.962,5.778,0,0-2.126-4.869-.654-8.1a13.613,13.613,0,0,1,3.324-5.1s1.527-1.617,1.236-3.089c0,0,1.49,1.254.2,4.978s.472,5.9.472,5.9a5.331,5.331,0,0,1,2.725-6.141s-1.4,2.507.236,4.088a4.59,4.59,0,0,1,.6,6.3s.49.218,2.416-1.89a4.745,4.745,0,0,1,2.307-1.271s-1.617.944-.381,3.6,3.179,5.988,1.108,10.842A5.756,5.756,0,0,1,463.532,263.759Z" fill="url(#linear-gradient-2)"/>
      <rect id="Rectángulo_5437" data-name="Rectángulo 5437" width="21.437" height="2.107" transform="translate(447.545 264.777)" fill="url(#linear-gradient-2)"/>
    </g>
  </g>
</svg>
