<svg xmlns="http://www.w3.org/2000/svg" width="240.615" height="232.516" viewBox="0 0 240.615 232.516">
  <g id="Grupo_57214" data-name="Grupo 57214" transform="translate(-62.264 -3785.476)">
    <path id="Rectángulo_8930" data-name="Rectángulo 8930" d="M99.488,0h0a99.488,99.488,0,0,1,99.488,99.488v123.7a0,0,0,0,1,0,0H0a0,0,0,0,1,0,0V99.488A99.488,99.488,0,0,1,99.488,0Z" transform="translate(80.461 3785.475)" fill="#bdf1ff"/>
    <g id="Grupo_57187" data-name="Grupo 57187">
      <g id="Grupo_57185" data-name="Grupo 57185">
        <g id="Grupo_57183" data-name="Grupo 57183">
          <g id="Grupo_57181" data-name="Grupo 57181">
            <path id="Trazado_103168" data-name="Trazado 103168" d="M254.418,3924.86V3979.8a9.124,9.124,0,0,1-9.123,9.129h-.338a9.125,9.125,0,0,1-9.123-9.129V3924.86Z" fill="#a7d49b"/>
            <path id="Trazado_103169" data-name="Trazado 103169" d="M254.914,3924.862H235.3a1.45,1.45,0,0,1-1.45-1.45h0a1.45,1.45,0,0,1,1.45-1.45h19.609a1.451,1.451,0,0,1,1.45,1.45h0A1.451,1.451,0,0,1,254.914,3924.862Z" fill="#a7d49b"/>
          </g>
          <g id="Grupo_57182" data-name="Grupo 57182">
            <path id="Trazado_103170" data-name="Trazado 103170" d="M282.895,3924.86V3979.8a9.126,9.126,0,0,1-9.13,9.129h-.332a9.126,9.126,0,0,1-9.129-9.129V3924.86Z" fill="#a7d49b"/>
            <path id="Trazado_103171" data-name="Trazado 103171" d="M283.387,3924.862H263.779a1.45,1.45,0,0,1-1.45-1.45h0a1.45,1.45,0,0,1,1.45-1.45h19.608a1.45,1.45,0,0,1,1.45,1.45h0A1.45,1.45,0,0,1,283.387,3924.862Z" fill="#a7d49b"/>
          </g>
        </g>
        <g id="Grupo_57184" data-name="Grupo 57184">
          <circle id="Elipse_4158" data-name="Elipse 4158" cx="4.152" cy="4.152" r="4.152" transform="translate(270.716 3956.632)" fill="#81b075"/>
          <path id="Trazado_103172" data-name="Trazado 103172" d="M278.23,3948.7a1.681,1.681,0,1,1-1.681-1.681A1.682,1.682,0,0,1,278.23,3948.7Z" fill="#81b075"/>
          <path id="Trazado_103173" data-name="Trazado 103173" d="M272.149,3952.281a1.433,1.433,0,1,1-1.433-1.433A1.433,1.433,0,0,1,272.149,3952.281Z" fill="#81b075"/>
        </g>
      </g>
      <g id="Grupo_57186" data-name="Grupo 57186">
        <rect id="Rectángulo_8931" data-name="Rectángulo 8931" width="82.113" height="7.64" transform="translate(218.289 3937.059)" fill="#c9630c"/>
        <path id="Trazado_103174" data-name="Trazado 103174" d="M294.269,3944.7v57.211H224.078V3944.7h3.753v49.632h62.686V3944.7Z" fill="#d1820c"/>
      </g>
    </g>
    <g id="Grupo_57193" data-name="Grupo 57193">
      <g id="Grupo_57188" data-name="Grupo 57188">
        <path id="Trazado_103175" data-name="Trazado 103175" d="M273.853,3872.872h0a3.523,3.523,0,0,0-.173-4.981l-15.726-14.669a3.523,3.523,0,0,0-4.981.173h0a3.524,3.524,0,0,0,.173,4.982l15.726,14.669A3.524,3.524,0,0,0,273.853,3872.872Z" fill="#2d5b68"/>
        <path id="Trazado_103176" data-name="Trazado 103176" d="M273.853,3872.872h0c1.328-1.423,1.684-3.25.794-4.079l-9.824-9.165-4.809,5.155,9.825,9.165C270.728,3874.777,272.526,3874.3,273.853,3872.872Z" fill="#223766" opacity="0.5" style="mix-blend-mode: multiply;isolation: isolate"/>
        <rect id="Rectángulo_8932" data-name="Rectángulo 8932" width="89.704" height="15.767" transform="matrix(0.682, -0.731, 0.731, 0.682, 194.056, 3925.929)" fill="#2d5b68"/>
        <rect id="Rectángulo_8933" data-name="Rectángulo 8933" width="89.704" height="7.133" transform="matrix(0.682, -0.731, 0.731, 0.682, 200.37, 3931.819)" fill="#223766" opacity="0.5" style="mix-blend-mode: multiply;isolation: isolate"/>
        <rect id="Rectángulo_8934" data-name="Rectángulo 8934" width="4.662" height="20.849" rx="0.79" transform="matrix(-0.682, 0.731, -0.731, -0.682, 207.444, 3938.417)" fill="#82c5f1"/>
        <path id="Rectángulo_8935" data-name="Rectángulo 8935" d="M.79,0H3.872a.79.79,0,0,1,.79.79V8.929a0,0,0,0,1,0,0H0a0,0,0,0,1,0,0V.79A.79.79,0,0,1,.79,0Z" transform="matrix(-0.682, 0.731, -0.731, -0.682, 207.444, 3938.418)" fill="#94b4f0" opacity="0.5" style="mix-blend-mode: multiply;isolation: isolate"/>
        <path id="Rectángulo_8936" data-name="Rectángulo 8936" d="M1.034,0h8.16a0,0,0,0,1,0,0V9.194a0,0,0,0,1,0,0H1.034A1.034,1.034,0,0,1,0,8.16V1.034A1.034,1.034,0,0,1,1.034,0Z" transform="matrix(0.682, -0.731, 0.731, 0.682, 187.008, 3938.304)" fill="#2d5b68"/>
        <path id="Rectángulo_8937" data-name="Rectángulo 8937" d="M1.034,0h8.16a0,0,0,0,1,0,0V4.6a0,0,0,0,1,0,0H1.034A1.034,1.034,0,0,1,0,3.563V1.034A1.034,1.034,0,0,1,1.034,0Z" transform="matrix(0.682, -0.731, 0.731, 0.682, 190.369, 3941.439)" fill="#223766" opacity="0.5" style="mix-blend-mode: multiply;isolation: isolate"/>
        <rect id="Rectángulo_8938" data-name="Rectángulo 8938" width="68.096" height="23.76" rx="0.742" transform="matrix(0.682, -0.731, 0.731, 0.682, 198.273, 3914.255)" fill="#82c5f1"/>
        <path id="Rectángulo_8939" data-name="Rectángulo 8939" d="M0,0H68.1a0,0,0,0,1,0,0V10.653a1.227,1.227,0,0,1-1.227,1.227H1.227A1.227,1.227,0,0,1,0,10.653V0A0,0,0,0,1,0,0Z" transform="translate(206.96 3922.358) rotate(-46.991)" fill="#94b4f0" opacity="0.5" style="mix-blend-mode: multiply;isolation: isolate"/>
      </g>
      <g id="Grupo_57189" data-name="Grupo 57189">
        <path id="Rectángulo_8940" data-name="Rectángulo 8940" d="M3.339,0H78.828a3.339,3.339,0,0,1,3.339,3.339v7.733a0,0,0,0,1,0,0H0a0,0,0,0,1,0,0V3.339A3.339,3.339,0,0,1,3.339,0Z" transform="translate(160.686 3990.841)" fill="#2d5b68"/>
        <rect id="Rectángulo_8941" data-name="Rectángulo 8941" width="82.168" height="6.507" transform="translate(160.686 3996.309)" fill="#2d5b68" opacity="0.5" style="mix-blend-mode: multiply;isolation: isolate"/>
      </g>
      <g id="Grupo_57191" data-name="Grupo 57191">
        <g id="Grupo_57190" data-name="Grupo 57190">
          <path id="Trazado_103177" data-name="Trazado 103177" d="M243.31,3897.687v38.139a33.862,33.862,0,0,1-33.867,33.861h-4.369a42.246,42.246,0,0,1-25.038-8.171l-1.626,2.176-2.26,3.022a49.116,49.116,0,0,0,29.214,9.578h7.125a39.366,39.366,0,0,0,39.366-39.366v-39.239Z" fill="#2d5b68"/>
          <path id="Trazado_103178" data-name="Trazado 103178" d="M247.581,3937.573c-.777,20.115-17.4,34.525-37.606,35.027-15.719.393-27.7-5.965-31.565-8.908l1.626-2.176a42.246,42.246,0,0,0,25.038,8.171h4.369a33.862,33.862,0,0,0,33.867-33.861v-37.547l2.091-.592,2.181-.617s.018.212.043.617C247.957,3902.346,248.218,3920.769,247.581,3937.573Z" fill="#223766" opacity="0.5" style="mix-blend-mode: multiply;isolation: isolate"/>
          <path id="Rectángulo_8942" data-name="Rectángulo 8942" d="M1.525,0h7.8a0,0,0,0,1,0,0V23.5a0,0,0,0,1,0,0h-7.8A1.525,1.525,0,0,1,0,21.979V1.525A1.525,1.525,0,0,1,1.525,0Z" transform="translate(160.611 3957.39) rotate(-55.834)" fill="#82c5f1"/>
          <path id="Trazado_103179" data-name="Trazado 103179" d="M185.3,3962.875l-2.618,3.857-19.448-13.2h0l2.618-3.857Z" fill="#94b4f0" opacity="0.5" style="mix-blend-mode: multiply;isolation: isolate"/>
          <rect id="Rectángulo_8943" data-name="Rectángulo 8943" width="9.324" height="36.156" rx="1.583" transform="matrix(0.562, -0.827, 0.827, 0.562, 160.613, 3946.123)" fill="#2d5b68"/>
          <path id="Trazado_103180" data-name="Trazado 103180" d="M193.147,3962.57l-2.081,3.066a.955.955,0,0,1-1.328.254L161.4,3946.66a.957.957,0,0,1-.254-1.329l2.08-3.066h0Z" fill="#223766" opacity="0.5" style="mix-blend-mode: multiply;isolation: isolate"/>
        </g>
        <path id="Trazado_103181" data-name="Trazado 103181" d="M260.14,3897.687a12.554,12.554,0,1,1-3.71-8.92A12.56,12.56,0,0,1,260.14,3897.687Z" fill="#2d5b68"/>
        <circle id="Elipse_4159" data-name="Elipse 4159" cx="6.734" cy="6.734" r="6.734" transform="translate(240.847 3890.953)" fill="#82c5f1"/>
        <path id="Trazado_103182" data-name="Trazado 103182" d="M260.14,3897.687a12.554,12.554,0,0,1-20.559,9.681l16.849-18.6A12.543,12.543,0,0,1,260.14,3897.687Z" fill="#223766" opacity="0.5" style="mix-blend-mode: multiply;isolation: isolate"/>
      </g>
      <g id="Grupo_57192" data-name="Grupo 57192">
        <path id="Trazado_103183" data-name="Trazado 103183" d="M218.182,3971.8v24.312H201.768V3971.8a8.065,8.065,0,0,1,8.068-8.062h.284A8.06,8.06,0,0,1,218.182,3971.8Z" fill="#2d5b68"/>
        <path id="Trazado_103184" data-name="Trazado 103184" d="M213.771,3972.6a3.8,3.8,0,1,1-3.8-3.8A3.8,3.8,0,0,1,213.771,3972.6Z" fill="#94b3f1"/>
        <path id="Trazado_103185" data-name="Trazado 103185" d="M209.975,3963.734v32.374h-8.207V3971.8a8.065,8.065,0,0,1,8.068-8.062Z" fill="#223766" opacity="0.5" style="mix-blend-mode: multiply;isolation: isolate"/>
      </g>
    </g>
    <g id="Grupo_57200" data-name="Grupo 57200">
      <g id="Grupo_57196" data-name="Grupo 57196">
        <g id="Grupo_57194" data-name="Grupo 57194">
          <path id="Trazado_103186" data-name="Trazado 103186" d="M161.81,3978.247c0,20.167-16.348,27.349-36.508,27.349s-36.515-7.182-36.515-27.349c0-15.923,10.2-31.05,24.417-36.7v-44.074h24.189v44.074C151.612,3947.2,161.81,3962.318,161.81,3978.247Z" fill="#9bd6f7"/>
          <rect id="Rectángulo_8944" data-name="Rectángulo 8944" width="28.627" height="5.106" rx="1.966" transform="translate(111.12 3892.605)" fill="#82c5f1"/>
        </g>
        <path id="Trazado_103187" data-name="Trazado 103187" d="M157.165,3977.681c0,17.522-14.207,23.764-31.729,23.764s-31.729-6.242-31.729-23.764a34.213,34.213,0,0,1,3-13.88c3.578.94,4.544,3.453,9.695,3.453,6.34,0,6.34-3.812,12.685-3.812s6.346,3.812,12.692,3.812,6.346-3.812,12.692-3.812c5.725,0,6.293,3.1,10.994,3.708A33.918,33.918,0,0,1,157.165,3977.681Z" fill="#fff"/>
        <g id="Grupo_57195" data-name="Grupo 57195">
          <circle id="Elipse_4160" data-name="Elipse 4160" cx="2.308" cy="2.308" r="2.308" transform="translate(134.204 3958.35)" fill="#fff"/>
          <path id="Trazado_103188" data-name="Trazado 103188" d="M132.1,3948.442a3.4,3.4,0,1,1-3.4-3.4A3.4,3.4,0,0,1,132.1,3948.442Z" fill="#fff"/>
          <path id="Trazado_103189" data-name="Trazado 103189" d="M152.075,3973.579a1.9,1.9,0,1,1-1.9-1.9A1.9,1.9,0,0,1,152.075,3973.579Z" fill="#82c5f1"/>
          <path id="Trazado_103190" data-name="Trazado 103190" d="M149.337,3983.746a2.972,2.972,0,1,1-2.971-2.971A2.972,2.972,0,0,1,149.337,3983.746Z" fill="#82c5f1"/>
        </g>
      </g>
      <g id="Grupo_57199" data-name="Grupo 57199">
        <g id="Grupo_57197" data-name="Grupo 57197">
          <path id="Trazado_103191" data-name="Trazado 103191" d="M140.967,4001.444H73.69a7.558,7.558,0,0,1-6.542-11.34l25.207-43.657V3884.98h29.94v61.467l25.214,43.657A7.558,7.558,0,0,1,140.967,4001.444Z" fill="#fff"/>
          <path id="Trazado_103192" data-name="Trazado 103192" d="M137.677,3996.685H76.452a4.539,4.539,0,0,1-3.931-6.809l22.491-38.95c2.266,1.534,3.434,4.1,7.332,4.1a6.809,6.809,0,0,0,4.988-2.083c1.606-1.456,2.97-3.14,6.13-3.14,3.943,0,6.614,2.99,7.4,4.152l20.741,35.921A4.538,4.538,0,0,1,137.677,3996.685Z" fill="#82c5f1"/>
          <path id="Trazado_103193" data-name="Trazado 103193" d="M140.967,4001.444H107.325V3884.98h14.97v61.467l25.214,43.657A7.558,7.558,0,0,1,140.967,4001.444Z" fill="#c8d5ef" style="mix-blend-mode: multiply;isolation: isolate"/>
          <rect id="Rectángulo_8945" data-name="Rectángulo 8945" width="35.431" height="5.595" rx="1.495" transform="translate(89.346 3879.385)" fill="#82c5f1"/>
          <path id="Trazado_103194" data-name="Trazado 103194" d="M124.776,3880.881v2.6a1.494,1.494,0,0,1-1.5,1.495H97.97v-5.595h25.311A1.491,1.491,0,0,1,124.776,3880.881Z" fill="#5bc5f2" opacity="0.5" style="mix-blend-mode: multiply;isolation: isolate"/>
        </g>
        <g id="Grupo_57198" data-name="Grupo 57198">
          <circle id="Elipse_4161" data-name="Elipse 4161" cx="2.203" cy="2.203" r="2.203" transform="translate(98.215 3960)" fill="#82c6f0" opacity="0.5" style="mix-blend-mode: multiply;isolation: isolate"/>
          <path id="Trazado_103195" data-name="Trazado 103195" d="M104.982,3945.415a2.361,2.361,0,1,1-2.361-2.36A2.361,2.361,0,0,1,104.982,3945.415Z" fill="#82c5f1"/>
          <path id="Trazado_103196" data-name="Trazado 103196" d="M116.643,3932.617a4.054,4.054,0,1,1-4.054-4.054A4.055,4.055,0,0,1,116.643,3932.617Z" fill="#82c6f0" opacity="0.5" style="mix-blend-mode: multiply;isolation: isolate"/>
          <path id="Trazado_103197" data-name="Trazado 103197" d="M104.458,3923.381a1.836,1.836,0,1,1-1.837-1.836A1.836,1.836,0,0,1,104.458,3923.381Z" fill="#82c5f1"/>
          <path id="Trazado_103198" data-name="Trazado 103198" d="M120.459,3963.043a3.043,3.043,0,1,1-3.043-3.043A3.043,3.043,0,0,1,120.459,3963.043Z" fill="#82c5f1"/>
          <path id="Trazado_103199" data-name="Trazado 103199" d="M112.327,3972.291a1.207,1.207,0,1,1-1.207-1.207A1.206,1.206,0,0,1,112.327,3972.291Z" fill="#82c5f1"/>
        </g>
      </g>
    </g>
    <g id="Grupo_57201" data-name="Grupo 57201">
      <path id="Trazado_103200" data-name="Trazado 103200" d="M302.879,4009.966a8.025,8.025,0,0,1-8.032,8.025H70.295a8.028,8.028,0,1,1,0-16.057H294.847A8.032,8.032,0,0,1,302.879,4009.966Z" fill="#2d5b68"/>
      <path id="Trazado_103201" data-name="Trazado 103201" d="M302.879,4009.966a8.025,8.025,0,0,1-8.032,8.025H70.295a8.03,8.03,0,0,1-8.031-8.025Z" fill="#2d5b68" opacity="0.5" style="mix-blend-mode: multiply;isolation: isolate"/>
    </g>
    <g id="Grupo_57206" data-name="Grupo 57206">
      <g id="Grupo_57204" data-name="Grupo 57204">
        <g id="Grupo_57202" data-name="Grupo 57202">
          <path id="Trazado_103202" data-name="Trazado 103202" d="M181.78,3889.039l-.036.611v.006a25.621,25.621,0,0,1-1.215,5.777l-.224.665a31.508,31.508,0,0,1-2.671,5.638c-.139.236-.284.466-.435.7-.06.1-.121.2-.187.3a32.265,32.265,0,0,1-3.378,4.364c-.248.266-.5.519-.744.773a22.244,22.244,0,0,1-11.252,6.515c-.139.03-.272.054-.4.073l-.006-.019-.1-.38a19.871,19.871,0,0,1,.139-8.926v-.006l.326-1.306a29.621,29.621,0,0,1,2.581-6.327l.459-.822c.266-.471.556-.943.858-1.408a31.773,31.773,0,0,1,3-3.946l.52-.575a28.222,28.222,0,0,1,4.417-3.843q.282-.2.562-.381a18.791,18.791,0,0,1,6.956-2.919c.073-.018.151-.03.224-.042h.006l.09-.018c.043.157.079.314.115.471.024.073.037.151.055.23A17.422,17.422,0,0,1,181.78,3889.039Z" fill="#a7d49b"/>
          <path id="Trazado_103203" data-name="Trazado 103203" d="M181.78,3889.039l-.036.611v.006a25.621,25.621,0,0,1-1.215,5.777l-.224.665a31.508,31.508,0,0,1-2.671,5.638c-.139.236-.284.466-.435.7-.06.1-.121.2-.187.3a32.265,32.265,0,0,1-3.378,4.364c-.248.266-.5.519-.744.773a22.244,22.244,0,0,1-11.252,6.515c-.139.03-.272.054-.4.073l-.006-.019,20.045-30.9c.043.157.079.314.115.471.024.073.037.151.055.23A17.422,17.422,0,0,1,181.78,3889.039Z" fill="#a7d49b" opacity="0.3" style="mix-blend-mode: multiply;isolation: isolate"/>
          <path id="Trazado_103204" data-name="Trazado 103204" d="M177.8,3889.535l3.583-5.518c-.036-.157-.072-.314-.115-.471l-.09.018h-.006c-.073.012-.151.024-.224.042l-4.544,6.884-1.6,2.471-.81-6.436q-.28.182-.562.381l.864,6.841-3.813,5.886-1.468-8.884-.52.575,1.505,9.053-3.651,5.632-1.716-9.331-.459.822,1.7,9.246-2.677,4.134-1.6-7.053-.326,1.306,1.463,6.46-1.6,2.472.1.4c.133-.019.266-.043.4-.073l3.136-4.835,8.116-1.68.744-.773-8.4,1.74,2.944-4.544,9.016-1.862c.151-.235.3-.465.435-.7l-8.992,1.85,3.856-5.947,7.807-1.541.224-.665-7.566,1.493,3.952-6.1.425-.622h0v-.006l4.4-.544v-.006l.036-.611Z" fill="#81b075"/>
        </g>
        <g id="Grupo_57203" data-name="Grupo 57203">
          <path id="Trazado_103205" data-name="Trazado 103205" d="M160.78,3914.059a3.517,3.517,0,0,1-.079.344c-.006.018-.012.042-.018.061-.139-.025-.272-.049-.411-.079a13.173,13.173,0,0,1-5.306-2.575q-.462-.344-.907-.743a20.268,20.268,0,0,1-3.589-4.194c-2.659-4.1-3.614-8.594-2.865-12,.03-.145.067-.29.1-.429.127.018.254.042.387.073,3.42.688,7.161,3.4,9.826,7.517S161.541,3910.656,160.78,3914.059Z" fill="#81b075"/>
          <path id="Trazado_103206" data-name="Trazado 103206" d="M160.7,3914.4c-.006.018-.012.042-.018.061-.139-.025-.272-.049-.411-.079a13.173,13.173,0,0,1-5.306-2.575q-.462-.344-.907-.743a20.268,20.268,0,0,1-3.589-4.194c-2.659-4.1-3.614-8.594-2.865-12,.03-.145.067-.29.1-.429Z" fill="#81b075" opacity="0.5" style="mix-blend-mode: multiply;isolation: isolate"/>
          <path id="Trazado_103207" data-name="Trazado 103207" d="M159.172,3911.575v-.006l.55-6.1-.5-1.13-.586,6.406-2.321-3.578.52-6.66v-.006l-.55-.664-.507,6.49v.006l-3-4.623-.1-5.167-.616-.4.091,4.6-4.055-6.224c-.133-.031-.26-.055-.387-.073-.036.139-.073.284-.1.429l2.544,3.886-2.774-.8.055.641,3.221.93,2.9,4.467-5.1-1.112.272.676,5.288,1.161,2.423,3.734-5.783-1.329.514.743,5.741,1.312,1.644,2.538h0l-4.491-.659q.444.4.907.743l4.018.591v0l1.287,1.982c.139.03.272.054.411.079.036-.133.072-.266.1-.405Z" fill="#a7d49b"/>
        </g>
      </g>
      <g id="Grupo_57205" data-name="Grupo 57205">
        <path id="Trazado_103208" data-name="Trazado 103208" d="M173.755,3913.69l-3.439,19.725a.531.531,0,0,1-.52.442H154.241a.538.538,0,0,1-.526-.442l-3.439-19.725a.532.532,0,0,1,.52-.623h22.439A.526.526,0,0,1,173.755,3913.69Z" fill="#d1820c"/>
        <path id="Trazado_103209" data-name="Trazado 103209" d="M162.018,3913.067v20.79h-7.777a.538.538,0,0,1-.526-.442l-3.439-19.725a.532.532,0,0,1,.52-.623Z" fill="#b94c0c"/>
      </g>
    </g>
    <g id="Grupo_57207" data-name="Grupo 57207">
      <path id="Trazado_103210" data-name="Trazado 103210" d="M152.376,3837.362a14.958,14.958,0,1,1-29.8,2.7,14.814,14.814,0,0,1,.13-3.721,14.524,14.524,0,0,1,1.021-3.539,14.962,14.962,0,0,1,21.057-7.144,5.164,5.164,0,0,1,.466.28,14.9,14.9,0,0,1,7.121,11.426Z" fill="#a0871d"/>
      <path id="Trazado_103211" data-name="Trazado 103211" d="M147.194,3832.067a14.961,14.961,0,0,1-22.664,14.14,14.961,14.961,0,0,1-1.819-9.868,14.524,14.524,0,0,1,1.021-3.539,14.962,14.962,0,0,1,21.057-7.144,5.164,5.164,0,0,1,.466.28A14.839,14.839,0,0,1,147.194,3832.067Z" fill="#dbb826"/>
      <path id="Trazado_103212" data-name="Trazado 103212" d="M113.614,3826.612a8.462,8.462,0,0,1-16.855,1.526,8.611,8.611,0,0,1,.041-1.888,8.459,8.459,0,0,1,16.434-1.488A8.606,8.606,0,0,1,113.614,3826.612Z" fill="#dbb826"/>
      <path id="Trazado_103213" data-name="Trazado 103213" d="M113.614,3826.612a8.462,8.462,0,0,1-16.218,4.065,8.461,8.461,0,0,0,13.447-7.575,8.606,8.606,0,0,0-.38-1.85c-.072-.231-.16-.452-.248-.673a8.409,8.409,0,0,1,3.019,4.183A8.606,8.606,0,0,1,113.614,3826.612Z" fill="#a0871d"/>
      <path id="Trazado_103214" data-name="Trazado 103214" d="M160.712,3816.873a6.764,6.764,0,1,1-7.347-6.127A6.764,6.764,0,0,1,160.712,3816.873Z" fill="#dbb826"/>
      <path id="Trazado_103215" data-name="Trazado 103215" d="M160.715,3816.872a6.768,6.768,0,0,1-12.59,4.009,6.764,6.764,0,0,0,8.148-9.761A6.765,6.765,0,0,1,160.715,3816.872Z" fill="#a0871d"/>
      <path id="Trazado_103216" data-name="Trazado 103216" d="M152.514,3868.2a8.5,8.5,0,1,1-9.231-7.7,8.008,8.008,0,0,1,1.816.034A8.5,8.5,0,0,1,152.514,3868.2Z" fill="#dbb826"/>
      <path id="Trazado_103217" data-name="Trazado 103217" d="M152.511,3868.2a8.5,8.5,0,0,1-16.272,4.122,8.3,8.3,0,0,0,4.348.769,8.5,8.5,0,0,0,7.7-9.237,8.214,8.214,0,0,0-.659-2.58A8.456,8.456,0,0,1,152.511,3868.2Z" fill="#a0871d"/>
      <path id="Trazado_103218" data-name="Trazado 103218" d="M145.1,3860.532a8.008,8.008,0,0,0-1.816-.034,8.466,8.466,0,0,0-3.552,1.144l-2.493-12.906a2.747,2.747,0,0,1,2.167-3.214c.091-.015.181-.03.273-.039a2.744,2.744,0,0,1,2.941,2.213Z" fill="#2d5b68"/>
      <path id="Trazado_103219" data-name="Trazado 103219" d="M123.733,3832.8a14.607,14.607,0,0,0-1.025,3.542l-12.052-4.426a1.841,1.841,0,0,1,1.266-3.458Z" fill="#2d5b68"/>
      <path id="Trazado_103220" data-name="Trazado 103220" d="M154.039,3819.244a1.766,1.766,0,0,1-.4,1.276l-6.006,7.2a15.342,15.342,0,0,0-2.843-2.066l6.16-7.378a1.738,1.738,0,0,1,2.466-.224A1.765,1.765,0,0,1,154.039,3819.244Z" fill="#2d5b68"/>
    </g>
    <g id="Grupo_57208" data-name="Grupo 57208">
      <path id="Trazado_103221" data-name="Trazado 103221" d="M198.265,3832.509" fill="none" stroke="#fff" stroke-linecap="round" stroke-miterlimit="10" stroke-width="3"/>
      <path id="Trazado_103222" data-name="Trazado 103222" d="M209.625,3846.918a1.676,1.676,0,0,1-1.4-.562l-11.22-12.741a1.675,1.675,0,1,1,2.514-2.213l11.22,12.741a1.674,1.674,0,0,1-1.116,2.775Z" fill="#2d5b68"/>
      <path id="Trazado_103223" data-name="Trazado 103223" d="M225.4,3831.935a1.678,1.678,0,0,1-1.529-.732l-9.907-14.678a1.675,1.675,0,0,1,2.777-1.874l9.907,14.678a1.676,1.676,0,0,1-1.248,2.606Z" fill="#82c5f1"/>
      <path id="Trazado_103224" data-name="Trazado 103224" d="M235.212,3830.423a1.673,1.673,0,0,1-1.537-.746l-14.712-22.266a1.674,1.674,0,1,1,2.793-1.845l14.713,22.265a1.674,1.674,0,0,1-1.257,2.592Z" fill="#82c5f1"/>
      <path id="Trazado_103225" data-name="Trazado 103225" d="M204.742,3857.743a1.672,1.672,0,0,1-1.626-.523l-17.7-19.974a1.674,1.674,0,1,1,2.506-2.22l17.7,19.974a1.675,1.675,0,0,1-.88,2.743Z" fill="#2d5b68"/>
      <path id="Trazado_103226" data-name="Trazado 103226" d="M189.326,3870.924a1.571,1.571,0,0,1-1.528-.491l-16.633-18.771a1.573,1.573,0,1,1,2.355-2.086l16.633,18.771a1.573,1.573,0,0,1-.827,2.577Z" fill="#2d5b68"/>
      <path id="Trazado_103227" data-name="Trazado 103227" d="M244.678,3826.4a1.673,1.673,0,0,1-1.545-.757l-16.575-25.52a1.675,1.675,0,0,1,2.809-1.824l16.575,25.52a1.676,1.676,0,0,1-.493,2.317A1.658,1.658,0,0,1,244.678,3826.4Z" fill="#82c5f1"/>
      <path id="Trazado_103228" data-name="Trazado 103228" d="M197.831,3865.43a1.679,1.679,0,0,1-1.589-.514L177.537,3843.5a1.484,1.484,0,0,1,.262-2.173,1.721,1.721,0,0,1,2.321.184l18.705,21.417a1.484,1.484,0,0,1-.262,2.173A1.744,1.744,0,0,1,197.831,3865.43Z" fill="#2d5b68"/>
      <path id="Trazado_103229" data-name="Trazado 103229" d="M251.593,3819.745a1.674,1.674,0,0,1-1.542-.752L235.2,3796.3a1.675,1.675,0,0,1,2.8-1.833l14.849,22.694a1.675,1.675,0,0,1-1.261,2.585Z" fill="#82c5f1"/>
      <path id="Trazado_103230" data-name="Trazado 103230" d="M168.067,3861.783a1.676,1.676,0,0,1-1.717-2.228c2.962-8.367,6.535-17.008,14.684-22.641,11.593-8.016,21.356-8.083,30.8-8.146,1.067-.007,2.13-.014,3.193-.033.883-.016,1.83-.019,2.829-.022,7.615-.024,18.045-.057,26.619-5.942,7.018-4.816,10.475-14.526,11.368-17.387a1.674,1.674,0,1,1,3.2,1c-.974,3.122-4.765,13.726-12.67,19.152-9.426,6.469-20.454,6.5-28.5,6.529-.982,0-1.911.006-2.779.021-1.074.02-2.151.027-3.23.034-8.936.061-18.173.123-28.918,7.551-7.326,5.065-10.652,13.154-13.431,21A1.675,1.675,0,0,1,168.067,3861.783Z" fill="#2d5b68"/>
      <path id="Trazado_103231" data-name="Trazado 103231" d="M178.926,3874.534a1.675,1.675,0,0,1-.375-3.327,37,37,0,0,0,18.324-8.684c9.9-9,12.041-19.981,12.792-27.458,1.4-13.961,3.8-23.782,11.893-32.659,7.017-7.7,17.249-9.56,24.72-10.922a1.675,1.675,0,0,1,.6,3.3c-7.391,1.347-16.591,3.023-22.845,9.884-7.469,8.192-9.7,17.474-11.036,30.738-.806,8.025-3.122,19.824-13.871,29.6a40.6,40.6,0,0,1-20.1,9.522Z" fill="#82c5f1"/>
    </g>
    <g id="Grupo_57213" data-name="Grupo 57213">
      <g id="Grupo_57209" data-name="Grupo 57209">
        <path id="Trazado_103232" data-name="Trazado 103232" d="M278.319,3889.788a4.811,4.811,0,0,0-1.13.429l-1.306-3.855a2.788,2.788,0,0,0,1.106-.52Z" fill="#223766"/>
      </g>
      <g id="Grupo_57210" data-name="Grupo 57210">
        <path id="Trazado_103233" data-name="Trazado 103233" d="M275.321,3896.9l-2.816.58a3.862,3.862,0,0,0-.2-1.19l2.526-.52A4.453,4.453,0,0,0,275.321,3896.9Z" fill="#223766"/>
      </g>
      <g id="Grupo_57211" data-name="Grupo 57211">
        <path id="Trazado_103234" data-name="Trazado 103234" d="M286.09,3900.177a3.349,3.349,0,0,0-.773.949l-2.714-3.083a4.766,4.766,0,0,0,.8-.912Z" fill="#223766"/>
      </g>
      <g id="Grupo_57212" data-name="Grupo 57212">
        <path id="Trazado_103235" data-name="Trazado 103235" d="M294.6,3898.086l-3.233,3.142a3.324,3.324,0,0,0-.737-.973l3.082-3A2.853,2.853,0,0,0,294.6,3898.086Z" fill="#223766"/>
      </g>
      <path id="Trazado_103236" data-name="Trazado 103236" d="M284.229,3894.448a4.789,4.789,0,0,1-8.908,2.447,4.453,4.453,0,0,1-.489-1.13,4.714,4.714,0,0,1-.188-1.317,4.8,4.8,0,0,1,3.675-4.66,4.869,4.869,0,0,1,1.118-.133A4.792,4.792,0,0,1,284.229,3894.448Z" fill="#d1820c"/>
      <path id="Trazado_103237" data-name="Trazado 103237" d="M278.077,3883.636a2.753,2.753,0,0,1-1.088,2.206,2.788,2.788,0,0,1-1.106.52,3.2,3.2,0,0,1-.592.06,2.783,2.783,0,1,1,2.786-2.786Z" fill="#b94c0c"/>
      <path id="Trazado_103238" data-name="Trazado 103238" d="M291.747,3902.787a3.433,3.433,0,1,1-6.865,0,3.469,3.469,0,0,1,1.208-2.61,3.442,3.442,0,0,1,4.539.078,3.324,3.324,0,0,1,.737.973A3.377,3.377,0,0,1,291.747,3902.787Z" fill="#b94c0c"/>
      <path id="Trazado_103239" data-name="Trazado 103239" d="M299.126,3895.535a2.985,2.985,0,0,1-2.986,2.986,2.933,2.933,0,0,1-1.541-.435,2.853,2.853,0,0,1-.888-.828,2.932,2.932,0,0,1-.55-1.723,2.982,2.982,0,1,1,5.965,0Z" fill="#d1820c"/>
      <path id="Trazado_103240" data-name="Trazado 103240" d="M272.511,3897.56a4.161,4.161,0,1,1-.2-1.275,3.862,3.862,0,0,1,.2,1.19A.411.411,0,0,1,272.511,3897.56Z" fill="#c9630c"/>
    </g>
  </g>
</svg>
