<svg xmlns="http://www.w3.org/2000/svg" width="171.079" height="139.611" viewBox="0 0 171.079 139.611">
  <g id="Grupo_56107" data-name="Grupo 56107" transform="translate(-60.518 -2022.239)">
    <path id="Trazado_101144" data-name="Trazado 101144" d="M239.8,2144.105c-4.1,1.113-8.53,1.46-12.533,2.835,6.8-5.846,6.407-14.844,10.953-21.709a68.034,68.034,0,0,1,4.311-5.817c-2.759,5.527-1.571,12.71-4.732,18.06a23.394,23.394,0,0,1-4.892,5.883c.636-.019,1.17-.58,1.721-.926,5.163-5.144,11.887-6.575,17.434-10.747a16.823,16.823,0,0,0,5.256-6.613C256.272,2133.574,247.8,2141.552,239.8,2144.105Z" transform="translate(-48.529 -28.281)" fill="#1caed0"/>
    <path id="Trazado_101145" data-name="Trazado 101145" d="M265.944,2096.285c-2.516,3.573-5.555,6.922-7.884,10.55.252-2.862.579-6.416-.524-9.147a79.366,79.366,0,0,1-4.2-18.3l.057-2.469c1.468,6.584,7.94,11.139,7.519,18.519a15.751,15.751,0,0,1-.72,4.891l.1.112.3-.336c.954-3.62,1.45-7.436,2.937-10.8,2.123-4.883,4.77-9.8,3.685-15.676C270.443,2080.554,269.47,2089.813,265.944,2096.285Z" transform="translate(-56.116 -14.954)" fill="#1caed0"/>
    <path id="Trazado_101146" data-name="Trazado 101146" d="M260.2,2051.8a22.457,22.457,0,0,1,2.077,21.511,37.283,37.283,0,0,0-2.413,8.848,17.037,17.037,0,0,1-.459-1.833c-1.674-6.453-7.809-11.055-10.325-17.144a31.519,31.519,0,0,1-1.833-6.211c2.685,4.957,9.3,7.52,11.093,12.991.739,1.412.71,3.115,1.169,4.611a.189.189,0,0,0,.177-.159,64.331,64.331,0,0,1,.2-17.116c-.018-3.012-.318-5.949-2-8.268C258.952,2049.66,259.437,2050.866,260.2,2051.8Z" transform="translate(-54.342 -7.798)" fill="#1caed0"/>
    <path id="Trazado_101147" data-name="Trazado 101147" d="M254.7,2047.158c1.141,5.041-.5,9.961.542,15.039l-.065.028c-2.75-5.4-8.567-7.922-12.57-12.243-2.32-2.563-3.312-5.7-3.91-8.988,2.32,5.537,8.493,6.753,12.056,11.4,1.2,1.085,1.59,2.581,2.347,3.8l.1-.122c-2.029-4.358-2.731-9.277-4.125-13.935a10.886,10.886,0,0,0-4.022-5.266C249.693,2037.814,253.742,2042.7,254.7,2047.158Z" transform="translate(-51.854 -4.258)" fill="#1caed0"/>
    <path id="Trazado_101148" data-name="Trazado 101148" d="M239.468,2032.989c3.507,3.143,5.106,7.239,6.145,11.439l.571,1.346a50.974,50.974,0,0,1-13.01-13.805l-3.965-4.031C232.715,2029.417,236.466,2030.314,239.468,2032.989Z" transform="translate(-49.094 -1.659)" fill="#1caed0"/>
    <path id="Trazado_101149" data-name="Trazado 101149" d="M123.213,2028.888c-3.536,3.087-5.986,7-8.595,10.644-2.339,2.909-5.351,4.826-8.007,7.3,1.441-2.974,1.478-6.51,3.526-9.241C113.037,2032.526,118.405,2030.759,123.213,2028.888Z" transform="translate(-13.414 -1.935)" fill="#1caed0"/>
    <path id="Trazado_101150" data-name="Trazado 101150" d="M101.445,2042.32a12.028,12.028,0,0,1,6.342-4.237c-4.752,3.264-4.443,9.11-5.958,13.983-.468,1.8-1.3,3.46-1.721,5.284l.121.122a16.809,16.809,0,0,1,3.909-5.77c3.4-3.115,8.362-5.07,10.036-9.653-.084,6.388-5.425,11.438-10.55,15.021a21.256,21.256,0,0,0-5.284,6.35c-.131-1.618.252-3.245.13-4.976C97.91,2052.842,97.5,2046.473,101.445,2042.32Z" transform="translate(-10.942 -4.611)" fill="#1caed0"/>
    <path id="Trazado_101151" data-name="Trazado 101151" d="M89.237,2065.018c-.14-5.649,2.207-10.3,5.509-14.506.112-.047.178-.149.308-.121-3.638,5.546-.636,12.514-.795,18.827l-.477,6.444c.065.056.065.234.225.159a14.5,14.5,0,0,0,.411-2.207c.87-5.219,5.387-8.9,9.325-12.5a10.231,10.231,0,0,0,2.039-3,26.378,26.378,0,0,1-2.226,7.614c-3.068,5.986-8.754,10.915-9.774,17.761C93.259,2076.906,88.779,2072,89.237,2065.018Z" transform="translate(-8.349 -8.191)" fill="#1caed0"/>
    <path id="Trazado_101152" data-name="Trazado 101152" d="M85.227,2080.259a24.557,24.557,0,0,1,1.487-5.237c-1.468,7.482,3.572,12.869,5.237,19.388.693,2.4.851,5.032,1.843,7.3.094.047.169-.056.234-.121-2.46-6.912,1.076-13.328,4.658-18.706a18.364,18.364,0,0,0,1.8-4.779c.364,3.115-.4,6.715-.861,9.952-.87,4.134-2.17,8.043-3.3,12.046a19.38,19.38,0,0,0-.159,7.94l-.365-.28c-2.609-4.826-7.782-8.6-9.315-13.88C85.2,2089.706,84.367,2084.823,85.227,2080.259Z" transform="translate(-7.089 -15.361)" fill="#1caed0"/>
    <path id="Trazado_101153" data-name="Trazado 101153" d="M85,2102.521c.552,7.95,9.091,12.14,13.066,18.715a20.1,20.1,0,0,0,2.993,3.957c-.216-.832-.983-1.562-1.291-2.423a17.3,17.3,0,0,1-1.543-9.372c.384-4.059,2.1-7.838,1.441-12.084,3.489,7.492,2.413,16.864,4.368,24.972.5,1.786,1.534,3.368,2.2,5.07-7.146-4.883-16.882-9.5-20.052-18.426C84.842,2109.872,84.7,2106.046,85,2102.521Z" transform="translate(-7.087 -23.013)" fill="#1caed0"/>
    <path id="Trazado_101154" data-name="Trazado 101154" d="M91.071,2126.343c3.994,9.007,13.936,9.755,20.642,15.245a17.132,17.132,0,0,0,3.9,2.656l.065-.075a22.888,22.888,0,0,1-4.386-4.779c-3.9-5.435-2.535-13.047-5.453-18.921a45.139,45.139,0,0,1,6.687,10.129c2.395,5.9,3.312,12.562,8.839,17.041-5.986-1.972-13.01-1.431-18.294-5.116C97.3,2138.969,92.137,2132.946,91.071,2126.343Z" transform="translate(-8.892 -28.588)" fill="#1caed0"/>
    <path id="Trazado_101155" data-name="Trazado 101155" d="M105.49,2149c6.379,7.268,16.826,4.835,25.338,6.744a12.011,12.011,0,0,0,3.572.449c-.991-.636-2.432-.58-3.516-1.15-6.678-2.339-7.679-9.569-11.289-14.432,4.61,3.078,8.52,7.221,12.776,11.224,3.068,2.674,6.762,3.928,10.662,4.723-.944.327-2.16.233-3.171.5-6.977,1.711-14.759,4.527-22.157,2.011A21.606,21.606,0,0,1,105.49,2149Z" transform="translate(-13.088 -34.45)" fill="#1caed0"/>
    <path id="Trazado_101156" data-name="Trazado 101156" d="M196.794,2172.366c-7.221,2.693-14.7-.1-20.315-4.377-2.291-1.431-4.311-3.526-7.258-3.339a10.741,10.741,0,0,0-2.993.291,56.137,56.137,0,0,1,15.189,10.531,23.806,23.806,0,0,1-2.778,2.5c-4.452-4.826-9.418-9.456-14.973-12.159a10.2,10.2,0,0,0-3.087,1.31,46.3,46.3,0,0,0-12.308,11.008l-2.9-2.366a53.452,53.452,0,0,1,15.273-10.878c-5.472-1.711-9.044,2.853-13.188,5.191-4.854,3.376-11.813,4.957-17.658,2.637a19.007,19.007,0,0,1-8.465-5.808c4.593,3.171,11.467,3.5,16.7,1.459,7.024-3.068,14.328-6.921,22.774-5.07,1.338.028,2.61,1.347,3.863.216a27.024,27.024,0,0,1,18.827,2.376l5.583,2.217c5.191,1.926,11.906,1.393,16.34-1.768A19.382,19.382,0,0,1,196.794,2172.366Z" transform="translate(-17.699 -40.894)" fill="#1caed0"/>
    <path id="Trazado_101157" data-name="Trazado 101157" d="M228.184,2158.228c-8.081,3.049-16.2-.683-23.943-1.936l-1.5-.2v-.048c3.7-.832,7.3-1.945,10.26-4.592,4.33-4.19,8.184-8.483,13.01-11.766-3.572,4.574-3.956,11.112-9.848,14.048-1.468.963-3.321,1.122-4.817,1.843,2.151.056,4.106-.72,6.247-.917,7.9-1.253,16.994.029,22.513-6.724C238.051,2152.654,232.9,2156.581,228.184,2158.228Z" transform="translate(-41.392 -34.182)" fill="#1caed0"/>
    <path id="Trazado_101158" data-name="Trazado 101158" d="M255.425,2123.974c-3.161,2.086-6.425,4.022-9.5,6.388v-.271c4.714-7.819,2.432-18.557,5.313-27.115l1.066-2.89c-.571,5.341,1.748,9.877,1.58,15.254a17.144,17.144,0,0,1-2.946,8.689h.3c2.31-3.021,4.106-6.21,6.8-9.109,4.171-4.012,8.427-8.147,8.978-13.74C268.407,2110.506,263.188,2118.689,255.425,2123.974Z" transform="translate(-53.958 -22.656)" fill="#1caed0"/>
    <path id="Trazado_101159" data-name="Trazado 101159" d="M203.782,2049.625a48.287,48.287,0,0,0-43.229-27.385,50.819,50.819,0,0,0-21.83,5.182c-11.813,5.64-21.493,17.9-24.7,30.032-5.312,20.427,1.889,41.115,19.417,53.135,12.6,9.053,32.7,10.783,46.859,3.834,12.561-5.266,23.353-18.247,26.637-31.07a47.623,47.623,0,0,0-3.152-33.727m2.226,16.938c.15.813-.065,1.8.393,2.459l-6.921.131a.893.893,0,0,1-.561.224l.206-.3a37.925,37.925,0,0,0-3.667-14.89c-.056-2.057-2.067-3.46-2.9-5.256-1.543-1.057-2.021-2.918-3.751-3.853-.327-.365-.486-.964-.982-1.076l.823-.178a55.984,55.984,0,0,0,4.742-5.134c7.183,8.062,11.728,17.19,12.617,27.872m-19.519,25.945c-.58-.562-.608-1.7-1.675-1.665-.336-.056-.486.29-.486.57-.01.178.028.365-.075.468l-2.179-1.917c1.039-.515,1.8-1.917,2.581-2.927a30.878,30.878,0,0,0,4.2-9.157.931.931,0,0,0,1.1.075.871.871,0,0,0,.16-1.1l-.8-.851a24.829,24.829,0,0,0,.337-4.312l.542.15c2.226-.019,4.5.131,6.659-.094l-.318.384a35.663,35.663,0,0,1-9.643,22.858c.281-.852-.532-1.571-.411-2.479m-5.621,6.921c-1.244-1.169.766-2.133,1.15-3.17-.224-1.141-1.45-1.749-2.432-2.067-.44-.262-.309-.833-.327-1.226a3.981,3.981,0,0,0,1.075-1.365l.169.459,2.946,3.059a1.511,1.511,0,0,0,.8,1.589c.337.16.692-.14.991-.047h-.168a32.206,32.206,0,0,1-4.293,3.573l-.328.458c-.159-.477.823-.7.412-1.263m-13.412-37.187c-.384.15-.795.421-1.225.215a2.934,2.934,0,0,0-1.6-1.085c-.449.131-.776.71-1.329.4.879-.954,2.413-1.094,3.058-2.4a4.521,4.521,0,0,0,.272-1.918c-.225-.29-.6-.551-.917-.29-.458.785-1.562.954-2.1,1.8l-1.693-.58c-.29-1.59.113-3.591-.337-4.966a26.025,26.025,0,0,0,2.862.58,23.783,23.783,0,0,1,6.837,3.124,4.927,4.927,0,0,0-1.431,1.141c-.028.44.449.309.645.58l.459-.178c-.739,1.871-3.236,1.581-3.507,3.573m2.011,19.865c-.047.87-1.272.842-1.852,1.431-.328-.1-.038-.449,0-.637.58-.467,1.02-.916,1.852-.794m13.59-22.99c.777.159,1.273,1.123,2.039,1.272a12.666,12.666,0,0,1,1.356,3.638c-.636.7-.7,2.32-2.1,2.049-.318-.758.618-1.207.421-1.936.252-.187.636-.29.692-.636-.047-.729-.964-.589-1.113-1.338-.272-.393-.767-.346-1.141-.5-.9-.439-1.777,1.843-2.011.047a.675.675,0,0,0,.234-.917c-.776-.43-.851-1.533-1.721-1.955-1.169.009-2.254-.5-3.4-.252-.758-.16-1.619-.655-2.179.121-.056.608-.374,1.113-.458,1.674a1.662,1.662,0,0,1-.674-.691c2.133-2.348,4.546-4.715,6.763-7.015l.121-.29a28.768,28.768,0,0,1,3.227,4.256c.168.935-1.609,1.88-.057,2.469m4.19,12.72c-.4,1.3-.364,2.787-.683,4.1a3.9,3.9,0,0,1-.233.7,4.735,4.735,0,0,0-1.675-2.376c-.786-.43-.3-1.506-1.029-2.021l-.748-.729a10.171,10.171,0,0,0,4.367.328m-10-20.371a56.142,56.142,0,0,0-3.975,4.265l-.168-.524a21.094,21.094,0,0,0-10.775-4.377l-.626.131.037-6.51-.215-.524a43.042,43.042,0,0,1,7.706,1.628,27.926,27.926,0,0,1,8.652,5l.561.233-1.2.674m-6.585,35.523a23.712,23.712,0,0,1,6.023,1.375,1.643,1.643,0,0,0,1.3-.4c-.1-.795.842-1.159.758-1.936.4-.693.1-1.609.674-2.2a3.292,3.292,0,0,0-.571-2.422c-.524-.328-1,.112-1.506.168-.571.421-.356,1.712-1.375,1.431a.9.9,0,0,1-1.028.253c-.084-.122-.244-.14-.169-.281.683-.384,1.964-.131,2.077-1.272.523-.458,1.347-.271,1.833-.814a8.757,8.757,0,0,1,1.039-1.618,3.1,3.1,0,0,0,.13-.749c.131.337.131.8.552.983.58.178.8-.281,1.038-.646-.018-.187.14-.467.346-.271.608.467,1.431.065,2.133.112a6.719,6.719,0,0,1,1.9-.318,21.769,21.769,0,0,1-3.5,7.388c-.617.749-1.141,1.534-1.814,2.254-.206-.552-.187-1.3-.655-1.8l-.3.065c-.384.767-1.161,1.421-1.057,2.3-.571.907-2.021.149-2.863.636-1.038.308-1.6-.7-2.413-.907-.917-.411-1.973-.421-2.834-.87a.434.434,0,0,1,.28-.467m-4.47-61.823a44.875,44.875,0,0,1,25.449,12.037l-.823.355c-1.319,1.4-2.862,2.554-3.629,4.191-.084-.459-.757-.767-.982-1.217a5.036,5.036,0,0,0-2.535-3.227c-.944-.177-1.15-1.6-2.3-1.141-.973-.823-2.17-.225-3.105.233v.113a35.757,35.757,0,0,0-15.142-4.611c-.243,0-.384.215-.683.178.3-.187.141-.776.122-1.095-.159-.243-.421-.542-.776-.355a1.165,1.165,0,0,0-.2.589,36.189,36.189,0,0,0-.065-6.622c1.44.458,3.133.318,4.667.571m-1.852,9.624a38.7,38.7,0,0,1,11.625,3.321c.571.851,1.646,1.253,1.777,2.31-.542,1.468,1.936,1.441.823,2.927-.074.477.337.749.5,1.1.14.411-.074,1.029.4,1.272.869.187,1.234-.963,2.113-.645a4,4,0,0,1,1.338,3.4,2.393,2.393,0,0,0,1.515,1.608c1.421-.421.776,1.141,1.721,1.571,1.113.131,1.674,1.543,2.89,1.422A30.743,30.743,0,0,1,191.67,2056a.5.5,0,0,0,.3.5c.589.131.944-.261,1.421-.3a34.4,34.4,0,0,1,3.152,12.42l.215.449c-2.328-.009-4.686.019-7.043.168-.074-1.375.019-2.806-.739-3.9a4.78,4.78,0,0,0,.384-2.469c-.122-.375-.44-.047-.6,0-.776.739-.88,1.768-1.281,2.637a4.026,4.026,0,0,0-.356,3.4l.281.281-2.675-.047c.645-.4-.552-1.2.084-1.843l1.235-.234c.384-.907,1.338-1.543,1.319-2.6a2.288,2.288,0,0,0,.618-2.348c-.58-1.328.991-2.646-.206-3.909.1-.374-.15-.9-.59-.87-.383-.112-.822,0-.822-.524.233-.318.786-.673.664-1.206-.28-.346-.739-.038-1.1-.056-.094-.581.973-1.207.047-1.73-.645-.112-1.02.692-1.646.4a.723.723,0,0,1-.244-.982l-1.449-1.787c-.14-.159-.542.122-.562-.234.084-1.421-1.627-2.207-1.74-3.6-.532-.486-.094-1.384-.785-1.786-.384-.29-.8-.627-1.347-.412a14.84,14.84,0,0,0-2.1-2.459.5.5,0,0,0-.552.206c.122.673.917,1.047.87,1.8a.3.3,0,0,0-.3.1,3.594,3.594,0,0,0,1.122,1.721,28.292,28.292,0,0,0-12.907-5.172c-.917-.028-1.843-.43-2.75-.1.2-2.086.075-4.452.113-6.7l-.253-.44c.9.477,1.852.252,2.89.4m-4.031,27.629.4.206c-.5.038-1.076-.281-1.5.074-.29.216-.084.6,0,.879.861.318,1.048,1.74,2.208,1.178.467.113,1.076.215,1.225.758.72.252.813,1.487,1.749,1.207-.056.467-.216,1.262.346,1.609-.14.421-.664.589-.627,1.1-.13.149-.262.393-.112.58.888.1.832,1.1,1.253,1.674a1.565,1.565,0,0,0,.645,1.787,6.619,6.619,0,0,1-.832,2.226c-.917.458-2.451-.684-2.788.972-.542.589-.074,1.852-1.1,1.918a7.552,7.552,0,0,1-5.293-1.459c.973-.5,2.647.2,2.993-1.254a.885.885,0,0,0,.253-.926,5.05,5.05,0,0,0,.842-1.6c-.355-.355-.2-.552-.122-.973-.973-1.02-2.31-.486-3.573-.458-.739.42-.018,1.244-.524,1.759-.954.131-.973,1.066-1.646,1.608a1.264,1.264,0,0,1-.664-1.066h.121a.354.354,0,0,0,.253.4c.916.15.626-.888.916-1.346.14-.58,1.477-1.356.4-1.768-.056-.252.141-.552-.177-.7-.337.15-.9.15-.935.645a1.011,1.011,0,0,1-.365,1.16h-.215a.5.5,0,0,0-.337-.589c-.542.028-1,.431-1.543.29a11.888,11.888,0,0,1-2.432.337c-.094-.459.636-.309.776-.73-.131-.729.346-1.16.664-1.684.177-.187.561-.121.776-.047.2.187.384.356.664.281l.234-.411c.72.439.318,2.506,1.74,1.627.2-.9.009-1.955.411-2.768-.337-.767.477-1.085.739-1.609.749.065.664-.776.983-1.16,1.122-.337,2.329-.6,3.049-1.805-.29-.589-.112-1.45-.589-1.927.533-.177,1.347-.42,1.731,0m-1.095,44.483-.683-.459c-8.913-.477-16.545-4.124-23.2-9.951,1.076-.122,1.477,1.319,2.657.964,1.3-.16,2.311-1.179,3.666-.964.683.009,1.525,0,1.936-.645.2-.729-.552-1.085-.7-1.656a27.6,27.6,0,0,0,15.47,5.8l.57-.234v6.323l.29.823m-25.131-34.587-.356-.571a2.728,2.728,0,0,0,2.3.206c-1.179.393-.739,1.833-1.217,2.732-.084.42.59.533.515.982-.6.271-.654.9-.917,1.346.318-1.6-.281-3.105-.327-4.695m-7.277,8.277c-.654.075-.477.786-.739,1.15.056-1.665-.7-3.321-.917-4.995l-.524-4.433-.3-.393a58.534,58.534,0,0,0,6.688.159l.514-.243a4.619,4.619,0,0,0,.524,3.526c-.252-.29-.645-1.123-1.253-1.1-1.225.084-1.337,1.674-2.553,1.74a4.633,4.633,0,0,0-1.356,3.151c.43.459-.346.926-.084,1.441M131.7,2069.5l-.636-.252-6.556.131c.608-7.342,2.619-14.085,6.865-19.9l2.581-3.292.056-.459a48.127,48.127,0,0,0,5.069,5.069,29,29,0,0,0-7.669,18c.1.234.009.533.289.711m27.227-27.974c-1.253-.271-2.525.178-3.788.29a28.558,28.558,0,0,0-14.384,7.3l-.178-.449c-1.609-1.5-3.068-3.368-4.835-4.508,1.543-.9,2.881-2.245,4.4-3.273a36.566,36.566,0,0,1,18.743-6.257,46,46,0,0,0,.047,6.9m-10.756,36.186a.391.391,0,0,0,.58.3c.272-.374-.58-1,.047-1.216.393.449.2,1.16.44,1.655a1.364,1.364,0,0,1,.2.945,16.2,16.2,0,0,0-2.03,2.347c-.44-1.075-1.384-1.927-1.814-3.04-.683-1.254-1.047-2.684-1.721-3.909.561.71,2.113-.1,2.113,1.263.084.084.234.056.337.056.206-.216.243-.234.468-.112.13.224.692.346.252.636a1.55,1.55,0,0,0,1.132,1.075m7.127,18.706,1.141.533c-4.152-1.02-8.632-2.459-12.233-5.462-.618-.355-1.029-1.178-1.777-1.234a36.859,36.859,0,0,0,4.77-4.882c.627,1.15,1.964,1.768,3.012,2.534,1.805.842,3.694,2.385,5.827,1.936a4.318,4.318,0,0,0-1.805,1.188c-.29.645-.206,1.6-1.048,1.879.038,1.375,1.263,2.525,2.114,3.507m-15.283-8.455-.262-1.487c-1.356-1.234-.926-3.339-1.15-4.9-.945-.758-.206-2.011-.833-2.871,0-1.393-2.189-1.87-1.524-3.414-.243-.364-.58-.879-.271-1.365.43-.515,1.375.065,1.655-.692l.2-1.282c.5-.261,1.206.365,1.5-.317.459-1.207-1.786-2.666.14-3.3.674-.056,1.553-.215,1.8.589a5.555,5.555,0,0,1,.056,2.824c.636.234.075.786.075,1.188-.421.178-.767.552-1.216.421-.2-.3-.533-.861-.992-.823-.355.524.15,1.029.094,1.619-.14.327-.037.71-.243.963a1.107,1.107,0,0,0-.589-.159c-.4.215-.15.645-.047.926.43.262.739.655,1.244.683l.252-.29a16.728,16.728,0,0,1,.318-2.123l.7.346a24.129,24.129,0,0,0,3.694,8.24l.917.907a64.949,64.949,0,0,0-6.164,6.276v.047c-.028-.093-.084-.477-.393-.327-.187-.907,1.329-.655,1.048-1.675m3.329-28.386a5.214,5.214,0,0,0-1.609,1.683c-.58.356-1.337.347-1.805.983,0,.261.308.6-.038.795-.561.542-1.711-.14-1.973.861-.094.9-1.151,1.384-1.057,2.376-.617.393-.5,1.141-.43,1.72.318.4-.15,1.085.43,1.384a5.81,5.81,0,0,0-3.031.122c.459-1.075.318-2.422.58-3.582a28.553,28.553,0,0,1,6.445-13.29,60.392,60.392,0,0,0,5.3,4.957c-1.356.038-1.394,2.048-2.815,1.992m14.778,25.86c-.309.562-.047,1.366-.234,2.021a18.264,18.264,0,0,1-8.632-4c1.44-1.543,3.414-3.068,4.442-4.751.15.767,1.048,1.122,1.665,1.477,1.291.571,2.853,1.46,4.3.852a3.861,3.861,0,0,0-.337.3c.4.412-.3.842.187,1.216.074.327-.309.281-.347.515.225.43-.056,1.188.608,1.356a.39.39,0,0,1-.262.608c-.486-.084-1.141-.121-1.394.411m-7.716-7.183a3.329,3.329,0,0,0,.992-1.581l.8.421c-.748.038-1.132.785-1.73,1.207l-.066-.047m6.7-19.539c-.14-.327.252-.692-.122-.907-1.094.5-.7,1.73-1.44,2.516-.122.627-.936.327-1.309.646a.909.909,0,0,0-1.282-.169c-.561,0-.664-1.169-1.263-.561-.177.2-.084.626-.533.439-.084-.159-.262-.178-.4-.291,0-.355.618-.318.4-.729-.44-.767-1.375-.646-1.917-1.226h-.561a16.25,16.25,0,0,1,10.25-4.807,15.1,15.1,0,0,0,.365,5.219c-.618-.749-1.431.187-2.189-.131m1.889-7.753c-1.253-.281-2.432.271-3.629.384a22.079,22.079,0,0,0-7.286,3.8,4.744,4.744,0,0,1-.384.524c-1.655-1.45-3.273-3.489-5.106-4.751a28,28,0,0,1,15.993-6.8l.412-.252a33.276,33.276,0,0,0,0,7.1m-25.973-16.994a46.874,46.874,0,0,1,25.814-9.138l-.206.683.066,5.761.233.552a38.128,38.128,0,0,0-24.514,10.335l-.121.308a41.214,41.214,0,0,0-5.294-5.088h-.215c1.477-.87,2.768-2.4,4.237-3.414m-17.836,31.089a47.134,47.134,0,0,1,12.281-26.2l.159.645c1.646,1.609,3.264,3.321,4.817,4.789-1.338.889-2.123,2.432-3.19,3.657a39.006,39.006,0,0,0-7.211,20.558l.168.926a48.964,48.964,0,0,0-7.417,0c.3-1.45.121-2.947.393-4.377m5.546,28.021a48.735,48.735,0,0,1-5.892-21.054l6.678.056.627-.243a8.418,8.418,0,0,0-.047,1.347l-.056-.075c-.178.14.159.215.1.365a40.184,40.184,0,0,0,1.16,7.3l.337.514a12.459,12.459,0,0,1-1.076-1.468,2.951,2.951,0,0,0-1.543.571c.243.692-.43.467-.748.654a1.5,1.5,0,0,0-.486-.449c-.515.038-1.02.075-1.263.571.084.364-.318.542-.468.823-.14,1.076-.5,2.5.3,3.386a2.758,2.758,0,0,0,.992,2.011c.224.046.346-.141.5-.216.664.486,1,1.656,1.955,1.431.3-.14.206-.43.3-.637.486.5.739,1.525,1.665,1.44.252.234.355.683.748.692,1.01-.261.645,1.141,1.384,1.552.58.365.9,1.225,1.731.814l.29-.365c.271.2.047.674.29.945a3.277,3.277,0,0,0,2.011,1.534,16.779,16.779,0,0,0,2.226,2.3l-.562.253-4.788,4.919c-2.17-2.937-4.667-5.79-6.36-8.969m33.773,22.746a48.651,48.651,0,0,1-25.552-11.971l4.929-4.957.075-.3c6.847,6.613,15.124,9.9,24.467,10.559l.748-.187-.243.365v6.49l.365.571a41.877,41.877,0,0,0-4.789-.571m5.809-27.179a2.206,2.206,0,0,1-1.385-.16c-.233-.028-.14-.262-.233-.411.7.028,1.038-.823,1.777-.692.458-.393.524-1.029,1.122-1.263-.187-.608.58-.206.739-.571.216-.178.505-.4.8-.234.477.711,1.477.411,1.945,1.207.252.084.328-.168.3-.337v-.29c.767-.075,1.161,1.038,1.984.29a.578.578,0,0,0,0-.7c-.094-.047-.225-.1-.244-.224.543-.243.889.851,1.544.467.57-.467.935-1.038,1.692-1.038l.159.216c.122,1.449-1.1,2.31-2.188,2.946-.7.3-1.955.2-1.909,1.329-.776.729-1.534-.43-2.544-.131-.44-.225-.009-.9-.627-1.02-1,.43-2.208-.524-2.927.618m1.758,12.168c.879.365,2.367-.365,2.843.626-.252.542-.692,1.066-.514,1.721.346.889.879,2.058,2.011,2.133a1.95,1.95,0,0,0,1.048.627c-1.9.308-3.994.225-5.752.814a48.23,48.23,0,0,0,0-5.92l-.356-.543c.337.057.5.347.72.543m.1,15.338-.467.3a56.293,56.293,0,0,0,0-7.529c1.2.412,2.478-.056,3.732-.056l3.675-.645c1.814.355,3.124,3.32,5.144,1.515.683-.833,1.917-.767,2.337-1.918,1.188-.43,1.459-1.636,2.311-2.4.776-2.254,3.348-2.581,4.873-4.152,1.151-1,2.628-1.833,3.292-3.161l.122.571,5.07,4.816a46.6,46.6,0,0,1-30.089,12.664m44.033-43.959a46.285,46.285,0,0,1-11.981,29.294l-.2.355a49.812,49.812,0,0,0-5.35-5.247,16.28,16.28,0,0,0,2.843-3.086,39.016,39.016,0,0,0,7.6-21.316l-.243-.636.411.281,6.828-.028.355-.177Z" transform="translate(-15.073)" fill="#1caed0"/>
    <path id="Trazado_101160" data-name="Trazado 101160" d="M210.3,2039.514a.994.994,0,0,0,.169.711c1.02.355,1.122,1.823,2.4,1.487.412-.44-.243-.9-.1-1.449a1.471,1.471,0,0,0-1.094-.851C211.18,2039.879,210.769,2038.971,210.3,2039.514Z" transform="translate(-43.59 -4.975)" fill="#1caed0"/>
    <path id="Trazado_101161" data-name="Trazado 101161" d="M183.221,2033.02c1.244,1.618,3.48.72,5.051.411a3.081,3.081,0,0,0,3.134-.823v-.168c-.823-1.141-2.357-1.319-3.75-1.441l-3.451,1.487c-.3-.113-.861-.262-1.039.121C183.006,2032.73,183.165,2032.9,183.221,2033.02Z" transform="translate(-35.674 -2.549)" fill="#1caed0"/>
    <g id="Grupo_56107-2" data-name="Grupo 56107" transform="translate(60.518 2149.636)">
      <path id="Trazado_101162" data-name="Trazado 101162" d="M63.1,2206.187v6.79a.6.6,0,0,0,.1.384.747.747,0,0,0,.384.215v.262H60.518v-.262a.788.788,0,0,0,.379-.21.621.621,0,0,0,.108-.389v-9.456a.575.575,0,0,0-.108-.374.756.756,0,0,0-.379-.215v-.262h3.554v.262a.381.381,0,0,0-.328.374.677.677,0,0,0,.216.435l5.8,6.407v-6.627a.576.576,0,0,0-.108-.374.756.756,0,0,0-.379-.215v-.262H72.34v.262a.752.752,0,0,0-.384.215.576.576,0,0,0-.1.374v9.456a.621.621,0,0,0,.1.389.784.784,0,0,0,.384.21v.262h-3.3v-.262a.344.344,0,0,0,.318-.35c0-.108-.126-.3-.374-.576Z" transform="translate(-60.518 -2202.147)" fill="#1d1d1b"/>
      <path id="Trazado_101163" data-name="Trazado 101163" d="M87.99,2210.994H83.211l-.7,1.567a1.368,1.368,0,0,0-.145.514c0,.243.168.407.509.5v.262h-3.47v-.262a.9.9,0,0,0,.473-.228,2.46,2.46,0,0,0,.374-.636l3.853-8.586a1.665,1.665,0,0,0,.187-.65.569.569,0,0,0-.449-.542v-.262h3.722v.262c-.3.094-.449.252-.449.481a1.252,1.252,0,0,0,.145.542l4,8.6a2.958,2.958,0,0,0,.445.749.927.927,0,0,0,.51.266v.262H88.36v-.262q.505-.09.506-.5a1.376,1.376,0,0,0-.155-.51Zm-.659-1.533-1.693-3.975-1.73,3.975Z" transform="translate(-66.016 -2202.147)" fill="#1d1d1b"/>
      <path id="Trazado_101164" data-name="Trazado 101164" d="M108.245,2209.922l1.459,2.352-.2.146a.6.6,0,0,0-.351-.21,2.636,2.636,0,0,0-.781.392,10.772,10.772,0,0,1-2.225,1.085,7.316,7.316,0,0,1-2.151.28,6.38,6.38,0,0,1-4.074-1.253,5.147,5.147,0,0,1-1.477-1.806,5.96,5.96,0,0,1-.622-2.726,5.746,5.746,0,0,1,1.114-3.526,5.908,5.908,0,0,1,5.069-2.249,7.2,7.2,0,0,1,2.137.28,10.653,10.653,0,0,1,2.23,1.1,2.7,2.7,0,0,0,.781.388.589.589,0,0,0,.351-.215l.2.15-1.459,2.333-.211-.15a2.085,2.085,0,0,0,.014-.22.64.64,0,0,0-.192-.444,3.3,3.3,0,0,0-.683-.5,5.5,5.5,0,0,0-2.881-.814,4.164,4.164,0,0,0-2.871.954,4.014,4.014,0,0,0,0,5.836,4.163,4.163,0,0,0,2.871.954,5.463,5.463,0,0,0,2.881-.819,3.135,3.135,0,0,0,.683-.5.625.625,0,0,0,.192-.444,2.019,2.019,0,0,0-.014-.216Z" transform="translate(-71.375 -2202.07)" fill="#1d1d1b"/>
      <path id="Trazado_101165" data-name="Trazado 101165" d="M117.876,2212.977v-9.456a.576.576,0,0,0-.1-.374.775.775,0,0,0-.384-.215v-.262h3.274v.262a.664.664,0,0,0-.379.21.6.6,0,0,0-.108.379v9.456a.591.591,0,0,0,.113.389.7.7,0,0,0,.374.21v.262H117.39v-.262a.809.809,0,0,0,.384-.21A.621.621,0,0,0,117.876,2212.977Z" transform="translate(-77.069 -2202.147)" fill="#1d1d1b"/>
      <path id="Trazado_101166" data-name="Trazado 101166" d="M130.88,2202.407a5.951,5.951,0,0,1,4.358,1.58,5.679,5.679,0,0,1,1.7,4.269,5.775,5.775,0,0,1-.818,2.993,5.585,5.585,0,0,1-5.229,2.717,5.9,5.9,0,0,1-4.335-1.58,5.477,5.477,0,0,1-1.309-2.021,6.115,6.115,0,0,1-.393-2.184,5.961,5.961,0,0,1,.814-3.068A5.63,5.63,0,0,1,130.88,2202.407Zm.009,1.908a3.511,3.511,0,0,0-2.507.945,4.2,4.2,0,0,0,0,5.855,3.824,3.824,0,0,0,5.032,0,3.648,3.648,0,0,0,.907-1.38,4.127,4.127,0,0,0,.28-1.5,3.835,3.835,0,0,0-1.188-2.974A3.652,3.652,0,0,0,130.89,2204.315Z" transform="translate(-79.243 -2202.07)" fill="#1d1d1b"/>
      <path id="Trazado_101167" data-name="Trazado 101167" d="M153.264,2212.65c.247.276.374.468.374.576a.347.347,0,0,1-.318.35v.262h3.292v-.262a.788.788,0,0,1-.379-.21.621.621,0,0,1-.107-.389v-9.456a.576.576,0,0,1,.107-.374.755.755,0,0,1,.379-.215v-.262h-3.068v.262a.752.752,0,0,1,.384.215.576.576,0,0,1,.1.374v6.627l-5.8-6.407a.692.692,0,0,1-.211-.435.377.377,0,0,1,.328-.374v-.262H144.79v.262a.752.752,0,0,1,.384.215.576.576,0,0,1,.1.374v9.456a.621.621,0,0,1-.1.389.784.784,0,0,1-.384.21v.262h3.068v-.262a.75.75,0,0,1-.379-.215.6.6,0,0,1-.107-.384v-6.79Z" transform="translate(-85.044 -2202.147)" fill="#1d1d1b"/>
      <path id="Trazado_101168" data-name="Trazado 101168" d="M171.756,2208.722a.474.474,0,0,1,.35.117.914.914,0,0,1,.206.407h.243v-2.824h-.243a.91.91,0,0,1-.206.411.492.492,0,0,1-.35.113H167.5v-2.656h6.552a.475.475,0,0,1,.351.117.9.9,0,0,1,.206.407h.243v-2.881h-.243a.912.912,0,0,1-.206.406.475.475,0,0,1-.351.117h-9.339v.262a.759.759,0,0,1,.379.215.6.6,0,0,1,.107.384v9.446a.62.62,0,0,1-.107.389.791.791,0,0,1-.379.21v.262h9.536a.513.513,0,0,1,.351.112.913.913,0,0,1,.2.412h.244v-2.881H174.8a.9.9,0,0,1-.2.411.505.505,0,0,1-.351.112H167.5v-3.068Z" transform="translate(-90.843 -2201.932)" fill="#1d1d1b"/>
      <path id="Trazado_101169" data-name="Trazado 101169" d="M191.76,2203.558l-1.249,2.632-.224-.131c0-.056.009-.1.009-.131,0-.188-.145-.389-.44-.6a5.269,5.269,0,0,0-3.217-1.015,4.471,4.471,0,0,0-1.441.211,1.728,1.728,0,0,0-.73.49,1.062,1.062,0,0,0-.281.711.87.87,0,0,0,.711.856,11.436,11.436,0,0,0,1.585.243l1.211.131a9.347,9.347,0,0,1,1.74.332,3.984,3.984,0,0,1,1.178.6,2.728,2.728,0,0,1,.828,1.052,3.415,3.415,0,0,1-.407,3.492,3.841,3.841,0,0,1-2.016,1.23,7.575,7.575,0,0,1-2.174.3,8.731,8.731,0,0,1-4.116-1.071,2.027,2.027,0,0,0-.519-.211.637.637,0,0,0-.309.178l-.219-.121,1.136-2.745.219.117v.1a.949.949,0,0,0,.328.683,4.1,4.1,0,0,0,1.548.813,6.239,6.239,0,0,0,1.988.346,3.828,3.828,0,0,0,1.744-.364,1.727,1.727,0,0,0,.637-.538,1.2,1.2,0,0,0,.238-.7.8.8,0,0,0-.557-.786,6.939,6.939,0,0,0-1.585-.3l-1.183-.131a15.742,15.742,0,0,1-1.684-.253,4.258,4.258,0,0,1-.982-.379,2.66,2.66,0,0,1-1.094-1.108,3.113,3.113,0,0,1-.361-1.524,3.211,3.211,0,0,1,.907-2.348,4.825,4.825,0,0,1,3.592-1.22,7.693,7.693,0,0,1,1.875.22,13,13,0,0,1,2.174.8,2.246,2.246,0,0,0,.547.191.659.659,0,0,0,.379-.191Z" transform="translate(-95.781 -2202.07)" fill="#1d1d1b"/>
      <path id="Trazado_101170" data-name="Trazado 101170" d="M215.425,2203.531v6.262a4.7,4.7,0,0,1-.613,2.661q-1.116,1.592-4.583,1.589a7.079,7.079,0,0,1-3.838-.861,2.555,2.555,0,0,1-1.071-1.355,6.269,6.269,0,0,1-.295-2.035v-6.262a.59.59,0,0,0-.108-.384.756.756,0,0,0-.379-.215v-.262h3.273v.262a.664.664,0,0,0-.379.21.6.6,0,0,0-.107.389v5.57a7.518,7.518,0,0,0,.1,1.427,1.7,1.7,0,0,0,.374.776,4.239,4.239,0,0,0,5.046,0,1.69,1.69,0,0,0,.369-.776,7.519,7.519,0,0,0,.1-1.427v-5.57a.6.6,0,0,0-.107-.384.756.756,0,0,0-.379-.215v-.262h3.086v.262a.775.775,0,0,0-.384.215A.6.6,0,0,0,215.425,2203.531Z" transform="translate(-102.432 -2202.147)" fill="#1d1d1b"/>
      <path id="Trazado_101171" data-name="Trazado 101171" d="M226.1,2206.187v6.79a.591.591,0,0,0,.1.384.763.763,0,0,0,.384.215v.262h-3.068v-.262a.781.781,0,0,0,.379-.21.616.616,0,0,0,.108-.389v-9.456a.571.571,0,0,0-.108-.374.749.749,0,0,0-.379-.215v-.262h3.554v.262a.376.376,0,0,0-.322.374.69.69,0,0,0,.21.435l5.8,6.407v-6.627a.575.575,0,0,0-.107-.374.762.762,0,0,0-.379-.215v-.262h3.068v.262a.775.775,0,0,0-.384.215.58.58,0,0,0-.1.374v9.456a.626.626,0,0,0,.1.389.809.809,0,0,0,.384.21v.262h-3.3v-.262a.344.344,0,0,0,.318-.35c0-.108-.122-.3-.374-.576Z" transform="translate(-107.955 -2202.147)" fill="#1d1d1b"/>
      <path id="Trazado_101172" data-name="Trazado 101172" d="M243.922,2212.977v-9.456a.58.58,0,0,0-.1-.374.755.755,0,0,0-.384-.215v-.262h3.273v.262a.7.7,0,0,0-.379.21.6.6,0,0,0-.107.379v9.456a.591.591,0,0,0,.112.389.7.7,0,0,0,.374.21v.262h-3.273v-.262a.788.788,0,0,0,.384-.21A.626.626,0,0,0,243.922,2212.977Z" transform="translate(-113.753 -2202.147)" fill="#1d1d1b"/>
      <path id="Trazado_101173" data-name="Trazado 101173" d="M251.758,2212.977v-9.446a.6.6,0,0,0-.1-.384.755.755,0,0,0-.384-.215v-.262h5.855a7.362,7.362,0,0,1,2.956.468,4.335,4.335,0,0,1,2.189,2.24,6.861,6.861,0,0,1,.561,2.872,5.627,5.627,0,0,1-1.67,4.4,4.1,4.1,0,0,1-1.641.912,8.708,8.708,0,0,1-2.394.276h-5.855v-.262a.788.788,0,0,0,.384-.21A.621.621,0,0,0,251.758,2212.977Zm2.3-.973h2.885a4.261,4.261,0,0,0,2.072-.4q1.48-.864,1.477-3.353a4.216,4.216,0,0,0-.8-2.764,2.434,2.434,0,0,0-1.076-.757,5.088,5.088,0,0,0-1.674-.225h-2.885Z" transform="translate(-116.033 -2202.147)" fill="#1d1d1b"/>
      <path id="Trazado_101174" data-name="Trazado 101174" d="M276.765,2210.994h-4.784l-.692,1.567a1.41,1.41,0,0,0-.15.514c0,.243.173.407.515.5v.262h-3.47v-.262a.923.923,0,0,0,.473-.228,2.359,2.359,0,0,0,.369-.636l3.857-8.586a1.665,1.665,0,0,0,.187-.65.569.569,0,0,0-.449-.542v-.262h3.722v.262c-.3.094-.449.252-.449.481a1.252,1.252,0,0,0,.145.542l4,8.6a2.818,2.818,0,0,0,.445.749.929.929,0,0,0,.51.266v.262h-3.863v-.262q.506-.09.505-.5a1.375,1.375,0,0,0-.155-.51Zm-.659-1.533-1.693-3.975-1.73,3.975Z" transform="translate(-120.955 -2202.147)" fill="#1d1d1b"/>
      <path id="Trazado_101175" data-name="Trazado 101175" d="M297.688,2203.558l-1.248,2.632-.225-.131a.746.746,0,0,0,.009-.131c0-.188-.145-.389-.44-.6a5.268,5.268,0,0,0-3.217-1.015,4.474,4.474,0,0,0-1.441.211,1.726,1.726,0,0,0-.729.49,1.062,1.062,0,0,0-.281.711.874.874,0,0,0,.71.856,11.451,11.451,0,0,0,1.586.243l1.211.131a9.359,9.359,0,0,1,1.74.332,4.061,4.061,0,0,1,1.183.6,2.767,2.767,0,0,1,.824,1.052,3.411,3.411,0,0,1-.407,3.492,3.821,3.821,0,0,1-2.016,1.23,7.525,7.525,0,0,1-2.174.3,8.743,8.743,0,0,1-4.115-1.071,2.117,2.117,0,0,0-.515-.211.647.647,0,0,0-.313.178l-.22-.121,1.137-2.745.22.117v.1a.947.947,0,0,0,.328.683,4.1,4.1,0,0,0,1.548.813,6.238,6.238,0,0,0,1.987.346,3.831,3.831,0,0,0,1.745-.364,1.719,1.719,0,0,0,.636-.538,1.2,1.2,0,0,0,.238-.7.8.8,0,0,0-.557-.786,6.922,6.922,0,0,0-1.585-.3l-1.183-.131a15.391,15.391,0,0,1-1.679-.253,4.2,4.2,0,0,1-.987-.379,2.662,2.662,0,0,1-1.095-1.108,3.168,3.168,0,0,1-.36-1.524,3.211,3.211,0,0,1,.907-2.348,4.824,4.824,0,0,1,3.592-1.22,7.768,7.768,0,0,1,1.88.22,13.132,13.132,0,0,1,2.169.8,2.246,2.246,0,0,0,.547.191.642.642,0,0,0,.379-.191Z" transform="translate(-126.609 -2202.07)" fill="#1d1d1b"/>
    </g>
  </g>
</svg>
