<svg xmlns="http://www.w3.org/2000/svg" width="126" height="126" viewBox="0 0 126 126">
  <g id="Grupo_57248" data-name="Grupo 57248" transform="translate(-800.25 -24313.465)">
    <g id="Elipse_4092" data-name="Elipse 4092" transform="translate(800.25 24313.465)" fill="#fff" stroke="#09b291" stroke-width="5">
      <circle cx="63" cy="63" r="63" stroke="none"/>
      <circle cx="63" cy="63" r="60.5" fill="none"/>
    </g>
    <g id="Grupo_56746" data-name="Grupo 56746" transform="translate(-999.785 24043.436)">
      <g id="Grupo_56745" data-name="Grupo 56745">
        <path id="Trazado_101982" data-name="Trazado 101982" d="M1889.885,334.111v-2.473a2.249,2.249,0,0,0,2.246-2.247v-2.246a2.249,2.249,0,0,0-2.246-2.247h-4.375a21.379,21.379,0,0,0-2.144-3.125l7.916-7.914a6.707,6.707,0,0,0,1.973-4.766v-1.7l3.834-3.835-6.081-6.082-3.835,3.835h-1.7a6.692,6.692,0,0,0-4.766,1.975l-10.867,10.868-5.506-.87a4.328,4.328,0,0,1,.675-8.6h.166a2.247,2.247,0,0,1,0,4.493v2.247a4.493,4.493,0,1,0,0-8.986h-.166a6.541,6.541,0,0,0-4.488,1.783,7.876,7.876,0,0,0-7.7-6.276h-3.369a17.993,17.993,0,0,0-17.973,17.972,17.8,17.8,0,0,0,6.2,13.549l-1.61,1.61a20.124,20.124,0,0,1-6.841-15.159v-4.493h-2.247v4.493a22.356,22.356,0,0,0,7.5,16.752l-6.7,6.7a2.712,2.712,0,0,0,1.918,4.63h2.439l6.286,6.286a23.693,23.693,0,0,0-2.518,1.2l-4.972,2.762,1.092,1.964,4.971-2.762a21.914,21.914,0,0,1,20.112-.437l3.123,1.562a16.944,16.944,0,0,0,7.536,1.778h1.9V354.1h-1.9a14.693,14.693,0,0,1-6.531-1.541L1858.108,351a23.635,23.635,0,0,0-3.641-1.451l1.719-1.72a3.833,3.833,0,0,0,0-5.423l-4.028-4.028h5.366a13.486,13.486,0,0,1,8.773,3.246l.35.3a13.276,13.276,0,0,0,7.512,3.144V358.6h2.246V342.964a6.92,6.92,0,0,1,5.713-6.833h6.547a6.92,6.92,0,0,1,5.713,6.833v12.47a3.153,3.153,0,0,0-2.247,0v-14.81h-13.479V358.6h2.246V356.35h8.987V358.6a3.37,3.37,0,1,0,6.739,0V342.964a9.154,9.154,0,0,0-6.739-8.853Zm-2.247-.214-4.493-.01v-2.249h4.493Zm2.248-4.506H1880.9v-2.246h8.986ZM1872.462,314.7l6.19-6.191,7.4,7.4-4.205,4.2A21.585,21.585,0,0,0,1872.462,314.7Zm21.451-11.149-1.782,1.781-2.9-2.9,1.781-1.782Zm-6.74,0,3.835,3.835v1.7a4.5,4.5,0,0,1-.293,1.568l-6.811-6.812a4.5,4.5,0,0,1,1.567-.293Zm-5.15,1.588,7.4,7.4-1.782,1.782-7.4-7.4Zm-52.795,36.139a.472.472,0,0,1,.135-.33l12.549-12.548a.465.465,0,0,1,.8.328v2.44l-10.575,10.575h-2.439A.465.465,0,0,1,1829.228,341.283Zm12.315,2.149a2.835,2.835,0,0,1,4.608-2.224l-3.982,3.982a2.808,2.808,0,0,1-.626-1.758Zm2.191,3.37,4.028-4.028,1.781,1.782-4.021,4.021h-.013Zm5.016,1.723,2.382-2.381,1.781,1.782-.993.993A23.979,23.979,0,0,0,1848.75,348.525Zm6.313-3.408a1.58,1.58,0,0,1-.465,1.124l-.1.1-6.507-6.507a5.095,5.095,0,0,0-7.205,7.205l1.937,1.936c-.657.134-1.308.3-1.951.489l-6.589-6.589,9.644-9.645,10.767,10.768A1.577,1.577,0,0,1,1855.063,345.117Zm19.1-2.308a11.027,11.027,0,0,1-6.057-2.591l-.351-.3a15.738,15.738,0,0,0-10.234-3.786h-7.612l-2.357-2.357a18.021,18.021,0,0,0,1.892.111h8.986a15.818,15.818,0,0,1,9.435,3.145l1.348-1.8a18.087,18.087,0,0,0-9.879-3.558,3.311,3.311,0,0,0,.219-1.16,3.37,3.37,0,1,0-6.74,0,3.329,3.329,0,0,0,.207,1.123h-3.576a15.7,15.7,0,0,1-4.494-.664v-2.241a2.712,2.712,0,0,0-4.629-1.917l-1.053,1.053a15.58,15.58,0,0,1-5.55-11.957,15.743,15.743,0,0,1,15.726-15.726h3.369a5.624,5.624,0,0,1,5.617,5.617v.2a5.415,5.415,0,0,1-5.414,5.415h-.372a3.2,3.2,0,0,1-3.2-3.2v-.265a1.016,1.016,0,0,1,.3-.725,1.082,1.082,0,0,1,.82-.3h0a1.124,1.124,0,0,1,1.123,1.123v1.123h2.247v-1.123a3.389,3.389,0,0,0-3.37-3.361v-.009c-.021,0-.042,0-.063,0s-.021,0-.034,0h0c-.036,0-.071.009-.108.01a7.859,7.859,0,0,0,.208,15.716h6.288a15.682,15.682,0,0,1,15.094,11.528l2.167-.589a17.771,17.771,0,0,0-3.428-6.621,3.362,3.362,0,1,0-4.332-3.815,17.85,17.85,0,0,0-9.5-2.749h-6.288a5.6,5.6,0,0,1-3.37-10.081v.137a5.448,5.448,0,0,0,5.446,5.45h.372a7.611,7.611,0,0,0,5.417-2.244c.119-.119.227-.246.336-.371a6.521,6.521,0,0,0,5.21,4.451l5.813.918a19.307,19.307,0,0,1,13.089,8.479H1880.9a2.25,2.25,0,0,0-2.247,2.247v2.246a2.25,2.25,0,0,0,2.247,2.247v2.473a9.149,9.149,0,0,0-6.733,8.7Zm-19.1-12.294a1.124,1.124,0,1,1,1.123,1.123A1.125,1.125,0,0,1,1855.063,330.515Zm13.479-8.987a1.123,1.123,0,1,1,1.124,1.124A1.125,1.125,0,0,1,1868.542,321.528Zm21.343,28.083H1880.9v-2.247h8.986Zm0-6.74v2.246H1880.9v-2.246ZM1880.9,354.1v-2.247h8.986V354.1Zm12.356,5.616a1.124,1.124,0,1,1,1.123-1.123A1.125,1.125,0,0,1,1893.255,359.72Z" fill="#065949"/>
        <path id="Trazado_101983" data-name="Trazado 101983" d="M1840.46,312.542v-1.123h-2.246v1.123A12.37,12.37,0,0,0,1850.57,324.9h2.246v-2.246h-2.246A10.122,10.122,0,0,1,1840.46,312.542Z" fill="#065949"/>
        <path id="Trazado_101984" data-name="Trazado 101984" d="M1883.952,361.68a16.686,16.686,0,0,1-20.665.143l-.85-.661a17.586,17.586,0,0,0-10.749-3.689,17.411,17.411,0,0,0-6.9,1.417l-4.771,2.044L1840.9,363l4.772-2.044a15.5,15.5,0,0,1,15.383,1.981l.849.661a18.934,18.934,0,0,0,23.448-.162l.739-.591-1.4-1.754Z" fill="#065949"/>
        <path id="Trazado_101985" data-name="Trazado 101985" d="M1862.926,348.487a3.37,3.37,0,1,0,3.37-3.37A3.374,3.374,0,0,0,1862.926,348.487Zm4.493,0a1.123,1.123,0,1,1-1.123-1.123A1.125,1.125,0,0,1,1867.419,348.487Z" fill="#065949"/>
        <path id="Trazado_101986" data-name="Trazado 101986" d="M1834.844,360.843a3.37,3.37,0,1,0,3.37,3.37A3.374,3.374,0,0,0,1834.844,360.843Zm0,4.493a1.123,1.123,0,1,1,1.123-1.123A1.124,1.124,0,0,1,1834.844,365.336Z" fill="#065949"/>
      </g>
    </g>
  </g>
</svg>
