<svg xmlns="http://www.w3.org/2000/svg" width="126" height="126" viewBox="0 0 126 126">
  <g id="Grupo_57249" data-name="Grupo 57249" transform="translate(-232 -25721.309)">
    <g id="Elipse_4107" data-name="Elipse 4107" transform="translate(232 25721.309)" fill="#fff" stroke="#09b291" stroke-width="5">
      <circle cx="63" cy="63" r="63" stroke="none"/>
      <circle cx="63" cy="63" r="60.5" fill="none"/>
    </g>
    <g id="Grupo_56780" data-name="Grupo 56780" transform="translate(-1251.646 25527.961)">
      <path id="Trazado_101995" data-name="Trazado 101995" d="M1543.718,260.694c-10.72-.349-13.291-9.527-13.841-12.491a4.64,4.64,0,0,1-2.606-1.655,5.236,5.236,0,0,1-.976-3.566,4.916,4.916,0,0,1,1.16-3.823,3.59,3.59,0,0,1,.867-.654,18.894,18.894,0,0,1-2.818-10.737c1.242-8.867,8.386-9.729,10.625-9.779a10.471,10.471,0,0,1,3.766-2.779,13.272,13.272,0,0,1,8.532-.474c5.542,1.446,9.236,4.22,10.99,8.245,2.5,5.722.306,12.308-.951,15.265a3.634,3.634,0,0,1,1.3.745,4.773,4.773,0,0,1,1.327,3.995,5.235,5.235,0,0,1-.975,3.566,4.654,4.654,0,0,1-2.607,1.655C1556.958,251.167,1554.393,260.345,1543.718,260.694Zm-13.41-20.288a1.611,1.611,0,0,0-1.148.409,2.828,2.828,0,0,0-.486,2.127,1.187,1.187,0,0,1-.009.237,2.939,2.939,0,0,0,.5,1.931,2.711,2.711,0,0,0,1.9.9,1.188,1.188,0,0,1,1.045,1.08c.04.441,1.093,10.883,11.611,11.228,10.46-.345,11.518-10.787,11.558-11.231a1.189,1.189,0,0,1,1.045-1.077,2.705,2.705,0,0,0,1.9-.9,2.937,2.937,0,0,0,.5-1.941,1.2,1.2,0,0,1-.009-.23,2.834,2.834,0,0,0-.536-2.183,1.8,1.8,0,0,0-1.29-.337,1.189,1.189,0,0,1-1.254-1.734c.044-.083,4.4-8.346,1.6-14.768-1.448-3.318-4.611-5.634-9.4-6.884a10.885,10.885,0,0,0-6.98.356,7.985,7.985,0,0,0-3.2,2.505,1.18,1.18,0,0,1-1.054.476c-.308-.024-7.586-.495-8.727,7.64h0s-.33,6.472,3.42,10.394a1.19,1.19,0,0,1,.226,1.307,1.127,1.127,0,0,1-1.126.7Z" transform="translate(2.899)" fill="#065949"/>
      <path id="Trazado_101996" data-name="Trazado 101996" d="M1556.029,238.624a1.191,1.191,0,0,1-1.189-1.14c-.013-.308-.382-7.488-5.742-8.178a18.093,18.093,0,0,1-13.8-4c-1.515,1.141-5.007,4.605-4.335,11.994a1.189,1.189,0,0,1-2.363.215c-.985-10.842,5.976-14.6,6.271-14.759a1.19,1.19,0,0,1,1.372.195,15.868,15.868,0,0,0,12.629,3.985,1.362,1.362,0,0,1,.33-.011c6.043.629,7.889,7.12,8.019,10.459a1.189,1.189,0,0,1-1.138,1.234Z" transform="translate(3.55 1.81)" fill="#065949"/>
      <path id="Trazado_101997" data-name="Trazado 101997" d="M1580.031,288.034h-66.77a1.189,1.189,0,0,1-1.188-1.189V273.6a15.816,15.816,0,0,1,15.807-15.785h2.283a1.189,1.189,0,0,1,0,2.378h-2.283a13.437,13.437,0,0,0-13.431,13.408v12.061h64.394V273.6a13.424,13.424,0,0,0-13.409-13.408h-2.446a1.189,1.189,0,1,1,0-2.378h2.446A15.806,15.806,0,0,1,1581.22,273.6v13.249A1.189,1.189,0,0,1,1580.031,288.034Z" transform="translate(0 9.414)" fill="#065949"/>
      <path id="Trazado_101998" data-name="Trazado 101998" d="M1543.98,288.742a1.19,1.19,0,0,1-1.189-1.189,1.242,1.242,0,0,1,.013-.176l4.81-31.833a1.19,1.19,0,0,1,1.354-1,1.075,1.075,0,0,1,.164.038l8.3,2.5a1.184,1.184,0,0,1,.722,1.664l-3.3,6.62,1.914,2.148a1.19,1.19,0,0,1,.119,1.415l-11.9,19.246A1.19,1.19,0,0,1,1543.98,288.742Zm5.78-31.487-3.737,24.737,8.383-13.549-1.858-2.087a1.187,1.187,0,0,1-.176-1.319l3.028-6.079Z" transform="translate(6.638 8.706)" fill="#065949"/>
      <path id="Trazado_101999" data-name="Trazado 101999" d="M1539.666,288.742a1.19,1.19,0,0,1-1.012-.564l-11.9-19.242a1.188,1.188,0,0,1,.119-1.416l1.913-2.148-3.3-6.62a1.189,1.189,0,0,1,.54-1.592,1.388,1.388,0,0,1,.182-.072l8.3-2.5a1.188,1.188,0,0,1,1.48.8,1.237,1.237,0,0,1,.036.163l4.812,31.834a1.188,1.188,0,0,1-1,1.349A1.316,1.316,0,0,1,1539.666,288.742Zm-10.426-20.3,8.383,13.549-3.738-24.733-5.639,1.7,3.028,6.078a1.187,1.187,0,0,1-.176,1.32Z" transform="translate(2.872 8.707)" fill="#065949"/>
      <path id="Trazado_102000" data-name="Trazado 102000" d="M1542.077,264.944a64.223,64.223,0,0,1-7.688-.466,1.189,1.189,0,0,1,.216-2.368l.066.009a59.946,59.946,0,0,0,14.627,0,1.189,1.189,0,0,1,.3,2.358A60.02,60.02,0,0,1,1542.077,264.944Z" transform="translate(4.589 10.343)" fill="#065949"/>
      <path id="Trazado_102001" data-name="Trazado 102001" d="M1548.271,258.156a1.192,1.192,0,0,1-.951-.482c-1.766-2.388-2.086-7.122-2.116-7.652a1.188,1.188,0,0,1,2.373-.139c.073,1.25.512,4.834,1.654,6.377a1.19,1.19,0,0,1-.951,1.895Z" transform="translate(7.16 7.46)" fill="#065949"/>
      <path id="Trazado_102002" data-name="Trazado 102002" d="M1533.376,258.156a1.188,1.188,0,0,1-1.182-1.194,1.173,1.173,0,0,1,.232-.7c1.143-1.546,1.581-5.128,1.654-6.377a1.191,1.191,0,0,1,2.377.139c-.03.53-.356,5.263-2.116,7.652A1.191,1.191,0,0,1,1533.376,258.156Z" transform="translate(4.348 7.459)" fill="#065949"/>
      <path id="Trazado_102003" data-name="Trazado 102003" d="M1561.06,271.359a1.19,1.19,0,0,1-1.189-1.154c-.221-7.739-3.164-10.175-3.193-10.2a1.2,1.2,0,0,1-.207-1.665,1.182,1.182,0,0,1,1.647-.227c.157.118,3.871,3,4.131,12.022a1.188,1.188,0,0,1-1.153,1.221Z" transform="translate(9.542 9.429)" fill="#065949"/>
      <path id="Trazado_102004" data-name="Trazado 102004" d="M1561.041,276.4a4.7,4.7,0,1,1,4.7-4.7h0A4.7,4.7,0,0,1,1561.041,276.4Zm0-7.019a2.322,2.322,0,1,0,2.319,2.323h0a2.324,2.324,0,0,0-2.319-2.322Z" transform="translate(9.567 11.402)" fill="#065949"/>
      <path id="Trazado_102005" data-name="Trazado 102005" d="M1520.279,271.348a1.188,1.188,0,0,1-1.188-1.1c-.648-9.122,4.379-12.037,4.593-12.157a1.189,1.189,0,0,1,1.167,2.071c-.18.107-3.922,2.416-3.391,9.919a1.189,1.189,0,0,1-1.1,1.27Z" transform="translate(1.504 9.441)" fill="#065949"/>
      <path id="Trazado_102006" data-name="Trazado 102006" d="M1518.53,278.953a1.192,1.192,0,0,1-.951-.468,7.45,7.45,0,0,1-1.259-2.554,7.146,7.146,0,0,1,4.67-8.9,6.661,6.661,0,0,1,5.111.632,7.627,7.627,0,0,1,3.708,7.858,1.188,1.188,0,0,1-2.345-.389,5.254,5.254,0,0,0-2.527-5.4,4.3,4.3,0,0,0-3.3-.42,4.77,4.77,0,0,0-3.028,5.984,5.05,5.05,0,0,0,.862,1.748,1.189,1.189,0,0,1-.945,1.908Z" transform="translate(0.85 11.352)" fill="#065949"/>
      <path id="Trazado_102007" data-name="Trazado 102007" d="M1526.854,275.235a.921.921,0,0,1-.141-.007l-1.34-.158a1.189,1.189,0,0,1,.281-2.362l1.34.159a1.189,1.189,0,0,1-.14,2.369Z" transform="translate(2.648 12.632)" fill="#065949"/>
      <path id="Trazado_102008" data-name="Trazado 102008" d="M1518.292,277.315a1.189,1.189,0,0,1-.414-2.3l1.427-.525a1.189,1.189,0,0,1,.832,2.228l-1.427.528A1.2,1.2,0,0,1,1518.292,277.315Z" transform="translate(1.087 13.002)" fill="#065949"/>
    </g>
  </g>
</svg>
