<svg xmlns="http://www.w3.org/2000/svg" xmlns:xlink="http://www.w3.org/1999/xlink" width="59.715" height="59.715" viewBox="0 0 59.715 59.715">
  <defs>
    <linearGradient id="linear-gradient" x1="0.5" y1="1" x2="0.5" gradientUnits="objectBoundingBox">
      <stop offset="0" stop-color="#e6e6e6"/>
      <stop offset="0.42" stop-color="#fff"/>
    </linearGradient>
    <clipPath id="clip-path">
      <path id="Trazado_101360" data-name="Trazado 101360" d="M524.535,4826.115H584.25l-29.858,29.857Z" fill="none"/>
    </clipPath>
  </defs>
  <g id="Grupo_56257" data-name="Grupo 56257" transform="translate(-524.535 -4796.257)">
    <rect id="Rect치ngulo_5472" data-name="Rect치ngulo 5472" width="42.225" height="42.225" transform="translate(524.535 4826.115) rotate(-45)" fill="#d61b22"/>
    <path id="Trazado_101356" data-name="Trazado 101356" d="M554.392,4850.708a3.694,3.694,0,0,1-2.62-1.084l-20.889-20.889a3.71,3.71,0,0,1,0-5.241l20.889-20.888a3.709,3.709,0,0,1,5.241,0l20.888,20.888a3.71,3.71,0,0,1,0,5.241l-20.888,20.889A3.7,3.7,0,0,1,554.392,4850.708Zm0-48.187a2.7,2.7,0,0,0-1.913.792L531.59,4824.2a2.709,2.709,0,0,0,0,3.827l20.889,20.889a2.711,2.711,0,0,0,3.827,0l20.888-20.889a2.709,2.709,0,0,0,0-3.827l-20.888-20.888A2.7,2.7,0,0,0,554.392,4802.521Z" fill="url(#linear-gradient)"/>
    <g id="Grupo_56254" data-name="Grupo 56254">
      <path id="Trazado_101357" data-name="Trazado 101357" d="M557.672,4823.294a2.824,2.824,0,0,0,1.473-3.474,5.107,5.107,0,0,1-.324-2.05s-.654-.237-1.218.94a.949.949,0,0,1-1.089.4,2.428,2.428,0,0,0,.308-2.529,5.992,5.992,0,0,1-.227-1.663s-.44-.03-.462,1.429-.777,1.6-.777,1.6.667-2.595-1.077-3.548a6.905,6.905,0,0,1-.278,2.522,5.539,5.539,0,0,0,.241,3.144s-.967-.037-1.781-1.854a3.029,3.029,0,0,0-1.2-1.609s.7,2.869-.692,2.825a1.807,1.807,0,0,1-.77-.579,2.9,2.9,0,0,0,.429,3.657l1.132.792a3.437,3.437,0,0,1-2.869-1.034,3.714,3.714,0,0,1-1.264-3.353,9.8,9.8,0,0,1,.846-3.32,2.59,2.59,0,0,0-.011-1.517s.858-.121,1.946,1.166c0,0,.1-.264-.363-1.122a2.375,2.375,0,0,1,.583-2.473s1.077-1.3.505-2.078c0,0,1.023.506.869,2.3,0,0-.275,2.528,1.187,3.5,0,0-1.286-2.947-.4-4.9a8.243,8.243,0,0,1,2.012-3.089,2.619,2.619,0,0,0,.748-1.869s.9.759.121,3.013a3.8,3.8,0,0,0,.286,3.572,3.224,3.224,0,0,1,1.649-3.715s-.847,1.517.143,2.473a2.778,2.778,0,0,1,.362,3.815s.3.132,1.462-1.143a2.871,2.871,0,0,1,1.4-.77s-.979.572-.231,2.177,1.924,3.623.67,6.561A3.482,3.482,0,0,1,557.672,4823.294Z" fill="#fff"/>
      <rect id="Rect치ngulo_5473" data-name="Rect치ngulo 5473" width="12.972" height="1.275" transform="translate(547.998 4823.91)" fill="#fff"/>
    </g>
    <path id="Trazado_101358" data-name="Trazado 101358" d="M524.535,4826.115H584.25l-29.858,29.857Z" fill="#ff0"/>
    <g id="Grupo_56256" data-name="Grupo 56256">
      <g id="Grupo_56255" data-name="Grupo 56255" clip-path="url(#clip-path)">
        <path id="Trazado_101359" data-name="Trazado 101359" d="M554.392,4850.708a3.694,3.694,0,0,1-2.62-1.084l-20.889-20.889a3.71,3.71,0,0,1,0-5.241l20.889-20.888a3.709,3.709,0,0,1,5.241,0l20.888,20.888a3.71,3.71,0,0,1,0,5.241l-20.888,20.889A3.7,3.7,0,0,1,554.392,4850.708Zm0-48.187a2.7,2.7,0,0,0-1.913.792L531.59,4824.2a2.709,2.709,0,0,0,0,3.827l20.889,20.889a2.711,2.711,0,0,0,3.827,0l20.888-20.889a2.709,2.709,0,0,0,0-3.827l-20.888-20.888A2.7,2.7,0,0,0,554.392,4802.521Z"/>
      </g>
    </g>
    <text id="_5.2" data-name="5.2" transform="translate(554.392 4843.04)" font-size="9.012" font-family="Roboto-Regular, Roboto" style="isolation: isolate"><tspan x="-6.246" y="0">5.2</tspan></text>
  </g>
</svg>
