<svg xmlns="http://www.w3.org/2000/svg" width="57.576" height="49.512" viewBox="0 0 57.576 49.512">
  <g id="Grupo_56710" data-name="Grupo 56710" transform="translate(-1655.704 -392.916)">
    <g id="Grupo_56705" data-name="Grupo 56705" transform="translate(1655.704 392.916)">
      <g id="Grupo_56704" data-name="Grupo 56704">
        <path id="Trazado_101936" data-name="Trazado 101936" d="M1712.538,434.583l-23.616-39.166a5.173,5.173,0,0,0-8.859,0l-23.616,39.166a5.171,5.171,0,0,0,4.429,7.843h47.234a5.172,5.172,0,0,0,4.429-7.843Zm-3.19,3.371a1.429,1.429,0,0,1-1.24.725h-47.234a1.425,1.425,0,0,1-1.219-2.16l23.616-39.167a1.425,1.425,0,0,1,2.439,0l23.616,39.167A1.427,1.427,0,0,1,1709.349,437.955Z" transform="translate(-1655.704 -392.916)" fill="#e94b46"/>
      </g>
    </g>
    <g id="Grupo_56707" data-name="Grupo 56707" transform="translate(1681.97 408.338)">
      <g id="Grupo_56706" data-name="Grupo 56706">
        <path id="Trazado_101937" data-name="Trazado 101937" d="M1682.675,407.262c-1.426,0-2.538.765-2.538,2.122,0,4.138.487,10.085.487,14.224,0,1.078.939,1.53,2.052,1.53.834,0,2.017-.452,2.017-1.53,0-4.139.487-10.086.487-14.224A2.236,2.236,0,0,0,1682.675,407.262Z" transform="translate(-1680.137 -407.262)" fill="#e94b46"/>
      </g>
    </g>
    <g id="Grupo_56709" data-name="Grupo 56709" transform="translate(1681.866 428.614)">
      <g id="Grupo_56708" data-name="Grupo 56708">
        <path id="Trazado_101938" data-name="Trazado 101938" d="M1682.718,426.122a2.678,2.678,0,0,0,0,5.356,2.678,2.678,0,0,0,0-5.356Z" transform="translate(-1680.04 -426.122)" fill="#e94b46"/>
      </g>
    </g>
  </g>
</svg>
