<svg xmlns="http://www.w3.org/2000/svg" width="126" height="126" viewBox="0 0 126 126">
  <g id="Grupo_57246" data-name="Grupo 57246" transform="translate(-976.5 -24035.465)">
    <g id="Elipse_4090" data-name="Elipse 4090" transform="translate(976.5 24035.465)" fill="#fff" stroke="#09b291" stroke-width="5">
      <circle cx="63" cy="63" r="63" stroke="none"/>
      <circle cx="63" cy="63" r="60.5" fill="none"/>
    </g>
    <g id="Grupo_56743" data-name="Grupo 56743" transform="translate(-672.453 23765.525)">
      <path id="Trazado_101959" data-name="Trazado 101959" d="M1733.952,330.922c-2.4-5.2-4.658-10.12-3.525-15.22a1.058,1.058,0,0,0-1.98-.7,13.639,13.639,0,0,1-2.726,3.584,12.769,12.769,0,0,0-3.776,6.265c-2.327-2.229-2.565-4.689-2.926-8.426a41.259,41.259,0,0,0-5.642-18.415,1.059,1.059,0,0,0-1.968.376,34.729,34.729,0,0,1-4.944,14c-2.513,4.5-5.348,9.583-7.246,21.683-1.305-1.2-1.689-3.213-2.12-5.476-.576-3.028-1.229-6.46-4.43-8.38a1.068,1.068,0,0,0-1.6.907,34.629,34.629,0,0,1-2.205,12.653,36.885,36.885,0,0,0-2.313,13.323,20.915,20.915,0,0,0,7.9,16.461,28.463,28.463,0,0,0,18,6.055,28.05,28.05,0,0,0,18.012-6.033c5.163-4.3,7.892-10.392,7.892-17.613C1738.357,340.493,1736.118,335.627,1733.952,330.922Zm-21.5,36.571c-11.531,0-23.787-7.149-23.787-20.4a34.66,34.66,0,0,1,2.2-12.653,36.859,36.859,0,0,0,2.259-11.018c1.114,1.483,1.494,3.481,1.89,5.564.6,3.166,1.227,6.44,4.618,7.8a1.069,1.069,0,0,0,1.441-.833c1.838-12.862,4.706-18,7.236-22.534a37.026,37.026,0,0,0,4.656-11.667,38.684,38.684,0,0,1,3.942,14.876c.427,4.42.764,7.912,5.09,11a1.07,1.07,0,0,0,1.66-.687,10.948,10.948,0,0,1,3.581-6.885c.255-.264.519-.536.787-.828.207,4.343,2.127,8.514,4,12.58,2.07,4.5,4.211,9.149,4.211,14.157C1736.24,360.757,1723.91,367.493,1712.453,367.493Z" fill="#065949"/>
      <path id="Trazado_101960" data-name="Trazado 101960" d="M1721.012,339.06a1.058,1.058,0,0,0-.2,1.483c2.707,3.568,4.138,6.614,4.138,8.81a12.494,12.494,0,1,1-24.987,0c0-5.4,8.443-14.135,12.49-17.782,1,.913,2.979,2.767,5.058,5.04a1.059,1.059,0,1,0,1.563-1.428,77.961,77.961,0,0,0-5.926-5.83,1.057,1.057,0,0,0-1.384,0c-.568.491-13.919,12.122-13.919,20a14.611,14.611,0,1,0,29.222,0c0-2.7-1.537-6.094-4.568-10.09A1.06,1.06,0,0,0,1721.012,339.06Z" fill="#065949"/>
      <path id="Trazado_101961" data-name="Trazado 101961" d="M1710.194,344.907a1.057,1.057,0,0,0-1.058,1.058v11.294a1.059,1.059,0,0,0,1.058,1.059h4.518a1.059,1.059,0,0,0,1.059-1.059V345.965a1.058,1.058,0,0,0-1.059-1.058Zm3.459,11.293h-2.4v-9.176h2.4Z" fill="#065949"/>
      <path id="Trazado_101962" data-name="Trazado 101962" d="M1712.453,337a3.317,3.317,0,1,0,3.318,3.318A3.321,3.321,0,0,0,1712.453,337Zm0,4.518a1.2,1.2,0,1,1,1.2-1.2A1.2,1.2,0,0,1,1712.453,341.519Z" fill="#065949"/>
    </g>
  </g>
</svg>
