<svg xmlns="http://www.w3.org/2000/svg" xmlns:xlink="http://www.w3.org/1999/xlink" width="339.837" height="347.8" viewBox="0 0 339.837 347.8">
  <defs>
    <clipPath id="clip-path">
      <path id="Trazado_100884" data-name="Trazado 100884" d="M1202.675,755.063c7.6-9.368,17.281-24.219,19.92-43.709,3.459-25.559-8.239-36.639-12.807-78.488-2.888-26.461-4.636-44.956,7.311-56.61,9.362-9.131,26.015-12.967,37.224-7.22,9.321,4.779,15.969,16.743,18.7,25.557,2.228,7.184,1.974,12.656,6.741,15.95,4.871,3.366,9.239.486,13.689,2.864,9.024,4.823,6.959,25.163,6.625,28.45-3.714,36.567-33.07,64.9-46.024,77.1A222.641,222.641,0,0,1,1202.675,755.063Z" transform="translate(-1202.675 -566.323)" fill="none"/>
    </clipPath>
    <clipPath id="clip-path-2">
      <path id="Trazado_100889" data-name="Trazado 100889" d="M1219.931,736.017c13.572,6.138,31.738,12.021,51.7,11.885,5.094-.035,36.563-.249,38.768-13.558.777-4.689-2.733-7.043-1.8-13.329,1.1-7.45,6.734-8.912,13.291-15.894,3.911-4.165,15.358-16.357,10.262-28.186-3.046-7.069-11.86-13.688-20.109-15.262-12.1-2.31-20.606,6.686-34.738,22.157-12.527,13.714-12.9,18.28-22.094,28C1248.383,719.041,1237.458,728.291,1219.931,736.017Z" transform="translate(-1219.931 -661.314)" fill="none"/>
    </clipPath>
  </defs>
  <g id="Grupo_55919" data-name="Grupo 55919" transform="translate(-1026.741 -566.323)">
    <g id="Grupo_55914" data-name="Grupo 55914" transform="translate(1026.741 566.323)">
      <path id="Trazado_100878" data-name="Trazado 100878" d="M1264.785,615.367c10.748,15.067-1.409,39.808,14.423,51.059,15.411,10.952,34.008-7.462,48.522,1.952,21.531,13.964,18.31,78.938-12.528,119.61-9.275,12.232-17.08,17.036-20.415,30.793-7.161,29.542,19.279,46.792,14.436,61.417-10.906,32.929-183.638,62.284-254.1-35.592-32.908-45.713-38.458-112.163-10.02-162.977C1096.494,589.808,1240.668,581.558,1264.785,615.367Z" transform="translate(-1026.741 -563.682)" fill="#9de0d3"/>
      <g id="Grupo_55908" data-name="Grupo 55908" transform="translate(207.6)">
        <path id="Trazado_100879" data-name="Trazado 100879" d="M1202.675,755.063c7.6-9.368,17.281-24.219,19.92-43.709,3.459-25.559-8.239-36.639-12.807-78.488-2.888-26.461-4.636-44.956,7.311-56.61,9.362-9.131,26.015-12.967,37.224-7.22,9.321,4.779,15.969,16.743,18.7,25.557,2.228,7.184,1.974,12.656,6.741,15.95,4.871,3.366,9.239.486,13.689,2.864,9.024,4.823,6.959,25.163,6.625,28.45-3.714,36.567-33.07,64.9-46.024,77.1A222.641,222.641,0,0,1,1202.675,755.063Z" transform="translate(-1202.675 -566.323)" fill="#a5e3ff"/>
        <g id="Grupo_55907" data-name="Grupo 55907">
          <g id="Grupo_55906" data-name="Grupo 55906" clip-path="url(#clip-path)">
            <g id="Grupo_55905" data-name="Grupo 55905" transform="translate(-11.716 -9.576)">
              <g id="Grupo_55904" data-name="Grupo 55904">
                <path id="Trazado_100880" data-name="Trazado 100880" d="M1194.4,763.8l-.435-.8c14.339-7.814,26.416-16.443,35.893-25.648,13.968-13.567,21.844-28.015,23.407-42.944,1.225-11.694-1.361-23.292-4.939-39.344a222.087,222.087,0,0,0-8.845-29.429c-3.671-10.187-6.573-18.233-6.983-30.431a92.37,92.37,0,0,1,7.034-37.7l.847.341a91.445,91.445,0,0,0-6.969,37.326c.406,12.054,3.285,20.041,6.93,30.152a222.782,222.782,0,0,1,8.877,29.54c1.776,7.967,3.311,14.846,4.264,21.29a72.211,72.211,0,0,1,.693,18.348c-1.586,15.146-9.553,29.783-23.678,43.5C1220.957,747.268,1208.814,755.947,1194.4,763.8Z" transform="translate(-1191.707 -557.504)" fill="#69d1ff"/>
                <path id="Trazado_100881" data-name="Trazado 100881" d="M1246.076,644.322l-.5-.14a62.549,62.549,0,0,1-19.115-10.386c-9.093-7.115-20.66-20.124-24.126-41.683l.9-.144c3.416,21.25,14.805,34.071,23.757,41.084a63.173,63.173,0,0,0,18.339,10.1c3.9-24.4,14.475-40.82,22.694-50.318,8.98-10.376,17.18-14.976,17.262-15.021l.442.8c-.081.044-8.167,4.585-17.042,14.852-8.189,9.472-18.746,25.9-22.536,50.352Z" transform="translate(-1190.988 -555.761)" fill="#69d1ff"/>
                <path id="Trazado_100882" data-name="Trazado 100882" d="M1253.623,677.517l-.223-.246a180.587,180.587,0,0,0-22.787-20.65c-12.375-9.218-38.466-9.449-38.728-9.45l0-.913c.265,0,26.653.235,39.27,9.631a181.667,181.667,0,0,1,22.692,20.523c13.337-6.209,25.064-27.267,32.576-43.906a316.623,316.623,0,0,0,13.356-35.389l.875.259a317.859,317.859,0,0,1-13.395,35.5c-11.1,24.6-22.319,39.574-33.337,44.51Z" transform="translate(-1191.885 -554.104)" fill="#69d1ff"/>
                <path id="Trazado_100883" data-name="Trazado 100883" d="M1232.874,727.734l.343-.841a31.117,31.117,0,0,0,1.338-20.886,40.6,40.6,0,0,0-9.372-15.848,69.9,69.9,0,0,0-17.6-13.611l.411-.814a70.826,70.826,0,0,1,17.848,13.791c10.439,11.407,13.388,24.131,8.56,36.854a164.815,164.815,0,0,0,27.79-11.236c14.7-7.493,35.34-20.724,50.176-41.2l28.833-39.791.74.535L1313.1,674.479c-14.946,20.63-35.724,33.947-50.521,41.487a160.089,160.089,0,0,1-28.828,11.539Z" transform="translate(-1190.538 -550.926)" fill="#69d1ff"/>
              </g>
            </g>
          </g>
        </g>
      </g>
      <g id="Grupo_55913" data-name="Grupo 55913" transform="translate(226.337 110.303)">
        <path id="Trazado_100885" data-name="Trazado 100885" d="M1219.931,736.017c13.572,6.138,31.738,12.021,51.7,11.885,5.094-.035,36.563-.249,38.768-13.558.777-4.689-2.733-7.043-1.8-13.329,1.1-7.45,6.734-8.912,13.291-15.894,3.911-4.165,15.358-16.357,10.262-28.186-3.046-7.069-11.86-13.688-20.109-15.262-12.1-2.31-20.606,6.686-34.738,22.157-12.527,13.714-12.9,18.28-22.094,28C1248.383,719.041,1237.458,728.291,1219.931,736.017Z" transform="translate(-1219.931 -661.314)" fill="#87daff"/>
        <g id="Grupo_55912" data-name="Grupo 55912">
          <g id="Grupo_55911" data-name="Grupo 55911" clip-path="url(#clip-path-2)">
            <g id="Grupo_55910" data-name="Grupo 55910" transform="translate(-60.271 -12.069)">
              <g id="Grupo_55909" data-name="Grupo 55909">
                <path id="Trazado_100886" data-name="Trazado 100886" d="M1205.113,735.178c-14.439-3.049-28.116-9.719-40.689-19.849l.615-.763c13.118,10.568,27.444,17.335,42.578,20.107,20.161,3.7,40.8-.2,61.355-11.575,21.417-11.854,37.369-28.86,46.978-41.039,6.64-8.413,10.84-19.132,12.483-31.86l.972.126c-1.666,12.906-5.934,23.787-12.685,32.341-9.666,12.249-25.714,29.356-47.274,41.29-20.755,11.487-41.616,15.418-62.005,11.681Q1206.273,735.424,1205.113,735.178Z" transform="translate(-1164.424 -650.199)" fill="#69d1ff"/>
                <path id="Trazado_100887" data-name="Trazado 100887" d="M1284.4,704.848l-.114-.426a61.386,61.386,0,0,1-1.589-15.21c.13-8.01,1.915-19.589,9.674-29.265l.764.612c-13.477,16.811-8.8,39.772-8.008,43.181,36.967-5.978,46.154-27.435,48.093-33.89a3.412,3.412,0,0,1,.113-.344l.892.406-.445-.2.452.19c-.014.038-.037.116-.072.232-1.989,6.62-11.424,28.682-49.325,34.648Z" transform="translate(-1154.273 -649.362)" fill="#69d1ff"/>
                <path id="Trazado_100888" data-name="Trazado 100888" d="M1284.594,733.053a72.037,72.037,0,0,1-23.562-9.992l-.222-.14-.005-.263c-.005-.2-.366-20.406,11.449-42.4l11.89-22.133.863.465-11.89,22.132a94.368,94.368,0,0,0-11.335,41.651c9.107,5.721,22.986,12.142,37.806,10.623,8.9-.912,13.956-4.3,14.006-4.329l.552.809c-.213.145-5.314,3.558-14.458,4.5A48.859,48.859,0,0,1,1284.594,733.053Z" transform="translate(-1156.152 -649.518)" fill="#69d1ff"/>
              </g>
            </g>
          </g>
        </g>
      </g>
      <path id="Trazado_100890" data-name="Trazado 100890" d="M1178.177,629.737a53.92,53.92,0,0,0-18.276-6.464,37.428,37.428,0,0,0-7.111-.323c-7.622.491-12.41,3.741-26.265,4.387-21.568,1.007-26.059-6.115-37.078-4-28.058,5.373-49.173,61.167-35.518,74.938,12.709,12.818,47.254-19.118,80.586-1.205,8.38,4.5,18.008,12.87,24.1,9.256,4.231-2.514,2.845-8.5,8.638-20.98,3.845-8.282,6.4-13.788,10.566-14.426,7.959-1.222,18.748,15.8,22.421,31.512.643,2.75.74,4.059,1.833,21.516.654,10.444.31,30.178,2.482,30.434,1.637.192,4.57-10.606,6.278-20.087,2.7-14.972,7.113-39.484-3.885-66.938C1199.311,648.3,1187.105,634.943,1178.177,629.737Z" transform="translate(-1024.773 -556.244)" fill="#c3edff"/>
    </g>
    <path id="Trazado_100891" data-name="Trazado 100891" d="M1090.188,847.19h225.145c1.135,0,2.064-1.21,2.064-2.685h0c0-1.478-.93-2.687-2.064-2.687H1090.188c-1.135,0-2.064,1.21-2.064,2.687h0C1088.124,845.98,1089.053,847.19,1090.188,847.19Z" transform="translate(21.834 40.599)" fill="#03a4c9" fill-rule="evenodd"/>
    <g id="Grupo_55918" data-name="Grupo 55918" transform="translate(1143.427 685.019)">
      <g id="Grupo_55915" data-name="Grupo 55915">
        <path id="Trazado_100892" data-name="Trazado 100892" d="M1260.414,696.212h-49.349L1189.68,666.8a16.448,16.448,0,0,0-13.31-6.775H1135.4a16.449,16.449,0,0,0-16.449,16.45v164.5a16.45,16.45,0,0,0,16.449,16.45h125.018a16.45,16.45,0,0,0,16.449-16.45V712.663A16.449,16.449,0,0,0,1260.414,696.212Zm-128.308,0V673.183h46.06l16.449,23.029Z" transform="translate(-1118.947 -660.023)" fill="#098970"/>
        <path id="Trazado_100893" data-name="Trazado 100893" d="M1215.9,681.233h32.9v13.159h-32.9Z" transform="translate(-1110.626 -658.203)" fill="#ccc"/>
        <path id="Trazado_100894" data-name="Trazado 100894" d="M1215.9,691.1h16.45a9.869,9.869,0,0,0,9.869-9.869H1215.9Z" transform="translate(-1110.626 -658.203)" fill="#f2f2f2"/>
        <path id="Trazado_100895" data-name="Trazado 100895" d="M1118.947,711.531h157.916V833.259H1118.947Z" transform="translate(-1118.947 -655.602)" fill="#ccc"/>
        <path id="Trazado_100896" data-name="Trazado 100896" d="M1118.947,711.531V820.1h128.307a16.45,16.45,0,0,0,16.45-16.45V711.531Z" transform="translate(-1118.947 -655.602)" fill="#f2f2f2"/>
        <rect id="Rectángulo_5303" data-name="Rectángulo 5303" width="98.698" height="75.668" rx="12.12" transform="translate(16.449 65.799)" fill="#fff"/>
        <path id="Trazado_100897" data-name="Trazado 100897" d="M1209.843,669.113h46.06v13.16h-46.06Z" transform="translate(-1111.146 -659.243)" fill="#098970"/>
        <path id="Trazado_100898" data-name="Trazado 100898" d="M1209.843,675.693h32.9a6.58,6.58,0,0,0,6.58-6.58h-39.479Z" transform="translate(-1111.146 -659.243)" fill="#09b291"/>
      </g>
      <g id="Grupo_55917" data-name="Grupo 55917" transform="translate(92.747 55.02)">
        <path id="Trazado_100899" data-name="Trazado 100899" d="M1258.206,794.086a4.018,4.018,0,0,1,0,5.678h0a4.016,4.016,0,0,1-5.684,0l-28.012-28.01a4.024,4.024,0,0,1,0-5.685h0a4.025,4.025,0,0,1,5.684,0Z" transform="translate(-1202.735 -706.042)" fill="#80524c" opacity="0.36" style="mix-blend-mode: multiply;isolation: isolate"/>
        <g id="Grupo_55916" data-name="Grupo 55916">
          <path id="Trazado_100900" data-name="Trazado 100900" d="M1301.87,810.163a67.35,67.35,0,0,1-5.531,7.313,20.341,20.341,0,0,0,1.633-6.646c.241-3.934-1.392-7.646-1.616-11.585-.241-4.416,2.3-8.13,2.08-13-.224-4.416-1.393-9.058-5.106-12.067-3.473,3.23-6.962,4.1-10.452,2.784a12.99,12.99,0,0,1-6.72-5.344c-2.785-4.42-3.491-11.6-1.393-16.244a7.566,7.566,0,0,1-10.21-3.474c-1.393-3.267.464-7.908-3.714-9.059,1.392,8.131-14.852,7.427-16.244.465-1.151,8.354,2.784,18.322-6.721,25.3-5.846,4.253-12.773,3.714-17.413-.482-4.177,4.307-5.792,7.314-7.072,11.27-2.693,8.224-2.433,11.566-2.674,16.672a31.328,31.328,0,0,0,8.539,22.391,48.476,48.476,0,0,1-7.331-9.34c-14.072-22.332-7.446-43.015,11.157-59.147-3.305,15.723,14.48,13.235,13.644.406-.407-4.957-3.508-8.13-3.3-13.643.408-10.434,7.034-13.236,11.175-15.705-5.793,9.505,2.061,11.993,8.669,4.956,4.549-4.549,5.793-9.095,4.141-15.3,7.852,1.223,19.029,7.443,19.863,16.131.409,3.714-2.209,8.206.686,10.675,4.958,3.305,7.575-4.066,5.516-7.8,3.4,2.172,11.565,8.688,9.1,18.214-.836,3.714-6.071,8.13-3.175,11.433,3.713,4.141,8.967-3.173,8.967-6.885,5.793,5.588,9.505,15.3,9.913,26.883C1308.7,790.094,1308.091,801.066,1301.87,810.163Z" transform="translate(-1204.364 -710.694)" fill="#f9b30c"/>
          <path id="Trazado_100901" data-name="Trazado 100901" d="M1295.855,796.7c.224,3.938,1.857,7.651,1.616,11.585a20.341,20.341,0,0,1-1.633,6.646,48.931,48.931,0,0,1-12.513,10.138,27.709,27.709,0,0,0,7.091-15.595c.539-6.629-2.487-11.865-7.166-16.262.818,2.875-1.448,7.778-4.771,8.612-3.583.819-7.165-3.042-6.275-6.962.633-2.708,2.21-4.231,2.9-7.219,1.243-5.291-1.337-8.354-3.714-9.914.278,4.416-1.931,9.949-6.33,9.949-5.254-1.578-.111-6.741-.3-14.334-.205-8.759-7.537-12.679-11.955-13.347,2.247,2.731,3.49,6.981,2.135,13.275a27.108,27.108,0,0,1-3.917,10.247c-2.582,4.232-5.274,5.813-7.223,7.462-6.33,3.492-15.947-1.668-12.939-12.4-6.313,1.933-15.521,18.678-8.931,40.248-1.075-.91-2.134-1.874-3.137-2.875a.283.283,0,0,0-.038-.036,31.328,31.328,0,0,1-8.539-22.391c.241-5.105-.018-8.448,2.674-16.672,1.28-3.956,2.895-6.962,7.072-11.27,4.641,4.2,11.567,4.735,17.413.482,9.505-6.98,5.57-16.948,6.721-25.3,1.392,6.962,17.636,7.666,16.244-.465,4.177,1.151,2.32,5.792,3.713,9.059a7.566,7.566,0,0,0,10.21,3.474c-2.1,4.641-1.392,11.824,1.393,16.244a12.99,12.99,0,0,0,6.72,5.344c3.49,1.32,6.98.446,10.452-2.784,3.713,3.009,4.882,7.651,5.105,12.067C1298.158,788.574,1295.614,792.288,1295.855,796.7Z" transform="translate(-1203.862 -708.153)" fill="#fad413"/>
          <path id="Trazado_100902" data-name="Trazado 100902" d="M1289.669,807.922a27.709,27.709,0,0,1-7.091,15.595,74.611,74.611,0,0,1-24.506,6.125c5.792-.889,12.141-2.281,16.374-7.035a14.726,14.726,0,0,0,3.473-13.311c-3.714,2.321-11.213-.315-14.147-3.1-2.005-2-2.172-4.177-2.172-6.961-4.475,2.32-8.652-3.249-8.354-7.26-1.689,10.675-21.349,12.068-25.675,2.618-1.633,5.011-2.413,14.7-.408,20.737,2.135,6.107,7.612,10.859,14.5,12.77a52.63,52.63,0,0,1-20.478-10.824c-6.59-21.57,2.618-38.315,8.931-40.248-3.008,10.733,6.608,15.893,12.939,12.4,1.949-1.649,4.641-3.23,7.223-7.462a27.108,27.108,0,0,0,3.917-10.247c1.355-6.294.112-10.544-2.135-13.275,4.418.668,11.75,4.588,11.955,13.347.187,7.593-4.957,12.756.3,14.334,4.4,0,6.608-5.533,6.33-9.949,2.377,1.559,4.957,4.622,3.714,9.914-.687,2.987-2.264,4.511-2.9,7.219-.89,3.92,2.692,7.781,6.275,6.962,3.323-.834,5.589-5.736,4.771-8.612C1287.182,796.057,1290.208,801.293,1289.669,807.922Z" transform="translate(-1203.115 -706.596)" fill="#fcf318"/>
          <path id="Trazado_100903" data-name="Trazado 100903" d="M1273.888,819.956c-4.234,4.754-10.582,6.146-16.374,7.035h-.075a51.448,51.448,0,0,1-16.057-1.466c-.092-.017-.187-.057-.279-.076-6.887-1.911-12.364-6.664-14.5-12.77-2-6.034-1.225-15.726.408-20.737,4.326,9.45,23.986,8.057,25.676-2.618-.3,4.011,3.88,9.58,8.354,7.26,0,2.784.166,4.957,2.172,6.961,2.934,2.785,10.434,5.422,14.147,3.1A14.726,14.726,0,0,1,1273.888,819.956Z" transform="translate(-1202.557 -703.945)" fill="#fff"/>
        </g>
      </g>
    </g>
  </g>
</svg>
