<svg xmlns="http://www.w3.org/2000/svg" xmlns:xlink="http://www.w3.org/1999/xlink" width="846.767" height="686.619" viewBox="0 0 846.767 686.619">
  <defs>
    <linearGradient id="linear-gradient" x1="0.5" y1="1.011" x2="0.5" y2="0.005" gradientUnits="objectBoundingBox">
      <stop offset="0" stop-color="#e6e6e6"/>
      <stop offset="0.42" stop-color="#fff"/>
    </linearGradient>
    <linearGradient id="linear-gradient-2" x1="0.5" y1="0.877" x2="0.5" y2="0.05" gradientUnits="objectBoundingBox">
      <stop offset="0" stop-color="#231f20"/>
      <stop offset="0.903" stop-color="#505052"/>
    </linearGradient>
    <linearGradient id="linear-gradient-5" x1="0.5" y1="0.003" x2="0.5" y2="1.216" gradientUnits="objectBoundingBox">
      <stop offset="0.053" stop-color="#231f20"/>
      <stop offset="0.987" stop-color="#505052"/>
    </linearGradient>
    <linearGradient id="linear-gradient-6" x1="0.5" y1="-0.598" x2="0.5" y2="1.636" xlink:href="#linear-gradient-5"/>
    <linearGradient id="linear-gradient-7" x1="0.5" y1="-0.599" x2="0.5" y2="1.636" xlink:href="#linear-gradient-5"/>
    <linearGradient id="linear-gradient-8" x1="0.5" y1="-1.525" x2="0.5" y2="0.901" xlink:href="#linear-gradient-5"/>
    <linearGradient id="linear-gradient-9" x1="0.5" y1="-1.559" x2="0.5" y2="0.901" xlink:href="#linear-gradient-5"/>
    <linearGradient id="linear-gradient-11" x1="0.5" y1="0.119" x2="0.5" y2="1.472" xlink:href="#linear-gradient-2"/>
    <linearGradient id="linear-gradient-12" x1="0.5" y1="-1.601" x2="0.5" y2="1.31" xlink:href="#linear-gradient-2"/>
    <linearGradient id="linear-gradient-13" x1="0.5" y1="-1.631" x2="0.5" y2="1.297" xlink:href="#linear-gradient-2"/>
    <linearGradient id="linear-gradient-14" x1="0.5" y1="-2.19" x2="0.5" y2="0.497" xlink:href="#linear-gradient-2"/>
    <linearGradient id="linear-gradient-15" x1="0.5" y1="-2.18" x2="0.5" y2="0.5" xlink:href="#linear-gradient-2"/>
    <linearGradient id="linear-gradient-16" x1="0.5" y1="-18.275" x2="0.5" y2="9.285" xlink:href="#linear-gradient-2"/>
    <linearGradient id="linear-gradient-17" x1="0.5" y1="-18.836" x2="0.5" y2="5.935" xlink:href="#linear-gradient-2"/>
    <linearGradient id="linear-gradient-18" x1="0.5" y1="-12.714" x2="0.5" y2="9.599" xlink:href="#linear-gradient-2"/>
    <linearGradient id="linear-gradient-19" x1="0.5" y1="-25.231" x2="0.5" y2="11.086" xlink:href="#linear-gradient-2"/>
    <linearGradient id="linear-gradient-20" x1="0.5" y1="-20.918" x2="0.5" y2="2.867" xlink:href="#linear-gradient-2"/>
    <linearGradient id="linear-gradient-21" x1="0.5" y1="-24.089" x2="0.5" y2="13.422" xlink:href="#linear-gradient-2"/>
    <linearGradient id="linear-gradient-22" x1="0.5" y1="-31.141" x2="0.5" y2="8.736" xlink:href="#linear-gradient-2"/>
    <linearGradient id="linear-gradient-23" x1="0.5" y1="-36.195" x2="0.5" y2="9.965" xlink:href="#linear-gradient-2"/>
    <linearGradient id="linear-gradient-24" x1="0.5" y1="-32.144" x2="0.5" y2="18.924" xlink:href="#linear-gradient-2"/>
  </defs>
  <g id="Grupo_56866" data-name="Grupo 56866" transform="translate(-160.544 -7194.4)">
    <rect id="Rectángulo_8405" data-name="Rectángulo 8405" width="547.37" height="628.186" rx="29.478" transform="translate(186.1 7196.9)" fill="#fff" stroke="#4d4d4d" stroke-miterlimit="10" stroke-width="5"/>
    <rect id="Rectángulo_8406" data-name="Rectángulo 8406" width="159.68" height="55.809" rx="9.845" transform="translate(211.143 7289.767)" fill="none" stroke="#999" stroke-miterlimit="10" stroke-width="2"/>
    <rect id="Rectángulo_8407" data-name="Rectángulo 8407" width="200.243" height="60.051" rx="9.845" transform="translate(207.308 7223.019)" fill="none" stroke="#ff1d25" stroke-miterlimit="10" stroke-width="2"/>
    <rect id="Rectángulo_8408" data-name="Rectángulo 8408" width="254.002" height="124.119" rx="21.629" transform="translate(197.749 7361.202)" fill="none" stroke="#999" stroke-miterlimit="10" stroke-width="2"/>
    <rect id="Rectángulo_8409" data-name="Rectángulo 8409" width="264.3" height="106.707" rx="15.13" transform="translate(462.924 7378.614)" fill="none" stroke="#999" stroke-miterlimit="10" stroke-width="2"/>
    <rect id="Rectángulo_8410" data-name="Rectángulo 8410" width="529.476" height="259.549" rx="31.826" transform="translate(197.749 7501.246)" fill="none" stroke="#999" stroke-miterlimit="10" stroke-width="2"/>
    <rect id="Rectángulo_8411" data-name="Rectángulo 8411" width="497.817" height="43.233" rx="10.522" transform="translate(206.638 7763.697)" fill="none" stroke="#999" stroke-miterlimit="10" stroke-width="2"/>
    <line id="Línea_151" data-name="Línea 151" x2="356.88" transform="translate(407.55 7235.148)" fill="none" stroke="#ff1d25" stroke-miterlimit="10" stroke-width="2"/>
    <line id="Línea_152" data-name="Línea 152" x2="231.57" transform="translate(532.86 7289.767)" fill="none" stroke="#ff1d25" stroke-miterlimit="10" stroke-width="2"/>
    <line id="Línea_153" data-name="Línea 153" x2="182.161" transform="translate(582.27 7353.612)" fill="none" stroke="#ff1d25" stroke-miterlimit="10" stroke-width="2"/>
    <line id="Línea_154" data-name="Línea 154" x2="37.206" transform="translate(727.225 7431.968)" fill="none" stroke="#ff1d25" stroke-miterlimit="10" stroke-width="2"/>
    <line id="Línea_155" data-name="Línea 155" x2="37.206" transform="translate(727.225 7568.514)" fill="none" stroke="#ff1d25" stroke-miterlimit="10" stroke-width="2"/>
    <line id="Línea_156" data-name="Línea 156" x2="55.809" transform="translate(704.454 7785.313)" fill="none" stroke="#ff1d25" stroke-miterlimit="10" stroke-width="2"/>
    <path id="Trazado_102094" data-name="Trazado 102094" d="M197.749,7423.262h-36.2v435.757h36.2" fill="none" stroke="#ff1d25" stroke-miterlimit="10" stroke-width="2"/>
    <rect id="Rectángulo_8412" data-name="Rectángulo 8412" width="129.923" height="30.137" rx="3.913" transform="translate(762.794 7220.08)" fill="#f94e4e"/>
    <text id="Identificación" transform="translate(762.049 7222.15)" fill="#fff" font-size="17.115" font-family="Roboto-Bold, Roboto" font-weight="700"><tspan x="13.192" y="18">Identificación</tspan></text>
    <text id="Refer_to_safety_Data_Sheet_before_use." data-name="Refer to safety Data Sheet before use." transform="translate(468.271 7245.641)" font-size="11.98" font-family="Roboto-Regular, Roboto"><tspan x="2.46" y="13">Refer to safety Data Sheet before use.</tspan></text>
    <text id="Highly_flarmmable_liquid_and_vapour_Toxic_if_swallowed_Causes_skin_irritation_May_cause_cancer_May_be_fatal_if_swalloweb_and_enters_airway" data-name="Highly flarmmable liquid and vapour
Toxic if swallowed
Causes skin irritation
May cause cancer
May be fatal if swalloweb and enters airway" transform="translate(470.057 7382.733)" font-size="12.836" font-family="Roboto-Regular, Roboto"><tspan x="0" y="13">Highly flarmmable liquid and vapour</tspan><tspan x="0" y="32.682">Toxic if swallowed</tspan><tspan x="0" y="52.364">Causes skin irritation</tspan><tspan x="0" y="72.046">May cause cancer</tspan><tspan x="0" y="91.728">May be fatal if swalloweb and enters airway</tspan></text>
    <text id="IF_ON_SKIN_on_hair_:_Take_off_contaminated_clothing_and_wash_before_re-use_Rinse_skin_using_plenty_of_soap_and_water_IF_exposer_or_concemed:_Get_medical_advice_attencion._IF_SWALLOWED:_Immediately_call_a_POSION_CENTRE_or_doctorphysicion._Do_NOT_induce_vom" data-name="IF ON SKIN (on hair): Take off contaminated
clothing and wash before re-use
Rinse skin using plenty of soap and water
IF exposer or concemed: Get medical
advice/attencion.
IF SWALLOWED: Immediately call a POSION
CENTRE or doctorphysicion.
Do NOT induce vom" transform="translate(212.376 7517.057)" fill="gray" font-size="12.836" font-family="Roboto-Regular, Roboto"><tspan x="0" y="13">IF ON SKIN (on hair): Take off </tspan><tspan x="0" y="31.826">contaminated</tspan><tspan x="0" y="50.652">clothing and wash before re-use</tspan><tspan x="0" y="69.479">Rinse skin using plenty of soap and water</tspan><tspan x="0" y="88.305">IF exposer or concemed: Get medical</tspan><tspan x="0" y="107.131">advice/attencion.</tspan><tspan x="0" y="125.957">IF SWALLOWED: Immediately call a </tspan><tspan x="0" y="144.784">POSION</tspan><tspan x="0" y="163.61">CENTRE or doctorphysicion.</tspan><tspan x="0" y="182.436">Do NOT induce vomiting</tspan><tspan x="0" y="201.262">Store locked up in a well-ventilated place.</tspan><tspan x="0" y="220.089">Keep cool.</tspan><tspan x="0" y="238.915">Dispose of contentsicontainer in </tspan></text>
    <text id="Mdeup_Chemical_Pty_Ltd_999_Chemical_Town_My_State_1234_Tel:_1300_000_000" data-name="Mdeup Chemical Pty Ltd, 999 Chemical Town, My State 1234; Tel: 1300 000 000" transform="translate(217.337 7776.932)" fill="gray" font-size="12.836" font-family="Roboto-Regular, Roboto"><tspan x="0" y="13">Mdeup Chemical Pty Ltd, 999 Chemical Town, My State 1234; Tel: 1300 000 000</tspan></text>
    <text id="In_case_of_fire:_Use_powder_for_extinction_Keep_away_from_sparks_and_open_flames-_No_smoking_Keep_container_tightly_closed._Gorund_bond_container_and_receiving_equipment_Take_precautionary_measures_against_static_discharge._Wear_protective_gloves_ans_eye_" data-name="In case of fire: Use powder for extinction
Keep away from sparks and open flames- No smoking 
Keep container tightly closed.
Gorund/bond container and receiving equipment
Take precautionary measures against static
discharge.
Wear protective gloves ans eye " transform="translate(470.057 7518.926)" fill="gray" font-size="12.836" font-family="Roboto-Regular, Roboto"><tspan x="0" y="13">In case of fire: Use powder for extinction</tspan><tspan x="0" y="29">Keep away from sparks and open flames- </tspan><tspan x="0" y="45">No smoking </tspan><tspan x="0" y="61">Keep container tightly closed.</tspan><tspan x="0" y="77">Gorund/bond container and receiving </tspan><tspan x="0" y="93">equipment</tspan><tspan x="0" y="109">Take precautionary measures against </tspan><tspan x="0" y="125">static</tspan><tspan x="0" y="141">discharge.</tspan><tspan x="0" y="157">Wear protective gloves ans eye ans face </tspan><tspan x="0" y="173">protection.</tspan><tspan x="0" y="189">Wash hands thoroughly after handing</tspan><tspan x="0" y="205">Do not eat, drink smoke when using this </tspan><tspan x="0" y="221">product</tspan></text>
    <text id="Contains:" transform="translate(211.884 7291.255)" font-size="11.98" font-family="Roboto-Regular, Roboto"><tspan x="2.027" y="13">Contains:</tspan></text>
    <text id="Aromatic_hydrocarbons_95_v_v" data-name="Aromatic hydrocarbons 95 %v/v" transform="translate(214.34 7308.2)" font-size="10.269" font-family="Roboto-Regular, Roboto"><tspan x="0" y="11">Aromatic hydrocarbons 95 %v/v</tspan></text>
    <text id="Toxicole_5_v_v" data-name="Toxicole 5  %v/v" transform="translate(213.223 7324.273)" font-size="10.269" font-family="Roboto-Regular, Roboto"><tspan x="0" y="11" xml:space="preserve">Toxicole 5  %v/v</tspan></text>
    <text id="_2.5_L" data-name="2.5 L" transform="translate(459.785 7281.216)" font-size="27.384" font-family="Roboto-Regular, Roboto"><tspan x="5.145" y="29">2.5 L</tspan></text>
    <text id="AROMASOL" transform="translate(218.246 7230.753)" font-size="32.518" font-family="Roboto-Bold, Roboto" font-weight="700"><tspan x="3.125" y="34">AROMASOL</tspan></text>
    <text id="DANGER" transform="translate(457.505 7330.167)" fill="red" font-size="32.518" font-family="Roboto-Bold, Roboto" font-weight="700"><tspan x="4.448" y="34">DANGER</tspan></text>
    <rect id="Rectángulo_8413" data-name="Rectángulo 8413" width="244.518" height="30.137" rx="3.913" transform="translate(762.794 7274.698)" fill="#f94e4e"/>
    <text id="Identificación_adicional" data-name="Identificación adicional" transform="translate(783.48 7276.769)" fill="#fff" font-size="17.115" font-family="Roboto-Bold, Roboto" font-weight="700"><tspan x="10.318" y="18">Identificación adicional</tspan></text>
    <rect id="Rectángulo_8414" data-name="Rectángulo 8414" width="244.518" height="30.137" rx="3.913" transform="translate(762.794 7338.543)" fill="#f94e4e"/>
    <text id="Palabra_de_advertencia" data-name="Palabra de advertencia" transform="translate(783.48 7340.614)" fill="#fff" font-size="17.115" font-family="Roboto-Bold, Roboto" font-weight="700"><tspan x="11.513" y="18">Palabra de advertencia</tspan></text>
    <rect id="Rectángulo_8415" data-name="Rectángulo 8415" width="244.518" height="30.137" rx="3.913" transform="translate(762.794 7416.899)" fill="#f94e4e"/>
    <text id="Indicaciones_de_peligro" data-name="Indicaciones de peligro" transform="translate(783.48 7418.97)" fill="#fff" font-size="17.115" font-family="Roboto-Bold, Roboto" font-weight="700"><tspan x="10.66" y="18">Indicaciones de peligro</tspan></text>
    <rect id="Rectángulo_8416" data-name="Rectángulo 8416" width="244.518" height="30.137" rx="3.913" transform="translate(762.794 7553.445)" fill="#f94e4e"/>
    <text id="Frases_de_precaución" data-name="Frases de precaución" transform="translate(783.48 7555.516)" fill="#fff" font-size="17.115" font-family="Roboto-Bold, Roboto" font-weight="700"><tspan x="17.797" y="18">Frases de precaución</tspan></text>
    <rect id="Rectángulo_8417" data-name="Rectángulo 8417" width="244.518" height="30.137" rx="3.913" transform="translate(759.222 7770.245)" fill="#f94e4e"/>
    <text id="Información_del_porveedor" data-name="Información del porveedor" transform="translate(770.904 7772.315)" fill="#fff" font-size="17.115" font-family="Roboto-Bold, Roboto" font-weight="700"><tspan x="7.004" y="18">Información del porveedor</tspan></text>
    <rect id="Rectángulo_8418" data-name="Rectángulo 8418" width="130.959" height="30.137" rx="3.913" transform="translate(197.749 7843.95)" fill="#f94e4e"/>
    <text id="Pictogramas" transform="translate(203.915 7846.02)" fill="#fff" font-size="17.115" font-family="Roboto-Bold, Roboto" font-weight="700"><tspan x="9.806" y="18">Pictogramas</tspan></text>
    <g id="Grupo_56855" data-name="Grupo 56855">
      <g id="Grupo_56853" data-name="Grupo 56853">
        <g id="Grupo_56852" data-name="Grupo 56852">
          <rect id="Rectángulo_8419" data-name="Rectángulo 8419" width="57.757" height="57.757" rx="4.448" transform="translate(198.204 7425.608) rotate(-45)" fill="#d61b22"/>
          <rect id="Rectángulo_8420" data-name="Rectángulo 8420" width="49.178" height="49.178" rx="10.497" transform="translate(204.27 7425.608) rotate(-45)" fill="url(#linear-gradient)"/>
        </g>
      </g>
      <g id="Grupo_56854" data-name="Grupo 56854">
        <path id="Trazado_102095" data-name="Trazado 102095" d="M246.459,7437.884a6.383,6.383,0,0,0,3.33-7.852s-1.119-3.156-.733-4.635c0,0-1.479-.534-2.755,2.125a2.146,2.146,0,0,1-2.46.9,5.49,5.49,0,0,0,.7-5.716,13.545,13.545,0,0,1-.514-3.76s-.994-.067-1.043,3.23-1.756,3.612-1.756,3.612,1.507-5.865-2.436-8.019a15.576,15.576,0,0,1-.629,5.7,12.519,12.519,0,0,0,.547,7.107s-2.187-.082-4.026-4.191a6.863,6.863,0,0,0-2.709-3.636s1.591,6.485-1.565,6.386a4.1,4.1,0,0,1-1.74-1.309s-2.957,4.54.969,8.267l2.56,1.789s-3.007.721-6.486-2.336c0,0-3.156-2.112-2.858-7.579a22.2,22.2,0,0,1,1.914-7.505,5.861,5.861,0,0,0-.025-3.429s1.938-.273,4.4,2.634c0,0,.224-.6-.82-2.534,0,0-1.217-2.386,1.317-5.592,0,0,2.436-2.932,1.143-4.7,0,0,2.311,1.143,1.964,5.193,0,0-.622,5.716,2.683,7.9,0,0-2.907-6.66-.894-11.083a18.622,18.622,0,0,1,4.547-6.983s2.088-2.212,1.69-4.225c0,0,2.038,1.715.273,6.809s.647,8.076.647,8.076a7.29,7.29,0,0,1,3.727-8.4s-1.913,3.429.323,5.591a6.278,6.278,0,0,1,.82,8.623s.671.3,3.305-2.584c0,0,1.789-1.715,3.156-1.74,0,0-2.212,1.293-.522,4.921s4.349,8.19,1.516,14.83A7.872,7.872,0,0,1,246.459,7437.884Z" fill="url(#linear-gradient-2)"/>
        <rect id="Rectángulo_8421" data-name="Rectángulo 8421" width="29.323" height="2.883" transform="translate(224.591 7439.276)" fill="url(#linear-gradient-2)"/>
      </g>
    </g>
    <g id="Grupo_56860" data-name="Grupo 56860">
      <g id="Grupo_56857" data-name="Grupo 56857">
        <g id="Grupo_56856" data-name="Grupo 56856">
          <rect id="Rectángulo_8422" data-name="Rectángulo 8422" width="57.757" height="57.757" rx="4.448" transform="translate(280.666 7425.608) rotate(-45)" fill="#d61b22"/>
          <rect id="Rectángulo_8423" data-name="Rectángulo 8423" width="49.178" height="49.178" rx="10.497" transform="translate(286.732 7425.608) rotate(-45)" fill="url(#linear-gradient)"/>
        </g>
      </g>
      <g id="Grupo_56859" data-name="Grupo 56859">
        <path id="Trazado_102096" data-name="Trazado 102096" d="M328.1,7436.617a6.193,6.193,0,0,1-2.443,1.882,9.071,9.071,0,0,1-2.912.645,11.914,11.914,0,0,1-4.535-.541,5.5,5.5,0,0,1-2.382-1.7.379.379,0,0,0-.569-.107c-1.308.711-2.621,1.414-3.947,2.091a2.66,2.66,0,0,0-1.059.973,19.375,19.375,0,0,1-1.251,1.744,1.49,1.49,0,0,1-1.683.456,1.407,1.407,0,0,1-.836-1.129c-.086-.5-.1-1.018-.186-1.521a1.088,1.088,0,0,0-.273-.529c-.358-.38-.76-.718-1.122-1.094a1.488,1.488,0,0,1-.128-1.968,1.743,1.743,0,0,1,1.2-.566,3.3,3.3,0,0,1,1.7.129,1.879,1.879,0,0,0,1.4-.089c1.679-.791,3.348-1.6,5.02-2.409.272-.131.159-.382.153-.579a.429.429,0,0,0-.195-.315q-3.591-1.741-7.192-3.461a2.509,2.509,0,0,0-1.6-.048,4.2,4.2,0,0,1-2.37-.174,1.239,1.239,0,0,1-.646-2.017,4.06,4.06,0,0,1,.913-1.009,1.631,1.631,0,0,0,.639-1.372,4.452,4.452,0,0,1,.209-1.144,1.359,1.359,0,0,1,2.062-.868,2.97,2.97,0,0,1,1.383,1.424,4.787,4.787,0,0,0,.4.78,2.29,2.29,0,0,0,.687.672c1.19.632,2.4,1.219,3.607,1.822a.763.763,0,0,0,.15.028,3.941,3.941,0,0,1-1.028-2.164,7.037,7.037,0,0,1,.107-2.878.464.464,0,0,0-.08-.365,10.242,10.242,0,0,1-2.316-4.681,9.651,9.651,0,0,1-.293-3.1,9.386,9.386,0,0,1,5.8-8.181,16.933,16.933,0,0,1,5.354-1.284,19.629,19.629,0,0,1,4.366.012,19.065,19.065,0,0,1,5.446,1.463,9.036,9.036,0,0,1,3.942,3.692,9.964,9.964,0,0,1,1.429,5.574,8.859,8.859,0,0,1-2.427,6.061.805.805,0,0,0-.211.862,6.071,6.071,0,0,1-.162,3.717,9.581,9.581,0,0,1-.64,1.188l.354-.174c.956-.469,1.9-.952,2.871-1.4a2.213,2.213,0,0,0,1.139-1.2,3.679,3.679,0,0,1,.9-1.452,2.3,2.3,0,0,1,1.452-.726,1.208,1.208,0,0,1,1.218.852c.173.658.269,1.335.414,2a.952.952,0,0,0,.2.417c.408.466.856.9,1.249,1.376a1.218,1.218,0,0,1-.225,1.819,2.8,2.8,0,0,1-1.031.442,3.871,3.871,0,0,1-1.994-.059,1.761,1.761,0,0,0-1.327.12q-3.6,1.692-7.186,3.4a.4.4,0,0,0-.187.283c-.043.589-.037.594.5.841q2.394,1.11,4.791,2.213a1.565,1.565,0,0,0,1.177.075,3.358,3.358,0,0,1,2.505.132,1.41,1.41,0,0,1,.916,1.022,1.214,1.214,0,0,1-.324,1.081,14.091,14.091,0,0,1-1.2,1.147,1.012,1.012,0,0,0-.341.7,10.9,10.9,0,0,1-.359,1.873,1.193,1.193,0,0,1-1.727.69,3.223,3.223,0,0,1-1.621-1.673,2.923,2.923,0,0,0-1.485-1.566C330.881,7438.08,329.511,7437.346,328.1,7436.617Zm4.113-24.574a4.293,4.293,0,0,1,.463.952,5.6,5.6,0,0,1-.214,3.052,6.748,6.748,0,0,0-.487,2.9c.025.315.066.63.11,1.037a7.965,7.965,0,0,0,1.256-1.919,8.908,8.908,0,0,0,.458-6.086,8.576,8.576,0,0,0-4.1-5.459,12.355,12.355,0,0,0-2.729-1.026,16.024,16.024,0,0,0-4.456-.706,23.126,23.126,0,0,0-3.8.256,14.533,14.533,0,0,0-4.022,1.129,8.442,8.442,0,0,0-5.073,7.478,9.836,9.836,0,0,0,1.116,5.065c.244.49.552.947.83,1.42l.1-.041a6,6,0,0,0-.049-3.053,9.242,9.242,0,0,1-.623-3.205,2.079,2.079,0,0,1,.639-1.67l.519.6a4.507,4.507,0,0,0-.223.9,5.135,5.135,0,0,0,.287,2.212,8.458,8.458,0,0,1,.256,5.059,9.4,9.4,0,0,0-.352,2.832c.208,1.74.625,2.287,1.994,2.767a13.445,13.445,0,0,1,1.473.515,3.34,3.34,0,0,1,2.223,3.058.353.353,0,0,0,.23.241,13.223,13.223,0,0,0,1.921.311c1.173.049,2.352.055,3.524,0a17.45,17.45,0,0,0,2.217-.336c.1-.018.252-.158.256-.247a3.04,3.04,0,0,1,1.7-2.713c.734-.388,1.523-.673,2.289-1a2.217,2.217,0,0,0,1.252-.933,4.485,4.485,0,0,0,.462-2.691c-.153-1.128-.425-2.242-.535-3.373a9.363,9.363,0,0,1,.092-2.328c.118-.753.466-1.471.584-2.225a2.616,2.616,0,0,0-.218-2.027Zm-17.736,15.633a14.069,14.069,0,0,1,.509,1.486,6.637,6.637,0,0,1,.293,2.009,8.236,8.236,0,0,0,.078,2.846,5.056,5.056,0,0,0,3.292,3.752,10.175,10.175,0,0,0,4.184.44,6.539,6.539,0,0,0,2.986-.827,5.344,5.344,0,0,0,2.656-5.535,6.326,6.326,0,0,1,.2-2.563c.171-.554.371-1.1.558-1.648l-.083-.078c-.167.156-.408.28-.489.472a13.926,13.926,0,0,0-1.186,4.307,2.074,2.074,0,0,1-1.049,1.653c-.073.048-.148.092-.223.136a7.26,7.26,0,0,1-3.668.984,19.741,19.741,0,0,1-2.983-.219,5.213,5.213,0,0,1-2.951-1.481,1.179,1.179,0,0,1-.363-.769,16.133,16.133,0,0,0-1.27-4.69A.42.42,0,0,0,314.481,7427.676Zm14.81,3.379c.15-.062.25-.1.345-.144l6.776-3.191a2.609,2.609,0,0,1,1.9-.191,3.652,3.652,0,0,0,1.891,0c.59-.137.706-.488.312-.927-.369-.413-.753-.816-1.158-1.193a1.083,1.083,0,0,1-.345-.763,12.913,12.913,0,0,0-.314-1.785c-.091-.381-.346-.469-.668-.262a2.4,2.4,0,0,0-1.061,1.153,6.052,6.052,0,0,1-.378.793,2.732,2.732,0,0,1-1.249,1.194c-1.753.839-3.5,1.7-5.239,2.56a.338.338,0,0,0-.161.146A7.977,7.977,0,0,0,329.291,7431.055Zm-14.914.042a2.287,2.287,0,0,0,0-.46c-.143-.6-.309-1.194-.453-1.793a.987.987,0,0,0-.62-.687c-1.6-.764-3.173-1.569-4.773-2.323a3.393,3.393,0,0,1-1.75-1.8c-.06-.14-.134-.273-.2-.409a1.967,1.967,0,0,0-.973-.925c-.33-.15-.489-.124-.625.217a3.172,3.172,0,0,0-.249,1.061,2.1,2.1,0,0,1-.877,1.936,3.5,3.5,0,0,0-.811.883c-.25.336-.181.506.216.658a3.381,3.381,0,0,0,1.856.12,3.327,3.327,0,0,1,2.108.1q2.382,1.132,4.763,2.269C312.763,7430.312,313.54,7430.692,314.377,7431.1Zm14.314,4.768a1.121,1.121,0,0,0,.1.065c1.282.665,2.546,1.365,3.85,1.982a3.722,3.722,0,0,1,1.926,1.98,2.6,2.6,0,0,0,.82,1.03c.582.467.842.38,1.019-.352a.608.608,0,0,0,.012-.1c.053-.484.121-.968.154-1.454a1.059,1.059,0,0,1,.4-.777c.443-.384.879-.779,1.288-1.2.269-.276.221-.456-.113-.638a2.184,2.184,0,0,0-1.755-.211,3.1,3.1,0,0,1-2.368-.195c-1.467-.7-2.951-1.374-4.429-2.057a1.8,1.8,0,0,0-.2-.074Zm-14.38-2.045c-.064.033-.13.068-.2.1-1.586.754-3.168,1.516-4.762,2.255a2.593,2.593,0,0,1-1.881.1,2.812,2.812,0,0,0-1.657-.039.5.5,0,0,0-.291.833,2.8,2.8,0,0,0,.313.332c.345.332.706.648,1.034,1a1.1,1.1,0,0,1,.273.526c.106.6.167,1.2.255,1.805.076.524.4.657.822.335a1.311,1.311,0,0,0,.277-.274c.4-.578.784-1.172,1.2-1.74a2.308,2.308,0,0,1,.668-.69c1.493-.82,3.007-1.6,4.513-2.4a1.211,1.211,0,0,0,.131-.086Zm2.895-.535c0-.947,0-1.848,0-2.749,0-.062-.049-.164-.1-.179-.238-.075-.222-.256-.226-.446a2.2,2.2,0,0,0-1.365-1.794c.023.07.04.129.063.187a15.862,15.862,0,0,1,1.054,3.982C316.675,7432.669,316.7,7433.076,317.206,7433.285Zm10.9-5.114a2.2,2.2,0,0,0-1.213,1.84.332.332,0,0,1-.159.244c-.2.088-.223.234-.219.422.015.784.022,1.567.033,2.351,0,.079.014.158.021.237l.1.034a2.98,2.98,0,0,0,.29-.608c.23-1.014.417-2.037.656-3.048C327.724,7429.164,327.92,7428.706,328.1,7428.171Zm-7.216,2.915v1.726c.188,0,.35-.012.509,0,.234.021.341-.052.321-.306s-.005-.5-.005-.749c0-.775,0-.775-.78-.7C320.92,7431.059,320.912,7431.069,320.885,7431.086Zm1.961,1.625v-1.644h-.8v1.065c0,.727,0,.727.724.619A.376.376,0,0,0,322.846,7432.711Zm.029.383c-.233,0-.4.009-.557,0-.214-.015-.29.072-.278.285.015.26,0,.521,0,.782,0,.592.054.64.651.529.068-.013.171-.11.173-.171C322.882,7434.052,322.875,7433.587,322.875,7433.094Zm1.363-.5c.281-.072.49-.118.694-.183.061-.019.149-.092.15-.143.012-.482.007-.965.007-1.453a4.7,4.7,0,0,0-.634.086c-.085.024-.2.135-.207.211C324.229,7431.587,324.238,7432.062,324.238,7432.6Zm-4.809-1.637-.845-.115c0,.49-.006.923.006,1.355a.258.258,0,0,0,.13.195c.218.08.446.133.709.207Zm1.417,2.157c0,.47-.005.921.005,1.371a.207.207,0,0,0,.122.157c.24.028.482.033.716.045v-1.531Zm3.409,1.338c.28-.088.5-.149.707-.229a.227.227,0,0,0,.135-.155c.011-.439.006-.878.006-1.353-.265.064-.477.1-.677.172a.286.286,0,0,0-.164.2C324.247,7433.516,324.255,7433.949,324.255,7434.453Zm-5.673-1.735c0,.473,0,.894,0,1.316,0,.056.034.146.074.161.234.086.473.155.764.246v-.8a4.425,4.425,0,0,0,0-.552.29.29,0,0,0-.162-.2C319.057,7432.825,318.845,7432.785,318.582,7432.718Zm1.9-1.668c-.148-.016-.268-.02-.384-.044-.258-.054-.357.038-.337.305.019.248,0,.5,0,.748,0,.671,0,.671.669.679.009,0,.018-.009.049-.026Zm2.753,1.677a3.245,3.245,0,0,0,.44-.054c.08-.021.208-.093.209-.145.016-.513.01-1.027.01-1.568l-.659.064Zm.654,1.8v-1.493a3.541,3.541,0,0,0-.491.007c-.064.01-.166.095-.168.147-.013.472-.007.944-.007,1.458Zm-3.4-1.421-.7-.084v1.494l.7.087Zm-2.948-.85c-.016.307-.033.566-.043.825-.022.561.151.773.765.908,0-.428.006-.849-.007-1.269a.284.284,0,0,0-.135-.192C317.949,7432.429,317.768,7432.358,317.537,7432.252Zm8.656-.028c-.248.12-.45.212-.645.317a.205.205,0,0,0-.1.143c-.008.435,0,.871,0,1.369a3.7,3.7,0,0,0,.532-.3.57.57,0,0,0,.21-.342C326.21,7433.032,326.193,7432.654,326.193,7432.224Zm-7.93-1.464-.73-.208c0,.3,0,.544,0,.79,0,.547.143.716.73.816Zm7.191-.013v1.535c.284-.224.625-.357.688-.572a4.46,4.46,0,0,0,.028-1.187Z" fill="url(#linear-gradient-5)"/>
        <g id="Grupo_56858" data-name="Grupo 56858">
          <path id="Trazado_102097" data-name="Trazado 102097" d="M313.521,7420.411a1.966,1.966,0,0,1,1.622-1.853c.962-.156,1.931-.272,2.9-.4a2.762,2.762,0,0,1,.771-.056,1.5,1.5,0,0,1,1.186,1.242,2.033,2.033,0,0,1-.182,1.543,11.787,11.787,0,0,1-1.781,2.563,2.008,2.008,0,0,1-2.915.123,2.74,2.74,0,0,1-.9-1.213c-.152-.44-.358-.861-.523-1.3A6.559,6.559,0,0,1,313.521,7420.411Z" fill="url(#linear-gradient-6)"/>
          <path id="Trazado_102098" data-name="Trazado 102098" d="M330.239,7420.463c-.193.511-.391,1.021-.579,1.534a3.484,3.484,0,0,1-1.017,1.56,2.1,2.1,0,0,1-2.5.283,4.274,4.274,0,0,1-.915-.964,23.553,23.553,0,0,1-1.338-2.078,1.969,1.969,0,0,1,.052-1.961,1.323,1.323,0,0,1,1.523-.716c.706.111,1.421.166,2.128.273a9.089,9.089,0,0,1,1.395.293,1.786,1.786,0,0,1,1.17,1.744Z" fill="url(#linear-gradient-7)"/>
          <path id="Trazado_102099" data-name="Trazado 102099" d="M321.546,7422.966c0,1.52,0,2.95,0,4.381a.274.274,0,0,1-.051.177,8.968,8.968,0,0,1-.888.856c-.358.274-.591.186-.8-.223a3.1,3.1,0,0,1-.237-1.62,4.372,4.372,0,0,1,1.14-2.8C320.94,7423.473,321.227,7423.255,321.546,7422.966Z" fill="url(#linear-gradient-8)"/>
          <path id="Trazado_102100" data-name="Trazado 102100" d="M322.167,7423.038a4.519,4.519,0,0,1,1.837,4.9c-.188.67-.561.775-1.093.322a7.459,7.459,0,0,1-.655-.679.522.522,0,0,1-.087-.2.469.469,0,0,1,0-.13Z" fill="url(#linear-gradient-9)"/>
        </g>
      </g>
    </g>
    <g id="Grupo_56865" data-name="Grupo 56865">
      <g id="Grupo_56863" data-name="Grupo 56863">
        <g id="Grupo_56862" data-name="Grupo 56862">
          <g id="Grupo_56861" data-name="Grupo 56861">
            <rect id="Rectángulo_8424" data-name="Rectángulo 8424" width="57.757" height="57.757" rx="4.448" transform="translate(362.891 7425.608) rotate(-45)" fill="#d61b22"/>
            <rect id="Rectángulo_8425" data-name="Rectángulo 8425" width="49.178" height="49.178" rx="10.497" transform="translate(368.958 7425.608) rotate(-45)" fill="url(#linear-gradient)"/>
          </g>
        </g>
      </g>
      <g id="Grupo_56864" data-name="Grupo 56864">
        <path id="Trazado_102101" data-name="Trazado 102101" d="M392.358,7426.05a3.2,3.2,0,0,1-.432.149c-.227.043-1.01-.692-.955-.914a.48.48,0,0,1,.283-.251c1.655-.619,3.314-1.227,4.973-1.837.392-.144.781-.3,1.178-.427a.381.381,0,0,0,.3-.379c.068-.881.156-1.761.223-2.643a.584.584,0,0,0-.091-.394,14.057,14.057,0,0,1-2.8-5.238,17.873,17.873,0,0,1-1.129-6.345,9.438,9.438,0,0,1,3.594-7.5c2.562-1.986,5.456-2.685,8.5-1.259a9.522,9.522,0,0,1,5.629,7.576,16.841,16.841,0,0,1-.8,7.521,15.012,15.012,0,0,1-2.73,5.433.592.592,0,0,0-.127.353c0,.837.035,1.674.035,2.51,0,.231.1.3.294.361q3.6,1.075,7.211,2.166c.069.258.04.439-.272.491a.4.4,0,0,0-.235.179c-.155.254-.293.52-.429.785a.717.717,0,0,1-1.123.325c-.09-.052-.178-.109-.3-.185-.113.37-.322.61-.627.609a6.674,6.674,0,0,1-.329.973.467.467,0,0,1-.672.214.485.485,0,0,0-.294.018c-.232.065-.456.164-.691.207a.312.312,0,0,1-.263-.154c-.06-.263-.19-.268-.387-.161a.859.859,0,0,1-1-.108,1.28,1.28,0,0,0-.473-.106c-.033.21-.152.459-.08.621.133.3.23.528-.1.734-.268.167-.522.094-.784-.206l-.571.2.061.041c-.152.163-.275.4-.461.473a.885.885,0,0,1-1-.156.5.5,0,0,1-.136-.644.328.328,0,0,0-.074-.471.977.977,0,0,1-.283-.984,5.265,5.265,0,0,0,.149-.663,1.346,1.346,0,0,0-.129-.466c-.014-.041-.093-.083-.085-.1.138-.387-.18-.449-.394-.614-.09-.069-.1-.275-.092-.417,0-.038.191-.065.293-.1a1.369,1.369,0,0,0,.49-.205c.05-.049-.088-.276-.116-.427-.021-.118-.055-.281,0-.358.251-.331.076-.568-.152-.777-.173-.158-.265-.283-.114-.514.038-.058-.033-.244-.107-.311-.551-.493-.577-.678-.162-1.295.128-.191.224-.34-.058-.56a1.051,1.051,0,0,1-.227-.761c.007-.3.02-.487-.3-.651s-.367-.554-.376-.914a2.062,2.062,0,0,0-.114-.457,2.424,2.424,0,0,0-.122-.427,3.429,3.429,0,0,0-.272-.419,1.418,1.418,0,0,0-.3.3c-.136.255-.269.531.077.749.035.021.076.091.065.117-.14.319.124.756-.3,1-.061.035-.081.234-.047.332a1.313,1.313,0,0,1-.357,1.6,1.026,1.026,0,0,0-.12.661c.006.263.078.515-.132.746-.041.045.006.245.072.294.086.064.287.108.342.057.309-.286.436-.083.546.174.151.352.082.5-.267.614a.413.413,0,0,0-.086.061c.054.142.114.291.169.442a.978.978,0,0,1-.409,1.211c-.1.044-.157.191-.206.3s-.044.237-.091.344c-.2.456-.2.455.058.848-.3.373-.294.371-.131.929a.751.751,0,0,1-.029.37,4.24,4.24,0,0,1-.171.5c-.034.086-.073.222-.133.236-.326.079-.418.349-.572.589-.085.134-.28.2-.425.293-.074-.159-.157-.315-.217-.48a.918.918,0,0,1-.005-.273.672.672,0,0,1-.727-.335c-.077-.112-.4-.115-.585-.072-.221.05-.4.116-.584-.079s-.285.006-.388.131a1.032,1.032,0,0,1-1.66-.022,2.4,2.4,0,0,1-.2-.522c-.9.021-.831-.044-1.063-.593a.764.764,0,0,0-.131.009c-.651.164-.9.072-1.22-.486a.528.528,0,0,0-.505-.286c-.319-.033-.613-.367-.9-.591C392.407,7426.3,392.4,7426.165,392.358,7426.05Z" fill="url(#linear-gradient-11)"/>
        <path id="Trazado_102102" data-name="Trazado 102102" d="M416.447,7439.337c-.931.227-1.612.011-1.714-1.16a.767.767,0,0,1-1.1.133.941.941,0,0,1-.342-.447c-.079-.186-.134-.24-.335-.142a.946.946,0,0,1-1.4-.383c-.152-.243-.288-.18-.416-.028-.245.291-.448.129-.635-.047a.382.382,0,0,1,.1-.613c.35-.163.218-.465.276-.707.013-.054-.12-.143-.186-.216-.2.364-.527-.514-.727.076a.414.414,0,0,1-.356.191,1.029,1.029,0,0,1-.592-.3c-.089-.126,0-.393.042-.589.017-.077.143-.123.2-.2a.518.518,0,0,0-.011-.664c-.164-.205-.382-.134-.54.007-.241.215-.477.356-.735.065-.22-.25-.134-.56.164-.8a6.371,6.371,0,0,1-.135-.766c-.022-.409.216-.609.626-.578.159.012.32,0,.5,0-.253-.622-.045-.948.593-1.042a.359.359,0,0,0,.241-.224,1.34,1.34,0,0,1,1.65-1.147c.318.035.641-.294,1.012-.324.033,0,.074-.165.078-.255a1.36,1.36,0,0,1,1.336-1.393.564.564,0,0,0,.627-.523.955.955,0,0,1,1.431-.549.283.283,0,0,0,.248.039.294.294,0,0,0,.094-.232c-.007-.367.144-.525.486-.426.26.075.419.029.5-.227a.324.324,0,0,1,.45-.231c1.164.354,2.349.657,3.482,1.093a4.67,4.67,0,0,1,2.386,2.47,1.128,1.128,0,0,1,.1.484c.023,1.387.041,2.774.042,4.161a.7.7,0,0,1-.184.461q-3.047,2.938-6.111,5.856a.677.677,0,0,1-1.1-.22A2.134,2.134,0,0,1,416.447,7439.337Z" fill="url(#linear-gradient-12)"/>
        <path id="Trazado_102103" data-name="Trazado 102103" d="M389.835,7426.476a1.131,1.131,0,0,0,.4-.079c.217-.15.352-.138.48.106.116.222.311.237.554.2a1.037,1.037,0,0,1,.491.146c.07.03.109.125.172.178.357.3.358.3.359.723a3.4,3.4,0,0,1,.45.062c.306.08.521.226.446.608a.431.431,0,0,0,.138.318,5.172,5.172,0,0,0,.5.4c.735-.468,1.361-.215,1.625.66.08.264.077.64.549.5.036-.011.146.126.177.21a4.969,4.969,0,0,1,.126.5c1.167-.3,1.485-.083,1.687,1.1.008.047.014.133.027.134.507.044.274.783.814.842.238.026.24.361.03.54-.4.345-.41.446-.071.874.254.319.273.541.062.724s-.487.111-.748-.188a.391.391,0,0,0-.3-.111.317.317,0,0,0-.208.2c-.069.307-.1.621-.162.983a.539.539,0,0,1,.275.763.665.665,0,0,1-.843.342.525.525,0,0,1-.265-.748c.083-.2.02-.286-.147-.358-.129-.055-.256-.114-.331-.147l-.59.615c.046.234.379.565,0,.886-.331.282-.664.166-1.051-.11a2.857,2.857,0,0,0-.269.837.766.766,0,0,1-.425.825c-.368.166-.754.314-1.106-.218a5.442,5.442,0,0,0-.262.588.888.888,0,0,1-1.339.6c-.043.062-.092.126-.134.193a.733.733,0,0,1-1.186.157q-2.985-3.024-5.957-6.06a.612.612,0,0,1-.146-.378c-.034-1.219-.051-2.438-.079-3.657a2.669,2.669,0,0,1,1.1-2.264,6.761,6.761,0,0,1,1.508-.884c1-.418,2.034-.762,3.056-1.13C389.642,7425.822,389.874,7426,389.835,7426.476Z" fill="url(#linear-gradient-13)"/>
        <path id="Trazado_102104" data-name="Trazado 102104" d="M405.348,7440.813c-.7-.423-.6-1-.307-1.594-.606-.062-.708-.209-.57-.743a.374.374,0,0,1,.4-.32c.526-.022.516-.032.546-.525.021-.334.272-.493.548-.6a.668.668,0,0,1,.774.224c.41.458.389.439.829.019a1.01,1.01,0,0,1,.635-.2c.212,0,.421.095.385.4-.005.047.169.165.26.164.976-.011,1.1.092,1.241,1.108a1.9,1.9,0,0,1,.408.007,1.182,1.182,0,0,1,.316.163c.064.038.129.126.182.117a.233.233,0,0,0,.138-.166.585.585,0,0,1,1.135-.06c.071.207.168.238.374.191a.894.894,0,0,1,1.2.711c.094.3.209.438.56.326.467-.15.519-.083.8.343a.552.552,0,0,0,.44.224.577.577,0,0,1,.658.31c.158.257.028.465-.175.658q-3.807,3.615-7.607,7.238l-4.153,3.953c-.129.123-.258.3-.444.1-.156-.166-.074-.306.077-.455.235-.231.214-.541-.03-.924.222-.177.211-.37.048-.6-.061-.087-.079-.307-.021-.358.225-.2.157-.383.059-.6a.907.907,0,0,1,.4-1.171,1.5,1.5,0,0,1,.4-2.379c-.524-.519-1-1.057-.46-1.834q-1.344-.549-.345-1.33c-.027-.069-.057-.143-.086-.218a.558.558,0,0,1,.248-.792.7.7,0,0,1,.92.212c.06.109.009.281,0,.424,0,.108-.051.24,0,.316a.284.284,0,0,0,.275.071c.071-.047.094-.186.111-.289a1.248,1.248,0,0,0-.238-.916A.916.916,0,0,1,405.348,7440.813Z" fill="url(#linear-gradient-14)"/>
        <path id="Trazado_102105" data-name="Trazado 102105" d="M402.18,7443.912c.152,0,.27-.01.386,0a.441.441,0,0,1,.359.73c-.053.091-.085.284-.034.332a.681.681,0,0,1,.05,1.037c.76.826.756.824.186,1.894a.451.451,0,0,0,0,.36,1.567,1.567,0,0,1-.353,2.229.893.893,0,0,0-.084.111c.528.417.548.509.207.962.319.439.318.465-.059.839.106.155.379.337-.027.526-.568-.551-1.151-1.113-1.729-1.678q-4.782-4.671-9.561-9.342c-.371-.362-.454-.666-.252-.963a1,1,0,0,1,1.191-.34.408.408,0,0,0,.1.013.816.816,0,0,0,.119-.147,1.229,1.229,0,0,1,1.829-.5c.2.132.3.1.355-.126.019-.081.045-.161.056-.244.078-.56.445-.822.971-.636.3.108.44.046.592-.231a.667.667,0,0,1,1.082-.186c.177.144.29.213.435-.055.215-.4.508-.455,1.2-.279-.053-.126-.1-.227-.138-.332a.715.715,0,0,1,.276-.85.531.531,0,0,1,.764.1.436.436,0,0,0,.392.048.648.648,0,0,1,.947.226c.054.065.215.064.324.055.15-.011.3-.1.442-.078a.574.574,0,0,1,.35.252c.036.064-.057.244-.138.325-.214.211-.264.37-.025.623a.552.552,0,0,1-.062.781c-.183.2-.22.316.048.492a.773.773,0,0,1,.151,1.279c-.207.23-.362.375.04.607.433.25.355.709-.116.907a.387.387,0,0,0-.273.469A6.325,6.325,0,0,1,402.18,7443.912Z" fill="url(#linear-gradient-15)"/>
        <path id="Trazado_102106" data-name="Trazado 102106" d="M405.807,7431.457a1.827,1.827,0,0,1-.48-.262.4.4,0,0,1,.044-.6.446.446,0,0,1,.643.038.56.56,0,0,0,.323.158.641.641,0,0,1,.7.525.618.618,0,0,1-1.213.238A.479.479,0,0,1,405.807,7431.457Z" fill="url(#linear-gradient-16)"/>
        <path id="Trazado_102107" data-name="Trazado 102107" d="M406.887,7435.493c-.022-.543.14-.8.515-.843a.583.583,0,0,1,.653.48c.068.38-.13.61-.647.742-.046.267-.14.538-.473.5a.57.57,0,0,1-.39-.292C406.416,7435.778,406.642,7435.609,406.887,7435.493Z" fill="url(#linear-gradient-17)"/>
        <path id="Trazado_102108" data-name="Trazado 102108" d="M403.114,7427.464c-.29-.386-.29-.69,0-.9a.554.554,0,0,1,.74.1c.214.272.129.59-.239.882.17.261.25.533-.051.751a.419.419,0,0,1-.584-.057C402.78,7428.034,402.825,7427.788,403.114,7427.464Z" fill="url(#linear-gradient-18)"/>
        <path id="Trazado_102109" data-name="Trazado 102109" d="M399.308,7432.526c-.247.065-.5.054-.576-.231-.036-.136.052-.426.136-.448a1.239,1.239,0,0,1,.648.081c.406-.141.731-.078.894.229a.564.564,0,0,1-.256.786C399.826,7433.107,399.542,7432.969,399.308,7432.526Z" fill="url(#linear-gradient-19)"/>
        <path id="Trazado_102110" data-name="Trazado 102110" d="M403.406,7440.53c-.182-.2-.336-.441-.083-.669a.544.544,0,0,1,.474-.082c.308.131.259.406.144.657.394.282.489.58.292.875a.562.562,0,0,1-.758.166C403.173,7441.288,403.145,7440.944,403.406,7440.53Z" fill="url(#linear-gradient-20)"/>
        <path id="Trazado_102111" data-name="Trazado 102111" d="M398.713,7429.573a.578.578,0,0,1,.579.558.573.573,0,1,1-1.146.013A.577.577,0,0,1,398.713,7429.573Z" fill="url(#linear-gradient-21)"/>
        <path id="Trazado_102112" data-name="Trazado 102112" d="M402.453,7436.6a.538.538,0,0,1,.018-1.076.555.555,0,0,1,.545.549A.544.544,0,0,1,402.453,7436.6Z" fill="url(#linear-gradient-22)"/>
        <path id="Trazado_102113" data-name="Trazado 102113" d="M399.461,7436.126a.46.46,0,0,1-.455.467.478.478,0,0,1-.485-.472.469.469,0,0,1,.5-.456A.448.448,0,0,1,399.461,7436.126Z" fill="url(#linear-gradient-23)"/>
        <path id="Trazado_102114" data-name="Trazado 102114" d="M402.648,7429.866a.408.408,0,0,1-.415-.436.415.415,0,0,1,.83-.012A.414.414,0,0,1,402.648,7429.866Z" fill="url(#linear-gradient-24)"/>
      </g>
    </g>
  </g>
</svg>
