<svg xmlns="http://www.w3.org/2000/svg" xmlns:xlink="http://www.w3.org/1999/xlink" width="276.522" height="276.521" viewBox="0 0 276.522 276.521">
  <defs>
    <linearGradient id="linear-gradient" x1="0.5" y1="1.042" x2="0.5" y2="-0.026" gradientUnits="objectBoundingBox">
      <stop offset="0" stop-color="#e6e6e6"/>
      <stop offset="0.42" stop-color="#fff"/>
    </linearGradient>
    <linearGradient id="linear-gradient-2" x1="0.5" y1="0.003" x2="0.5" y2="1.216" gradientUnits="objectBoundingBox">
      <stop offset="0.053" stop-color="#231f20"/>
      <stop offset="0.987" stop-color="#505052"/>
    </linearGradient>
    <linearGradient id="linear-gradient-3" x1="0.5" y1="-0.598" x2="0.5" y2="1.636" xlink:href="#linear-gradient-2"/>
    <linearGradient id="linear-gradient-4" x1="0.5" y1="-0.599" x2="0.5" y2="1.636" xlink:href="#linear-gradient-2"/>
    <linearGradient id="linear-gradient-5" x1="0.5" y1="-1.525" x2="0.5" y2="0.901" xlink:href="#linear-gradient-2"/>
    <linearGradient id="linear-gradient-6" x1="0.5" y1="-1.559" x2="0.5" y2="0.901" xlink:href="#linear-gradient-2"/>
  </defs>
  <g id="Grupo_56516" data-name="Grupo 56516" transform="translate(725.027 -4737.093)">
    <g id="Grupo_56511" data-name="Grupo 56511" transform="translate(-725.027 4737.093)">
      <g id="Grupo_56510" data-name="Grupo 56510" transform="translate(0 0)">
        <rect id="Rect치ngulo_8209" data-name="Rect치ngulo 8209" width="195.531" height="195.531" rx="7.849" transform="translate(0 138.261) rotate(-45)" fill="#d61b22"/>
        <rect id="Rect치ngulo_8210" data-name="Rect치ngulo 8210" width="166.487" height="166.487" rx="10.497" transform="translate(20.537 138.261) rotate(-45)" fill="url(#linear-gradient)"/>
      </g>
    </g>
    <g id="Grupo_56513" data-name="Grupo 56513" transform="translate(-652.935 4801.69)">
      <path id="Trazado_101606" data-name="Trazado 101606" d="M-598.95,4881.693a20.951,20.951,0,0,1-8.27,6.37,30.665,30.665,0,0,1-9.856,2.184,40.289,40.289,0,0,1-15.355-1.833,18.581,18.581,0,0,1-8.064-5.76,1.279,1.279,0,0,0-1.926-.361c-4.428,2.406-8.87,4.787-13.36,7.076a9,9,0,0,0-3.588,3.3,65.628,65.628,0,0,1-4.235,5.9,5.041,5.041,0,0,1-5.7,1.54,4.767,4.767,0,0,1-2.828-3.82c-.292-1.7-.342-3.445-.629-5.15a3.671,3.671,0,0,0-.923-1.791c-1.214-1.285-2.577-2.429-3.8-3.7a5.03,5.03,0,0,1-.432-6.66c1.015-1.4,2.567-1.6,4.066-1.918a11.156,11.156,0,0,1,5.762.439,6.374,6.374,0,0,0,4.747-.3c5.685-2.68,11.336-5.433,17-8.157.921-.442.539-1.291.516-1.961a1.447,1.447,0,0,0-.66-1.066q-12.154-5.9-24.346-11.718c-1.777-.852-3.592-.484-5.4-.162a14.216,14.216,0,0,1-8.022-.586c-3.221-1.311-4.115-3.939-2.187-6.829a13.738,13.738,0,0,1,3.091-3.417,5.518,5.518,0,0,0,2.162-4.644,15.2,15.2,0,0,1,.708-3.874c1.1-3.358,3.808-4.458,6.98-2.939a10.056,10.056,0,0,1,4.682,4.824,16.493,16.493,0,0,0,1.368,2.638,7.794,7.794,0,0,0,2.327,2.276c4.028,2.137,8.132,4.127,12.209,6.167a2.61,2.61,0,0,0,.508.093,13.327,13.327,0,0,1-3.479-7.324,23.775,23.775,0,0,1,.363-9.743,1.576,1.576,0,0,0-.272-1.238,34.692,34.692,0,0,1-7.84-15.847,32.633,32.633,0,0,1-.99-10.5c1.289-12.922,7.646-22.352,19.619-27.7a57.393,57.393,0,0,1,18.126-4.347,66.4,66.4,0,0,1,14.78.042,64.548,64.548,0,0,1,18.437,4.951c5.827,2.632,10.044,7.125,13.347,12.5a33.742,33.742,0,0,1,4.839,18.871,30,30,0,0,1-8.216,20.52,2.723,2.723,0,0,0-.716,2.917,20.543,20.543,0,0,1-.549,12.583,32.449,32.449,0,0,1-2.166,4.023c.315-.155.756-.375,1.2-.591,3.237-1.587,6.449-3.225,9.718-4.739a7.486,7.486,0,0,0,3.855-4.048,12.436,12.436,0,0,1,3.06-4.916c1.437-1.224,2.878-2.434,4.916-2.458a4.086,4.086,0,0,1,4.12,2.887c.585,2.226.913,4.518,1.4,6.769a3.238,3.238,0,0,0,.675,1.412c1.384,1.574,2.9,3.041,4.229,4.658a4.122,4.122,0,0,1-.762,6.157,9.406,9.406,0,0,1-3.49,1.494,13.107,13.107,0,0,1-6.748-.2,5.957,5.957,0,0,0-4.5.4q-12.174,5.727-24.325,11.5a1.365,1.365,0,0,0-.635.96c-.146,1.993-.125,2.012,1.679,2.848q8.1,3.755,16.219,7.493a5.319,5.319,0,0,0,3.985.252,11.382,11.382,0,0,1,8.483.446,4.775,4.775,0,0,1,3.1,3.46,4.119,4.119,0,0,1-1.1,3.66,47.984,47.984,0,0,1-4.064,3.886,3.4,3.4,0,0,0-1.155,2.367,37.061,37.061,0,0,1-1.218,6.342,4.037,4.037,0,0,1-5.844,2.336,10.906,10.906,0,0,1-5.489-5.666,9.894,9.894,0,0,0-5.027-5.3C-589.549,4886.647-594.186,4884.162-598.95,4881.693Zm13.926-83.193a14.63,14.63,0,0,1,1.566,3.223,18.974,18.974,0,0,1-.721,10.33,22.841,22.841,0,0,0-1.65,9.8c.084,1.067.223,2.132.37,3.51a27.092,27.092,0,0,0,4.254-6.495,30.147,30.147,0,0,0,1.55-20.6,29.029,29.029,0,0,0-13.872-18.481,41.735,41.735,0,0,0-9.237-3.475,54.26,54.26,0,0,0-15.085-2.39,78.505,78.505,0,0,0-12.877.866,49.15,49.15,0,0,0-13.621,3.822c-10.62,5.083-16.374,13.635-17.17,25.314a33.274,33.274,0,0,0,3.778,17.149c.823,1.658,1.867,3.208,2.809,4.806l.324-.135c.614-3.452,1-6.95-.165-10.339a31.181,31.181,0,0,1-2.109-10.85c.042-2.087.376-4.107,2.162-5.653l1.758,2.048a15.4,15.4,0,0,0-.756,3.034,17.442,17.442,0,0,0,.973,7.489c2.425,5.626,1.942,11.349.867,17.127-.591,3.172-1.583,6.311-1.191,9.588.7,5.892,2.114,7.743,6.75,9.366a45.507,45.507,0,0,1,4.987,1.745c4.306,2.1,7.472,5.1,7.527,10.35a1.183,1.183,0,0,0,.777.817,44.92,44.92,0,0,0,6.5,1.053c3.97.167,7.961.185,11.929,0a59.16,59.16,0,0,0,7.5-1.141c.341-.062.854-.536.867-.836a10.291,10.291,0,0,1,5.741-9.183c2.485-1.314,5.154-2.278,7.746-3.387,1.671-.713,3.35-1.425,4.24-3.16a15.159,15.159,0,0,0,1.564-9.109c-.518-3.819-1.439-7.59-1.811-11.418a31.62,31.62,0,0,1,.313-7.879c.4-2.551,1.575-4.982,1.978-7.534.355-2.258.771-4.684-.739-6.862Zm-60.046,52.922a47.8,47.8,0,0,1,1.725,5.033c.51,2.237,1.2,4.577.992,6.8-.3,3.26-.556,6.466.263,9.638,1.571,6.081,5.115,10.557,11.146,12.7a34.4,34.4,0,0,0,14.164,1.49,22.132,22.132,0,0,0,10.11-2.8c7.571-4.6,9.741-11.267,8.991-18.736a21.417,21.417,0,0,1,.669-8.678c.582-1.875,1.257-3.721,1.89-5.579l-.282-.263c-.564.526-1.378.948-1.654,1.6a47.125,47.125,0,0,0-4.018,14.582,7.01,7.01,0,0,1-3.55,5.595c-.246.162-.5.312-.754.459a24.607,24.607,0,0,1-12.418,3.334,66.671,66.671,0,0,1-10.1-.743,17.639,17.639,0,0,1-9.992-5.015,3.973,3.973,0,0,1-1.228-2.6,54.766,54.766,0,0,0-4.3-15.877A1.428,1.428,0,0,0-645.07,4851.422Zm50.138,11.441c.508-.212.846-.335,1.17-.487q11.472-5.4,22.94-10.805a8.843,8.843,0,0,1,6.431-.647,12.339,12.339,0,0,0,6.4.008c2-.46,2.393-1.65,1.061-3.137-1.253-1.4-2.552-2.76-3.922-4.04a3.653,3.653,0,0,1-1.168-2.583,43.705,43.705,0,0,0-1.063-6.043c-.309-1.289-1.172-1.586-2.262-.888a8.123,8.123,0,0,0-3.59,3.906,20.22,20.22,0,0,1-1.284,2.683,9.256,9.256,0,0,1-4.227,4.044c-5.935,2.84-11.829,5.762-17.735,8.664a1.135,1.135,0,0,0-.545.5A27.036,27.036,0,0,0-594.932,4862.863Zm-50.489.141a7.712,7.712,0,0,0-.014-1.555c-.485-2.031-1.048-4.042-1.531-6.071a3.353,3.353,0,0,0-2.1-2.326c-5.4-2.586-10.741-5.311-16.159-7.865a11.476,11.476,0,0,1-5.925-6.1c-.2-.473-.451-.926-.685-1.385a6.648,6.648,0,0,0-3.293-3.132c-1.117-.508-1.654-.419-2.115.736a10.712,10.712,0,0,0-.842,3.592c-.061,2.651-.516,4.946-2.972,6.556a11.9,11.9,0,0,0-2.746,2.986c-.842,1.137-.612,1.714.735,2.229a11.445,11.445,0,0,0,6.282.407c2.4-.439,4.806-.779,7.136.329q8.067,3.835,16.125,7.682C-650.886,4860.349-648.255,4861.632-645.421,4863Zm48.461,16.144a3.827,3.827,0,0,0,.351.218c4.338,2.251,8.619,4.623,13.036,6.708a12.609,12.609,0,0,1,6.516,6.705,8.883,8.883,0,0,0,2.777,3.49c1.972,1.578,2.851,1.283,3.452-1.194a2.56,2.56,0,0,0,.042-.329c.178-1.64.407-3.276.518-4.921a3.6,3.6,0,0,1,1.347-2.633c1.5-1.3,2.978-2.636,4.363-4.055.909-.935.746-1.545-.384-2.158a7.38,7.38,0,0,0-5.94-.714,10.514,10.514,0,0,1-8.016-.663c-4.97-2.383-9.993-4.652-14.995-6.963a6.49,6.49,0,0,0-.691-.249Zm-48.683-6.923c-.219.11-.441.229-.67.338-5.37,2.551-10.728,5.134-16.121,7.633a8.784,8.784,0,0,1-6.368.326,9.523,9.523,0,0,0-5.61-.132,1.689,1.689,0,0,0-.984,2.822,9.488,9.488,0,0,0,1.057,1.122c1.168,1.125,2.393,2.193,3.5,3.373a3.715,3.715,0,0,1,.927,1.781c.359,2.024.566,4.076.861,6.111.257,1.77,1.372,2.221,2.784,1.132a4.373,4.373,0,0,0,.938-.926c1.362-1.957,2.654-3.967,4.06-5.891a7.842,7.842,0,0,1,2.258-2.335c5.054-2.777,10.181-5.422,15.279-8.117a3.452,3.452,0,0,0,.443-.293Zm9.8-1.813c0-3.206.006-6.256-.015-9.3a.777.777,0,0,0-.328-.609c-.808-.253-.75-.864-.766-1.507a7.45,7.45,0,0,0-4.62-6.073c.079.234.136.437.211.631a53.72,53.72,0,0,1,3.571,13.482C-637.641,4868.325-637.56,4869.7-635.841,4870.411Zm36.883-17.311c-2.573,1.55-3.958,3.487-4.11,6.23a1.125,1.125,0,0,1-.535.826c-.689.294-.756.791-.744,1.429.054,2.651.075,5.305.113,7.956,0,.268.048.535.073.8l.34.115a10.091,10.091,0,0,0,.984-2.062c.777-3.43,1.408-6.9,2.218-10.318C-600.236,4856.461-599.572,4854.909-598.958,4853.1Zm-24.431,9.868v5.841c.635,0,1.184-.04,1.723.011.792.073,1.155-.175,1.086-1.036-.067-.84-.015-1.69-.015-2.535,0-2.624,0-2.624-2.642-2.373C-623.268,4862.877-623.3,4862.911-623.389,4862.968Zm6.641,5.5V4862.9h-2.719v3.6c0,2.459,0,2.459,2.45,2.1A1.211,1.211,0,0,0-616.748,4868.469Zm.1,1.3c-.789,0-1.339.031-1.886-.008-.725-.053-.98.242-.94.962.05.881.012,1.765.012,2.648,0,2.005.18,2.168,2.2,1.792.234-.044.581-.375.587-.582C-616.629,4873.006-616.652,4871.435-616.652,4869.765Zm4.614-1.69c.952-.244,1.66-.4,2.349-.617.207-.068.507-.314.51-.485.038-1.632.023-3.267.023-4.921a15.6,15.6,0,0,0-2.147.294c-.288.078-.691.456-.7.71C-612.068,4864.665-612.038,4866.272-612.038,4868.075Zm-16.28-5.542-2.862-.387c0,1.66-.019,3.125.021,4.585a.879.879,0,0,0,.441.661c.739.272,1.51.449,2.4.7Zm4.8,7.3c0,1.593-.015,3.12.017,4.646a.7.7,0,0,0,.415.529c.81.1,1.631.111,2.425.152v-5.18Zm11.541,4.532c.948-.3,1.685-.5,2.395-.772a.787.787,0,0,0,.457-.528c.038-1.484.021-2.969.021-4.581-.9.219-1.616.347-2.293.583a.961.961,0,0,0-.555.663C-612.005,4871.193-611.98,4872.659-611.98,4874.366Zm-19.206-5.872c0,1.6-.01,3.028.012,4.453,0,.191.115.495.251.545.789.292,1.6.524,2.586.835,0-1.1,0-1.9,0-2.7a15.526,15.526,0,0,0-.01-1.867.979.979,0,0,0-.549-.663C-629.577,4868.854-630.294,4868.718-631.186,4868.494Zm6.424-5.647c-.5-.055-.907-.07-1.3-.15-.875-.181-1.211.129-1.142,1.033.063.838.011,1.686.008,2.532-.01,2.271-.01,2.271,2.266,2.3.031,0,.059-.031.167-.088Zm9.319,5.675a10.854,10.854,0,0,0,1.491-.181c.271-.071.7-.314.708-.49.052-1.739.031-3.48.031-5.309l-2.23.216Zm2.216,6.083v-5.055a12.028,12.028,0,0,0-1.663.024c-.219.032-.562.318-.568.5-.044,1.6-.025,3.2-.025,4.934Zm-11.516-4.81-2.374-.287v5.058l2.374.294Zm-9.979-2.88c-.056,1.041-.113,1.916-.146,2.792-.073,1.9.512,2.618,2.588,3.075,0-1.451.021-2.875-.021-4.3a.965.965,0,0,0-.459-.648C-633.328,4867.516-633.942,4867.273-634.723,4866.914Zm29.3-.093c-.841.406-1.525.718-2.185,1.072a.711.711,0,0,0-.347.484c-.027,1.475-.015,2.95-.015,4.638a12.276,12.276,0,0,0,1.8-1.029,1.923,1.923,0,0,0,.712-1.157C-605.361,4869.557-605.418,4868.275-605.418,4866.821Zm-26.848-4.958-2.471-.7c0,1.008,0,1.843,0,2.677-.012,1.849.485,2.424,2.471,2.76Zm24.345-.042v5.195c.963-.757,2.118-1.209,2.331-1.934a15.153,15.153,0,0,0,.094-4.019Z" transform="translate(687.454 -4770.76)" fill="url(#linear-gradient-2)"/>
      <g id="Grupo_56512" data-name="Grupo 56512" transform="translate(39.135 48.212)">
        <path id="Trazado_101607" data-name="Trazado 101607" d="M-667.057,4803.746a6.659,6.659,0,0,1,5.491-6.277c3.258-.528,6.537-.917,9.81-1.348a9.248,9.248,0,0,1,2.611-.189c2.343.377,3.4,2.109,4.014,4.2a6.9,6.9,0,0,1-.616,5.225,39.923,39.923,0,0,1-6.03,8.673c-2.665,2.961-6.625,3.11-9.87.418a9.266,9.266,0,0,1-3.043-4.108c-.514-1.49-1.214-2.915-1.773-4.391A21.965,21.965,0,0,1-667.057,4803.746Z" transform="translate(667.057 -4795.887)" fill="url(#linear-gradient-3)"/>
        <path id="Trazado_101608" data-name="Trazado 101608" d="M-626.877,4803.913c-.654,1.73-1.326,3.456-1.961,5.193a11.8,11.8,0,0,1-3.442,5.283c-2.554,2.124-6.167,2.67-8.475.959a14.7,14.7,0,0,1-3.1-3.266,79.676,79.676,0,0,1-4.528-7.036,6.66,6.66,0,0,1,.177-6.636,4.479,4.479,0,0,1,5.156-2.426c2.39.378,4.81.564,7.2.925a31.012,31.012,0,0,1,4.722.992,6.044,6.044,0,0,1,3.96,5.907Z" transform="translate(683.475 -4795.882)" fill="url(#linear-gradient-4)"/>
        <path id="Trazado_101609" data-name="Trazado 101609" d="M-649.669,4804.49c0,5.144,0,9.986-.008,14.829a.933.933,0,0,1-.171.6,30.251,30.251,0,0,1-3.007,2.9c-1.213.927-2,.63-2.723-.753a10.513,10.513,0,0,1-.8-5.484,14.773,14.773,0,0,1,3.861-9.479A38.378,38.378,0,0,1-649.669,4804.49Z" transform="translate(676.836 -4787.982)" fill="url(#linear-gradient-5)"/>
        <path id="Trazado_101610" data-name="Trazado 101610" d="M-651.8,4804.616a15.3,15.3,0,0,1,6.219,16.584c-.637,2.269-1.9,2.628-3.7,1.09a25.418,25.418,0,0,1-2.218-2.3,1.769,1.769,0,0,1-.294-.679,1.6,1.6,0,0,1-.006-.439Z" transform="translate(681.065 -4787.868)" fill="url(#linear-gradient-6)"/>
      </g>
    </g>
  </g>
</svg>
