<svg xmlns="http://www.w3.org/2000/svg" xmlns:xlink="http://www.w3.org/1999/xlink" width="251.998" height="251.998" viewBox="0 0 251.998 251.998">
  <defs>
    <linearGradient id="linear-gradient" x1="0.5" y1="1.053" x2="0.5" y2="-0.036" gradientUnits="objectBoundingBox">
      <stop offset="0" stop-color="#e6e6e6"/>
      <stop offset="0.42" stop-color="#fff"/>
    </linearGradient>
    <linearGradient id="linear-gradient-2" x1="0.5" y1="0.877" x2="0.5" y2="0.05" gradientUnits="objectBoundingBox">
      <stop offset="0" stop-color="#231f20"/>
      <stop offset="0.903" stop-color="#505052"/>
    </linearGradient>
    <linearGradient id="linear-gradient-4" x1="0.5" y1="0.877" x2="0.5" y2="0.05" xlink:href="#linear-gradient-2"/>
    <linearGradient id="linear-gradient-7" x1="2.867" y1="0.877" x2="2.867" y2="0.05" xlink:href="#linear-gradient-2"/>
  </defs>
  <g id="Grupo_56443" data-name="Grupo 56443" transform="translate(-888.676 -3218.957)">
    <g id="Grupo_56449" data-name="Grupo 56449" transform="translate(888.676 3218.958)">
      <g id="Grupo_56447" data-name="Grupo 56447">
        <g id="Grupo_56446" data-name="Grupo 56446">
          <rect id="Rect치ngulo_8163" data-name="Rect치ngulo 8163" width="178.19" height="178.19" rx="10.541" transform="translate(0 125.999) rotate(-45)" fill="#d61b22"/>
          <rect id="Rect치ngulo_8164" data-name="Rect치ngulo 8164" width="151.722" height="151.722" rx="10.497" transform="translate(18.716 125.999) rotate(-45)" fill="url(#linear-gradient)"/>
        </g>
      </g>
      <g id="Grupo_56448" data-name="Grupo 56448" transform="translate(51.157 57.194)">
        <path id="Trazado_101476" data-name="Trazado 101476" d="M927.967,3333.805l18.495,18.6h35.387v-18.6H970.481s-.464,2.531-4.669,2.139a4.627,4.627,0,0,1-4.276,2.495c-3.03-.143-4.954-3.243-4.954-3.243s-3.028.392-4.062-1.568H927.967Z" transform="translate(-927.967 -3241.521)" fill="url(#linear-gradient-2)"/>
        <path id="Trazado_101477" data-name="Trazado 101477" d="M958.193,3329.277h0l-3.746-7.746-3.42,7.615c-.038.082-.077.162-.109.247l-.047.1.012.008a3.928,3.928,0,1,0,7.309-.227Z" transform="translate(-921.12 -3245.174)" fill="url(#linear-gradient-2)"/>
        <path id="Trazado_101478" data-name="Trazado 101478" d="M954.17,3317.179h0l-3.747-7.746-3.419,7.616c-.039.082-.077.161-.111.246l-.047.1.012.008a3.929,3.929,0,1,0,7.311-.227Z" transform="translate(-922.335 -3248.828)" fill="url(#linear-gradient-4)"/>
        <path id="Trazado_101479" data-name="Trazado 101479" d="M1003.673,3303.521h0l-3.747-7.746-3.419,7.617c-.039.081-.077.16-.111.245l-.047.1.012.008a3.929,3.929,0,1,0,7.311-.227Z" transform="translate(-907.385 -3252.953)" fill="url(#linear-gradient-4)"/>
        <path id="Trazado_101480" data-name="Trazado 101480" d="M994.321,3298.309l-33.286-5.63-2.993-4.206-3.984-.268-4.14,22.221,4.875.64,2.394-2.636,35.424,6.414s8.695,2.353,10.691-6.414S994.321,3298.309,994.321,3298.309Zm6.182,9.551-25.283-.588-18.656-2.4-1.709,2.084h-1.016l2.725-14.7h.642l.962,3.422,33.516,5.72C1002.374,3302.354,1000.5,3307.86,1000.5,3307.86Z" transform="translate(-921.338 -3255.239)" fill="url(#linear-gradient-2)"/>
        <path id="Trazado_101481" data-name="Trazado 101481" d="M973.223,3272.99l33.284-5.63,2.993-4.206,3.984-.27,4.142,22.221-4.876.642-2.394-2.637-35.423,6.414s-8.695,2.353-10.691-6.414S973.223,3272.99,973.223,3272.99Zm-3.075,4.419,24.393.786,16.439,1.353,1.711,2.084h1.016l-2.726-14.7h-.642l-.962,3.422-33.516,5.72C970.594,3276.8,970.148,3277.409,970.148,3277.409Z" transform="translate(-917.085 -3262.885)" fill="url(#linear-gradient-7)"/>
        <path id="Trazado_101482" data-name="Trazado 101482" d="M1057.574,3335.266l-5.72.267-3.831-3.714a3.113,3.113,0,0,0-.818-1.345l-23.138-22.211a3.172,3.172,0,0,0-4.484.093l-1.34,1.395a3.173,3.173,0,0,0,.092,4.485l12.378,11.881-1.2-.258-13.043,1.764-.286.1a4.244,4.244,0,0,1,.161,1.148,4.493,4.493,0,0,1-4.561,4.419,4.556,4.556,0,0,1-4.273-2.884,3.559,3.559,0,0,1-3.032,1.6,3.365,3.365,0,0,1-3.45-2.743H983.192a3.171,3.171,0,0,0-3.172,3.172v.163a3.171,3.171,0,0,0,3.172,3.171h24.776v1.655H980.589a3.17,3.17,0,0,0-3.17,3.17v.163a3.17,3.17,0,0,0,3.17,3.171h27.378v.854H983.343a3.171,3.171,0,0,0-3.172,3.172v1.016a3.172,3.172,0,0,0,3.172,3.172h24.625v.846H990.319a3.171,3.171,0,0,0-3.172,3.171v.187a3.171,3.171,0,0,0,3.172,3.172H1044.1l18.655-17.354Z" transform="translate(-913.032 -3249.448)" fill="url(#linear-gradient-2)"/>
      </g>
    </g>
    <path id="Trazado_101483" data-name="Trazado 101483" d="M1000.65,3317.179h0l-3.746-7.746-3.42,7.616c-.039.082-.077.161-.111.246l-.047.1.013.008a3.928,3.928,0,1,0,7.309-.227Z" transform="translate(31.535 27.323)" fill="url(#linear-gradient-4)"/>
  </g>
</svg>
