<svg xmlns="http://www.w3.org/2000/svg" width="126" height="126" viewBox="0 0 126 126">
  <g id="Grupo_57242" data-name="Grupo 57242" transform="translate(-232 -19903.002)">
    <g id="Elipse_4075" data-name="Elipse 4075" transform="translate(232 19903.002)" fill="#fff" stroke="#09b291" stroke-width="5">
      <circle cx="63" cy="63" r="63" stroke="none"/>
      <circle cx="63" cy="63" r="60.5" fill="none"/>
    </g>
    <g id="Grupo_56684" data-name="Grupo 56684" transform="translate(-1329.438 19476.797)">
      <g id="Grupo_56683" data-name="Grupo 56683">
        <path id="Trazado_101909" data-name="Trazado 101909" d="M1618.044,513.041a1.163,1.163,0,1,0,1.163,1.163A1.164,1.164,0,0,0,1618.044,513.041Z" fill="#065949"/>
        <path id="Trazado_101910" data-name="Trazado 101910" d="M1628.862,510.329a1.164,1.164,0,1,0-1.163,1.163A1.164,1.164,0,0,0,1628.862,510.329Z" fill="#065949"/>
        <path id="Trazado_101911" data-name="Trazado 101911" d="M1623.616,513.69a1.163,1.163,0,1,0,1.163-1.163,1.163,1.163,0,0,0-1.163,1.163Z" fill="#065949"/>
        <path id="Trazado_101912" data-name="Trazado 101912" d="M1629.65,517.406a1.163,1.163,0,1,0,1.164,1.164,1.164,1.164,0,0,0-1.164-1.164Z" fill="#065949"/>
        <path id="Trazado_101913" data-name="Trazado 101913" d="M1629.65,523.984a1.163,1.163,0,1,0,1.164,1.163,1.163,1.163,0,0,0-1.164-1.163Z" fill="#065949"/>
        <path id="Trazado_101914" data-name="Trazado 101914" d="M1621.076,518.908a1.163,1.163,0,1,0,1.163-1.164A1.163,1.163,0,0,0,1621.076,518.908Z" fill="#065949"/>
        <path id="Trazado_101915" data-name="Trazado 101915" d="M1634.658,519.263a1.085,1.085,0,0,0-1.085,1.085v7.575a1.085,1.085,0,1,0,2.17,0v-7.575A1.085,1.085,0,0,0,1634.658,519.263Z" fill="#065949"/>
        <path id="Trazado_101916" data-name="Trazado 101916" d="M1612.421,465.714v23.207a1.086,1.086,0,0,0,2.171,0V459.545a2.441,2.441,0,0,1,4.882,0v29.376a1.085,1.085,0,1,0,2.17,0v-24.97a2.44,2.44,0,1,1,4.879,0v24.97a1.085,1.085,0,1,0,2.17,0V470.267a2.44,2.44,0,1,1,4.879,0v8.376a1.086,1.086,0,0,0,2.171,0v-8.376a4.608,4.608,0,0,0-7.05-3.911v-2.4a4.608,4.608,0,0,0-7.05-3.91v-.5a4.611,4.611,0,1,0-9.222,0V461.8a4.608,4.608,0,0,0-7.05,3.911v18.045l-.4-.778a4.61,4.61,0,1,0-8.184,4.245l8.587,16.552V508.7a1.085,1.085,0,0,0,2.17,0v-5.186a1.088,1.088,0,0,0-.122-.5l-8.709-16.786a2.44,2.44,0,1,1,4.331-2.247l2.452,4.725a1.085,1.085,0,0,0,2.048-.5V465.714a2.44,2.44,0,1,1,4.88,0Z" fill="#065949"/>
        <path id="Trazado_101917" data-name="Trazado 101917" d="M1606.456,512.78a1.085,1.085,0,0,0-1.085,1.085v14.058a1.085,1.085,0,1,0,2.17,0V513.865A1.084,1.084,0,0,0,1606.456,512.78Z" fill="#065949"/>
        <path id="Trazado_101918" data-name="Trazado 101918" d="M1661.055,492.072a15.377,15.377,0,0,0-25.312-1.679v-6.675a1.085,1.085,0,0,0-2.17,0v10.407a15.5,15.5,0,0,0-.648,1.967q-.182.711-.293,1.43a10.08,10.08,0,0,0-5.987,5.05c-2.8,5.363-5.095,5.8-7.6,5.8a8.2,8.2,0,0,0-6.283,2.365,7.179,7.179,0,0,0-1.656,5.683c.373,3.908,3.514,6.294,9.334,7.09,2.838.388,4.278,1.323,4.278,2.779a1.584,1.584,0,0,1-.358.977,1.085,1.085,0,1,0,1.725,1.315,3.713,3.713,0,0,0,.8-2.292c0-1.865-1.068-4.234-6.154-4.929-4.756-.651-7.2-2.334-7.468-5.147a5.079,5.079,0,0,1,1.1-4.016,6.127,6.127,0,0,1,4.677-1.655,8.626,8.626,0,0,0,4.857-1.235,14.39,14.39,0,0,0,4.667-5.731,7.831,7.831,0,0,1,3.871-3.664,15.253,15.253,0,0,0,.76,4.763l-2.682,4.226a1.085,1.085,0,0,0,.956,1.665l2.1-.076v4.79a1.086,1.086,0,0,0,2.171,0v-4.87l.817-.029a15.291,15.291,0,0,0,7.447,4.425,15.478,15.478,0,0,0,3.842.487,15.384,15.384,0,0,0,13.206-23.22Zm-.437,11.113a13.208,13.208,0,0,1-22.77,5.381,1.085,1.085,0,0,0-.82-.374h-.039l-3.532.129,1.857-2.926a1.082,1.082,0,0,0,.1-.955,13.209,13.209,0,1,1,25.2-1.256Z" fill="#065949"/>
        <path id="Trazado_101919" data-name="Trazado 101919" d="M1647.823,488.31a11.6,11.6,0,1,0,11.6,11.6,11.61,11.61,0,0,0-11.6-11.6Zm0,21.025a9.427,9.427,0,1,1,9.428-9.427,9.438,9.438,0,0,1-9.428,9.427Z" fill="#065949"/>
        <path id="Trazado_101920" data-name="Trazado 101920" d="M1651.423,495.255a3.266,3.266,0,1,0-3.266,3.266A3.27,3.27,0,0,0,1651.423,495.255Zm-4.362,0a1.1,1.1,0,1,1,1.1,1.1A1.1,1.1,0,0,1,1647.061,495.255Z" fill="#065949"/>
        <path id="Trazado_101921" data-name="Trazado 101921" d="M1651.356,499.4a3.266,3.266,0,1,0,3.266,3.266A3.27,3.27,0,0,0,1651.356,499.4Zm0,4.362a1.1,1.1,0,1,1,1.1-1.1A1.1,1.1,0,0,1,1651.356,503.766Z" fill="#065949"/>
        <path id="Trazado_101922" data-name="Trazado 101922" d="M1643.5,498.386a3.267,3.267,0,1,0,3.266,3.267A3.27,3.27,0,0,0,1643.5,498.386Zm0,4.363a1.1,1.1,0,1,1,1.1-1.1A1.1,1.1,0,0,1,1643.5,502.749Z" fill="#065949"/>
      </g>
    </g>
  </g>
</svg>
