<svg xmlns="http://www.w3.org/2000/svg" xmlns:xlink="http://www.w3.org/1999/xlink" width="87.174" height="87.169" viewBox="0 0 87.174 87.169">
  <defs>
    <linearGradient id="linear-gradient" x1="0.5" y1="1.045" x2="0.5" y2="-0.028" gradientUnits="objectBoundingBox">
      <stop offset="0" stop-color="#e6e6e6"/>
      <stop offset="0.42" stop-color="#fff"/>
    </linearGradient>
    <linearGradient id="linear-gradient-2" x1="0.5" y1="0.877" x2="0.5" y2="0.05" gradientUnits="objectBoundingBox">
      <stop offset="0" stop-color="#231f20"/>
      <stop offset="0.903" stop-color="#505052"/>
    </linearGradient>
    <linearGradient id="linear-gradient-3" x1="0.5" y1="0.877" x2="0.5" y2="0.05" xlink:href="#linear-gradient-2"/>
    <linearGradient id="linear-gradient-4" x1="0.5" y1="0.877" x2="0.5" y2="0.05" xlink:href="#linear-gradient-2"/>
    <linearGradient id="linear-gradient-7" x1="277.902" y1="0.877" x2="277.902" y2="0.05" xlink:href="#linear-gradient-2"/>
    <linearGradient id="linear-gradient-9" x1="0.5" y1="0.877" x2="0.5" y2="0.05" xlink:href="#linear-gradient-2"/>
  </defs>
  <g id="Grupo_56136" data-name="Grupo 56136" transform="translate(-774.535 -958.482)">
    <path id="Trazado_101229" data-name="Trazado 101229" d="M836.873,962.735a43.582,43.582,0,0,0-53.371,65.819h0a43.747,43.747,0,0,0,15.736,12.8v.011c.047.022.1.039.142.062s.085.045.129.066v-.01a43.6,43.6,0,0,0,45.229-4.91l.006,0L850.7,1031a43.647,43.647,0,0,0,6.754-10.171l0,0h0A43.583,43.583,0,0,0,836.873,962.735Z" fill="#098970"/>
    <g id="Grupo_56135" data-name="Grupo 56135">
      <g id="Grupo_56134" data-name="Grupo 56134">
        <g id="Grupo_56132" data-name="Grupo 56132">
          <g id="Grupo_56131" data-name="Grupo 56131">
            <rect id="Rect치ngulo_5390" data-name="Rect치ngulo 5390" width="58.33" height="58.33" rx="4.493" transform="translate(776.877 1002.067) rotate(-45)" fill="#d61b22"/>
            <rect id="Rect치ngulo_5391" data-name="Rect치ngulo 5391" width="49.666" height="49.666" rx="5.584" transform="translate(783.003 1002.067) rotate(-45)" fill="url(#linear-gradient)"/>
          </g>
        </g>
        <g id="Grupo_56133" data-name="Grupo 56133">
          <path id="Trazado_101230" data-name="Trazado 101230" d="M793.623,1009.753l6.054,6.089h11.584v-6.089H807.54s-.152.828-1.529.7a1.513,1.513,0,0,1-1.4.816,2.327,2.327,0,0,1-1.622-1.061s-.991.128-1.33-.514h-8.037Z" fill="url(#linear-gradient-2)"/>
          <path id="Trazado_101231" data-name="Trazado 101231" d="M805.759,1007.074h0l-1.226-2.536-1.12,2.493c-.012.027-.025.053-.036.081l-.015.034,0,0a1.259,1.259,0,0,0-.08.432,1.288,1.288,0,1,0,2.473-.507Z" fill="url(#linear-gradient-3)"/>
          <path id="Trazado_101232" data-name="Trazado 101232" d="M804.044,1001.918h0l-1.226-2.536-1.119,2.493c-.013.027-.026.053-.037.081l-.015.034,0,0a1.269,1.269,0,0,0-.08.433,1.289,1.289,0,1,0,2.473-.507Z" fill="url(#linear-gradient-4)"/>
          <path id="Trazado_101233" data-name="Trazado 101233" d="M825.142,996.1h0l-1.226-2.536-1.12,2.493c-.013.027-.025.053-.036.08l-.015.035,0,0a1.268,1.268,0,0,0-.08.432,1.288,1.288,0,1,0,2.472-.506Z" fill="url(#linear-gradient-4)"/>
          <path id="Trazado_101234" data-name="Trazado 101234" d="M817.514,993.643l-10.9-1.844-.98-1.376-1.3-.088-1.356,7.274,1.6.21.784-.863,11.6,2.1a2.753,2.753,0,0,0,3.5-2.1C821.107,994.086,817.514,993.643,817.514,993.643Zm2.024,3.126-8.277-.193-6.107-.787-.56.683h-.332l.892-4.813h.21l.315,1.12,10.971,1.873C820.15,994.967,819.538,996.769,819.538,996.769Z" fill="url(#linear-gradient-3)"/>
          <path id="Trazado_101235" data-name="Trazado 101235" d="M812,982.851l10.9-1.843.98-1.376,1.3-.088,1.356,7.274-1.6.21-.784-.864-11.6,2.1a2.753,2.753,0,0,1-3.5-2.1C808.406,983.295,812,982.851,812,982.851Zm-1.006,1.447,7.985.257,5.381.443.56.682h.332l-.892-4.812h-.21l-.315,1.12-10.971,1.872C811.138,984.1,810.993,984.3,810.993,984.3Z" fill="url(#linear-gradient-7)"/>
          <path id="Trazado_101236" data-name="Trazado 101236" d="M840.938,1007.635l-1.872.088-1.254-1.216a1.027,1.027,0,0,0-.268-.44L829.97,998.8a1.039,1.039,0,0,0-1.468.03l-.438.457a1.038,1.038,0,0,0,.03,1.468l4.052,3.889-.394-.084-4.27.577-.094.033a1.37,1.37,0,0,1,.053.375,1.47,1.47,0,0,1-1.493,1.447,1.491,1.491,0,0,1-1.4-.944,1.165,1.165,0,0,1-.992.524,1.1,1.1,0,0,1-1.13-.9h-5.838a1.038,1.038,0,0,0-1.038,1.038v.053a1.039,1.039,0,0,0,1.038,1.039H824.7v.541h-8.962a1.039,1.039,0,0,0-1.039,1.038v.054a1.039,1.039,0,0,0,1.039,1.038H824.7v.279h-8.061a1.038,1.038,0,0,0-1.038,1.038v.333a1.038,1.038,0,0,0,1.038,1.038H824.7v.277h-5.778a1.038,1.038,0,0,0-1.038,1.038v.062a1.038,1.038,0,0,0,1.038,1.038h17.607l6.106-5.681Z" fill="url(#linear-gradient-4)"/>
        </g>
      </g>
      <path id="Trazado_101237" data-name="Trazado 101237" d="M823.854,1001.918h0l-1.226-2.536-1.119,2.493a.816.816,0,0,0-.036.081l-.016.034,0,0a1.286,1.286,0,1,0,2.5.433A1.28,1.28,0,0,0,823.854,1001.918Z" fill="url(#linear-gradient-9)"/>
    </g>
  </g>
</svg>
