<svg id="Capa_1" data-name="Capa 1" xmlns="http://www.w3.org/2000/svg" xmlns:xlink="http://www.w3.org/1999/xlink" viewBox="0 0 289.76 294.09"><defs><style>.cls-1{fill:#d61b22;}.cls-2{fill:url(#Degradado_sin_nombre);}.cls-3{fill:url(#Degradado_sin_nombre_2);}.cls-4{fill:url(#Degradado_sin_nombre_3);}.cls-5{fill:#e94b46;}.cls-6{isolation:isolate;}.cls-7{fill:#fff;}</style><linearGradient id="Degradado_sin_nombre" x1="-811.2" y1="682.41" x2="-811.2" y2="683.51" gradientTransform="matrix(130.32, 0, 0, -130.32, 105862.36, 89111.82)" gradientUnits="userSpaceOnUse"><stop offset="0" stop-color="#e6e6e6"/><stop offset="0.42" stop-color="#fff"/></linearGradient><linearGradient id="Degradado_sin_nombre_2" x1="-804.03" y1="685.47" x2="-804.03" y2="686.3" gradientTransform="matrix(85.92, 0, 0, -106.8, 69232.84, 73339.04)" gradientUnits="userSpaceOnUse"><stop offset="0" stop-color="#231f20"/><stop offset="0.9" stop-color="#505052"/></linearGradient><linearGradient id="Degradado_sin_nombre_3" x1="-803.02" y1="638.07" x2="-803.02" y2="638.9" gradientTransform="matrix(77.7, 0, 0, -7.64, 62546.42, 5020.47)" xlink:href="#Degradado_sin_nombre_2"/></defs><g id="Grupo_57240" data-name="Grupo 57240"><g id="Grupo_57239" data-name="Grupo 57239"><g id="Grupo_56188" data-name="Grupo 56188"><g id="Grupo_56186" data-name="Grupo 56186"><g id="Grupo_56185" data-name="Grupo 56185"><rect id="Rectángulo_5402" data-name="Rectángulo 5402" class="cls-1" x="71.14" y="31.7" width="153.05" height="153.05" rx="11.79" transform="translate(-33.28 131.23) rotate(-45)"/><rect id="Rectángulo_5403" data-name="Rectángulo 5403" class="cls-2" x="82.5" y="43.07" width="130.32" height="130.32" rx="10.5" transform="translate(-33.28 131.23) rotate(-45)"/></g></g><g id="Grupo_56187" data-name="Grupo 56187"><path id="Trazado_101312" data-name="Trazado 101312" class="cls-3" d="M167.31,140.75s13.3-5.92,8.83-20.8c0,0-3-8.37-1.95-12.29,0,0-3.92-1.41-7.3,5.63a5.69,5.69,0,0,1-6.52,2.4s5.4-5.58,1.85-15.15a35.67,35.67,0,0,1-1.36-10s-2.64-.18-2.77,8.56-4.65,9.57-4.65,9.57,4-15.54-6.46-21.25c0,0,.84,5.88-1.66,15.1s1.44,18.83,1.44,18.83-5.79-.22-10.66-11.1a18.2,18.2,0,0,0-7.18-9.64s4.21,17.19-4.15,16.92a10.83,10.83,0,0,1-4.61-3.47s-7.84,12,2.57,21.91l6.78,4.74s-8,1.91-17.19-6.19c0,0-8.36-5.6-7.57-20.08,0,0,.13-8.23,5.07-19.89a15.56,15.56,0,0,0-.06-9.09s5.13-.72,11.65,7c0,0,.6-1.58-2.17-6.71,0,0-3.23-6.32,3.49-14.82,0,0,6.45-7.77,3-12.44,0,0,6.12,3,5.2,13.76,0,0-1.65,15.14,7.11,20.94,0,0-7.7-17.65-2.37-29.37,0,0,2.57-8.83,12.05-18.5,0,0,5.53-5.86,4.48-11.2,0,0,5.4,4.55.72,18s1.71,21.4,1.71,21.4-4.34-14.69,9.88-22.26c0,0-5.07,9.09.86,14.82S173.67,80.6,167.57,89c0,0,1.78.79,8.76-6.85,0,0,4.74-4.55,8.36-4.61,0,0-5.86,3.42-1.38,13s11.52,21.7,4,39.3C187.33,129.88,181.54,141.81,167.31,140.75Z" transform="translate(0 -4.88)"/><rect id="Rectángulo_5404" data-name="Rectángulo 5404" class="cls-4" x="109.36" y="139.56" width="77.7" height="7.64"/></g></g><path id="Trazado_2380" data-name="Trazado 2380" class="cls-5" d="M0,222.89H289.76V299H0Z" transform="translate(0 -4.88)"/></g><g id="LÍQUIDO_Y_VAPORES_EXTREMADAMENTE_INFLAMABLES" data-name="LÍQUIDO Y VAPORES EXTREMADAMENTE INFLAMABLES" class="cls-6"><g class="cls-6"><path class="cls-7" d="M74.68,269.42h5v1.89H72.34V259.93h2.34Z" transform="translate(0 -4.88)"/><path class="cls-7" d="M83.49,271.31H81.15V259.93h2.34Zm-.72-14.45h2.46l-2.17,2.42H81.23Z" transform="translate(0 -4.88)"/><path class="cls-7" d="M95,265.88a7,7,0,0,1-.51,2.77,4.78,4.78,0,0,1-1.43,1.88L94.94,272l-1.49,1.32L91,271.39a4.76,4.76,0,0,1-.86.07,4.67,4.67,0,0,1-2.52-.68,4.52,4.52,0,0,1-1.72-1.94,6.83,6.83,0,0,1-.62-2.9v-.56a6.89,6.89,0,0,1,.61-3,4.44,4.44,0,0,1,1.71-2,5,5,0,0,1,5.06,0,4.57,4.57,0,0,1,1.71,2,6.85,6.85,0,0,1,.6,2.95Zm-2.37-.52a4.86,4.86,0,0,0-.64-2.72,2.26,2.26,0,0,0-3.65,0,4.66,4.66,0,0,0-.65,2.69v.56a4.81,4.81,0,0,0,.64,2.7,2.24,2.24,0,0,0,3.66,0,4.83,4.83,0,0,0,.64-2.69Z" transform="translate(0 -4.88)"/><path class="cls-7" d="M105.32,259.93v7.49a3.85,3.85,0,0,1-1.17,3,5.27,5.27,0,0,1-6.35,0,3.81,3.81,0,0,1-1.2-2.9v-7.58H99v7.51a2.16,2.16,0,0,0,.53,1.63,2.06,2.06,0,0,0,1.48.51c1.32,0,2-.69,2-2.08v-7.57Z" transform="translate(0 -4.88)"/><path class="cls-7" d="M109.73,271.31h-2.34V259.93h2.34Z" transform="translate(0 -4.88)"/><path class="cls-7" d="M111.91,271.31V259.93h3.5a5.31,5.31,0,0,1,2.68.68,4.75,4.75,0,0,1,1.85,1.92,5.94,5.94,0,0,1,.66,2.83v.52a6,6,0,0,1-.65,2.82,4.67,4.67,0,0,1-1.84,1.92,5.45,5.45,0,0,1-2.68.69Zm2.34-9.48v7.59h1.13a2.53,2.53,0,0,0,2.1-.9,4,4,0,0,0,.75-2.57v-.6a4.14,4.14,0,0,0-.72-2.63,2.55,2.55,0,0,0-2.1-.89Z" transform="translate(0 -4.88)"/><path class="cls-7" d="M131.65,265.88a6.77,6.77,0,0,1-.6,2.94,4.37,4.37,0,0,1-1.69,1.95,4.72,4.72,0,0,1-2.54.69,4.67,4.67,0,0,1-2.52-.68,4.46,4.46,0,0,1-1.72-1.94,6.68,6.68,0,0,1-.62-2.9v-.56a6.75,6.75,0,0,1,.61-3,4.44,4.44,0,0,1,1.71-2,5,5,0,0,1,5.05,0,4.44,4.44,0,0,1,1.71,2,6.7,6.7,0,0,1,.61,2.95Zm-2.38-.52a4.77,4.77,0,0,0-.64-2.72,2.07,2.07,0,0,0-1.83-.93,2.11,2.11,0,0,0-1.82.92,4.75,4.75,0,0,0-.64,2.69v.56a4.81,4.81,0,0,0,.64,2.7,2.23,2.23,0,0,0,3.65,0,4.75,4.75,0,0,0,.64-2.69Z" transform="translate(0 -4.88)"/><path class="cls-7" d="M141.26,265.06l2.36-5.13h2.57l-3.74,7.25v4.13h-2.38v-4.13l-3.73-7.25h2.57Z" transform="translate(0 -4.88)"/><path class="cls-7" d="M155.41,268.49l2.58-8.56h2.61l-4,11.38H154.2l-3.95-11.38h2.6Z" transform="translate(0 -4.88)"/><path class="cls-7" d="M167.51,269H163.4l-.78,2.35h-2.5l4.24-11.38h2.17l4.26,11.38H168.3Zm-3.48-1.9h2.85l-1.43-4.25Z" transform="translate(0 -4.88)"/><path class="cls-7" d="M174.2,267.3v4h-2.35V259.93h4.44a5.17,5.17,0,0,1,2.25.47,3.48,3.48,0,0,1,1.5,1.33,3.72,3.72,0,0,1,.52,2,3.26,3.26,0,0,1-1.14,2.63,4.75,4.75,0,0,1-3.17,1Zm0-1.9h2.09a2.08,2.08,0,0,0,1.42-.44,1.61,1.61,0,0,0,.49-1.25,1.86,1.86,0,0,0-.5-1.35,1.84,1.84,0,0,0-1.36-.53H174.2Z" transform="translate(0 -4.88)"/><path class="cls-7" d="M191.52,265.88a6.77,6.77,0,0,1-.6,2.94,4.33,4.33,0,0,1-1.7,1.95,5,5,0,0,1-5.06,0,4.44,4.44,0,0,1-1.71-1.94,6.54,6.54,0,0,1-.62-2.9v-.56a6.89,6.89,0,0,1,.6-3,4.57,4.57,0,0,1,1.71-2,5,5,0,0,1,5.06,0,4.44,4.44,0,0,1,1.71,2,6.85,6.85,0,0,1,.61,2.95Zm-2.38-.52a4.77,4.77,0,0,0-.64-2.72,2.26,2.26,0,0,0-3.65,0,4.74,4.74,0,0,0-.65,2.69v.56a4.9,4.9,0,0,0,.64,2.7,2.09,2.09,0,0,0,1.85,1,2.06,2.06,0,0,0,1.81-.93,4.83,4.83,0,0,0,.64-2.69Z" transform="translate(0 -4.88)"/><path class="cls-7" d="M197.43,267.14h-1.87v4.17h-2.34V259.93h4.23a4.73,4.73,0,0,1,3.1.9,3.1,3.1,0,0,1,1.1,2.54,3.48,3.48,0,0,1-.51,1.94,3.4,3.4,0,0,1-1.52,1.24l2.46,4.65v.11h-2.52Zm-1.87-1.9h1.89a1.93,1.93,0,0,0,1.37-.45,1.6,1.6,0,0,0,.48-1.23,1.74,1.74,0,0,0-.45-1.27,1.89,1.89,0,0,0-1.4-.46h-1.89Z" transform="translate(0 -4.88)"/><path class="cls-7" d="M210.27,266.38h-4.5v3h5.28v1.89h-7.62V259.93H211v1.9h-5.27v2.71h4.5Z" transform="translate(0 -4.88)"/><path class="cls-7" d="M218.33,268.32a1.22,1.22,0,0,0-.47-1,6,6,0,0,0-1.69-.75,11.56,11.56,0,0,1-1.93-.78A3.14,3.14,0,0,1,212.3,263a2.78,2.78,0,0,1,.52-1.64,3.43,3.43,0,0,1,1.5-1.13,5.57,5.57,0,0,1,2.18-.41,5,5,0,0,1,2.17.45,3.42,3.42,0,0,1,1.48,1.24,3.3,3.3,0,0,1,.53,1.83h-2.34a1.51,1.51,0,0,0-.5-1.21,2,2,0,0,0-1.38-.44,2.2,2.2,0,0,0-1.34.36,1.18,1.18,0,0,0-.47,1,1.08,1.08,0,0,0,.56.93,6,6,0,0,0,1.64.7,7.19,7.19,0,0,1,2.92,1.5,3,3,0,0,1,.91,2.22,2.72,2.72,0,0,1-1.12,2.31,4.89,4.89,0,0,1-3,.84,5.83,5.83,0,0,1-2.39-.48,3.87,3.87,0,0,1-1.64-1.31,3.38,3.38,0,0,1-.57-1.94h2.35c0,1.25.75,1.88,2.25,1.88a2.17,2.17,0,0,0,1.31-.34A1.11,1.11,0,0,0,218.33,268.32Z" transform="translate(0 -4.88)"/></g><g class="cls-6"><path class="cls-7" d="M27,285.58h-4.5v3h5.28v1.89H20.19V279.13H27.8V281H22.53v2.71H27Z" transform="translate(0 -4.88)"/><path class="cls-7" d="M33.26,283.05l2.13-3.92h2.7l-3.32,5.64,3.4,5.74H35.45l-2.19-4-2.19,4H28.34l3.4-5.74-3.31-5.64h2.69Z" transform="translate(0 -4.88)"/><path class="cls-7" d="M47.91,281H44.43v9.48H42.09V281H38.65v-1.9h9.26Z" transform="translate(0 -4.88)"/><path class="cls-7" d="M53.46,286.34H51.59v4.17H49.25V279.13h4.23a4.78,4.78,0,0,1,3.11.9,3.12,3.12,0,0,1,1.09,2.54,3.56,3.56,0,0,1-.5,1.94,3.49,3.49,0,0,1-1.53,1.24l2.46,4.65v.11H55.59Zm-1.87-1.9h1.89a1.93,1.93,0,0,0,1.37-.45,1.61,1.61,0,0,0,.49-1.23,1.75,1.75,0,0,0-.46-1.27,1.89,1.89,0,0,0-1.4-.46H51.59Z" transform="translate(0 -4.88)"/><path class="cls-7" d="M66.3,285.58H61.8v3h5.29v1.89H59.46V279.13h7.61V281H61.8v2.71h4.5Z" transform="translate(0 -4.88)"/><path class="cls-7" d="M71.52,279.13l2.93,8.25,2.9-8.25h3.08v11.38H78.08V287.4l.23-5.37-3.07,8.48H73.63L70.57,282l.23,5.36v3.11H68.46V279.13Z" transform="translate(0 -4.88)"/><path class="cls-7" d="M88.9,288.16H84.79L84,290.51H81.52l4.23-11.38h2.17l4.26,11.38H89.69Zm-3.48-1.9h2.85L86.84,282Z" transform="translate(0 -4.88)"/><path class="cls-7" d="M93.24,290.51V279.13h3.5a5.35,5.35,0,0,1,2.69.68,4.73,4.73,0,0,1,1.84,1.92,5.83,5.83,0,0,1,.67,2.83v.52a6,6,0,0,1-.65,2.82,4.67,4.67,0,0,1-1.84,1.92,5.48,5.48,0,0,1-2.68.69ZM95.59,281v7.59h1.13a2.53,2.53,0,0,0,2.1-.9,4.05,4.05,0,0,0,.74-2.57v-.6a4.14,4.14,0,0,0-.72-2.63,2.55,2.55,0,0,0-2.1-.89Z" transform="translate(0 -4.88)"/><path class="cls-7" d="M110.06,288.16H106l-.78,2.35h-2.49l4.23-11.38h2.18l4.25,11.38h-2.49Zm-3.47-1.9h2.84L108,282Z" transform="translate(0 -4.88)"/><path class="cls-7" d="M117.47,279.13l2.92,8.25,2.91-8.25h3.08v11.38H124V287.4l.24-5.37-3.07,8.48h-1.61L116.52,282l.23,5.36v3.11h-2.34V279.13Z" transform="translate(0 -4.88)"/><path class="cls-7" d="M135.27,285.58h-4.5v3h5.28v1.89h-7.63V279.13H136V281h-5.26v2.71h4.5Z" transform="translate(0 -4.88)"/><path class="cls-7" d="M146.67,290.51h-2.34L139.77,283v7.49h-2.35V279.13h2.35l4.57,7.5v-7.5h2.33Z" transform="translate(0 -4.88)"/><path class="cls-7" d="M157.28,281H153.8v9.48h-2.35V281H148v-1.9h9.26Z" transform="translate(0 -4.88)"/><path class="cls-7" d="M165.46,285.58H161v3h5.28v1.89h-7.62V279.13h7.61V281H161v2.71h4.5Z" transform="translate(0 -4.88)"/><path class="cls-7" d="M174.09,290.51h-2.34V279.13h2.34Z" transform="translate(0 -4.88)"/><path class="cls-7" d="M185.52,290.51h-2.35L178.61,283v7.49h-2.34V279.13h2.34l4.57,7.5v-7.5h2.34Z" transform="translate(0 -4.88)"/><path class="cls-7" d="M194.41,285.86h-4.5v4.65h-2.35V279.13H195V281h-5.06V284h4.5Z" transform="translate(0 -4.88)"/><path class="cls-7" d="M198.67,288.62h5v1.89h-7.32V279.13h2.34Z" transform="translate(0 -4.88)"/><path class="cls-7" d="M211.56,288.16h-4.11l-.78,2.35h-2.49l4.23-11.38h2.18l4.25,11.38h-2.49Zm-3.47-1.9h2.84L209.5,282Z" transform="translate(0 -4.88)"/><path class="cls-7" d="M219,279.13l2.92,8.25,2.91-8.25h3.08v11.38h-2.36V287.4l.24-5.37-3.07,8.48h-1.61L218,282l.23,5.36v3.11h-2.34V279.13Z" transform="translate(0 -4.88)"/><path class="cls-7" d="M236.34,288.16h-4.11l-.78,2.35H229l4.24-11.38h2.17l4.25,11.38h-2.49Zm-3.47-1.9h2.84L234.28,282Z" transform="translate(0 -4.88)"/><path class="cls-7" d="M240.69,290.51V279.13h4a5.29,5.29,0,0,1,3.14.79,2.71,2.71,0,0,1,1.07,2.33,2.52,2.52,0,0,1-.43,1.47,2.36,2.36,0,0,1-1.19.93,2.42,2.42,0,0,1,1.38.89,2.63,2.63,0,0,1,.5,1.62,3,3,0,0,1-1,2.49,4.7,4.7,0,0,1-3,.86ZM243,283.9h1.74c1.18,0,1.77-.5,1.77-1.42a1.31,1.31,0,0,0-.45-1.11,2.34,2.34,0,0,0-1.42-.34H243Zm0,1.65v3.07h2a2,2,0,0,0,1.29-.39,1.36,1.36,0,0,0,.47-1.09,1.44,1.44,0,0,0-1.62-1.59Z" transform="translate(0 -4.88)"/><path class="cls-7" d="M253.24,288.62h5v1.89H250.9V279.13h2.34Z" transform="translate(0 -4.88)"/><path class="cls-7" d="M266.41,285.58h-4.5v3h5.28v1.89h-7.63V279.13h7.61V281h-5.26v2.71h4.5Z" transform="translate(0 -4.88)"/><path class="cls-7" d="M274.46,287.52a1.22,1.22,0,0,0-.47-1,5.86,5.86,0,0,0-1.69-.75,11.07,11.07,0,0,1-1.92-.78,3.13,3.13,0,0,1-1.94-2.82,2.72,2.72,0,0,1,.52-1.64,3.35,3.35,0,0,1,1.49-1.13,5.65,5.65,0,0,1,2.18-.41,5,5,0,0,1,2.17.45,3.51,3.51,0,0,1,1.49,1.24,3.29,3.29,0,0,1,.52,1.83h-2.34a1.54,1.54,0,0,0-.49-1.21,2,2,0,0,0-1.39-.44,2.1,2.1,0,0,0-1.33.37,1.14,1.14,0,0,0-.48,1,1.1,1.1,0,0,0,.56.93,6,6,0,0,0,1.64.7,7.13,7.13,0,0,1,2.92,1.5,3,3,0,0,1,.91,2.22,2.74,2.74,0,0,1-1.11,2.31,4.91,4.91,0,0,1-3,.84,5.8,5.8,0,0,1-2.39-.48,3.85,3.85,0,0,1-1.65-1.31,3.37,3.37,0,0,1-.56-1.94h2.35c0,1.25.75,1.88,2.25,1.88a2.14,2.14,0,0,0,1.3-.34A1.11,1.11,0,0,0,274.46,287.52Z" transform="translate(0 -4.88)"/></g></g><g id="PELIGRO" class="cls-6"><g class="cls-6"><path class="cls-7" d="M115.6,243.84v4.51H113v-12.8h5a5.75,5.75,0,0,1,2.53.53,3.86,3.86,0,0,1,1.69,1.5,4.2,4.2,0,0,1,.59,2.21,3.69,3.69,0,0,1-1.29,3,5.39,5.39,0,0,1-3.56,1.08Zm0-2.13H118a2.28,2.28,0,0,0,1.59-.5,1.77,1.77,0,0,0,.55-1.4,2.09,2.09,0,0,0-.55-1.52,2.05,2.05,0,0,0-1.53-.6H115.6Z" transform="translate(0 -4.88)"/><path class="cls-7" d="M132.28,242.8h-5.07v3.43h6v2.12h-8.58v-12.8h8.56v2.14h-5.93v3.05h5.07Z" transform="translate(0 -4.88)"/><path class="cls-7" d="M137.34,246.23h5.6v2.12H134.7v-12.8h2.64Z" transform="translate(0 -4.88)"/><path class="cls-7" d="M147.25,248.35h-2.63v-12.8h2.63Z" transform="translate(0 -4.88)"/><path class="cls-7" d="M159.82,246.73a4.48,4.48,0,0,1-2,1.32,8.29,8.29,0,0,1-2.88.48,5.78,5.78,0,0,1-2.92-.73,4.8,4.8,0,0,1-1.93-2.1,7.34,7.34,0,0,1-.7-3.25v-.87a7.74,7.74,0,0,1,.65-3.32,4.82,4.82,0,0,1,1.86-2.14,6.15,6.15,0,0,1,6.41.34,4.65,4.65,0,0,1,1.52,3.16h-2.57a2.53,2.53,0,0,0-.77-1.61,2.5,2.5,0,0,0-1.66-.51,2.35,2.35,0,0,0-2,1,5.37,5.37,0,0,0-.71,3v.82a5.07,5.07,0,0,0,.77,3,2.61,2.61,0,0,0,2.24,1,2.86,2.86,0,0,0,2.11-.64v-2.2h-2.39v-1.94h5Z" transform="translate(0 -4.88)"/><path class="cls-7" d="M166.69,243.67h-2.1v4.68H162v-12.8h4.75a5.41,5.41,0,0,1,3.5,1,3.51,3.51,0,0,1,1.23,2.86,3.91,3.91,0,0,1-.57,2.18,3.83,3.83,0,0,1-1.71,1.4l2.76,5.23v.12h-2.83Zm-2.1-2.14h2.13a2.17,2.17,0,0,0,1.54-.51,1.8,1.8,0,0,0,.54-1.39,1.93,1.93,0,0,0-.51-1.42,2.12,2.12,0,0,0-1.58-.52h-2.12Z" transform="translate(0 -4.88)"/><path class="cls-7" d="M184,242.24a7.76,7.76,0,0,1-.67,3.31,5,5,0,0,1-1.91,2.2,5.61,5.61,0,0,1-5.69,0,5.09,5.09,0,0,1-1.94-2.18,7.41,7.41,0,0,1-.69-3.27v-.63a7.62,7.62,0,0,1,.68-3.33,5,5,0,0,1,1.92-2.2,5.64,5.64,0,0,1,5.69,0,5,5,0,0,1,1.92,2.2,7.61,7.61,0,0,1,.69,3.32Zm-2.68-.58a5.4,5.4,0,0,0-.72-3.06,2.55,2.55,0,0,0-4.1,0,5.37,5.37,0,0,0-.73,3v.62a5.44,5.44,0,0,0,.72,3,2.34,2.34,0,0,0,2.07,1.08,2.3,2.3,0,0,0,2-1,5.3,5.3,0,0,0,.72-3Z" transform="translate(0 -4.88)"/></g></g></g></svg>