<svg id="Capa_1" data-name="Capa 1" xmlns="http://www.w3.org/2000/svg" viewBox="0 0 378.85 228.08"><defs><style>.cls-1{fill:#f94e4e;}.cls-2{isolation:isolate;}.cls-3{fill:#fff;}.cls-4{fill:#2d5b68;}.cls-5{fill:none;stroke:#f94e4e;stroke-miterlimit:10;stroke-width:3px;}.cls-6{fill:#e94b46;}</style></defs><g id="Grupo_56721" data-name="Grupo 56721"><rect id="Rectángulo_8280" data-name="Rectángulo 8280" class="cls-1" width="378.85" height="56.65" rx="3.91"/><g id="Codificación_de_las_indicaciones_de_peligro_y_los_consejos_de_prudencia_en_el_SGA" data-name="Codificación de las indicaciones de peligro y los consejos de prudencia en el SGA" class="cls-2"><g class="cls-2"><path class="cls-3" d="M26.74,20.24a4,4,0,0,1-1.35,2.88,4.73,4.73,0,0,1-3.2,1.05,4.26,4.26,0,0,1-3.43-1.47,6,6,0,0,1-1.24-4V18a6.85,6.85,0,0,1,.57-2.88,4.33,4.33,0,0,1,1.64-1.91,4.65,4.65,0,0,1,2.49-.66,4.59,4.59,0,0,1,3.15,1.05,4.32,4.32,0,0,1,1.39,2.95H24.43A2.36,2.36,0,0,0,23.82,15a2.27,2.27,0,0,0-1.6-.5,2,2,0,0,0-1.75.84,4.74,4.74,0,0,0-.59,2.59v.85a5.05,5.05,0,0,0,.55,2.69,2,2,0,0,0,1.76.84,2.3,2.3,0,0,0,1.61-.49,2.25,2.25,0,0,0,.61-1.53Z" transform="translate(0 0)"/><path class="cls-3" d="M27.78,19.73a5,5,0,0,1,.48-2.23A3.53,3.53,0,0,1,29.65,16a4.09,4.09,0,0,1,2.1-.53,3.82,3.82,0,0,1,2.78,1,4.24,4.24,0,0,1,1.2,2.83v.57A4.41,4.41,0,0,1,34.66,23a3.75,3.75,0,0,1-2.9,1.17A3.76,3.76,0,0,1,28.86,23a4.46,4.46,0,0,1-1.08-3.17Zm2.24.16a3.13,3.13,0,0,0,.45,1.83,1.47,1.47,0,0,0,1.29.64A1.5,1.5,0,0,0,33,21.73a3.47,3.47,0,0,0,.46-2A3.19,3.19,0,0,0,33,17.9a1.5,1.5,0,0,0-1.29-.64,1.47,1.47,0,0,0-1.28.64A3.51,3.51,0,0,0,30,19.89Z" transform="translate(0 0)"/><path class="cls-3" d="M36.78,19.75a5.09,5.09,0,0,1,.88-3.14,2.87,2.87,0,0,1,2.41-1.16,2.57,2.57,0,0,1,2,.91V12.07h2.26V24h-2l-.11-.89a2.64,2.64,0,0,1-2.16,1.05A2.87,2.87,0,0,1,37.67,23,5.3,5.3,0,0,1,36.78,19.75Zm2.24.16a3.29,3.29,0,0,0,.42,1.82,1.33,1.33,0,0,0,1.19.63,1.5,1.5,0,0,0,1.47-.88V18.15a1.49,1.49,0,0,0-1.45-.88C39.56,17.27,39,18.15,39,19.91Z" transform="translate(0 0)"/><path class="cls-3" d="M46.08,13.43a1.11,1.11,0,0,1,.34-.84,1.29,1.29,0,0,1,.92-.32,1.32,1.32,0,0,1,.92.32,1.2,1.2,0,0,1,0,1.68,1.45,1.45,0,0,1-1.82,0A1.12,1.12,0,0,1,46.08,13.43ZM48.47,24H46.21V15.6h2.26Z" transform="translate(0 0)"/><path class="cls-3" d="M50.93,24V17.25H49.68V15.6h1.25v-.71a2.91,2.91,0,0,1,.81-2.2A3.17,3.17,0,0,1,54,11.91a4.9,4.9,0,0,1,1.14.16l0,1.74a2.77,2.77,0,0,0-.69-.07c-.84,0-1.26.39-1.26,1.19v.67h1.67v1.65H53.19V24Z" transform="translate(0 0)"/><path class="cls-3" d="M56,13.43a1.11,1.11,0,0,1,.34-.84,1.47,1.47,0,0,1,1.83,0,1.18,1.18,0,0,1,0,1.68,1.29,1.29,0,0,1-.91.32,1.32,1.32,0,0,1-.92-.32A1.11,1.11,0,0,1,56,13.43ZM58.39,24H56.14V15.6h2.25Z" transform="translate(0 0)"/><path class="cls-3" d="M63.74,22.36a1.5,1.5,0,0,0,1-.34,1.22,1.22,0,0,0,.41-.91h2.1a2.85,2.85,0,0,1-.46,1.56,3.16,3.16,0,0,1-1.26,1.11,4,4,0,0,1-1.76.39A3.62,3.62,0,0,1,60.94,23a4.51,4.51,0,0,1-1-3.17v-.14a4.47,4.47,0,0,1,1-3.1,3.57,3.57,0,0,1,2.83-1.16,3.51,3.51,0,0,1,2.53.9,3.13,3.13,0,0,1,1,2.38h-2.1a1.53,1.53,0,0,0-.41-1.06,1.5,1.5,0,0,0-2.21.16,3.29,3.29,0,0,0-.4,1.86v.23a3.31,3.31,0,0,0,.4,1.87A1.35,1.35,0,0,0,63.74,22.36Z" transform="translate(0 0)"/><path class="cls-3" d="M73.42,24a2.37,2.37,0,0,1-.23-.75,2.7,2.7,0,0,1-2.12.91,3,3,0,0,1-2-.72,2.28,2.28,0,0,1-.81-1.8,2.37,2.37,0,0,1,1-2,4.84,4.84,0,0,1,2.87-.72h1v-.49a1.37,1.37,0,0,0-.3-.93,1.18,1.18,0,0,0-.94-.35,1.33,1.33,0,0,0-.89.27.92.92,0,0,0-.33.75H68.4a2.24,2.24,0,0,1,.45-1.35,3,3,0,0,1,1.27-1A4.59,4.59,0,0,1,72,15.45a3.68,3.68,0,0,1,2.47.78,2.72,2.72,0,0,1,.91,2.19v3.65a4,4,0,0,0,.34,1.81V24Zm-1.86-1.56a1.92,1.92,0,0,0,.92-.22,1.5,1.5,0,0,0,.62-.6V20.19h-.84c-1.12,0-1.72.39-1.8,1.16v.14a.91.91,0,0,0,.29.69A1.17,1.17,0,0,0,71.56,22.45Z" transform="translate(0 0)"/><path class="cls-3" d="M80.58,22.36a1.52,1.52,0,0,0,1-.34,1.21,1.21,0,0,0,.4-.91H84.1a2.86,2.86,0,0,1-.47,1.56,3.06,3.06,0,0,1-1.25,1.11,4,4,0,0,1-1.76.39A3.64,3.64,0,0,1,77.77,23a4.55,4.55,0,0,1-1-3.17v-.14a4.46,4.46,0,0,1,1-3.1,3.59,3.59,0,0,1,2.84-1.16,3.53,3.53,0,0,1,2.53.9,3.13,3.13,0,0,1,1,2.38H82a1.53,1.53,0,0,0-.4-1.06,1.36,1.36,0,0,0-1-.41,1.34,1.34,0,0,0-1.18.57,3.29,3.29,0,0,0-.4,1.86v.23a3.4,3.4,0,0,0,.39,1.87A1.38,1.38,0,0,0,80.58,22.36Z" transform="translate(0 0)"/><path class="cls-3" d="M85.37,13.43a1.14,1.14,0,0,1,.33-.84,1.32,1.32,0,0,1,.92-.32,1.3,1.3,0,0,1,.92.32,1.21,1.21,0,0,1,0,1.68,1.47,1.47,0,0,1-1.83,0A1.11,1.11,0,0,1,85.37,13.43ZM87.75,24H85.5V15.6h2.25Z" transform="translate(0 0)"/><path class="cls-3" d="M89.25,19.73a5,5,0,0,1,.48-2.23A3.65,3.65,0,0,1,91.12,16a4.15,4.15,0,0,1,2.1-.53,3.79,3.79,0,0,1,2.78,1,4.15,4.15,0,0,1,1.2,2.83l0,.57A4.41,4.41,0,0,1,96.14,23a4.18,4.18,0,0,1-5.8,0,4.42,4.42,0,0,1-1.09-3.17Zm2.25.16A3.13,3.13,0,0,0,92,21.72a1.61,1.61,0,0,0,2.56,0,3.39,3.39,0,0,0,.46-2,3.12,3.12,0,0,0-.46-1.83,1.47,1.47,0,0,0-1.29-.64A1.45,1.45,0,0,0,92,17.9,3.51,3.51,0,0,0,91.5,19.89Zm2.17-7.82h2.45L94,14.48H92.14Z" transform="translate(0 0)"/><path class="cls-3" d="M100.67,15.6l.07,1a2.94,2.94,0,0,1,2.42-1.12,2.46,2.46,0,0,1,2,.78,3.72,3.72,0,0,1,.67,2.35V24h-2.25V18.63a1.43,1.43,0,0,0-.31-1,1.37,1.37,0,0,0-1-.33,1.55,1.55,0,0,0-1.43.81V24H98.56V15.6Z" transform="translate(0 0)"/><path class="cls-3" d="M111.13,19.75a5.09,5.09,0,0,1,.89-3.14,2.86,2.86,0,0,1,2.41-1.16,2.58,2.58,0,0,1,2,.91V12.07h2.25V24h-2l-.11-.89a2.64,2.64,0,0,1-2.16,1.05A2.85,2.85,0,0,1,112,23,5.23,5.23,0,0,1,111.13,19.75Zm2.25.16a3.38,3.38,0,0,0,.41,1.82,1.35,1.35,0,0,0,1.2.63,1.52,1.52,0,0,0,1.47-.88V18.15a1.5,1.5,0,0,0-1.46-.88Q113.38,17.27,113.38,19.91Z" transform="translate(0 0)"/><path class="cls-3" d="M124.32,24.17a4.13,4.13,0,0,1-3-1.14,4,4,0,0,1-1.16-3v-.22a5,5,0,0,1,.49-2.26A3.59,3.59,0,0,1,122,16a3.86,3.86,0,0,1,2-.54,3.47,3.47,0,0,1,2.72,1.09,4.4,4.4,0,0,1,1,3.08v.92h-5.35a2.08,2.08,0,0,0,.65,1.32,2,2,0,0,0,1.39.5,2.44,2.44,0,0,0,2-.94l1.1,1.23a3.35,3.35,0,0,1-1.36,1.12A4.49,4.49,0,0,1,124.32,24.17Zm-.25-6.91a1.42,1.42,0,0,0-1.09.45,2.43,2.43,0,0,0-.53,1.3h3.13v-.18a1.71,1.71,0,0,0-.41-1.16A1.46,1.46,0,0,0,124.07,17.26Z" transform="translate(0 0)"/><path class="cls-3" d="M135.39,24h-2.25V12.07h2.25Z" transform="translate(0 0)"/><path class="cls-3" d="M142.12,24a2.37,2.37,0,0,1-.23-.75,2.7,2.7,0,0,1-2.12.91,3,3,0,0,1-2.05-.72,2.28,2.28,0,0,1-.81-1.8,2.37,2.37,0,0,1,1-2,4.81,4.81,0,0,1,2.86-.72h1v-.49a1.37,1.37,0,0,0-.3-.93,1.2,1.2,0,0,0-.95-.35,1.37,1.37,0,0,0-.89.27.94.94,0,0,0-.32.75h-2.25a2.18,2.18,0,0,1,.46-1.35,3,3,0,0,1,1.27-1,4.59,4.59,0,0,1,1.85-.35,3.68,3.68,0,0,1,2.47.78,2.72,2.72,0,0,1,.91,2.19v3.65a4,4,0,0,0,.34,1.81V24Zm-1.86-1.56a1.92,1.92,0,0,0,.92-.22,1.5,1.5,0,0,0,.62-.6V20.19H141c-1.13,0-1.73.39-1.8,1.16v.14a.89.89,0,0,0,.3.69A1.17,1.17,0,0,0,140.26,22.45Z" transform="translate(0 0)"/><path class="cls-3" d="M150.33,21.69a.71.71,0,0,0-.41-.65,4.45,4.45,0,0,0-1.31-.42q-3-.63-3-2.55a2.31,2.31,0,0,1,.93-1.87,3.75,3.75,0,0,1,2.43-.75,4,4,0,0,1,2.56.75,2.38,2.38,0,0,1,1,2h-2.24a1.13,1.13,0,0,0-.31-.8,1.34,1.34,0,0,0-1-.31,1.27,1.27,0,0,0-.87.26.8.8,0,0,0-.32.65.68.68,0,0,0,.36.6,3.58,3.58,0,0,0,1.19.4,9.93,9.93,0,0,1,1.42.37,2.34,2.34,0,0,1,1.78,2.27,2.21,2.21,0,0,1-1,1.86,4.3,4.3,0,0,1-2.55.71,4.48,4.48,0,0,1-1.88-.38,3.13,3.13,0,0,1-1.28-1,2.35,2.35,0,0,1-.47-1.42h2.13a1.2,1.2,0,0,0,.44.92,1.78,1.78,0,0,0,1.11.31,1.63,1.63,0,0,0,1-.24A.76.76,0,0,0,150.33,21.69Z" transform="translate(0 0)"/><path class="cls-3" d="M157.91,13.43a1.11,1.11,0,0,1,.34-.84,1.29,1.29,0,0,1,.92-.32,1.32,1.32,0,0,1,.92.32,1.15,1.15,0,0,1,.34.84,1.12,1.12,0,0,1-.35.84,1.45,1.45,0,0,1-1.82,0A1.12,1.12,0,0,1,157.91,13.43ZM160.3,24H158V15.6h2.26Z" transform="translate(0 0)"/><path class="cls-3" d="M164.21,15.6l.07,1a3,3,0,0,1,2.42-1.12,2.44,2.44,0,0,1,2,.78,3.66,3.66,0,0,1,.67,2.35V24h-2.25V18.63a1.43,1.43,0,0,0-.31-1,1.35,1.35,0,0,0-1-.33,1.54,1.54,0,0,0-1.42.81V24H162.1V15.6Z" transform="translate(0 0)"/><path class="cls-3" d="M170.71,19.75a5.15,5.15,0,0,1,.88-3.14A2.89,2.89,0,0,1,174,15.45a2.58,2.58,0,0,1,2,.91V12.07h2.25V24h-2l-.11-.89A2.64,2.64,0,0,1,174,24.17,2.85,2.85,0,0,1,171.61,23,5.23,5.23,0,0,1,170.71,19.75Zm2.25.16a3.38,3.38,0,0,0,.41,1.82,1.35,1.35,0,0,0,1.2.63,1.52,1.52,0,0,0,1.47-.88V18.15a1.5,1.5,0,0,0-1.46-.88Q173,17.27,173,19.91Z" transform="translate(0 0)"/><path class="cls-3" d="M180,13.43a1.14,1.14,0,0,1,.33-.84,1.33,1.33,0,0,1,.93-.32,1.29,1.29,0,0,1,.91.32,1.18,1.18,0,0,1,0,1.68,1.47,1.47,0,0,1-1.83,0A1.11,1.11,0,0,1,180,13.43ZM182.4,24h-2.25V15.6h2.25Z" transform="translate(0 0)"/><path class="cls-3" d="M187.75,22.36a1.5,1.5,0,0,0,1-.34,1.25,1.25,0,0,0,.41-.91h2.1a2.85,2.85,0,0,1-.46,1.56,3.16,3.16,0,0,1-1.26,1.11,4,4,0,0,1-1.76.39A3.66,3.66,0,0,1,184.94,23a4.55,4.55,0,0,1-1-3.17v-.14a4.47,4.47,0,0,1,1-3.1,3.57,3.57,0,0,1,2.83-1.16,3.51,3.51,0,0,1,2.53.9,3.13,3.13,0,0,1,1,2.38h-2.1a1.58,1.58,0,0,0-.41-1.06,1.5,1.5,0,0,0-2.21.16,3.29,3.29,0,0,0-.4,1.86v.23a3.31,3.31,0,0,0,.4,1.87A1.35,1.35,0,0,0,187.75,22.36Z" transform="translate(0 0)"/><path class="cls-3" d="M197.43,24a2.37,2.37,0,0,1-.23-.75,2.7,2.7,0,0,1-2.12.91,3,3,0,0,1-2.05-.72,2.28,2.28,0,0,1-.81-1.8,2.37,2.37,0,0,1,1-2,4.84,4.84,0,0,1,2.87-.72h1v-.49a1.37,1.37,0,0,0-.3-.93,1.18,1.18,0,0,0-.94-.35,1.33,1.33,0,0,0-.89.27.92.92,0,0,0-.33.75h-2.24a2.24,2.24,0,0,1,.45-1.35,3,3,0,0,1,1.27-1,4.59,4.59,0,0,1,1.85-.35,3.68,3.68,0,0,1,2.47.78,2.72,2.72,0,0,1,.91,2.19v3.65a4,4,0,0,0,.34,1.81V24Zm-1.86-1.56a1.92,1.92,0,0,0,.92-.22,1.5,1.5,0,0,0,.62-.6V20.19h-.84c-1.12,0-1.72.39-1.8,1.16v.14a.91.91,0,0,0,.29.69A1.17,1.17,0,0,0,195.57,22.45Z" transform="translate(0 0)"/><path class="cls-3" d="M204.59,22.36a1.52,1.52,0,0,0,1-.34,1.21,1.21,0,0,0,.4-.91h2.11a2.86,2.86,0,0,1-.47,1.56,3.06,3.06,0,0,1-1.25,1.11,4,4,0,0,1-1.76.39A3.64,3.64,0,0,1,201.78,23a4.55,4.55,0,0,1-1-3.17v-.14a4.46,4.46,0,0,1,1-3.1,3.59,3.59,0,0,1,2.84-1.16,3.53,3.53,0,0,1,2.53.9,3.13,3.13,0,0,1,1,2.38H206a1.53,1.53,0,0,0-.4-1.06,1.36,1.36,0,0,0-1-.41,1.34,1.34,0,0,0-1.18.57,3.29,3.29,0,0,0-.4,1.86v.23a3.4,3.4,0,0,0,.39,1.87A1.38,1.38,0,0,0,204.59,22.36Z" transform="translate(0 0)"/><path class="cls-3" d="M209.38,13.43a1.14,1.14,0,0,1,.33-.84,1.32,1.32,0,0,1,.92-.32,1.3,1.3,0,0,1,.92.32,1.21,1.21,0,0,1,0,1.68,1.47,1.47,0,0,1-1.83,0A1.11,1.11,0,0,1,209.38,13.43ZM211.76,24h-2.25V15.6h2.25Z" transform="translate(0 0)"/><path class="cls-3" d="M213.26,19.73a5,5,0,0,1,.48-2.23A3.59,3.59,0,0,1,215.13,16a4.12,4.12,0,0,1,2.1-.53,3.8,3.8,0,0,1,2.78,1,4.15,4.15,0,0,1,1.2,2.83l0,.57A4.41,4.41,0,0,1,220.15,23a4.18,4.18,0,0,1-5.8,0,4.42,4.42,0,0,1-1.09-3.17Zm2.25.16a3.13,3.13,0,0,0,.45,1.83,1.61,1.61,0,0,0,2.56,0,3.39,3.39,0,0,0,.46-2,3.12,3.12,0,0,0-.46-1.83,1.47,1.47,0,0,0-1.29-.64,1.45,1.45,0,0,0-1.27.64A3.51,3.51,0,0,0,215.51,19.89Z" transform="translate(0 0)"/><path class="cls-3" d="M224.68,15.6l.07,1a2.94,2.94,0,0,1,2.42-1.12,2.46,2.46,0,0,1,2,.78,3.78,3.78,0,0,1,.67,2.35V24h-2.25V18.63a1.43,1.43,0,0,0-.31-1,1.38,1.38,0,0,0-1-.33,1.55,1.55,0,0,0-1.42.81V24h-2.24V15.6Z" transform="translate(0 0)"/><path class="cls-3" d="M235.4,24.17a4.11,4.11,0,0,1-3-1.14,4,4,0,0,1-1.17-3v-.22a5.14,5.14,0,0,1,.49-2.26A3.59,3.59,0,0,1,233.1,16a3.9,3.9,0,0,1,2.05-.54,3.48,3.48,0,0,1,2.72,1.09,4.4,4.4,0,0,1,1,3.08v.92H233.5a2.09,2.09,0,0,0,.66,1.32,2,2,0,0,0,1.39.5,2.46,2.46,0,0,0,2-.94l1.1,1.23a3.38,3.38,0,0,1-1.37,1.12A4.41,4.41,0,0,1,235.4,24.17Zm-.26-6.91a1.4,1.4,0,0,0-1.08.45,2.28,2.28,0,0,0-.53,1.3h3.12v-.18a1.71,1.71,0,0,0-.4-1.16A1.47,1.47,0,0,0,235.14,17.26Z" transform="translate(0 0)"/><path class="cls-3" d="M244.69,21.69a.73.73,0,0,0-.41-.65,4.45,4.45,0,0,0-1.31-.42q-3-.63-3-2.55a2.31,2.31,0,0,1,.93-1.87,3.75,3.75,0,0,1,2.43-.75,4.06,4.06,0,0,1,2.56.75,2.38,2.38,0,0,1,1,2H244.6a1.09,1.09,0,0,0-.31-.8,1.65,1.65,0,0,0-1.85-.05.79.79,0,0,0-.31.65.69.69,0,0,0,.35.6,3.75,3.75,0,0,0,1.2.4,9.43,9.43,0,0,1,1.41.37,2.33,2.33,0,0,1,1.78,2.27,2.21,2.21,0,0,1-1,1.86,4.25,4.25,0,0,1-2.55.71,4.43,4.43,0,0,1-1.87-.38,3.1,3.1,0,0,1-1.29-1,2.41,2.41,0,0,1-.46-1.42h2.12a1.21,1.21,0,0,0,.45.92,1.75,1.75,0,0,0,1.1.31,1.67,1.67,0,0,0,1-.24A.76.76,0,0,0,244.69,21.69Z" transform="translate(0 0)"/><path class="cls-3" d="M251.93,19.75a5.15,5.15,0,0,1,.88-3.14,2.89,2.89,0,0,1,2.42-1.16,2.58,2.58,0,0,1,2,.91V12.07h2.25V24h-2l-.11-.89a2.64,2.64,0,0,1-2.16,1.05A2.85,2.85,0,0,1,252.83,23,5.23,5.23,0,0,1,251.93,19.75Zm2.25.16a3.38,3.38,0,0,0,.41,1.82,1.33,1.33,0,0,0,1.2.63,1.52,1.52,0,0,0,1.47-.88V18.15a1.5,1.5,0,0,0-1.46-.88Q254.18,17.27,254.18,19.91Z" transform="translate(0 0)"/><path class="cls-3" d="M265.12,24.17a4.11,4.11,0,0,1-3-1.14A4,4,0,0,1,261,20v-.22a5,5,0,0,1,.49-2.26A3.53,3.53,0,0,1,262.83,16a3.86,3.86,0,0,1,2-.54,3.48,3.48,0,0,1,2.72,1.09,4.4,4.4,0,0,1,1,3.08v.92h-5.35a2.08,2.08,0,0,0,.65,1.32,2,2,0,0,0,1.39.5,2.44,2.44,0,0,0,2-.94l1.1,1.23A3.35,3.35,0,0,1,267,23.77,4.49,4.49,0,0,1,265.12,24.17Zm-.25-6.91a1.42,1.42,0,0,0-1.09.45,2.35,2.35,0,0,0-.53,1.3h3.12v-.18a1.66,1.66,0,0,0-.4-1.16A1.46,1.46,0,0,0,264.87,17.26Z" transform="translate(0 0)"/><path class="cls-3" d="M281.39,19.89a5,5,0,0,1-.88,3.11,2.83,2.83,0,0,1-2.38,1.17,2.62,2.62,0,0,1-2.06-.89v4h-2.25V15.6h2.08l.08.83a2.64,2.64,0,0,1,2.13-1,2.85,2.85,0,0,1,2.42,1.15,5.19,5.19,0,0,1,.86,3.17Zm-2.24-.17a3.3,3.3,0,0,0-.42-1.81,1.37,1.37,0,0,0-1.21-.64,1.47,1.47,0,0,0-1.45.81v3.45a1.49,1.49,0,0,0,1.47.83C278.61,22.36,279.15,21.48,279.15,19.72Z" transform="translate(0 0)"/><path class="cls-3" d="M286.65,24.17a4.13,4.13,0,0,1-3-1.14,4,4,0,0,1-1.16-3v-.22a5,5,0,0,1,.49-2.26A3.59,3.59,0,0,1,284.36,16a3.89,3.89,0,0,1,2-.54,3.48,3.48,0,0,1,2.72,1.09,4.4,4.4,0,0,1,1,3.08v.92h-5.35a2.08,2.08,0,0,0,.65,1.32,2,2,0,0,0,1.39.5,2.44,2.44,0,0,0,2-.94l1.1,1.23a3.35,3.35,0,0,1-1.36,1.12A4.49,4.49,0,0,1,286.65,24.17Zm-.25-6.91a1.42,1.42,0,0,0-1.09.45,2.43,2.43,0,0,0-.53,1.3h3.13v-.18a1.71,1.71,0,0,0-.41-1.16A1.46,1.46,0,0,0,286.4,17.26Z" transform="translate(0 0)"/><path class="cls-3" d="M293.76,24H291.5V12.07h2.26Z" transform="translate(0 0)"/><path class="cls-3" d="M295.59,13.43a1.15,1.15,0,0,1,.34-.84,1.48,1.48,0,0,1,1.84,0,1.21,1.21,0,0,1,0,1.68,1.34,1.34,0,0,1-.92.32,1.29,1.29,0,0,1-.91-.32A1.12,1.12,0,0,1,295.59,13.43ZM298,24h-2.26V15.6H298Z" transform="translate(0 0)"/><path class="cls-3" d="M299.5,19.75a5,5,0,0,1,.92-3.12,3,3,0,0,1,2.49-1.18,2.59,2.59,0,0,1,2.15.95l.09-.8h2v8.13a3.61,3.61,0,0,1-.5,1.92,3.29,3.29,0,0,1-1.41,1.25,5.06,5.06,0,0,1-2.13.42,4.75,4.75,0,0,1-1.81-.36A3.23,3.23,0,0,1,300,26l1-1.36a2.66,2.66,0,0,0,2,.94,1.92,1.92,0,0,0,1.39-.48,1.8,1.8,0,0,0,.5-1.36v-.45a2.59,2.59,0,0,1-2.05.88A3,3,0,0,1,300.44,23a4.88,4.88,0,0,1-.94-3.14Zm2.25.16a3.06,3.06,0,0,0,.46,1.8,1.45,1.45,0,0,0,1.26.65,1.58,1.58,0,0,0,1.47-.77V18a1.58,1.58,0,0,0-1.46-.77,1.45,1.45,0,0,0-1.27.67A3.43,3.43,0,0,0,301.75,19.91Z" transform="translate(0 0)"/><path class="cls-3" d="M313.64,17.71a6.31,6.31,0,0,0-.81-.06,1.65,1.65,0,0,0-1.67.86V24h-2.24V15.6H311l.06,1A2.06,2.06,0,0,1,313,15.45a2.24,2.24,0,0,1,.7.1Z" transform="translate(0 0)"/><path class="cls-3" d="M314.09,19.73a5,5,0,0,1,.48-2.23A3.65,3.65,0,0,1,316,16a4.12,4.12,0,0,1,2.1-.53,3.8,3.8,0,0,1,2.78,1,4.15,4.15,0,0,1,1.2,2.83l0,.57A4.41,4.41,0,0,1,321,23a4.18,4.18,0,0,1-5.8,0,4.42,4.42,0,0,1-1.09-3.17Zm2.25.16a3.13,3.13,0,0,0,.45,1.83,1.61,1.61,0,0,0,2.56,0,3.39,3.39,0,0,0,.46-2,3.12,3.12,0,0,0-.46-1.83,1.47,1.47,0,0,0-1.29-.64,1.45,1.45,0,0,0-1.27.64A3.51,3.51,0,0,0,316.34,19.89Z" transform="translate(0 0)"/><path class="cls-3" d="M330.55,20.83l1.55-5.23h2.41l-3.38,9.72-.19.44a2.56,2.56,0,0,1-2.48,1.65,3.52,3.52,0,0,1-1-.15v-1.7h.34a1.86,1.86,0,0,0,1-.2,1.27,1.27,0,0,0,.49-.64l.26-.69-2.94-8.44H329Z" transform="translate(0 0)"/><path class="cls-3" d="M341.73,24h-2.25V12.07h2.25Z" transform="translate(0 0)"/><path class="cls-3" d="M343.23,19.73a5,5,0,0,1,.48-2.23A3.65,3.65,0,0,1,345.1,16a4.16,4.16,0,0,1,2.11-.53,3.78,3.78,0,0,1,2.77,1,4.15,4.15,0,0,1,1.2,2.83l0,.57A4.41,4.41,0,0,1,350.12,23a4.18,4.18,0,0,1-5.8,0,4.42,4.42,0,0,1-1.09-3.17Zm2.25.16a3.13,3.13,0,0,0,.45,1.83,1.47,1.47,0,0,0,1.29.64,1.51,1.51,0,0,0,1.28-.63,3.48,3.48,0,0,0,.45-2,3.19,3.19,0,0,0-.45-1.83,1.5,1.5,0,0,0-1.29-.64,1.47,1.47,0,0,0-1.28.64A3.51,3.51,0,0,0,345.48,19.89Z" transform="translate(0 0)"/><path class="cls-3" d="M357.14,21.69a.73.73,0,0,0-.41-.65,4.45,4.45,0,0,0-1.31-.42q-3-.63-3-2.55a2.31,2.31,0,0,1,.93-1.87,3.75,3.75,0,0,1,2.43-.75,4,4,0,0,1,2.56.75,2.38,2.38,0,0,1,1,2h-2.25a1.09,1.09,0,0,0-.31-.8,1.65,1.65,0,0,0-1.85-.05.79.79,0,0,0-.31.65.68.68,0,0,0,.36.6,3.58,3.58,0,0,0,1.19.4,9.43,9.43,0,0,1,1.41.37,2.33,2.33,0,0,1,1.78,2.27,2.22,2.22,0,0,1-1,1.86,4.3,4.3,0,0,1-2.55.71,4.48,4.48,0,0,1-1.88-.38,3.1,3.1,0,0,1-1.29-1,2.41,2.41,0,0,1-.46-1.42h2.13a1.17,1.17,0,0,0,.44.92,1.75,1.75,0,0,0,1.1.31,1.67,1.67,0,0,0,1-.24A.76.76,0,0,0,357.14,21.69Z" transform="translate(0 0)"/></g><g class="cls-2"><path class="cls-3" d="M75.3,41.46a1.47,1.47,0,0,0,1-.34,1.19,1.19,0,0,0,.4-.91h2.11a2.83,2.83,0,0,1-.47,1.57,3,3,0,0,1-1.25,1.1,4,4,0,0,1-1.76.39,3.66,3.66,0,0,1-2.85-1.15,4.54,4.54,0,0,1-1-3.16v-.15a4.47,4.47,0,0,1,1-3.1,3.59,3.59,0,0,1,2.83-1.16,3.51,3.51,0,0,1,2.53.9,3.15,3.15,0,0,1,1,2.39H76.71a1.53,1.53,0,0,0-.4-1.07,1.5,1.5,0,0,0-2.21.16,3.31,3.31,0,0,0-.4,1.86V39a3.4,3.4,0,0,0,.39,1.87A1.38,1.38,0,0,0,75.3,41.46Z" transform="translate(0 0)"/><path class="cls-3" d="M79.75,38.83a4.91,4.91,0,0,1,.49-2.23,3.49,3.49,0,0,1,1.38-1.51,4.06,4.06,0,0,1,2.11-.54,3.82,3.82,0,0,1,2.77,1,4.23,4.23,0,0,1,1.21,2.83V39a4.38,4.38,0,0,1-1.08,3.1,4.19,4.19,0,0,1-5.8,0,4.47,4.47,0,0,1-1.09-3.18ZM82,39a3.19,3.19,0,0,0,.45,1.84,1.49,1.49,0,0,0,1.29.63A1.51,1.51,0,0,0,85,40.83a3.46,3.46,0,0,0,.45-2A3.16,3.16,0,0,0,85,37a1.6,1.6,0,0,0-2.57,0A3.51,3.51,0,0,0,82,39Z" transform="translate(0 0)"/><path class="cls-3" d="M91.17,34.71l.07,1a3,3,0,0,1,2.42-1.13,2.43,2.43,0,0,1,2,.79,3.67,3.67,0,0,1,.67,2.34v5.44H94.07V37.74a1.45,1.45,0,0,0-.31-1,1.37,1.37,0,0,0-1-.32,1.55,1.55,0,0,0-1.43.81v5.93H89.06V34.71Z" transform="translate(0 0)"/><path class="cls-3" d="M102.58,40.79a.74.74,0,0,0-.41-.65,4.77,4.77,0,0,0-1.31-.42q-3-.63-3-2.55a2.31,2.31,0,0,1,.93-1.87,3.7,3.7,0,0,1,2.42-.75,4.07,4.07,0,0,1,2.57.75,2.39,2.39,0,0,1,1,2h-2.25a1.06,1.06,0,0,0-.31-.79,1.32,1.32,0,0,0-1-.32,1.36,1.36,0,0,0-.88.26.8.8,0,0,0-.31.65.69.69,0,0,0,.35.6,3.44,3.44,0,0,0,1.19.4,9.48,9.48,0,0,1,1.42.38,2.32,2.32,0,0,1,1.78,2.26,2.18,2.18,0,0,1-1,1.86,4.87,4.87,0,0,1-4.42.33,3.1,3.1,0,0,1-1.29-1,2.42,2.42,0,0,1-.47-1.42h2.13a1.16,1.16,0,0,0,.45.92,1.75,1.75,0,0,0,1.1.32,1.56,1.56,0,0,0,1-.25A.76.76,0,0,0,102.58,40.79Z" transform="translate(0 0)"/><path class="cls-3" d="M110.08,43.27a4.17,4.17,0,0,1-3-1.13,4.07,4.07,0,0,1-1.16-3V38.9a5,5,0,0,1,.49-2.27,3.59,3.59,0,0,1,1.39-1.54,3.9,3.9,0,0,1,2-.54,3.46,3.46,0,0,1,2.71,1.09,4.4,4.4,0,0,1,1,3.08v.92h-5.35a2,2,0,0,0,.66,1.32,2,2,0,0,0,1.38.5,2.42,2.42,0,0,0,2-.94l1.11,1.24A3.51,3.51,0,0,1,112,42.87,4.48,4.48,0,0,1,110.08,43.27Zm-.26-6.91a1.42,1.42,0,0,0-1.09.45,2.46,2.46,0,0,0-.53,1.3h3.13v-.18a1.66,1.66,0,0,0-.41-1.16A1.45,1.45,0,0,0,109.82,36.36Z" transform="translate(0 0)"/><path class="cls-3" d="M117.19,34.71v8.87a3,3,0,0,1-.74,2.16,2.82,2.82,0,0,1-2.13.77,4.44,4.44,0,0,1-1.11-.13V44.6a3.86,3.86,0,0,0,.71.07c.67,0,1-.36,1-1.08V34.71Zm-2.43-2.18a1.12,1.12,0,0,1,.33-.83,1.46,1.46,0,0,1,1.85,0,1.21,1.21,0,0,1,0,1.67,1.43,1.43,0,0,1-1.83,0A1.11,1.11,0,0,1,114.76,32.53Z" transform="translate(0 0)"/><path class="cls-3" d="M118.6,38.83a5,5,0,0,1,.48-2.23,3.49,3.49,0,0,1,1.38-1.51,4.06,4.06,0,0,1,2.11-.54,3.86,3.86,0,0,1,2.78,1,4.27,4.27,0,0,1,1.2,2.83V39a4.38,4.38,0,0,1-1.08,3.1,4.19,4.19,0,0,1-5.8,0,4.51,4.51,0,0,1-1.08-3.18Zm2.24.16a3.19,3.19,0,0,0,.45,1.84,1.63,1.63,0,0,0,2.57,0,3.45,3.45,0,0,0,.46-2,3.16,3.16,0,0,0-.46-1.82,1.6,1.6,0,0,0-2.57,0A3.51,3.51,0,0,0,120.84,39Z" transform="translate(0 0)"/><path class="cls-3" d="M132.5,40.79a.74.74,0,0,0-.41-.65,4.77,4.77,0,0,0-1.31-.42q-3-.63-3-2.55a2.31,2.31,0,0,1,.93-1.87,3.75,3.75,0,0,1,2.43-.75,4,4,0,0,1,2.56.75,2.39,2.39,0,0,1,1,2h-2.24a1.07,1.07,0,0,0-.32-.79,1.3,1.3,0,0,0-1-.32,1.36,1.36,0,0,0-.88.26.83.83,0,0,0-.31.65.68.68,0,0,0,.36.6,3.37,3.37,0,0,0,1.19.4,9.32,9.32,0,0,1,1.41.38,2.33,2.33,0,0,1,1.79,2.26,2.18,2.18,0,0,1-1,1.86,4.89,4.89,0,0,1-4.43.33,3.16,3.16,0,0,1-1.29-1,2.41,2.41,0,0,1-.46-1.42h2.13a1.18,1.18,0,0,0,.44.92,1.77,1.77,0,0,0,1.1.32,1.59,1.59,0,0,0,1-.25A.75.75,0,0,0,132.5,40.79Z" transform="translate(0 0)"/><path class="cls-3" d="M139.75,38.85a5,5,0,0,1,.88-3.13A2.86,2.86,0,0,1,143,34.55a2.58,2.58,0,0,1,2,.92V31.18h2.25V43.12h-2l-.1-.9A2.65,2.65,0,0,1,143,43.27a2.86,2.86,0,0,1-2.38-1.17A5.21,5.21,0,0,1,139.75,38.85ZM142,39a3.37,3.37,0,0,0,.41,1.81,1.36,1.36,0,0,0,1.2.63,1.51,1.51,0,0,0,1.47-.88V37.26a1.47,1.47,0,0,0-1.45-.88C142.53,36.38,142,37.26,142,39Z" transform="translate(0 0)"/><path class="cls-3" d="M152.94,43.27a4.17,4.17,0,0,1-3-1.13,4.07,4.07,0,0,1-1.16-3V38.9a5,5,0,0,1,.49-2.27,3.59,3.59,0,0,1,1.39-1.54,3.9,3.9,0,0,1,2.05-.54,3.46,3.46,0,0,1,2.71,1.09,4.41,4.41,0,0,1,1,3.08v.92H151A2,2,0,0,0,151.7,41a2,2,0,0,0,1.38.5,2.42,2.42,0,0,0,2-.94l1.11,1.24a3.51,3.51,0,0,1-1.37,1.11A4.45,4.45,0,0,1,152.94,43.27Zm-.26-6.91a1.38,1.38,0,0,0-1.08.45,2.39,2.39,0,0,0-.54,1.3h3.13v-.18a1.66,1.66,0,0,0-.41-1.16A1.45,1.45,0,0,0,152.68,36.36Z" transform="translate(0 0)"/><path class="cls-3" d="M169.2,39a5,5,0,0,1-.88,3.11,2.83,2.83,0,0,1-2.38,1.17,2.61,2.61,0,0,1-2.06-.88v4h-2.25V34.71h2.09l.07.82a2.67,2.67,0,0,1,2.13-1,2.83,2.83,0,0,1,2.42,1.15,5.17,5.17,0,0,1,.86,3.17ZM167,38.83a3.31,3.31,0,0,0-.42-1.82,1.35,1.35,0,0,0-1.21-.63,1.47,1.47,0,0,0-1.45.81v3.44a1.49,1.49,0,0,0,1.47.83C166.42,41.46,167,40.58,167,38.83Z" transform="translate(0 0)"/><path class="cls-3" d="M175.32,36.81a6.19,6.19,0,0,0-.81-.06,1.65,1.65,0,0,0-1.67.86v5.51H170.6V34.71h2.12l.06,1a2.08,2.08,0,0,1,1.87-1.16,2.24,2.24,0,0,1,.7.1Z" transform="translate(0 0)"/><path class="cls-3" d="M181.44,42.26a2.83,2.83,0,0,1-2.3,1,2.68,2.68,0,0,1-2.07-.78,3.3,3.3,0,0,1-.72-2.27V34.71h2.24v5.44c0,.87.4,1.31,1.2,1.31a1.61,1.61,0,0,0,1.57-.79v-6h2.26v8.41H181.5Z" transform="translate(0 0)"/><path class="cls-3" d="M185,38.85a5,5,0,0,1,.88-3.13,2.86,2.86,0,0,1,2.42-1.17,2.61,2.61,0,0,1,2,.92V31.18h2.25V43.12h-2l-.11-.9a2.64,2.64,0,0,1-2.16,1.05,2.85,2.85,0,0,1-2.38-1.17A5.21,5.21,0,0,1,185,38.85Zm2.25.17a3.28,3.28,0,0,0,.41,1.81,1.33,1.33,0,0,0,1.2.63,1.51,1.51,0,0,0,1.47-.88V37.26a1.49,1.49,0,0,0-1.46-.88Q187.21,36.38,187.21,39Z" transform="translate(0 0)"/><path class="cls-3" d="M198.15,43.27a4.15,4.15,0,0,1-3-1.13,4,4,0,0,1-1.16-3V38.9a5,5,0,0,1,.49-2.27,3.57,3.57,0,0,1,1.38-1.54,3.92,3.92,0,0,1,2.05-.54,3.48,3.48,0,0,1,2.72,1.09,4.4,4.4,0,0,1,1,3.08v.92h-5.36a2.14,2.14,0,0,0,.66,1.32,2,2,0,0,0,1.39.5,2.43,2.43,0,0,0,2-.94l1.1,1.24a3.44,3.44,0,0,1-1.37,1.11A4.41,4.41,0,0,1,198.15,43.27Zm-.26-6.91a1.41,1.41,0,0,0-1.08.45,2.39,2.39,0,0,0-.53,1.3h3.12v-.18a1.66,1.66,0,0,0-.4-1.16A1.47,1.47,0,0,0,197.89,36.36Z" transform="translate(0 0)"/><path class="cls-3" d="M205,34.71l.07,1a3,3,0,0,1,2.42-1.13,2.43,2.43,0,0,1,2,.79,3.61,3.61,0,0,1,.67,2.34v5.44h-2.25V37.74a1.45,1.45,0,0,0-.31-1,1.37,1.37,0,0,0-1-.32,1.56,1.56,0,0,0-1.43.81v5.93h-2.24V34.71Z" transform="translate(0 0)"/><path class="cls-3" d="M215.3,41.46a1.47,1.47,0,0,0,1-.34,1.19,1.19,0,0,0,.4-.91h2.11a2.92,2.92,0,0,1-.47,1.57,3,3,0,0,1-1.25,1.1,4,4,0,0,1-1.76.39,3.64,3.64,0,0,1-2.85-1.15,4.54,4.54,0,0,1-1-3.16v-.15a4.46,4.46,0,0,1,1-3.1,3.63,3.63,0,0,1,2.84-1.16,3.53,3.53,0,0,1,2.53.9,3.15,3.15,0,0,1,1,2.39h-2.11a1.53,1.53,0,0,0-.4-1.07,1.36,1.36,0,0,0-1-.41,1.34,1.34,0,0,0-1.18.57,3.31,3.31,0,0,0-.4,1.86V39a3.4,3.4,0,0,0,.39,1.87A1.38,1.38,0,0,0,215.3,41.46Z" transform="translate(0 0)"/><path class="cls-3" d="M220.09,32.53a1.12,1.12,0,0,1,.33-.83,1.29,1.29,0,0,1,.93-.33,1.26,1.26,0,0,1,.91.33,1.09,1.09,0,0,1,.34.83,1.11,1.11,0,0,1-.34.84,1.43,1.43,0,0,1-1.83,0A1.11,1.11,0,0,1,220.09,32.53Zm2.38,10.59h-2.25V34.71h2.25Z" transform="translate(0 0)"/><path class="cls-3" d="M229.2,43.12a2.52,2.52,0,0,1-.23-.76,2.7,2.7,0,0,1-2.12.91,3,3,0,0,1-2-.71,2.31,2.31,0,0,1-.81-1.81,2.38,2.38,0,0,1,1-2,4.81,4.81,0,0,1,2.86-.72h1V37.5a1.41,1.41,0,0,0-.3-.94,1.2,1.2,0,0,0-1-.35,1.32,1.32,0,0,0-.89.28.93.93,0,0,0-.32.74h-2.25a2.27,2.27,0,0,1,.46-1.35,3,3,0,0,1,1.27-1,4.77,4.77,0,0,1,1.85-.35,3.68,3.68,0,0,1,2.47.78,2.73,2.73,0,0,1,.91,2.2v3.64a4,4,0,0,0,.34,1.81v.14Zm-1.86-1.57a1.92,1.92,0,0,0,.92-.22,1.48,1.48,0,0,0,.62-.59V39.29H228q-1.69,0-1.8,1.17v.13a.89.89,0,0,0,.3.69A1.17,1.17,0,0,0,227.34,41.55Z" transform="translate(0 0)"/><path class="cls-3" d="M240.69,43.27a4.16,4.16,0,0,1-3-1.13,4.07,4.07,0,0,1-1.16-3V38.9a5,5,0,0,1,.49-2.27,3.53,3.53,0,0,1,1.39-1.54,3.86,3.86,0,0,1,2-.54,3.48,3.48,0,0,1,2.72,1.09,4.4,4.4,0,0,1,1,3.08v.92H238.8a2.08,2.08,0,0,0,.65,1.32,2,2,0,0,0,1.39.5,2.42,2.42,0,0,0,2-.94l1.1,1.24a3.37,3.37,0,0,1-1.37,1.11A4.41,4.41,0,0,1,240.69,43.27Zm-.25-6.91a1.42,1.42,0,0,0-1.09.45,2.39,2.39,0,0,0-.53,1.3h3.12v-.18a1.66,1.66,0,0,0-.4-1.16A1.46,1.46,0,0,0,240.44,36.36Z" transform="translate(0 0)"/><path class="cls-3" d="M247.49,34.71l.07,1A3,3,0,0,1,250,34.55a2.42,2.42,0,0,1,2,.79,3.61,3.61,0,0,1,.67,2.34v5.44h-2.25V37.74a1.45,1.45,0,0,0-.31-1,1.35,1.35,0,0,0-1-.32,1.54,1.54,0,0,0-1.42.81v5.93h-2.25V34.71Z" transform="translate(0 0)"/><path class="cls-3" d="M262.18,43.27a4.13,4.13,0,0,1-3-1.13,4,4,0,0,1-1.17-3V38.9a5.18,5.18,0,0,1,.49-2.27,3.59,3.59,0,0,1,1.39-1.54,3.9,3.9,0,0,1,2.05-.54,3.46,3.46,0,0,1,2.71,1.09,4.36,4.36,0,0,1,1,3.08v.92h-5.36a2,2,0,0,0,.66,1.32,2,2,0,0,0,1.38.5,2.4,2.4,0,0,0,2-.94l1.11,1.24a3.51,3.51,0,0,1-1.37,1.11A4.45,4.45,0,0,1,262.18,43.27Zm-.26-6.91a1.38,1.38,0,0,0-1.08.45,2.39,2.39,0,0,0-.54,1.3h3.13v-.18a1.66,1.66,0,0,0-.41-1.16A1.45,1.45,0,0,0,261.92,36.36Z" transform="translate(0 0)"/><path class="cls-3" d="M269.28,43.12H267V31.18h2.25Z" transform="translate(0 0)"/><path class="cls-3" d="M281.11,40.15a1.21,1.21,0,0,0-.46-1,6.57,6.57,0,0,0-1.68-.74,11.92,11.92,0,0,1-1.92-.78,3.13,3.13,0,0,1-1.93-2.8,2.72,2.72,0,0,1,.52-1.64,3.35,3.35,0,0,1,1.48-1.12,5.59,5.59,0,0,1,2.17-.41,5.11,5.11,0,0,1,2.16.44,3.49,3.49,0,0,1,1.48,1.24,3.25,3.25,0,0,1,.52,1.82h-2.33a1.52,1.52,0,0,0-.49-1.21,2,2,0,0,0-1.38-.43,2.17,2.17,0,0,0-1.33.36,1.15,1.15,0,0,0-.47,1,1.1,1.1,0,0,0,.56.93,6.26,6.26,0,0,0,1.63.7,7,7,0,0,1,2.9,1.48,3,3,0,0,1,.91,2.21,2.74,2.74,0,0,1-1.11,2.31,4.91,4.91,0,0,1-3,.83,5.75,5.75,0,0,1-2.38-.48,3.74,3.74,0,0,1-1.64-1.31,3.36,3.36,0,0,1-.56-1.92h2.34c0,1.24.74,1.87,2.24,1.87a2.18,2.18,0,0,0,1.3-.34A1.09,1.09,0,0,0,281.11,40.15Z" transform="translate(0 0)"/><path class="cls-3" d="M294,41.69a4.08,4.08,0,0,1-1.78,1.17,7.58,7.58,0,0,1-2.55.41,5,5,0,0,1-2.57-.64,4.29,4.29,0,0,1-1.71-1.86,6.56,6.56,0,0,1-.62-2.87v-.77a6.93,6.93,0,0,1,.57-2.93A4.21,4.21,0,0,1,287,32.3a5.41,5.41,0,0,1,5.67.3A4.08,4.08,0,0,1,294,35.4h-2.27A2.24,2.24,0,0,0,291,34a2.18,2.18,0,0,0-1.47-.46,2.06,2.06,0,0,0-1.81.9,4.6,4.6,0,0,0-.63,2.66v.72a4.48,4.48,0,0,0,.68,2.69,2.3,2.3,0,0,0,2,.91,2.6,2.6,0,0,0,1.87-.56v-2h-2.12V37.17H294Z" transform="translate(0 0)"/><path class="cls-3" d="M302.26,40.78h-4.09l-.77,2.34h-2.48l4.21-11.32h2.16l4.24,11.32h-2.48ZM298.8,38.9h2.83l-1.42-4.24Z" transform="translate(0 0)"/></g></g><g id="P" class="cls-2"><g class="cls-2"><path class="cls-1" d="M259,94.72l-.7,4h-2.28l2-11.32h4a4,4,0,0,1,2.89,1,3.14,3.14,0,0,1,.91,2.66,3.58,3.58,0,0,1-1.38,2.66,5.1,5.1,0,0,1-3.23,1Zm.32-1.89,1.89,0a2.47,2.47,0,0,0,1.53-.47,2,2,0,0,0,.72-1.29,1.63,1.63,0,0,0-.26-1.29,1.41,1.41,0,0,0-1.12-.51H260Z" transform="translate(0 0)"/></g></g><g id="H" class="cls-2"><g class="cls-2"><path class="cls-1" d="M101.68,99.57H99.4l.84-4.85H95.85L95,99.57H92.72l2-11.32H97l-.8,4.59h4.4l.79-4.59h2.28Z" transform="translate(0 0)"/></g></g><g id="Físicos" class="cls-2"><g class="cls-2"><path class="cls-4" d="M33,139.79H28.68l-.81,4.62H25.59l2-11.32h7.16L34.39,135H29.51L29,137.9h4.35Z" transform="translate(0 0)"/><path class="cls-4" d="M36.35,144.41H34.16L35.62,136h2.19Zm1.3-11.82h2.54L37.72,135H35.78Z" transform="translate(0 0)"/><path class="cls-4" d="M43.17,142q.12-.63-.87-.9l-.71-.18c-1.67-.46-2.48-1.28-2.44-2.44a2.43,2.43,0,0,1,1.06-1.94,3.91,3.91,0,0,1,2.44-.74,3.52,3.52,0,0,1,2.3.76,2.47,2.47,0,0,1,.9,2H43.67a1,1,0,0,0-1.07-1.1,1.53,1.53,0,0,0-.89.26,1,1,0,0,0-.46.69c-.08.41.23.71.94.88l.31.07a6.34,6.34,0,0,1,1.64.58,2.65,2.65,0,0,1,.87.82,2,2,0,0,1,.28,1.18,2.21,2.21,0,0,1-.51,1.4,3.15,3.15,0,0,1-1.36.92,4.74,4.74,0,0,1-1.8.31,3.58,3.58,0,0,1-2.33-.81,2.57,2.57,0,0,1-.95-2l2.07,0A1.14,1.14,0,0,0,41.7,143a1.86,1.86,0,0,0,1-.25A1,1,0,0,0,43.17,142Z" transform="translate(0 0)"/><path class="cls-4" d="M48.62,144.41H46.41L47.88,136h2.2Zm-.49-10.55a1.13,1.13,0,0,1,.34-.86,1.33,1.33,0,0,1,1.73,0,1.1,1.1,0,0,1,.38.82,1.12,1.12,0,0,1-.32.84,1.29,1.29,0,0,1-1.74.08A1.08,1.08,0,0,1,48.13,133.86Z" transform="translate(0 0)"/><path class="cls-4" d="M54.16,142.76a1.43,1.43,0,0,0,1-.33,1.61,1.61,0,0,0,.53-.92h2.06a3,3,0,0,1-.55,1.6,3.37,3.37,0,0,1-1.34,1.1,3.82,3.82,0,0,1-1.76.37,3.1,3.1,0,0,1-2.43-1,4,4,0,0,1-.86-2.76l0-.42v-.09A5.21,5.21,0,0,1,52.24,137a3.73,3.73,0,0,1,2.89-1.16,3.05,3.05,0,0,1,2.26.93,3.28,3.28,0,0,1,.82,2.37h-2a1.67,1.67,0,0,0-.3-1.06,1.1,1.1,0,0,0-.88-.42c-1.05,0-1.68.73-1.91,2.29a7.52,7.52,0,0,0-.08,1.43C53.05,142.29,53.44,142.75,54.16,142.76Z" transform="translate(0 0)"/><path class="cls-4" d="M63.42,135.84a3.33,3.33,0,0,1,1.92.58A3.24,3.24,0,0,1,66.52,138a4.77,4.77,0,0,1,.27,2.16,5.14,5.14,0,0,1-1.4,3.25,4,4,0,0,1-3,1.21,3.41,3.41,0,0,1-1.9-.57,3.17,3.17,0,0,1-1.18-1.52,4.45,4.45,0,0,1-.27-2.14A5.2,5.2,0,0,1,60.45,137,3.87,3.87,0,0,1,63.42,135.84Zm-2.21,5.29a1.9,1.9,0,0,0,.35,1.18,1.14,1.14,0,0,0,.94.44,1.67,1.67,0,0,0,1.58-.92,4.71,4.71,0,0,0,.54-2.52,2.1,2.1,0,0,0-.36-1.19,1.14,1.14,0,0,0-1-.46,1.67,1.67,0,0,0-1.56.92A4.4,4.4,0,0,0,61.21,141.13Z" transform="translate(0 0)"/><path class="cls-4" d="M72.29,142c.08-.42-.2-.72-.86-.9l-.71-.18c-1.67-.46-2.49-1.28-2.44-2.44a2.45,2.45,0,0,1,1-1.94,3.94,3.94,0,0,1,2.45-.74,3.53,3.53,0,0,1,2.3.76,2.49,2.49,0,0,1,.89,2H72.8a1,1,0,0,0-1.08-1.1,1.55,1.55,0,0,0-.89.26,1.06,1.06,0,0,0-.46.69c-.08.41.24.71.94.88l.31.07a6.21,6.21,0,0,1,1.64.58,2.68,2.68,0,0,1,.88.82,2.05,2.05,0,0,1,.28,1.18,2.28,2.28,0,0,1-.52,1.4,3.18,3.18,0,0,1-1.35.92,4.76,4.76,0,0,1-1.81.31,3.58,3.58,0,0,1-2.33-.81,2.6,2.6,0,0,1-1-2l2.07,0A1.14,1.14,0,0,0,70.82,143a1.87,1.87,0,0,0,1-.25A1,1,0,0,0,72.29,142Z" transform="translate(0 0)"/></g></g><g id="Para_la_salud" data-name="Para la salud" class="cls-2"><g class="cls-2"><path class="cls-4" d="M27.75,156.39l-.7,4H24.78l2-11.32h4a4,4,0,0,1,2.88,1,3.15,3.15,0,0,1,.92,2.66,3.57,3.57,0,0,1-1.39,2.65,5,5,0,0,1-3.22,1Zm.32-1.89,1.9,0a2.36,2.36,0,0,0,1.52-.48,1.88,1.88,0,0,0,.73-1.28,1.67,1.67,0,0,0-.26-1.29,1.44,1.44,0,0,0-1.12-.51H28.69Z" transform="translate(0 0)"/><path class="cls-4" d="M39.45,160.38a2.22,2.22,0,0,1-.08-.76,2.87,2.87,0,0,1-2.15.91,2.59,2.59,0,0,1-1.83-.72,2.17,2.17,0,0,1-.68-1.73A2.51,2.51,0,0,1,35.87,156a5.21,5.21,0,0,1,3-.74l1,0,.11-.51a1.63,1.63,0,0,0,0-.49.81.81,0,0,0-.27-.57.92.92,0,0,0-.63-.21,1.34,1.34,0,0,0-.87.25,1.24,1.24,0,0,0-.46.77h-2.2a2.46,2.46,0,0,1,1.11-1.95,4.29,4.29,0,0,1,2.6-.74,3.14,3.14,0,0,1,2.24.85,2.52,2.52,0,0,1,.68,2.11l-.65,4,0,.5a2.35,2.35,0,0,0,.13.93v.15Zm-1.68-1.55a2,2,0,0,0,1.65-.82l.27-1.46h-.76a2.13,2.13,0,0,0-1.75.73,1.34,1.34,0,0,0-.24.63.75.75,0,0,0,.18.67A.86.86,0,0,0,37.77,158.83Z" transform="translate(0 0)"/><path class="cls-4" d="M48.7,154.07A4.52,4.52,0,0,0,48,154a2.1,2.1,0,0,0-1.85.88l-1,5.5H42.94L44.4,152h2.06l-.2,1a2.3,2.3,0,0,1,2-1.19,2.84,2.84,0,0,1,.76.11Z" transform="translate(0 0)"/><path class="cls-4" d="M53.29,160.38a2.2,2.2,0,0,1-.09-.76,2.83,2.83,0,0,1-2.14.91,2.56,2.56,0,0,1-1.83-.72,2.13,2.13,0,0,1-.68-1.73A2.5,2.5,0,0,1,49.7,156a5.24,5.24,0,0,1,2.95-.74l1,0,.11-.51a2,2,0,0,0,0-.49.87.87,0,0,0-.28-.57.88.88,0,0,0-.62-.21,1.34,1.34,0,0,0-.87.25,1.24,1.24,0,0,0-.46.77h-2.2a2.43,2.43,0,0,1,1.11-1.95,4.27,4.27,0,0,1,2.6-.74,3.14,3.14,0,0,1,2.24.85,2.51,2.51,0,0,1,.67,2.11l-.64,4,0,.5a2.35,2.35,0,0,0,.13.93v.15Zm-1.69-1.55a2,2,0,0,0,1.66-.82l.27-1.46h-.76a2.13,2.13,0,0,0-1.75.73,1.34,1.34,0,0,0-.24.63.75.75,0,0,0,.17.67A.89.89,0,0,0,51.6,158.83Z" transform="translate(0 0)"/><path class="cls-4" d="M63,160.38H60.81l2.08-11.94h2.2Z" transform="translate(0 0)"/><path class="cls-4" d="M69.74,160.38a2.5,2.5,0,0,1-.08-.76,2.85,2.85,0,0,1-2.15.91,2.59,2.59,0,0,1-1.83-.72,2.17,2.17,0,0,1-.68-1.73A2.51,2.51,0,0,1,66.16,156a5.21,5.21,0,0,1,3-.74l1,0,.11-.51a1.63,1.63,0,0,0,0-.49.81.81,0,0,0-.27-.57.92.92,0,0,0-.63-.21,1.34,1.34,0,0,0-.87.25,1.24,1.24,0,0,0-.46.77h-2.2a2.46,2.46,0,0,1,1.11-1.95,4.29,4.29,0,0,1,2.6-.74,3.12,3.12,0,0,1,2.24.85,2.52,2.52,0,0,1,.68,2.11l-.65,4,0,.5a2.34,2.34,0,0,0,.14.93v.15Zm-1.68-1.55a2,2,0,0,0,1.65-.82l.28-1.46h-.77a2.14,2.14,0,0,0-1.75.73,1.34,1.34,0,0,0-.24.63.75.75,0,0,0,.18.67A.87.87,0,0,0,68.06,158.83Z" transform="translate(0 0)"/><path class="cls-4" d="M82,158c.09-.42-.2-.72-.86-.9l-.71-.18c-1.67-.46-2.48-1.28-2.44-2.44a2.41,2.41,0,0,1,1.06-1.94,3.91,3.91,0,0,1,2.44-.74,3.46,3.46,0,0,1,2.3.76,2.45,2.45,0,0,1,.89,2H82.54a1,1,0,0,0-1.07-1.09,1.46,1.46,0,0,0-.89.26,1,1,0,0,0-.47.69c-.07.41.24.7.94.88l.31.07a6.08,6.08,0,0,1,1.64.58,2.58,2.58,0,0,1,.88.82,2.05,2.05,0,0,1,.28,1.18,2.27,2.27,0,0,1-.51,1.4,3.24,3.24,0,0,1-1.36.92,4.55,4.55,0,0,1-1.8.3,3.6,3.6,0,0,1-2.34-.8,2.6,2.6,0,0,1-.94-2h2.06a1.13,1.13,0,0,0,1.29,1.22,1.87,1.87,0,0,0,1-.24A1,1,0,0,0,82,158Z" transform="translate(0 0)"/><path class="cls-4" d="M90,160.38a2.2,2.2,0,0,1-.09-.76,2.83,2.83,0,0,1-2.14.91,2.56,2.56,0,0,1-1.83-.72,2.13,2.13,0,0,1-.68-1.73A2.5,2.5,0,0,1,86.45,156a5.24,5.24,0,0,1,3-.74l1,0,.11-.51a1.63,1.63,0,0,0,0-.49.87.87,0,0,0-.28-.57.88.88,0,0,0-.62-.21,1.34,1.34,0,0,0-.87.25,1.24,1.24,0,0,0-.46.77h-2.2a2.43,2.43,0,0,1,1.11-1.95,4.29,4.29,0,0,1,2.6-.74,3.14,3.14,0,0,1,2.24.85,2.51,2.51,0,0,1,.67,2.11l-.64,4,0,.5a2.35,2.35,0,0,0,.13.93v.15Zm-1.69-1.55A2,2,0,0,0,90,158l.27-1.46h-.76a2.13,2.13,0,0,0-1.75.73,1.34,1.34,0,0,0-.24.63.75.75,0,0,0,.17.67A.89.89,0,0,0,88.35,158.83Z" transform="translate(0 0)"/><path class="cls-4" d="M95.85,160.38H93.64l2.07-11.94h2.2Z" transform="translate(0 0)"/><path class="cls-4" d="M102.91,159.51a2.88,2.88,0,0,1-2.32,1,2.16,2.16,0,0,1-1.83-.87,3.21,3.21,0,0,1-.48-2.25l.91-5.44h2.19l-.92,5.47a1.56,1.56,0,0,0,0,.48.79.79,0,0,0,.86.8,2,2,0,0,0,1.69-.78l1-6h2.2l-1.46,8.41h-2Z" transform="translate(0 0)"/><path class="cls-4" d="M110.6,151.8a2.44,2.44,0,0,1,1.9.95l.82-4.31h2.2l-2.07,11.94h-2l.13-.9a2.73,2.73,0,0,1-2.2,1.06,2.36,2.36,0,0,1-1.37-.41,2.61,2.61,0,0,1-.91-1.16,4.59,4.59,0,0,1-.36-1.69,5.92,5.92,0,0,1,0-.95l0-.35a7,7,0,0,1,.72-2.27,3.83,3.83,0,0,1,1.31-1.46A3.16,3.16,0,0,1,110.6,151.8Zm-1.6,4.53a5.77,5.77,0,0,0,0,1c0,.92.42,1.38,1.1,1.39a1.86,1.86,0,0,0,1.61-.87l.6-3.34a1.26,1.26,0,0,0-1.22-.87,1.61,1.61,0,0,0-1.33.62A4.21,4.21,0,0,0,109,156.33Z" transform="translate(0 0)"/></g></g><g id="Para_el_ambiente" data-name="Para el ambiente" class="cls-2"><g class="cls-2"><path class="cls-4" d="M26.84,172.56l-.7,4H23.87l2-11.32h4a4,4,0,0,1,2.88,1,3.16,3.16,0,0,1,.92,2.66,3.59,3.59,0,0,1-1.39,2.66,5.07,5.07,0,0,1-3.22,1Zm.32-1.88h1.9a2.42,2.42,0,0,0,1.52-.47,1.93,1.93,0,0,0,.73-1.28,1.66,1.66,0,0,0-.27-1.3,1.4,1.4,0,0,0-1.11-.51H27.78Z" transform="translate(0 0)"/><path class="cls-4" d="M38.54,176.55a2.19,2.19,0,0,1-.08-.76,2.88,2.88,0,0,1-2.15.92,2.56,2.56,0,0,1-1.83-.72,2.2,2.2,0,0,1-.68-1.74A2.52,2.52,0,0,1,35,172.14a5.26,5.26,0,0,1,2.95-.73h1l.11-.5a1.64,1.64,0,0,0,0-.49.81.81,0,0,0-.27-.57,1,1,0,0,0-.63-.22,1.4,1.4,0,0,0-.87.25,1.24,1.24,0,0,0-.46.78h-2.2a2.46,2.46,0,0,1,1.11-2,4.29,4.29,0,0,1,2.6-.73,3.09,3.09,0,0,1,2.24.85,2.47,2.47,0,0,1,.67,2.11l-.64,4,0,.5a2.35,2.35,0,0,0,.13.93v.15ZM36.85,175a2,2,0,0,0,1.66-.83l.27-1.45H38a2.13,2.13,0,0,0-1.75.74,1.26,1.26,0,0,0-.24.63.73.73,0,0,0,.18.66A.86.86,0,0,0,36.85,175Z" transform="translate(0 0)"/><path class="cls-4" d="M47.79,170.25a4.82,4.82,0,0,0-.74-.08,2.1,2.1,0,0,0-1.85.88l-1,5.5H42l1.46-8.41h2.06l-.2,1a2.32,2.32,0,0,1,2-1.19,3.31,3.31,0,0,1,.76.11Z" transform="translate(0 0)"/><path class="cls-4" d="M52.38,176.55a2.17,2.17,0,0,1-.09-.76,2.86,2.86,0,0,1-2.14.92,2.56,2.56,0,0,1-1.83-.72,2.14,2.14,0,0,1-.68-1.74,2.5,2.5,0,0,1,1.15-2.11,5.24,5.24,0,0,1,3-.73h1l.11-.5a2.05,2.05,0,0,0,0-.49.82.82,0,0,0-.28-.57,1,1,0,0,0-.62-.22,1.36,1.36,0,0,0-.87.25,1.2,1.2,0,0,0-.46.78h-2.2a2.41,2.41,0,0,1,1.11-2,4.27,4.27,0,0,1,2.6-.73,3.05,3.05,0,0,1,2.23.85,2.48,2.48,0,0,1,.68,2.11l-.64,4,0,.5a2.35,2.35,0,0,0,.13.93v.15ZM50.69,175a2,2,0,0,0,1.66-.83l.27-1.45h-.76a2.13,2.13,0,0,0-1.75.74,1.26,1.26,0,0,0-.24.63.73.73,0,0,0,.17.66A.9.9,0,0,0,50.69,175Z" transform="translate(0 0)"/><path class="cls-4" d="M63.79,176.71a3.76,3.76,0,0,1-2-.54,3.34,3.34,0,0,1-1.27-1.46,4,4,0,0,1-.32-2.05l0-.31a5.65,5.65,0,0,1,.71-2.26,4.41,4.41,0,0,1,1.54-1.58A3.74,3.74,0,0,1,64.6,168a2.93,2.93,0,0,1,2.46,1.19,4.17,4.17,0,0,1,.63,2.95l-.12,1H62.41a1.78,1.78,0,0,0,.4,1.3,1.49,1.49,0,0,0,1.16.51,2.67,2.67,0,0,0,2.1-.94l1,1.25a3.17,3.17,0,0,1-1.37,1.11A4.46,4.46,0,0,1,63.79,176.71Zm.7-6.91a1.53,1.53,0,0,0-1.08.38,3.36,3.36,0,0,0-.84,1.37h3l0-.2a2.35,2.35,0,0,0,0-.59,1.13,1.13,0,0,0-.38-.7A1.16,1.16,0,0,0,64.49,169.8Z" transform="translate(0 0)"/><path class="cls-4" d="M70.54,176.55H68.33l2.07-11.94h2.2Z" transform="translate(0 0)"/><path class="cls-4" d="M81.18,176.55a2.46,2.46,0,0,1-.08-.76,2.87,2.87,0,0,1-2.15.92,2.59,2.59,0,0,1-1.83-.72,2.2,2.2,0,0,1-.68-1.74,2.51,2.51,0,0,1,1.16-2.11,5.22,5.22,0,0,1,3-.73h1l.11-.5a2.08,2.08,0,0,0,0-.49.82.82,0,0,0-.28-.57,1,1,0,0,0-.63-.22,1.4,1.4,0,0,0-.87.25,1.24,1.24,0,0,0-.46.78h-2.2a2.46,2.46,0,0,1,1.11-2A4.29,4.29,0,0,1,81,168a3.08,3.08,0,0,1,2.24.85A2.51,2.51,0,0,1,83.9,171l-.65,4,0,.5a2.34,2.34,0,0,0,.14.93v.15ZM79.5,175a2,2,0,0,0,1.65-.83l.28-1.45h-.77a2.13,2.13,0,0,0-1.75.74,1.26,1.26,0,0,0-.24.63.73.73,0,0,0,.18.66A.88.88,0,0,0,79.5,175Z" transform="translate(0 0)"/><path class="cls-4" d="M88.17,168.13l-.18,1a3.06,3.06,0,0,1,2.47-1.1,2.42,2.42,0,0,1,1.29.35,1.69,1.69,0,0,1,.69.93A3.19,3.19,0,0,1,95.05,168a2.13,2.13,0,0,1,1.75.79,3.26,3.26,0,0,1,.49,2.22l0,.2-.89,5.35h-2.2l.89-5.37a3.51,3.51,0,0,0,0-.54.83.83,0,0,0-.93-.84,1.85,1.85,0,0,0-1.55,1l0,.18-1,5.61h-2.2l.9-5.35a3.33,3.33,0,0,0,0-.54.83.83,0,0,0-.92-.85,1.86,1.86,0,0,0-1.5.79l-1,6h-2.2l1.46-8.41Z" transform="translate(0 0)"/><path class="cls-4" d="M106.21,172.37a6,6,0,0,1-1.22,3.19,3,3,0,0,1-2.53,1.15,2.3,2.3,0,0,1-2-1.07l-.32.91h-2l2.07-11.94h2.2l-.85,4.3a2.58,2.58,0,0,1,2-.92,2.37,2.37,0,0,1,1.92.87,3.88,3.88,0,0,1,.74,2.38A9.21,9.21,0,0,1,106.21,172.37Zm-2.18-.16a6.91,6.91,0,0,0,0-1c-.06-.91-.43-1.37-1.12-1.38a1.81,1.81,0,0,0-1.61.88l-.61,3.35a1.26,1.26,0,0,0,1.26.87c1.08,0,1.74-.75,2-2.35Z" transform="translate(0 0)"/><path class="cls-4" d="M109.21,176.55H107l1.46-8.41h2.21ZM108.72,166a1.1,1.1,0,0,1,.34-.86,1.18,1.18,0,0,1,.86-.34,1.21,1.21,0,0,1,.86.3,1.07,1.07,0,0,1,.38.83,1.11,1.11,0,0,1-.32.84,1.3,1.3,0,0,1-1.74.07A1,1,0,0,1,108.72,166Z" transform="translate(0 0)"/><path class="cls-4" d="M115.06,176.71a3.76,3.76,0,0,1-2-.54,3.34,3.34,0,0,1-1.27-1.46,4,4,0,0,1-.32-2.05l0-.31a5.65,5.65,0,0,1,.71-2.26,4.41,4.41,0,0,1,1.54-1.58,3.76,3.76,0,0,1,2.09-.52,2.93,2.93,0,0,1,2.46,1.19,4.12,4.12,0,0,1,.63,2.95l-.12,1h-5.16a1.78,1.78,0,0,0,.4,1.3,1.49,1.49,0,0,0,1.17.51,2.67,2.67,0,0,0,2.09-.94l1,1.25a3.17,3.17,0,0,1-1.37,1.11A4.46,4.46,0,0,1,115.06,176.71Zm.7-6.91a1.54,1.54,0,0,0-1.08.38,3.36,3.36,0,0,0-.84,1.37h3l.05-.2a2.35,2.35,0,0,0,0-.59,1.13,1.13,0,0,0-.38-.7A1.16,1.16,0,0,0,115.76,169.8Z" transform="translate(0 0)"/><path class="cls-4" d="M123,168.13l-.19,1a3,3,0,0,1,2.45-1.14,2,2,0,0,1,1.75.87,3.52,3.52,0,0,1,.42,2.35l-.89,5.34h-2.19l.9-5.37a2.62,2.62,0,0,0,0-.55.9.9,0,0,0-1-.82,1.92,1.92,0,0,0-1.55.8l-1.05,5.94h-2.19l1.46-8.41Z" transform="translate(0 0)"/><path class="cls-4" d="M132.66,166.07l-.36,2.07h1.4l-.29,1.65H132L131.3,174a1.11,1.11,0,0,0,.06.61c.07.14.25.21.53.22a4.12,4.12,0,0,0,.67,0l-.16,1.72a3.7,3.7,0,0,1-1.26.18,2,2,0,0,1-1.61-.67,2.42,2.42,0,0,1-.43-1.79l.72-4.44h-1.19l.29-1.65h1.19l.35-2.07Z" transform="translate(0 0)"/><path class="cls-4" d="M137.51,176.71a3.76,3.76,0,0,1-2-.54,3.28,3.28,0,0,1-1.27-1.46,4.12,4.12,0,0,1-.33-2.05l0-.31a5.5,5.5,0,0,1,.71-2.26,4.33,4.33,0,0,1,1.54-1.58,3.74,3.74,0,0,1,2.09-.52,2.93,2.93,0,0,1,2.46,1.19,4.17,4.17,0,0,1,.63,2.95l-.13,1h-5.15a1.78,1.78,0,0,0,.4,1.3,1.49,1.49,0,0,0,1.16.51,2.67,2.67,0,0,0,2.1-.94l1,1.25a3.08,3.08,0,0,1-1.36,1.11A4.46,4.46,0,0,1,137.51,176.71Zm.7-6.91a1.53,1.53,0,0,0-1.08.38,3.36,3.36,0,0,0-.84,1.37h3l0-.2a2.35,2.35,0,0,0,0-.59,1.13,1.13,0,0,0-.38-.7A1.18,1.18,0,0,0,138.21,169.8Z" transform="translate(0 0)"/></g></g><g id="Carácter_general" data-name="Carácter general" class="cls-2"><g class="cls-2"><path class="cls-4" d="M238.34,135.18a4.3,4.3,0,0,1-.8,2.08,4.37,4.37,0,0,1-1.75,1.39,5.11,5.11,0,0,1-2.31.46,3.82,3.82,0,0,1-1.95-.51,3.43,3.43,0,0,1-1.31-1.43,5.29,5.29,0,0,1-.54-2.16,10.3,10.3,0,0,1,.2-2.38,7.12,7.12,0,0,1,.9-2.52,5.5,5.5,0,0,1,1.54-1.75,4.67,4.67,0,0,1,2.88-.87,3.8,3.8,0,0,1,2.78,1.08,4.31,4.31,0,0,1,1.13,2.93h-2.27a2.4,2.4,0,0,0-.42-1.57,1.76,1.76,0,0,0-1.33-.53,2.3,2.3,0,0,0-1.92.83,5,5,0,0,0-1,2.54,13.91,13.91,0,0,0-.22,2.44,2.4,2.4,0,0,0,.46,1.51,1.56,1.56,0,0,0,1.17.51,2.37,2.37,0,0,0,1.67-.5,2.66,2.66,0,0,0,.83-1.52Z" transform="translate(0 0)"/><path class="cls-4" d="M244,139a2.2,2.2,0,0,1-.09-.76,2.83,2.83,0,0,1-2.14.91,2.59,2.59,0,0,1-1.83-.71,2.17,2.17,0,0,1-.68-1.74,2.5,2.5,0,0,1,1.15-2.11,5.26,5.26,0,0,1,2.95-.74l1,0,.11-.51a2,2,0,0,0,0-.49.87.87,0,0,0-.28-.57.88.88,0,0,0-.62-.21,1.34,1.34,0,0,0-.87.25,1.24,1.24,0,0,0-.46.78h-2.2a2.43,2.43,0,0,1,1.11-2,4.29,4.29,0,0,1,2.6-.74,3.14,3.14,0,0,1,2.24.85,2.51,2.51,0,0,1,.67,2.11l-.64,4,0,.5a2.35,2.35,0,0,0,.13.93V139Zm-1.69-1.55a2,2,0,0,0,1.66-.82l.27-1.46h-.76a2.11,2.11,0,0,0-1.75.74,1.26,1.26,0,0,0-.24.63.77.77,0,0,0,.17.66A.89.89,0,0,0,242.33,137.41Z" transform="translate(0 0)"/><path class="cls-4" d="M253.27,132.66a3.82,3.82,0,0,0-.74-.08,2.13,2.13,0,0,0-1.86.88l-1,5.5h-2.19l1.46-8.41H251l-.2,1a2.3,2.3,0,0,1,2-1.19,2.89,2.89,0,0,1,.76.11Z" transform="translate(0 0)"/><path class="cls-4" d="M258.09,139a2.2,2.2,0,0,1-.09-.76,2.85,2.85,0,0,1-2.14.91,2.59,2.59,0,0,1-1.83-.71,2.17,2.17,0,0,1-.68-1.74,2.5,2.5,0,0,1,1.15-2.11,5.24,5.24,0,0,1,2.95-.74l1,0,.1-.51a1.64,1.64,0,0,0,0-.49.87.87,0,0,0-.28-.57.9.9,0,0,0-.62-.21,1.32,1.32,0,0,0-.87.25,1.24,1.24,0,0,0-.46.78h-2.2a2.41,2.41,0,0,1,1.11-2,4.27,4.27,0,0,1,2.6-.74,3.11,3.11,0,0,1,2.23.85,2.49,2.49,0,0,1,.68,2.11l-.64,4,0,.5a2.35,2.35,0,0,0,.13.93V139Zm-1.69-1.55a2,2,0,0,0,1.66-.82l.27-1.46h-.76a2.11,2.11,0,0,0-1.75.74,1.26,1.26,0,0,0-.24.63.74.74,0,0,0,.17.66A.89.89,0,0,0,256.4,137.41ZM259,127h2.54L259,129.43h-1.94Z" transform="translate(0 0)"/><path class="cls-4" d="M265.26,137.31a1.43,1.43,0,0,0,1-.33,1.61,1.61,0,0,0,.53-.92h2.06a3.14,3.14,0,0,1-.55,1.6,3.46,3.46,0,0,1-1.34,1.1,3.85,3.85,0,0,1-1.76.37,3.13,3.13,0,0,1-2.43-1.05,4,4,0,0,1-.86-2.76l0-.42v-.09a5.25,5.25,0,0,1,1.38-3.25,3.77,3.77,0,0,1,2.9-1.16,3,3,0,0,1,2.26.93,3.28,3.28,0,0,1,.82,2.37h-2a1.72,1.72,0,0,0-.3-1.07,1.13,1.13,0,0,0-.88-.42c-1,0-1.69.74-1.91,2.3a7.52,7.52,0,0,0-.08,1.43C264.15,136.83,264.54,137.3,265.26,137.31Z" transform="translate(0 0)"/><path class="cls-4" d="M274.15,128.48l-.36,2.07h1.4l-.29,1.65h-1.4l-.71,4.21a1,1,0,0,0,.06.61c.07.14.25.21.53.22a5.93,5.93,0,0,0,.67,0l-.16,1.72a3.7,3.7,0,0,1-1.26.18,2,2,0,0,1-1.61-.68,2.41,2.41,0,0,1-.43-1.79l.72-4.43h-1.19l.29-1.65h1.19l.35-2.07Z" transform="translate(0 0)"/><path class="cls-4" d="M279,139.11a3.58,3.58,0,0,1-2-.54,3.23,3.23,0,0,1-1.27-1.46,4.1,4.1,0,0,1-.33-2.05l0-.31a5.45,5.45,0,0,1,.71-2.25,4.33,4.33,0,0,1,1.54-1.58,3.83,3.83,0,0,1,2.09-.53,2.91,2.91,0,0,1,2.46,1.2,4.15,4.15,0,0,1,.63,2.95l-.13,1h-5.15a1.79,1.79,0,0,0,.4,1.31,1.51,1.51,0,0,0,1.16.5,2.7,2.7,0,0,0,2.1-.93l1,1.24a3.19,3.19,0,0,1-1.37,1.12A4.45,4.45,0,0,1,279,139.11Zm.7-6.91a1.57,1.57,0,0,0-1.08.38,3.48,3.48,0,0,0-.84,1.38h3l0-.2a2.35,2.35,0,0,0,0-.59,1.2,1.2,0,0,0-.38-.71A1.29,1.29,0,0,0,279.7,132.2Z" transform="translate(0 0)"/><path class="cls-4" d="M289.19,132.66a3.82,3.82,0,0,0-.74-.08,2.13,2.13,0,0,0-1.86.88l-1,5.5h-2.19l1.46-8.41H287l-.2,1a2.3,2.3,0,0,1,2-1.19,2.89,2.89,0,0,1,.76.11Z" transform="translate(0 0)"/><path class="cls-4" d="M293.49,134.75a5.72,5.72,0,0,1,1.27-3.17,3.2,3.2,0,0,1,2.61-1.19,2.35,2.35,0,0,1,2,1l.29-.82h2l-1.38,8.12a3.93,3.93,0,0,1-1.43,2.66,4.46,4.46,0,0,1-3,.95,4.2,4.2,0,0,1-1.67-.38,3.57,3.57,0,0,1-1.3-1l1.09-1.34a2.32,2.32,0,0,0,1.83,1,2.14,2.14,0,0,0,1.46-.45,2.4,2.4,0,0,0,.83-1.35l.12-.5a2.74,2.74,0,0,1-2.06.88,2.4,2.4,0,0,1-1.95-.91,3.9,3.9,0,0,1-.79-2.33A6.32,6.32,0,0,1,293.49,134.75Zm2.15.92a2,2,0,0,0,.31,1.17,1.06,1.06,0,0,0,.89.46,2,2,0,0,0,1.58-.76l.65-3.57a1.29,1.29,0,0,0-1.23-.76,1.71,1.71,0,0,0-1.42.68,3.48,3.48,0,0,0-.73,1.86A6.6,6.6,0,0,0,295.64,135.67Z" transform="translate(0 0)"/><path class="cls-4" d="M306,139.11a3.57,3.57,0,0,1-1.95-.54,3.23,3.23,0,0,1-1.27-1.46,4.1,4.1,0,0,1-.33-2.05l0-.31a5.47,5.47,0,0,1,.72-2.25,4.33,4.33,0,0,1,1.54-1.58,3.82,3.82,0,0,1,2.08-.53,2.9,2.9,0,0,1,2.46,1.2,4.11,4.11,0,0,1,.64,2.95l-.13,1h-5.15a1.84,1.84,0,0,0,.39,1.31,1.55,1.55,0,0,0,1.17.5,2.7,2.7,0,0,0,2.1-.93l1,1.24a3.13,3.13,0,0,1-1.37,1.12A4.4,4.4,0,0,1,306,139.11Zm.7-6.91a1.56,1.56,0,0,0-1.07.38,3.37,3.37,0,0,0-.85,1.38h3l.05-.2a1.94,1.94,0,0,0,0-.59,1.15,1.15,0,0,0-.38-.71A1.27,1.27,0,0,0,306.65,132.2Z" transform="translate(0 0)"/><path class="cls-4" d="M313.85,130.54l-.18,1a3,3,0,0,1,2.44-1.15,2,2,0,0,1,1.76.87,3.48,3.48,0,0,1,.41,2.35L317.4,139h-2.2l.91-5.37a2.57,2.57,0,0,0,0-.55.9.9,0,0,0-1-.82,1.9,1.9,0,0,0-1.55.8L312.53,139h-2.19l1.46-8.41Z" transform="translate(0 0)"/><path class="cls-4" d="M323.11,139.11a3.58,3.58,0,0,1-2-.54,3.29,3.29,0,0,1-1.27-1.46,4,4,0,0,1-.32-2.05l0-.31a5.61,5.61,0,0,1,.71-2.25,4.41,4.41,0,0,1,1.54-1.58,3.86,3.86,0,0,1,2.09-.53,2.91,2.91,0,0,1,2.46,1.2,4.1,4.1,0,0,1,.63,2.95l-.12,1h-5.16a1.79,1.79,0,0,0,.4,1.31,1.51,1.51,0,0,0,1.16.5,2.7,2.7,0,0,0,2.1-.93l1,1.24a3.19,3.19,0,0,1-1.37,1.12A4.45,4.45,0,0,1,323.11,139.11Zm.7-6.91a1.57,1.57,0,0,0-1.08.38,3.48,3.48,0,0,0-.84,1.38h3l.05-.2a2.35,2.35,0,0,0,0-.59,1.15,1.15,0,0,0-.38-.71A1.27,1.27,0,0,0,323.81,132.2Z" transform="translate(0 0)"/><path class="cls-4" d="M333.3,132.66a3.82,3.82,0,0,0-.74-.08,2.13,2.13,0,0,0-1.86.88l-1,5.5h-2.19l1.46-8.41h2.06l-.2,1a2.3,2.3,0,0,1,2-1.19,2.89,2.89,0,0,1,.76.11Z" transform="translate(0 0)"/><path class="cls-4" d="M337.88,139a2.5,2.5,0,0,1-.08-.76,2.85,2.85,0,0,1-2.15.91,2.63,2.63,0,0,1-1.83-.71,2.2,2.2,0,0,1-.68-1.74,2.51,2.51,0,0,1,1.16-2.11,5.21,5.21,0,0,1,2.95-.74l1,0,.11-.51a2.05,2.05,0,0,0,0-.49.87.87,0,0,0-.28-.57.92.92,0,0,0-.63-.21,1.34,1.34,0,0,0-.87.25,1.29,1.29,0,0,0-.46.78H334a2.42,2.42,0,0,1,1.1-2,4.31,4.31,0,0,1,2.6-.74,3.12,3.12,0,0,1,2.24.85,2.49,2.49,0,0,1,.68,2.11l-.65,4,0,.5a2.34,2.34,0,0,0,.14.93V139Zm-1.68-1.55a2,2,0,0,0,1.65-.82l.28-1.46h-.77a2.09,2.09,0,0,0-1.74.74,1.37,1.37,0,0,0-.25.63.74.74,0,0,0,.18.66A.87.87,0,0,0,336.2,137.41Z" transform="translate(0 0)"/><path class="cls-4" d="M343.69,139h-2.21L343.56,127h2.2Z" transform="translate(0 0)"/></g></g><g id="Prevención" class="cls-2"><g class="cls-2"><path class="cls-4" d="M231.78,149.94l-.7,4h-2.27l2-11.32h4a4,4,0,0,1,2.88,1,3.15,3.15,0,0,1,.92,2.66,3.6,3.6,0,0,1-1.39,2.66,5.07,5.07,0,0,1-3.22,1Zm.32-1.89,1.9,0a2.36,2.36,0,0,0,1.52-.48,1.88,1.88,0,0,0,.73-1.28A1.63,1.63,0,0,0,236,145a1.4,1.4,0,0,0-1.11-.51h-2.15Z" transform="translate(0 0)"/><path class="cls-4" d="M244.46,147.62a4.62,4.62,0,0,0-.74-.07,2.13,2.13,0,0,0-1.86.88l-1,5.5H238.7l1.46-8.41h2.06l-.2,1a2.3,2.3,0,0,1,2-1.19,2.84,2.84,0,0,1,.76.11Z" transform="translate(0 0)"/><path class="cls-4" d="M248.41,154.08a3.58,3.58,0,0,1-2-.54,3.29,3.29,0,0,1-1.27-1.46,4,4,0,0,1-.32-2l0-.32a5.47,5.47,0,0,1,.72-2.25,4.38,4.38,0,0,1,1.53-1.58,3.86,3.86,0,0,1,2.09-.53,2.91,2.91,0,0,1,2.46,1.2,4.06,4.06,0,0,1,.63,2.95l-.12,1H247a1.84,1.84,0,0,0,.4,1.31,1.49,1.49,0,0,0,1.17.5,2.69,2.69,0,0,0,2.09-.93l1,1.24a3.19,3.19,0,0,1-1.37,1.12A4.31,4.31,0,0,1,248.41,154.08Zm.7-6.91a1.61,1.61,0,0,0-1.08.38,3.48,3.48,0,0,0-.84,1.38h3l0-.2a2,2,0,0,0,0-.59,1.1,1.1,0,0,0-.38-.7A1.22,1.22,0,0,0,249.11,147.17Z" transform="translate(0 0)"/><path class="cls-4" d="M256.28,151.15l2.39-5.63H261L257,153.93h-2.1l-1.44-8.41h2.22Z" transform="translate(0 0)"/><path class="cls-4" d="M264.62,154.08a3.58,3.58,0,0,1-2-.54,3.23,3.23,0,0,1-1.27-1.46,4.08,4.08,0,0,1-.33-2l0-.32a5.45,5.45,0,0,1,.71-2.25,4.33,4.33,0,0,1,1.54-1.58,3.82,3.82,0,0,1,2.08-.53,2.88,2.88,0,0,1,2.46,1.2,4.11,4.11,0,0,1,.64,2.95l-.13,1h-5.15a1.79,1.79,0,0,0,.4,1.31,1.48,1.48,0,0,0,1.16.5,2.7,2.7,0,0,0,2.1-.93l1,1.24a3.1,3.1,0,0,1-1.36,1.12A4.31,4.31,0,0,1,264.62,154.08Zm.7-6.91a1.57,1.57,0,0,0-1.08.38,3.37,3.37,0,0,0-.84,1.38h3l0-.2a2.35,2.35,0,0,0,0-.59,1.11,1.11,0,0,0-.39-.7A1.19,1.19,0,0,0,265.32,147.17Z" transform="translate(0 0)"/><path class="cls-4" d="M272.51,145.51l-.18,1a3,3,0,0,1,2.45-1.15,2,2,0,0,1,1.75.87,3.48,3.48,0,0,1,.41,2.35l-.88,5.35h-2.19l.9-5.37a2.57,2.57,0,0,0,0-.55.89.89,0,0,0-1-.82,1.9,1.9,0,0,0-1.55.8l-1.05,5.94H269l1.46-8.41Z" transform="translate(0 0)"/><path class="cls-4" d="M281.46,152.28a1.45,1.45,0,0,0,1-.33A1.61,1.61,0,0,0,283,151h2.06a3.06,3.06,0,0,1-.56,1.6,3.34,3.34,0,0,1-1.33,1.1,3.85,3.85,0,0,1-1.76.37A3.12,3.12,0,0,1,279,153a3.94,3.94,0,0,1-.86-2.76l0-.42v-.09a5.25,5.25,0,0,1,1.38-3.25,3.75,3.75,0,0,1,2.9-1.16,3,3,0,0,1,2.26.93,3.28,3.28,0,0,1,.82,2.37h-2.05a1.72,1.72,0,0,0-.29-1.07,1.18,1.18,0,0,0-.89-.42c-1,0-1.68.74-1.9,2.3a7.63,7.63,0,0,0-.09,1.43C280.35,151.8,280.73,152.27,281.46,152.28Z" transform="translate(0 0)"/><path class="cls-4" d="M288.22,153.93H286l1.46-8.41h2.2Zm-.49-10.55a1.1,1.1,0,0,1,.35-.86,1.17,1.17,0,0,1,.86-.34,1.21,1.21,0,0,1,.86.3,1.1,1.1,0,0,1,.38.82,1.15,1.15,0,0,1-.32.84,1.29,1.29,0,0,1-1.74.08A1.08,1.08,0,0,1,287.73,143.38Z" transform="translate(0 0)"/><path class="cls-4" d="M294.89,145.36a3.33,3.33,0,0,1,1.92.58,3.19,3.19,0,0,1,1.18,1.53,4.77,4.77,0,0,1,.27,2.16,5.14,5.14,0,0,1-1.4,3.25,3.91,3.91,0,0,1-3,1.2,3.35,3.35,0,0,1-1.9-.56,3.17,3.17,0,0,1-1.18-1.52,4.7,4.7,0,0,1-.27-2.14,5.26,5.26,0,0,1,1.41-3.32A3.9,3.9,0,0,1,294.89,145.36Zm-2.21,5.29a1.9,1.9,0,0,0,.35,1.18,1.14,1.14,0,0,0,.94.44,1.71,1.71,0,0,0,1.58-.92,4.62,4.62,0,0,0,.54-2.52,2.08,2.08,0,0,0-.36-1.19,1.18,1.18,0,0,0-1-.47,1.71,1.71,0,0,0-1.56.92A4.62,4.62,0,0,0,292.68,150.65ZM295.9,142h2.54L296,144.4H294Z" transform="translate(0 0)"/><path class="cls-4" d="M302.35,145.51l-.18,1a3,3,0,0,1,2.45-1.15,2,2,0,0,1,1.75.87,3.48,3.48,0,0,1,.41,2.35l-.88,5.35h-2.19l.9-5.37a2.57,2.57,0,0,0,0-.55.89.89,0,0,0-1-.82,1.9,1.9,0,0,0-1.55.8L301,153.93h-2.19l1.46-8.41Z" transform="translate(0 0)"/></g></g><g id="Intervención" class="cls-2"><g class="cls-2"><path class="cls-4" d="M231.62,170.1h-2.28l2-11.31h2.28Z" transform="translate(0 0)"/><path class="cls-4" d="M237.1,161.68l-.18,1a3,3,0,0,1,2.44-1.14,2,2,0,0,1,1.76.87,3.43,3.43,0,0,1,.41,2.34l-.88,5.35h-2.19l.9-5.37a2.56,2.56,0,0,0,0-.55.9.9,0,0,0-1-.82,1.9,1.9,0,0,0-1.55.8l-1.05,5.94h-2.19l1.46-8.41Z" transform="translate(0 0)"/><path class="cls-4" d="M246.81,159.62l-.36,2.07h1.39l-.28,1.65h-1.4l-.72,4.21a1.11,1.11,0,0,0,.06.61c.08.14.25.21.53.22a4.89,4.89,0,0,0,.67,0l-.15,1.71a3.7,3.7,0,0,1-1.26.18,2,2,0,0,1-1.61-.67,2.49,2.49,0,0,1-.44-1.79l.73-4.44h-1.19l.28-1.65h1.19l.36-2.07Z" transform="translate(0 0)"/><path class="cls-4" d="M251.65,170.26a3.75,3.75,0,0,1-2-.54,3.28,3.28,0,0,1-1.27-1.46,4.12,4.12,0,0,1-.33-2l0-.31a5.51,5.51,0,0,1,.72-2.26,4.33,4.33,0,0,1,1.54-1.58,3.79,3.79,0,0,1,2.08-.52,2.93,2.93,0,0,1,2.46,1.19,4.07,4.07,0,0,1,.63,3l-.12.95h-5.15a1.82,1.82,0,0,0,.39,1.31,1.52,1.52,0,0,0,1.17.51,2.67,2.67,0,0,0,2.1-.94l1,1.25a3.11,3.11,0,0,1-1.37,1.11A4.4,4.4,0,0,1,251.65,170.26Zm.7-6.91a1.52,1.52,0,0,0-1.07.38,3.26,3.26,0,0,0-.85,1.37h3l.05-.2a1.94,1.94,0,0,0,0-.59,1.13,1.13,0,0,0-.38-.7A1.16,1.16,0,0,0,252.35,163.35Z" transform="translate(0 0)"/><path class="cls-4" d="M261.84,163.8a4.69,4.69,0,0,0-.74-.08,2.1,2.1,0,0,0-1.85.88l-1,5.5h-2.2l1.46-8.41h2.06l-.2,1a2.32,2.32,0,0,1,2-1.19,3.31,3.31,0,0,1,.76.11Z" transform="translate(0 0)"/><path class="cls-4" d="M265.47,167.33l2.4-5.64h2.36l-4.06,8.41h-2.1l-1.44-8.41h2.22Z" transform="translate(0 0)"/><path class="cls-4" d="M273.81,170.26a3.75,3.75,0,0,1-1.95-.54,3.28,3.28,0,0,1-1.27-1.46,4.12,4.12,0,0,1-.33-2l0-.31a5.35,5.35,0,0,1,.71-2.26,4.33,4.33,0,0,1,1.54-1.58,3.81,3.81,0,0,1,2.08-.52,2.9,2.9,0,0,1,2.46,1.19,4.12,4.12,0,0,1,.64,3l-.13.95h-5.15a1.82,1.82,0,0,0,.39,1.31,1.52,1.52,0,0,0,1.17.51,2.67,2.67,0,0,0,2.1-.94l1,1.25a3.06,3.06,0,0,1-1.37,1.11A4.4,4.4,0,0,1,273.81,170.26Zm.7-6.91a1.52,1.52,0,0,0-1.07.38,3.26,3.26,0,0,0-.85,1.37h3l.05-.2a1.94,1.94,0,0,0,0-.59,1.08,1.08,0,0,0-.38-.7A1.16,1.16,0,0,0,274.51,163.35Z" transform="translate(0 0)"/><path class="cls-4" d="M281.71,161.68l-.19,1a3,3,0,0,1,2.45-1.14,2,2,0,0,1,1.76.87,3.43,3.43,0,0,1,.41,2.34l-.88,5.35h-2.2l.9-5.37a2.07,2.07,0,0,0,0-.55.9.9,0,0,0-1-.82,1.89,1.89,0,0,0-1.55.8l-1.05,5.94H278.2l1.46-8.41Z" transform="translate(0 0)"/><path class="cls-4" d="M290.66,168.46a1.51,1.51,0,0,0,1-.34,1.64,1.64,0,0,0,.53-.92h2.06a3,3,0,0,1-.56,1.59,3.31,3.31,0,0,1-1.34,1.1,3.8,3.8,0,0,1-1.76.38,3.1,3.1,0,0,1-2.42-1.06,3.89,3.89,0,0,1-.86-2.75l0-.43v-.09a5.28,5.28,0,0,1,1.38-3.25,3.74,3.74,0,0,1,2.9-1.15,3.06,3.06,0,0,1,2.26.92,3.32,3.32,0,0,1,.82,2.37h-2a1.76,1.76,0,0,0-.29-1.06,1.12,1.12,0,0,0-.89-.42c-1.05,0-1.68.73-1.9,2.29a7.68,7.68,0,0,0-.09,1.43C289.54,168,289.93,168.44,290.66,168.46Z" transform="translate(0 0)"/><path class="cls-4" d="M297.42,170.1h-2.21l1.46-8.41h2.21Zm-.49-10.55a1.1,1.1,0,0,1,.34-.86,1.21,1.21,0,0,1,.87-.34,1.23,1.23,0,0,1,.86.3,1.12,1.12,0,0,1,.38.83,1.15,1.15,0,0,1-.32.84,1.25,1.25,0,0,1-.89.37,1.2,1.2,0,0,1-.85-.3A1.06,1.06,0,0,1,296.93,159.55Z" transform="translate(0 0)"/><path class="cls-4" d="M304.09,161.54a3.4,3.4,0,0,1,1.92.57,3.24,3.24,0,0,1,1.18,1.53,4.77,4.77,0,0,1,.27,2.16,5.14,5.14,0,0,1-1.4,3.25,3.92,3.92,0,0,1-3,1.21,3.33,3.33,0,0,1-1.9-.57,3.11,3.11,0,0,1-1.18-1.52,4.43,4.43,0,0,1-.27-2.14,5.23,5.23,0,0,1,1.41-3.31A3.86,3.86,0,0,1,304.09,161.54Zm-2.22,5.28a2,2,0,0,0,.35,1.18,1.17,1.17,0,0,0,.94.45,1.7,1.7,0,0,0,1.59-.93,4.71,4.71,0,0,0,.54-2.52,2,2,0,0,0-.37-1.19,1.11,1.11,0,0,0-.94-.46,1.71,1.71,0,0,0-1.57.92A4.56,4.56,0,0,0,301.87,166.82Zm3.23-8.66h2.54l-2.47,2.41h-1.94Z" transform="translate(0 0)"/><path class="cls-4" d="M311.55,161.68l-.18,1a3,3,0,0,1,2.44-1.14,2,2,0,0,1,1.76.87,3.43,3.43,0,0,1,.41,2.34l-.88,5.35h-2.2l.91-5.37a2.56,2.56,0,0,0,0-.55.9.9,0,0,0-1-.82,1.9,1.9,0,0,0-1.55.8l-1,5.94H308l1.46-8.41Z" transform="translate(0 0)"/></g></g><g id="Almacenamiento" class="cls-2"><g class="cls-2"><path class="cls-4" d="M235.85,183.08H231.9l-1.16,2.33h-2.51l6-11.32h2.11l2.15,11.32h-2.32Zm-3-1.89h2.73l-.63-4.22Z" transform="translate(0 0)"/><path class="cls-4" d="M241.84,185.41h-2.2l2.07-11.94h2.2Z" transform="translate(0 0)"/><path class="cls-4" d="M247.2,177l-.18,1a3.09,3.09,0,0,1,2.46-1.11,2.34,2.34,0,0,1,1.29.36,1.68,1.68,0,0,1,.7.92,3.25,3.25,0,0,1,2.61-1.28,2.13,2.13,0,0,1,1.74.79,3.3,3.3,0,0,1,.5,2.23l0,.19-.89,5.36h-2.2l.89-5.38a3.33,3.33,0,0,0,0-.54q0-.81-.93-.84a1.83,1.83,0,0,0-1.54,1l0,.18-1,5.61h-2.19l.89-5.36a3.32,3.32,0,0,0,0-.53.84.84,0,0,0-.93-.85,1.85,1.85,0,0,0-1.5.78l-1.05,6H243.7l1.46-8.41Z" transform="translate(0 0)"/><path class="cls-4" d="M262,185.41a2.54,2.54,0,0,1-.08-.76,2.85,2.85,0,0,1-2.15.91,2.59,2.59,0,0,1-1.83-.72,2.17,2.17,0,0,1-.68-1.73,2.51,2.51,0,0,1,1.16-2.11,5.21,5.21,0,0,1,2.95-.74l1,0,.11-.51a2.05,2.05,0,0,0,0-.49.87.87,0,0,0-.28-.57.92.92,0,0,0-.63-.21,1.34,1.34,0,0,0-.87.25,1.24,1.24,0,0,0-.46.77h-2.2a2.46,2.46,0,0,1,1.11-1.95,4.29,4.29,0,0,1,2.6-.74,3.12,3.12,0,0,1,2.24.85,2.49,2.49,0,0,1,.68,2.11l-.65,4,0,.5a2.37,2.37,0,0,0,.14.93v.15Zm-1.68-1.55A2,2,0,0,0,262,183l.28-1.46h-.77a2.11,2.11,0,0,0-1.74.73,1.37,1.37,0,0,0-.25.63.76.76,0,0,0,.18.67A.87.87,0,0,0,260.33,183.86Z" transform="translate(0 0)"/><path class="cls-4" d="M269.19,183.76a1.45,1.45,0,0,0,1-.33,1.67,1.67,0,0,0,.53-.92h2.06a3,3,0,0,1-.56,1.59,3.37,3.37,0,0,1-1.33,1.11,3.86,3.86,0,0,1-1.77.37,3.1,3.1,0,0,1-2.42-1.06,3.92,3.92,0,0,1-.86-2.75l0-.43v-.08a5.25,5.25,0,0,1,1.38-3.25,3.75,3.75,0,0,1,2.9-1.16,3,3,0,0,1,2.26.93,3.28,3.28,0,0,1,.82,2.37h-2.05a1.72,1.72,0,0,0-.29-1.07,1.12,1.12,0,0,0-.89-.42c-1,0-1.68.74-1.9,2.3a7.63,7.63,0,0,0-.09,1.43Q268.1,183.73,269.19,183.76Z" transform="translate(0 0)"/><path class="cls-4" d="M277.63,185.56a3.58,3.58,0,0,1-2-.54,3.29,3.29,0,0,1-1.27-1.46,4.09,4.09,0,0,1-.32-2.05l0-.31a5.42,5.42,0,0,1,.72-2.25,4.25,4.25,0,0,1,1.54-1.58,3.8,3.8,0,0,1,2.08-.53,2.91,2.91,0,0,1,2.46,1.2,4,4,0,0,1,.63,2.94l-.12,1h-5.16a1.85,1.85,0,0,0,.4,1.31,1.53,1.53,0,0,0,1.17.5,2.72,2.72,0,0,0,2.1-.93l1,1.24a3.13,3.13,0,0,1-1.37,1.12A4.61,4.61,0,0,1,277.63,185.56Zm.7-6.91a1.61,1.61,0,0,0-1.08.38,3.48,3.48,0,0,0-.84,1.38h3l0-.2a2,2,0,0,0,0-.59,1.15,1.15,0,0,0-.38-.71A1.21,1.21,0,0,0,278.33,178.65Z" transform="translate(0 0)"/><path class="cls-4" d="M285.53,177l-.19,1a3,3,0,0,1,2.45-1.14,2.05,2.05,0,0,1,1.76.87,3.59,3.59,0,0,1,.41,2.35l-.89,5.35h-2.19l.9-5.37a2.71,2.71,0,0,0,0-.56.89.89,0,0,0-1-.81,1.86,1.86,0,0,0-1.54.8l-1.05,5.94H282l1.47-8.41Z" transform="translate(0 0)"/><path class="cls-4" d="M295.66,185.41a2.24,2.24,0,0,1-.09-.76,2.85,2.85,0,0,1-2.15.91,2.59,2.59,0,0,1-1.83-.72,2.17,2.17,0,0,1-.68-1.73,2.53,2.53,0,0,1,1.16-2.11,5.24,5.24,0,0,1,2.95-.74l1,0,.11-.51a2.05,2.05,0,0,0,0-.49.87.87,0,0,0-.28-.57.91.91,0,0,0-.62-.21,1.35,1.35,0,0,0-.88.25,1.23,1.23,0,0,0-.45.77h-2.2a2.42,2.42,0,0,1,1.1-1.95,4.31,4.31,0,0,1,2.6-.74,3.12,3.12,0,0,1,2.24.85,2.49,2.49,0,0,1,.68,2.11l-.65,4,0,.5a2.37,2.37,0,0,0,.14.93v.15ZM294,183.86a2,2,0,0,0,1.65-.82l.28-1.46h-.77a2.11,2.11,0,0,0-1.74.73,1.26,1.26,0,0,0-.24.63.73.73,0,0,0,.17.67A.87.87,0,0,0,294,183.86Z" transform="translate(0 0)"/><path class="cls-4" d="M302.64,177l-.18,1a3.11,3.11,0,0,1,2.47-1.11,2.34,2.34,0,0,1,1.29.36,1.71,1.71,0,0,1,.69.92,3.25,3.25,0,0,1,2.61-1.28,2.15,2.15,0,0,1,1.75.79,3.3,3.3,0,0,1,.49,2.23v.19l-.9,5.36h-2.2l.9-5.38a3.33,3.33,0,0,0,0-.54.84.84,0,0,0-.93-.84,1.85,1.85,0,0,0-1.55,1l0,.18-1,5.61H303.9l.89-5.36a3.25,3.25,0,0,0,0-.53.82.82,0,0,0-.92-.85,1.82,1.82,0,0,0-1.5.78l-1.05,6h-2.19L300.6,177Z" transform="translate(0 0)"/><path class="cls-4" d="M314.91,185.41H312.7l1.46-8.41h2.21Zm-.49-10.55a1.07,1.07,0,0,1,.34-.86,1.21,1.21,0,0,1,.86-.35,1.24,1.24,0,0,1,.87.31,1.08,1.08,0,0,1,.38.82,1.15,1.15,0,0,1-.32.84,1.21,1.21,0,0,1-.89.37,1.23,1.23,0,0,1-.86-.29A1.11,1.11,0,0,1,314.42,174.86Z" transform="translate(0 0)"/><path class="cls-4" d="M320.76,185.56a3.57,3.57,0,0,1-1.95-.54,3.23,3.23,0,0,1-1.27-1.46,4.1,4.1,0,0,1-.33-2.05l0-.31A5.42,5.42,0,0,1,318,179a4.25,4.25,0,0,1,1.54-1.58,3.8,3.8,0,0,1,2.08-.53A2.91,2.91,0,0,1,324,178a4,4,0,0,1,.63,2.94l-.12,1h-5.15a1.85,1.85,0,0,0,.39,1.31,1.55,1.55,0,0,0,1.17.5,2.7,2.7,0,0,0,2.1-.93l1,1.24a3.13,3.13,0,0,1-1.37,1.12A4.54,4.54,0,0,1,320.76,185.56Zm.7-6.91a1.56,1.56,0,0,0-1.07.38,3.37,3.37,0,0,0-.85,1.38h3l0-.2a1.68,1.68,0,0,0,0-.59,1.15,1.15,0,0,0-.38-.71A1.21,1.21,0,0,0,321.46,178.65Z" transform="translate(0 0)"/><path class="cls-4" d="M328.66,177l-.19,1a3,3,0,0,1,2.45-1.14,2.05,2.05,0,0,1,1.76.87,3.53,3.53,0,0,1,.41,2.35l-.89,5.35H330l.9-5.37a2.16,2.16,0,0,0,0-.56.89.89,0,0,0-1-.81,1.86,1.86,0,0,0-1.54.8l-1.05,5.94h-2.19l1.46-8.41Z" transform="translate(0 0)"/><path class="cls-4" d="M338.37,174.93,338,177h1.4l-.29,1.64h-1.4l-.71,4.22a1.09,1.09,0,0,0,.06.6c.07.14.25.22.53.23l.67,0-.16,1.72a3.66,3.66,0,0,1-1.26.18,2,2,0,0,1-1.6-.68,2.43,2.43,0,0,1-.44-1.79l.72-4.44h-1.19l.29-1.64h1.19l.36-2.07Z" transform="translate(0 0)"/><path class="cls-4" d="M343.79,176.84a3.4,3.4,0,0,1,1.92.57,3.18,3.18,0,0,1,1.18,1.53,4.82,4.82,0,0,1,.27,2.17,5,5,0,0,1-1.4,3.24,3.92,3.92,0,0,1-3,1.21,3.43,3.43,0,0,1-1.9-.56,3.28,3.28,0,0,1-1.18-1.52,4.73,4.73,0,0,1-.27-2.15,5.31,5.31,0,0,1,1.41-3.31A3.86,3.86,0,0,1,343.79,176.84Zm-2.21,5.29a2,2,0,0,0,.35,1.18,1.16,1.16,0,0,0,.94.44,1.7,1.7,0,0,0,1.58-.93,4.48,4.48,0,0,0,.54-2.51,2.13,2.13,0,0,0-.36-1.2,1.17,1.17,0,0,0-.95-.46,1.71,1.71,0,0,0-1.56.92A4.62,4.62,0,0,0,341.58,182.13Z" transform="translate(0 0)"/></g></g><g id="Eliminación" class="cls-2"><g class="cls-2"><path class="cls-4" d="M236.67,195.46h-4.34l-.53,3h5.1l-.33,1.87H229.2l2-11.32h7.36l-.33,1.89h-5.08l-.47,2.7H237Z" transform="translate(0 0)"/><path class="cls-4" d="M240.13,200.36h-2.2L240,188.42h2.2Z" transform="translate(0 0)"/><path class="cls-4" d="M244.31,200.36H242.1l1.46-8.41h2.21Zm-.49-10.55a1.1,1.1,0,0,1,.34-.86,1.2,1.2,0,0,1,.86-.34,1.25,1.25,0,0,1,.87.3,1.1,1.1,0,0,1,.38.83,1.12,1.12,0,0,1-.33.84,1.23,1.23,0,0,1-.88.37,1.24,1.24,0,0,1-.86-.3A1.08,1.08,0,0,1,243.82,189.81Z" transform="translate(0 0)"/><path class="cls-4" d="M249.66,192l-.18,1a3.1,3.1,0,0,1,2.47-1.1,2.42,2.42,0,0,1,1.29.35,1.69,1.69,0,0,1,.69.93,3.22,3.22,0,0,1,2.61-1.28,2.12,2.12,0,0,1,1.75.79,3.26,3.26,0,0,1,.49,2.22v.2l-.9,5.35h-2.2l.9-5.37a5.15,5.15,0,0,0,0-.54.83.83,0,0,0-.93-.84,1.86,1.86,0,0,0-1.55,1l0,.18-1,5.61h-2.19l.89-5.35a3.33,3.33,0,0,0,0-.54.83.83,0,0,0-.92-.85,1.86,1.86,0,0,0-1.5.79l-1,6h-2.19l1.45-8.41Z" transform="translate(0 0)"/><path class="cls-4" d="M261.93,200.36h-2.21l1.46-8.41h2.21Zm-.49-10.55a1.1,1.1,0,0,1,.34-.86,1.2,1.2,0,0,1,.86-.34,1.23,1.23,0,0,1,.87.3,1.1,1.1,0,0,1,.38.83,1.15,1.15,0,0,1-.32.84,1.31,1.31,0,0,1-1.75.07A1.08,1.08,0,0,1,261.44,189.81Z" transform="translate(0 0)"/><path class="cls-4" d="M267.25,192l-.18,1a3,3,0,0,1,2.45-1.14,2,2,0,0,1,1.75.87,3.46,3.46,0,0,1,.41,2.35l-.88,5.34h-2.19l.9-5.37a2.56,2.56,0,0,0,0-.55.89.89,0,0,0-1-.82,1.9,1.9,0,0,0-1.55.8l-1.05,5.94h-2.19L265.2,192Z" transform="translate(0 0)"/><path class="cls-4" d="M277.38,200.36a2.19,2.19,0,0,1-.08-.76,2.88,2.88,0,0,1-2.15.92,2.58,2.58,0,0,1-1.83-.72,2.2,2.2,0,0,1-.68-1.74,2.52,2.52,0,0,1,1.15-2.11,5.26,5.26,0,0,1,2.95-.73h1l.11-.5a1.64,1.64,0,0,0,0-.49.81.81,0,0,0-.27-.57,1,1,0,0,0-.63-.22,1.34,1.34,0,0,0-.87.26,1.19,1.19,0,0,0-.46.77h-2.2a2.46,2.46,0,0,1,1.11-2,4.29,4.29,0,0,1,2.6-.73,3.09,3.09,0,0,1,2.24.85,2.48,2.48,0,0,1,.67,2.11l-.64,4,0,.49a2.35,2.35,0,0,0,.13.93v.15Zm-1.68-1.54a2,2,0,0,0,1.65-.83l.27-1.45h-.76a2.13,2.13,0,0,0-1.75.74,1.26,1.26,0,0,0-.24.63.73.73,0,0,0,.18.66A.86.86,0,0,0,275.7,198.82Z" transform="translate(0 0)"/><path class="cls-4" d="M284.56,198.71a1.4,1.4,0,0,0,1-.33,1.57,1.57,0,0,0,.52-.92h2.07a3.08,3.08,0,0,1-.56,1.59,3.37,3.37,0,0,1-1.34,1.1,3.8,3.8,0,0,1-1.76.38,3.1,3.1,0,0,1-2.42-1.06,3.94,3.94,0,0,1-.87-2.75l0-.43v-.08a5.23,5.23,0,0,1,1.38-3.26,3.74,3.74,0,0,1,2.9-1.15,3,3,0,0,1,2.26.93,3.28,3.28,0,0,1,.82,2.36h-2.05a1.76,1.76,0,0,0-.29-1.06,1.14,1.14,0,0,0-.89-.42c-1.05,0-1.68.73-1.9,2.29a7.68,7.68,0,0,0-.09,1.43Q283.47,198.7,284.56,198.71Z" transform="translate(0 0)"/><path class="cls-4" d="M291.32,200.36h-2.21l1.46-8.41h2.21Zm-.49-10.55a1.1,1.1,0,0,1,.34-.86,1.2,1.2,0,0,1,.86-.34,1.23,1.23,0,0,1,.87.3,1.1,1.1,0,0,1,.38.83,1.15,1.15,0,0,1-.32.84,1.27,1.27,0,0,1-.89.37,1.24,1.24,0,0,1-.86-.3A1.08,1.08,0,0,1,290.83,189.81Z" transform="translate(0 0)"/><path class="cls-4" d="M298,191.8a3.34,3.34,0,0,1,1.91.57,3.18,3.18,0,0,1,1.18,1.53,4.51,4.51,0,0,1,.27,2.16,5.14,5.14,0,0,1-1.39,3.25,3.93,3.93,0,0,1-3,1.21,3.37,3.37,0,0,1-1.89-.56,3.2,3.2,0,0,1-1.18-1.52,4.62,4.62,0,0,1-.28-2.15A5.29,5.29,0,0,1,295,193,3.86,3.86,0,0,1,298,191.8Zm-2.22,5.29a2,2,0,0,0,.35,1.17,1.16,1.16,0,0,0,.94.45,1.71,1.71,0,0,0,1.59-.93,4.63,4.63,0,0,0,.53-2.52,2.1,2.1,0,0,0-.36-1.19,1.12,1.12,0,0,0-.94-.46,1.7,1.7,0,0,0-1.57.92A4.58,4.58,0,0,0,295.77,197.09Zm3.23-8.67h2.54l-2.47,2.41h-1.94Z" transform="translate(0 0)"/><path class="cls-4" d="M305.45,192l-.19,1a3,3,0,0,1,2.45-1.14,2,2,0,0,1,1.76.87,3.52,3.52,0,0,1,.41,2.35l-.89,5.34H306.8l.9-5.37a2.07,2.07,0,0,0,0-.55.9.9,0,0,0-1-.82,1.89,1.89,0,0,0-1.54.8l-1.05,5.94h-2.19L303.4,192Z" transform="translate(0 0)"/></g></g><line id="Línea_132" data-name="Línea 132" class="cls-5" x1="189.42" y1="68.54" x2="189.42" y2="228.08"/><path id="comprobado" class="cls-6" d="M10.64,139.34l4.48,4.49,8.61-8.6L22.49,134l-7.37,7.36-3.26-3.26Z" transform="translate(0 0)"/><path id="comprobado-2" class="cls-6" d="M211.78,133.44l4.48,4.49,8.61-8.6-1.24-1.22-7.37,7.36L213,132.21Z" transform="translate(0 0)"/><path id="comprobado-3" class="cls-6" d="M211.78,148.67l4.48,4.49,8.61-8.6-1.24-1.21-7.37,7.35L213,147.45Z" transform="translate(0 0)"/><path id="comprobado-4" class="cls-6" d="M211.78,164.65l4.48,4.49,8.61-8.6-1.24-1.22-7.37,7.36L213,163.42Z" transform="translate(0 0)"/><path id="comprobado-5" class="cls-6" d="M211.78,180.61l4.48,4.49,8.61-8.6-1.24-1.22-7.37,7.36L213,179.38Z" transform="translate(0 0)"/><path id="comprobado-6" class="cls-6" d="M211.78,196.58l4.48,4.49,8.61-8.6-1.24-1.22-7.37,7.36L213,195.35Z" transform="translate(0 0)"/><path id="comprobado-7" class="cls-6" d="M10.64,155.86l4.48,4.49,8.61-8.6-1.24-1.22-7.37,7.36-3.26-3.26Z" transform="translate(0 0)"/><path id="comprobado-8" class="cls-6" d="M10.64,172l4.48,4.49,8.61-8.6-1.24-1.21-7.37,7.35-3.26-3.25Z" transform="translate(0 0)"/><g id="_2" data-name=" 2" class="cls-2"><g class="cls-2"><path class="cls-1" d="M175,143.65h-7.53l.25-1.63,4-3.77a9.29,9.29,0,0,0,1.64-1.88,2.21,2.21,0,0,0,.3-1.42,1.06,1.06,0,0,0-1.11-1,1.63,1.63,0,0,0-1.25.52,2.54,2.54,0,0,0-.61,1.41h-2.19a3.78,3.78,0,0,1,.63-1.92,3.84,3.84,0,0,1,1.51-1.34,4.31,4.31,0,0,1,2-.47,3.47,3.47,0,0,1,2.46.88,2.76,2.76,0,0,1,.78,2.28,5.58,5.58,0,0,1-1.89,3.34l-1.12,1.07-2.32,2.08,4.68,0Z" transform="translate(0 0)"/></g></g><g id="_3" data-name=" 3" class="cls-2"><g class="cls-2"><path class="cls-1" d="M170.73,155h1.05a2.08,2.08,0,0,0,1.34-.44,1.7,1.7,0,0,0,.62-1.19,1.29,1.29,0,0,0-.24-1,1.22,1.22,0,0,0-.95-.39,1.67,1.67,0,0,0-1.1.35,1.5,1.5,0,0,0-.55.93l-2.19,0a2.93,2.93,0,0,1,1.17-2.24,4.12,4.12,0,0,1,2.7-.86,3.72,3.72,0,0,1,2.53.89,2.74,2.74,0,0,1,.85,2.29,3.06,3.06,0,0,1-2.06,2.53,2.35,2.35,0,0,1,1.11,1,2.78,2.78,0,0,1,.31,1.49,3.17,3.17,0,0,1-.63,1.81,3.68,3.68,0,0,1-1.54,1.19,4.79,4.79,0,0,1-2.08.39,3.53,3.53,0,0,1-2.47-.9,3,3,0,0,1-.94-2.35h2.17a1.33,1.33,0,0,0,1.39,1.44,1.91,1.91,0,0,0,1.3-.43,1.72,1.72,0,0,0,.64-1.17,1.37,1.37,0,0,0-.28-1.19,1.53,1.53,0,0,0-1.14-.44h-1.29Z" transform="translate(0 0)"/></g></g><g id="_4" data-name=" 4" class="cls-2"><g class="cls-2"><path class="cls-1" d="M174.58,173.55h1.25l-.32,1.81h-1.25l-.42,2.45h-2.2l.43-2.45h-4.49l.15-1.53,5.78-7.34h2.29Zm-4.57,0h2.38l.77-4-.2.28Z" transform="translate(0 0)"/></g></g><g id="_1" data-name=" 1" class="cls-2"><g class="cls-2"><path class="cls-1" d="M366.38,138.65h-2.19l1.49-8.61-2.75.83.34-1.92,4.73-1.64h.29Z" transform="translate(0 0)"/></g></g><g id="_2-2" data-name=" 2-2" class="cls-2"><g class="cls-2"><path class="cls-1" d="M368.69,156.64h-7.54l.26-1.64,4-3.77a9,9,0,0,0,1.64-1.88,2.17,2.17,0,0,0,.3-1.41,1.06,1.06,0,0,0-1.11-1,1.63,1.63,0,0,0-1.25.52,2.47,2.47,0,0,0-.61,1.41h-2.19a3.78,3.78,0,0,1,.63-1.92,3.94,3.94,0,0,1,1.51-1.35,4.42,4.42,0,0,1,2-.46,3.49,3.49,0,0,1,2.46.88,2.75,2.75,0,0,1,.77,2.28,5.5,5.5,0,0,1-1.88,3.34l-1.12,1.07-2.32,2.08H369Z" transform="translate(0 0)"/></g></g><g id="_3-2" data-name=" 3-2" class="cls-2"><g class="cls-2"><path class="cls-1" d="M364.42,166.16h1.05a2,2,0,0,0,1.34-.44,1.73,1.73,0,0,0,.63-1.19,1.25,1.25,0,0,0-.24-1,1.2,1.2,0,0,0-1-.4,1.64,1.64,0,0,0-1.09.35,1.45,1.45,0,0,0-.55.94h-2.2a2.94,2.94,0,0,1,1.18-2.24,4.17,4.17,0,0,1,2.69-.86,3.73,3.73,0,0,1,2.54.89,2.77,2.77,0,0,1,.85,2.29A3.07,3.07,0,0,1,367.6,167a2.44,2.44,0,0,1,1.11,1,2.8,2.8,0,0,1,.31,1.5,3.31,3.31,0,0,1-.63,1.8,3.75,3.75,0,0,1-1.54,1.19,4.82,4.82,0,0,1-2.08.39,3.53,3.53,0,0,1-2.48-.9,3,3,0,0,1-.94-2.35h2.18a1.44,1.44,0,0,0,.35,1,1.37,1.37,0,0,0,1,.41,1.92,1.92,0,0,0,1.31-.43,1.8,1.8,0,0,0,.64-1.17,1.44,1.44,0,0,0-.28-1.19,1.54,1.54,0,0,0-1.15-.44h-1.29Z" transform="translate(0 0)"/></g></g><g id="_4-2" data-name=" 4-2" class="cls-2"><g class="cls-2"><path class="cls-1" d="M368.28,182.13h1.24l-.31,1.81H368l-.43,2.45h-2.19l.43-2.45h-4.49l.15-1.53,5.78-7.34h2.29Zm-4.57,0h2.38l.77-4-.2.28Z" transform="translate(0 0)"/></g></g><g id="_5" data-name=" 5" class="cls-2"><g class="cls-2"><path class="cls-1" d="M362.34,196.76l1.53-5.72h6.18l-.29,1.87h-4.35l-.74,2.45a3,3,0,0,1,1.63-.43,2.67,2.67,0,0,1,2.25,1,3.83,3.83,0,0,1,.67,2.71,4.36,4.36,0,0,1-.66,2,3.82,3.82,0,0,1-1.48,1.37,4,4,0,0,1-2,.46,3.54,3.54,0,0,1-1.74-.44,3.08,3.08,0,0,1-1.21-1.19,3.33,3.33,0,0,1-.44-1.69h2.15a1.72,1.72,0,0,0,.38,1.09,1.29,1.29,0,0,0,.95.41,1.57,1.57,0,0,0,1.28-.57,2.89,2.89,0,0,0,.6-1.59,2,2,0,0,0-.27-1.4,1.3,1.3,0,0,0-1.1-.53,2.15,2.15,0,0,0-1.52.61Z" transform="translate(0 0)"/></g></g></g></svg>