<svg xmlns="http://www.w3.org/2000/svg" xmlns:xlink="http://www.w3.org/1999/xlink" width="1087.926" height="356.384" viewBox="0 0 1087.926 356.384">
  <defs>
    <linearGradient id="linear-gradient" x1="0.5" y1="1.056" x2="0.5" y2="-0.039" gradientUnits="objectBoundingBox">
      <stop offset="0" stop-color="#e6e6e6"/>
      <stop offset="0.42" stop-color="#fff"/>
    </linearGradient>
    <linearGradient id="linear-gradient-2" x1="0.5" y1="0.877" x2="0.5" y2="0.05" gradientUnits="objectBoundingBox">
      <stop offset="0" stop-color="#231f20"/>
      <stop offset="0.903" stop-color="#505052"/>
    </linearGradient>
    <linearGradient id="linear-gradient-5" x1="0.5" y1="0.877" x2="0.5" y2="0.05" xlink:href="#linear-gradient-2"/>
    <linearGradient id="linear-gradient-7" x1="40.195" y1="0.877" x2="40.195" y2="0.05" xlink:href="#linear-gradient-2"/>
    <linearGradient id="linear-gradient-11" x1="0.5" y1="0.119" x2="0.5" y2="1.472" xlink:href="#linear-gradient-2"/>
    <linearGradient id="linear-gradient-12" x1="0.5" y1="-1.601" x2="0.5" y2="1.31" xlink:href="#linear-gradient-2"/>
    <linearGradient id="linear-gradient-13" x1="0.5" y1="-1.631" x2="0.5" y2="1.297" xlink:href="#linear-gradient-2"/>
    <linearGradient id="linear-gradient-14" x1="0.5" y1="-2.189" x2="0.5" y2="0.497" xlink:href="#linear-gradient-2"/>
    <linearGradient id="linear-gradient-15" x1="0.5" y1="-2.18" x2="0.5" y2="0.5" xlink:href="#linear-gradient-2"/>
    <linearGradient id="linear-gradient-16" x1="0.5" y1="-18.278" x2="0.5" y2="9.286" xlink:href="#linear-gradient-2"/>
    <linearGradient id="linear-gradient-17" x1="0.5" y1="-18.838" x2="0.5" y2="5.935" xlink:href="#linear-gradient-2"/>
    <linearGradient id="linear-gradient-18" x1="0.5" y1="-12.72" x2="0.5" y2="9.603" xlink:href="#linear-gradient-2"/>
    <linearGradient id="linear-gradient-19" x1="0.5" y1="-25.235" x2="0.5" y2="11.088" xlink:href="#linear-gradient-2"/>
    <linearGradient id="linear-gradient-20" x1="0.5" y1="-20.918" x2="0.5" y2="2.867" xlink:href="#linear-gradient-2"/>
    <linearGradient id="linear-gradient-21" x1="0.5" y1="-24.083" x2="0.5" y2="13.418" xlink:href="#linear-gradient-2"/>
    <linearGradient id="linear-gradient-22" x1="0.5" y1="-31.11" x2="0.5" y2="8.728" xlink:href="#linear-gradient-2"/>
    <linearGradient id="linear-gradient-23" x1="0.5" y1="-36.209" x2="0.5" y2="9.968" xlink:href="#linear-gradient-2"/>
    <linearGradient id="linear-gradient-24" x1="0.5" y1="-32.16" x2="0.5" y2="18.933" xlink:href="#linear-gradient-2"/>
    <linearGradient id="linear-gradient-26" x1="0.5" y1="0.003" x2="0.5" y2="1.216" gradientUnits="objectBoundingBox">
      <stop offset="0.053" stop-color="#231f20"/>
      <stop offset="0.987" stop-color="#505052"/>
    </linearGradient>
    <linearGradient id="linear-gradient-27" x1="0.5" y1="-0.598" x2="0.5" y2="1.636" xlink:href="#linear-gradient-26"/>
    <linearGradient id="linear-gradient-28" x1="0.5" y1="-0.599" x2="0.5" y2="1.636" xlink:href="#linear-gradient-26"/>
    <linearGradient id="linear-gradient-29" x1="0.5" y1="-1.525" x2="0.5" y2="0.901" xlink:href="#linear-gradient-26"/>
    <linearGradient id="linear-gradient-30" x1="0.5" y1="-1.559" x2="0.5" y2="0.901" xlink:href="#linear-gradient-26"/>
    <linearGradient id="linear-gradient-32" x1="0.5" y1="0.937" x2="0.5" y2="-0.506" xlink:href="#linear-gradient-2"/>
    <linearGradient id="linear-gradient-35" x1="0.5" y1="0" x2="0.5" y2="1" xlink:href="#linear-gradient-2"/>
    <clipPath id="clip-path">
      <rect id="Rectángulo_5347" data-name="Rectángulo 5347" width="118.642" height="118.642" rx="10.497" transform="translate(167.785 83.893) rotate(135)" fill="none"/>
    </clipPath>
    <linearGradient id="linear-gradient-43" x1="0" y1="0.5" x2="1" y2="0.5" xlink:href="#linear-gradient-2"/>
    <linearGradient id="linear-gradient-52" x1="0" y1="0.5" x2="1" y2="0.5" xlink:href="#linear-gradient-2"/>
    <linearGradient id="linear-gradient-57" x1="0" y1="0.5" x2="1" y2="0.5" xlink:href="#linear-gradient-2"/>
    <linearGradient id="linear-gradient-59" x1="0" y1="0.5" x2="1" y2="0.5" xlink:href="#linear-gradient-2"/>
  </defs>
  <g id="Grupo_56004" data-name="Grupo 56004" transform="translate(-16.963 -314.318)">
    <g id="Grupo_55966" data-name="Grupo 55966" transform="translate(16.963 464.092)">
      <g id="Grupo_55965" data-name="Grupo 55965">
        <g id="Grupo_55963" data-name="Grupo 55963">
          <g id="Grupo_55962" data-name="Grupo 55962">
            <rect id="Rectángulo_5332" data-name="Rectángulo 5332" width="146.095" height="146.095" rx="11.73" transform="translate(0 103.305) rotate(-45)" fill="#d61b22"/>
            <rect id="Rectángulo_5333" data-name="Rectángulo 5333" width="124.394" height="124.394" rx="10.497" transform="translate(15.345 103.305) rotate(-45)" fill="url(#linear-gradient)"/>
          </g>
        </g>
        <g id="Grupo_55964" data-name="Grupo 55964" transform="translate(41.943 46.892)">
          <path id="Trazado_100950" data-name="Trazado 100950" d="M60.685,598.193l15.164,15.252h29.013V598.193H95.541s-.38,2.075-3.828,1.754a3.793,3.793,0,0,1-3.506,2.045c-2.483-.117-4.061-2.659-4.061-2.659s-2.484.321-3.331-1.285H60.685Z" transform="translate(-60.685 -522.53)" fill="url(#linear-gradient-2)"/>
          <path id="Trazado_100951" data-name="Trazado 100951" d="M92.107,590.937h0l-3.071-6.351-2.8,6.244c-.032.067-.063.132-.09.2l-.038.085.01.007a3.194,3.194,0,0,0-.2,1.082,3.227,3.227,0,1,0,6.192-1.268Z" transform="translate(-61.712 -521.983)" fill="url(#linear-gradient-2)"/>
          <path id="Trazado_100952" data-name="Trazado 100952" d="M87.63,577.475h0l-3.071-6.351-2.8,6.244c-.032.066-.063.132-.09.2l-.039.085.011.007a3.19,3.19,0,0,0-.2,1.082,3.227,3.227,0,1,0,6.193-1.268Z" transform="translate(-61.529 -521.435)" fill="url(#linear-gradient-2)"/>
          <path id="Trazado_100953" data-name="Trazado 100953" d="M142.716,562.277h0l-3.072-6.351-2.8,6.244c-.032.066-.063.132-.09.2l-.038.086.01.007a3.19,3.19,0,0,0-.2,1.082,3.227,3.227,0,1,0,6.193-1.268Z" transform="translate(-63.771 -520.816)" fill="url(#linear-gradient-5)"/>
          <path id="Trazado_100954" data-name="Trazado 100954" d="M121.517,555.787l-27.289-4.617-2.454-3.447-3.267-.221L85.111,565.72l4,.526,1.964-2.161,29.042,5.259s7.13,1.928,8.765-5.259S121.517,555.787,121.517,555.787Zm5.069,7.83-20.73-.482-15.3-1.972-1.4,1.709h-.833l2.235-12.053h.526l.789,2.8,27.479,4.689C128.12,559.1,126.586,563.616,126.586,563.616Z" transform="translate(-61.679 -520.474)" fill="url(#linear-gradient-2)"/>
          <path id="Trazado_100955" data-name="Trazado 100955" d="M108.343,527.612,135.633,523l2.455-3.448,3.266-.221,3.395,18.219-4,.526-1.963-2.162-29.043,5.259s-7.13,1.929-8.765-5.259S108.343,527.612,108.343,527.612Zm-2.521,3.622,20,.646,13.478,1.108,1.4,1.709h.833L139.3,522.645h-.527l-.789,2.8-27.479,4.69C106.187,530.74,105.822,531.234,105.822,531.234Z" transform="translate(-62.317 -519.327)" fill="url(#linear-gradient-7)"/>
          <path id="Trazado_100956" data-name="Trazado 100956" d="M181.431,591.7l-4.689.22-3.141-3.046a2.575,2.575,0,0,0-.67-1.1l-18.971-18.21a2.6,2.6,0,0,0-3.677.076l-1.1,1.143a2.6,2.6,0,0,0,.075,3.677L159.41,584.2l-.988-.211-10.693,1.446-.234.082a3.506,3.506,0,0,1,.131.941,3.683,3.683,0,0,1-3.739,3.623,3.735,3.735,0,0,1-3.5-2.364,2.918,2.918,0,0,1-2.487,1.311,2.759,2.759,0,0,1-2.829-2.25H120.446a2.6,2.6,0,0,0-2.6,2.6v.133a2.6,2.6,0,0,0,2.6,2.6h20.314v1.356H118.314a2.6,2.6,0,0,0-2.6,2.6v.133a2.6,2.6,0,0,0,2.6,2.6h22.447v.7h-20.19a2.6,2.6,0,0,0-2.6,2.6v.833a2.6,2.6,0,0,0,2.6,2.6h20.19v.694H126.29a2.6,2.6,0,0,0-2.6,2.6v.154a2.6,2.6,0,0,0,2.6,2.6h44.1l15.3-14.228Z" transform="translate(-62.924 -521.342)" fill="url(#linear-gradient-2)"/>
        </g>
      </g>
      <path id="Trazado_100957" data-name="Trazado 100957" d="M139.352,577.475h0l-3.072-6.351-2.8,6.244c-.032.066-.063.132-.091.2l-.038.085.011.007a3.19,3.19,0,0,0-.2,1.082,3.227,3.227,0,1,0,6.193-1.268Z" transform="translate(-21.691 -474.542)" fill="url(#linear-gradient-2)"/>
    </g>
    <g id="Grupo_55971" data-name="Grupo 55971" transform="translate(456.065 464.092)">
      <g id="Grupo_55969" data-name="Grupo 55969">
        <g id="Grupo_55968" data-name="Grupo 55968">
          <g id="Grupo_55967" data-name="Grupo 55967">
            <rect id="Rectángulo_5334" data-name="Rectángulo 5334" width="146.095" height="146.095" rx="11.73" transform="translate(0 103.305) rotate(-45)" fill="#d61b22"/>
            <rect id="Rectángulo_5335" data-name="Rectángulo 5335" width="124.394" height="124.394" rx="10.497" transform="translate(15.345 103.305) rotate(-45)" fill="url(#linear-gradient)"/>
          </g>
        </g>
      </g>
      <g id="Grupo_55970" data-name="Grupo 55970" transform="translate(52.341 34.113)">
        <path id="Trazado_100958" data-name="Trazado 100958" d="M552.238,576.315a7.976,7.976,0,0,1-1.092.378c-.576.107-2.556-1.752-2.415-2.312a1.21,1.21,0,0,1,.714-.637c4.187-1.565,8.384-3.1,12.58-4.645.991-.365,1.975-.753,2.979-1.082a.96.96,0,0,0,.761-.957c.174-2.229.4-4.455.564-6.685a1.458,1.458,0,0,0-.229-1c-3.5-3.811-5.471-8.446-7.081-13.251-1.742-5.2-3.056-10.5-2.856-16.048.276-7.636,2.977-14.246,9.092-18.986,6.479-5.021,13.8-6.79,21.5-3.184,8.057,3.771,12.878,10.244,14.241,19.163,1,6.531-.14,12.789-2.028,19.025a37.975,37.975,0,0,1-6.905,13.744,1.49,1.49,0,0,0-.321.893c.011,2.116.088,4.231.088,6.348,0,.584.249.764.745.911q9.113,2.721,18.238,5.481c.176.651.1,1.11-.688,1.243a1.008,1.008,0,0,0-.595.45c-.391.645-.74,1.316-1.085,1.987a1.813,1.813,0,0,1-2.84.823c-.227-.133-.45-.276-.76-.468-.286.935-.814,1.542-1.586,1.54a17.085,17.085,0,0,1-.835,2.461,1.18,1.18,0,0,1-1.7.542,1.2,1.2,0,0,0-.742.047c-.587.162-1.154.412-1.75.521a.784.784,0,0,1-.665-.389c-.152-.666-.481-.676-.977-.408a2.175,2.175,0,0,1-2.525-.272,3.184,3.184,0,0,0-1.2-.268c-.083.53-.385,1.159-.2,1.57.336.751.58,1.334-.254,1.856-.677.423-1.319.238-1.983-.521l-1.445.508.154.1c-.383.413-.694,1.018-1.166,1.2a2.242,2.242,0,0,1-2.537-.394,1.258,1.258,0,0,1-.342-1.629.832.832,0,0,0-.188-1.193,2.468,2.468,0,0,1-.716-2.488,13.7,13.7,0,0,0,.377-1.676,3.409,3.409,0,0,0-.326-1.179c-.036-.1-.236-.209-.217-.263.349-.978-.453-1.137-1-1.553-.227-.175-.247-.7-.233-1.056,0-.095.485-.164.743-.257a3.464,3.464,0,0,0,1.239-.518c.128-.124-.223-.7-.293-1.081-.055-.3-.139-.711.009-.906.637-.836.194-1.437-.384-1.966-.437-.4-.669-.715-.289-1.3.1-.148-.082-.618-.271-.788-1.393-1.246-1.458-1.715-.41-3.274.326-.484.568-.862-.145-1.418a2.65,2.65,0,0,1-.575-1.923c.017-.749.052-1.235-.767-1.648-.845-.428-.928-1.4-.95-2.312a5.264,5.264,0,0,0-.288-1.156,6.3,6.3,0,0,0-.309-1.081,8.9,8.9,0,0,0-.689-1.06,3.633,3.633,0,0,0-.754.757c-.342.645-.68,1.344.2,1.895.087.055.191.232.163.3-.353.8.316,1.912-.766,2.527-.154.088-.2.592-.118.838a3.321,3.321,0,0,1-.9,4.049,2.621,2.621,0,0,0-.3,1.674c.016.664.2,1.3-.334,1.886-.1.113.016.621.183.743.219.161.726.273.865.145.78-.724,1.1-.211,1.381.44.381.89.207,1.26-.677,1.552a1.307,1.307,0,0,0-.218.154c.138.359.29.736.43,1.118a2.476,2.476,0,0,1-1.035,3.065c-.243.109-.4.483-.522.766s-.11.6-.229.871c-.5,1.153-.512,1.148.148,2.145-.764.943-.745.937-.332,2.347a1.917,1.917,0,0,1-.076.937,10.746,10.746,0,0,1-.432,1.268c-.084.217-.183.56-.337.6-.823.2-1.057.883-1.446,1.49-.217.338-.708.5-1.074.741-.187-.4-.4-.8-.551-1.214a2.36,2.36,0,0,1-.012-.693,1.693,1.693,0,0,1-1.838-.847c-.2-.281-1.005-.291-1.481-.182-.559.128-1,.294-1.478-.2s-.719.014-.979.331a2.612,2.612,0,0,1-4.2-.056A6.143,6.143,0,0,1,562.2,582c-2.278.055-2.1-.111-2.688-1.5a1.793,1.793,0,0,0-.331.024c-1.646.414-2.27.181-3.085-1.23a1.335,1.335,0,0,0-1.278-.723c-.808-.083-1.551-.93-2.284-1.5C552.362,576.944,552.344,576.606,552.238,576.315Z" transform="translate(-530.044 -506.005)" fill="url(#linear-gradient-11)"/>
        <path id="Trazado_100959" data-name="Trazado 100959" d="M614.984,612.86c-2.355.574-4.078.029-4.335-2.935a1.941,1.941,0,0,1-2.771.337,2.375,2.375,0,0,1-.864-1.129c-.2-.47-.339-.609-.848-.362-1.561.76-2.654.471-3.547-.966-.383-.617-.726-.457-1.05-.072-.619.736-1.134.326-1.606-.118a.966.966,0,0,1,.247-1.552c.886-.411.553-1.174.7-1.788.032-.137-.3-.362-.47-.546-.507.921-1.334-1.3-1.84.192a1.046,1.046,0,0,1-.9.484,2.6,2.6,0,0,1-1.5-.758c-.225-.318-.006-.993.106-1.489.043-.194.361-.312.5-.5a1.309,1.309,0,0,0-.029-1.68c-.413-.518-.965-.34-1.366.017-.609.544-1.207.9-1.858.164-.557-.63-.341-1.415.415-2.024a15.646,15.646,0,0,1-.342-1.94c-.057-1.034.547-1.541,1.583-1.461.4.032.809.006,1.259.006-.64-1.575-.112-2.4,1.5-2.636a.915.915,0,0,0,.61-.567c.506-2.27,1.93-3.148,4.173-2.9.8.088,1.621-.745,2.559-.819.084-.007.187-.418.2-.646a3.44,3.44,0,0,1,3.379-3.523,1.428,1.428,0,0,0,1.588-1.322,2.415,2.415,0,0,1,3.618-1.39.718.718,0,0,0,.628.1.752.752,0,0,0,.237-.587c-.016-.928.365-1.33,1.229-1.079.657.191,1.061.074,1.264-.573a.818.818,0,0,1,1.139-.583c2.945.893,5.942,1.661,8.807,2.763,2.9,1.118,4.67,3.546,6.037,6.248a2.9,2.9,0,0,1,.245,1.225c.057,3.508.1,7.016.106,10.524a1.78,1.78,0,0,1-.466,1.168q-7.7,7.432-15.456,14.811a1.712,1.712,0,0,1-2.773-.556A5.473,5.473,0,0,1,614.984,612.86Z" transform="translate(-531.856 -508.941)" fill="url(#linear-gradient-12)"/>
        <path id="Trazado_100960" data-name="Trazado 100960" d="M545.064,580.361a2.873,2.873,0,0,0,1.009-.2c.549-.381.89-.35,1.214.268.294.561.788.6,1.4.508a2.607,2.607,0,0,1,1.243.368c.176.076.274.316.434.451.9.769.906.767.909,1.828a9.133,9.133,0,0,1,1.138.156c.772.2,1.317.573,1.126,1.54a1.1,1.1,0,0,0,.351.8,13.1,13.1,0,0,0,1.275,1c1.858-1.184,3.442-.545,4.11,1.669.2.668.194,1.62,1.389,1.256.091-.028.368.318.446.531a11.638,11.638,0,0,1,.318,1.279c2.954-.754,3.757-.211,4.27,2.783.02.118.035.337.066.34,1.284.11.695,1.981,2.06,2.13.6.065.607.912.077,1.367-1.016.872-1.037,1.128-.18,2.209.642.809.69,1.369.155,1.831-.554.48-1.231.281-1.892-.474a.983.983,0,0,0-.759-.281.8.8,0,0,0-.525.511c-.174.778-.267,1.573-.41,2.489a1.361,1.361,0,0,1,.695,1.929,1.68,1.68,0,0,1-2.131.864,1.328,1.328,0,0,1-.671-1.892c.208-.512.05-.723-.374-.9-.325-.139-.646-.289-.836-.374l-1.493,1.556c.117.594.958,1.43.008,2.242-.837.714-1.679.421-2.66-.278a7.193,7.193,0,0,0-.679,2.116,1.936,1.936,0,0,1-1.074,2.087c-.93.419-1.907.794-2.8-.551a13.268,13.268,0,0,0-.662,1.487,2.246,2.246,0,0,1-3.386,1.528c-.109.157-.233.318-.341.488a1.853,1.853,0,0,1-3,.4q-7.553-7.647-15.069-15.329a1.536,1.536,0,0,1-.368-.956c-.086-3.083-.13-6.167-.2-9.251a6.752,6.752,0,0,1,2.779-5.726,17.119,17.119,0,0,1,3.813-2.235c2.534-1.057,5.145-1.929,7.731-2.86C544.576,578.705,545.163,579.155,545.064,580.361Z" transform="translate(-529.252 -508.974)" fill="url(#linear-gradient-13)"/>
        <path id="Trazado_100961" data-name="Trazado 100961" d="M586.456,617.814c-1.78-1.07-1.505-2.522-.777-4.033-1.534-.157-1.79-.529-1.442-1.879a.948.948,0,0,1,1.016-.811c1.331-.053,1.306-.08,1.383-1.327.052-.846.687-1.246,1.386-1.508a1.69,1.69,0,0,1,1.956.568c1.037,1.159.984,1.111,2.1.046a2.56,2.56,0,0,1,1.606-.495c.536-.012,1.064.24.974,1.019-.013.117.428.415.657.413,2.469-.026,2.787.233,3.139,2.8a4.961,4.961,0,0,1,1.033.017,2.94,2.94,0,0,1,.8.414c.162.095.327.317.46.295a.586.586,0,0,0,.348-.419,1.48,1.48,0,0,1,2.872-.152c.178.522.424.6.945.483,1.617-.368,2.539.179,3.049,1.8.236.752.528,1.108,1.417.822,1.179-.378,1.312-.209,2.033.868a1.4,1.4,0,0,0,1.113.567,1.46,1.46,0,0,1,1.664.785c.4.649.07,1.176-.442,1.663q-9.63,9.146-19.242,18.31-5.251,5-10.5,10c-.327.312-.653.759-1.122.26-.4-.42-.188-.775.195-1.152.593-.584.539-1.368-.078-2.338.562-.447.534-.933.123-1.52-.155-.22-.2-.775-.053-.906.568-.5.4-.967.149-1.529a2.287,2.287,0,0,1,1.005-2.961c-1.661-2.391-1.358-4.5,1.013-6.02-1.325-1.312-2.533-2.672-1.163-4.638q-3.4-1.387-.874-3.363c-.068-.175-.144-.364-.216-.553a1.41,1.41,0,0,1,.625-2,1.759,1.759,0,0,1,2.327.536c.153.276.024.711.014,1.072-.008.273-.129.606-.011.8a.722.722,0,0,0,.7.18c.178-.12.239-.47.28-.731a3.159,3.159,0,0,0-.6-2.318A2.317,2.317,0,0,1,586.456,617.814Z" transform="translate(-531.403 -510.162)" fill="url(#linear-gradient-14)"/>
        <path id="Trazado_100962" data-name="Trazado 100962" d="M577.1,625.644c.384,0,.682-.023.977,0,1.077.1,1.455.92.909,1.847-.135.229-.216.718-.087.839a1.724,1.724,0,0,1,.127,2.625c1.921,2.089,1.912,2.084.471,4.791a1.136,1.136,0,0,0,0,.909c1.242,2.447,1.052,3.725-.894,5.639a2.444,2.444,0,0,0-.213.28c1.337,1.054,1.385,1.289.523,2.435.808,1.109.8,1.175-.149,2.12.27.394.96.853-.067,1.332-1.438-1.395-2.911-2.816-4.374-4.245q-12.094-11.814-24.185-23.632c-.936-.915-1.146-1.685-.637-2.436a2.54,2.54,0,0,1,3.014-.859,1.037,1.037,0,0,0,.244.033,2.155,2.155,0,0,0,.3-.371,3.106,3.106,0,0,1,4.625-1.263c.5.336.764.258.9-.318.048-.205.113-.408.143-.616.2-1.417,1.126-2.082,2.457-1.609.766.271,1.112.114,1.495-.584a1.689,1.689,0,0,1,2.738-.473c.448.365.735.54,1.1-.137.545-1.009,1.285-1.152,3.029-.706-.135-.32-.256-.575-.35-.839a1.812,1.812,0,0,1,.7-2.153,1.349,1.349,0,0,1,1.934.264,1.088,1.088,0,0,0,.989.121,1.64,1.64,0,0,1,2.4.574c.137.165.545.161.82.139.378-.03.771-.266,1.117-.2a1.449,1.449,0,0,1,.885.639c.093.16-.144.617-.349.821-.54.534-.667.936-.062,1.577a1.391,1.391,0,0,1-.158,1.973c-.461.511-.555.8.123,1.246a1.955,1.955,0,0,1,.383,3.234c-.525.584-.917.95.1,1.536,1.1.632.9,1.795-.292,2.3a.977.977,0,0,0-.691,1.186A15.845,15.845,0,0,1,577.1,625.644Z" transform="translate(-530.065 -510.154)" fill="url(#linear-gradient-15)"/>
        <path id="Trazado_100963" data-name="Trazado 100963" d="M587.786,593.448a4.606,4.606,0,0,1-1.214-.663,1.006,1.006,0,0,1,.111-1.53,1.131,1.131,0,0,1,1.627.095,1.433,1.433,0,0,0,.816.4,1.617,1.617,0,0,1,1.773,1.328,1.564,1.564,0,0,1-3.067.6A1.077,1.077,0,0,1,587.786,593.448Z" transform="translate(-531.572 -509.462)" fill="url(#linear-gradient-16)"/>
        <path id="Trazado_100964" data-name="Trazado 100964" d="M590.657,604.1c-.056-1.374.354-2.033,1.3-2.131a1.471,1.471,0,0,1,1.652,1.213c.171.961-.33,1.544-1.637,1.877-.117.676-.353,1.362-1.2,1.275a1.435,1.435,0,0,1-.988-.738C589.465,604.827,590.037,604.4,590.657,604.1Z" transform="translate(-531.712 -509.91)" fill="url(#linear-gradient-17)"/>
        <path id="Trazado_100965" data-name="Trazado 100965" d="M580.721,582.919c-.733-.978-.732-1.747,0-2.273a1.4,1.4,0,0,1,1.872.25c.539.687.326,1.49-.606,2.229.43.66.634,1.349-.128,1.9a1.059,1.059,0,0,1-1.477-.142C579.877,584.36,579.991,583.737,580.721,582.919Z" transform="translate(-531.32 -509.033)" fill="url(#linear-gradient-18)"/>
        <path id="Trazado_100966" data-name="Trazado 100966" d="M570.65,596.3c-.626.167-1.27.137-1.457-.582-.09-.345.133-1.078.345-1.134a3.137,3.137,0,0,1,1.639.206c1.027-.359,1.849-.2,2.262.579a1.43,1.43,0,0,1-.648,1.988C571.962,597.767,571.243,597.418,570.65,596.3Z" transform="translate(-530.876 -509.608)" fill="url(#linear-gradient-19)"/>
        <path id="Trazado_100967" data-name="Trazado 100967" d="M581.5,617.4c-.461-.507-.85-1.117-.211-1.7a1.37,1.37,0,0,1,1.2-.205c.779.331.655,1.026.366,1.661.995.714,1.236,1.467.737,2.214a1.419,1.419,0,0,1-1.916.418C580.907,619.312,580.835,618.44,581.5,617.4Z" transform="translate(-531.356 -510.458)" fill="url(#linear-gradient-20)"/>
        <path id="Trazado_100968" data-name="Trazado 100968" d="M569.083,588.587a1.465,1.465,0,0,1,1.466,1.41,1.449,1.449,0,1,1-1.466-1.41Z" transform="translate(-530.814 -509.366)" fill="url(#linear-gradient-21)"/>
        <path id="Trazado_100969" data-name="Trazado 100969" d="M578.952,607.008a1.363,1.363,0,0,1,.044-2.724,1.4,1.4,0,0,1,1.38,1.39A1.379,1.379,0,0,1,578.952,607.008Z" transform="translate(-531.221 -510.005)" fill="url(#linear-gradient-22)"/>
        <path id="Trazado_100970" data-name="Trazado 100970" d="M571.016,605.815A1.167,1.167,0,0,1,569.865,607a1.212,1.212,0,0,1-1.227-1.2,1.185,1.185,0,0,1,1.254-1.151A1.131,1.131,0,0,1,571.016,605.815Z" transform="translate(-530.855 -510.02)" fill="url(#linear-gradient-23)"/>
        <path id="Trazado_100971" data-name="Trazado 100971" d="M579.476,589.268a1.029,1.029,0,0,1-1.049-1.1,1.051,1.051,0,0,1,2.1-.031A1.046,1.046,0,0,1,579.476,589.268Z" transform="translate(-531.253 -509.307)" fill="url(#linear-gradient-24)"/>
      </g>
    </g>
    <g id="Grupo_55976" data-name="Grupo 55976" transform="translate(348.274 314.318)">
      <g id="Grupo_55973" data-name="Grupo 55973">
        <g id="Grupo_55972" data-name="Grupo 55972">
          <rect id="Rectángulo_5336" data-name="Rectángulo 5336" width="146.095" height="146.095" rx="11.73" transform="translate(0 103.305) rotate(-45)" fill="#d61b22"/>
          <rect id="Rectángulo_5337" data-name="Rectángulo 5337" width="124.394" height="124.394" rx="10.497" transform="translate(15.345 103.305) rotate(-45)" fill="url(#linear-gradient)"/>
        </g>
      </g>
      <g id="Grupo_55975" data-name="Grupo 55975" transform="translate(53.865 48.265)">
        <path id="Trazado_100972" data-name="Trazado 100972" d="M484.6,447.515a15.64,15.64,0,0,1-6.179,4.76,22.906,22.906,0,0,1-7.365,1.633,30.122,30.122,0,0,1-11.471-1.37,13.889,13.889,0,0,1-6.026-4.3.958.958,0,0,0-1.439-.27c-3.309,1.8-6.629,3.577-9.983,5.288a6.718,6.718,0,0,0-2.68,2.463,48.874,48.874,0,0,1-3.164,4.411,3.768,3.768,0,0,1-4.258,1.152,3.563,3.563,0,0,1-2.113-2.855c-.218-1.272-.254-2.575-.47-3.847a2.745,2.745,0,0,0-.69-1.339c-.907-.96-1.924-1.815-2.84-2.768a3.759,3.759,0,0,1-.323-4.976c.759-1.044,1.919-1.2,3.039-1.433a8.337,8.337,0,0,1,4.3.327,4.767,4.767,0,0,0,3.548-.224c4.247-2,8.469-4.058,12.7-6.094.688-.331.4-.965.386-1.465a1.083,1.083,0,0,0-.492-.8Q440,431.4,430.9,427.051a6.36,6.36,0,0,0-4.036-.121,10.625,10.625,0,0,1-5.994-.438c-2.407-.979-3.076-2.944-1.635-5.1a10.25,10.25,0,0,1,2.309-2.553,4.125,4.125,0,0,0,1.616-3.47,11.322,11.322,0,0,1,.53-2.893c.821-2.51,2.845-3.333,5.215-2.2a7.5,7.5,0,0,1,3.5,3.6,12.17,12.17,0,0,0,1.023,1.972,5.809,5.809,0,0,0,1.739,1.7c3.008,1.6,6.074,3.084,9.122,4.608a2.009,2.009,0,0,0,.38.071,9.957,9.957,0,0,1-2.6-5.473,17.747,17.747,0,0,1,.27-7.28,1.179,1.179,0,0,0-.2-.924,25.922,25.922,0,0,1-5.858-11.84,24.4,24.4,0,0,1-.74-7.848c.963-9.655,5.713-16.7,14.658-20.7a42.824,42.824,0,0,1,13.544-3.247,49.481,49.481,0,0,1,11.043.032,48.122,48.122,0,0,1,13.775,3.7,22.865,22.865,0,0,1,9.973,9.341,25.2,25.2,0,0,1,3.616,14.1A22.416,22.416,0,0,1,496,407.425a2.033,2.033,0,0,0-.533,2.181,15.353,15.353,0,0,1-.412,9.4,24.228,24.228,0,0,1-1.618,3.006l.9-.441c2.418-1.186,4.819-2.408,7.261-3.541A5.594,5.594,0,0,0,504.477,415a9.284,9.284,0,0,1,2.286-3.672,5.8,5.8,0,0,1,3.672-1.837,3.055,3.055,0,0,1,3.079,2.157c.437,1.662.682,3.376,1.048,5.058a2.444,2.444,0,0,0,.5,1.054c1.034,1.178,2.166,2.272,3.161,3.481a3.079,3.079,0,0,1-.571,4.6,7,7,0,0,1-2.607,1.118,9.788,9.788,0,0,1-5.042-.148,4.456,4.456,0,0,0-3.358.3q-9.1,4.279-18.175,8.594a1.012,1.012,0,0,0-.474.717c-.109,1.489-.093,1.5,1.255,2.127q6.055,2.806,12.118,5.6a3.968,3.968,0,0,0,2.977.19,8.5,8.5,0,0,1,6.338.332,3.568,3.568,0,0,1,2.317,2.586,3.078,3.078,0,0,1-.819,2.734,35.878,35.878,0,0,1-3.037,2.9,2.543,2.543,0,0,0-.863,1.77,27.59,27.59,0,0,1-.909,4.738,3.017,3.017,0,0,1-4.367,1.746,8.158,8.158,0,0,1-4.1-4.233,7.4,7.4,0,0,0-3.756-3.962C491.63,451.217,488.166,449.361,484.6,447.515Zm10.407-62.157a10.937,10.937,0,0,1,1.169,2.407,14.165,14.165,0,0,1-.54,7.719,17.061,17.061,0,0,0-1.232,7.323c.061.8.166,1.593.276,2.623a20.2,20.2,0,0,0,3.178-4.852,22.527,22.527,0,0,0,1.159-15.394,21.694,21.694,0,0,0-10.364-13.809,31.212,31.212,0,0,0-6.9-2.6,40.51,40.51,0,0,0-11.27-1.785,58.849,58.849,0,0,0-9.622.647,36.73,36.73,0,0,0-10.175,2.857c-7.936,3.8-12.235,10.187-12.83,18.914a24.86,24.86,0,0,0,2.822,12.813c.615,1.238,1.395,2.4,2.1,3.591l.243-.1a15.173,15.173,0,0,0-.124-7.724,23.332,23.332,0,0,1-1.575-8.107,5.259,5.259,0,0,1,1.616-4.224l1.312,1.529a11.578,11.578,0,0,0-.565,2.267,13.036,13.036,0,0,0,.728,5.6c1.811,4.2,1.449,8.478.647,12.8-.44,2.37-1.182,4.716-.89,7.164.525,4.4,1.58,5.784,5.045,7a34.55,34.55,0,0,1,3.726,1.3c3.217,1.567,5.581,3.812,5.622,7.733a.89.89,0,0,0,.58.611,33.54,33.54,0,0,0,4.86.787c2.967.125,5.949.139,8.914,0a44.066,44.066,0,0,0,5.607-.851c.254-.046.638-.4.648-.625a7.69,7.69,0,0,1,4.289-6.862c1.856-.981,3.851-1.7,5.788-2.53a5.6,5.6,0,0,0,3.168-2.361,11.322,11.322,0,0,0,1.168-6.806c-.386-2.853-1.074-5.671-1.353-8.531a23.66,23.66,0,0,1,.233-5.888c.3-1.906,1.177-3.722,1.478-5.629.266-1.686.577-3.5-.552-5.127ZM450.147,424.9a35.6,35.6,0,0,1,1.288,3.761,16.79,16.79,0,0,1,.741,5.08,20.843,20.843,0,0,0,.2,7.2c1.173,4.542,3.821,7.887,8.327,9.491a25.75,25.75,0,0,0,10.584,1.112,16.569,16.569,0,0,0,7.554-2.091c5.656-3.442,7.278-8.421,6.717-14a16.019,16.019,0,0,1,.5-6.485c.435-1.4.939-2.779,1.413-4.167l-.212-.2c-.421.393-1.029.709-1.235,1.193a35.2,35.2,0,0,0-3,10.895,5.244,5.244,0,0,1-2.652,4.181c-.184.121-.374.232-.564.342a18.379,18.379,0,0,1-9.278,2.491,49.9,49.9,0,0,1-7.544-.553,13.187,13.187,0,0,1-7.464-3.748,2.976,2.976,0,0,1-.919-1.944,40.9,40.9,0,0,0-3.213-11.864A1.066,1.066,0,0,0,450.147,424.9Zm37.461,8.547c.381-.157.633-.249.875-.363q8.57-4.035,17.139-8.074a6.608,6.608,0,0,1,4.806-.483,9.229,9.229,0,0,0,4.782,0c1.492-.344,1.787-1.233.791-2.344-.936-1.044-1.906-2.063-2.93-3.019a2.725,2.725,0,0,1-.873-1.929,32.84,32.84,0,0,0-.794-4.515c-.232-.964-.877-1.186-1.689-.663a6.065,6.065,0,0,0-2.683,2.917,15.3,15.3,0,0,1-.958,2.006,6.915,6.915,0,0,1-3.159,3.021c-4.435,2.122-8.839,4.305-13.251,6.473a.843.843,0,0,0-.407.371A20.176,20.176,0,0,0,487.608,433.446Zm-37.723.107a5.708,5.708,0,0,0-.012-1.163c-.363-1.517-.782-3.019-1.143-4.536a2.5,2.5,0,0,0-1.57-1.737c-4.037-1.933-8.025-3.969-12.073-5.877a8.573,8.573,0,0,1-4.427-4.559c-.15-.353-.338-.691-.511-1.034a4.972,4.972,0,0,0-2.461-2.341c-.835-.378-1.237-.313-1.58.551a7.959,7.959,0,0,0-.629,2.684c-.045,1.98-.385,3.7-2.22,4.9a8.9,8.9,0,0,0-2.052,2.232c-.63.849-.458,1.28.549,1.664a8.554,8.554,0,0,0,4.695.3,8.422,8.422,0,0,1,5.331.246q6.026,2.865,12.048,5.74C445.8,431.568,447.767,432.528,449.885,433.552Zm36.207,12.061a2.841,2.841,0,0,0,.263.165c3.241,1.682,6.44,3.453,9.739,5.011a9.423,9.423,0,0,1,4.87,5.009,6.607,6.607,0,0,0,2.073,2.606c1.474,1.18,2.131.959,2.58-.89a1.887,1.887,0,0,0,.031-.246c.133-1.225.3-2.448.388-3.677a2.686,2.686,0,0,1,1.007-1.968c1.12-.971,2.224-1.969,3.259-3.03.681-.7.557-1.154-.286-1.613a5.525,5.525,0,0,0-4.439-.534,7.853,7.853,0,0,1-5.99-.493c-3.713-1.781-7.465-3.477-11.2-5.2a4.4,4.4,0,0,0-.516-.186Zm-36.375-5.173c-.162.083-.329.172-.5.253-4.013,1.905-8.015,3.835-12.045,5.7a6.552,6.552,0,0,1-4.758.244,7.125,7.125,0,0,0-4.192-.1,1.263,1.263,0,0,0-.736,2.109,7.253,7.253,0,0,0,.791.839c.872.838,1.787,1.638,2.615,2.519a2.764,2.764,0,0,1,.691,1.331c.269,1.513.423,3.045.645,4.566.192,1.324,1.025,1.661,2.081.846a3.305,3.305,0,0,0,.7-.693c1.019-1.462,1.982-2.963,3.033-4.4a5.845,5.845,0,0,1,1.688-1.744c3.776-2.074,7.605-4.051,11.415-6.066a2.8,2.8,0,0,0,.332-.219Zm7.324-1.354c0-2.4,0-4.675-.011-6.953,0-.157-.125-.416-.247-.454-.6-.189-.56-.647-.572-1.127a5.566,5.566,0,0,0-3.452-4.538c.059.176.1.326.158.472a40.14,40.14,0,0,1,2.668,10.074C455.7,437.528,455.757,438.558,457.041,439.088ZM484.6,426.152a5.552,5.552,0,0,0-3.07,4.655.844.844,0,0,1-.4.618c-.515.221-.566.592-.556,1.067.04,1.982.056,3.964.085,5.946,0,.2.035.4.053.6l.255.086a7.517,7.517,0,0,0,.734-1.539c.582-2.563,1.053-5.152,1.659-7.71C483.645,428.665,484.141,427.5,484.6,426.152Zm-18.253,7.373v4.366c.475,0,.884-.031,1.287.007.592.055.862-.13.811-.774-.051-.627-.012-1.262-.012-1.895,0-1.96,0-1.961-1.974-1.774C466.436,433.458,466.415,433.482,466.346,433.526Zm4.961,4.11v-4.158h-2.031v2.694c0,1.838,0,1.838,1.831,1.566A.908.908,0,0,0,471.307,437.635Zm.073.969c-.59,0-1,.024-1.409-.006-.542-.04-.734.181-.7.719.037.657.009,1.318.009,1.978,0,1.5.135,1.62,1.645,1.339.174-.032.434-.279.438-.434C471.4,441.026,471.38,439.851,471.38,438.6Zm3.448-1.262c.71-.182,1.239-.3,1.754-.461.155-.05.378-.234.382-.362.029-1.22.017-2.44.017-3.677a11.778,11.778,0,0,0-1.6.219c-.216.059-.517.341-.525.532C474.8,434.792,474.828,435.995,474.828,437.342ZM462.663,433.2l-2.138-.291c0,1.239-.014,2.333.015,3.426a.658.658,0,0,0,.33.494c.552.2,1.128.336,1.793.523Zm3.584,5.455c0,1.19-.012,2.33.013,3.47a.526.526,0,0,0,.31.4c.605.071,1.217.082,1.811.113v-3.872Zm8.623,3.385c.709-.224,1.259-.377,1.789-.578a.585.585,0,0,0,.341-.393c.028-1.109.015-2.22.015-3.423-.672.163-1.207.258-1.713.436a.713.713,0,0,0-.413.5C474.852,439.672,474.87,440.766,474.87,442.042Zm-14.349-4.388c0,1.2-.008,2.261.008,3.327,0,.142.086.369.188.408.59.218,1.2.391,1.932.623,0-.819,0-1.418,0-2.016a11.286,11.286,0,0,0-.008-1.4.735.735,0,0,0-.41-.5C461.723,437.923,461.185,437.822,460.521,437.654Zm4.8-4.219c-.376-.042-.679-.052-.972-.113-.653-.135-.9.1-.853.772.048.626.01,1.261.007,1.891-.008,1.7-.008,1.7,1.693,1.719.022,0,.044-.022.125-.065Zm6.962,4.24a8.011,8.011,0,0,0,1.115-.136c.2-.053.525-.234.529-.366.039-1.3.024-2.6.024-3.967l-1.667.163Zm1.656,4.544v-3.777a8.8,8.8,0,0,0-1.242.018c-.163.024-.42.238-.424.372-.034,1.193-.019,2.388-.019,3.687Zm-8.6-3.594-1.774-.214v3.78l1.774.22Zm-7.456-2.151c-.041.777-.084,1.431-.109,2.086-.055,1.419.383,1.957,1.934,2.3,0-1.083.015-2.147-.015-3.21a.717.717,0,0,0-.343-.483C458.92,436.923,458.461,436.743,457.878,436.474Zm21.9-.071c-.628.3-1.14.536-1.633.8a.523.523,0,0,0-.259.361c-.02,1.1-.012,2.2-.012,3.465a9.187,9.187,0,0,0,1.346-.767,1.447,1.447,0,0,0,.532-.864C479.816,438.449,479.773,437.49,479.773,436.4Zm-20.06-3.7-1.847-.527c0,.753,0,1.377,0,2-.008,1.381.363,1.81,1.847,2.063Zm18.189-.033v3.882c.719-.566,1.582-.9,1.741-1.446a11.3,11.3,0,0,0,.071-3Z" transform="translate(-418.478 -364.63)" fill="url(#linear-gradient-26)"/>
        <g id="Grupo_55974" data-name="Grupo 55974" transform="translate(29.241 36.023)">
          <path id="Trazado_100973" data-name="Trazado 100973" d="M448.96,408.052a4.971,4.971,0,0,1,4.1-4.688c2.434-.4,4.884-.687,7.329-1.008a6.929,6.929,0,0,1,1.951-.142c1.751.283,2.542,1.576,3,3.141a5.158,5.158,0,0,1-.46,3.9,29.875,29.875,0,0,1-4.506,6.482c-1.992,2.212-4.951,2.323-7.374.313a6.934,6.934,0,0,1-2.275-3.07c-.384-1.113-.907-2.178-1.324-3.28A16.467,16.467,0,0,1,448.96,408.052Z" transform="translate(-448.96 -402.181)" fill="url(#linear-gradient-27)"/>
          <path id="Trazado_100974" data-name="Trazado 100974" d="M492.334,408.183c-.489,1.293-.99,2.581-1.464,3.879a8.827,8.827,0,0,1-2.573,3.948c-1.908,1.587-4.608,2-6.332.716a10.943,10.943,0,0,1-2.315-2.439,59.206,59.206,0,0,1-3.383-5.257,4.977,4.977,0,0,1,.13-4.959,3.348,3.348,0,0,1,3.853-1.813c1.786.283,3.595.422,5.383.691a23.339,23.339,0,0,1,3.528.743,4.513,4.513,0,0,1,2.958,4.412Z" transform="translate(-450.047 -402.181)" fill="url(#linear-gradient-28)"/>
          <path id="Trazado_100975" data-name="Trazado 100975" d="M469.905,415.037c0,3.844,0,7.462-.006,11.081a.69.69,0,0,1-.129.448,22.765,22.765,0,0,1-2.246,2.166c-.906.692-1.495.469-2.034-.564a7.858,7.858,0,0,1-.6-4.1,11.04,11.04,0,0,1,2.884-7.082C468.373,416.32,469.1,415.767,469.905,415.037Z" transform="translate(-449.607 -402.704)" fill="url(#linear-gradient-29)"/>
          <path id="Trazado_100976" data-name="Trazado 100976" d="M471.756,415.226a11.431,11.431,0,0,1,4.648,12.391c-.477,1.7-1.419,1.963-2.767.814a19.2,19.2,0,0,1-1.657-1.717,1.312,1.312,0,0,1-.22-.507,1.17,1.17,0,0,1,0-.328Z" transform="translate(-449.887 -402.711)" fill="url(#linear-gradient-30)"/>
        </g>
      </g>
    </g>
    <g id="Grupo_55979" data-name="Grupo 55979" transform="translate(792.483 314.318)">
      <g id="Grupo_55977" data-name="Grupo 55977">
        <rect id="Rectángulo_5338" data-name="Rectángulo 5338" width="146.095" height="146.095" rx="11.73" transform="translate(0 103.305) rotate(-45)" fill="#d61b22"/>
        <rect id="Rectángulo_5339" data-name="Rectángulo 5339" width="124.394" height="124.394" rx="10.497" transform="translate(15.345 103.305) rotate(-45)" fill="url(#linear-gradient)"/>
      </g>
      <g id="Grupo_55978" data-name="Grupo 55978" transform="translate(86.126 45.027)">
        <circle id="Elipse_4020" data-name="Elipse 4020" cx="12.977" cy="12.977" r="12.977" transform="translate(4.213 83.454)" fill="url(#linear-gradient-32)"/>
        <path id="Trazado_100977" data-name="Trazado 100977" d="M949.26,381.4h0a17.178,17.178,0,1,0-34.1-2.967c0,2.573,11.935,54.405,11.935,54.405h.165a5.56,5.56,0,0,0,10.8,0h0l.03-.134c.008-.035.016-.071.023-.107Z" transform="translate(-915.159 -361.255)" fill="url(#linear-gradient-2)"/>
      </g>
    </g>
    <g id="Grupo_55984" data-name="Grupo 55984" transform="translate(234.957 464.092)">
      <g id="Grupo_55983" data-name="Grupo 55983">
        <g id="Grupo_55982" data-name="Grupo 55982">
          <g id="Grupo_55981" data-name="Grupo 55981">
            <g id="Grupo_55980" data-name="Grupo 55980">
              <rect id="Rectángulo_5340" data-name="Rectángulo 5340" width="146.095" height="146.095" rx="11.73" transform="translate(0 103.305) rotate(-45)" fill="#d61b22"/>
              <rect id="Rectángulo_5341" data-name="Rectángulo 5341" width="124.394" height="124.394" rx="10.497" transform="translate(15.345 103.305) rotate(-45)" fill="url(#linear-gradient)"/>
            </g>
          </g>
        </g>
      </g>
      <circle id="Elipse_4021" data-name="Elipse 4021" cx="2.712" cy="2.712" r="2.712" transform="translate(131.612 96.423)" fill="url(#linear-gradient-35)"/>
      <rect id="Rectángulo_5342" data-name="Rectángulo 5342" width="27.385" height="4.269" transform="translate(142.979 97.291)" fill="url(#linear-gradient-35)"/>
      <path id="Trazado_100978" data-name="Trazado 100978" d="M391.727,600.305l-3.521-.249-1.905-4.183-1.739-.29-.828-1.615-.7-3.437a13.719,13.719,0,0,0,4.556-11.9c1.3-1.408,4.349-7.068,4.349-7.068a19.228,19.228,0,0,0,1.946-9.319l-3.147-1.284c-2.733,3.064-7.744,6.792-9.277,4.39s1.45-4.6,1.45-4.6l-.994-.7-.787-1.657c-2.94-.373-7.165,1.491-7.165,1.491-12.341-2.485-16.235,4.784-16.235,4.784l3.244,4.355c-7.289,6.185-14.136,18.223-14.136,18.223l-6.627-.648-2.429,1.2,4.749,6.736h-3.313L338,596.743h-5.411l-4.75,6.626H316.35l-2.1,2.982-6.295,1.1-3.2,4.2h86.365l5.7-5.923ZM378.1,561.539s-1.822,4.846,2.278,6.834,9.567-2.361,9.567-2.361S387,585.064,375.078,576.118C375.078,576.118,365.511,568.166,378.1,561.539Zm-9.484.663-5.281,4.411-1.387-1.491C363.564,562.637,368.617,562.2,368.617,562.2ZM349.18,597.819l-5.605-7.427,6.461.441Zm3.989-6.461.345-1.877-1.076-1.27h-2.4v-1.16s12.452-18.388,18.913-21.039c0,0-2.236,7.524,2.817,11.734,0,0,3.478,3.962,8.615,3.631,0,0-9.657,7.744-26.509,11.058Zm12.715,3.355-.676-1.2-.607-.7c8.241-1.366,19.59-10.147,19.59-10.147C381.7,591.235,365.883,594.713,365.883,594.713Z" transform="translate(-246.669 -474.022)" fill="url(#linear-gradient-35)"/>
      <path id="Trazado_100979" data-name="Trazado 100979" d="M355.935,573.827l2.319-4.307H339.039l9.145-17.2h8.78v-3.755h-6.3l3.424-7.289-3.148-2.043-4.694,8.283-.166-5.025-4.307.055.11,13.529-2.871,4.9V543.885l2.844-3.55,12.425-4.887-1.6-3.589-6.516,2.43,4.611-6.627-3.341-2.347-10.216,13.667,5.494-19.383-3.893-1.27-2.43,7.814-5.853-6.93-3.148,2.568,7.924,9.25-1.988,6.323-7.483-12.2-3.589,2.457,4.114,6.212h-6.9v3.865l9.249.138,1.933,3.3v9.444l-4.445-10.953-3.865,1.491,2.871,7.62-7.565-7.62-2.982,2.816,5.8,5.909-4.583,3.313,2.1,3.568,5.577-3.733,7.1,7.628v8.911H287.744v4.307h42.907v3.794l-8.918,2.474,1.491,3.727,7.068-1.767-1.74,2.915,3.369,1.779,3.2-5.384,9.719.856v-3.81l-5.826-1.393v-3.191Z" transform="translate(-245.976 -472.394)" fill="url(#linear-gradient-35)"/>
    </g>
    <g id="Grupo_55989" data-name="Grupo 55989" transform="translate(898.279 464.092)">
      <g id="Grupo_55987" data-name="Grupo 55987">
        <g id="Grupo_55986" data-name="Grupo 55986">
          <g id="Grupo_55985" data-name="Grupo 55985">
            <rect id="Rectángulo_5343" data-name="Rectángulo 5343" width="146.095" height="146.095" rx="11.73" transform="translate(0 103.305) rotate(-45)" fill="#d61b22"/>
            <rect id="Rectángulo_5344" data-name="Rectángulo 5344" width="124.394" height="124.394" rx="10.497" transform="translate(15.345 103.305) rotate(-45)" fill="url(#linear-gradient)"/>
          </g>
        </g>
      </g>
      <g id="Grupo_55988" data-name="Grupo 55988" transform="translate(64.959 33.991)">
        <path id="Trazado_100980" data-name="Trazado 100980" d="M1056.557,608.49a27.982,27.982,0,1,0-29.665,0h-21.366V614.1h72.314V608.49Zm-38.3-23.711a23.472,23.472,0,1,1,23.472,23.472A23.5,23.5,0,0,1,1018.253,584.779Z" transform="translate(-1003.466 -507.95)" fill="url(#linear-gradient-35)"/>
        <path id="Trazado_100981" data-name="Trazado 100981" d="M1007.88,582.707a33.713,33.713,0,0,1,67.425-.339,51.078,51.078,0,0,0,.172-30.938s-7.362-12.486-7.158-22.8c0,0-5.125-.238-8.662,11.038.305-.959,2.225-7.66-2.3-12.013,0,0-4.942-2.867-3.783-6.711l1.525-4.27s-9.152,1.281-8.785,11.713c0,0-2.806-3.966-.915-10.432a18.974,18.974,0,0,0-.655-12.08s-.2,3.722-9.167,12.628-6.283,16.412-4.7,20.438c0,0-3.721-1.1-3.233-7.443s-.793-8.052-3.966-9.456c0,0,2.014,4.941-3.233,11.286-3.24,3.919-2.618,8.369-1.668,11.2-1.683-3.155-5.049-7.837-10.411-8.4,0,0,3.538,4.331-2.867,18.79,0,0-6.04,17.082,2.257,29.528h.168C1007.9,583.876,1007.88,583.293,1007.88,582.707Z" transform="translate(-1003.378 -505.878)" fill="url(#linear-gradient-35)"/>
      </g>
    </g>
    <g id="Grupo_55996" data-name="Grupo 55996" transform="translate(574.867 314.318)">
      <g id="Grupo_55992" data-name="Grupo 55992">
        <g id="Grupo_55991" data-name="Grupo 55991">
          <g id="Grupo_55990" data-name="Grupo 55990">
            <rect id="Rectángulo_5345" data-name="Rectángulo 5345" width="146.095" height="146.095" rx="11.73" transform="translate(0 103.305) rotate(-45)" fill="#d61b22"/>
            <rect id="Rectángulo_5346" data-name="Rectángulo 5346" width="124.394" height="124.394" rx="10.497" transform="translate(15.345 103.305) rotate(-45)" fill="url(#linear-gradient)"/>
          </g>
        </g>
      </g>
      <g id="Grupo_55995" data-name="Grupo 55995" transform="translate(19.412 19.412)">
        <g id="Grupo_55994" data-name="Grupo 55994" clip-path="url(#clip-path)">
          <g id="Grupo_55993" data-name="Grupo 55993" transform="translate(-5.376 15.771)">
            <path id="Trazado_100982" data-name="Trazado 100982" d="M696.266,429.6c-.019.219-.138.56-.043.637,1.269,1.023,2.11,2.526,4.157,2.548,7.508.082,15.014.349,22.521.542a5.946,5.946,0,0,0,.706-.083l-.7-3.812c2.657.213,4.18-1.44,5.734-3.073a1.127,1.127,0,0,1,.969-.3c3.089,1.4,6.152,2.865,9.361,4.376l-2.509,3.492c2.961,0,5.562-.053,8.161.01,9.264.221,18.528.458,27.789.765a9.4,9.4,0,0,1,2.611.908l-.108.509-74.636-2.5,1.336,1.875-.334.4,32.251,4.654-.652,4.136-13.2-3.23c1.38,1.253,2.875,2.4,1.925,4.748-3.125-.482-6.379-.774-9.51-1.561-1.406-.353-2.59-1.662-3.809-2.621-.186-.146-.16-.851.027-1.112a1.86,1.86,0,0,1,1.172-.781,18.041,18.041,0,0,1,2.466.234,4.474,4.474,0,0,0,.885-.1l.06-.452-12.128-3.131-.894,1.941c1.756.97,3.451,1.9,5.142,2.841,4.512,2.5,9.009,5.038,13.544,7.5a4.407,4.407,0,0,1,2.183,3.055l-20.886-12.957c-.692.759-.724.8,0,1.335q5.664,4.138,11.357,8.233c3.75,2.705,7.509,5.4,11.38,8.178l-1.122,1.263-22.7-17.69c-.508.687-1.633,1.086-.7,2.2l.027-.029c-.455.059-1.089-.054-1.339.2-3.82,3.943-8.494,5.1-13.778,4.351a15.944,15.944,0,0,1-10.161-5.471l-7.129,6.469a16.549,16.549,0,0,1,2.813.036c.608.121,1.616.551,1.63.879a3.884,3.884,0,0,1-.676,2.513,1.633,1.633,0,0,1-2.405.5c-.354-.258-1.238.209-2.061.382l-1.751-2.063L647.72,464.5l-1.7-2.106,26.447-21.158-1.779-2.71-22.8,13.154c-.623-.915-.4-1.366.446-1.806,6.431-3.359,12.84-6.758,19.256-10.147a5.712,5.712,0,0,0,1.82-1.313l-13.379,4.32c-.385-1.053-.12-1.51.9-1.756,4.068-.984,8.117-2.048,12.17-3.09.367-.094.721-.235,1.082-.355l-.041-.379a7.216,7.216,0,0,0-1.341.081q-12.758,3.161-25.509,6.354c-5.147,1.279-10.3,2.537-15.59,3.84l-.235-1.448,42.18-9.39c0-1.028-.329-1.35-1.246-1.223q-16.436,2.258-32.879,4.459c-7.336.979-14.679,1.908-22.151,2.876l-.206-1.429,27.742-3.158-.007-.22-6.848-.334a1.646,1.646,0,0,1,.95-2.37c1.035-.46,1.945-1.716,3.1-.219.116.151.326.225.45.371,1.985,2.35,4.418,2.68,7.4,2.257,7.476-1.061,15-1.789,22.5-2.653.19-.022.377-.076.563-.114-.333-2.2-.333-2.242-2.446-2.276-2.81-.045-5.621-.011-8.513-.011l.12,2.053a5.293,5.293,0,0,1-1.249-.017c-.8-.2-1.2.125-1.658.767a2.062,2.062,0,0,1-1.5.7,6.026,6.026,0,0,1-5.122-2.763l.767-1.426c-.421-.056-.775-.129-1.132-.146-6.139-.3-12.28-.568-18.416-.929a7.3,7.3,0,0,1-2.18-.9l.163-.461a7.57,7.57,0,0,1,.941-.048c6.274.456,12.546.947,18.823,1.36,1.236.082,2.5-.275,3.733-.168,2.205.194,4.385.665,6.589.877,3.64.35,7.307.458,10.93.92,2.081.267,4.087,1.089,6.154,1.533a2.5,2.5,0,0,0,1.821-.384c1.511-1.146,2.913-2.436,4.5-3.8l7.319,6.105c1.687-1.067,3.434-2.1,5.081-3.268.356-.253.421-1.006.492-1.546a13.911,13.911,0,0,0,.019-1.842l2.03.472Zm29.573,3.814h2.937C727.724,431.913,726.776,432.892,725.838,433.417Z" transform="translate(-613.164 -354.046)" fill="url(#linear-gradient-43)"/>
            <path id="Trazado_100983" data-name="Trazado 100983" d="M671.013,420.463c6.232-11.646,9.834-13.607,22.309-12.114,6.726-19.051,13.459-38.123,20.248-57.356l4.01,1.57-19.8,55.362.283.12,14.664-29,2.524,1.453-18.037,29.916,3.114,2.815c13.624-14.59,27.027-29.34,40.649-44.094l2.182,1.946-34.625,35.069c1.654.1,3.25.884,4.64-.425,1.165-1.1,2.4-2.117,3.731-3.277-.81,3.856-3.785,7.382-8.619,10.294l-1-2.352a22.146,22.146,0,0,1-2.135.934,15.3,15.3,0,0,1-1.566.2,1.691,1.691,0,0,0-.817.419c-.584.583-1.118,1.217-1.739,1.907l.859,1.3c-3.72-.307-4.741,3.049-6.921,4.754a33.439,33.439,0,0,0-3.477,3.631l-.28-.277c1.2-1.308,2.4-2.62,3.6-3.924,1.176-1.274,2.36-2.539,3.813-4.1-.8,0-1.221.039-1.627-.009-1.056-.124-1.693.281-1.745,1.373-.065,1.372-.727,1.8-2.072,1.63a30.9,30.9,0,0,0-3.648-.03c.383,1.131.807,2.161,1.058,3.232a2.066,2.066,0,0,1-.234,1.537c-1.03,1.35-2.184,2.6-3.306,3.909-3.534-1.655-6.77-4.142-11.029-2.976l.223.373a10.945,10.945,0,0,1-2.614-.588,13.834,13.834,0,0,1-2.23-1.764c-1.7-1.33-3.4-2.644-5.1-3.966-.552-.429-1.1-.862-1.648-1.294l.265-.368Z" transform="translate(-615.259 -350.993)" fill="url(#linear-gradient-43)"/>
            <path id="Trazado_100984" data-name="Trazado 100984" d="M699.818,429.132c1.551-.349,3.091-.763,4.655-1.038q10-1.761,20.006-3.449c8.546-1.432,17.106-2.787,25.65-4.239,6.333-1.076,12.645-2.284,18.975-3.382,6.617-1.146,13.245-2.23,19.991-3.362v2.875c-2.688.4-5.363.808-8.043,1.193q-9.832,1.417-19.67,2.817-17.06,2.426-34.122,4.845c-8.583,1.227-17.16,2.484-25.743,3.709a11.5,11.5,0,0,1-1.725,0Z" transform="translate(-616.689 -353.543)" fill="url(#linear-gradient-43)"/>
            <path id="Trazado_100985" data-name="Trazado 100985" d="M698.928,425.369q10.153-2.645,20.308-5.291,11.44-2.983,22.88-5.969c5.836-1.52,11.678-3.018,17.511-4.544q8.047-2.107,16.083-4.251c2.672-.708,2.673-.711,3.524,2.183L699.048,425.68Z" transform="translate(-616.654 -353.188)" fill="url(#linear-gradient-43)"/>
            <path id="Trazado_100986" data-name="Trazado 100986" d="M701.37,420.957,744.3,390.641a33.3,33.3,0,0,1,.288,3.851c-.011.363-.646.78-1.073,1.044q-11.138,6.858-22.3,13.681-9.218,5.658-18.427,11.328c-.4.245-.817.459-1.227.687Z" transform="translate(-616.753 -352.606)" fill="url(#linear-gradient-43)"/>
            <path id="Trazado_100987" data-name="Trazado 100987" d="M768.4,398.824l-5.191-3.28-3.09,2.654c-.883-.506-1.758-1-2.63-1.509a1.314,1.314,0,0,1-.472-.33c-.837-1.333.829-4.65,2.415-4.776,1.258-.1,2.521-.126,3.822-.185.545-1.713,1.073-3.373,1.607-5.051C768.026,389.956,769.508,394,768.4,398.824Z" transform="translate(-619.009 -352.432)" fill="url(#linear-gradient-43)"/>
            <path id="Trazado_100988" data-name="Trazado 100988" d="M694.912,406.258c2.848-11.744,5.7-23.488,8.59-35.416l2.556,1.237q-5.442,17.168-10.863,34.264Z" transform="translate(-616.491 -351.801)" fill="url(#linear-gradient-43)"/>
            <path id="Trazado_100989" data-name="Trazado 100989" d="M696.709,384.759a15.148,15.148,0,0,0-.8-2.317,14.4,14.4,0,0,0-1.394-1.832c-.221-.282-.662-.586-.633-.837.16-1.381.436-2.749.686-4.212l1.905.479a6.435,6.435,0,0,0,.5-1.179c.189-.921.648-1.238,1.621-1.178.955.06,1.048.6,1.377,1.319,1.482,3.217.737,5.823-1.838,8.082A16.394,16.394,0,0,0,696.709,384.759Z" transform="translate(-616.449 -351.916)" fill="url(#linear-gradient-43)"/>
            <path id="Trazado_100990" data-name="Trazado 100990" d="M705.15,422.383l24.992-11.953c.278,2.486.277,2.483-1.752,3.276q-10.866,4.249-21.732,8.5c-.441.173-.9.309-1.346.461Z" transform="translate(-616.907 -353.412)" fill="url(#linear-gradient-43)"/>
            <path id="Trazado_100991" data-name="Trazado 100991" d="M636.635,452.063l3.094,1.44a2.307,2.307,0,0,1,3.185.039c.572.6-.145,2.644-1.284,2.82a3.236,3.236,0,0,0-2.925,2.861C635.557,455.833,635.5,455.651,636.635,452.063Z" transform="translate(-614.092 -355.106)" fill="url(#linear-gradient-52)"/>
            <path id="Trazado_100992" data-name="Trazado 100992" d="M673.587,430.649l-20.956-3.076c.723-1.139,1.39-1.813,2.906-1.443,5.662,1.383,11.358,2.623,17.04,3.922.364.083.715.221,1.072.333Z" transform="translate(-614.77 -354.046)" fill="url(#linear-gradient-43)"/>
            <path id="Trazado_100993" data-name="Trazado 100993" d="M716.233,395.4c-2.219-.833-2.03-2.377-1.742-4.188.306-1.932,1.216-2.863,3.174-2.808C719.206,391.423,718.838,393.608,716.233,395.4Z" transform="translate(-617.28 -352.515)" fill="url(#linear-gradient-43)"/>
            <path id="Trazado_100994" data-name="Trazado 100994" d="M738.053,408.672l3.147-4.717,4.839,5.393Z" transform="translate(-618.246 -353.148)" fill="url(#linear-gradient-43)"/>
            <path id="Trazado_100995" data-name="Trazado 100995" d="M701.678,443.283c.975.619,1.982,1.194,2.92,1.865,4.123,2.944,8.25,5.883,12.318,8.9a13.413,13.413,0,0,1,1.975,2.308l-.365.386c-.561-.389-1.146-.746-1.68-1.17q-7.326-5.822-14.631-11.67a3.6,3.6,0,0,1-.51-.651Z" transform="translate(-616.766 -354.747)" fill="url(#linear-gradient-43)"/>
            <path id="Trazado_100996" data-name="Trazado 100996" d="M652.919,444.326c.025.368.052.654.06.941.01.333,0,.667,0,.963-2.116.869-2.381.754-4.357-1.9Z" transform="translate(-614.607 -354.791)" fill="url(#linear-gradient-57)"/>
            <path id="Trazado_100997" data-name="Trazado 100997" d="M661.3,421.7l12.406,6.664-.175.332C669.4,426.441,665,424.718,661,422.224Z" transform="translate(-615.11 -353.87)" fill="url(#linear-gradient-43)"/>
            <path id="Trazado_100998" data-name="Trazado 100998" d="M730.618,433.7c.937-.525,1.885-1.5,2.937,0Z" transform="translate(-617.944 -354.326)" fill="url(#linear-gradient-59)"/>
          </g>
        </g>
      </g>
    </g>
    <g id="Grupo_56000" data-name="Grupo 56000" transform="translate(124.861 314.318)">
      <g id="Grupo_55998" data-name="Grupo 55998">
        <g id="Grupo_55997" data-name="Grupo 55997">
          <rect id="Rectángulo_5348" data-name="Rectángulo 5348" width="146.095" height="146.095" rx="11.73" transform="translate(0 103.305) rotate(-45)" fill="#d61b22"/>
          <rect id="Rectángulo_5349" data-name="Rectángulo 5349" width="124.394" height="124.394" rx="10.497" transform="translate(15.345 103.305) rotate(-45)" fill="url(#linear-gradient)"/>
        </g>
      </g>
      <g id="Grupo_55999" data-name="Grupo 55999" transform="translate(62.294 32.591)">
        <path id="Trazado_100999" data-name="Trazado 100999" d="M254.139,450.056s12.7-5.657,8.424-19.862c0,0-2.829-7.983-1.854-11.723,0,0-3.74-1.352-6.967,5.374a5.427,5.427,0,0,1-6.222,2.284s5.154-5.322,1.759-14.458a34.255,34.255,0,0,1-1.3-9.512s-2.514-.168-2.64,8.171-4.442,9.135-4.442,9.135,3.813-14.835-6.16-20.282c0,0,.8,5.615-1.592,14.415s1.382,17.977,1.382,17.977-5.531-.209-10.183-10.6a17.36,17.36,0,0,0-6.851-9.2s4.023,16.406-3.96,16.155a10.358,10.358,0,0,1-4.4-3.311s-7.481,11.482,2.451,20.91l6.474,4.526s-7.605,1.823-16.406-5.908c0,0-7.982-5.343-7.228-19.172,0,0,.126-7.857,4.84-18.983a14.823,14.823,0,0,0-.062-8.674s4.9-.692,11.126,6.662c0,0,.565-1.508-2.075-6.411,0,0-3.079-6.034,3.332-14.143,0,0,6.16-7.417,2.891-11.88,0,0,5.846,2.891,4.965,13.138,0,0-1.571,14.457,6.789,19.988,0,0-7.354-16.845-2.263-28.034,0,0,2.452-8.423,11.5-17.663,0,0,5.28-5.595,4.275-10.686,0,0,5.153,4.337.691,17.222s1.635,20.428,1.635,20.428-4.149-14.017,9.428-21.246c0,0-4.84,8.674.817,14.143s7.892,13.8,2.075,21.812c0,0,1.7.754,8.359-6.538,0,0,4.526-4.337,7.983-4.4,0,0-5.595,3.268-1.32,12.445s11,20.717,3.834,37.513A19.914,19.914,0,0,1,254.139,450.056Z" transform="translate(-194.375 -348.291)" fill="url(#linear-gradient-2)"/>
        <rect id="Rectángulo_5350" data-name="Rectángulo 5350" width="74.171" height="7.291" transform="translate(4.45 105.285)" fill="url(#linear-gradient-2)"/>
      </g>
    </g>
    <g id="Grupo_56003" data-name="Grupo 56003" transform="translate(677.172 464.092)">
      <g id="Grupo_56002" data-name="Grupo 56002">
        <g id="Grupo_56001" data-name="Grupo 56001">
          <rect id="Rectángulo_5351" data-name="Rectángulo 5351" width="146.095" height="146.095" rx="11.73" transform="translate(0 103.305) rotate(-45)" fill="#d61b22"/>
          <rect id="Rectángulo_5352" data-name="Rectángulo 5352" width="124.394" height="124.394" rx="10.497" transform="translate(15.345 103.305) rotate(-45)" fill="url(#linear-gradient)"/>
        </g>
      </g>
      <path id="Trazado_101000" data-name="Trazado 101000" d="M863.154,555.041a4.109,4.109,0,0,0-5.377-2.2l-11.908,4.988A11.687,11.687,0,0,0,832.6,554.29l-67.62,26.049a11.687,11.687,0,0,0-6.7,15.107l.253.658a11.687,11.687,0,0,0,15.107,6.7l67.62-26.049a11.681,11.681,0,0,0,7.471-11.222l12.224-5.121A4.108,4.108,0,0,0,863.154,555.041Z" transform="translate(-707.306 -473.785)" fill="url(#linear-gradient-2)"/>
    </g>
  </g>
</svg>
