<svg xmlns="http://www.w3.org/2000/svg" xmlns:xlink="http://www.w3.org/1999/xlink" width="137.617" height="137.617" viewBox="0 0 137.617 137.617">
  <defs>
    <linearGradient id="linear-gradient" x1="0.5" y1="1.04" x2="0.5" y2="-0.024" gradientUnits="objectBoundingBox">
      <stop offset="0" stop-color="#e6e6e6"/>
      <stop offset="0.42" stop-color="#fff"/>
    </linearGradient>
    <linearGradient id="linear-gradient-2" x1="0.5" x2="0.5" y2="1" gradientUnits="objectBoundingBox">
      <stop offset="0" stop-color="#231f20"/>
      <stop offset="0.903" stop-color="#505052"/>
    </linearGradient>
  </defs>
  <g id="Grupo_56699" data-name="Grupo 56699" transform="translate(-765.22 -100.145)">
    <g id="Grupo_56697" data-name="Grupo 56697">
      <g id="Grupo_56696" data-name="Grupo 56696">
        <g id="Grupo_56695" data-name="Grupo 56695">
          <g id="Grupo_56694" data-name="Grupo 56694">
            <rect id="Rectángulo_8274" data-name="Rectángulo 8274" width="97.31" height="97.31" rx="7.495" transform="translate(765.22 168.953) rotate(-45)" fill="#d61b22"/>
            <rect id="Rectángulo_8275" data-name="Rectángulo 8275" width="82.856" height="82.856" rx="10.497" transform="translate(775.441 168.953) rotate(-45)" fill="url(#linear-gradient)"/>
          </g>
        </g>
      </g>
    </g>
    <circle id="Elipse_4082" data-name="Elipse 4082" cx="1.806" cy="1.806" r="1.806" transform="translate(852.883 164.37)" fill="url(#linear-gradient-2)"/>
    <rect id="Rectángulo_8276" data-name="Rectángulo 8276" width="18.24" height="2.843" transform="translate(860.455 164.948)" fill="url(#linear-gradient-2)"/>
    <path id="Trazado_101929" data-name="Trazado 101929" d="M861.84,184.258l-2.345-.166-1.269-2.786-1.159-.193-.551-1.076-.469-2.289a9.138,9.138,0,0,0,3.034-7.927,40.545,40.545,0,0,0,2.9-4.708,12.81,12.81,0,0,0,1.3-6.207l-2.1-.855c-1.821,2.042-5.159,4.524-6.18,2.924s.966-3.062.966-3.062l-.662-.469-.524-1.1a11.467,11.467,0,0,0-4.773.993c-8.22-1.655-10.813,3.186-10.813,3.186l2.161,2.9c-4.856,4.12-9.416,12.138-9.416,12.138l-4.414-.431-1.618.8,3.163,4.487h-2.207l-.809,1.471h-3.6l-3.163,4.414h-7.651l-1.4,1.986-4.193.736-2.134,2.795h57.526l3.8-3.944Zm-9.076-25.821s-1.214,3.228,1.517,4.552,6.373-1.572,6.373-1.572-1.959,12.689-9.9,6.731C850.75,168.148,844.378,162.851,852.764,158.437Zm-6.317.442-3.517,2.938-.925-.993C843.081,159.169,846.447,158.879,846.447,158.879ZM833.5,182.6l-3.733-4.947,4.3.294Zm2.657-4.3.23-1.25-.717-.846h-1.6v-.773s8.294-12.248,12.6-14.013c0,0-1.489,5.011,1.876,7.816a7.661,7.661,0,0,0,5.738,2.418s-6.432,5.159-17.657,7.366Zm8.469,2.235-.45-.8-.405-.469c5.49-.91,13.048-6.759,13.048-6.759C855.164,178.217,844.626,180.534,844.626,180.534Z" fill="url(#linear-gradient-2)"/>
    <path id="Trazado_101930" data-name="Trazado 101930" d="M838.461,167.706l1.545-2.869h-12.8L833.3,153.38h5.848v-2.5h-4.193l2.28-4.855-2.1-1.361-3.126,5.517-.11-3.347-2.869.037.074,9.011-1.913,3.265V147.763l1.894-2.365,8.276-3.255-1.067-2.391-4.34,1.618,3.071-4.414-2.225-1.563-6.8,9.1,3.66-12.91-2.593-.846-1.618,5.2-3.9-4.616-2.1,1.71,5.278,6.161-1.324,4.211-4.984-8.129-2.391,1.637,2.74,4.138h-4.6v2.575l6.161.092,1.287,2.2v6.29l-2.961-7.3-2.575.993L818,150.989l-5.039-5.076-1.986,1.876,3.862,3.936-3.053,2.207,1.4,2.376,3.715-2.487,4.726,5.081v5.935H793.04v2.869h28.579v2.527l-5.94,1.648.993,2.483,4.708-1.177-1.159,1.941,2.244,1.185,2.133-3.586,6.474.57v-2.538l-3.88-.928v-2.125Z" fill="url(#linear-gradient-2)"/>
  </g>
</svg>
