<svg xmlns="http://www.w3.org/2000/svg" xmlns:xlink="http://www.w3.org/1999/xlink" width="276.523" height="276.523" viewBox="0 0 276.523 276.523">
  <defs>
    <linearGradient id="linear-gradient" x1="0.5" y1="1.042" x2="0.5" y2="-0.026" gradientUnits="objectBoundingBox">
      <stop offset="0" stop-color="#e6e6e6"/>
      <stop offset="0.42" stop-color="#fff"/>
    </linearGradient>
    <linearGradient id="linear-gradient-2" x1="0.5" y1="0.877" x2="0.5" y2="0.05" gradientUnits="objectBoundingBox">
      <stop offset="0" stop-color="#231f20"/>
      <stop offset="0.903" stop-color="#505052"/>
    </linearGradient>
    <linearGradient id="linear-gradient-3" x1="0.5" y1="0.877" x2="0.5" y2="0.05" xlink:href="#linear-gradient-2"/>
    <linearGradient id="linear-gradient-7" x1="110.511" y1="0.877" x2="110.511" y2="0.05" xlink:href="#linear-gradient-2"/>
    <linearGradient id="linear-gradient-9" x1="0.5" y1="0.877" x2="0.5" y2="0.05" xlink:href="#linear-gradient-2"/>
  </defs>
  <g id="Grupo_56605" data-name="Grupo 56605" transform="translate(725.027 -4594.034)">
    <g id="Grupo_56609" data-name="Grupo 56609" transform="translate(-725.027 4594.034)">
      <g id="Grupo_56607" data-name="Grupo 56607">
        <g id="Grupo_56606" data-name="Grupo 56606">
          <rect id="Rect치ngulo_8229" data-name="Rect치ngulo 8229" width="195.531" height="195.531" rx="7.849" transform="translate(0 138.261) rotate(-45)" fill="#d61b22"/>
          <rect id="Rect치ngulo_8230" data-name="Rect치ngulo 8230" width="166.488" height="166.488" rx="10.497" transform="translate(20.537 138.261) rotate(-45)" fill="url(#linear-gradient)"/>
        </g>
      </g>
      <g id="Grupo_56608" data-name="Grupo 56608" transform="translate(56.136 62.761)">
        <path id="Trazado_101718" data-name="Trazado 101718" d="M-695.77,4679.615l20.294,20.412h38.833v-20.412h-12.475s-.508,2.777-5.123,2.346a5.074,5.074,0,0,1-4.693,2.737c-3.323-.155-5.434-3.56-5.434-3.56s-3.325.433-4.459-1.719H-695.77Z" transform="translate(695.77 -4578.351)" fill="url(#linear-gradient-2)"/>
        <path id="Trazado_101719" data-name="Trazado 101719" d="M-670.6,4678.913h0l-4.11-8.5-3.753,8.357c-.042.09-.084.177-.121.269l-.052.115.013.01a4.267,4.267,0,0,0-.267,1.448,4.318,4.318,0,0,0,4.317,4.319,4.318,4.318,0,0,0,4.319-4.319A4.316,4.316,0,0,0-670.6,4678.913Z" transform="translate(711.281 -4586.627)" fill="url(#linear-gradient-3)"/>
        <path id="Trazado_101720" data-name="Trazado 101720" d="M-673.594,4669.905v0l-4.11-8.5-3.753,8.357c-.042.089-.084.177-.121.269l-.052.115.013.01a4.271,4.271,0,0,0-.267,1.449,4.317,4.317,0,0,0,4.317,4.317,4.317,4.317,0,0,0,4.319-4.317A4.3,4.3,0,0,0-673.594,4669.905Z" transform="translate(708.528 -4594.903)" fill="url(#linear-gradient-2)"/>
        <path id="Trazado_101721" data-name="Trazado 101721" d="M-636.733,4659.735v0l-4.11-8.5-3.753,8.358c-.042.088-.084.177-.121.269l-.052.115.013.01a4.263,4.263,0,0,0-.267,1.448,4.316,4.316,0,0,0,4.317,4.316,4.316,4.316,0,0,0,4.319-4.316A4.305,4.305,0,0,0-636.733,4659.735Z" transform="translate(742.393 -4604.246)" fill="url(#linear-gradient-2)"/>
        <path id="Trazado_101722" data-name="Trazado 101722" d="M-630.7,4656.685l-36.525-6.179-3.285-4.614-4.373-.295-4.543,24.383,5.349.7,2.629-2.894,38.869,7.038s9.542,2.583,11.733-7.038S-630.7,4656.685-630.7,4656.685Zm6.785,10.48-27.745-.645-20.473-2.641-1.876,2.287h-1.115l2.991-16.13h.7l1.055,3.755,36.778,6.275C-621.862,4661.124-623.915,4667.166-623.915,4667.166Z" transform="translate(710.786 -4609.424)" fill="url(#linear-gradient-3)"/>
        <path id="Trazado_101723" data-name="Trazado 101723" d="M-658.818,4637.833l36.523-6.181,3.285-4.614,4.373-.293,4.544,24.383-5.349.7-2.629-2.893-38.869,7.037s-9.542,2.582-11.731-7.037S-658.818,4637.833-658.818,4637.833Zm-3.375,4.846,26.766.864,18.04,1.484,1.876,2.287h1.115l-2.991-16.13h-.7l-1.055,3.753-36.778,6.276C-661.7,4642.017-662.193,4642.678-662.193,4642.678Z" transform="translate(720.42 -4626.745)" fill="url(#linear-gradient-7)"/>
        <path id="Trazado_101724" data-name="Trazado 101724" d="M-570.991,4690.476l-6.276.292-4.2-4.076a3.421,3.421,0,0,0-.9-1.476l-25.39-24.371a3.481,3.481,0,0,0-4.922.1l-1.47,1.531a3.481,3.481,0,0,0,.1,4.921l13.583,13.038-1.322-.284-14.312,1.937-.313.108a4.712,4.712,0,0,1,.177,1.26,4.928,4.928,0,0,1-5.006,4.848,5,5,0,0,1-4.689-3.161,3.909,3.909,0,0,1-3.327,1.756,3.692,3.692,0,0,1-3.786-3.013h-19.571a3.48,3.48,0,0,0-3.479,3.48v.178a3.479,3.479,0,0,0,3.479,3.48h27.188v1.818h-30.041a3.479,3.479,0,0,0-3.481,3.479v.178a3.48,3.48,0,0,0,3.481,3.48h30.041v.937h-27.021a3.481,3.481,0,0,0-3.48,3.48v1.115a3.48,3.48,0,0,0,3.48,3.48h27.021v.929h-19.365a3.48,3.48,0,0,0-3.481,3.48v.205a3.481,3.481,0,0,0,3.481,3.48h59.017l20.473-19.045Z" transform="translate(729.6 -4596.308)" fill="url(#linear-gradient-3)"/>
      </g>
    </g>
    <path id="Trazado_101725" data-name="Trazado 101725" d="M-638.984,4669.905v0l-4.11-8.5-3.753,8.357c-.042.089-.084.177-.121.269l-.052.115.013.01a4.268,4.268,0,0,0-.267,1.449,4.318,4.318,0,0,0,4.319,4.317,4.318,4.318,0,0,0,4.319-4.317A4.3,4.3,0,0,0-638.984,4669.905Z" transform="translate(71.434 61.892)" fill="url(#linear-gradient-9)"/>
  </g>
</svg>
