<svg xmlns="http://www.w3.org/2000/svg" xmlns:xlink="http://www.w3.org/1999/xlink" width="361.771" height="361.771" viewBox="0 0 361.771 361.771">
  <defs>
    <linearGradient id="linear-gradient" x1="0.5" y1="1.042" x2="0.5" y2="-0.026" gradientUnits="objectBoundingBox">
      <stop offset="0" stop-color="#e6e6e6"/>
      <stop offset="0.42" stop-color="#fff"/>
    </linearGradient>
    <linearGradient id="linear-gradient-2" x1="0.5" y1="0.937" x2="0.5" y2="-0.506" gradientUnits="objectBoundingBox">
      <stop offset="0" stop-color="#231f20"/>
      <stop offset="0.903" stop-color="#505052"/>
    </linearGradient>
    <linearGradient id="linear-gradient-3" y1="0.877" y2="0.05" xlink:href="#linear-gradient-2"/>
    <linearGradient id="linear-gradient-5" y1="0.119" y2="1.472" xlink:href="#linear-gradient-2"/>
    <linearGradient id="linear-gradient-6" y1="-1.601" y2="1.31" xlink:href="#linear-gradient-2"/>
    <linearGradient id="linear-gradient-7" y1="-1.631" y2="1.297" xlink:href="#linear-gradient-2"/>
    <linearGradient id="linear-gradient-8" y1="-2.189" y2="0.497" xlink:href="#linear-gradient-2"/>
    <linearGradient id="linear-gradient-9" y1="-2.18" y2="0.5" xlink:href="#linear-gradient-2"/>
    <linearGradient id="linear-gradient-10" y1="-18.273" y2="9.284" xlink:href="#linear-gradient-2"/>
    <linearGradient id="linear-gradient-11" y1="-18.837" y2="5.935" xlink:href="#linear-gradient-2"/>
    <linearGradient id="linear-gradient-12" y1="-12.719" y2="9.602" xlink:href="#linear-gradient-2"/>
    <linearGradient id="linear-gradient-13" y1="-25.232" y2="11.087" xlink:href="#linear-gradient-2"/>
    <linearGradient id="linear-gradient-14" y1="-20.919" y2="2.867" xlink:href="#linear-gradient-2"/>
    <linearGradient id="linear-gradient-15" y1="-24.073" y2="13.413" xlink:href="#linear-gradient-2"/>
    <linearGradient id="linear-gradient-16" y1="-31.117" y2="8.73" xlink:href="#linear-gradient-2"/>
    <linearGradient id="linear-gradient-17" y1="-36.204" y2="9.966" xlink:href="#linear-gradient-2"/>
    <linearGradient id="linear-gradient-18" y1="-32.172" y2="18.94" xlink:href="#linear-gradient-2"/>
    <linearGradient id="linear-gradient-20" x1="0.5" y1="0.003" x2="0.5" y2="1.216" gradientUnits="objectBoundingBox">
      <stop offset="0.053" stop-color="#231f20"/>
      <stop offset="0.987" stop-color="#505052"/>
    </linearGradient>
    <linearGradient id="linear-gradient-21" x1="0.5" y1="-0.598" x2="0.5" y2="1.636" xlink:href="#linear-gradient-20"/>
    <linearGradient id="linear-gradient-22" x1="0.5" y1="-0.599" x2="0.5" y2="1.636" xlink:href="#linear-gradient-20"/>
    <linearGradient id="linear-gradient-23" x1="0.5" y1="-1.524" x2="0.5" y2="0.901" xlink:href="#linear-gradient-20"/>
    <linearGradient id="linear-gradient-24" x1="0.5" y1="-1.558" x2="0.5" y2="0.901" xlink:href="#linear-gradient-20"/>
    <linearGradient id="linear-gradient-26" y1="0.877" y2="0.05" xlink:href="#linear-gradient-2"/>
    <linearGradient id="linear-gradient-27" y1="0.876" y2="0.05" xlink:href="#linear-gradient-2"/>
    <linearGradient id="linear-gradient-28" y1="0.877" y2="0.05" xlink:href="#linear-gradient-2"/>
    <linearGradient id="linear-gradient-31" x1="86.911" y1="0.877" x2="86.911" y2="0.05" xlink:href="#linear-gradient-2"/>
    <linearGradient id="linear-gradient-33" y1="0.877" y2="0.05" xlink:href="#linear-gradient-2"/>
  </defs>
  <g id="Grupo_55802" data-name="Grupo 55802" transform="translate(189.109 -1474.451)">
    <g id="Grupo_55786" data-name="Grupo 55786" transform="translate(-7.775 1655.785)">
      <g id="Grupo_55784" data-name="Grupo 55784" transform="translate(0 0)">
        <rect id="Rectángulo_5247" data-name="Rectángulo 5247" width="127.588" height="127.588" rx="7.849" transform="translate(0 90.219) rotate(-45)" fill="#d61b22"/>
        <rect id="Rectángulo_5248" data-name="Rectángulo 5248" width="108.637" height="108.637" rx="10.497" transform="translate(13.401 90.219) rotate(-45)" fill="url(#linear-gradient)"/>
      </g>
      <g id="Grupo_55785" data-name="Grupo 55785" transform="translate(75.216 39.324)">
        <circle id="Elipse_4007" data-name="Elipse 4007" cx="11.333" cy="11.333" r="11.333" transform="translate(3.679 72.882)" fill="url(#linear-gradient-2)"/>
        <path id="Trazado_100688" data-name="Trazado 100688" d="M45.584,1668.289h0A15,15,0,1,0,15.8,1665.7c0,2.247,10.423,47.514,10.423,47.514h.144a4.856,4.856,0,0,0,9.435,0h.005l.025-.116c.006-.031.014-.063.02-.094Z" transform="translate(-15.803 -1650.695)" fill="url(#linear-gradient-3)"/>
      </g>
    </g>
    <g id="Grupo_55791" data-name="Grupo 55791" transform="translate(-10 1474.451)">
      <g id="Grupo_55789" data-name="Grupo 55789" transform="translate(0 0)">
        <g id="Grupo_55788" data-name="Grupo 55788">
          <g id="Grupo_55787" data-name="Grupo 55787">
            <rect id="Rectángulo_5249" data-name="Rectángulo 5249" width="127.588" height="127.588" rx="7.849" transform="translate(0 90.219) rotate(-45)" fill="#d61b22"/>
            <rect id="Rectángulo_5250" data-name="Rectángulo 5250" width="108.637" height="108.637" rx="10.497" transform="translate(13.401 90.218) rotate(-45)" fill="url(#linear-gradient)"/>
          </g>
        </g>
      </g>
      <g id="Grupo_55790" data-name="Grupo 55790" transform="translate(45.711 29.791)">
        <path id="Trazado_100689" data-name="Trazado 100689" d="M6.559,1559.649a6.921,6.921,0,0,1-.954.329c-.5.094-2.231-1.529-2.108-2.018a1.058,1.058,0,0,1,.623-.557c3.657-1.366,7.322-2.708,10.986-4.056.865-.318,1.725-.657,2.6-.944a.841.841,0,0,0,.665-.836c.151-1.947.344-3.891.492-5.839a1.271,1.271,0,0,0-.2-.869c-3.059-3.328-4.778-7.376-6.184-11.572a39.531,39.531,0,0,1-2.494-14.016c.24-6.668,2.6-12.441,7.94-16.58,5.659-4.386,12.052-5.93,18.78-2.781a21.034,21.034,0,0,1,12.437,16.736c.871,5.7-.123,11.169-1.772,16.615a33.164,33.164,0,0,1-6.031,12,1.308,1.308,0,0,0-.28.78c.01,1.848.078,3.7.078,5.544,0,.51.218.667.651.8q7.957,2.376,15.928,4.786c.154.568.089.969-.6,1.084a.884.884,0,0,0-.52.395c-.342.562-.646,1.149-.948,1.734a1.583,1.583,0,0,1-2.48.72c-.2-.116-.393-.242-.664-.409-.249.816-.711,1.347-1.385,1.345a15.066,15.066,0,0,1-.729,2.149,1.03,1.03,0,0,1-1.484.473,1.053,1.053,0,0,0-.649.041c-.513.141-1.009.361-1.529.456a.691.691,0,0,1-.581-.34c-.131-.581-.419-.59-.853-.356a1.9,1.9,0,0,1-2.2-.238,2.78,2.78,0,0,0-1.044-.233c-.073.463-.336,1.012-.175,1.371.293.656.507,1.166-.223,1.621-.591.369-1.152.208-1.73-.456l-1.263.444.135.091c-.334.361-.606.889-1.018,1.044a1.956,1.956,0,0,1-2.215-.344,1.1,1.1,0,0,1-.3-1.422.725.725,0,0,0-.164-1.042,2.156,2.156,0,0,1-.625-2.173,11.82,11.82,0,0,0,.329-1.464,2.954,2.954,0,0,0-.285-1.03c-.03-.09-.205-.183-.189-.229.305-.854-.4-.993-.87-1.356-.2-.153-.215-.609-.2-.923,0-.083.423-.144.649-.224a3.065,3.065,0,0,0,1.082-.453c.111-.108-.194-.611-.255-.944-.048-.26-.121-.62.008-.79.556-.731.169-1.256-.336-1.718-.382-.349-.585-.624-.252-1.133.084-.13-.073-.541-.238-.688-1.216-1.089-1.273-1.5-.357-2.86.284-.423.5-.752-.126-1.238a2.311,2.311,0,0,1-.5-1.68c.016-.654.046-1.078-.67-1.439-.737-.373-.809-1.223-.829-2.02a4.548,4.548,0,0,0-.252-1.009,5.491,5.491,0,0,0-.27-.944,7.808,7.808,0,0,0-.6-.927,3.2,3.2,0,0,0-.659.661c-.3.564-.593,1.175.172,1.655.076.047.167.2.141.259-.308.7.277,1.67-.669,2.207-.135.076-.178.516-.1.732a2.9,2.9,0,0,1-.79,3.536,2.3,2.3,0,0,0-.265,1.462c.014.58.173,1.137-.292,1.646-.09.1.015.542.16.65.19.141.634.239.756.126.681-.632.962-.184,1.206.385.333.777.182,1.1-.591,1.356a1.2,1.2,0,0,0-.19.135c.12.313.253.642.376.975a2.162,2.162,0,0,1-.905,2.677c-.212.1-.346.422-.456.668s-.1.523-.2.761c-.439,1.007-.448,1,.129,1.873-.667.824-.651.819-.29,2.051a1.66,1.66,0,0,1-.065.818,9.557,9.557,0,0,1-.378,1.108c-.074.189-.16.488-.293.521-.72.173-.924.77-1.263,1.3-.189.3-.618.437-.939.647-.163-.352-.347-.7-.481-1.06a2.09,2.09,0,0,1-.009-.6,1.482,1.482,0,0,1-1.606-.739c-.172-.247-.878-.254-1.293-.16-.488.111-.875.257-1.291-.173s-.627.014-.855.289a2.28,2.28,0,0,1-3.667-.049,5.267,5.267,0,0,1-.432-1.153c-1.991.048-1.835-.1-2.349-1.31a1.516,1.516,0,0,0-.288.02c-1.439.362-1.982.158-2.694-1.074a1.171,1.171,0,0,0-1.116-.632c-.706-.073-1.356-.811-2-1.306C6.666,1560.2,6.651,1559.9,6.559,1559.649Z" transform="translate(12.824 -1498.246)" fill="url(#linear-gradient-5)"/>
        <path id="Trazado_100690" data-name="Trazado 100690" d="M52.267,1576.835c-2.057.5-3.562.025-3.786-2.564a1.7,1.7,0,0,1-2.42.294,2.079,2.079,0,0,1-.755-.986c-.175-.412-.3-.532-.741-.315a2.09,2.09,0,0,1-3.1-.845c-.334-.538-.635-.4-.918-.061-.541.641-.99.284-1.4-.1a.843.843,0,0,1,.215-1.356c.774-.359.482-1.025.61-1.561.028-.12-.265-.315-.411-.477-.442.8-1.164-1.136-1.606.168a.915.915,0,0,1-.785.423,2.267,2.267,0,0,1-1.308-.662c-.2-.277-.005-.866.093-1.3.038-.17.316-.273.436-.439a1.145,1.145,0,0,0-.025-1.468c-.362-.452-.843-.3-1.193.015-.532.475-1.054.787-1.623.143-.487-.551-.3-1.236.362-1.768a13.779,13.779,0,0,1-.3-1.694c-.049-.9.478-1.345,1.382-1.276.352.027.706.005,1.1.005-.558-1.376-.1-2.095,1.311-2.3a.8.8,0,0,0,.533-.5c.442-1.982,1.685-2.748,3.645-2.533.7.077,1.416-.65,2.235-.715.074-.006.164-.366.173-.565a3,3,0,0,1,2.95-3.076,1.248,1.248,0,0,0,1.387-1.155,2.108,2.108,0,0,1,3.16-1.214.63.63,0,0,0,.55.087.658.658,0,0,0,.207-.513c-.015-.81.319-1.161,1.073-.943.573.167.926.065,1.1-.5a.715.715,0,0,1,.994-.51c2.573.78,5.19,1.45,7.692,2.413,2.535.975,4.078,3.1,5.272,5.456a2.553,2.553,0,0,1,.214,1.07c.049,3.064.089,6.128.091,9.191a1.556,1.556,0,0,1-.407,1.019q-6.727,6.49-13.5,12.934a1.494,1.494,0,0,1-2.421-.484A4.8,4.8,0,0,1,52.267,1576.835Z" transform="translate(20.33 -1486.08)" fill="url(#linear-gradient-6)"/>
        <path id="Trazado_100691" data-name="Trazado 100691" d="M4.268,1548.291a2.5,2.5,0,0,0,.881-.174c.48-.333.779-.307,1.06.233.257.491.689.522,1.224.444a2.283,2.283,0,0,1,1.085.322c.154.066.24.275.379.394.788.671.79.669.794,1.6a7.855,7.855,0,0,1,.994.136c.675.177,1.151.5.983,1.345a.955.955,0,0,0,.308.7,11.358,11.358,0,0,0,1.112.875c1.623-1.034,3.007-.476,3.589,1.457.177.583.17,1.416,1.214,1.1.079-.024.321.278.388.463a10.12,10.12,0,0,1,.279,1.117c2.579-.659,3.28-.184,3.728,2.43.018.1.03.294.058.3,1.121.1.607,1.73,1.8,1.859.526.058.531.8.068,1.2-.888.761-.906.984-.158,1.928.56.706.6,1.2.135,1.6-.485.418-1.074.246-1.651-.414a.866.866,0,0,0-.664-.246.7.7,0,0,0-.458.447c-.151.679-.233,1.373-.358,2.174a1.189,1.189,0,0,1,.607,1.685,1.468,1.468,0,0,1-1.862.755,1.16,1.16,0,0,1-.585-1.652c.182-.447.043-.631-.327-.79-.284-.122-.565-.252-.73-.327l-1.3,1.359c.1.519.836,1.248.006,1.957-.731.624-1.466.368-2.322-.243a6.283,6.283,0,0,0-.593,1.848,1.69,1.69,0,0,1-.939,1.823c-.813.367-1.665.695-2.444-.481a11.688,11.688,0,0,0-.577,1.3,1.962,1.962,0,0,1-2.957,1.335c-.1.136-.2.278-.3.427a1.618,1.618,0,0,1-2.619.344q-6.6-6.676-13.16-13.386a1.339,1.339,0,0,1-.322-.835c-.075-2.692-.114-5.386-.174-8.078a5.9,5.9,0,0,1,2.426-5,15.019,15.019,0,0,1,3.33-1.952c2.214-.923,4.493-1.684,6.752-2.5C3.843,1546.845,4.356,1547.238,4.268,1548.291Z" transform="translate(9.54 -1485.946)" fill="url(#linear-gradient-7)"/>
        <path id="Trazado_100692" data-name="Trazado 100692" d="M29.624,1575.039c-1.554-.934-1.315-2.2-.679-3.522-1.34-.138-1.562-.462-1.258-1.641a.825.825,0,0,1,.886-.707c1.162-.046,1.141-.069,1.208-1.159.046-.739.6-1.088,1.211-1.317a1.473,1.473,0,0,1,1.708.5c.906,1.012.86.97,1.833.04a2.233,2.233,0,0,1,1.4-.433c.468-.01.929.21.85.89-.011.1.374.363.575.361,2.156-.023,2.434.2,2.741,2.448a4.369,4.369,0,0,1,.9.015,2.577,2.577,0,0,1,.7.362c.141.083.285.277.4.258a.509.509,0,0,0,.3-.367,1.293,1.293,0,0,1,2.509-.133c.155.457.369.526.825.422a1.975,1.975,0,0,1,2.662,1.572c.207.657.462.968,1.238.719,1.03-.331,1.147-.183,1.775.757a1.218,1.218,0,0,0,.972.5,1.275,1.275,0,0,1,1.454.685c.348.568.061,1.028-.386,1.452q-8.41,7.987-16.8,15.992-4.586,4.366-9.175,8.731c-.285.273-.571.664-.98.228-.346-.367-.163-.677.17-1.006.517-.51.472-1.194-.068-2.041.491-.391.467-.816.106-1.327-.135-.193-.173-.677-.045-.791.5-.441.346-.845.13-1.336a2,2,0,0,1,.878-2.587c-1.451-2.087-1.186-3.93.885-5.256-1.157-1.147-2.212-2.334-1.017-4.051-1.981-.807-2.234-1.792-.762-2.937-.06-.153-.125-.317-.189-.483a1.232,1.232,0,0,1,.546-1.749,1.538,1.538,0,0,1,2.033.468c.133.242.02.621.011.938-.006.238-.113.53-.01.7a.632.632,0,0,0,.608.158c.157-.105.209-.411.244-.638a2.751,2.751,0,0,0-.526-2.025A2.024,2.024,0,0,1,29.624,1575.039Z" transform="translate(18.455 -1481.023)" fill="url(#linear-gradient-8)"/>
        <path id="Trazado_100693" data-name="Trazado 100693" d="M28.172,1581.913c.336,0,.6-.02.853,0,.94.088,1.271.8.793,1.613-.118.2-.188.626-.075.733a1.505,1.505,0,0,1,.11,2.292c1.678,1.824,1.67,1.819.412,4.183a.992.992,0,0,0,0,.795c1.085,2.137.92,3.253-.78,4.924a2.109,2.109,0,0,0-.187.245c1.168.92,1.211,1.126.457,2.126.7.968.7,1.027-.13,1.852.235.344.839.745-.059,1.163-1.256-1.218-2.542-2.458-3.82-3.707Q15.181,1587.817,4.622,1577.5c-.818-.8-1-1.471-.557-2.127a2.22,2.22,0,0,1,2.633-.751.955.955,0,0,0,.213.03,1.925,1.925,0,0,0,.262-.325,2.713,2.713,0,0,1,4.039-1.1c.439.293.667.225.785-.277.041-.179.1-.357.124-.538.173-1.237.984-1.818,2.146-1.4.669.236.972.1,1.306-.511a1.474,1.474,0,0,1,2.39-.413c.392.319.642.472.962-.119.476-.883,1.123-1.007,2.645-.617-.118-.279-.224-.5-.305-.732a1.583,1.583,0,0,1,.61-1.88,1.178,1.178,0,0,1,1.689.23.95.95,0,0,0,.864.106,1.432,1.432,0,0,1,2.093.5c.119.142.476.14.715.121.331-.026.675-.233.977-.174a1.271,1.271,0,0,1,.774.558c.08.139-.126.538-.307.717-.471.466-.582.818-.054,1.377a1.213,1.213,0,0,1-.138,1.723c-.4.446-.486.7.108,1.089a1.707,1.707,0,0,1,.333,2.823c-.458.51-.8.83.088,1.341.958.553.785,1.568-.255,2.006a.853.853,0,0,0-.6,1.036A13.8,13.8,0,0,1,28.172,1581.913Z" transform="translate(12.909 -1481.053)" fill="url(#linear-gradient-9)"/>
        <path id="Trazado_100694" data-name="Trazado 100694" d="M29.937,1557.269a4.055,4.055,0,0,1-1.06-.578.879.879,0,0,1,.1-1.337.989.989,0,0,1,1.421.083,1.241,1.241,0,0,0,.712.352,1.411,1.411,0,0,1,1.547,1.159,1.365,1.365,0,0,1-2.678.525A.946.946,0,0,1,29.937,1557.269Z" transform="translate(19.155 -1483.922)" fill="url(#linear-gradient-10)"/>
        <path id="Trazado_100695" data-name="Trazado 100695" d="M31.746,1564.327c-.049-1.2.309-1.776,1.137-1.862a1.286,1.286,0,0,1,1.442,1.059c.149.84-.288,1.348-1.429,1.64-.1.591-.309,1.189-1.044,1.113a1.252,1.252,0,0,1-.863-.644C30.7,1564.958,31.2,1564.584,31.746,1564.327Z" transform="translate(19.733 -1482.065)" fill="url(#linear-gradient-11)"/>
        <path id="Trazado_100696" data-name="Trazado 100696" d="M25.033,1550.229c-.641-.854-.64-1.526,0-1.986a1.229,1.229,0,0,1,1.636.219c.471.6.284,1.3-.53,1.947.374.576.553,1.178-.111,1.659a.927.927,0,0,1-1.291-.124C24.3,1551.488,24.394,1550.943,25.033,1550.229Z" transform="translate(18.11 -1485.702)" fill="url(#linear-gradient-12)"/>
        <path id="Trazado_100697" data-name="Trazado 100697" d="M18.464,1559.025c-.546.147-1.109.12-1.273-.508-.079-.3.116-.942.3-.99a2.728,2.728,0,0,1,1.431.18c.9-.313,1.615-.174,1.976.506a1.248,1.248,0,0,1-.566,1.735C19.608,1560.31,18.981,1560.006,18.464,1559.025Z" transform="translate(16.272 -1483.318)" fill="url(#linear-gradient-13)"/>
        <path id="Trazado_100698" data-name="Trazado 100698" d="M25.531,1573.184c-.4-.442-.742-.974-.184-1.48a1.2,1.2,0,0,1,1.048-.179c.68.289.571.9.318,1.451.869.624,1.08,1.281.644,1.933a1.239,1.239,0,0,1-1.673.366C25.017,1574.859,24.953,1574.1,25.531,1573.184Z" transform="translate(18.258 -1479.793)" fill="url(#linear-gradient-14)"/>
        <path id="Trazado_100699" data-name="Trazado 100699" d="M17.4,1553.506a1.279,1.279,0,0,1,1.281,1.232,1.266,1.266,0,1,1-1.281-1.232Z" transform="translate(16.015 -1484.321)" fill="url(#linear-gradient-15)"/>
        <path id="Trazado_100700" data-name="Trazado 100700" d="M23.984,1566.389a1.19,1.19,0,0,1,.039-2.379,1.228,1.228,0,0,1,1.2,1.214A1.2,1.2,0,0,1,23.984,1566.389Z" transform="translate(17.701 -1481.673)" fill="url(#linear-gradient-16)"/>
        <path id="Trazado_100701" data-name="Trazado 100701" d="M18.892,1565.272a1.02,1.02,0,0,1-1.005,1.034,1.059,1.059,0,0,1-1.072-1.044,1.034,1.034,0,0,1,1.1-1.005A.987.987,0,0,1,18.892,1565.272Z" transform="translate(16.182 -1481.612)" fill="url(#linear-gradient-17)"/>
        <path id="Trazado_100702" data-name="Trazado 100702" d="M24.281,1554.4a.9.9,0,0,1-.916-.962.917.917,0,0,1,1.833-.027A.912.912,0,0,1,24.281,1554.4Z" transform="translate(17.833 -1484.564)" fill="url(#linear-gradient-18)"/>
      </g>
    </g>
    <g id="Grupo_55796" data-name="Grupo 55796" transform="translate(-189.109 1653.56)">
      <g id="Grupo_55793" data-name="Grupo 55793" transform="translate(0 0)">
        <g id="Grupo_55792" data-name="Grupo 55792">
          <rect id="Rectángulo_5251" data-name="Rectángulo 5251" width="127.588" height="127.588" rx="7.849" transform="translate(0 90.219) rotate(-45)" fill="#d61b22"/>
          <rect id="Rectángulo_5252" data-name="Rectángulo 5252" width="108.637" height="108.637" rx="10.497" transform="translate(13.401 90.218) rotate(-45)" fill="url(#linear-gradient)"/>
        </g>
      </g>
      <g id="Grupo_55795" data-name="Grupo 55795" transform="translate(47.042 42.151)">
        <path id="Trazado_100703" data-name="Trazado 100703" d="M-93.785,1723.563a13.662,13.662,0,0,1-5.4,4.157,20.021,20.021,0,0,1-6.432,1.426,26.291,26.291,0,0,1-10.018-1.2,12.124,12.124,0,0,1-5.263-3.76.835.835,0,0,0-1.257-.234c-2.89,1.569-5.788,3.124-8.718,4.617a5.873,5.873,0,0,0-2.341,2.151,42.627,42.627,0,0,1-2.763,3.852,3.291,3.291,0,0,1-3.718,1.006,3.112,3.112,0,0,1-1.845-2.494c-.19-1.111-.223-2.247-.411-3.359a2.39,2.39,0,0,0-.6-1.169c-.793-.838-1.68-1.585-2.48-2.417a3.282,3.282,0,0,1-.282-4.345,3.855,3.855,0,0,1,2.653-1.252,7.261,7.261,0,0,1,3.76.287,4.162,4.162,0,0,0,3.1-.2c3.708-1.748,7.4-3.543,11.09-5.322.6-.288.352-.843.337-1.279a.947.947,0,0,0-.429-.7q-7.933-3.848-15.887-7.646a5.553,5.553,0,0,0-3.526-.105,9.282,9.282,0,0,1-5.233-.383c-2.1-.855-2.687-2.572-1.429-4.456a8.96,8.96,0,0,1,2.017-2.23,3.6,3.6,0,0,0,1.411-3.03,9.969,9.969,0,0,1,.462-2.528c.717-2.191,2.485-2.91,4.555-1.918a6.556,6.556,0,0,1,3.055,3.146,10.709,10.709,0,0,0,.893,1.723,5.083,5.083,0,0,0,1.519,1.485c2.628,1.395,5.306,2.693,7.966,4.024a1.766,1.766,0,0,0,.333.061,8.688,8.688,0,0,1-2.27-4.779,15.509,15.509,0,0,1,.235-6.357,1.034,1.034,0,0,0-.177-.808A22.63,22.63,0,0,1-136,1679.2a21.332,21.332,0,0,1-.646-6.854c.841-8.432,4.989-14.584,12.8-18.074a37.417,37.417,0,0,1,11.829-2.836,43.2,43.2,0,0,1,9.643.028,42.039,42.039,0,0,1,12.03,3.23,19.97,19.97,0,0,1,8.71,8.157,22,22,0,0,1,3.156,12.313,19.571,19.571,0,0,1-5.361,13.389,1.778,1.778,0,0,0-.466,1.9,13.414,13.414,0,0,1-.359,8.211,21.029,21.029,0,0,1-1.414,2.625l.783-.385c2.112-1.035,4.208-2.1,6.341-3.092a4.888,4.888,0,0,0,2.517-2.642,8.094,8.094,0,0,1,2-3.208,5.062,5.062,0,0,1,3.208-1.6,2.665,2.665,0,0,1,2.688,1.883c.383,1.452.6,2.947.916,4.417a2.143,2.143,0,0,0,.441.921c.9,1.028,1.892,1.984,2.761,3.04a2.69,2.69,0,0,1-.5,4.018,6.137,6.137,0,0,1-2.277.975,8.544,8.544,0,0,1-4.4-.129,3.893,3.893,0,0,0-2.933.264q-7.942,3.738-15.873,7.5a.886.886,0,0,0-.413.626c-.1,1.3-.083,1.312,1.1,1.858q5.288,2.451,10.582,4.888a3.466,3.466,0,0,0,2.6.167,7.425,7.425,0,0,1,5.535.29,3.116,3.116,0,0,1,2.023,2.258,2.692,2.692,0,0,1-.715,2.389,31.536,31.536,0,0,1-2.653,2.535,2.221,2.221,0,0,0-.754,1.545,24.064,24.064,0,0,1-.8,4.138,2.634,2.634,0,0,1-3.814,1.525,7.125,7.125,0,0,1-3.581-3.7,6.458,6.458,0,0,0-3.281-3.459C-87.65,1726.8-90.675,1725.174-93.785,1723.563Zm9.088-54.284a9.645,9.645,0,0,1,1.022,2.1,12.383,12.383,0,0,1-.472,6.741,14.9,14.9,0,0,0-1.077,6.4c.055.7.145,1.392.242,2.291a17.6,17.6,0,0,0,2.776-4.238,19.664,19.664,0,0,0,1.012-13.444,18.943,18.943,0,0,0-9.051-12.061,27.272,27.272,0,0,0-6.028-2.266,35.369,35.369,0,0,0-9.842-1.56,51.439,51.439,0,0,0-8.4.565,32.11,32.11,0,0,0-8.887,2.5,18.647,18.647,0,0,0-11.205,16.519,21.722,21.722,0,0,0,2.465,11.189c.538,1.082,1.218,2.094,1.833,3.136l.212-.089a13.258,13.258,0,0,0-.108-6.746,20.352,20.352,0,0,1-1.376-7.08,4.593,4.593,0,0,1,1.411-3.689l1.147,1.336a10.042,10.042,0,0,0-.493,1.979,11.381,11.381,0,0,0,.636,4.886c1.581,3.671,1.266,7.406.565,11.177-.386,2.07-1.033,4.118-.777,6.256.458,3.844,1.38,5.051,4.406,6.111a29.846,29.846,0,0,1,3.253,1.139c2.809,1.367,4.875,3.329,4.912,6.753a.777.777,0,0,0,.507.533,29.4,29.4,0,0,0,4.244.687c2.59.109,5.195.12,7.784,0a38.4,38.4,0,0,0,4.9-.745c.223-.039.558-.348.566-.544a6.716,6.716,0,0,1,3.746-5.992c1.621-.858,3.363-1.487,5.054-2.21a4.89,4.89,0,0,0,2.767-2.062,9.891,9.891,0,0,0,1.02-5.944c-.337-2.491-.939-4.952-1.181-7.449a20.586,20.586,0,0,1,.2-5.143c.26-1.665,1.028-3.25,1.291-4.916.232-1.474.5-3.056-.482-4.477Zm-39.183,34.531a31.02,31.02,0,0,1,1.126,3.286,14.664,14.664,0,0,1,.647,4.436,18.21,18.21,0,0,0,.172,6.289,11.171,11.171,0,0,0,7.273,8.288,22.482,22.482,0,0,0,9.244.972,14.455,14.455,0,0,0,6.6-1.827c4.939-3,6.355-7.353,5.866-12.227a13.979,13.979,0,0,1,.437-5.663c.379-1.223.82-2.428,1.233-3.64l-.184-.171c-.368.343-.9.618-1.078,1.042a30.688,30.688,0,0,0-2.622,9.514,4.583,4.583,0,0,1-2.316,3.652c-.162.105-.327.2-.493.3a16.047,16.047,0,0,1-8.1,2.175,43.46,43.46,0,0,1-6.588-.483,11.514,11.514,0,0,1-6.519-3.273,2.6,2.6,0,0,1-.8-1.7,35.734,35.734,0,0,0-2.806-10.36A.932.932,0,0,0-123.879,1703.81Zm32.716,7.465c.333-.136.553-.217.764-.317q7.486-3.523,14.969-7.05a5.77,5.77,0,0,1,4.2-.422,8.051,8.051,0,0,0,4.177,0c1.3-.3,1.561-1.075.691-2.046-.818-.911-1.664-1.8-2.559-2.637a2.379,2.379,0,0,1-.761-1.685,28.725,28.725,0,0,0-.695-3.944c-.2-.842-.765-1.036-1.475-.579a5.309,5.309,0,0,0-2.344,2.548,13.263,13.263,0,0,1-.836,1.751,6.047,6.047,0,0,1-2.759,2.639c-3.872,1.853-7.719,3.76-11.572,5.653a.731.731,0,0,0-.354.324A17.641,17.641,0,0,0-91.163,1711.274Zm-32.944.094a4.943,4.943,0,0,0-.01-1.015c-.317-1.324-.684-2.636-1-3.961a2.184,2.184,0,0,0-1.371-1.517c-3.526-1.688-7.009-3.466-10.544-5.132a7.487,7.487,0,0,1-3.865-3.981c-.131-.308-.3-.6-.447-.9a4.349,4.349,0,0,0-2.15-2.045c-.729-.331-1.079-.273-1.38.481a6.973,6.973,0,0,0-.55,2.344c-.039,1.73-.336,3.228-1.938,4.278a7.77,7.77,0,0,0-1.793,1.948c-.55.743-.4,1.118.48,1.454a7.458,7.458,0,0,0,4.1.265,7.369,7.369,0,0,1,4.656.215q5.262,2.5,10.521,5.013C-127.673,1709.634-125.958,1710.473-124.107,1711.368Zm31.62,10.533a2.127,2.127,0,0,0,.23.144c2.83,1.469,5.624,3.015,8.5,4.377A8.232,8.232,0,0,1-79.5,1730.8a5.772,5.772,0,0,0,1.81,2.276c1.287,1.029,1.86.838,2.254-.779a2,2,0,0,0,.026-.214c.116-1.071.265-2.138.338-3.211a2.344,2.344,0,0,1,.88-1.718c.979-.847,1.942-1.72,2.846-2.647.595-.61.487-1.008-.25-1.408a4.82,4.82,0,0,0-3.876-.466,6.861,6.861,0,0,1-5.231-.432c-3.241-1.555-6.519-3.036-9.784-4.543a4.047,4.047,0,0,0-.451-.163Zm-31.767-4.517c-.143.073-.288.15-.437.22-3.5,1.665-7,3.35-10.519,4.98a5.726,5.726,0,0,1-4.155.213,6.22,6.22,0,0,0-3.661-.085,1.1,1.1,0,0,0-.642,1.84,6.26,6.26,0,0,0,.691.732c.761.734,1.56,1.431,2.284,2.2a2.422,2.422,0,0,1,.6,1.163c.234,1.321.369,2.659.562,3.988.168,1.156.9,1.45,1.818.739a2.879,2.879,0,0,0,.611-.6c.89-1.277,1.732-2.588,2.649-3.844a5.088,5.088,0,0,1,1.475-1.524c3.3-1.812,6.642-3.538,9.968-5.3a2.285,2.285,0,0,0,.289-.192Zm6.4-1.182c0-2.092,0-4.083-.01-6.072a.5.5,0,0,0-.214-.4c-.527-.166-.49-.565-.5-.984a4.862,4.862,0,0,0-3.015-3.962c.051.153.089.284.138.412a35.011,35.011,0,0,1,2.33,8.8C-119.032,1714.84-118.979,1715.74-117.857,1716.2Zm24.067-11.3a4.852,4.852,0,0,0-2.682,4.065.731.731,0,0,1-.349.538c-.449.193-.493.517-.485.933.034,1.73.048,3.46.074,5.192,0,.176.03.349.046.525l.223.075a6.669,6.669,0,0,0,.641-1.345c.508-2.239.92-4.5,1.447-6.733C-94.624,1707.1-94.191,1706.086-93.79,1704.906Zm-15.94,6.439v3.813c.414,0,.771-.026,1.123.006.517.048.754-.114.709-.676s-.01-1.1-.01-1.655c0-1.711,0-1.711-1.724-1.547C-109.653,1711.286-109.672,1711.307-109.731,1711.344Zm4.332,3.59V1711.3h-1.774v2.352c0,1.6,0,1.605,1.6,1.367A.763.763,0,0,0-105.4,1714.934Zm.064.845c-.516,0-.875.021-1.231,0-.475-.034-.641.159-.615.628.034.574.008,1.151.008,1.727,0,1.308.119,1.416,1.437,1.171.152-.029.378-.244.383-.379C-105.321,1717.9-105.335,1716.868-105.335,1715.779Zm3.01-1.1c.621-.159,1.084-.259,1.532-.4.135-.044.331-.2.333-.315.025-1.066.015-2.132.015-3.212a10.454,10.454,0,0,0-1.4.19c-.188.053-.451.3-.458.466C-102.345,1712.451-102.325,1713.5-102.325,1714.677Zm-10.623-3.616-1.867-.253c0,1.082-.014,2.037.013,2.992a.574.574,0,0,0,.289.431c.481.178.984.293,1.565.457Zm3.13,4.764c0,1.039-.01,2.036.012,3.031a.459.459,0,0,0,.269.345c.53.063,1.064.071,1.583.1v-3.382Zm7.531,2.957c.618-.2,1.1-.329,1.562-.506a.509.509,0,0,0,.3-.343c.025-.969.014-1.938.014-2.989-.586.142-1.054.226-1.5.379a.625.625,0,0,0-.361.433C-102.3,1716.712-102.287,1717.668-102.287,1718.783Zm-12.531-3.832c0,1.044-.006,1.976.006,2.906,0,.124.075.323.164.355.516.19,1.045.342,1.688.543,0-.715,0-1.238,0-1.76a9.9,9.9,0,0,0-.006-1.219.642.642,0,0,0-.358-.432C-113.77,1715.185-114.238,1715.1-114.819,1714.95Zm4.192-3.685c-.329-.036-.593-.045-.849-.1-.571-.117-.79.085-.745.675.043.547.008,1.1.005,1.651-.006,1.482-.006,1.482,1.48,1.5.019,0,.039-.02.109-.058Zm6.08,3.7a7.068,7.068,0,0,0,.973-.119c.177-.047.458-.206.462-.319.035-1.134.021-2.271.021-3.464l-1.456.142Zm1.446,3.969v-3.3a7.782,7.782,0,0,0-1.085.016c-.141.021-.367.208-.371.324-.029,1.043-.016,2.086-.016,3.22Zm-7.514-3.139-1.549-.188v3.3l1.549.193Zm-6.512-1.879c-.036.679-.073,1.25-.1,1.822-.048,1.24.334,1.709,1.689,2.007,0-.947.014-1.875-.014-2.8a.624.624,0,0,0-.3-.423C-116.217,1714.312-116.618,1714.154-117.127,1713.92Zm19.122-.063c-.548.267-1,.469-1.426.7a.456.456,0,0,0-.225.315c-.018.961-.011,1.924-.011,3.026a7.857,7.857,0,0,0,1.176-.671,1.268,1.268,0,0,0,.466-.755C-97.968,1715.644-98.006,1714.808-98.006,1713.857Zm-17.518-3.234-1.613-.459c0,.658,0,1.2,0,1.747-.006,1.207.317,1.581,1.614,1.8Zm15.884-.027v3.39c.629-.495,1.382-.789,1.521-1.262a9.888,9.888,0,0,0,.063-2.623Z" transform="translate(151.536 -1651.176)" fill="url(#linear-gradient-20)"/>
        <g id="Grupo_55794" data-name="Grupo 55794" transform="translate(25.537 31.46)">
          <path id="Trazado_100704" data-name="Trazado 100704" d="M-131.139,1681.431a4.343,4.343,0,0,1,3.583-4.094c2.126-.346,4.266-.6,6.4-.88a6.016,6.016,0,0,1,1.7-.124c1.529.247,2.22,1.376,2.619,2.742a4.506,4.506,0,0,1-.4,3.409,26.074,26.074,0,0,1-3.936,5.661,4.433,4.433,0,0,1-6.439.273,6.035,6.035,0,0,1-1.987-2.68c-.336-.973-.793-1.9-1.157-2.864A14.319,14.319,0,0,1-131.139,1681.431Z" transform="translate(131.139 -1676.304)" fill="url(#linear-gradient-21)"/>
          <path id="Trazado_100705" data-name="Trazado 100705" d="M-98.711,1681.543c-.427,1.129-.865,2.255-1.28,3.389a7.7,7.7,0,0,1-2.246,3.447c-1.666,1.386-4.024,1.743-5.53.625a9.526,9.526,0,0,1-2.022-2.13,51.583,51.583,0,0,1-2.953-4.591,4.344,4.344,0,0,1,.114-4.331,2.922,2.922,0,0,1,3.364-1.582c1.56.247,3.139.368,4.7.6a20.342,20.342,0,0,1,3.081.649,3.941,3.941,0,0,1,2.584,3.852Z" transform="translate(135.642 -1676.302)" fill="url(#linear-gradient-22)"/>
          <path id="Trazado_100706" data-name="Trazado 100706" d="M-116.094,1684.906c0,3.358,0,6.518,0,9.678a.608.608,0,0,1-.113.392,19.96,19.96,0,0,1-1.962,1.89c-.79.6-1.3.411-1.775-.492a6.851,6.851,0,0,1-.525-3.58,9.65,9.65,0,0,1,2.519-6.185C-117.431,1686.028-116.8,1685.545-116.094,1684.906Z" transform="translate(133.821 -1674.136)" fill="url(#linear-gradient-23)"/>
          <path id="Trazado_100707" data-name="Trazado 100707" d="M-115.882,1685.033a9.984,9.984,0,0,1,4.059,10.822c-.417,1.48-1.24,1.714-2.416.711a16.911,16.911,0,0,1-1.447-1.5,1.152,1.152,0,0,1-.192-.443,1.044,1.044,0,0,1,0-.287Z" transform="translate(134.981 -1674.104)" fill="url(#linear-gradient-24)"/>
        </g>
      </g>
    </g>
    <g id="Grupo_55801" data-name="Grupo 55801" transform="translate(-189.109 1474.451)">
      <g id="Grupo_55800" data-name="Grupo 55800" transform="translate(0 0)">
        <g id="Grupo_55798" data-name="Grupo 55798">
          <g id="Grupo_55797" data-name="Grupo 55797">
            <rect id="Rectángulo_5253" data-name="Rectángulo 5253" width="127.588" height="127.588" rx="7.849" transform="translate(0 90.219) rotate(-45)" fill="#d61b22"/>
            <rect id="Rectángulo_5254" data-name="Rectángulo 5254" width="108.637" height="108.637" rx="10.497" transform="translate(13.401 90.218) rotate(-45)" fill="url(#linear-gradient)"/>
          </g>
        </g>
        <g id="Grupo_55799" data-name="Grupo 55799" transform="translate(36.63 40.953)">
          <path id="Trazado_100708" data-name="Trazado 100708" d="M-159.852,1559.963l13.244,13.32h25.338v-13.32h-8.14s-.332,1.813-3.343,1.531a3.31,3.31,0,0,1-3.061,1.787c-2.17-.1-3.547-2.323-3.547-2.323s-2.17.282-2.91-1.122h-17.581Z" transform="translate(159.852 -1493.886)" fill="url(#linear-gradient-26)"/>
          <path id="Trazado_100709" data-name="Trazado 100709" d="M-137.56,1556.376h0l-2.682-5.546-2.449,5.454c-.028.058-.055.115-.079.175l-.034.075.009.006a2.788,2.788,0,0,0-.174.945,2.818,2.818,0,0,0,2.818,2.818,2.819,2.819,0,0,0,2.818-2.818A2.813,2.813,0,0,0-137.56,1556.376Z" transform="translate(164.107 -1496.157)" fill="url(#linear-gradient-27)"/>
          <path id="Trazado_100710" data-name="Trazado 100710" d="M-140.556,1547.368h0l-2.682-5.546-2.449,5.454c-.028.058-.055.115-.079.175l-.034.075.009,0a2.791,2.791,0,0,0-.174.947,2.817,2.817,0,0,0,2.818,2.817,2.817,2.817,0,0,0,2.818-2.817A2.809,2.809,0,0,0-140.556,1547.368Z" transform="translate(163.352 -1498.427)" fill="url(#linear-gradient-28)"/>
          <path id="Trazado_100711" data-name="Trazado 100711" d="M-103.7,1537.2h0l-2.682-5.546-2.449,5.454c-.028.058-.055.115-.079.175l-.034.075.009.005a2.788,2.788,0,0,0-.174.946,2.817,2.817,0,0,0,2.818,2.817,2.817,2.817,0,0,0,2.818-2.817A2.81,2.81,0,0,0-103.7,1537.2Z" transform="translate(172.64 -1500.99)" fill="url(#linear-gradient-28)"/>
          <path id="Trazado_100712" data-name="Trazado 100712" d="M-111.712,1533.249l-23.833-4.032-2.143-3.01-2.853-.193-2.965,15.91,3.492.459,1.714-1.888,25.364,4.593s6.226,1.684,7.655-4.593S-111.712,1533.249-111.712,1533.249Zm4.427,6.838-18.1-.422-13.359-1.721-1.224,1.492h-.727l1.952-10.526h.459l.69,2.449,24,4.1C-105.946,1536.145-107.285,1540.088-107.285,1540.088Z" transform="translate(163.971 -1502.41)" fill="url(#linear-gradient-3)"/>
          <path id="Trazado_100713" data-name="Trazado 100713" d="M-126.417,1514.4l23.833-4.031,2.143-3.011,2.852-.192,2.965,15.91-3.491.46-1.714-1.888-25.364,4.592s-6.226,1.684-7.655-4.592S-126.417,1514.4-126.417,1514.4Zm-2.2,3.164,17.467.564,11.77.968,1.226,1.494h.726l-1.952-10.526h-.459l-.689,2.449-24,4.1C-128.3,1517.127-128.619,1517.559-128.619,1517.559Z" transform="translate(166.614 -1507.161)" fill="url(#linear-gradient-31)"/>
          <path id="Trazado_100714" data-name="Trazado 100714" d="M-65.636,1560.258l-4.1.191-2.742-2.659a2.259,2.259,0,0,0-.586-.964l-16.568-15.9a2.27,2.27,0,0,0-3.21.066l-.959,1a2.271,2.271,0,0,0,.065,3.21l8.863,8.508-.861-.185-9.34,1.263-.2.072a3.068,3.068,0,0,1,.115.821,3.216,3.216,0,0,1-3.266,3.164,3.26,3.26,0,0,1-3.059-2.064,2.551,2.551,0,0,1-2.172,1.147,2.41,2.41,0,0,1-2.47-1.965h-12.769a2.271,2.271,0,0,0-2.271,2.271v.116a2.271,2.271,0,0,0,2.271,2.271h17.74v1.184h-19.6a2.271,2.271,0,0,0-2.271,2.271v.116a2.271,2.271,0,0,0,2.271,2.271h19.6v.611h-17.632a2.271,2.271,0,0,0-2.271,2.271v.728a2.271,2.271,0,0,0,2.271,2.271h17.632v.606h-12.636a2.271,2.271,0,0,0-2.271,2.271v.134a2.27,2.27,0,0,0,2.271,2.27h38.51l13.359-12.426Z" transform="translate(169.131 -1498.812)" fill="url(#linear-gradient-3)"/>
        </g>
      </g>
      <path id="Trazado_100715" data-name="Trazado 100715" d="M-105.946,1547.368h0l-2.683-5.546-2.449,5.454c-.028.058-.055.115-.079.175l-.033.075.008,0a2.791,2.791,0,0,0-.174.947,2.818,2.818,0,0,0,2.818,2.817,2.818,2.818,0,0,0,2.818-2.817A2.787,2.787,0,0,0-105.946,1547.368Z" transform="translate(208.703 -1457.474)" fill="url(#linear-gradient-33)"/>
    </g>
  </g>
</svg>
