<svg xmlns="http://www.w3.org/2000/svg" width="126" height="126" viewBox="0 0 126 126">
  <g id="Grupo_57245" data-name="Grupo 57245" transform="translate(-608.5 -24035.465)">
    <g id="Elipse_4087" data-name="Elipse 4087" transform="translate(608.5 24035.465)" fill="#fff" stroke="#09b291" stroke-width="5">
      <circle cx="63" cy="63" r="63" stroke="none"/>
      <circle cx="63" cy="63" r="60.5" fill="none"/>
    </g>
    <g id="Grupo_56742" data-name="Grupo 56742" transform="translate(-966.187 23767.166)">
      <g id="Grupo_56741" data-name="Grupo 56741">
        <path id="Trazado_101958" data-name="Trazado 101958" d="M1667.2,306.337a9.374,9.374,0,0,0-1.021.055,13.753,13.753,0,0,0-13.033-9.426,13.6,13.6,0,0,0-4.242.672,15.831,15.831,0,0,0-22.441.024A13.748,13.748,0,0,0,1610.2,306.7a9.424,9.424,0,1,0,5.642,16,13.636,13.636,0,0,0,5.758,2.066c3.521,6.461,5.535,11.74,6.543,17.269-.065,0-.13,0-.2,0a7.308,7.308,0,1,0,1.165,14.522,22.467,22.467,0,0,1-1.559,8.566h-4.65a2.244,2.244,0,0,0,0,4.487h30.572a2.244,2.244,0,0,0,0-4.487h-4.717a14.988,14.988,0,0,1-.617-1.778,29.51,29.51,0,0,1-.97-6.806,7.165,7.165,0,0,0,1.26.112,7.308,7.308,0,0,0,0-14.616c-.129,0-.258,0-.386.012a58.414,58.414,0,0,1,6.665-17.58,13.643,13.643,0,0,0,5.827-2.075,9.4,9.4,0,1,0,6.663-16.056Zm-23.413,34.179a10.47,10.47,0,0,0-3.518-1.482V324.662a15.6,15.6,0,0,0,5.712-2.131,13.782,13.782,0,0,0,3.836,1.612A60.872,60.872,0,0,0,1643.785,340.516Zm-7.987-1.481a10.53,10.53,0,0,0-3.408,1.418,58.636,58.636,0,0,0-5.883-15.976,13.554,13.554,0,0,0,3.676-1.5,15.739,15.739,0,0,0,5.615,1.78Zm-3.474,26.089a28.3,28.3,0,0,0,1.14-6.286,10.419,10.419,0,0,0,9.362-.105,30.29,30.29,0,0,0,1.176,6.391Zm18.915-15.78a2.819,2.819,0,0,1-2.81,2.821,2.774,2.774,0,0,1-1.74-.607,2.228,2.228,0,0,0-3.348.684,5.416,5.416,0,0,1-.388.617,6.023,6.023,0,0,1-10.16-.5,2.228,2.228,0,0,0-3.228-.712,2.783,2.783,0,0,1-1.62.517,2.821,2.821,0,0,1,0-5.642,2.777,2.777,0,0,1,1.62.518,2.258,2.258,0,0,0,3.228-.713,6.029,6.029,0,0,1,10.548.118,2.249,2.249,0,0,0,3.348.685,2.772,2.772,0,0,1,1.74-.607,2.818,2.818,0,0,1,2.81,2.82ZM1667.2,320.7a4.922,4.922,0,0,1-4.3-2.539,2.23,2.23,0,0,0-3.468-.556,9.234,9.234,0,0,1-12.054.449,2.227,2.227,0,0,0-2.751-.025,11.371,11.371,0,0,1-13.263.435,2.229,2.229,0,0,0-2.582.07,9.241,9.241,0,0,1-11.842-.617,2.23,2.23,0,0,0-3.468.556,4.928,4.928,0,1,1-2.463-6.976,2.234,2.234,0,0,0,3.046-1.761,9.268,9.268,0,0,1,12.346-7.407,2.227,2.227,0,0,0,2.488-.68,11.378,11.378,0,0,1,17.659.064,2.229,2.229,0,0,0,2.679.617,9.157,9.157,0,0,1,3.917-.871,9.322,9.322,0,0,1,9.173,7.965,2.233,2.233,0,0,0,3.047,1.761,4.871,4.871,0,0,1,1.833-.356,4.936,4.936,0,0,1,0,9.871Z" fill="#065949"/>
        <ellipse id="Elipse_4093" data-name="Elipse 4093" cx="2.234" cy="2.244" rx="2.234" ry="2.244" transform="translate(1658.109 329.106)" fill="#065949"/>
        <ellipse id="Elipse_4094" data-name="Elipse 4094" cx="2.234" cy="2.244" rx="2.234" ry="2.244" transform="translate(1667.001 344.36)" fill="#065949"/>
        <ellipse id="Elipse_4095" data-name="Elipse 4095" cx="2.234" cy="2.244" rx="2.234" ry="2.244" transform="translate(1613.813 329.106)" fill="#065949"/>
        <ellipse id="Elipse_4096" data-name="Elipse 4096" cx="2.234" cy="2.244" rx="2.234" ry="2.244" transform="translate(1604.921 344.36)" fill="#065949"/>
      </g>
    </g>
  </g>
</svg>
