<svg xmlns="http://www.w3.org/2000/svg" xmlns:xlink="http://www.w3.org/1999/xlink" width="59.715" height="59.715" viewBox="0 0 59.715 59.715">
  <defs>
    <linearGradient id="linear-gradient" x1="0.5" y1="1.053" x2="0.5" y2="-0.036" gradientUnits="objectBoundingBox">
      <stop offset="0" stop-color="#e6e6e6"/>
      <stop offset="0.42" stop-color="#fff"/>
    </linearGradient>
    <linearGradient id="linear-gradient-2" x1="0.5" y1="0.877" x2="0.5" y2="0.05" gradientUnits="objectBoundingBox">
      <stop offset="0" stop-color="#231f20"/>
      <stop offset="0.903" stop-color="#505052"/>
    </linearGradient>
    <linearGradient id="linear-gradient-3" x1="0.5" y1="0.877" x2="0.5" y2="0.05" xlink:href="#linear-gradient-2"/>
  </defs>
  <g id="Grupo_56245" data-name="Grupo 56245" transform="translate(-388.123 -4796.257)">
    <g id="Grupo_56243" data-name="Grupo 56243">
      <g id="Grupo_56242" data-name="Grupo 56242">
        <rect id="Rectángulo_5463" data-name="Rectángulo 5463" width="42.225" height="42.225" transform="translate(388.123 4826.115) rotate(-45)" fill="#d61b22"/>
        <rect id="Rectángulo_5464" data-name="Rectángulo 5464" width="35.953" height="35.953" rx="3.206" transform="translate(392.558 4826.115) rotate(-45)" fill="url(#linear-gradient)"/>
      </g>
    </g>
    <g id="Grupo_56244" data-name="Grupo 56244">
      <path id="Trazado_101353" data-name="Trazado 101353" d="M423.4,4835.089a4.667,4.667,0,0,0,2.435-5.741s-.818-2.307-.536-3.388c0,0-1.081-.39-2.014,1.553a1.568,1.568,0,0,1-1.8.661A4.016,4.016,0,0,0,422,4824a9.893,9.893,0,0,1-.375-2.749s-.727-.049-.763,2.362-1.284,2.64-1.284,2.64,1.1-4.288-1.78-5.862a11.379,11.379,0,0,1-.461,4.166,9.154,9.154,0,0,0,.4,5.2s-1.6-.061-2.943-3.064a5.021,5.021,0,0,0-1.98-2.659s1.163,4.742-1.145,4.669a2.985,2.985,0,0,1-1.271-.956,4.8,4.8,0,0,0,.708,6.043l1.871,1.308s-2.2.527-4.741-1.707c0,0-2.308-1.545-2.09-5.542a16.24,16.24,0,0,1,1.4-5.486,4.282,4.282,0,0,0-.018-2.507s1.417-.2,3.216,1.926c0,0,.163-.436-.6-1.853,0,0-.89-1.745.963-4.088,0,0,1.78-2.144.836-3.434,0,0,1.689.836,1.435,3.8,0,0-.454,4.179,1.962,5.777,0,0-2.126-4.868-.654-8.1a13.616,13.616,0,0,1,3.325-5.1s1.526-1.617,1.235-3.089c0,0,1.49,1.254.2,4.978s.472,5.905.472,5.905a5.331,5.331,0,0,1,2.725-6.141s-1.4,2.507.236,4.088a4.589,4.589,0,0,1,.6,6.3s.491.218,2.416-1.89a4.744,4.744,0,0,1,2.308-1.271s-1.617.944-.382,3.6,3.179,5.988,1.108,10.842A5.756,5.756,0,0,1,423.4,4835.089Z" fill="url(#linear-gradient-2)"/>
      <rect id="Rectángulo_5465" data-name="Rectángulo 5465" width="21.437" height="2.107" transform="translate(407.414 4836.106)" fill="url(#linear-gradient-3)"/>
    </g>
  </g>
</svg>
