<svg xmlns="http://www.w3.org/2000/svg" width="269.54" height="289.073" viewBox="0 0 269.54 289.073">
  <g id="Grupo_56911" data-name="Grupo 56911" transform="translate(-759.875 -8009.51)">
    <g id="Grupo_56897" data-name="Grupo 56897" transform="translate(759.875 8108.058)">
      <path id="Trazado_102115" data-name="Trazado 102115" d="M759.875,8133.338v98.635l92.994,37.988V8155.319Z" transform="translate(-759.875 -8120.058)" fill="#a85f16"/>
      <path id="Trazado_102116" data-name="Trazado 102116" d="M946.659,8133.338l-83.812,21.981v114.642l83.812-33.315Z" transform="translate(-769.853 -8120.058)" fill="#f29e4c"/>
      <path id="Trazado_102117" data-name="Trazado 102117" d="M759.875,8131.913l88.4-13.28,88.4,13.28-83.812,21.981Z" transform="translate(-759.875 -8118.633)" fill="#f7a866"/>
      <g id="Grupo_56891" data-name="Grupo 56891" transform="translate(98.125 34.082)">
        <path id="Trazado_102118" data-name="Trazado 102118" d="M905.078,8161.209l.028-4.837-5.176,1.606-.014,4.833c-.009,1.53.756,3.114,2.238,2.908l.009,0h.015l.008,0-.024,6.5-2.194,1.049,0,.884,4.971-1.563,0-.882-2.192.328-.093.029.026-6.486C904.169,8164.949,905.076,8162.9,905.078,8161.209Z" transform="translate(-871.571 -8156.372)" fill="#261911"/>
        <path id="Trazado_102119" data-name="Trazado 102119" d="M884.284,8180.546l9.295-2.922,0-1.119-9.3,2.92Z" transform="translate(-870.056 -8158.323)" fill="#261911"/>
        <path id="Trazado_102120" data-name="Trazado 102120" d="M885.989,8177.091l.773-.243.014-11.936.92-.284-1.306-2.41-1.317,3.22.928-.286Z" transform="translate(-870.132 -8156.938)" fill="#261911"/>
        <path id="Trazado_102121" data-name="Trazado 102121" d="M891.84,8175.257l.764-.241.028-11.919.923-.284-1.305-2.4-1.308,3.206.917-.284Z" transform="translate(-870.701 -8156.764)" fill="#261911"/>
        <path id="Trazado_102122" data-name="Trazado 102122" d="M876.516,8168.08a3.871,3.871,0,0,0-1.788-.154,5.154,5.154,0,0,0-.52.1v-.871l-.474.145v.871a6.444,6.444,0,0,0-1.949,1.16,9.783,9.783,0,0,0-3.256,6.642,1.449,1.449,0,0,1,.117-.355,1.3,1.3,0,0,1,.834-.737.65.65,0,0,1,.788.423,1.014,1.014,0,0,1,.06.35,1.336,1.336,0,0,1,.07-.426,1.376,1.376,0,0,1,.9-.919.652.652,0,0,1,.792.426,1.012,1.012,0,0,1,.06.355,1.382,1.382,0,0,1,.071-.431,1.5,1.5,0,0,1,.483-.71.76.76,0,0,1,1.036-.047l.014,7.23a1.04,1.04,0,0,1-.633.973c-.374.117-.875.231-.875-.5l-.467.152a1.4,1.4,0,0,0,.074.46c.322.912,1.167.5,1.342.443a1.85,1.85,0,0,0,1.024-1.668l-.012-7.246a1.255,1.255,0,0,1,.745-.569.64.64,0,0,1,.614.166.877.877,0,0,1,.223.618,1.481,1.481,0,0,1,.266-.824,1.24,1.24,0,0,1,.71-.527.642.642,0,0,1,.619.167.861.861,0,0,1,.223.615,1.482,1.482,0,0,1,.267-.817,1.253,1.253,0,0,1,.676-.519.642.642,0,0,1,.785.343.91.91,0,0,1,.082.306C879.324,8170.689,878.4,8168.718,876.516,8168.08Z" transform="translate(-868.529 -8157.417)" fill="#261911"/>
        <path id="Trazado_102123" data-name="Trazado 102123" d="M876.66,8166.189a.261.261,0,0,0,.362.042.826.826,0,0,0,.256-.563c.1-.457.171-.918.244-1.379-.172.286-.666,1.114-.824,1.4a.5.5,0,0,0-.038.5Z" transform="translate(-869.312 -8157.14)" fill="#261911"/>
        <path id="Trazado_102124" data-name="Trazado 102124" d="M878.7,8167.575c.315.028.391-.375.442-.611.1-.456.176-.917.249-1.377-.167.277-.671,1.118-.823,1.4C878.443,8167.223,878.434,8167.551,878.7,8167.575Z" transform="translate(-869.494 -8157.265)" fill="#261911"/>
        <path id="Trazado_102125" data-name="Trazado 102125" d="M880.4,8167.2c-.138.521.454.636.606,0,.092-.392.22-1.153.286-1.552C880.991,8166.145,880.442,8167.047,880.4,8167.2Z" transform="translate(-869.677 -8157.271)" fill="#261911"/>
        <path id="Trazado_102126" data-name="Trazado 102126" d="M879.918,8163c.126-.473.249-1.292.29-1.534-.876,1.442-.88,1.468-.912,1.625-.045.221.061.352.2.369C879.78,8163.5,879.864,8163.2,879.918,8163Z" transform="translate(-869.571 -8156.866)" fill="#261911"/>
        <path id="Trazado_102127" data-name="Trazado 102127" d="M874.9,8165.438a.26.26,0,0,0,.36.039.83.83,0,0,0,.256-.557c.1-.459.172-.924.249-1.387-.181.3-.658,1.093-.83,1.406a.506.506,0,0,0-.035.5Z" transform="translate(-869.142 -8157.066)" fill="#261911"/>
      </g>
      <g id="Grupo_56892" data-name="Grupo 56892" transform="translate(0 5.064)">
        <path id="Trazado_102128" data-name="Trazado 102128" d="M759.875,8134.722l92.994,21.674v-1.078l-92.994-21.981Z" transform="translate(-759.875 -8125.122)" fill="#5b2c11"/>
        <path id="Trazado_102129" data-name="Trazado 102129" d="M887.079,8124.343l-.679-.1-81.011,17.932,1.012.239Z" transform="translate(-764.285 -8124.241)" fill="#5b2c11"/>
      </g>
      <path id="Trazado_102130" data-name="Trazado 102130" d="M811.361,8158.871v27.168l40.3,11.139v-30.4Z" transform="translate(-764.864 -8122.532)" fill="#e2b074"/>
      <g id="Grupo_56893" data-name="Grupo 56893" transform="translate(48.946 40.036)">
        <path id="Trazado_102131" data-name="Trazado 102131" d="M848.165,8169.757l-34.092-6.792v1.841l34.092,6.792Z" transform="translate(-814.073 -8162.965)" fill="#9b6f40"/>
      </g>
      <g id="Grupo_56894" data-name="Grupo 56894" transform="translate(48.946 43.459)">
        <path id="Trazado_102132" data-name="Trazado 102132" d="M838.08,8171.729l-24.007-4.975v1.845l24.007,4.975Z" transform="translate(-814.073 -8166.755)" fill="#9b6f40"/>
      </g>
      <g id="Grupo_56895" data-name="Grupo 56895" transform="translate(48.994 47.368)">
        <path id="Trazado_102133" data-name="Trazado 102133" d="M838.564,8176.44l-24.383-5.356-.056,1.836,24.383,5.356Z" transform="translate(-814.125 -8171.084)" fill="#9b6f40"/>
      </g>
      <g id="Grupo_56896" data-name="Grupo 56896" transform="translate(61.182 55.668)">
        <path id="Trazado_102134" data-name="Trazado 102134" d="M838.554,8193.688l1,.3.04-10.122-1.01-.309Z" transform="translate(-828.681 -8180.592)" fill="#1c3350"/>
        <path id="Trazado_102135" data-name="Trazado 102135" d="M837.3,8193.313l.777.234.032-10.131-.769-.233Z" transform="translate(-828.56 -8180.557)" fill="#1c3350"/>
        <path id="Trazado_102136" data-name="Trazado 102136" d="M836.061,8192.938l.769.233.04-10.129-.777-.235Z" transform="translate(-828.44 -8180.52)" fill="#1c3350"/>
        <path id="Trazado_102137" data-name="Trazado 102137" d="M827.622,8190.4l.778.235.032-10.124-.769-.234Z" transform="translate(-827.622 -8180.274)" fill="#1c3350"/>
        <path id="Trazado_102138" data-name="Trazado 102138" d="M834.1,8192.348l1.419.431.032-10.131-1.418-.43Z" transform="translate(-828.249 -8180.463)" fill="#1c3350"/>
        <path id="Trazado_102139" data-name="Trazado 102139" d="M832.3,8191.808l1.418.431.04-10.131-1.418-.43Z" transform="translate(-828.075 -8180.412)" fill="#1c3350"/>
        <path id="Trazado_102140" data-name="Trazado 102140" d="M830.505,8191.267l1.419.423.032-10.123-1.418-.431Z" transform="translate(-827.901 -8180.358)" fill="#1c3350"/>
        <path id="Trazado_102141" data-name="Trazado 102141" d="M828.7,8190.728l1.418.423.04-10.123-1.418-.431Z" transform="translate(-827.727 -8180.306)" fill="#1c3350"/>
        <path id="Trazado_102142" data-name="Trazado 102142" d="M851.909,8197.7l1.01.309.032-10.131-1-.3Z" transform="translate(-829.975 -8180.982)" fill="#1c3350"/>
        <path id="Trazado_102143" data-name="Trazado 102143" d="M850.667,8197.331l.777.233.032-10.131-.777-.227Z" transform="translate(-829.855 -8180.946)" fill="#1c3350"/>
        <path id="Trazado_102144" data-name="Trazado 102144" d="M853.423,8188.028l-.033,10.123.778.234.032-10.13Z" transform="translate(-830.119 -8181.026)" fill="#1c3350"/>
        <path id="Trazado_102145" data-name="Trazado 102145" d="M849.416,8196.957l.777.233.032-10.132-.769-.233Z" transform="translate(-829.734 -8180.909)" fill="#1c3350"/>
        <path id="Trazado_102146" data-name="Trazado 102146" d="M840.985,8194.423l.77.226.04-10.123-.777-.234Z" transform="translate(-828.917 -8180.664)" fill="#1c3350"/>
        <path id="Trazado_102147" data-name="Trazado 102147" d="M840.222,8194.187l.481.149.032-10.132-.481-.142Z" transform="translate(-828.843 -8180.641)" fill="#1c3350"/>
        <path id="Trazado_102148" data-name="Trazado 102148" d="M847.463,8196.366l1.41.429.04-10.13-1.418-.422Z" transform="translate(-829.544 -8180.853)" fill="#1c3350"/>
        <path id="Trazado_102149" data-name="Trazado 102149" d="M845.662,8195.825l1.418.431.033-10.13-1.411-.421Z" transform="translate(-829.37 -8180.802)" fill="#1c3350"/>
        <path id="Trazado_102150" data-name="Trazado 102150" d="M843.87,8195.286l1.41.43.04-10.13-1.418-.422Z" transform="translate(-829.196 -8180.749)" fill="#1c3350"/>
        <path id="Trazado_102151" data-name="Trazado 102151" d="M842.068,8194.746l1.418.421.033-10.123-1.419-.43Z" transform="translate(-829.022 -8180.695)" fill="#1c3350"/>
      </g>
    </g>
    <g id="Grupo_56904" data-name="Grupo 56904" transform="translate(852.608 8127.703)">
      <path id="Trazado_102152" data-name="Trazado 102152" d="M862.559,8157.148l.261,115.119,92.733,40.622V8182.205Z" transform="translate(-862.559 -8142.01)" fill="#a85f16"/>
      <path id="Trazado_102153" data-name="Trazado 102153" d="M1049.343,8157.148l-83.812,25.057V8312.89l83.812-37.978Z" transform="translate(-872.537 -8142.01)" fill="#f29e4c"/>
      <path id="Trazado_102154" data-name="Trazado 102154" d="M862.559,8155.524l88.4-15.139,88.4,15.139-83.812,25.057Z" transform="translate(-862.559 -8140.385)" fill="#f7a866"/>
      <g id="Grupo_56898" data-name="Grupo 56898" transform="translate(98.125 38.851)">
        <path id="Trazado_102155" data-name="Trazado 102155" d="M1007.762,8188.918l.028-5.513-5.176,1.831-.014,5.51c-.009,1.744.756,3.551,2.238,3.315l.009,0h.015l.008,0-.024,7.412-2.194,1.2,0,1.008,4.971-1.782,0-1.006-2.192.374-.093.032.026-7.394C1006.853,8193.184,1007.759,8190.847,1007.762,8188.918Z" transform="translate(-974.255 -8183.405)" fill="#261911"/>
        <path id="Trazado_102156" data-name="Trazado 102156" d="M986.968,8210.963l9.295-3.333,0-1.274-9.3,3.329Z" transform="translate(-972.74 -8185.629)" fill="#261911"/>
        <path id="Trazado_102157" data-name="Trazado 102157" d="M988.673,8207.022l.774-.277.014-13.606.92-.323-1.306-2.747-1.317,3.67.928-.325Z" transform="translate(-972.816 -8184.051)" fill="#261911"/>
        <path id="Trazado_102158" data-name="Trazado 102158" d="M994.524,8204.933l.764-.275.028-13.587.923-.323-1.305-2.733-1.308,3.654.917-.324Z" transform="translate(-973.385 -8183.852)" fill="#261911"/>
        <path id="Trazado_102159" data-name="Trazado 102159" d="M979.2,8196.751a3.4,3.4,0,0,0-1.788-.175,4.336,4.336,0,0,0-.52.117v-.993l-.474.165v.993a6.288,6.288,0,0,0-1.949,1.322,11.783,11.783,0,0,0-3.256,7.572,1.826,1.826,0,0,1,.117-.406,1.373,1.373,0,0,1,.834-.841.641.641,0,0,1,.787.484,1.3,1.3,0,0,1,.06.4,1.733,1.733,0,0,1,.07-.487,1.489,1.489,0,0,1,.9-1.047.641.641,0,0,1,.792.485,1.3,1.3,0,0,1,.06.4,1.775,1.775,0,0,1,.071-.49,1.732,1.732,0,0,1,.483-.811.694.694,0,0,1,1.036-.054l.013,8.242a1.2,1.2,0,0,1-.633,1.109c-.374.133-.875.263-.875-.577l-.467.176a1.814,1.814,0,0,0,.074.524c.322,1.04,1.167.567,1.342.5a2.151,2.151,0,0,0,1.024-1.9l-.012-8.26a1.289,1.289,0,0,1,.745-.647.589.589,0,0,1,.614.188,1.088,1.088,0,0,1,.223.705,1.857,1.857,0,0,1,.266-.94,1.264,1.264,0,0,1,.71-.6.589.589,0,0,1,.619.189,1.07,1.07,0,0,1,.223.7,1.861,1.861,0,0,1,.267-.932,1.28,1.28,0,0,1,.676-.59.618.618,0,0,1,.785.39,1.16,1.16,0,0,1,.082.351C982.008,8199.726,981.088,8197.479,979.2,8196.751Z" transform="translate(-971.213 -8184.596)" fill="#261911"/>
        <path id="Trazado_102160" data-name="Trazado 102160" d="M979.344,8194.6a.241.241,0,0,0,.362.047,1,1,0,0,0,.256-.641c.1-.521.171-1.048.244-1.572-.172.326-.666,1.27-.824,1.6a.641.641,0,0,0-.038.57C979.367,8194.637,979.322,8194.555,979.344,8194.6Z" transform="translate(-971.996 -8184.279)" fill="#261911"/>
        <path id="Trazado_102161" data-name="Trazado 102161" d="M981.387,8196.176c.315.031.391-.427.442-.7.1-.521.176-1.046.249-1.571-.167.315-.671,1.274-.823,1.593C981.127,8195.772,981.118,8196.146,981.387,8196.176Z" transform="translate(-972.178 -8184.423)" fill="#261911"/>
        <path id="Trazado_102162" data-name="Trazado 102162" d="M983.086,8195.746c-.138.593.454.726.606,0,.092-.447.22-1.315.286-1.771C983.675,8194.546,983.126,8195.573,983.086,8195.746Z" transform="translate(-972.362 -8184.429)" fill="#261911"/>
        <path id="Trazado_102163" data-name="Trazado 102163" d="M982.6,8190.963c.126-.54.249-1.472.29-1.749-.876,1.644-.88,1.674-.912,1.854-.045.25.06.4.2.42C982.464,8191.531,982.548,8191.193,982.6,8190.963Z" transform="translate(-972.255 -8183.968)" fill="#261911"/>
        <path id="Trazado_102164" data-name="Trazado 102164" d="M977.586,8193.738a.24.24,0,0,0,.36.045,1,1,0,0,0,.256-.635c.1-.524.173-1.053.249-1.582-.181.343-.658,1.247-.83,1.6a.647.647,0,0,0-.035.568C977.608,8193.777,977.565,8193.7,977.586,8193.738Z" transform="translate(-971.826 -8184.196)" fill="#261911"/>
      </g>
      <g id="Grupo_56899" data-name="Grupo 56899" transform="translate(0 5.773)">
        <path id="Trazado_102165" data-name="Trazado 102165" d="M862.559,8158.727l92.994,24.708v-1.229l-92.994-25.057Z" transform="translate(-862.559 -8147.782)" fill="#5b2c11"/>
        <path id="Trazado_102166" data-name="Trazado 102166" d="M989.763,8146.893l-.679-.116-81.011,20.441,1.012.272Z" transform="translate(-866.969 -8146.777)" fill="#5b2c11"/>
      </g>
      <path id="Trazado_102167" data-name="Trazado 102167" d="M914.045,8186.254v30.969l40.3,12.7v-34.659Z" transform="translate(-867.548 -8144.831)" fill="#e2b074"/>
      <g id="Grupo_56900" data-name="Grupo 56900" transform="translate(48.946 45.638)">
        <path id="Trazado_102168" data-name="Trazado 102168" d="M950.849,8198.662l-34.092-7.742v2.1l34.092,7.742Z" transform="translate(-916.757 -8190.92)" fill="#9b6f40"/>
      </g>
      <g id="Grupo_56901" data-name="Grupo 56901" transform="translate(48.946 49.541)">
        <path id="Trazado_102169" data-name="Trazado 102169" d="M940.764,8200.913l-24.007-5.672v2.1l24.007,5.672Z" transform="translate(-916.757 -8195.241)" fill="#9b6f40"/>
      </g>
      <g id="Grupo_56902" data-name="Grupo 56902" transform="translate(48.994 53.997)">
        <path id="Trazado_102170" data-name="Trazado 102170" d="M941.248,8206.281l-24.383-6.105-.056,2.093,24.383,6.106Z" transform="translate(-916.809 -8200.176)" fill="#9b6f40"/>
      </g>
      <g id="Grupo_56903" data-name="Grupo 56903" transform="translate(61.182 63.458)">
        <path id="Trazado_102171" data-name="Trazado 102171" d="M941.238,8225.94l1,.343.04-11.539-1.01-.352Z" transform="translate(-931.365 -8211.015)" fill="#1c3350"/>
        <path id="Trazado_102172" data-name="Trazado 102172" d="M939.987,8225.515l.777.266.032-11.547-.769-.268Z" transform="translate(-931.244 -8210.974)" fill="#1c3350"/>
        <path id="Trazado_102173" data-name="Trazado 102173" d="M938.745,8225.088l.769.267.04-11.547-.777-.268Z" transform="translate(-931.123 -8210.932)" fill="#1c3350"/>
        <path id="Trazado_102174" data-name="Trazado 102174" d="M930.306,8222.191l.778.268.032-11.54-.769-.267Z" transform="translate(-930.306 -8210.652)" fill="#1c3350"/>
        <path id="Trazado_102175" data-name="Trazado 102175" d="M936.783,8224.416l1.419.49.032-11.549-1.418-.491Z" transform="translate(-930.933 -8210.867)" fill="#1c3350"/>
        <path id="Trazado_102176" data-name="Trazado 102176" d="M934.982,8223.8l1.418.492.04-11.549-1.418-.491Z" transform="translate(-930.759 -8210.808)" fill="#1c3350"/>
        <path id="Trazado_102177" data-name="Trazado 102177" d="M933.189,8223.185l1.419.48.032-11.538-1.418-.492Z" transform="translate(-930.585 -8210.747)" fill="#1c3350"/>
        <path id="Trazado_102178" data-name="Trazado 102178" d="M931.389,8222.568l1.418.481.04-11.54-1.418-.49Z" transform="translate(-930.41 -8210.688)" fill="#1c3350"/>
        <path id="Trazado_102179" data-name="Trazado 102179" d="M954.593,8230.521l1.01.352.032-11.548-1-.344Z" transform="translate(-932.659 -8211.459)" fill="#1c3350"/>
        <path id="Trazado_102180" data-name="Trazado 102180" d="M953.351,8230.1l.777.267.032-11.549-.777-.259Z" transform="translate(-932.539 -8211.418)" fill="#1c3350"/>
        <path id="Trazado_102181" data-name="Trazado 102181" d="M956.107,8219.49l-.033,11.54.778.267.032-11.547Z" transform="translate(-932.803 -8211.509)" fill="#1c3350"/>
        <path id="Trazado_102182" data-name="Trazado 102182" d="M952.1,8229.669l.777.267.032-11.549-.769-.267Z" transform="translate(-932.417 -8211.376)" fill="#1c3350"/>
        <path id="Trazado_102183" data-name="Trazado 102183" d="M943.669,8226.78l.77.258.04-11.539-.777-.269Z" transform="translate(-931.601 -8211.096)" fill="#1c3350"/>
        <path id="Trazado_102184" data-name="Trazado 102184" d="M942.906,8226.512l.481.17.032-11.549-.481-.162Z" transform="translate(-931.527 -8211.071)" fill="#1c3350"/>
        <path id="Trazado_102185" data-name="Trazado 102185" d="M950.147,8229l1.41.489.04-11.548-1.418-.481Z" transform="translate(-932.228 -8211.312)" fill="#1c3350"/>
        <path id="Trazado_102186" data-name="Trazado 102186" d="M948.346,8228.379l1.418.491.033-11.548-1.411-.481Z" transform="translate(-932.054 -8211.252)" fill="#1c3350"/>
        <path id="Trazado_102187" data-name="Trazado 102187" d="M946.554,8227.765l1.41.489.04-11.547-1.418-.482Z" transform="translate(-931.88 -8211.192)" fill="#1c3350"/>
        <path id="Trazado_102188" data-name="Trazado 102188" d="M944.752,8227.148l1.418.48.033-11.539-1.419-.49Z" transform="translate(-931.706 -8211.132)" fill="#1c3350"/>
      </g>
    </g>
    <g id="Grupo_56905" data-name="Grupo 56905" transform="translate(828.565 8009.509)">
      <path id="Trazado_102189" data-name="Trazado 102189" d="M852.536,8012.229h6.053a3.893,3.893,0,0,1,3.881,3.881v12.639a6.928,6.928,0,0,1-6.907,6.91h0a6.93,6.93,0,0,1-6.91-6.91V8016.11A3.893,3.893,0,0,1,852.536,8012.229Z" transform="translate(-837.168 -8009.773)" fill="#131742" fill-rule="evenodd"/>
      <path id="Trazado_102190" data-name="Trazado 102190" d="M854.331,8136.727h14.028a4.377,4.377,0,0,0,4.365-4.365v-44.194c0-1.982-.007-9.891-.016-10.389-.37-17.621-8.6-17.862-9.744-28.064-.507-4.539-1.8-16.61-2.441-19.65a3.648,3.648,0,0,0-3.038-3.21h-6.308a3.648,3.648,0,0,0-3.038,3.21c-.641,3.04-1.932,15.111-2.439,19.65-1.143,10.2-9.376,10.443-9.744,28.064-.011.5-.016,8.407-.018,10.389v44.194a4.378,4.378,0,0,0,4.367,4.365Z" transform="translate(-835.936 -8011.19)" fill="#efc432" fill-rule="evenodd"/>
      <path id="Trazado_102191" data-name="Trazado 102191" d="M848.208,8055.1l0,.01,0,.006v0a20.491,20.491,0,0,1-2.564,5.9,64.571,64.571,0,0,0-4.356,7.186,30.74,30.74,0,0,0-2.343,12.115c-.069,3.425-.017,6.9-.017,10.333v44.193a1.681,1.681,0,0,0,1.668,1.67h28.056a1.683,1.683,0,0,0,1.667-1.67V8090.65c0-3.432.052-6.908-.016-10.333a30.782,30.782,0,0,0-2.345-12.113,64.429,64.429,0,0,0-4.356-7.187,20.569,20.569,0,0,1-2.564-5.906l0,0s-.713-2.637-2.446-2.637h-7.934C849,8052.477,848.271,8054.871,848.208,8055.1Z" transform="translate(-836.224 -8013.673)" fill="#fff" fill-rule="evenodd"/>
      <rect id="Rectángulo_8426" data-name="Rectángulo 8426" width="11.323" height="11.76" rx="2.075" transform="translate(12.734 11.828)" fill="#2f4697"/>
      <path id="Rectángulo_8427" data-name="Rectángulo 8427" d="M2.155,0H15.163a2.156,2.156,0,0,1,2.156,2.156V9.6a2.158,2.158,0,0,1-2.158,2.158H2.156A2.156,2.156,0,0,1,0,9.606V2.155A2.155,2.155,0,0,1,2.155,0Z" transform="translate(9.735 15.615)" fill="#6b1a1c"/>
      <path id="Trazado_102192" data-name="Trazado 102192" d="M854.692,8018.837h2.589a1.668,1.668,0,0,1,1.663,1.663v14.319a2.964,2.964,0,0,1-2.956,2.956h0a2.963,2.963,0,0,1-2.954-2.956V8020.5A1.667,1.667,0,0,1,854.692,8018.837Z" transform="translate(-837.593 -8010.413)" fill="#c3322b" fill-rule="evenodd"/>
      <path id="Trazado_102193" data-name="Trazado 102193" d="M854.692,8018.837h2.589a1.668,1.668,0,0,1,1.663,1.663v2.522l-5.913-2.477v-.046A1.667,1.667,0,0,1,854.692,8018.837Z" transform="translate(-837.593 -8010.413)" fill="#131742" fill-rule="evenodd"/>
      <path id="Rectángulo_8428" data-name="Rectángulo 8428" d="M1.272,0h6.6A1.272,1.272,0,0,1,9.144,1.272v6.6A1.272,1.272,0,0,1,7.872,9.143h-6.6A1.273,1.273,0,0,1,0,7.871v-6.6A1.272,1.272,0,0,1,1.272,0Z" transform="translate(13.823)" fill="#c3322b"/>
      <path id="Trazado_102194" data-name="Trazado 102194" d="M853.645,8017.095h4.614a.567.567,0,0,0,.569-.568v-4.614a.57.57,0,0,0-.569-.569h-4.614a.57.57,0,0,0-.571.569v4.614a.572.572,0,0,0,.167.4.561.561,0,0,0,.4.167Zm4.614.413h-4.614a.985.985,0,0,1-.983-.981v-4.614a.983.983,0,0,1,.983-.979h4.614a.982.982,0,0,1,.98.979v4.614a.987.987,0,0,1-.98.981Z" transform="translate(-837.557 -8009.647)" fill="#131742" fill-rule="evenodd"/>
      <path id="Trazado_102195" data-name="Trazado 102195" d="M856.193,8015.5a1.045,1.045,0,1,0-1.045-1.045A1.046,1.046,0,0,0,856.193,8015.5Z" transform="translate(-837.798 -8009.888)" fill="#131742" fill-rule="evenodd"/>
    </g>
    <g id="Grupo_56910" data-name="Grupo 56910" transform="translate(864.15 8029.756)">
      <g id="Grupo_56906" data-name="Grupo 56906" transform="translate(13.262)">
        <path id="Trazado_102196" data-name="Trazado 102196" d="M909.579,8074.768c2.42,2.043.3,4.5.3,4.5s-6.606,7.767-9.466,11.445a17.633,17.633,0,0,0-3.408,11.174v43.548a3.487,3.487,0,0,0,3.473,3.474h31.2a3.485,3.485,0,0,0,3.473-3.474v-35.162c0-1.576-.005-7.868-.014-8.266-.294-14.019-6.845-14.212-7.753-22.327-.4-3.611-1.43-13.215-1.942-15.634a2.9,2.9,0,0,0-2.419-2.555H910.464a2.492,2.492,0,0,0-2.077,2.551v8.048A3.1,3.1,0,0,0,909.579,8074.768Z" transform="translate(-890.702 -8034.793)" fill="#e2e4f2" fill-rule="evenodd"/>
        <path id="Trazado_102197" data-name="Trazado 102197" d="M909.579,8075.072c2.42,2.043.3,4.5.3,4.5s-6.606,7.767-9.466,11.445a17.632,17.632,0,0,0-3.408,11.173v43.548a3.487,3.487,0,0,0,3.473,3.474h26.731a3.484,3.484,0,0,0,3.473-3.474v-35.162c0-1.576,0-7.868-.013-8.266-.294-14.019-6.845-14.211-7.753-22.327-.4-3.611-1.431-10.375-1.942-12.794a2.9,2.9,0,0,0-2.419-2.554H908.387v7.759A3.1,3.1,0,0,0,909.579,8075.072Z" transform="translate(-890.702 -8035.098)" fill="#fff" fill-rule="evenodd"/>
        <path id="Rectángulo_8429" data-name="Rectángulo 8429" d="M.336,0H1.5a.336.336,0,0,1,.336.336V3.588a.336.336,0,0,1-.336.336H.334A.334.334,0,0,1,0,3.59V.336A.336.336,0,0,1,.336,0Z" transform="translate(25.132 28.237)" fill="#bcd79e"/>
        <path id="Rectángulo_8430" data-name="Rectángulo 8430" d="M1.384,0H6.17A1.384,1.384,0,0,1,7.554,1.384V7.974A1.384,1.384,0,0,1,6.17,9.358H1.385A1.385,1.385,0,0,1,0,7.973V1.384A1.384,1.384,0,0,1,1.384,0Z" transform="translate(22.271 21.117)" fill="#ccdfaa"/>
        <path id="Trazado_102198" data-name="Trazado 102198" d="M909.008,8087.32a3.8,3.8,0,0,1,4.091-.943c2.8.745,5.04,3.266,6.922,3.727s-7.845,3.622-9.762,2.237A3.78,3.78,0,0,1,909.008,8087.32Z" transform="translate(-891.816 -8037.187)" fill="#bcd79e" fill-rule="evenodd"/>
        <path id="Trazado_102199" data-name="Trazado 102199" d="M908.124,8087.441c-1.973,2.342-3.923,4.712-5.783,7.1a15.432,15.432,0,0,0-2.953,9.856v43.548a1.335,1.335,0,0,0,1.326,1.326h31.2a1.336,1.336,0,0,0,1.327-1.326v-35.162c0-2.729.042-5.5-.014-8.222a24.5,24.5,0,0,0-1.865-9.637,41.578,41.578,0,0,0-3.151-5.217c-3.34-4.517-9.535,1.111-15.216.96C908.091,8090.537,908.043,8088.1,908.124,8087.441Z" transform="translate(-890.932 -8037.308)" fill="#bcd79e" fill-rule="evenodd"/>
        <path id="Trazado_102200" data-name="Trazado 102200" d="M908.124,8087.441c-1.973,2.342-3.923,4.712-5.783,7.1a15.432,15.432,0,0,0-2.953,9.856v43.548a1.335,1.335,0,0,0,1.326,1.326h29.939a3.417,3.417,0,0,0,.265-1.326v-35.162c0-1.576,0-7.869-.013-8.266-.206-9.79-3.461-12.837-5.716-16.549-3.413-.3-7.945,2.811-12.19,2.7C908.091,8090.537,908.043,8088.1,908.124,8087.441Z" transform="translate(-890.932 -8037.308)" fill="#ccdfaa" fill-rule="evenodd"/>
        <path id="Rectángulo_8431" data-name="Rectángulo 8431" d="M.816,0H4.6a.813.813,0,0,1,.813.813V3.12a.816.816,0,0,1-.816.816H.813A.813.813,0,0,1,0,3.124V.816A.816.816,0,0,1,.816,0Z" transform="translate(0 1.175)" fill="#6d6e7e"/>
        <path id="Rectángulo_8432" data-name="Rectángulo 8432" d="M1.652,0h5.7A1.652,1.652,0,0,1,9.009,1.652V7.706A1.651,1.651,0,0,1,7.358,9.357H1.652A1.652,1.652,0,0,1,0,7.705V1.652A1.652,1.652,0,0,1,1.652,0Z" transform="translate(21.543 14.322)" fill="#809b7f"/>
        <rect id="Rectángulo_8433" data-name="Rectángulo 8433" width="17.986" height="4.189" rx="2.087" transform="translate(17.928 11.828)" fill="#809b7f"/>
        <path id="Trazado_102201" data-name="Trazado 102201" d="M898.017,8037.515l-3.142,1.241v6.756a16.265,16.265,0,0,1-2.937,9.35s-.309.755.42.755h1.251a3.565,3.565,0,0,0,2.557-1.546c1.174-1.535,5.979-12.774,5.979-12.774Z" transform="translate(-890.204 -8032.47)" fill="#9ab87e" fill-rule="evenodd"/>
        <path id="Trazado_102202" data-name="Trazado 102202" d="M898.339,8037.515l-3.142,1.241v3l5.5,3.592c1-2.256,1.766-4.053,1.766-4.053Z" transform="translate(-890.526 -8032.47)" fill="#809b7f" fill-rule="evenodd"/>
        <path id="Trazado_102203" data-name="Trazado 102203" d="M928.242,8040.837v3.277c0,1.737-1.251,1.737-1.251,1.737h-18.7a3.436,3.436,0,0,1-1.61-.742s-5.594-4.93-6.692-5.875-3.629-1.021-3.629-1.021l2.964-3.885,17.269-2.4h3.141a3.478,3.478,0,0,1,2.094.575c.589.614,5.34,5.8,5.34,5.8A3.9,3.9,0,0,1,928.242,8040.837Z" transform="translate(-890.638 -8031.929)" fill="#8fad7d" fill-rule="evenodd"/>
        <path id="Rectángulo_8434" data-name="Rectángulo 8434" d="M1.713,0h10.35a1.715,1.715,0,0,1,1.715,1.715V7.642a1.715,1.715,0,0,1-1.715,1.715H1.713A1.713,1.713,0,0,1,0,7.644V1.713A1.713,1.713,0,0,1,1.713,0Z" transform="translate(19.159 17.337)" fill="#8fad7d"/>
        <path id="Rectángulo_8435" data-name="Rectángulo 8435" d="M1.713,0H8.726a1.715,1.715,0,0,1,1.715,1.715V7.642A1.715,1.715,0,0,1,8.726,9.357H1.713A1.713,1.713,0,0,1,0,7.644V1.713A1.713,1.713,0,0,1,1.713,0Z" transform="translate(19.159 17.337)" fill="#9ab87e"/>
        <path id="Rectángulo_8436" data-name="Rectángulo 8436" d="M1.3,0H24.091a1.3,1.3,0,0,1,1.3,1.3V4.984a1.3,1.3,0,0,1-1.3,1.3H1.3A1.3,1.3,0,0,1,0,4.984V1.3A1.3,1.3,0,0,1,1.3,0Z" transform="translate(2.503 0)" fill="#9ab87e"/>
        <path id="Rectángulo_8437" data-name="Rectángulo 8437" d="M3.772,0H18.239a3.772,3.772,0,0,1,3.772,3.772V29.456a3.77,3.77,0,0,1-3.77,3.77H3.774A3.774,3.774,0,0,1,0,29.452V3.772A3.772,3.772,0,0,1,3.772,0Z" transform="translate(14.378 68.77)" fill="#fff"/>
        <path id="Trazado_102204" data-name="Trazado 102204" d="M911.8,8125.192l3.154-8.306a.755.755,0,0,1,.707-.485l6.826.04a.752.752,0,0,1,.663,1.176l-2.666,3.893h1.765a.754.754,0,0,1,.666,1.109l-6.149,11.579a.753.753,0,0,1-1.394-.543l1.983-7.44H912.5a.824.824,0,0,1-.266-.05A.752.752,0,0,1,911.8,8125.192Z" transform="translate(-892.13 -8040.115)" fill="#ccdfaa" fill-rule="evenodd"/>
      </g>
      <g id="Grupo_56907" data-name="Grupo 56907" transform="translate(43.612 2.431)">
        <rect id="Rectángulo_8438" data-name="Rectángulo 8438" width="4.734" height="43.228" transform="translate(39.279 42.545)" fill="#c3322b"/>
        <path id="Trazado_102205" data-name="Trazado 102205" d="M940.048,8045.471v1.293a4.744,4.744,0,0,1-1.431,3.156c-1.458,1.459-11.269,11.269-11.269,11.269s-3.717,3.4-3.717,6.993v73.18A5.655,5.655,0,0,0,929.27,8147h35.652a5.655,5.655,0,0,0,5.641-5.639v-20.786a2.863,2.863,0,0,0-3.107-2.777h-6.849a3.293,3.293,0,0,1-2.778-3.609V8084.7a3.289,3.289,0,0,1,2.778-3.608h6.849c3.026,0,2.968-1.61,3.107-2.778v-10.13c0-3.6-3.719-6.993-3.719-6.993l-11.269-11.269a4.74,4.74,0,0,1-1.43-3.156v-4.556h-14.1Z" transform="translate(-923.631 -8035.355)" fill="#465ea6" fill-rule="evenodd"/>
        <path id="Rectángulo_8439" data-name="Rectángulo 8439" d="M1.716,0H15.11a1.715,1.715,0,0,1,1.715,1.715V7.642a1.716,1.716,0,0,1-1.716,1.716H1.714A1.714,1.714,0,0,1,0,7.644V1.716A1.716,1.716,0,0,1,1.716,0Z" transform="translate(15.052)" fill="#c3322b"/>
        <path id="Trazado_102206" data-name="Trazado 102206" d="M944.445,8036.171v6.258a1.555,1.555,0,0,0,1.55,1.55h-4.148c-.061,0-.122-.006-.183-.012a1.555,1.555,0,0,1-1.365-1.539v-6.258a1.553,1.553,0,0,1,1.548-1.55h4.148A1.554,1.554,0,0,0,944.445,8036.171Z" transform="translate(-925.246 -8034.621)" fill="#a42429" fill-rule="evenodd"/>
        <path id="Trazado_102207" data-name="Trazado 102207" d="M934.619,8061.457s-3.717,3.4-3.717,6.994v73.179a5.654,5.654,0,0,0,5.638,5.639h-7.27a5.655,5.655,0,0,1-5.639-5.639v-73.179c0-3.6,3.717-6.994,3.717-6.994l11.269-11.269a4.745,4.745,0,0,0,1.431-3.156v-2.062c.061,0,.122.011.183.011h7.087v2.051a4.738,4.738,0,0,1-1.432,3.156C944.43,8051.646,934.619,8061.457,934.619,8061.457Z" transform="translate(-923.631 -8035.624)" fill="#2f4697" fill-rule="evenodd"/>
        <path id="Trazado_102208" data-name="Trazado 102208" d="M958.377,8052.471a.535.535,0,0,0-.768.745l8.6,8.873a.534.534,0,1,0,.768-.743l-8.6-8.875Zm10.794,11.141a.535.535,0,1,0-.768.746l.923.95a.534.534,0,0,0,.768-.743Z" transform="translate(-926.909 -8036.335)" fill="#fff" fill-rule="evenodd"/>
      </g>
      <g id="Grupo_56908" data-name="Grupo 56908" transform="translate(78.092 0.002)">
        <path id="Trazado_102209" data-name="Trazado 102209" d="M981.365,8074.768c2.42,2.044.308,4.5.308,4.5s-6.61,7.766-9.47,11.445a17.649,17.649,0,0,0-3.406,11.174v43.546a3.485,3.485,0,0,0,3.473,3.473h31.2a3.484,3.484,0,0,0,3.473-3.473v-35.161c0-1.577,0-7.868-.012-8.268-.3-14.017-6.845-14.209-7.754-22.325-.4-3.613-1.429-13.217-1.941-15.635a2.9,2.9,0,0,0-2.419-2.554H982.253a2.492,2.492,0,0,0-2.077,2.549v8.048A3.091,3.091,0,0,0,981.365,8074.768Z" transform="translate(-962.488 -8034.795)" fill="#ced1e8" fill-rule="evenodd"/>
        <path id="Trazado_102210" data-name="Trazado 102210" d="M981.365,8075.072c2.42,2.045.308,4.5.308,4.5s-6.61,7.766-9.47,11.445a17.649,17.649,0,0,0-3.406,11.174v43.546a3.485,3.485,0,0,0,3.473,3.474H999a3.484,3.484,0,0,0,3.473-3.474v-35.16c0-1.577-.005-7.869-.012-8.268-.3-14.017-6.845-14.209-7.754-22.326-.4-3.611-1.432-10.377-1.941-12.8a2.906,2.906,0,0,0-2.42-2.554H980.176v7.759A3.09,3.09,0,0,0,981.365,8075.072Z" transform="translate(-962.488 -8035.1)" fill="#fff" fill-rule="evenodd"/>
        <path id="Rectángulo_8440" data-name="Rectángulo 8440" d="M.336,0H1.5a.338.338,0,0,1,.338.338v3.25a.336.336,0,0,1-.336.336H.338A.338.338,0,0,1,0,3.585V.336A.336.336,0,0,1,.336,0Z" transform="translate(25.131 28.237)" fill="#8fccee"/>
        <path id="Rectángulo_8441" data-name="Rectángulo 8441" d="M1.384,0H6.17A1.386,1.386,0,0,1,7.556,1.386V7.972A1.384,1.384,0,0,1,6.172,9.356H1.386A1.386,1.386,0,0,1,0,7.971V1.384A1.384,1.384,0,0,1,1.384,0Z" transform="translate(22.271 21.117)" fill="#bddff2"/>
        <path id="Trazado_102211" data-name="Trazado 102211" d="M980.794,8087.32a3.8,3.8,0,0,1,4.091-.942c2.8.746,5.042,3.267,6.923,3.728s-7.846,3.621-9.763,2.236A3.781,3.781,0,0,1,980.794,8087.32Z" transform="translate(-963.603 -8037.189)" fill="#8fccee" fill-rule="evenodd"/>
        <path id="Trazado_102212" data-name="Trazado 102212" d="M979.91,8087.441c-1.971,2.344-3.923,4.713-5.781,7.1a15.431,15.431,0,0,0-2.956,9.856v43.546a1.337,1.337,0,0,0,1.328,1.326h31.2a1.337,1.337,0,0,0,1.328-1.326v-35.16c0-2.73.042-5.5-.014-8.223a24.478,24.478,0,0,0-1.864-9.638,41.916,41.916,0,0,0-3.15-5.216c-3.341-4.517-9.536,1.111-15.215.959C979.877,8090.538,979.833,8088.1,979.91,8087.441Z" transform="translate(-962.718 -8037.31)" fill="#8fccee" fill-rule="evenodd"/>
        <path id="Trazado_102213" data-name="Trazado 102213" d="M979.91,8087.441c-1.971,2.344-3.923,4.713-5.781,7.1a15.431,15.431,0,0,0-2.956,9.856v43.546a1.337,1.337,0,0,0,1.328,1.326h29.939a3.459,3.459,0,0,0,.263-1.326v-35.16c0-1.577-.005-7.869-.012-8.268-.207-9.788-3.461-12.835-5.716-16.547-3.414-.3-7.946,2.811-12.188,2.7C979.877,8090.538,979.833,8088.1,979.91,8087.441Z" transform="translate(-962.718 -8037.31)" fill="#bddff2" fill-rule="evenodd"/>
        <path id="Rectángulo_8442" data-name="Rectángulo 8442" d="M.814,0H4.6a.815.815,0,0,1,.815.815V3.121a.814.814,0,0,1-.814.814H.815A.815.815,0,0,1,0,3.119V.814A.814.814,0,0,1,.814,0Z" transform="translate(0 1.175)" fill="#131742"/>
        <rect id="Rectángulo_8443" data-name="Rectángulo 8443" width="9.011" height="9.356" rx="1.651" transform="translate(21.543 14.322)" fill="#131742"/>
        <rect id="Rectángulo_8444" data-name="Rectángulo 8444" width="17.984" height="4.191" rx="2.087" transform="translate(17.93 11.826)" fill="#1d204d"/>
        <path id="Trazado_102214" data-name="Trazado 102214" d="M969.807,8037.516l-3.146,1.241v6.755a16.262,16.262,0,0,1-2.938,9.35s-.3.753.424.753H965.4a3.561,3.561,0,0,0,2.557-1.546c1.174-1.533,5.976-12.774,5.976-12.774Z" transform="translate(-961.99 -8032.472)" fill="#c3322b" fill-rule="evenodd"/>
        <path id="Trazado_102215" data-name="Trazado 102215" d="M970.128,8037.516l-3.146,1.241v3l5.506,3.593c1-2.257,1.763-4.055,1.763-4.055Z" transform="translate(-962.312 -8032.472)" fill="#a42429" fill-rule="evenodd"/>
        <path id="Trazado_102216" data-name="Trazado 102216" d="M1000.029,8040.838v3.276c0,1.739-1.251,1.739-1.251,1.739h-18.7a3.428,3.428,0,0,1-1.609-.744s-5.6-4.928-6.695-5.874-3.628-1.021-3.628-1.021l2.964-3.884,17.269-2.4h3.139a3.464,3.464,0,0,1,2.094.576c.589.614,5.34,5.8,5.34,5.8A3.891,3.891,0,0,1,1000.029,8040.838Z" transform="translate(-962.425 -8031.931)" fill="#c3322b" fill-rule="evenodd"/>
        <path id="Rectángulo_8445" data-name="Rectángulo 8445" d="M1.715,0H12.064A1.716,1.716,0,0,1,13.78,1.716V7.643a1.715,1.715,0,0,1-1.715,1.715H1.717A1.717,1.717,0,0,1,0,7.641V1.715A1.715,1.715,0,0,1,1.715,0Z" transform="translate(19.158 17.336)" fill="#a42429"/>
        <path id="Rectángulo_8446" data-name="Rectángulo 8446" d="M1.715,0H8.727a1.716,1.716,0,0,1,1.716,1.716V7.643A1.715,1.715,0,0,1,8.729,9.357H1.717A1.717,1.717,0,0,1,0,7.641V1.715A1.715,1.715,0,0,1,1.715,0Z" transform="translate(19.158 17.336)" fill="#c3322b"/>
        <path id="Rectángulo_8447" data-name="Rectángulo 8447" d="M1.3,0h22.79a1.3,1.3,0,0,1,1.3,1.3V4.985a1.3,1.3,0,0,1-1.3,1.3H1.3A1.3,1.3,0,0,1,0,4.981V1.3A1.3,1.3,0,0,1,1.3,0Z" transform="translate(2.503)" fill="#ce542b"/>
        <rect id="Rectángulo_8448" data-name="Rectángulo 8448" width="22.011" height="33.229" rx="3.774" transform="translate(14.38 68.768)" fill="#131742"/>
        <path id="Trazado_102217" data-name="Trazado 102217" d="M983.584,8125.2l3.156-8.308a.75.75,0,0,1,.707-.485l6.825.038a.742.742,0,0,1,.464.13.755.755,0,0,1,.2,1.047l-2.665,3.891h1.763a.777.777,0,0,1,.355.088.756.756,0,0,1,.311,1.021l-6.147,11.579a.754.754,0,0,1-1.4-.544l1.985-7.44h-4.852a.687.687,0,0,1-.263-.05A.75.75,0,0,1,983.584,8125.2Z" transform="translate(-963.916 -8040.116)" fill="#8fccee" fill-rule="evenodd"/>
      </g>
      <g id="Grupo_56909" data-name="Grupo 56909" transform="translate(0 54.403)">
        <path id="Trazado_102218" data-name="Trazado 102218" d="M897.7,8099.522v1a2.9,2.9,0,0,0,1.182,2.1c4.619,3.465,8.66,5.722,9.762,8.295s-.5,3.911-.5,3.911-.97.84-1.916,1.68a2.754,2.754,0,0,0-.761,2.23s2.045,24.935,2.045,29.343a4.3,4.3,0,0,1-4.2,4.514H881.059a4.3,4.3,0,0,1-4.2-4.514c0-4.408,2.047-29.343,2.047-29.343a2.756,2.756,0,0,0-.762-2.23c-.945-.84-1.917-1.68-1.917-1.68s-1.6-1.34-.5-3.911,5.143-4.83,9.762-8.295a2.9,2.9,0,0,0,1.18-2.1v-1H897.7Z" transform="translate(-875.34 -8092.882)" fill="#efc432" fill-rule="evenodd"/>
        <path id="Trazado_102219" data-name="Trazado 102219" d="M881.109,8120.89s.046-.8,1.176-.89,6.838-.184,10.887,3.316S881.757,8128.605,881.109,8120.89Z" transform="translate(-875.899 -8094.863)" fill="#f0d1c6" fill-rule="evenodd"/>
        <path id="Trazado_102220" data-name="Trazado 102220" d="M880.891,8120.989q-.612,7.465-1.166,14.937c-.216,2.908-.426,5.817-.61,8.729-.112,1.8-.261,3.7-.261,5.5a2.548,2.548,0,0,0,1.234,2.464,3.627,3.627,0,0,0,1.312.4h22.2a2.6,2.6,0,0,0,2.6-2.861c0-1.8-.149-3.7-.262-5.5-.182-2.911-.393-5.82-.608-8.729q-.368-4.948-.76-9.9c-.657-5.754-6.239-5.473-14.553-2.7S880.891,8120.989,880.891,8120.989Z" transform="translate(-875.68 -8094.962)" fill="#fff" fill-rule="evenodd"/>
        <path id="Rectángulo_8449" data-name="Rectángulo 8449" d="M1.322,0h10.32a1.322,1.322,0,0,1,1.322,1.322V5.889a1.32,1.32,0,0,1-1.32,1.32H1.322A1.322,1.322,0,0,1,0,5.888V1.322A1.322,1.322,0,0,1,1.322,0Z" transform="translate(10.365)" fill="#131742"/>
        <rect id="Rectángulo_8450" data-name="Rectángulo 8450" width="9.298" height="7.21" rx="1.322" transform="translate(10.365)" fill="#1d204d"/>
        <path id="Trazado_102221" data-name="Trazado 102221" d="M899.17,8100.15h-6.337v.428a2.9,2.9,0,0,0,1.182,2.1c4.618,3.464,8.659,5.721,9.762,8.294s-.5,3.911-.5,3.911-.97.841-1.915,1.681a2.756,2.756,0,0,0-.762,2.23s.018.213.051.6c3.028.081,4.911,1.414,5.276,4.609q.393,4.948.76,9.9c.215,2.908.425,5.816.608,8.728.113,1.8.262,3.7.262,5.5a2.6,2.6,0,0,1-2.6,2.861h-3.174a4.73,4.73,0,0,1-3.338,1.653h6.565a4.3,4.3,0,0,0,4.2-4.514c0-4.408-2.045-29.342-2.045-29.342a2.753,2.753,0,0,1,.761-2.23c.946-.84,1.916-1.681,1.916-1.681s1.6-1.34.5-3.911-5.144-4.83-9.762-8.294a2.9,2.9,0,0,1-1.182-2.1v-.45A1.163,1.163,0,0,1,899.17,8100.15Z" transform="translate(-877.035 -8092.94)" fill="#df932f" fill-rule="evenodd"/>
        <path id="Trazado_102222" data-name="Trazado 102222" d="M906.764,8126.073c-.365-3.2-2.248-4.528-5.276-4.609.311,3.828,2,24.735,2,28.738a4.551,4.551,0,0,1-.862,2.861H905.8a2.6,2.6,0,0,0,2.6-2.861c0-1.805-.149-3.7-.262-5.5-.182-2.911-.393-5.82-.608-8.728Q907.156,8131.024,906.764,8126.073Z" transform="translate(-877.873 -8095.008)" fill="#f0d1c6" fill-rule="evenodd"/>
        <path id="Trazado_102223" data-name="Trazado 102223" d="M886.187,8103.952a.413.413,0,1,1,.5.657l-.479.363a.412.412,0,1,1-.5-.653l.48-.367Zm-1.971,1.505a.412.412,0,0,1,.5.654l-6.444,4.92a.411.411,0,1,1-.5-.653Z" transform="translate(-875.56 -8093.302)" fill="#fff" fill-rule="evenodd"/>
        <rect id="Rectángulo_8451" data-name="Rectángulo 8451" width="8.44" height="9.408" rx="1.071" transform="translate(5.416 46.556)" fill="#131742"/>
        <path id="Trazado_102224" data-name="Trazado 102224" d="M887.692,8146.144a.128.128,0,0,1-.126-.128.125.125,0,0,1,.126-.126h1.451a.127.127,0,0,1,.127.126.13.13,0,0,1-.127.128Zm0,5.239a.126.126,0,0,1-.126-.128.128.128,0,0,1,.126-.127h1.451a.129.129,0,0,1,.127.127.127.127,0,0,1-.127.128Zm0-1.048a.127.127,0,0,1,0-.254h1.451a.127.127,0,1,1,0,.254Zm0-1.049a.127.127,0,0,1-.126-.128.125.125,0,0,1,.126-.124h1.451a.127.127,0,0,1,.127.124.128.128,0,0,1-.127.128Zm0-1.048a.126.126,0,0,1-.126-.127.128.128,0,0,1,.126-.127h1.451a.13.13,0,0,1,.127.127.127.127,0,0,1-.127.127Zm0-1.047a.127.127,0,0,1,0-.255h1.451a.127.127,0,0,1,0,.255Z" transform="translate(-876.524 -8097.375)" fill="#fff" fill-rule="evenodd"/>
        <path id="Trazado_102225" data-name="Trazado 102225" d="M885.827,8149.423h0a1.642,1.642,0,1,1-3.169.6,1.664,1.664,0,0,1,.113-.6h0l1.526-3.885Z" transform="translate(-876.049 -8097.341)" fill="#8fccee" fill-rule="evenodd"/>
      </g>
    </g>
  </g>
</svg>
