<svg xmlns="http://www.w3.org/2000/svg" width="79.951" height="80.049" viewBox="0 0 79.951 80.049">
  <g id="Grupo_57152" data-name="Grupo 57152" transform="translate(-182.062 -2864.869)">
    <g id="Grupo_57153" data-name="Grupo 57153">
      <path id="Trazado_102773" data-name="Trazado 102773" d="M239.234,2868.775a40.007,40.007,0,0,0-48.948,60.443h0a40.126,40.126,0,0,0,14.432,11.754v.01c.043.02.087.036.13.057s.078.041.118.06v-.009a39.938,39.938,0,0,0,41.481-4.509l.006,0,5.463-5.112a40.086,40.086,0,0,0,6.195-9.339l0,0h0A40.045,40.045,0,0,0,239.234,2868.775Z" fill="#f94e4e"/>
    </g>
    <g id="Grupo_57155" data-name="Grupo 57155">
      <path id="Trazado_102774" data-name="Trazado 102774" d="M222.037,2882.3h0a14.8,14.8,0,0,0-14.8,14.8v19.423h29.6V2897.1A14.8,14.8,0,0,0,222.037,2882.3Z" fill="#69d1ff"/>
      <path id="Trazado_102775" data-name="Trazado 102775" d="M225.141,2882.624a14.824,14.824,0,0,0-3.1-.327h0a14.8,14.8,0,0,0-14.8,14.8v19.423h6.208V2897.1A14.8,14.8,0,0,1,225.141,2882.624Z" fill="#bdf1ff"/>
      <rect id="Rectángulo_8899" data-name="Rectángulo 8899" width="4.339" height="8.904" transform="translate(219.709 2907.616)" fill="#a0871d"/>
      <path id="Trazado_102776" data-name="Trazado 102776" d="M239.744,2915.44v5.753H204.332v-5.753a1.106,1.106,0,0,1,1.106-1.106h33.2A1.106,1.106,0,0,1,239.744,2915.44Z" fill="#2d5b68"/>
      <path id="Trazado_102777" data-name="Trazado 102777" d="M207.3,2914.334v6.859h-2.967v-5.753a1.106,1.106,0,0,1,1.106-1.106Z" fill="#0e7889"/>
      <path id="Trazado_102778" data-name="Trazado 102778" d="M242.811,2920.479v5.906a1.106,1.106,0,0,1-1.106,1.106H202.37a1.106,1.106,0,0,1-1.106-1.106v-5.906a1.106,1.106,0,0,1,1.106-1.106h39.335A1.106,1.106,0,0,1,242.811,2920.479Z" fill="#bdf1ff"/>
      <path id="Trazado_102779" data-name="Trazado 102779" d="M204.332,2919.373v8.118h-1.963a1.105,1.105,0,0,1-1.1-1.106v-5.906a1.105,1.105,0,0,1,1.1-1.106Z" fill="#69d1ff"/>
      <g id="Grupo_57154" data-name="Grupo 57154">
        <circle id="Elipse_4157" data-name="Elipse 4157" cx="5.249" cy="5.249" r="5.249" transform="translate(216.629 2899.408)" fill="#fad228"/>
      </g>
    </g>
  </g>
</svg>
