<svg xmlns="http://www.w3.org/2000/svg" width="126" height="126" viewBox="0 0 126 126">
  <g id="Grupo_57244" data-name="Grupo 57244" transform="translate(-239.5 -24035.465)">
    <g id="Elipse_4086" data-name="Elipse 4086" transform="translate(239.5 24035.465)" fill="#fff" stroke="#09b291" stroke-width="5">
      <circle cx="63" cy="63" r="63" stroke="none"/>
      <circle cx="63" cy="63" r="60.5" fill="none"/>
    </g>
    <g id="Grupo_56740" data-name="Grupo 56740" transform="translate(-1249.615 23764.559)">
      <path id="Trazado_101946" data-name="Trazado 101946" d="M1587.866,354.947a1.411,1.411,0,1,0,.414,1A1.422,1.422,0,0,0,1587.866,354.947Z" fill="#065949"/>
      <path id="Trazado_101947" data-name="Trazado 101947" d="M1568.34,335.421l.005-3.292a20.535,20.535,0,0,0-6.055-14.648l-3.4-3.4a1.413,1.413,0,0,0-2,2l3.4,3.4a17.729,17.729,0,0,1,5.228,12.647l-.005,3.878a1.408,1.408,0,0,0,.414,1l15.945,15.945a1.412,1.412,0,0,0,2-2Z" fill="#065949"/>
      <path id="Trazado_101948" data-name="Trazado 101948" d="M1552.765,350.167a1.412,1.412,0,0,0-1-.414h0l-6,.009h-.026a17.787,17.787,0,0,1-9.94-3.025l-8.836-5.924a2.6,2.6,0,0,1,2.8-4.391l3.819,2.316a1.992,1.992,0,0,0,2.441-3.112l-16.509-16.51a2.518,2.518,0,0,1,3.366-3.736l13.051,13.031a1.413,1.413,0,1,0,2-2l-16.364-16.344a2.518,2.518,0,1,1,3.561-3.561l16.355,16.354a1.413,1.413,0,0,0,2-2l-13.042-13.041a2.518,2.518,0,0,1,3.736-3.366l9.538,9.557,3.319,3.3a1.413,1.413,0,0,0,2-2l-10.137-10.137a2.518,2.518,0,0,1,3.736-3.366l6.274,6.273a1.412,1.412,0,0,0,2-2l-6.273-6.274a42.662,42.662,0,0,1-16.011,2.645,5.308,5.308,0,0,0-1.329,2.213l-.161-.162a5.343,5.343,0,1,0-7.557,7.556l.159.159a5.346,5.346,0,0,0-2.21,8.889L1529.8,333.4a5.446,5.446,0,0,0-5.838,2.134,5.429,5.429,0,0,0,1.424,7.624l8.835,5.925a20.649,20.649,0,0,0,11.544,3.5l5.414-.008,17.589,17.589a1.413,1.413,0,1,0,2-2Z" fill="#065949"/>
      <path id="Trazado_101949" data-name="Trazado 101949" d="M1554.441,330.081a4.238,4.238,0,1,0-4.239-4.238A4.244,4.244,0,0,0,1554.441,330.081Zm0-5.651a1.413,1.413,0,1,1-1.413,1.413A1.415,1.415,0,0,1,1554.441,324.43Z" fill="#065949"/>
      <path id="Trazado_101950" data-name="Trazado 101950" d="M1546.391,345.525a4.238,4.238,0,1,0-4.238-4.238A4.243,4.243,0,0,0,1546.391,345.525Zm0-5.651a1.413,1.413,0,1,1-1.412,1.413A1.414,1.414,0,0,1,1546.391,339.874Z" fill="#065949"/>
      <path id="Trazado_101951" data-name="Trazado 101951" d="M1568.333,345.155a4.238,4.238,0,1,0,4.238,4.238A4.243,4.243,0,0,0,1568.333,345.155Zm0,5.651a1.413,1.413,0,1,1,1.412-1.413A1.414,1.414,0,0,1,1568.333,350.806Z" fill="#065949"/>
      <path id="Trazado_101952" data-name="Trazado 101952" d="M1580.044,362.1a4.238,4.238,0,1,0,4.238,4.238A4.243,4.243,0,0,0,1580.044,362.1Zm0,5.651a1.413,1.413,0,1,1,1.413-1.413A1.415,1.415,0,0,1,1580.044,367.752Z" fill="#065949"/>
      <path id="Trazado_101953" data-name="Trazado 101953" d="M1545.156,330.767a1.417,1.417,0,1,0-1,.412A1.432,1.432,0,0,0,1545.156,330.767Z" fill="#065949"/>
      <path id="Trazado_101954" data-name="Trazado 101954" d="M1560.7,338.1a1.412,1.412,0,1,0-1,.414A1.423,1.423,0,0,0,1560.7,338.1Z" fill="#065949"/>
      <path id="Trazado_101955" data-name="Trazado 101955" d="M1556.767,346.452a1.411,1.411,0,1,0,1-.414A1.423,1.423,0,0,0,1556.767,346.452Z" fill="#065949"/>
      <path id="Trazado_101956" data-name="Trazado 101956" d="M1570.711,358.15a1.414,1.414,0,1,0,1,.414A1.422,1.422,0,0,0,1570.711,358.15Z" fill="#065949"/>
      <path id="Trazado_101957" data-name="Trazado 101957" d="M1553.893,312.495a1.415,1.415,0,1,0-1-.414A1.421,1.421,0,0,0,1553.893,312.495Z" fill="#065949"/>
    </g>
  </g>
</svg>
