<svg xmlns="http://www.w3.org/2000/svg" width="126" height="126" viewBox="0 0 126 126">
  <g id="Grupo_57247" data-name="Grupo 57247" transform="translate(-431.25 -24313.465)">
    <g id="Elipse_4091" data-name="Elipse 4091" transform="translate(431.25 24313.465)" fill="#fff" stroke="#09b291" stroke-width="5">
      <circle cx="63" cy="63" r="63" stroke="none"/>
      <circle cx="63" cy="63" r="60.5" fill="none"/>
    </g>
    <g id="Grupo_56744" data-name="Grupo 56744" transform="translate(-1287.092 24041.313)">
      <g id="Corona_Virus_Symptoms_Shortness_of_breath" data-name="Corona Virus Symptoms Shortness of breath">
        <g id="Outline">
          <path id="Trazado_101963" data-name="Trazado 101963" d="M1803.075,341.427l-1.38-4.857c8.971-22.326.785-37.981-7.52-36.78-2.617-2.735-6.4-3.043-11.532-.944a1.12,1.12,0,0,0,.848,2.074c8.447-3.453,8.727,1.623,10.537,1.18,7.266-1.781,13.386,13.785,5.761,33.2-6.109-.847-6.543-4.762-8.118-3.2a1.121,1.121,0,0,0-.005,1.585,13.389,13.389,0,0,0,7.975,3.85l1.2,4.208c-9.99,9.346-14.755,8.129-13.809,10.4a1.12,1.12,0,0,0,1.465.6h0a50.619,50.619,0,0,0,13.683-9.184c17.489,13.764,10.275,25.626,13.9,25.626a1.121,1.121,0,0,0,1.121-1.121c0-11.742-5-19.619-14.122-26.645Z" fill="#065949"/>
          <path id="Trazado_101964" data-name="Trazado 101964" d="M1794.375,323.108c-1.939-6.828-9.483-4.674-7.851,1.066a1.121,1.121,0,0,0,2.156-.613c-.833-2.93,2.436-3.725,3.54.159.668,2.354.337,4.564-2.009,5.231a1.121,1.121,0,0,0,.612,2.156c3.564-1.013,4.585-4.367,3.552-8Z" fill="#065949"/>
          <path id="Trazado_101965" data-name="Trazado 101965" d="M1785.011,343.451c1.15,3.25.921,5.563,2.609,5.083a1.12,1.12,0,0,0,.772-1.384h0l-1.531-5.389a1.121,1.121,0,0,0-1.385-.772h0c-7.663,1.935-8.5,3-10.214,2.049a2.781,2.781,0,0,1-1.33-1.681c-1.422-4.412-1.114-5.33-2.152-5.623l-2.913-.821c2.31-6.456,2.448-2.357.112-10.985,3.407.3,5.384-.926,14.218-3.26a1.121,1.121,0,0,0-.613-2.156l-10.028,2.849c-6.438,1.708-10.49-2.908-12.676-9.136,3.929.8,8.656-2.681,15.883-7.148a1.121,1.121,0,0,0-1.179-1.906c-7.013,4.335-13.049,8.758-15.667,6.184a1.115,1.115,0,0,0-1.92.99c1.05,5.036,4.348,11.222,9.5,13.047l1.9,6.7c-2.854,7.534-3.529,5.829,2.169,7.632,1.124,3.066.864,5.749,3.6,7.275a5.006,5.006,0,0,0,3.834.446Z" fill="#065949"/>
          <path id="Trazado_101966" data-name="Trazado 101966" d="M1801.438,350.115a7.839,7.839,0,0,0-7.811,7.868v.008l.037,10.086a1.121,1.121,0,0,0,2.241-.009l-.037-10.085a5.6,5.6,0,1,1,11.206-.047l.037,10.085a1.122,1.122,0,0,0,1.121,1.117,1.139,1.139,0,0,0,1.12-1.125l-.037-10.086a7.853,7.853,0,0,0-7.877-7.812Z" fill="#065949"/>
          <path id="Trazado_101967" data-name="Trazado 101967" d="M1783.746,357.044l-.111-.265c.748-4.171,2.415-6.3.655-8.557-1.017-1.3-3.474-2.122-4-.714-3.509,9.529-3.523,9.017-3.411,9.578,2.386,10.259,1.681,12.107,3.339,12.107a1.12,1.12,0,0,0,1.122-1.119,1.182,1.182,0,0,0-.022-.221l-2.179-10.893,2.911-7.761c1.541.827.439,2.258-.677,7.4-.158.631.07.554,2.294,6.09a1.122,1.122,0,0,0,1.254.669c1.479-.3.681-2.176.9-5.086,0-1.882,2.241-1.883,2.241,0,0,6.728.271,6.828-1.913,9.013a1.12,1.12,0,0,0,1.585,1.584c2.944-2.944,2.569-4.051,2.569-10.6a3.351,3.351,0,0,0-6.556-1.223Z" fill="#065949"/>
          <path id="Trazado_101968" data-name="Trazado 101968" d="M1774.614,334.455a1.121,1.121,0,0,0,0-2.242A1.121,1.121,0,0,0,1774.614,334.455Z" fill="#065949"/>
          <path id="Trazado_101969" data-name="Trazado 101969" d="M1746.6,342.3a1.121,1.121,0,0,0,0,2.241A1.121,1.121,0,0,0,1746.6,342.3Z" fill="#065949"/>
          <path id="Trazado_101970" data-name="Trazado 101970" d="M1751.081,344.54a1.121,1.121,0,0,0,0-2.241A1.121,1.121,0,0,0,1751.081,344.54Z" fill="#065949"/>
          <path id="Trazado_101971" data-name="Trazado 101971" d="M1755.564,344.54a1.121,1.121,0,0,0,0-2.241A1.121,1.121,0,0,0,1755.564,344.54Z" fill="#065949"/>
          <path id="Trazado_101972" data-name="Trazado 101972" d="M1767.89,347.9a1.121,1.121,0,0,0,2.242,0A1.121,1.121,0,0,0,1767.89,347.9Z" fill="#065949"/>
          <path id="Trazado_101973" data-name="Trazado 101973" d="M1779.1,334.455a1.121,1.121,0,0,0,0-2.242A1.121,1.121,0,0,0,1779.1,334.455Z" fill="#065949"/>
          <path id="Trazado_101974" data-name="Trazado 101974" d="M1793.664,343.419a1.121,1.121,0,0,0-2.241,0A1.121,1.121,0,0,0,1793.664,343.419Z" fill="#065949"/>
          <path id="Trazado_101975" data-name="Trazado 101975" d="M1789.182,340.058a1.121,1.121,0,0,0,2.241,0A1.121,1.121,0,0,0,1789.182,340.058Z" fill="#065949"/>
          <path id="Trazado_101976" data-name="Trazado 101976" d="M1785.82,336.7a1.121,1.121,0,0,0,2.241,0A1.121,1.121,0,0,0,1785.82,336.7Z" fill="#065949"/>
          <path id="Trazado_101977" data-name="Trazado 101977" d="M1783.579,335.575a1.121,1.121,0,0,0,0-2.241A1.121,1.121,0,0,0,1783.579,335.575Z" fill="#065949"/>
          <path id="Trazado_101978" data-name="Trazado 101978" d="M1779.1,303.078a1.121,1.121,0,0,0,0-2.241A1.121,1.121,0,0,0,1779.1,303.078Z" fill="#065949"/>
          <path id="Trazado_101979" data-name="Trazado 101979" d="M1754.443,340.058h10.086a1.121,1.121,0,0,0,0-2.242h-10.086a2.241,2.241,0,1,1,2.241-2.241,1.121,1.121,0,0,0,1.121,1.121c2.354,0,.91-5.6-3.362-5.6a4.483,4.483,0,0,0,0,8.965Z" fill="#065949"/>
          <path id="Trazado_101980" data-name="Trazado 101980" d="M1764.529,346.781h-10.086a4.482,4.482,0,1,0,4.483,4.483,1.121,1.121,0,0,0-2.242,0,2.241,2.241,0,1,1-2.241-2.242h10.086A1.121,1.121,0,0,0,1764.529,346.781Z" fill="#065949"/>
          <path id="Trazado_101981" data-name="Trazado 101981" d="M1769.011,342.3h-8.965a1.121,1.121,0,0,0,0,2.241h8.965A1.121,1.121,0,0,0,1769.011,342.3Z" fill="#065949"/>
        </g>
      </g>
    </g>
  </g>
</svg>
