<svg xmlns="http://www.w3.org/2000/svg" width="325" height="243.345" viewBox="0 0 325 243.345">
  <g id="Grupo_57236" data-name="Grupo 57236" transform="translate(-176.5 -6525.24)">
    <g id="Image_Place_Holder" data-name="Image Place Holder" transform="translate(176.5 6548.585)" opacity="0.1">
      <rect id="Image_Place_Holder-2" data-name="Image Place Holder" width="325" height="220" rx="10" fill="#e94b46"/>
    </g>
    <g id="Grupo_56095" data-name="Grupo 56095" transform="translate(-551.359 4916.837)">
      <g id="Grupo_56094" data-name="Grupo 56094" transform="translate(807.876 1608.403)">
        <path id="Trazado_101119" data-name="Trazado 101119" d="M961.295,1620.975H827.724v-8.643a3.928,3.928,0,0,1,3.928-3.929H957.366a3.929,3.929,0,0,1,3.929,3.929Z" transform="translate(-812.043 -1608.403)" fill="#e1f6ff"/>
        <path id="Trazado_101120" data-name="Trazado 101120" d="M964.178,1636.887H822.751v-8.643a3.929,3.929,0,0,1,3.929-3.929H960.25a3.929,3.929,0,0,1,3.929,3.929Z" transform="translate(-810.999 -1611.744)" fill="#a5e3ff"/>
        <path id="Trazado_101121" data-name="Trazado 101121" d="M972.842,1824.079H812.133c-2.135,0-3.87-1.2-3.889-2.693l-.368-30.235c-.018-1.509,1.729-2.739,3.889-2.739H968.952c2.148,0,3.889,1.216,3.889,2.716v32.951Z" transform="translate(-807.876 -1646.198)" fill="#cc4040"/>
        <path id="Trazado_101122" data-name="Trazado 101122" d="M967.063,1757.3H817.779V1644.156a3.928,3.928,0,0,1,3.929-3.928H963.135a3.928,3.928,0,0,1,3.928,3.928Z" transform="translate(-809.955 -1615.085)" fill="#f4fbff"/>
        <path id="Trazado_101123" data-name="Trazado 101123" d="M999.013,1640.228H988.659a3.929,3.929,0,0,1,3.929,3.929V1757.3h10.354V1644.156A3.928,3.928,0,0,0,999.013,1640.228Z" transform="translate(-845.834 -1615.085)" fill="#e4f6ff"/>
        <g id="Grupo_56086" data-name="Grupo 56086" transform="translate(32.008 34.798)">
          <g id="Grupo_56083" data-name="Grupo 56083">
            <path id="Trazado_101124" data-name="Trazado 101124" d="M949.077,1658.123H850.741a2.887,2.887,0,0,1,0-5.674h98.336a2.887,2.887,0,0,1,0,5.674Z" transform="translate(-848.391 -1652.449)" fill="#cc4040"/>
          </g>
          <g id="Grupo_56084" data-name="Grupo 56084" transform="translate(0 12.229)">
            <path id="Trazado_101125" data-name="Trazado 101125" d="M949.077,1673.6H850.741a2.888,2.888,0,0,1,0-5.675h98.336a2.888,2.888,0,0,1,0,5.675Z" transform="translate(-848.391 -1667.928)" fill="#cc4040"/>
          </g>
          <g id="Grupo_56085" data-name="Grupo 56085" transform="translate(0 24.458)">
            <path id="Trazado_101126" data-name="Trazado 101126" d="M930.081,1689.082H850.741a2.888,2.888,0,0,1,0-5.675h79.339a2.888,2.888,0,0,1,0,5.675Z" transform="translate(-848.391 -1683.407)" fill="#cc4040"/>
          </g>
        </g>
        <g id="Grupo_56090" data-name="Grupo 56090" transform="translate(32.008 72.552)">
          <g id="Grupo_56087" data-name="Grupo 56087">
            <path id="Trazado_101127" data-name="Trazado 101127" d="M949.077,1705.912H850.741a2.888,2.888,0,0,1,0-5.675h98.336a2.888,2.888,0,0,1,0,5.675Z" transform="translate(-848.391 -1700.237)" fill="#cc4040"/>
          </g>
          <g id="Grupo_56088" data-name="Grupo 56088" transform="translate(0 12.229)">
            <path id="Trazado_101128" data-name="Trazado 101128" d="M949.077,1721.391H850.741a2.888,2.888,0,0,1,0-5.675h98.336a2.888,2.888,0,0,1,0,5.675Z" transform="translate(-848.391 -1715.716)" fill="#cc4040"/>
          </g>
          <g id="Grupo_56089" data-name="Grupo 56089" transform="translate(0 24.458)">
            <path id="Trazado_101129" data-name="Trazado 101129" d="M930.081,1736.87H850.741a2.888,2.888,0,0,1,0-5.675h79.339a2.888,2.888,0,0,1,0,5.675Z" transform="translate(-848.391 -1731.195)" fill="#cc4040"/>
          </g>
        </g>
        <g id="Grupo_56093" data-name="Grupo 56093" transform="translate(32.008 108.94)">
          <g id="Grupo_56091" data-name="Grupo 56091">
            <path id="Trazado_101130" data-name="Trazado 101130" d="M949.077,1751.97H850.741a2.888,2.888,0,0,1,0-5.675h98.336a2.888,2.888,0,0,1,0,5.675Z" transform="translate(-848.391 -1746.295)" fill="#cc4040"/>
          </g>
          <g id="Grupo_56092" data-name="Grupo 56092" transform="translate(0 12.23)">
            <path id="Trazado_101131" data-name="Trazado 101131" d="M949.077,1767.449H850.741a2.887,2.887,0,0,1,0-5.674h98.336a2.887,2.887,0,0,1,0,5.674Z" transform="translate(-848.391 -1761.775)" fill="#cc4040"/>
          </g>
        </g>
      </g>
      <path id="Trazado_101132" data-name="Trazado 101132" d="M962.954,1846.864c0,1.892-30.9,3.426-69.016,3.426s-69.016-1.534-69.016-3.426,30.9-3.427,69.016-3.427S962.954,1844.971,962.954,1846.864Z" transform="translate(-3.579 -26.349)" fill="#cc4040" opacity="0.17" style="mix-blend-mode: multiply;isolation: isolate"/>
    </g>
  </g>
</svg>
