<svg xmlns="http://www.w3.org/2000/svg" width="126" height="126" viewBox="0 0 126 126">
  <g id="Grupo_57255" data-name="Grupo 57255" transform="translate(-232 -26496.309)">
    <g id="Elipse_4112" data-name="Elipse 4112" transform="translate(232 26496.309)" fill="#fff" stroke="#09b291" stroke-width="5">
      <circle cx="63" cy="63" r="63" stroke="none"/>
      <circle cx="63" cy="63" r="60.5" fill="none"/>
    </g>
    <g id="Grupo_56786" data-name="Grupo 56786" transform="translate(-1575.662 26321.578)">
      <path id="Trazado_102035" data-name="Trazado 102035" d="M1865.654,242.3q-18.863,0-37.724,0c-.409,0-.918.1-1.2-.1-.451-.312-1.036-.842-1.034-1.277s.58-1.024,1.048-1.25a4.1,4.1,0,0,1,1.669-.094q37.183,0,74.368,0c3.289,0,5.442-1.5,6.161-4.253a5.574,5.574,0,1,0-10.913-2.227c-.038.253.053.6-.083.751-.451.518-.977.97-1.475,1.447-.414-.549-1.159-1.081-1.188-1.65-.193-3.786,3.28-7.526,7.2-7.916a8.313,8.313,0,1,1,.9,16.552c-12.215.058-24.43.021-36.646.022Z" fill="#065949"/>
      <path id="Trazado_102036" data-name="Trazado 102036" d="M1855.611,251.921c4.977,0,9.955-.061,14.931.018a8.234,8.234,0,0,1,8.082,7.241,8.346,8.346,0,1,1-16.6,1.693c-.074-.968.111-1.831,1.237-1.937s1.431.674,1.531,1.669a5.4,5.4,0,0,0,3.674,4.871,5.315,5.315,0,0,0,5.6-1.073,5.581,5.581,0,0,0,1.548-6.043,5.446,5.446,0,0,0-5.331-3.667q-14.471-.031-28.94-.011c-.461,0-1.023.158-1.362-.047a9.263,9.263,0,0,1-1.5-1.409c.529-.437,1.034-1.214,1.589-1.251,2.145-.146,4.306-.055,6.461-.054Z" fill="#065949"/>
      <path id="Trazado_102037" data-name="Trazado 102037" d="M1855.377,230q-7.162,0-14.326,0a3.161,3.161,0,0,1-1.506-.134c-.451-.274-.99-.877-.972-1.316s.614-.976,1.086-1.218a3.591,3.591,0,0,1,1.517-.085c9.551,0,19.1.014,28.653-.012,3.816-.011,6.294-2.506,6.075-6a5.552,5.552,0,0,0-10.882-1.15,7.368,7.368,0,0,1-.321,1.645c-.289.5-.95,1.243-1.283,1.166a2.006,2.006,0,0,1-1.323-1.307,6.354,6.354,0,0,1,.426-2.7,8.31,8.31,0,0,1,16.157,2.94,7.97,7.97,0,0,1-7.139,7.97c-4.031.329-8.1.166-12.157.211-1.335.014-2.67,0-4.005,0Z" fill="#065949"/>
      <path id="Trazado_102038" data-name="Trazado 102038" d="M1892.467,268.84c-1.006.73-1.6,1.485-2.141,1.452-.456-.027-1.088-.922-1.226-1.527-.2-.871.322-1.751,1.31-1.592C1891.011,267.27,1891.507,268.026,1892.467,268.84Z" fill="#065949"/>
      <path id="Trazado_102039" data-name="Trazado 102039" d="M1838.43,212.931c-.778-.909-1.537-1.4-1.631-1.995-.154-.979.674-1.4,1.605-1.392s1.723.454,1.577,1.432C1839.9,211.544,1839.187,212.019,1838.43,212.931Z" fill="#065949"/>
      <path id="Trazado_102040" data-name="Trazado 102040" d="M1891.5,214.034c.844.952,1.634,1.443,1.733,2.047a1.217,1.217,0,0,1-1.591,1.344c-.61-.136-1.514-.754-1.548-1.211C1890.052,215.664,1890.794,215.055,1891.5,214.034Z" fill="#065949"/>
      <path id="Trazado_102041" data-name="Trazado 102041" d="M1880.757,197.275c-1.018.736-1.6,1.478-2.16,1.46-.447-.015-1.1-.9-1.24-1.491a1.2,1.2,0,0,1,1.312-1.6C1879.272,195.739,1879.778,196.478,1880.757,197.275Z" fill="#065949"/>
      <path id="Trazado_102042" data-name="Trazado 102042" d="M1880.745,205.657c-1,.76-1.519,1.473-2.124,1.55-1.013.13-1.471-.78-1.251-1.631.153-.59.838-1.46,1.275-1.455C1879.207,204.128,1879.76,204.887,1880.745,205.657Z" fill="#065949"/>
      <path id="Trazado_102043" data-name="Trazado 102043" d="M1844.677,206.758c-1.005.748-1.54,1.46-2.143,1.523a1.2,1.2,0,0,1-1.231-1.655c.162-.584.855-1.436,1.29-1.424C1843.155,205.218,1843.7,205.976,1844.677,206.758Z" fill="#065949"/>
      <path id="Trazado_102044" data-name="Trazado 102044" d="M1846.919,212.945c-.8-.906-1.57-1.386-1.675-1.981-.169-.962.632-1.42,1.57-1.422s1.717.432,1.582,1.414C1848.318,211.527,1847.641,212.015,1846.919,212.945Z" fill="#065949"/>
      <path id="Trazado_102045" data-name="Trazado 102045" d="M1844.677,215.116c-.967.787-1.508,1.56-2.078,1.582-.431.017-1.132-.862-1.3-1.457-.237-.858.233-1.768,1.235-1.659C1843.145,213.647,1843.682,214.369,1844.677,215.116Z" fill="#065949"/>
      <path id="Trazado_102046" data-name="Trazado 102046" d="M1900.144,218.116c-.8-.892-1.574-1.373-1.68-1.974-.173-.98.681-1.391,1.591-1.4s1.739.389,1.589,1.392C1901.558,216.713,1900.87,217.2,1900.144,218.116Z" fill="#065949"/>
      <path id="Trazado_102047" data-name="Trazado 102047" d="M1904.75,252.783c-1.011.739-1.564,1.464-2.172,1.513-1,.082-1.441-.849-1.194-1.7.17-.588.891-1.467,1.292-1.43C1903.264,251.22,1903.786,251.978,1904.75,252.783Z" fill="#065949"/>
      <path id="Trazado_102048" data-name="Trazado 102048" d="M1906.889,259.01c-.776-1-1.513-1.533-1.585-2.142-.117-1,.787-1.478,1.655-1.242.592.161,1.461.839,1.455,1.276C1908.407,257.468,1907.652,258.024,1906.889,259.01Z" fill="#065949"/>
      <path id="Trazado_102049" data-name="Trazado 102049" d="M1904.766,261.191c-1,.738-1.573,1.481-2.138,1.475-.438,0-1.089-.887-1.246-1.484-.233-.884.278-1.767,1.265-1.634C1903.257,259.629,1903.776,260.388,1904.766,261.191Z" fill="#065949"/>
      <path id="Trazado_102050" data-name="Trazado 102050" d="M1844.593,265.44c.99-.8,1.5-1.542,2.1-1.624a1.216,1.216,0,0,1,1.294,1.62c-.141.6-.8,1.476-1.264,1.5C1846.184,266.961,1845.6,266.2,1844.593,265.44Z" fill="#065949"/>
      <path id="Trazado_102051" data-name="Trazado 102051" d="M1898.481,259c-.781-.981-1.537-1.524-1.564-2.1-.02-.418.865-1.111,1.457-1.27.857-.229,1.774.229,1.664,1.233C1899.972,257.466,1899.242,258,1898.481,259Z" fill="#065949"/>
      <path id="Trazado_102052" data-name="Trazado 102052" d="M1842.445,271.667c-.779-.984-1.534-1.511-1.594-2.108a1.232,1.232,0,0,1,1.666-1.253c.6.158,1.472.836,1.468,1.274C1843.98,270.139,1843.214,270.692,1842.445,271.667Z" fill="#065949"/>
      <path id="Trazado_102053" data-name="Trazado 102053" d="M1886.143,270.9c.8.977,1.571,1.514,1.588,2.074.013.433-.857,1.129-1.447,1.287-.844.227-1.77-.223-1.675-1.221C1884.665,272.446,1885.388,271.911,1886.143,270.9Z" fill="#065949"/>
      <path id="Trazado_102054" data-name="Trazado 102054" d="M1897.919,211.91c-1.007.761-1.581,1.525-2.122,1.5-.466-.019-1.138-.876-1.283-1.469a1.21,1.21,0,0,1,1.288-1.622C1896.4,210.4,1896.92,211.126,1897.919,211.91Z" fill="#065949"/>
      <path id="Trazado_102055" data-name="Trazado 102055" d="M1893.865,220.025c.957-.612,1.507-1.245,2.085-1.272,1.014-.048,1.3.811,1.245,1.722-.054.948-.55,1.714-1.507,1.438C1895.092,221.741,1894.684,220.914,1893.865,220.025Z" fill="#065949"/>
      <path id="Trazado_102056" data-name="Trazado 102056" d="M1894.556,275.035c-.731-1.01-1.482-1.6-1.444-2.128.034-.469.889-1.105,1.485-1.254a1.2,1.2,0,0,1,1.609,1.3C1896.124,273.546,1895.372,274.049,1894.556,275.035Z" fill="#065949"/>
      <path id="Trazado_102057" data-name="Trazado 102057" d="M1850.926,267.523c.765,1.02,1.486,1.556,1.545,2.155a1.231,1.231,0,0,1-1.662,1.26c-.592-.155-1.452-.848-1.451-1.3C1849.359,269.083,1850.13,268.53,1850.926,267.523Z" fill="#065949"/>
      <path id="Trazado_102058" data-name="Trazado 102058" d="M1848.706,273.715c-.906.809-1.386,1.583-1.991,1.7-.965.183-1.4-.611-1.409-1.557s.374-1.728,1.382-1.578C1847.272,272.365,1847.771,273.02,1848.706,273.715Z" fill="#065949"/>
      <path id="Trazado_102059" data-name="Trazado 102059" d="M1888.307,277.051c1.052-.7,1.665-1.428,2.2-1.378.465.044,1.082.922,1.208,1.52.185.875-.351,1.739-1.339,1.56C1889.778,278.644,1889.291,277.895,1888.307,277.051Z" fill="#065949"/>
      <path id="Trazado_102060" data-name="Trazado 102060" d="M1874.419,203.49c-.765-.99-1.5-1.52-1.56-2.115a1.221,1.221,0,0,1,1.677-1.233c.6.159,1.492.847,1.471,1.258C1875.978,201.973,1875.216,202.508,1874.419,203.49Z" fill="#065949"/>
      <path id="Trazado_102061" data-name="Trazado 102061" d="M1882.879,199.47c.751.863,1.47,1.319,1.572,1.887.18,1-.6,1.419-1.554,1.422s-1.739-.41-1.577-1.407C1881.411,200.806,1882.132,200.341,1882.879,199.47Z" fill="#065949"/>
    </g>
  </g>
</svg>
