<svg xmlns="http://www.w3.org/2000/svg" xmlns:xlink="http://www.w3.org/1999/xlink" width="59.715" height="59.715" viewBox="0 0 59.715 59.715">
  <defs>
    <linearGradient id="linear-gradient" x1="0.5" y1="1" x2="0.5" gradientUnits="objectBoundingBox">
      <stop offset="0" stop-color="#e6e6e6"/>
      <stop offset="0.42" stop-color="#fff"/>
    </linearGradient>
  </defs>
  <g id="Grupo_56236" data-name="Grupo 56236" transform="translate(-564.665 -224.927)">
    <rect id="Rect치ngulo_5444" data-name="Rect치ngulo 5444" width="42.225" height="42.225" transform="translate(564.665 254.785) rotate(-45)" fill="#d61b22"/>
    <path id="Trazado_101346" data-name="Trazado 101346" d="M594.523,279.378a3.7,3.7,0,0,1-2.621-1.084L571.014,257.4a3.7,3.7,0,0,1,0-5.241L591.9,231.276a3.709,3.709,0,0,1,5.242,0l20.888,20.888a3.71,3.71,0,0,1,0,5.241l-20.888,20.889A3.7,3.7,0,0,1,594.523,279.378Zm0-48.187a2.7,2.7,0,0,0-1.914.792l-20.888,20.888a2.705,2.705,0,0,0,0,3.827l20.888,20.889a2.712,2.712,0,0,0,3.828,0L617.325,256.7a2.709,2.709,0,0,0,0-3.827l-20.888-20.888A2.7,2.7,0,0,0,594.523,231.191Z" fill="url(#linear-gradient)"/>
    <g id="Grupo_56235" data-name="Grupo 56235">
      <path id="Trazado_101347" data-name="Trazado 101347" d="M597.8,253.822a2.823,2.823,0,0,0,1.473-3.474,5.106,5.106,0,0,1-.324-2.05s-.654-.237-1.218.94a.95.95,0,0,1-1.089.4,2.427,2.427,0,0,0,.308-2.528,5.993,5.993,0,0,1-.227-1.664s-.44-.029-.462,1.429-.777,1.6-.777,1.6.667-2.6-1.077-3.547a6.891,6.891,0,0,1-.279,2.521,5.544,5.544,0,0,0,.242,3.144s-.967-.037-1.781-1.854a3.039,3.039,0,0,0-1.2-1.609s.7,2.869-.693,2.825a1.807,1.807,0,0,1-.769-.579,2.906,2.906,0,0,0,.429,3.658l1.132.791a3.437,3.437,0,0,1-2.869-1.033,3.717,3.717,0,0,1-1.265-3.353,9.806,9.806,0,0,1,.847-3.32,2.591,2.591,0,0,0-.011-1.517s.857-.121,1.946,1.165c0,0,.1-.264-.363-1.122a2.375,2.375,0,0,1,.583-2.473s1.077-1.3.505-2.078c0,0,1.023.506.869,2.3,0,0-.275,2.528,1.187,3.5,0,0-1.286-2.946-.4-4.9a8.249,8.249,0,0,1,2.012-3.09,2.62,2.62,0,0,0,.748-1.868s.9.758.121,3.012a3.807,3.807,0,0,0,.285,3.573,3.227,3.227,0,0,1,1.649-3.716s-.846,1.517.143,2.473a2.777,2.777,0,0,1,.363,3.815s.3.132,1.462-1.143a2.874,2.874,0,0,1,1.4-.77s-.978.572-.23,2.177,1.923,3.623.67,6.561A3.482,3.482,0,0,1,597.8,253.822Z" fill="#fff"/>
      <rect id="Rect치ngulo_5445" data-name="Rect치ngulo 5445" width="12.972" height="1.275" transform="translate(588.129 254.438)" fill="#fff"/>
    </g>
    <text id="_3" data-name="3" transform="translate(594.523 271.71)" fill="#fff" font-size="9.012" font-family="Roboto-Regular, Roboto" style="isolation: isolate"><tspan x="-2.53" y="0">3</tspan></text>
  </g>
</svg>
