<svg xmlns="http://www.w3.org/2000/svg" xmlns:xlink="http://www.w3.org/1999/xlink" width="86.901" height="109.648" viewBox="0 0 86.901 109.648">
  <defs>
    <clipPath id="clip-path">
      <path id="Trazado_101701" data-name="Trazado 101701" d="M776.339,5424.36c.086-.236.169-.473.251-.709.182-.529.363-1.058.524-1.591.128-.421.238-.844.352-1.266.174-.648.336-1.3.479-1.949.112-.505.218-1.01.311-1.517q.094-.521.177-1.042.148-.943.254-1.887c.024-.22.057-.439.078-.659.083-.852.136-1.7.168-2.555.008-.227.009-.454.014-.681q.021-1.023-.006-2.041c-.006-.236-.009-.471-.02-.706-.036-.865-.093-1.727-.181-2.586-.012-.111-.03-.221-.042-.332-.084-.754-.19-1.5-.312-2.25q-.066-.394-.138-.787-.189-1.03-.428-2.049c-.041-.176-.076-.354-.119-.53-.2-.825-.436-1.641-.688-2.452-.071-.229-.149-.455-.224-.683q-.327-.993-.7-1.969c-.071-.187-.139-.374-.213-.559q-.5-1.26-1.083-2.489c-.023-.049-.049-.1-.072-.147q-.592-1.237-1.266-2.436c-.031-.055,6.132-24.042,6.1-24.1-4.21-7.461-29.651-13.9-37.972-17.869-21.516-10.258-42.783,3.913-42.506,25.5.009.735-2.828,20.308-3.108,20.981-.008.02-.018.04-.026.059-.238.575-.458,1.153-.67,1.734-.087.237-.17.475-.253.713-.182.528-.362,1.055-.523,1.587-.13.428-.242.858-.358,1.287-.171.64-.331,1.281-.472,1.926-.112.507-.219,1.014-.312,1.522-.064.346-.122.693-.177,1.041-.1.628-.183,1.257-.254,1.886-.024.22-.057.439-.078.659-.083.853-.136,1.706-.168,2.557-.008.226-.009.451-.014.677q-.021,1.025.005,2.046c.006.234.01.468.02.7.037.865.094,1.728.182,2.587.012.111.03.221.042.333q.126,1.129.312,2.25.066.393.138.787.189,1.029.427,2.047c.042.177.076.355.12.532.2.824.436,1.64.688,2.45.071.23.149.458.225.686q.325.993.7,1.968c.071.186.138.373.212.558q.5,1.261,1.083,2.49c.024.049.05.1.073.146.394.825.819,1.635,1.265,2.435.032.056.062.112.094.169a43.149,43.149,0,0,0,76.519-2.669c.317-.665.6-1.341.876-2.016l.023-.053C775.905,5425.521,776.127,5424.942,776.339,5424.36Z" fill="none"/>
    </clipPath>
  </defs>
  <g id="Grupo_56577" data-name="Grupo 56577" transform="translate(-692.653 -5343.113)">
    <path id="Trazado_101690" data-name="Trazado 101690" d="M776.339,5424.36c.086-.236.169-.473.251-.709.182-.529.363-1.058.524-1.591.128-.421.238-.844.352-1.266.174-.648.336-1.3.479-1.949.112-.505.218-1.01.311-1.517q.094-.521.177-1.042.148-.943.254-1.887c.024-.22.057-.439.078-.659.083-.852.136-1.7.168-2.555.008-.227.009-.454.014-.681q.021-1.023-.006-2.041c-.006-.236-.009-.471-.02-.706-.036-.865-.093-1.727-.181-2.586-.012-.111-.03-.221-.042-.332-.084-.754-.19-1.5-.312-2.25q-.066-.394-.138-.787-.189-1.03-.428-2.049c-.041-.176-.076-.354-.119-.53-.2-.825-.436-1.641-.688-2.452-.071-.229-.149-.455-.224-.683q-.327-.993-.7-1.969c-.071-.187-.139-.374-.213-.559q-.5-1.26-1.083-2.489c-.023-.049-.049-.1-.072-.147q-.592-1.237-1.266-2.436c-.031-.055-.061-.111-.093-.166a43.148,43.148,0,0,0-76.519,2.667c-.316.663-.594,1.338-.874,2.011-.008.02-.018.04-.026.059-.238.575-.458,1.153-.67,1.734-.087.237-.17.475-.253.713-.182.528-.362,1.055-.523,1.587-.13.428-.242.858-.358,1.287-.171.64-.331,1.281-.472,1.926-.112.507-.219,1.014-.312,1.522-.064.346-.122.693-.177,1.041-.1.628-.183,1.257-.254,1.886-.024.22-.057.439-.078.659-.083.853-.136,1.706-.168,2.557-.008.226-.009.451-.014.677q-.021,1.025.005,2.046c.006.234.01.468.02.7.037.865.094,1.728.182,2.587.012.111.03.221.042.333q.126,1.129.312,2.25.066.393.138.787.189,1.029.427,2.047c.042.177.076.355.12.532.2.824.436,1.64.688,2.45.071.23.149.458.225.686q.325.993.7,1.968c.071.186.138.373.212.558q.5,1.261,1.083,2.49c.024.049.05.1.073.146.394.825.819,1.635,1.265,2.435.032.056.062.112.094.169a43.149,43.149,0,0,0,76.519-2.669c.317-.665.6-1.341.876-2.016l.023-.053C775.905,5425.521,776.127,5424.942,776.339,5424.36Z" fill="#0dcea9"/>
    <path id="Trazado_2310" data-name="Trazado 2310" d="M700.55,5384.66c5.1,3.658,12.959,3.831,15.922-1.329,1.969-3.429-.035-8.109-1.96-11.312A43.376,43.376,0,0,0,700.55,5384.66Z" fill="#09b291"/>
    <path id="Trazado_2311" data-name="Trazado 2311" d="M778.949,5409.565a43.047,43.047,0,0,0-14.613-32.365c-1.756,2.328-2.282,6.052-1.226,11.14,2.114,10.189-11.566,12.356-2.994,23.263,4.476,5.695,12.117,5.725,18.341,4.483a43.523,43.523,0,0,0,.494-6.521Z" fill="#09b291"/>
    <g id="Grupo_56599" data-name="Grupo 56599">
      <g id="Grupo_56598" data-name="Grupo 56598" clip-path="url(#clip-path)">
        <g id="Grupo_56597" data-name="Grupo 56597">
          <g id="Grupo_56596" data-name="Grupo 56596">
            <g id="Grupo_56595" data-name="Grupo 56595">
              <g id="Grupo_56578" data-name="Grupo 56578">
                <g id="Grupo_56577-2" data-name="Grupo 56577">
                  <path id="Trazado_101691" data-name="Trazado 101691" d="M755.665,5423.25a5.857,5.857,0,0,0-.7,1.337L721.295,5405.8a5.805,5.805,0,0,0-1.483-8.489,5.8,5.8,0,0,0-8.79,6.012,2.056,2.056,0,0,1-1.3,2.294,5.8,5.8,0,1,0,7.157,8.244,5.866,5.866,0,0,0,.376-.814l33.665,18.784a5.805,5.805,0,1,0,9.643,6.4,5.783,5.783,0,0,0,.63-3.926,2.038,2.038,0,0,1,1.274-2.284,5.8,5.8,0,1,0-6.8-8.778Z" fill="#e1d3ce"/>
                </g>
              </g>
              <g id="Grupo_56580" data-name="Grupo 56580">
                <g id="Grupo_56579" data-name="Grupo 56579">
                  <path id="Trazado_101692" data-name="Trazado 101692" d="M706,5410.939a5.8,5.8,0,0,0,10.872,2.926,5.9,5.9,0,0,0,.377-.814l33.665,18.784a5.805,5.805,0,0,0,8.642,7.716,3.367,3.367,0,0,1-2.857-.613,5.828,5.828,0,0,1-2.25-7.19c.083-.191.173-.374.272-.551a.879.879,0,0,0-.347-1.2l-37.387-20.265a.885.885,0,0,0-1.2.36l-.005.008c-2.133,3.826-6.987,3.589-9.787.843Z" fill="#cdbfba"/>
                </g>
              </g>
              <g id="Grupo_56581" data-name="Grupo 56581">
                <path id="Trazado_101693" data-name="Trazado 101693" d="M736.1,5351.573c-13.633,0-24.685,9.537-24.685,21.3,0,8.176,5.338,15.275,13.169,18.846,1.742.794,1.019,2.594,1.019,4.049a3.546,3.546,0,0,0,6.756,1.509.28.28,0,0,1,.511,0,3.545,3.545,0,0,0,6.443-.057.277.277,0,0,1,.5,0,3.546,3.546,0,0,0,6.781-1.453c0-1.427-.734-3.249,1.019-4.048,7.831-3.571,13.169-10.671,13.169-18.846,0-11.764-11.052-21.3-24.685-21.3Z" fill="#e1d3ce"/>
              </g>
              <g id="Grupo_56582" data-name="Grupo 56582">
                <path id="Trazado_101694" data-name="Trazado 101694" d="M746.432,5353.522c6.807,3.792,11.311,10.4,11.311,17.906,0,8.176-5.338,15.276-13.17,18.846-1.753.8-1.018,4.4-1.018,5.823a3.541,3.541,0,0,1-1.682,3.016,3.493,3.493,0,0,0,1.181.2,3.546,3.546,0,0,0,3.546-3.546c0-1.429-.732-3.25,1.02-4.049,7.832-3.572,13.169-10.672,13.169-18.846,0-8.582-5.881-15.981-14.357-19.353Z" fill="#cdbfba"/>
              </g>
              <g id="Grupo_56585" data-name="Grupo 56585">
                <g id="Grupo_56583" data-name="Grupo 56583">
                  <ellipse id="Elipse_4067" data-name="Elipse 4067" cx="6.433" cy="6.428" rx="6.433" ry="6.428" transform="translate(720.065 5366.474)" fill="#575f64"/>
                </g>
                <g id="Grupo_56584" data-name="Grupo 56584">
                  <ellipse id="Elipse_4068" data-name="Elipse 4068" cx="6.433" cy="6.428" rx="6.433" ry="6.428" transform="translate(739.276 5366.474)" fill="#575f64"/>
                </g>
              </g>
              <g id="Grupo_56588" data-name="Grupo 56588">
                <g id="Grupo_56586" data-name="Grupo 56586">
                  <path id="Trazado_101695" data-name="Trazado 101695" d="M732.932,5372.9a6.433,6.433,0,0,1-10.084,5.292,6.428,6.428,0,0,0,5.131-11.549A6.434,6.434,0,0,1,732.932,5372.9Z" fill="#474f54"/>
                </g>
                <g id="Grupo_56587" data-name="Grupo 56587">
                  <path id="Trazado_101696" data-name="Trazado 101696" d="M752.143,5372.9a6.433,6.433,0,0,1-10.084,5.292,6.428,6.428,0,0,0,5.13-11.549A6.432,6.432,0,0,1,752.143,5372.9Z" fill="#474f54"/>
                </g>
              </g>
              <g id="Grupo_56589" data-name="Grupo 56589">
                <path id="Trazado_101697" data-name="Trazado 101697" d="M735.406,5379.7l-1.827,2.706a3.046,3.046,0,1,0,5.05,0L736.8,5379.7a.843.843,0,0,0-1.4,0Z" fill="#575f64"/>
              </g>
              <g id="Grupo_56590" data-name="Grupo 56590">
                <path id="Trazado_101698" data-name="Trazado 101698" d="M739.149,5384.111a3.046,3.046,0,0,1-5.738,1.425,3.523,3.523,0,0,0,.859.1,3.593,3.593,0,0,0,3.449-4.583l.91,1.35A3.035,3.035,0,0,1,739.149,5384.111Z" fill="#474f54"/>
              </g>
              <g id="Grupo_56592" data-name="Grupo 56592">
                <g id="Grupo_56591" data-name="Grupo 56591">
                  <path id="Trazado_101699" data-name="Trazado 101699" d="M716.547,5423.25a5.9,5.9,0,0,1,.705,1.337l33.664-18.784a5.809,5.809,0,0,1,1.483-8.489,5.8,5.8,0,0,1,8.79,6.012,2.055,2.055,0,0,0,1.3,2.294,5.8,5.8,0,1,1-7.533,7.43l-33.665,18.784a5.805,5.805,0,1,1-9.643,6.4,5.783,5.783,0,0,1-.63-3.926,2.036,2.036,0,0,0-1.274-2.284,5.8,5.8,0,1,1,6.8-8.778Z" fill="#fff5f5"/>
                </g>
              </g>
              <g id="Grupo_56594" data-name="Grupo 56594">
                <g id="Grupo_56593" data-name="Grupo 56593">
                  <path id="Trazado_101700" data-name="Trazado 101700" d="M766.208,5410.939a5.8,5.8,0,0,1-10.872,2.926,6,6,0,0,1-.376-.814l-33.665,18.784a5.8,5.8,0,0,1-1.483,8.488,5.806,5.806,0,0,1-7.159-.772,3.368,3.368,0,0,0,2.857-.613,5.828,5.828,0,0,0,2.249-7.19c-.082-.191-.173-.374-.271-.551a.879.879,0,0,1,.346-1.2l37.388-20.265a.885.885,0,0,1,1.2.36l0,.008c2.134,3.826,6.988,3.589,9.787.843Z" fill="#efe2dd"/>
                </g>
              </g>
            </g>
          </g>
        </g>
      </g>
    </g>
  </g>
</svg>
