<svg xmlns="http://www.w3.org/2000/svg" xmlns:xlink="http://www.w3.org/1999/xlink" width="1088" height="212.318" viewBox="0 0 1088 212.318">
  <defs>
    <linearGradient id="linear-gradient" x1="0.5" y1="1.053" x2="0.5" y2="-0.036" gradientUnits="objectBoundingBox">
      <stop offset="0" stop-color="#e6e6e6"/>
      <stop offset="0.42" stop-color="#fff"/>
    </linearGradient>
    <linearGradient id="linear-gradient-2" x1="0.5" y1="0.877" x2="0.5" y2="0.05" gradientUnits="objectBoundingBox">
      <stop offset="0" stop-color="#231f20"/>
      <stop offset="0.903" stop-color="#505052"/>
    </linearGradient>
    <linearGradient id="linear-gradient-4" x1="0.5" y1="0.877" x2="0.5" y2="0.05" xlink:href="#linear-gradient-2"/>
    <linearGradient id="linear-gradient-7" x1="2.867" y1="0.877" x2="2.867" y2="0.05" xlink:href="#linear-gradient-2"/>
    <linearGradient id="linear-gradient-11" x1="0.5" y1="0" x2="0.5" y2="1" xlink:href="#linear-gradient-2"/>
    <clipPath id="clip-path">
      <rect id="Rectángulo_5411" data-name="Rectángulo 5411" width="121.353" height="121.353" rx="10.497" transform="translate(171.619 85.81) rotate(135)" fill="none"/>
    </clipPath>
    <linearGradient id="linear-gradient-14" x1="0" y1="0.5" x2="1" y2="0.5" xlink:href="#linear-gradient-2"/>
    <linearGradient id="linear-gradient-25" x1="0" y1="0.5" x2="1" y2="0.5" xlink:href="#linear-gradient-2"/>
    <linearGradient id="linear-gradient-26" x1="0" y1="0.5" x2="1" y2="0.5" xlink:href="#linear-gradient-2"/>
    <linearGradient id="linear-gradient-28" x1="0" y1="0.5" x2="1" y2="0.5" xlink:href="#linear-gradient-2"/>
    <linearGradient id="linear-gradient-30" x1="0" y1="0.5" x2="1" y2="0.5" xlink:href="#linear-gradient-2"/>
  </defs>
  <g id="Grupo_56216" data-name="Grupo 56216" transform="translate(-85.777 -3218.958)">
    <g id="Grupo_56196" data-name="Grupo 56196" transform="translate(962.447 3218.958)">
      <g id="Grupo_56195" data-name="Grupo 56195" transform="translate(0 0)">
        <g id="Grupo_56193" data-name="Grupo 56193">
          <g id="Grupo_56192" data-name="Grupo 56192">
            <rect id="Rectángulo_5405" data-name="Rectángulo 5405" width="149.433" height="149.433" rx="10.541" transform="translate(0 105.665) rotate(-45)" fill="#d61b22"/>
            <rect id="Rectángulo_5406" data-name="Rectángulo 5406" width="127.237" height="127.237" rx="10.497" transform="translate(15.695 105.665) rotate(-45)" fill="url(#linear-gradient)"/>
          </g>
        </g>
        <g id="Grupo_56194" data-name="Grupo 56194" transform="translate(42.902 47.963)">
          <path id="Trazado_101313" data-name="Trazado 101313" d="M927.967,3333.776l15.51,15.6h29.676v-15.6H963.62s-.389,2.123-3.915,1.794a3.881,3.881,0,0,1-3.586,2.092c-2.541-.12-4.155-2.72-4.155-2.72s-2.54.329-3.407-1.315H927.967Z" transform="translate(-927.967 -3256.385)" fill="url(#linear-gradient-2)"/>
          <path id="Trazado_101314" data-name="Trazado 101314" d="M956.974,3328.027h0l-3.141-6.5-2.868,6.386c-.032.069-.064.135-.092.207l-.039.087.01.007a3.294,3.294,0,1,0,6.13-.19Z" transform="translate(-925.884 -3257.497)" fill="url(#linear-gradient-2)"/>
          <path id="Trazado_101315" data-name="Trazado 101315" d="M952.951,3315.929h0l-3.142-6.5-2.867,6.387c-.033.069-.064.135-.093.206l-.039.088.01.006a3.295,3.295,0,1,0,6.131-.19Z" transform="translate(-926.253 -3258.608)" fill="url(#linear-gradient-4)"/>
          <path id="Trazado_101316" data-name="Trazado 101316" d="M1002.454,3302.271h0l-3.142-6.5-2.867,6.387c-.033.068-.064.135-.093.205l-.039.087.01.007a3.295,3.295,0,1,0,6.131-.19Z" transform="translate(-921.705 -3259.863)" fill="url(#linear-gradient-4)"/>
          <path id="Trazado_101317" data-name="Trazado 101317" d="M987.156,3296.678l-27.914-4.721-2.51-3.527-3.341-.225-3.472,18.635,4.088.537,2.008-2.211,29.707,5.379s7.292,1.973,8.965-5.379S987.156,3296.678,987.156,3296.678Zm5.184,8.01-21.2-.493-15.646-2.017-1.434,1.748h-.852l2.285-12.329h.538l.807,2.869,28.107,4.8C993.909,3300.07,992.34,3304.688,992.34,3304.688Z" transform="translate(-925.95 -3260.558)" fill="url(#linear-gradient-2)"/>
          <path id="Trazado_101318" data-name="Trazado 101318" d="M971.735,3271.359l27.913-4.721,2.51-3.527,3.341-.226,3.473,18.635-4.089.538-2.008-2.211-29.707,5.379s-7.292,1.973-8.965-5.379S971.735,3271.359,971.735,3271.359Zm-2.579,3.706,20.456.66,13.786,1.135,1.435,1.748h.852l-2.286-12.328h-.538l-.807,2.87-28.107,4.8C969.529,3274.558,969.156,3275.065,969.156,3275.065Z" transform="translate(-924.656 -3262.885)" fill="url(#linear-gradient-7)"/>
          <path id="Trazado_101319" data-name="Trazado 101319" d="M1044.639,3330.765l-4.8.224-3.212-3.115a2.613,2.613,0,0,0-.686-1.128l-19.4-18.626a2.66,2.66,0,0,0-3.76.077l-1.124,1.17a2.661,2.661,0,0,0,.078,3.761l10.38,9.964-1.01-.216-10.938,1.479-.24.083a3.563,3.563,0,0,1,.135.963,3.767,3.767,0,0,1-3.825,3.706,3.821,3.821,0,0,1-3.584-2.419,2.985,2.985,0,0,1-2.543,1.342,2.822,2.822,0,0,1-2.893-2.3H982.26a2.659,2.659,0,0,0-2.66,2.66v.137a2.66,2.66,0,0,0,2.66,2.659h20.777v1.388h-22.96a2.658,2.658,0,0,0-2.659,2.659v.136a2.659,2.659,0,0,0,2.659,2.66h22.96v.716H982.387a2.659,2.659,0,0,0-2.66,2.66v.852a2.66,2.66,0,0,0,2.66,2.66h20.651v.71h-14.8a2.659,2.659,0,0,0-2.66,2.66v.156a2.659,2.659,0,0,0,2.66,2.66h45.1l15.645-14.554Z" transform="translate(-923.423 -3258.797)" fill="url(#linear-gradient-2)"/>
        </g>
      </g>
      <path id="Trazado_101320" data-name="Trazado 101320" d="M999.431,3315.929h0l-3.141-6.5-2.868,6.387c-.033.069-.064.135-.093.206l-.039.088.011.006a3.294,3.294,0,1,0,6.13-.19Z" transform="translate(-879.081 -3210.645)" fill="url(#linear-gradient-4)"/>
    </g>
    <g id="Grupo_56201" data-name="Grupo 56201" transform="translate(742.533 3218.958)">
      <g id="Grupo_56199" data-name="Grupo 56199" transform="translate(0 0)">
        <g id="Grupo_56198" data-name="Grupo 56198">
          <g id="Grupo_56197" data-name="Grupo 56197">
            <rect id="Rectángulo_5407" data-name="Rectángulo 5407" width="149.433" height="149.433" rx="10.541" transform="translate(0 105.665) rotate(-45)" fill="#d61b22"/>
            <rect id="Rectángulo_5408" data-name="Rectángulo 5408" width="127.237" height="127.237" rx="10.497" transform="translate(15.695 105.665) rotate(-45)" fill="url(#linear-gradient)"/>
          </g>
        </g>
      </g>
      <g id="Grupo_56200" data-name="Grupo 56200" transform="translate(66.443 34.767)">
        <path id="Trazado_101321" data-name="Trazado 101321" d="M802.247,3349.432a28.621,28.621,0,1,0-30.342,0H750.051v5.741h73.966v-5.741Zm-39.179-24.253a24.008,24.008,0,1,1,24.007,24.009A24.035,24.035,0,0,1,763.068,3325.179Z" transform="translate(-747.942 -3246.594)" fill="url(#linear-gradient-11)"/>
        <path id="Trazado_101322" data-name="Trazado 101322" d="M752.724,3329.384a34.484,34.484,0,0,1,68.965-.347,52.238,52.238,0,0,0,.176-31.644s-7.53-12.772-7.322-23.317c0,0-5.242-.245-8.861,11.289.312-.98,2.275-7.834-2.351-12.288,0,0-5.054-2.933-3.869-6.864l1.559-4.368s-9.36,1.31-8.985,11.981c0,0-2.87-4.056-.937-10.671a19.411,19.411,0,0,0-.669-12.355s-.2,3.807-9.377,12.918-6.427,16.786-4.8,20.9c0,0-3.806-1.123-3.307-7.612s-.811-8.237-4.056-9.673c0,0,2.059,5.054-3.307,11.545-3.314,4.008-2.677,8.56-1.706,11.458-1.721-3.227-5.165-8.015-10.65-8.588,0,0,3.62,4.431-2.933,19.219,0,0-6.178,17.472,2.309,30.2h.171Q752.726,3330.283,752.724,3329.384Z" transform="translate(-748.12 -3250.799)" fill="url(#linear-gradient-11)"/>
      </g>
    </g>
    <g id="Grupo_56208" data-name="Grupo 56208" transform="translate(85.777 3218.958)">
      <g id="Grupo_56204" data-name="Grupo 56204" transform="translate(0 0)">
        <g id="Grupo_56203" data-name="Grupo 56203">
          <g id="Grupo_56202" data-name="Grupo 56202">
            <rect id="Rectángulo_5409" data-name="Rectángulo 5409" width="149.433" height="149.433" rx="10.541" transform="translate(0 105.665) rotate(-45)" fill="#d61b22"/>
            <rect id="Rectángulo_5410" data-name="Rectángulo 5410" width="127.237" height="127.237" rx="10.497" transform="translate(15.695 105.665) rotate(-45)" fill="url(#linear-gradient)"/>
          </g>
        </g>
      </g>
      <g id="Grupo_56207" data-name="Grupo 56207" transform="translate(19.856 19.856)">
        <g id="Grupo_56206" data-name="Grupo 56206" transform="translate(0 0)" clip-path="url(#clip-path)">
          <g id="Grupo_56205" data-name="Grupo 56205" transform="translate(-5.499 16.131)">
            <path id="Trazado_101323" data-name="Trazado 101323" d="M183.927,3323c-.02.222-.141.572-.044.651,1.3,1.046,2.159,2.583,4.252,2.606,7.679.083,15.356.357,23.034.554a5.729,5.729,0,0,0,.723-.085l-.712-3.9c2.719.219,4.276-1.473,5.866-3.143a1.151,1.151,0,0,1,.99-.311c3.16,1.436,6.293,2.929,9.575,4.476l-2.566,3.571c3.03,0,5.69-.053,8.347.01,9.476.227,18.952.468,28.425.783a9.581,9.581,0,0,1,2.671.928l-.111.522-76.341-2.553,1.366,1.918-.341.412,32.988,4.759-.667,4.23-13.5-3.3c1.413,1.281,2.942,2.457,1.97,4.856-3.2-.492-6.524-.792-9.726-1.6-1.438-.362-2.649-1.7-3.9-2.682-.191-.148-.165-.87.026-1.137a1.906,1.906,0,0,1,1.2-.8,18.386,18.386,0,0,1,2.522.239,4.457,4.457,0,0,0,.906-.106l.061-.462-12.4-3.2-.915,1.985c1.8.992,3.529,1.947,5.26,2.906,4.615,2.563,9.214,5.155,13.854,7.672a4.508,4.508,0,0,1,2.233,3.126l-21.363-13.254c-.708.776-.741.823,0,1.366q5.793,4.234,11.617,8.422c3.836,2.767,7.68,5.52,11.641,8.365l-1.149,1.292L186.5,3334.027c-.52.7-1.671,1.11-.721,2.252l.027-.03c-.465.061-1.114-.055-1.369.21-3.908,4.032-8.688,5.218-14.093,4.45a16.308,16.308,0,0,1-10.394-5.6l-7.29,6.617a16.834,16.834,0,0,1,2.877.037c.621.124,1.652.563,1.667.9a3.977,3.977,0,0,1-.692,2.57,1.671,1.671,0,0,1-2.461.517c-.361-.264-1.266.214-2.106.391l-1.791-2.112L134.271,3358.7l-1.733-2.154,27.05-21.641-1.819-2.771-23.324,13.454c-.637-.937-.406-1.4.456-1.848,6.579-3.434,13.134-6.913,19.7-10.379a5.836,5.836,0,0,0,1.862-1.342l-13.686,4.418c-.393-1.078-.122-1.544.919-1.8,4.16-1.008,8.3-2.1,12.447-3.161.376-.1.738-.241,1.106-.363l-.041-.388a7.4,7.4,0,0,0-1.371.083q-13.05,3.233-26.093,6.5c-5.264,1.309-10.533,2.6-15.945,3.928l-.241-1.48,43.143-9.6c0-1.051-.336-1.38-1.274-1.251q-16.811,2.31-33.63,4.561c-7.5,1-15.016,1.951-22.658,2.941l-.212-1.461,28.377-3.231-.008-.225-7-.341a1.684,1.684,0,0,1,.971-2.425c1.059-.472,1.991-1.756,3.175-.224.118.154.333.23.46.38,2.03,2.4,4.518,2.742,7.567,2.309,7.646-1.086,15.342-1.831,23.017-2.715.194-.022.385-.076.577-.116-.342-2.247-.341-2.294-2.5-2.328-2.874-.047-5.749-.012-8.707-.012l.122,2.1a5.465,5.465,0,0,1-1.277-.017c-.821-.208-1.229.128-1.7.785a2.111,2.111,0,0,1-1.531.714,6.159,6.159,0,0,1-5.239-2.826l.784-1.458c-.43-.057-.793-.131-1.157-.15-6.279-.308-12.561-.58-18.837-.949a7.469,7.469,0,0,1-2.23-.925l.167-.473a7.741,7.741,0,0,1,.963-.048c6.417.466,12.832.968,19.252,1.391,1.263.083,2.56-.281,3.818-.171,2.256.2,4.485.679,6.74.9,3.722.358,7.474.467,11.18.941,2.129.272,4.18,1.114,6.295,1.568a2.558,2.558,0,0,0,1.863-.392c1.545-1.173,2.98-2.492,4.607-3.883l7.485,6.243c1.726-1.091,3.514-2.145,5.2-3.343.365-.26.43-1.03.5-1.582a14.3,14.3,0,0,0,.02-1.884l2.077.483Zm30.248,3.9h3C216.1,3325.367,215.134,3326.368,214.175,3326.905Z" transform="translate(-98.926 -3245.72)" fill="url(#linear-gradient-14)"/>
            <path id="Trazado_101324" data-name="Trazado 101324" d="M151.7,3322.973c6.374-11.911,10.058-13.917,22.819-12.391,6.879-19.485,13.765-38.994,20.711-58.667l4.1,1.606-20.253,56.627.29.123c4.987-9.862,9.973-19.723,15-29.663l2.581,1.487L178.5,3312.7l3.184,2.878c13.936-14.924,27.645-30.01,41.579-45.1l2.231,1.99-35.415,35.87c1.69.107,3.324.906,4.745-.434,1.191-1.123,2.459-2.165,3.816-3.352-.828,3.945-3.871,7.552-8.816,10.53l-1.023-2.406a22.88,22.88,0,0,1-2.184.955,15.376,15.376,0,0,1-1.6.205,1.732,1.732,0,0,0-.835.429c-.6.6-1.144,1.246-1.78,1.95l.879,1.329c-3.806-.313-4.849,3.118-7.08,4.863a34.167,34.167,0,0,0-3.557,3.715l-.286-.284c1.227-1.337,2.451-2.68,3.683-4.014,1.2-1.3,2.413-2.6,3.9-4.2-.823,0-1.249.042-1.665-.008-1.08-.127-1.732.288-1.784,1.4-.067,1.4-.745,1.839-2.119,1.667a31.726,31.726,0,0,0-3.732-.029c.391,1.156.825,2.21,1.082,3.306a2.112,2.112,0,0,1-.238,1.572c-1.055,1.38-2.235,2.663-3.382,4-3.615-1.693-6.925-4.236-11.281-3.043l.227.38a11.162,11.162,0,0,1-2.674-.6,14.2,14.2,0,0,1-2.281-1.805c-1.734-1.359-3.48-2.7-5.219-4.056-.565-.438-1.124-.882-1.686-1.323l.271-.376Q148.581,3320.838,151.7,3322.973Z" transform="translate(-94.675 -3251.916)" fill="url(#linear-gradient-14)"/>
            <path id="Trazado_101325" data-name="Trazado 101325" d="M176.8,3324.058c1.585-.358,3.16-.78,4.76-1.061q10.227-1.8,20.464-3.528c8.742-1.466,17.5-2.85,26.237-4.336,6.478-1.1,12.933-2.337,19.407-3.459,6.77-1.173,13.549-2.282,20.449-3.44v2.942c-2.749.408-5.486.825-8.226,1.22q-10.058,1.449-20.119,2.881-17.451,2.483-34.9,4.957c-8.779,1.255-17.552,2.54-26.331,3.793a11.924,11.924,0,0,1-1.764,0Z" transform="translate(-91.773 -3246.741)" fill="url(#linear-gradient-14)"/>
            <path id="Trazado_101326" data-name="Trazado 101326" d="M176,3321.294q10.387-2.706,20.772-5.411,11.7-3.051,23.4-6.106c5.969-1.554,11.943-3.087,17.91-4.648q8.232-2.154,16.451-4.348c2.732-.724,2.733-.726,3.6,2.234l-82.018,18.6Z" transform="translate(-91.845 -3247.463)" fill="url(#linear-gradient-14)"/>
            <path id="Trazado_101327" data-name="Trazado 101327" d="M178.193,3318.555l43.907-31.01a34,34,0,0,1,.295,3.939c-.011.371-.661.8-1.1,1.068q-11.391,7.015-22.805,13.994-9.427,5.786-18.847,11.586c-.408.251-.836.469-1.256.7Z" transform="translate(-91.643 -3248.642)" fill="url(#linear-gradient-14)"/>
            <path id="Trazado_101328" data-name="Trazado 101328" d="M239.869,3296.449l-5.309-3.354-3.16,2.714c-.9-.517-1.8-1.028-2.691-1.543a1.353,1.353,0,0,1-.483-.338c-.856-1.365.847-4.756,2.47-4.886,1.286-.1,2.579-.128,3.909-.189.558-1.752,1.1-3.45,1.643-5.166C239.49,3287.379,241.006,3291.514,239.869,3296.449Z" transform="translate(-87.067 -3248.997)" fill="url(#linear-gradient-14)"/>
            <path id="Trazado_101329" data-name="Trazado 101329" d="M172.389,3305.978c2.914-12.012,5.827-24.023,8.786-36.224l2.615,1.265q-5.569,17.561-11.112,35.047Z" transform="translate(-92.176 -3250.277)" fill="url(#linear-gradient-14)"/>
            <path id="Trazado_101330" data-name="Trazado 101330" d="M174.355,3283.637a15.544,15.544,0,0,0-.816-2.371,14.739,14.739,0,0,0-1.426-1.874c-.226-.289-.677-.6-.648-.856.164-1.413.444-2.813.7-4.309l1.948.489a6.558,6.558,0,0,0,.509-1.207c.193-.941.663-1.266,1.657-1.2.978.061,1.071.617,1.409,1.35,1.516,3.29.753,5.955-1.88,8.266A16.834,16.834,0,0,0,174.355,3283.637Z" transform="translate(-92.261 -3250.043)" fill="url(#linear-gradient-14)"/>
            <path id="Trazado_101331" data-name="Trazado 101331" d="M181.59,3317.556l25.563-12.226c.285,2.542.284,2.54-1.792,3.351q-11.114,4.345-22.229,8.69c-.452.177-.918.316-1.377.472Z" transform="translate(-91.331 -3247.008)" fill="url(#linear-gradient-14)"/>
            <path id="Trazado_101332" data-name="Trazado 101332" d="M120.1,3342.744l3.164,1.472a2.36,2.36,0,0,1,3.257.04c.585.618-.147,2.7-1.312,2.886a3.308,3.308,0,0,0-2.992,2.925C119,3346.6,118.946,3346.413,120.1,3342.744Z" transform="translate(-97.043 -3243.571)" fill="url(#linear-gradient-14)"/>
            <path id="Trazado_101333" data-name="Trazado 101333" d="M155.829,3324.074l-21.436-3.147c.74-1.165,1.423-1.854,2.972-1.476,5.791,1.415,11.619,2.683,17.431,4.011.371.085.73.226,1.1.341Z" transform="translate(-95.667 -3245.721)" fill="url(#linear-gradient-14)"/>
            <path id="Trazado_101334" data-name="Trazado 101334" d="M191.788,3292.688c-2.269-.853-2.077-2.432-1.783-4.284.313-1.976,1.245-2.928,3.248-2.872C194.829,3288.625,194.452,3290.86,191.788,3292.688Z" transform="translate(-90.574 -3248.828)" fill="url(#linear-gradient-25)"/>
            <path id="Trazado_101335" data-name="Trazado 101335" d="M211.158,3304.335l3.221-4.824,4.948,5.516Z" transform="translate(-88.614 -3247.543)" fill="url(#linear-gradient-26)"/>
            <path id="Trazado_101336" data-name="Trazado 101336" d="M178.47,3334.857c1,.633,2.027,1.221,2.987,1.907,4.217,3.011,8.438,6.018,12.6,9.107a13.744,13.744,0,0,1,2.021,2.362l-.373.395c-.574-.4-1.173-.763-1.718-1.2q-7.495-5.955-14.966-11.937a3.647,3.647,0,0,1-.522-.666Z" transform="translate(-91.617 -3244.298)" fill="url(#linear-gradient-14)"/>
            <path id="Trazado_101337" data-name="Trazado 101337" d="M135.186,3335.791c.025.377.052.669.061.962.01.341,0,.681,0,.986-2.164.888-2.435.77-4.457-1.948Z" transform="translate(-95.998 -3244.209)" fill="url(#linear-gradient-28)"/>
            <path id="Trazado_101338" data-name="Trazado 101338" d="M142.219,3315.456l12.689,6.816-.178.34c-4.221-2.306-8.726-4.068-12.819-6.619Z" transform="translate(-94.976 -3246.078)" fill="url(#linear-gradient-14)"/>
            <path id="Trazado_101339" data-name="Trazado 101339" d="M204.477,3326.338c.959-.537,1.928-1.538,3,0Z" transform="translate(-89.228 -3245.153)" fill="url(#linear-gradient-30)"/>
          </g>
        </g>
      </g>
    </g>
    <g id="Grupo_56212" data-name="Grupo 56212" transform="translate(522.223 3219.946)">
      <g id="Grupo_56210" data-name="Grupo 56210" transform="translate(0 0)">
        <g id="Grupo_56209" data-name="Grupo 56209">
          <rect id="Rectángulo_5412" data-name="Rectángulo 5412" width="149.433" height="149.433" rx="10.541" transform="translate(0 105.665) rotate(-45)" fill="#d61b22"/>
          <rect id="Rectángulo_5413" data-name="Rectángulo 5413" width="127.237" height="127.237" rx="10.497" transform="translate(15.695 105.666) rotate(-45)" fill="url(#linear-gradient)"/>
        </g>
      </g>
      <g id="Grupo_56211" data-name="Grupo 56211" transform="translate(63.718 33.336)">
        <path id="Trazado_101340" data-name="Trazado 101340" d="M604.983,3354.483s12.987-5.786,8.615-20.317c0,0-2.894-8.165-1.9-11.99,0,0-3.825-1.382-7.126,5.5a5.554,5.554,0,0,1-6.366,2.337s5.273-5.444,1.8-14.788a35.053,35.053,0,0,1-1.329-9.73s-2.571-.171-2.7,8.359-4.543,9.344-4.543,9.344,3.9-15.174-6.3-20.746c0,0,.814,5.745-1.628,14.745s1.414,18.388,1.414,18.388-5.658-.215-10.415-10.845a17.752,17.752,0,0,0-7.008-9.408s4.114,16.78-4.051,16.523a10.594,10.594,0,0,1-4.5-3.387s-7.651,11.745,2.508,21.389l6.622,4.628s-7.78,1.865-16.781-6.043c0,0-8.165-5.465-7.393-19.609,0,0,.128-8.036,4.951-19.417a15.163,15.163,0,0,0-.064-8.873s5.015-.707,11.38,6.815c0,0,.579-1.543-2.122-6.558,0,0-3.15-6.172,3.408-14.466,0,0,6.3-7.586,2.957-12.152,0,0,5.98,2.958,5.08,13.438,0,0-1.607,14.787,6.944,20.445,0,0-7.523-17.231-2.315-28.675,0,0,2.507-8.616,11.765-18.066,0,0,5.4-5.722,4.373-10.93,0,0,5.272,4.435.707,17.616s1.672,20.9,1.672,20.9-4.243-14.338,9.645-21.732c0,0-4.951,8.873.835,14.466s8.072,14.112,2.122,22.309c0,0,1.736.772,8.552-6.687,0,0,4.629-4.437,8.165-4.5,0,0-5.723,3.342-1.351,12.729s11.252,21.191,3.922,38.371C624.528,3343.863,618.871,3355.513,604.983,3354.483Z" transform="translate(-543.853 -3250.393)" fill="url(#linear-gradient-2)"/>
        <rect id="Rectángulo_5414" data-name="Rectángulo 5414" width="75.866" height="7.458" transform="translate(4.552 107.691)" fill="url(#linear-gradient-2)"/>
      </g>
    </g>
    <g id="Grupo_56215" data-name="Grupo 56215" transform="translate(305.333 3218.958)">
      <g id="Grupo_56214" data-name="Grupo 56214" transform="translate(0 0)">
        <g id="Grupo_56213" data-name="Grupo 56213">
          <rect id="Rectángulo_5415" data-name="Rectángulo 5415" width="149.433" height="149.433" rx="10.541" transform="translate(0 105.665) rotate(-45)" fill="#d61b22"/>
          <rect id="Rectángulo_5416" data-name="Rectángulo 5416" width="127.237" height="127.237" rx="10.497" transform="translate(15.695 105.665) rotate(-45)" fill="url(#linear-gradient)"/>
        </g>
      </g>
      <path id="Trazado_101341" data-name="Trazado 101341" d="M441.947,3295.293a4.2,4.2,0,0,0-5.5-2.251l-12.181,5.1a11.955,11.955,0,0,0-13.572-3.62l-69.165,26.644a11.954,11.954,0,0,0-6.857,15.452l.259.674a11.955,11.955,0,0,0,15.452,6.858l69.165-26.644a11.952,11.952,0,0,0,7.642-11.479l12.5-5.238A4.2,4.2,0,0,0,441.947,3295.293Z" transform="translate(-282.538 -3212.181)" fill="url(#linear-gradient-2)"/>
    </g>
  </g>
</svg>
