<svg xmlns="http://www.w3.org/2000/svg" width="79.951" height="80.049" viewBox="0 0 79.951 80.049">
  <g id="Grupo_57156" data-name="Grupo 57156" transform="translate(-292.988 -2864.869)">
    <g id="Grupo_57157" data-name="Grupo 57157">
      <g id="Grupo_57156-2" data-name="Grupo 57156">
        <path id="Trazado_102780" data-name="Trazado 102780" d="M350.16,2868.775a40.007,40.007,0,0,0-48.948,60.443h0a40.138,40.138,0,0,0,14.433,11.754v.01c.042.02.087.036.13.057s.078.041.118.06v-.009a39.938,39.938,0,0,0,41.481-4.509l.006,0,5.463-5.112a40.086,40.086,0,0,0,6.195-9.339l0,0h0A40.043,40.043,0,0,0,350.16,2868.775Z" fill="#f94e4e"/>
      </g>
    </g>
    <g id="Grupo_57158" data-name="Grupo 57158">
      <path id="Trazado_102781" data-name="Trazado 102781" d="M339.145,2886.586H326.781a30.107,30.107,0,0,0-9.473,23.954c.282,4.9.485,8.4.631,10.9a6.431,6.431,0,0,0,6.421,6.055h17.206a6.431,6.431,0,0,0,6.421-6.055c.146-2.492.349-5.992.631-10.9A30.107,30.107,0,0,0,339.145,2886.586Zm.656,21.355a15.043,15.043,0,0,1-4.523-4.967,3.26,3.26,0,0,1,.1-3.385l2.209-3.4a1.9,1.9,0,0,1,3.295.183,22.343,22.343,0,0,1,2.39,9.7A2.224,2.224,0,0,1,339.8,2907.941Z" fill="#bdf1ff"/>
      <path id="Trazado_102782" data-name="Trazado 102782" d="M330.683,2893.746c6.045.094,9.792-2.076,11.7-3.637a23.341,23.341,0,0,0-3.235-3.523H326.781a28.062,28.062,0,0,0-6.356,8.532A31.874,31.874,0,0,1,330.683,2893.746Z" fill="#8de7ff"/>
      <path id="Trazado_102783" data-name="Trazado 102783" d="M339.255,2885.482H326.892v-7.116a2.792,2.792,0,0,1,2.792-2.792h6.779a2.792,2.792,0,0,1,2.792,2.792Z" fill="#dbb826"/>
      <path id="Trazado_102784" data-name="Trazado 102784" d="M339.495,2887.69H326.652a2.208,2.208,0,0,1,0-4.416h12.843a2.208,2.208,0,0,1,0,4.416Z" fill="#a0871d"/>
      <path id="Trazado_102785" data-name="Trazado 102785" d="M327.116,2897.835a4.094,4.094,0,0,0-4.011,3.287,42.591,42.591,0,0,0-.831,8.406c0,3.038.161,5.689.342,7.71a4.561,4.561,0,0,0,4.545,4.149h8.672a4.563,4.563,0,0,0,4.564-4.564v-2.479a3.037,3.037,0,0,0-1.6-2.67c-2.518-1.363-7.029-4.6-7.6-10.017A4.134,4.134,0,0,0,327.116,2897.835Z" fill="#fff"/>
    </g>
  </g>
</svg>
