<svg xmlns="http://www.w3.org/2000/svg" xmlns:xlink="http://www.w3.org/1999/xlink" width="86.901" height="101.189" viewBox="0 0 86.901 101.189">
  <defs>
    <clipPath id="clip-path">
      <path id="Trazado_101679" data-name="Trazado 101679" d="M558.873,5424.36c.086-.236.169-.473.251-.709.182-.529.363-1.058.524-1.591.128-.421.238-.844.352-1.266.174-.648.336-1.3.479-1.949.112-.505.218-1.01.311-1.517.063-.347.123-.694.177-1.042q.148-.943.254-1.887c.024-.22.057-.439.078-.659.083-.852.136-1.7.168-2.555.008-.227.009-.454.014-.681q.021-1.023-.005-2.041c-.006-.236-.01-.471-.02-.706-.037-.865-.094-1.727-.182-2.586-.012-.111-.03-.221-.042-.332q-.126-1.131-.312-2.25c-.043-.263-.09-.525-.138-.787q-.189-1.03-.427-2.049c-.042-.176-.076-.354-.12-.53-.2-.825-.436-1.641-.688-2.452-.071-.229-.149-.455-.224-.683q-.327-.993-.7-1.969c-.071-.187-.139-.374-.213-.559q-.5-1.26-1.083-2.489c-.023-.049-.049-.1-.072-.147q-.593-1.237-1.266-2.436c-.031-.055,6.132-24.042,6.1-24.1-4.21-7.461-27.17-3.381-35.491-7.348-21.516-10.257-34.729-6.54-44.987,14.976-.316.664-2.828,20.308-3.108,20.981-.008.02-.018.04-.026.059-.238.575-.458,1.153-.67,1.734-.087.237-.17.475-.253.713-.182.528-.362,1.055-.523,1.587-.13.428-.241.858-.358,1.287-.171.64-.331,1.281-.472,1.926-.112.507-.219,1.014-.312,1.522q-.094.519-.177,1.041-.148.942-.254,1.886c-.024.22-.057.439-.078.659-.083.853-.136,1.706-.168,2.557-.008.226-.009.451-.014.677q-.021,1.025.005,2.046c.007.234.01.468.02.7.037.865.094,1.728.182,2.587.012.111.03.221.042.333.084.753.19,1.5.312,2.25q.066.393.138.787.191,1.029.428,2.047c.041.177.075.355.119.532.2.824.436,1.64.688,2.45.071.23.149.458.225.686q.326.993.7,1.968c.071.186.138.373.213.558q.5,1.261,1.083,2.49c.023.049.049.1.072.146.395.825.819,1.635,1.265,2.435.032.056.062.112.094.169a43.149,43.149,0,0,0,76.519-2.669c.317-.665.6-1.341.877-2.016l.022-.053C558.44,5425.521,558.661,5424.942,558.873,5424.36Z" fill="none"/>
    </clipPath>
  </defs>
  <g id="Grupo_56562" data-name="Grupo 56562" transform="translate(-475.187 -5351.572)">
    <path id="Trazado_101663" data-name="Trazado 101663" d="M558.873,5424.36c.086-.236.169-.473.251-.709.182-.529.363-1.058.524-1.591.128-.421.238-.844.352-1.266.174-.648.336-1.3.479-1.949.112-.505.218-1.01.311-1.517.063-.347.123-.694.177-1.042q.148-.943.254-1.887c.024-.22.057-.439.078-.659.083-.852.136-1.7.168-2.555.008-.227.009-.454.014-.681q.021-1.023-.005-2.041c-.006-.236-.01-.471-.02-.706-.037-.865-.094-1.727-.182-2.586-.012-.111-.03-.221-.042-.332q-.126-1.131-.312-2.25c-.043-.263-.09-.525-.138-.787q-.189-1.03-.427-2.049c-.042-.176-.076-.354-.12-.53-.2-.825-.436-1.641-.688-2.452-.071-.229-.149-.455-.224-.683q-.327-.993-.7-1.969c-.071-.187-.139-.374-.213-.559q-.5-1.26-1.083-2.489c-.023-.049-.049-.1-.072-.147q-.593-1.237-1.266-2.436c-.031-.055-.061-.111-.092-.166a43.149,43.149,0,0,0-76.52,2.667c-.316.663-.594,1.338-.874,2.011-.008.02-.018.04-.026.059-.238.575-.458,1.153-.67,1.734-.087.237-.17.475-.253.713-.182.528-.362,1.055-.523,1.587-.13.428-.241.858-.358,1.287-.171.64-.331,1.281-.472,1.926-.112.507-.219,1.014-.312,1.522q-.094.519-.177,1.041-.148.942-.254,1.886c-.024.22-.057.439-.078.659-.083.853-.136,1.706-.168,2.557-.008.226-.009.451-.014.677q-.021,1.025.005,2.046c.007.234.01.468.02.7.037.865.094,1.728.182,2.587.012.111.03.221.042.333.084.753.19,1.5.312,2.25q.066.393.138.787.191,1.029.428,2.047c.041.177.075.355.119.532.2.824.436,1.64.688,2.45.071.23.149.458.225.686q.326.993.7,1.968c.071.186.138.373.213.558q.5,1.261,1.083,2.49c.023.049.049.1.072.146.395.825.819,1.635,1.265,2.435.032.056.062.112.094.169a43.149,43.149,0,0,0,76.519-2.669c.317-.665.6-1.341.877-2.016l.022-.053C558.44,5425.521,558.661,5424.942,558.873,5424.36Z" fill="#0dcea9"/>
    <path id="Trazado_2310" data-name="Trazado 2310" d="M483.084,5384.66c5.1,3.658,12.959,3.831,15.922-1.329,1.969-3.429-.035-8.109-1.96-11.312A43.387,43.387,0,0,0,483.084,5384.66Z" fill="#09b291"/>
    <path id="Trazado_2311" data-name="Trazado 2311" d="M561.483,5409.565A43.044,43.044,0,0,0,546.87,5377.2c-1.756,2.328-2.282,6.052-1.226,11.14,2.114,10.189-11.566,12.356-2.994,23.263,4.476,5.695,12.117,5.725,18.341,4.483a43.267,43.267,0,0,0,.494-6.521Z" fill="#09b291"/>
    <g id="Grupo_56567" data-name="Grupo 56567">
      <g id="Grupo_56566" data-name="Grupo 56566" clip-path="url(#clip-path)">
        <g id="Grupo_56565" data-name="Grupo 56565">
          <g id="Grupo_56564" data-name="Grupo 56564">
            <g id="Grupo_56562-2" data-name="Grupo 56562">
              <path id="Trazado_101664" data-name="Trazado 101664" d="M500.288,5413.6l-6.218,6.218h-5.7a2.36,2.36,0,0,0,0,4.719h4.313v4.313a2.359,2.359,0,0,0,4.718,0v-5.7l6.218-6.218a2.359,2.359,0,0,0-3.336-3.336Z" fill="#ff435b"/>
              <path id="Trazado_101665" data-name="Trazado 101665" d="M497.406,5374.019v-5.695a2.359,2.359,0,1,0-4.718,0v4.313h-4.313a2.359,2.359,0,1,0,0,4.718h5.7l6.218,6.218a2.359,2.359,0,1,0,3.336-3.336Z" fill="#ff435b"/>
              <path id="Trazado_101666" data-name="Trazado 101666" d="M495.047,5400.946a2.359,2.359,0,1,0,0-4.718H486.43L482.4,5392.2a2.359,2.359,0,1,0-3.336,3.336l3.05,3.05-3.05,3.051a2.359,2.359,0,1,0,3.336,3.336l4.027-4.028Z" fill="#ff435b"/>
            </g>
            <path id="Trazado_101667" data-name="Trazado 101667" d="M536.988,5383.573l6.218-6.218h5.7a2.359,2.359,0,1,0,0-4.718h-4.313v-4.313a2.359,2.359,0,1,0-4.718,0v5.695l-6.218,6.218a2.359,2.359,0,0,0,3.336,3.336Z" fill="#d0004f"/>
            <path id="Trazado_101668" data-name="Trazado 101668" d="M548.9,5419.819h-5.7l-6.218-6.218a2.359,2.359,0,0,0-3.336,3.336l6.218,6.218v5.7a2.359,2.359,0,0,0,4.718,0v-4.313H548.9a2.36,2.36,0,0,0,0-4.719Z" fill="#d0004f"/>
            <path id="Trazado_101669" data-name="Trazado 101669" d="M555.159,5398.587l3.05-3.05a2.359,2.359,0,0,0-3.336-3.336l-4.027,4.027h-8.617a2.359,2.359,0,1,0,0,4.718h8.617l4.027,4.028a2.359,2.359,0,0,0,3.336-3.336Z" fill="#d0004f"/>
            <path id="Trazado_101670" data-name="Trazado 101670" d="M516.279,5366.379V5375a2.359,2.359,0,0,0,4.718,0v-8.617l4.027-4.027a2.359,2.359,0,0,0-3.336-3.336l-3.05,3.05-3.05-3.05a2.359,2.359,0,0,0-3.336,3.336Z" fill="#ff435b"/>
            <path id="Trazado_101671" data-name="Trazado 101671" d="M521,5430.8v-8.617a2.359,2.359,0,1,0-4.718,0v8.617l-4.027,4.027a2.359,2.359,0,0,0,3.336,3.336l3.05-3.051,3.05,3.051a2.359,2.359,0,0,0,3.336-3.336Z" fill="#ff435b"/>
            <path id="Trazado_101672" data-name="Trazado 101672" d="M521,5375v-8.617l4.027-4.027a2.359,2.359,0,0,0-3.336-3.336l-3.05,3.05v15.289A2.358,2.358,0,0,0,521,5375Z" fill="#d0004f"/>
            <path id="Trazado_101673" data-name="Trazado 101673" d="M525.024,5438.159a2.357,2.357,0,0,0,0-3.336L521,5430.8v-8.617a2.359,2.359,0,0,0-2.359-2.36v15.289l3.05,3.051a2.359,2.359,0,0,0,3.336,0Z" fill="#d0004f"/>
            <path id="Trazado_101674" data-name="Trazado 101674" d="M544.588,5398.587a11.805,11.805,0,0,0-4.987-9.607,9.033,9.033,0,0,0,.269-2.188,9.446,9.446,0,0,0-9.436-9.437,8.985,8.985,0,0,0-2.189.27,11.746,11.746,0,0,0-19.214,0,8.986,8.986,0,0,0-2.189-.27,9.446,9.446,0,0,0-9.436,9.437,9.034,9.034,0,0,0,.269,2.188,11.747,11.747,0,0,0,0,19.214,9.051,9.051,0,0,0-.269,2.189,9.445,9.445,0,0,0,9.436,9.436,8.985,8.985,0,0,0,2.189-.269,11.745,11.745,0,0,0,19.214,0,8.984,8.984,0,0,0,2.189.269,9.445,9.445,0,0,0,9.436-9.436,9.05,9.05,0,0,0-.269-2.189,11.8,11.8,0,0,0,4.987-9.607Z" fill="#ff7b4a"/>
            <path id="Trazado_101675" data-name="Trazado 101675" d="M528.245,5419.55a8.984,8.984,0,0,0,2.189.269,9.445,9.445,0,0,0,9.436-9.436,9.05,9.05,0,0,0-.269-2.189,11.747,11.747,0,0,0,0-19.214,9.033,9.033,0,0,0,.269-2.188,9.446,9.446,0,0,0-9.436-9.437,8.985,8.985,0,0,0-2.189.27,11.8,11.8,0,0,0-9.607-4.988v51.9a11.8,11.8,0,0,0,9.607-4.988Z" fill="#ff435b"/>
            <circle id="Elipse_4062" data-name="Elipse 4062" cx="2.359" cy="2.359" r="2.359" transform="translate(502.124 5396.228)" fill="#ff435b"/>
            <circle id="Elipse_4063" data-name="Elipse 4063" cx="2.359" cy="2.359" r="2.359" transform="translate(530.434 5396.228)" fill="#d0004f"/>
            <g id="Grupo_56563" data-name="Grupo 56563">
              <circle id="Elipse_4064" data-name="Elipse 4064" cx="2.359" cy="2.359" r="2.359" transform="translate(516.279 5382.073)" fill="#ff435b"/>
              <circle id="Elipse_4065" data-name="Elipse 4065" cx="7.077" cy="7.077" r="7.077" transform="translate(511.561 5391.51)" fill="#ff435b"/>
              <circle id="Elipse_4066" data-name="Elipse 4066" cx="2.359" cy="2.359" r="2.359" transform="translate(516.279 5410.383)" fill="#ff435b"/>
            </g>
            <path id="Trazado_101676" data-name="Trazado 101676" d="M525.715,5398.587a7.085,7.085,0,0,0-7.077-7.077v14.155A7.085,7.085,0,0,0,525.715,5398.587Z" fill="#d0004f"/>
            <path id="Trazado_101677" data-name="Trazado 101677" d="M521,5384.433a2.359,2.359,0,0,0-2.359-2.36v4.719A2.36,2.36,0,0,0,521,5384.433Z" fill="#d0004f"/>
            <path id="Trazado_101678" data-name="Trazado 101678" d="M521,5412.742a2.359,2.359,0,0,0-2.359-2.359v4.718A2.359,2.359,0,0,0,521,5412.742Z" fill="#d0004f"/>
          </g>
        </g>
      </g>
    </g>
  </g>
</svg>
