<svg xmlns="http://www.w3.org/2000/svg" xmlns:xlink="http://www.w3.org/1999/xlink" width="86.303" height="98.262" viewBox="0 0 86.303 98.262">
  <defs>
    <clipPath id="clip-path">
      <path id="Trazado_101644" data-name="Trazado 101644" d="M319.511,5424.36c.087-.236.169-.473.251-.709.182-.529.364-1.058.525-1.591.127-.421.237-.844.351-1.266q.262-.972.479-1.949c.112-.505.219-1.01.311-1.517q.1-.521.177-1.042c.1-.629.183-1.258.254-1.887.025-.22.057-.439.079-.659.082-.852.136-1.7.167-2.555.009-.227.009-.454.014-.681q.021-1.023,0-2.041c-.006-.236-.01-.471-.02-.706-.037-.865-.093-1.727-.182-2.586-.011-.111-.03-.221-.042-.332-.083-.754-.189-1.5-.312-2.25-.043-.263-.09-.525-.138-.787q-.189-1.03-.427-2.049c-.042-.176-.076-.354-.12-.53-.2-.825-.436-1.641-.688-2.452-.071-.229-.149-.455-.224-.683q-.326-.993-.7-1.969c-.072-.187-.139-.374-.213-.559q-.5-1.26-1.083-2.489c-.023-.049-.049-.1-.073-.147-.394-.825-.819-1.636-1.266-2.436-.031-.055-.061-.111-.092-.166-4.21-7.461-20.978-27.312-29.3-31.279-21.516-10.257-36.963,12.43-47.221,33.946-.316.663-.593,1.338-.874,2.011-.008.02-.017.04-.025.059-.238.575-.459,1.153-.671,1.734-.087.237-.17.475-.252.713-.182.528-.363,1.055-.524,1.587-.13.428-.241.858-.357,1.287-.172.64-.331,1.281-.473,1.926-.112.507-.219,1.014-.312,1.522q-.095.519-.177,1.041c-.1.628-.182,1.257-.253,1.886-.025.22-.058.439-.079.659-.083.853-.136,1.706-.168,2.557-.008.226-.009.451-.013.677q-.022,1.025.005,2.046c.006.234.01.468.02.7.037.865.093,1.728.182,2.587.011.111.029.221.041.333.084.753.19,1.5.313,2.25q.064.393.138.787.189,1.029.427,2.047c.041.177.076.355.119.532.2.824.436,1.64.688,2.45.071.23.15.458.225.686q.327.993.7,1.968c.071.186.139.373.213.558q.5,1.261,1.083,2.49c.023.049.049.1.073.146.394.825.818,1.635,1.264,2.435.032.056.063.112.094.169a43.149,43.149,0,0,0,76.519-2.669c.317-.665.6-1.341.877-2.016l.023-.053C319.078,5425.521,319.3,5424.942,319.511,5424.36Z" fill="none"/>
    </clipPath>
  </defs>
  <g id="Grupo_56542" data-name="Grupo 56542" transform="translate(-235.826 -5354.5)">
    <path id="Trazado_101625" data-name="Trazado 101625" d="M319.511,5424.36c.087-.236.169-.473.251-.709.182-.529.364-1.058.525-1.591.127-.421.237-.844.351-1.266q.262-.972.479-1.949c.112-.505.219-1.01.311-1.517q.1-.521.177-1.042c.1-.629.183-1.258.254-1.887.025-.22.057-.439.079-.659.082-.852.136-1.7.167-2.555.009-.227.009-.454.014-.681q.021-1.023,0-2.041c-.006-.236-.01-.471-.02-.706-.037-.865-.093-1.727-.182-2.586-.011-.111-.03-.221-.042-.332-.083-.754-.189-1.5-.312-2.25-.043-.263-.09-.525-.138-.787q-.189-1.03-.427-2.049c-.042-.176-.076-.354-.12-.53-.2-.825-.436-1.641-.688-2.452-.071-.229-.149-.455-.224-.683q-.326-.993-.7-1.969c-.072-.187-.139-.374-.213-.559q-.5-1.26-1.083-2.489c-.023-.049-.049-.1-.073-.147-.394-.825-.819-1.636-1.266-2.436-.031-.055-.061-.111-.092-.166a43.149,43.149,0,0,0-76.52,2.667c-.316.663-.593,1.338-.874,2.011-.008.02-.017.04-.025.059-.238.575-.459,1.153-.671,1.734-.087.237-.17.475-.252.713-.182.528-.363,1.055-.524,1.587-.13.428-.241.858-.357,1.287-.172.64-.331,1.281-.473,1.926-.112.507-.219,1.014-.312,1.522q-.095.519-.177,1.041c-.1.628-.182,1.257-.253,1.886-.025.22-.058.439-.079.659-.083.853-.136,1.706-.168,2.557-.008.226-.009.451-.013.677q-.022,1.025.005,2.046c.006.234.01.468.02.7.037.865.093,1.728.182,2.587.011.111.029.221.041.333.084.753.19,1.5.313,2.25q.064.393.138.787.189,1.029.427,2.047c.041.177.076.355.119.532.2.824.436,1.64.688,2.45.071.23.15.458.225.686q.327.993.7,1.968c.071.186.139.373.213.558q.5,1.261,1.083,2.49c.023.049.049.1.073.146.394.825.818,1.635,1.264,2.435.032.056.063.112.094.169a43.149,43.149,0,0,0,76.519-2.669c.317-.665.6-1.341.877-2.016l.023-.053C319.078,5425.521,319.3,5424.942,319.511,5424.36Z" fill="#0dcea9"/>
    <path id="Trazado_2310" data-name="Trazado 2310" d="M243.723,5384.66c5.1,3.658,12.959,3.831,15.922-1.329,1.969-3.429-.035-8.109-1.96-11.312A43.366,43.366,0,0,0,243.723,5384.66Z" fill="#09b291"/>
    <path id="Trazado_2311" data-name="Trazado 2311" d="M322.122,5409.565a43.047,43.047,0,0,0-14.613-32.365c-1.756,2.328-2.282,6.052-1.226,11.14,2.114,10.189-11.566,12.356-2.994,23.263,4.476,5.695,12.117,5.725,18.341,4.483a43.527,43.527,0,0,0,.494-6.521Z" fill="#09b291"/>
    <g id="Grupo_56541" data-name="Grupo 56541">
      <g id="Grupo_56540" data-name="Grupo 56540" clip-path="url(#clip-path)">
        <g id="Grupo_56539" data-name="Grupo 56539">
          <g id="Grupo_56522" data-name="Grupo 56522">
            <path id="Trazado_101626" data-name="Trazado 101626" d="M301.415,5400.063H257.506a12.546,12.546,0,0,0-12.545,12.546v14.113h12.545v26.659h43.909v-26.659H313.96v-14.113A12.546,12.546,0,0,0,301.415,5400.063Z" fill="#fab991"/>
          </g>
          <g id="Grupo_56523" data-name="Grupo 56523">
            <path id="Trazado_101627" data-name="Trazado 101627" d="M273.188,5396.927h12.545v3.136H273.188Z" fill="#f0915a"/>
          </g>
          <g id="Grupo_56524" data-name="Grupo 56524">
            <path id="Trazado_101628" data-name="Trazado 101628" d="M301.415,5418.881v7.841h3.136v-4.7A3.136,3.136,0,0,0,301.415,5418.881Z" fill="#f0915a"/>
          </g>
          <g id="Grupo_56525" data-name="Grupo 56525">
            <path id="Trazado_101629" data-name="Trazado 101629" d="M257.506,5418.881v7.841H254.37v-4.7A3.136,3.136,0,0,1,257.506,5418.881Z" fill="#f0915a"/>
          </g>
          <g id="Grupo_56526" data-name="Grupo 56526">
            <path id="Trazado_101630" data-name="Trazado 101630" d="M276.22,5359.291h-1.464a15.682,15.682,0,0,0-15.682,15.682v3.136h-.941a3.764,3.764,0,0,0,0,7.527h.941v5.646a5.646,5.646,0,0,0,5.646,5.645h17.25a3.764,3.764,0,0,1,3.763,3.764V5389.4a6.168,6.168,0,0,0,6.168-6.168v-8.259a15.682,15.682,0,0,0-15.681-15.682Z" fill="#fab991"/>
          </g>
          <g id="Grupo_56527" data-name="Grupo 56527">
            <path id="Trazado_101631" data-name="Trazado 101631" d="M263.779,5443.972h7.841a6.272,6.272,0,0,0,6.272-6.273V5411.04a1.568,1.568,0,0,0-1.568-1.568,15.682,15.682,0,0,0-15.682,15.682v15.682A3.137,3.137,0,0,0,263.779,5443.972Z" fill="#f05a4b"/>
          </g>
          <g id="Grupo_56528" data-name="Grupo 56528">
            <path id="Trazado_101632" data-name="Trazado 101632" d="M295.142,5443.972H287.3a6.272,6.272,0,0,1-6.272-6.273V5411.04a1.568,1.568,0,0,1,1.568-1.568,15.681,15.681,0,0,1,15.681,15.682v15.682A3.136,3.136,0,0,1,295.142,5443.972Z" fill="#f05a4b"/>
          </g>
          <g id="Grupo_56529" data-name="Grupo 56529">
            <path id="Trazado_101633" data-name="Trazado 101633" d="M292.006,5423.586h-3.137a1.571,1.571,0,0,1-1.568-1.568v-1.569a4.689,4.689,0,0,0-.269-1.568h3.406a1.568,1.568,0,1,0,0-3.136h-9.409a1.568,1.568,0,1,0,0,3.136H282.6a1.571,1.571,0,0,1,1.568,1.568v7.841a4.71,4.71,0,0,0,4.7,4.705,1.569,1.569,0,1,0,0-3.137,1.57,1.57,0,0,1-1.568-1.568v-1.838a4.691,4.691,0,0,0,1.568.27h3.137a1.568,1.568,0,0,0,0-3.136Z" fill="#d73728"/>
            <path id="Trazado_101634" data-name="Trazado 101634" d="M277.892,5415.745h-9.409a1.568,1.568,0,1,0,0,3.136h3.406a4.688,4.688,0,0,0-.269,1.568v1.569a1.571,1.571,0,0,1-1.569,1.568h-3.136a1.568,1.568,0,0,0,0,3.136h3.136a4.693,4.693,0,0,0,1.569-.27v1.838a1.57,1.57,0,0,1-1.569,1.568,1.569,1.569,0,0,0,0,3.137,4.71,4.71,0,0,0,4.705-4.705v-7.841a1.57,1.57,0,0,1,1.568-1.568h1.568a1.568,1.568,0,1,0,0-3.136Z" fill="#d73728"/>
          </g>
          <g id="Grupo_56530" data-name="Grupo 56530">
            <path id="Trazado_101635" data-name="Trazado 101635" d="M298.278,5453.381h-3.136a4.71,4.71,0,0,0-4.7-4.705H268.483a4.71,4.71,0,0,0-4.7,4.705h-3.137a7.85,7.85,0,0,1,7.841-7.841h21.955A7.849,7.849,0,0,1,298.278,5453.381Z" fill="#dc6950"/>
          </g>
          <g id="Grupo_56531" data-name="Grupo 56531">
            <path id="Trazado_101636" data-name="Trazado 101636" d="M273.711,5378.109h-9.932a4.7,4.7,0,0,0-4.7,4.7v2.614H275.8a2.091,2.091,0,0,1,2.091,2.091H259.074v3.136h15.682a3.136,3.136,0,0,1,3.136,3.137v6.272h3.137v-14.636a7.318,7.318,0,0,0-7.318-7.318Z" fill="#f05a4b"/>
          </g>
          <g id="Grupo_56532" data-name="Grupo 56532">
            <path id="Trazado_101637" data-name="Trazado 101637" d="M277.892,5433v4.7a6.272,6.272,0,0,1-6.272,6.273h-7.841a3.136,3.136,0,1,1,0-6.273h9.409A4.7,4.7,0,0,0,277.892,5433Z" fill="#d73728"/>
          </g>
          <g id="Grupo_56533" data-name="Grupo 56533">
            <path id="Trazado_101638" data-name="Trazado 101638" d="M281.029,5433v4.7a6.272,6.272,0,0,0,6.272,6.273h7.841a3.136,3.136,0,0,0,0-6.273h-9.409A4.7,4.7,0,0,1,281.029,5433Z" fill="#d73728"/>
          </g>
          <g id="Grupo_56534" data-name="Grupo 56534">
            <path id="Trazado_101639" data-name="Trazado 101639" d="M277.892,5400.063h3.137v18.818h-3.137Z" fill="#5ad7ff"/>
          </g>
          <g id="Grupo_56535" data-name="Grupo 56535">
            <path id="Trazado_101640" data-name="Trazado 101640" d="M277.892,5402.154h3.137v2.091h-3.137Z" fill="#2387c3"/>
          </g>
          <g id="Grupo_56536" data-name="Grupo 56536">
            <path id="Trazado_101641" data-name="Trazado 101641" d="M277.892,5406.336h3.137v2.091h-3.137Z" fill="#2387c3"/>
          </g>
          <g id="Grupo_56537" data-name="Grupo 56537">
            <path id="Trazado_101642" data-name="Trazado 101642" d="M277.892,5410.518h3.137v2.091h-3.137Z" fill="#2387c3"/>
          </g>
          <g id="Grupo_56538" data-name="Grupo 56538">
            <path id="Trazado_101643" data-name="Trazado 101643" d="M277.892,5414.7h3.137v2.091h-3.137Z" fill="#2387c3"/>
          </g>
        </g>
      </g>
    </g>
  </g>
</svg>
