<svg xmlns="http://www.w3.org/2000/svg" xmlns:xlink="http://www.w3.org/1999/xlink" width="86.901" height="101.189" viewBox="0 0 86.901 101.189">
  <defs>
    <clipPath id="clip-path">
      <path id="Trazado_101662" data-name="Trazado 101662" d="M426.2,5424.36c.086-.236.169-.473.251-.709.182-.529.363-1.058.524-1.591.128-.421.238-.844.352-1.266.174-.648.336-1.3.479-1.949.112-.505.218-1.01.311-1.517.063-.347.123-.694.177-1.042.1-.629.183-1.258.254-1.887.025-.22.057-.439.078-.659.083-.852.136-1.7.168-2.555.009-.227.009-.454.014-.681q.021-1.023-.005-2.041c-.006-.236-.01-.471-.02-.706-.037-.865-.094-1.727-.182-2.586-.012-.111-.03-.221-.042-.332q-.126-1.131-.312-2.25c-.043-.263-.09-.525-.138-.787q-.189-1.03-.427-2.049c-.042-.176-.076-.354-.12-.53-.2-.825-.436-1.641-.688-2.452-.071-.229-.149-.455-.224-.683q-.327-.993-.7-1.969c-.071-.187-.138-.374-.212-.559q-.5-1.26-1.083-2.489c-.024-.049-.049-.1-.073-.147-.394-.825-.819-1.636-1.266-2.436-.031-.055,6.132-24.042,6.1-24.1-4.21-7.461-27.17-3.381-35.491-7.348-21.516-10.257-34.729-6.54-44.987,14.976-.316.664-2.828,20.308-3.108,20.981-.008.02-.017.04-.026.059-.238.575-.458,1.153-.67,1.734-.087.237-.17.475-.253.713-.182.528-.362,1.055-.523,1.587-.13.428-.241.858-.357,1.287-.172.64-.332,1.281-.473,1.926-.112.507-.219,1.014-.312,1.522q-.094.519-.177,1.041-.148.942-.254,1.886c-.024.22-.057.439-.078.659-.083.853-.136,1.706-.168,2.557-.008.226-.009.451-.014.677q-.021,1.025.006,2.046c.006.234.01.468.019.7.037.865.094,1.728.182,2.587.012.111.03.221.042.333.084.753.19,1.5.312,2.25q.066.393.138.787.191,1.029.428,2.047c.041.177.076.355.119.532.2.824.436,1.64.688,2.45.071.23.149.458.225.686q.325.993.7,1.968c.071.186.138.373.213.558q.5,1.261,1.083,2.49c.023.049.049.1.072.146.395.825.819,1.635,1.265,2.435.032.056.062.112.094.169a43.149,43.149,0,0,0,76.519-2.669c.317-.665.6-1.341.877-2.016l.022-.053C425.771,5425.521,425.992,5424.942,426.2,5424.36Z" fill="none"/>
    </clipPath>
  </defs>
  <g id="Grupo_56550" data-name="Grupo 56550" transform="translate(-342.518 -5351.572)">
    <path id="Trazado_101645" data-name="Trazado 101645" d="M426.2,5424.36c.086-.236.169-.473.251-.709.182-.529.363-1.058.524-1.591.128-.421.238-.844.352-1.266.174-.648.336-1.3.479-1.949.112-.505.218-1.01.311-1.517.063-.347.123-.694.177-1.042.1-.629.183-1.258.254-1.887.025-.22.057-.439.078-.659.083-.852.136-1.7.168-2.555.009-.227.009-.454.014-.681q.021-1.023-.005-2.041c-.006-.236-.01-.471-.02-.706-.037-.865-.094-1.727-.182-2.586-.012-.111-.03-.221-.042-.332q-.126-1.131-.312-2.25c-.043-.263-.09-.525-.138-.787q-.189-1.03-.427-2.049c-.042-.176-.076-.354-.12-.53-.2-.825-.436-1.641-.688-2.452-.071-.229-.149-.455-.224-.683q-.327-.993-.7-1.969c-.071-.187-.138-.374-.212-.559q-.5-1.26-1.083-2.489c-.024-.049-.049-.1-.073-.147-.394-.825-.819-1.636-1.266-2.436-.031-.055-.061-.111-.092-.166a43.149,43.149,0,0,0-76.52,2.667c-.316.663-.594,1.338-.874,2.011-.008.02-.017.04-.026.059-.238.575-.458,1.153-.67,1.734-.087.237-.17.475-.253.713-.182.528-.362,1.055-.523,1.587-.13.428-.241.858-.357,1.287-.172.64-.332,1.281-.473,1.926-.112.507-.219,1.014-.312,1.522q-.094.519-.177,1.041-.148.942-.254,1.886c-.024.22-.057.439-.078.659-.083.853-.136,1.706-.168,2.557-.008.226-.009.451-.014.677q-.021,1.025.006,2.046c.006.234.01.468.019.7.037.865.094,1.728.182,2.587.012.111.03.221.042.333.084.753.19,1.5.312,2.25q.066.393.138.787.191,1.029.428,2.047c.041.177.076.355.119.532.2.824.436,1.64.688,2.45.071.23.149.458.225.686q.325.993.7,1.968c.071.186.138.373.213.558q.5,1.261,1.083,2.49c.023.049.049.1.072.146.395.825.819,1.635,1.265,2.435.032.056.062.112.094.169a43.149,43.149,0,0,0,76.519-2.669c.317-.665.6-1.341.877-2.016l.022-.053C425.771,5425.521,425.992,5424.942,426.2,5424.36Z" fill="#0dcea9"/>
    <path id="Trazado_2310" data-name="Trazado 2310" d="M350.415,5384.66c5.1,3.658,12.959,3.831,15.922-1.329,1.969-3.429-.035-8.109-1.96-11.312A43.387,43.387,0,0,0,350.415,5384.66Z" fill="#09b291"/>
    <path id="Trazado_2311" data-name="Trazado 2311" d="M428.814,5409.565A43.044,43.044,0,0,0,414.2,5377.2c-1.756,2.328-2.282,6.052-1.226,11.14,2.114,10.189-11.566,12.356-2.994,23.263,4.476,5.695,12.117,5.725,18.341,4.483a43.263,43.263,0,0,0,.494-6.521Z" fill="#09b291"/>
    <g id="Grupo_56561" data-name="Grupo 56561">
      <g id="Grupo_56560" data-name="Grupo 56560" clip-path="url(#clip-path)">
        <g id="Grupo_56559" data-name="Grupo 56559">
          <g id="Grupo_56554" data-name="Grupo 56554">
            <g id="Grupo_56551" data-name="Grupo 56551">
              <path id="Trazado_101646" data-name="Trazado 101646" d="M371.821,5417.076a15.93,15.93,0,0,1-3.129-.323,25.1,25.1,0,0,1-18.351-18.35c-.885-4.427.067-8.3,2.681-10.918s6.492-3.566,10.918-2.681a25.1,25.1,0,0,1,18.351,18.35c.885,4.427-.067,8.305-2.681,10.918A10.723,10.723,0,0,1,371.821,5417.076Z" fill="#ff6378"/>
              <g id="Grupo_56550-2" data-name="Grupo 56550">
                <path id="Trazado_101647" data-name="Trazado 101647" d="M382.291,5403.154a23.593,23.593,0,0,0-6.62-11.731l-18.71,18.71a23.586,23.586,0,0,0,11.731,6.62,15.93,15.93,0,0,0,3.129.323,10.723,10.723,0,0,0,7.789-3C382.224,5411.458,383.176,5407.581,382.291,5403.154Z" fill="#ff3838"/>
              </g>
              <path id="Trazado_101648" data-name="Trazado 101648" d="M374.8,5405.772c-2,0-5.6-1.124-8.976-4.5-3.763-3.763-4.727-7.8-4.458-9.6a2.089,2.089,0,0,1,4.133.613c-.04.421.369,3.118,3.28,6.029s5.615,3.32,6.031,3.28a2.088,2.088,0,1,1,.61,4.132,4.164,4.164,0,0,1-.62.043Z" fill="#ff3838"/>
            </g>
            <g id="Grupo_56553" data-name="Grupo 56553">
              <g id="Grupo_56552" data-name="Grupo 56552">
                <path id="Trazado_101649" data-name="Trazado 101649" d="M377.18,5403.353a2.085,2.085,0,0,0-2.37-1.757c-.417.041-3.115-.363-6.032-3.279l-2.955,2.954c3.378,3.377,6.976,4.5,8.976,4.5a4.164,4.164,0,0,0,.62-.043,2.092,2.092,0,0,0,1.761-2.376Z" fill="#af3345"/>
              </g>
            </g>
          </g>
          <g id="Grupo_56556" data-name="Grupo 56556">
            <g id="Grupo_56555" data-name="Grupo 56555">
              <path id="Trazado_101650" data-name="Trazado 101650" d="M397.917,5435.453a20.044,20.044,0,0,1-14.347-5.832l-.074-.074a4.573,4.573,0,0,1-.907-5.179,4.643,4.643,0,0,1,4.6-2.7c4.632.356,10.078-2,14.214-6.133s6.486-9.582,6.133-14.214a4.64,4.64,0,0,1,2.7-4.6,4.572,4.572,0,0,1,5.18.91l.073.072a20.122,20.122,0,0,1,5.813,15.248,23.809,23.809,0,0,1-22.484,22.485c-.3.012-.6.018-.9.018Z" fill="#ff6378"/>
            </g>
            <path id="Trazado_101651" data-name="Trazado 101651" d="M387.193,5421.671a4.643,4.643,0,0,0-4.6,2.7,4.571,4.571,0,0,0,.907,5.179l.074.074a20.044,20.044,0,0,0,14.347,5.832q.449,0,.9-.018a23.333,23.333,0,0,0,15.546-6.939l-12.958-12.958c-4.136,4.136-9.582,6.489-14.214,6.133Z" fill="#ff3838"/>
          </g>
          <path id="Trazado_101652" data-name="Trazado 101652" d="M370.251,5382.256c-8.467,0-15.356-6.426-15.356-14.325v-.073a3.692,3.692,0,0,1,2.439-3.473,3.736,3.736,0,0,1,4.156,1.085c1.824,2.125,5.181,3.445,8.761,3.445s6.937-1.32,8.761-3.445a3.736,3.736,0,0,1,4.156-1.085,3.694,3.694,0,0,1,2.438,3.477v.069c0,7.9-6.889,14.325-15.356,14.325Z" fill="#ff6378"/>
          <path id="Trazado_101653" data-name="Trazado 101653" d="M385.606,5367.931v-.069a3.694,3.694,0,0,0-2.438-3.477,3.736,3.736,0,0,0-4.156,1.085c-1.824,2.125-5.181,3.445-8.761,3.445v13.341c8.467,0,15.355-6.426,15.355-14.325Z" fill="#ff3838"/>
          <path id="Trazado_101654" data-name="Trazado 101654" d="M362.3,5435.453a8.475,8.475,0,0,1-2.148-.291,15.007,15.007,0,0,1-9.844-9.844,5.7,5.7,0,0,1,7.426-7.427,15.006,15.006,0,0,1,9.844,9.845,6.248,6.248,0,0,1-1.25,6.176A5.563,5.563,0,0,1,362.3,5435.453Z" fill="#ff6378"/>
          <path id="Trazado_101655" data-name="Trazado 101655" d="M393.889,5412.2a6.25,6.25,0,0,1-5.251-3.484,15.007,15.007,0,0,1,0-13.922,5.7,5.7,0,0,1,10.5,0,15.008,15.008,0,0,1,0,13.922A6.253,6.253,0,0,1,393.889,5412.2Z" fill="#ff6378"/>
          <path id="Trazado_101656" data-name="Trazado 101656" d="M393.889,5391.307a6.253,6.253,0,0,1,5.251,3.484,15.008,15.008,0,0,1,0,13.922,6.253,6.253,0,0,1-5.251,3.484Z" fill="#ff3838"/>
          <g id="Grupo_56557" data-name="Grupo 56557">
            <path id="Trazado_101657" data-name="Trazado 101657" d="M351.56,5419.141a6.251,6.251,0,0,0-1.25,6.177,15.007,15.007,0,0,0,9.844,9.844,8.475,8.475,0,0,0,2.148.291,5.567,5.567,0,0,0,4.029-1.541Z" fill="#ff3838"/>
          </g>
          <g id="Grupo_56558" data-name="Grupo 56558">
            <path id="Trazado_101658" data-name="Trazado 101658" d="M405.306,5387.825a19.374,19.374,0,0,1-11.045-3.233c-3.2-2.243-4.97-5.3-4.97-8.6s1.765-6.361,4.97-8.6a20.485,20.485,0,0,1,22.091,0c3.205,2.243,4.97,5.3,4.97,8.6s-1.765,6.362-4.97,8.6A19.375,19.375,0,0,1,405.306,5387.825Z" fill="#ff6378"/>
            <path id="Trazado_101659" data-name="Trazado 101659" d="M416.352,5367.383a19.375,19.375,0,0,0-11.046-3.233v23.675a19.375,19.375,0,0,0,11.046-3.233c3.205-2.243,4.97-5.3,4.97-8.6S419.557,5369.626,416.352,5367.383Z" fill="#ff3838"/>
            <path id="Trazado_101660" data-name="Trazado 101660" d="M405.306,5377.38a10.861,10.861,0,0,1-6.347-1.786,2.089,2.089,0,1,1,2.44-3.391,8.141,8.141,0,0,0,7.815,0,2.089,2.089,0,0,1,2.44,3.391,10.865,10.865,0,0,1-6.348,1.786Z" fill="#ff3838"/>
            <path id="Trazado_101661" data-name="Trazado 101661" d="M411.653,5375.594a2.089,2.089,0,0,0-2.439-3.391,6.809,6.809,0,0,1-3.908,1v4.178a10.859,10.859,0,0,0,6.347-1.786Z" fill="#af3345"/>
          </g>
        </g>
      </g>
    </g>
  </g>
</svg>
