<svg xmlns="http://www.w3.org/2000/svg" width="44.243" height="52.977" viewBox="0 0 44.243 52.977">
  <g id="Grupo_56701" data-name="Grupo 56701" transform="translate(-1540.502 -386.168)">
    <g id="Grupo_56700" data-name="Grupo 56700">
      <path id="Trazado_101931" data-name="Trazado 101931" d="M1582.124,420.99a19.818,19.818,0,0,0-18.724-23.361v-3.557h1.09a5.267,5.267,0,0,0,5.261-5.261v-1.453a1.192,1.192,0,0,0-1.19-1.19h-1.452a5.258,5.258,0,0,1-8.97,2.259h-1.453a1.192,1.192,0,0,0-1.19,1.19v1.453a5.267,5.267,0,0,0,5.261,5.261h1.091v1.3a19.763,19.763,0,0,0-18.724,23.361,2.75,2.75,0,0,0-.454,5.435l1.489.323a2.659,2.659,0,0,0-.3,3.958,2.555,2.555,0,0,0,1,.621,22.585,22.585,0,0,1,3.021,5.6,2.587,2.587,0,0,0,3.035.459,2.64,2.64,0,0,0,2.452,1.761,2.58,2.58,0,0,0,1.829-.757l1.911-1.91a19.95,19.95,0,0,0,11.027,0l1.911,1.91a46.508,46.508,0,0,1,7.317-1.463,2.581,2.581,0,0,1,2.56-2.561,2.623,2.623,0,0,0,.461-3.036,2.583,2.583,0,0,0,1-.622,2.685,2.685,0,0,0-.3-3.959l1.488-.322a2.75,2.75,0,0,0-.453-5.435ZM1563.4,391.429a3.713,3.713,0,0,1,3.709-3.709h1.09v1.091a3.713,3.713,0,0,1-3.523,3.7l1.125-1a.776.776,0,1,0-1.029-1.162l-1.372,1.215Zm-2.9.9a.776.776,0,0,0-1.1,1.1l1.348,1.347a3.713,3.713,0,0,1-3.7-3.708v-1.091h1.091a3.713,3.713,0,0,1,3.709,3.7ZM1543,424.908a1.2,1.2,0,0,1,.479-2.345,19.813,19.813,0,0,0,.911,2.646Zm1.957,4.7a1.044,1.044,0,0,1,0-1.463l3.073-3.073a1.034,1.034,0,0,1,1.463,1.463l-3.073,3.073a1.044,1.044,0,0,1-1.463,0Zm1.463,3.659a1.038,1.038,0,0,1,0-1.464l5.268-5.268a1.043,1.043,0,0,1,1.464,0h0a1.045,1.045,0,0,1,0,1.464l-5.268,5.268A1.046,1.046,0,0,1,1546.419,433.267Zm4.025,2.56a1.035,1.035,0,0,1-1.464-1.463l5.268-5.268a1.034,1.034,0,1,1,1.463,1.463Zm6.731-1.609-3.073,3.073a1.035,1.035,0,0,1-1.464-1.463l3.073-3.073a1.035,1.035,0,0,1,1.464,1.463Zm1.1-2.561a2.587,2.587,0,0,1-1.463-3.658,2.583,2.583,0,0,1-2.561-2.561,2.586,2.586,0,0,1-3.658-1.463h0a2.587,2.587,0,0,0-3.659,0l-.967.967a18.267,18.267,0,0,1,1.5-17.691,8.316,8.316,0,0,1,3.283,4.089,6.737,6.737,0,0,1,.148,2.751,18.213,18.213,0,0,0,.259,5.432,16.182,16.182,0,0,0,.686,2.562.776.776,0,0,0,1.46-.525,14.819,14.819,0,0,1-.622-2.329,16.559,16.559,0,0,1-.235-5.017,8.128,8.128,0,0,0-.214-3.333,9.722,9.722,0,0,0-3.842-4.88,18.3,18.3,0,0,1,9.661-6.255c.446,1.881.813,3.9,1.121,5.879.5,3.184.888,5.7,2.793,6.312a3.489,3.489,0,0,0,2.857-.645,3.44,3.44,0,0,1,2.381-.675c1.347.261,2.228,2.407,3.46,3.419a9.982,9.982,0,0,0,7.1,1.859.776.776,0,0,0-.128-1.546,8.537,8.537,0,0,1-5.99-1.512c-1.541-1.267-1.875-3.3-4.15-3.744a4.835,4.835,0,0,0-3.44.848c-.726.411-1.192.656-1.617.519-.995-.321-1.355-2.63-1.736-5.074-.311-2-.686-4.058-1.136-5.964a18.276,18.276,0,0,1,19.719,25.52l-.967-.967a2.587,2.587,0,0,0-3.659,0h0a1.081,1.081,0,0,1-1.92.708c-1.747-1.584-5.316-4.663-7.865-3.441-1.341.642-1.545,1.973-1.782,3.514a14.183,14.183,0,0,1-.985,3.781,10.952,10.952,0,0,1-3.211,4.127,2.547,2.547,0,0,0-.622-1.007Zm8.7,0a2.589,2.589,0,0,0-.1,3.549,18.411,18.411,0,0,1-8.5,0,2.571,2.571,0,0,0,.336-.476,12.961,12.961,0,0,0,4.816-5.57,15.694,15.694,0,0,0,1.1-4.169c.214-1.392.343-2.074.919-2.35,1.426-.683,4.045,1.349,5.579,2.683a2.8,2.8,0,0,1-2.684,2.675,2.587,2.587,0,0,1-1.463,3.658Zm5.634,5.634a1.036,1.036,0,0,1-1.463,0l-3.073-3.073a1.036,1.036,0,0,1,0-1.464h0a1.043,1.043,0,0,1,1.464,0l3.073,3.074A1.046,1.046,0,0,1,1572.609,437.291Zm3.658-1.464a1.035,1.035,0,0,1-1.463,0l-5.268-5.268A1.034,1.034,0,1,1,1571,429.1l5.268,5.268A1.034,1.034,0,0,1,1576.267,435.827Zm2.561-2.56a1.046,1.046,0,0,1-1.463,0L1572.1,428a1.043,1.043,0,0,1,0-1.464h0a1.042,1.042,0,0,1,1.463,0c1.655,1.672,3.685,3.685,5.268,5.268A1.038,1.038,0,0,1,1578.828,433.267Zm1.463-3.659a1.035,1.035,0,0,1-1.463,0l-3.073-3.073a1.036,1.036,0,0,1,0-1.463h0a1.043,1.043,0,0,1,1.463,0c.6.6,2.433,2.439,3.073,3.073A1.045,1.045,0,0,1,1580.291,429.608Zm1.957-4.7-1.39.3a19.692,19.692,0,0,0,.911-2.646,1.2,1.2,0,0,1,.479,2.345Z" fill="#e94b46"/>
    </g>
  </g>
</svg>
