<svg xmlns="http://www.w3.org/2000/svg" xmlns:xlink="http://www.w3.org/1999/xlink" width="785.021" height="269.685" viewBox="0 0 785.021 269.685">
  <defs>
    <linearGradient id="linear-gradient" x1="0.5" y1="1" x2="0.5" gradientUnits="objectBoundingBox">
      <stop offset="0" stop-color="#e6e6e6"/>
      <stop offset="0.42" stop-color="#fff"/>
    </linearGradient>
    <linearGradient id="linear-gradient-2" x1="0.5" y1="1.051" x2="0.5" y2="-0.034" xlink:href="#linear-gradient"/>
    <linearGradient id="linear-gradient-3" x1="0.5" y1="0.119" x2="0.5" y2="1.472" gradientUnits="objectBoundingBox">
      <stop offset="0" stop-color="#231f20"/>
      <stop offset="0.903" stop-color="#505052"/>
    </linearGradient>
    <linearGradient id="linear-gradient-4" x1="0.5" y1="-1.601" x2="0.5" y2="1.31" xlink:href="#linear-gradient-3"/>
    <linearGradient id="linear-gradient-5" x1="0.5" y1="-1.631" x2="0.5" y2="1.297" xlink:href="#linear-gradient-3"/>
    <linearGradient id="linear-gradient-6" x1="0.5" y1="-2.189" x2="0.5" y2="0.497" xlink:href="#linear-gradient-3"/>
    <linearGradient id="linear-gradient-7" x1="0.5" y1="-2.18" x2="0.5" y2="0.5" xlink:href="#linear-gradient-3"/>
    <linearGradient id="linear-gradient-8" x1="0.5" y1="-18.274" x2="0.5" y2="9.285" xlink:href="#linear-gradient-3"/>
    <linearGradient id="linear-gradient-9" x1="0.5" y1="-18.837" x2="0.5" y2="5.935" xlink:href="#linear-gradient-3"/>
    <linearGradient id="linear-gradient-10" x1="0.5" y1="-12.716" x2="0.5" y2="9.6" xlink:href="#linear-gradient-3"/>
    <linearGradient id="linear-gradient-11" x1="0.5" y1="-25.24" x2="0.5" y2="11.09" xlink:href="#linear-gradient-3"/>
    <linearGradient id="linear-gradient-12" x1="0.5" y1="-20.92" x2="0.5" y2="2.867" xlink:href="#linear-gradient-3"/>
    <linearGradient id="linear-gradient-13" x1="0.5" y1="-24.074" x2="0.5" y2="13.414" xlink:href="#linear-gradient-3"/>
    <linearGradient id="linear-gradient-14" x1="0.5" y1="-31.126" x2="0.5" y2="8.732" xlink:href="#linear-gradient-3"/>
    <linearGradient id="linear-gradient-15" x1="0.5" y1="-36.216" x2="0.5" y2="9.97" xlink:href="#linear-gradient-3"/>
    <linearGradient id="linear-gradient-16" x1="0.5" y1="-32.145" x2="0.5" y2="18.925" xlink:href="#linear-gradient-3"/>
  </defs>
  <g id="Grupo_57132" data-name="Grupo 57132" transform="translate(-211.648 -1319.677)">
    <rect id="Rectángulo_8565" data-name="Rectángulo 8565" width="372.378" height="263.264" transform="translate(621.791 1323.543)" fill="#fff" stroke="#000" stroke-miterlimit="10" stroke-width="5"/>
    <rect id="Rectángulo_8566" data-name="Rectángulo 8566" width="201.711" height="61.043" transform="translate(638.294 1330.783)"/>
    <g id="Norma" style="isolation: isolate">
      <text id="PINTURA_METIL_FLAMMALINE_CROMATO_DE_PLOMO" data-name="PINTURA (METIL FLAMMALINE, CROMATO DE PLOMO" transform="translate(649.8 1332.357)" fill="#fff" font-size="14.995" font-family="Roboto-Bold, Roboto" font-weight="700" style="isolation: isolate"><tspan x="30.696" y="16">PINTURA (METIL </tspan><tspan x="1.987" y="33.994">FLAMMALINE, CROMATO </tspan><tspan x="52.116" y="51.989">DE PLOMO</tspan></text>
    </g>
    <g id="Norma-2" data-name="Norma" style="isolation: isolate">
      <text id="PALABRA_DE_ADVERTENCIA_véase_1.4.10.5.2_a_" data-name="PALABRA DE ADVERTENCIA (véase 1.4.10.5.2 a))" transform="translate(739.014 1431.787)" font-size="11.083" font-family="Roboto-Bold, Roboto" font-weight="700" style="isolation: isolate"><tspan x="0" y="12">PALABRA DE ADVERTENCIA</tspan><tspan y="12" xml:space="preserve" font-size="7.824"> (véase 1.4.10.5.2 a))</tspan></text>
    </g>
    <g id="Norma-3" data-name="Norma" style="isolation: isolate">
      <text id="Indicación_de_peligro_véase_1.4.10.5.2_b_" data-name="Indicación de peligro (véase 1.4.10.5.2 b))" transform="translate(740.828 1457.566)" font-size="7.824" font-family="Roboto-Bold, Roboto" font-weight="700" style="isolation: isolate"><tspan x="0" y="8">Indicación de peligro (véase 1.4.10.5.2 b))</tspan></text>
    </g>
    <g id="Norma-4" data-name="Norma" style="isolation: isolate">
      <text id="Identificación_del_producto" data-name="Identificación del producto" transform="translate(857.596 1346.891)" font-size="9.128" font-family="Roboto-Bold, Roboto" font-weight="700" style="isolation: isolate"><tspan x="0" y="10">Identificación del producto</tspan></text>
    </g>
    <g id="Norma-5" data-name="Norma" style="isolation: isolate">
      <text id="_véase_1.4.10.5.2_d_" data-name="(véase 1.4.10.5.2 d))" transform="translate(884.469 1362.348)" font-size="9.128" font-family="Roboto-Bold, Roboto" font-weight="700" style="isolation: isolate"><tspan x="0" y="10">(véase 1.4.10.5.2 d))</tspan></text>
    </g>
    <g id="Norma-6" data-name="Norma" style="isolation: isolate">
      <text id="Consejos_de_prudencia_véase_1.4.10.5.2_c_" data-name="Consejos de prudencia (véase 1.4.10.5.2 c))" transform="translate(635.061 1513.075)" font-size="9.128" font-family="Roboto-Bold, Roboto" font-weight="700" style="isolation: isolate"><tspan x="0" y="10">Consejos de prudencia (véase 1.4.10.5.2 c))</tspan></text>
    </g>
    <g id="Norma-7" data-name="Norma" style="isolation: isolate">
      <text id="Información_adicional_cuando_lo_requiera_en_su_caso_la_autoridad_competente" data-name="Información adicional cuando lo requiera, en su caso, la autoridad competente" transform="translate(646.707 1535.185)" font-size="9.128" font-family="Roboto-Bold, Roboto" font-weight="700" style="isolation: isolate"><tspan x="0" y="10">Información adicional cuando lo requiera, en su caso, la autoridad competente</tspan></text>
    </g>
    <g id="Norma-8" data-name="Norma" style="isolation: isolate">
      <text id="Identificación_del_proveedor_véase_1.4.10.5.2_e_" data-name="Identificación del proveedor (véase 1.4.10.5.2 e))" transform="translate(635.061 1557.295)" font-size="9.128" font-family="Roboto-Bold, Roboto" font-weight="700" style="isolation: isolate"><tspan x="0" y="10">Identificación del proveedor (véase 1.4.10.5.2 e))</tspan></text>
    </g>
    <g id="Grupo_57126" data-name="Grupo 57126">
      <rect id="Rectángulo_8567" data-name="Rectángulo 8567" width="153.733" height="260.711" transform="translate(221.746 1325.131)" fill="#fff" stroke="gray" stroke-miterlimit="10" stroke-width="1"/>
      <rect id="Rectángulo_8568" data-name="Rectángulo 8568" width="173.085" height="9.908" transform="translate(212.148 1320.177)" fill="#fff" stroke="gray" stroke-miterlimit="10" stroke-width="1"/>
      <rect id="Rectángulo_8569" data-name="Rectángulo 8569" width="173.085" height="9.908" transform="translate(212.148 1377.846)" fill="#fff" stroke="gray" stroke-miterlimit="10" stroke-width="1"/>
      <rect id="Rectángulo_8570" data-name="Rectángulo 8570" width="173.085" height="9.908" transform="translate(212.148 1531.579)" fill="#fff" stroke="gray" stroke-miterlimit="10" stroke-width="1"/>
      <rect id="Rectángulo_8571" data-name="Rectángulo 8571" width="173.085" height="9.908" transform="translate(212.148 1578.953)" fill="#fff" stroke="gray" stroke-miterlimit="10" stroke-width="1"/>
      <rect id="Rectángulo_8572" data-name="Rectángulo 8572" width="67.775" height="38.549" transform="translate(257.242 1483.663)" fill="#fff" stroke="gray" stroke-miterlimit="10" stroke-width="1"/>
      <rect id="Rectángulo_8573" data-name="Rectángulo 8573" width="34.906" height="34.906" transform="translate(290.264 1425.641) rotate(45)" fill="#fff" stroke="gray" stroke-miterlimit="10" stroke-width="1"/>
      <g id="Norma-9" data-name="Norma" style="isolation: isolate">
        <text id="PINTURA" transform="translate(233.242 1393.828)" font-size="9.268" font-family="Roboto-Bold, Roboto" font-weight="700" style="isolation: isolate"><tspan x="0" y="10">PINTURA</tspan></text>
      </g>
      <g id="Norma-10" data-name="Norma" style="isolation: isolate">
        <text id="UN_1263" data-name="UN 1263" transform="translate(233.242 1404.511)" font-size="9.268" font-family="Roboto-Bold, Roboto" font-weight="700" style="isolation: isolate"><tspan x="0" y="10">UN 1263</tspan></text>
      </g>
      <line id="Línea_158" data-name="Línea 158" y1="60.974" x2="182.093" transform="translate(294.172 1387.149)" fill="none" stroke="#963030" stroke-miterlimit="10" stroke-width="3"/>
      <g id="Grupo_57125" data-name="Grupo 57125">
        <rect id="Rectángulo_8574" data-name="Rectángulo 8574" width="92.027" height="92.027" transform="translate(472.115 1387.149) rotate(-45)" fill="#d61b22"/>
        <path id="Trazado_102617" data-name="Trazado 102617" d="M537.187,1440.747a8.049,8.049,0,0,1-5.711-2.362l-45.525-45.525a8.085,8.085,0,0,1,0-11.423l45.525-45.525a8.085,8.085,0,0,1,11.423,0l45.525,45.525a8.087,8.087,0,0,1,0,11.423L542.9,1438.385A8.052,8.052,0,0,1,537.187,1440.747Zm0-105.019a5.883,5.883,0,0,0-4.17,1.725l-45.525,45.524a5.908,5.908,0,0,0,0,8.343l45.525,45.524a5.906,5.906,0,0,0,8.341,0l45.525-45.524a5.908,5.908,0,0,0,0-8.343l-45.525-45.524A5.887,5.887,0,0,0,537.187,1335.728Z" fill="url(#linear-gradient)"/>
        <g id="Grupo_57124" data-name="Grupo 57124">
          <path id="Trazado_102618" data-name="Trazado 102618" d="M544.336,1381a6.154,6.154,0,0,0,3.211-7.571s-1.078-3.043-.707-4.469c0,0-1.426-.515-2.656,2.049a2.069,2.069,0,0,1-2.372.87,5.291,5.291,0,0,0,.671-5.51,13.058,13.058,0,0,1-.495-3.626s-.958-.064-1.006,3.114-1.693,3.483-1.693,3.483,1.453-5.655-2.348-7.731a15.026,15.026,0,0,1-.607,5.494,12.066,12.066,0,0,0,.527,6.853s-2.109-.08-3.882-4.041a6.615,6.615,0,0,0-2.611-3.506s1.533,6.253-1.51,6.157a3.944,3.944,0,0,1-1.677-1.262s-2.851,4.377.934,7.971l2.468,1.725s-2.9.7-6.253-2.252c0,0-3.043-2.037-2.756-7.308a21.4,21.4,0,0,1,1.845-7.236,5.649,5.649,0,0,0-.024-3.306s1.869-.264,4.241,2.54c0,0,.216-.576-.79-2.444,0,0-1.174-2.3,1.269-5.391,0,0,2.349-2.828,1.1-4.529,0,0,2.228,1.1,1.892,5.008,0,0-.6,5.511,2.588,7.619,0,0-2.8-6.421-.862-10.686a17.952,17.952,0,0,1,4.384-6.733s2.013-2.132,1.629-4.073c0,0,1.965,1.653.264,6.565s.623,7.787.623,7.787a7.03,7.03,0,0,1,3.594-8.1s-1.845,3.306.311,5.391a6.052,6.052,0,0,1,.791,8.314s.647.287,3.187-2.492c0,0,1.725-1.653,3.043-1.677,0,0-2.133,1.246-.5,4.744s4.193,7.9,1.462,14.3A7.593,7.593,0,0,1,544.336,1381Z" fill="#fff"/>
          <rect id="Rectángulo_8575" data-name="Rectángulo 8575" width="28.272" height="2.779" transform="translate(523.252 1382.343)" fill="#fff"/>
        </g>
        <text id="_3" data-name="3" transform="translate(537.188 1424.037)" fill="#fff" font-size="19.641" font-family="Roboto-Regular, Roboto" style="isolation: isolate"><tspan x="-5.514" y="0">3</tspan></text>
      </g>
    </g>
    <g id="Grupo_57131" data-name="Grupo 57131">
      <g id="Grupo_57129" data-name="Grupo 57129">
        <g id="Grupo_57128" data-name="Grupo 57128">
          <g id="Grupo_57127" data-name="Grupo 57127">
            <rect id="Rectángulo_8576" data-name="Rectángulo 8576" width="67.441" height="67.441" transform="translate(637.174 1450.17) rotate(-45)" fill="#d61b22"/>
            <rect id="Rectángulo_8577" data-name="Rectángulo 8577" width="57.423" height="57.423" rx="5.543" transform="translate(644.258 1450.17) rotate(-45)" fill="url(#linear-gradient-2)"/>
          </g>
        </g>
      </g>
      <g id="Grupo_57130" data-name="Grupo 57130">
        <path id="Trazado_102619" data-name="Trazado 102619" d="M671.581,1450.685a3.6,3.6,0,0,1-.5.175c-.265.049-1.179-.809-1.114-1.067a.558.558,0,0,1,.329-.294c1.933-.722,3.871-1.432,5.807-2.145.458-.168.912-.347,1.375-.5a.443.443,0,0,0,.352-.442c.08-1.029.182-2.057.26-3.086a.669.669,0,0,0-.106-.46,16.442,16.442,0,0,1-3.269-6.117,20.905,20.905,0,0,1-1.318-7.408,11.027,11.027,0,0,1,4.2-8.764c2.991-2.318,6.371-3.134,9.927-1.47a11.118,11.118,0,0,1,6.574,8.846,19.668,19.668,0,0,1-.936,8.782,17.525,17.525,0,0,1-3.188,6.345.687.687,0,0,0-.148.412c.005.977.041,1.954.041,2.931,0,.269.115.352.344.421q4.206,1.256,8.419,2.529c.081.3.047.513-.317.574a.462.462,0,0,0-.275.208c-.181.3-.341.607-.5.917a.837.837,0,0,1-1.311.38c-.1-.062-.208-.128-.351-.216-.132.432-.376.712-.732.71a7.815,7.815,0,0,1-.385,1.136.545.545,0,0,1-.785.251.551.551,0,0,0-.342.021c-.271.075-.533.191-.808.241a.362.362,0,0,1-.307-.18c-.07-.307-.222-.312-.451-.188a1,1,0,0,1-1.165-.125,1.453,1.453,0,0,0-.552-.124c-.038.245-.178.535-.093.725.155.347.268.616-.117.857-.313.195-.609.11-.915-.241l-.668.235.072.048c-.177.191-.321.47-.538.552a1.035,1.035,0,0,1-1.171-.181.582.582,0,0,1-.159-.753.382.382,0,0,0-.087-.55,1.141,1.141,0,0,1-.33-1.149,6.142,6.142,0,0,0,.174-.774,1.568,1.568,0,0,0-.15-.544c-.017-.048-.109-.1-.1-.121.162-.452-.209-.525-.459-.717-.105-.081-.114-.322-.108-.488,0-.043.224-.076.343-.118a1.6,1.6,0,0,0,.572-.24c.059-.057-.1-.323-.135-.5-.025-.137-.064-.328,0-.418.294-.386.089-.663-.177-.907-.2-.185-.309-.33-.134-.6.045-.068-.038-.285-.125-.363-.643-.576-.673-.792-.189-1.512.15-.223.262-.4-.067-.654a1.216,1.216,0,0,1-.265-.888c.007-.346.023-.57-.355-.761s-.428-.647-.438-1.067a2.47,2.47,0,0,0-.133-.534,2.858,2.858,0,0,0-.143-.5,4,4,0,0,0-.317-.489,1.67,1.67,0,0,0-.349.349c-.158.3-.313.621.091.875.04.025.088.107.075.137-.163.372.146.883-.354,1.167-.071.04-.094.273-.054.387a1.534,1.534,0,0,1-.417,1.869,1.207,1.207,0,0,0-.141.773c.008.306.091.6-.154.87-.048.053.008.287.085.343.1.075.335.127.4.067.36-.334.509-.1.638.2.176.41.1.581-.313.716a.605.605,0,0,0-.1.071c.064.166.133.34.2.516a1.142,1.142,0,0,1-.478,1.415c-.112.051-.183.223-.241.354s-.051.276-.105.4c-.233.532-.237.53.068.99-.353.435-.344.432-.153,1.083a.886.886,0,0,1-.035.433,4.92,4.92,0,0,1-.2.585c-.039.1-.085.259-.155.276-.38.091-.488.407-.668.688-.1.156-.326.23-.5.341-.086-.186-.183-.368-.254-.56a1.092,1.092,0,0,1-.005-.319.781.781,0,0,1-.848-.391c-.091-.13-.465-.134-.684-.084-.259.058-.463.135-.682-.092s-.332.007-.453.153a1.2,1.2,0,0,1-1.938-.026,2.772,2.772,0,0,1-.228-.609c-1.052.025-.97-.052-1.241-.693a.8.8,0,0,0-.153.011c-.76.191-1.048.083-1.424-.568a.618.618,0,0,0-.59-.334c-.373-.038-.716-.429-1.055-.69C671.638,1450.976,671.63,1450.82,671.581,1450.685Z" fill="url(#linear-gradient-3)"/>
        <path id="Trazado_102620" data-name="Trazado 102620" d="M699.71,1466.2c-1.087.265-1.883.013-2-1.355a.9.9,0,0,1-1.279.156,1.1,1.1,0,0,1-.4-.522c-.093-.217-.156-.281-.391-.166a1.105,1.105,0,0,1-1.638-.447c-.176-.284-.335-.21-.485-.032-.285.339-.523.15-.741-.055a.446.446,0,0,1,.114-.717c.409-.19.255-.542.322-.825.015-.063-.14-.167-.217-.252-.234.425-.616-.6-.849.088a.483.483,0,0,1-.415.224,1.194,1.194,0,0,1-.691-.35c-.1-.146,0-.458.048-.687.02-.09.167-.144.23-.232a.6.6,0,0,0-.013-.776c-.191-.239-.445-.157-.63.008-.281.251-.557.416-.858.076-.257-.291-.157-.653.192-.935a7.217,7.217,0,0,1-.158-.9c-.026-.478.252-.711.73-.674.186.014.374,0,.582,0-.3-.727-.052-1.107.693-1.217a.42.42,0,0,0,.281-.262,1.565,1.565,0,0,1,1.927-1.339c.37.041.748-.343,1.181-.378.039,0,.087-.193.091-.3a1.588,1.588,0,0,1,1.56-1.626.66.66,0,0,0,.733-.61,1.114,1.114,0,0,1,1.67-.642.335.335,0,0,0,.29.046.345.345,0,0,0,.11-.271c-.008-.428.168-.614.567-.5.3.088.49.034.584-.265a.377.377,0,0,1,.525-.269c1.36.412,2.743.766,4.066,1.276a5.453,5.453,0,0,1,2.787,2.883,1.337,1.337,0,0,1,.113.566c.026,1.619.047,3.239.048,4.858a.821.821,0,0,1-.215.539q-3.555,3.43-7.135,6.837a.79.79,0,0,1-1.28-.256A2.522,2.522,0,0,1,699.71,1466.2Z" fill="url(#linear-gradient-4)"/>
        <path id="Trazado_102621" data-name="Trazado 102621" d="M668.635,1451.183a1.3,1.3,0,0,0,.466-.092c.253-.176.411-.162.561.124.135.259.364.276.647.234a1.22,1.22,0,0,1,.574.17c.081.036.126.146.2.209.417.355.418.353.42.844a4.051,4.051,0,0,1,.525.072c.356.093.608.264.52.71a.506.506,0,0,0,.162.371,6.031,6.031,0,0,0,.588.463c.858-.547,1.589-.252,1.9.77.093.308.089.748.641.58.042-.013.17.146.206.245a5.467,5.467,0,0,1,.147.59c1.363-.348,1.734-.1,1.971,1.285.009.054.016.155.031.156.592.051.32.915.95.983.278.031.281.422.036.632-.47.4-.479.52-.083,1.019.3.374.318.632.071.846s-.568.13-.873-.219a.457.457,0,0,0-.35-.13.371.371,0,0,0-.243.236c-.08.359-.123.727-.189,1.149a.628.628,0,0,1,.321.891.776.776,0,0,1-.984.4.612.612,0,0,1-.309-.873c.1-.237.023-.334-.173-.418-.15-.064-.3-.133-.386-.173l-.689.719c.054.274.443.66,0,1.034-.387.33-.775.195-1.228-.128a3.336,3.336,0,0,0-.314.977.892.892,0,0,1-.5.963c-.429.194-.88.367-1.291-.254a6.034,6.034,0,0,0-.306.687,1.037,1.037,0,0,1-1.563.7c-.051.073-.108.147-.157.226a.856.856,0,0,1-1.385.182q-3.486-3.529-6.956-7.076a.71.71,0,0,1-.17-.441c-.04-1.423-.06-2.847-.092-4.27a3.116,3.116,0,0,1,1.283-2.644,7.931,7.931,0,0,1,1.76-1.031c1.17-.488,2.375-.891,3.569-1.32C668.41,1450.419,668.681,1450.627,668.635,1451.183Z" fill="url(#linear-gradient-5)"/>
        <path id="Trazado_102622" data-name="Trazado 102622" d="M686.75,1467.924c-.822-.494-.7-1.164-.359-1.862-.708-.073-.826-.244-.666-.867a.436.436,0,0,1,.469-.374c.615-.025.6-.037.639-.613.024-.39.317-.575.64-.7a.78.78,0,0,1,.9.262c.479.535.454.513.968.021a1.182,1.182,0,0,1,.741-.228c.248-.005.492.111.45.47-.006.054.2.192.3.191,1.14-.013,1.287.107,1.449,1.294a2.3,2.3,0,0,1,.477.007,1.342,1.342,0,0,1,.369.192c.075.043.151.146.212.136a.27.27,0,0,0,.161-.194.683.683,0,0,1,1.326-.07c.083.241.2.278.437.223a1.045,1.045,0,0,1,1.407.831c.109.347.243.511.654.379.544-.174.606-.1.938.4a.645.645,0,0,0,.514.262.672.672,0,0,1,.768.362c.184.3.033.543-.2.768q-4.445,4.221-8.882,8.452-2.424,2.309-4.85,4.616c-.151.144-.3.35-.518.12-.182-.194-.086-.358.09-.532.274-.27.249-.631-.036-1.079.26-.206.247-.431.057-.7-.071-.1-.092-.358-.024-.418.262-.233.183-.447.069-.706a1.056,1.056,0,0,1,.463-1.368,1.748,1.748,0,0,1,.468-2.778c-.611-.606-1.169-1.234-.537-2.142q-1.57-.641-.4-1.552c-.031-.081-.066-.168-.1-.255a.652.652,0,0,1,.289-.925.812.812,0,0,1,1.074.248c.07.127.011.328.007.495,0,.126-.06.28-.006.369a.333.333,0,0,0,.322.083c.082-.055.11-.217.129-.337a1.455,1.455,0,0,0-.278-1.07A1.07,1.07,0,0,1,686.75,1467.924Z" fill="url(#linear-gradient-6)"/>
        <path id="Trazado_102623" data-name="Trazado 102623" d="M683.05,1471.542c.178,0,.316-.011.451,0,.5.046.672.424.42.852-.063.106-.1.331-.041.387a.8.8,0,0,1,.059,1.212c.887.964.882.962.217,2.211a.528.528,0,0,0,0,.42,1.831,1.831,0,0,1-.412,2.6,1.114,1.114,0,0,0-.1.129c.617.487.639.595.241,1.124.372.512.371.543-.069.979.125.182.443.394-.031.615-.664-.644-1.344-1.3-2.019-1.96q-5.583-5.453-11.164-10.908c-.433-.423-.53-.778-.3-1.125a1.174,1.174,0,0,1,1.392-.4.528.528,0,0,0,.112.016,1.046,1.046,0,0,0,.139-.172,1.434,1.434,0,0,1,2.135-.583c.232.155.352.119.414-.146a2.855,2.855,0,0,0,.066-.285c.091-.654.52-.961,1.134-.743.354.126.514.053.691-.269a.779.779,0,0,1,1.263-.219c.207.169.34.25.508-.063.252-.466.594-.532,1.4-.326-.063-.148-.119-.265-.162-.387a.837.837,0,0,1,.323-.994.622.622,0,0,1,.892.122.507.507,0,0,0,.457.056.757.757,0,0,1,1.106.264c.063.076.251.075.378.065.175-.014.357-.123.516-.092a.674.674,0,0,1,.409.295c.043.074-.067.285-.162.379-.249.247-.307.432-.028.728a.642.642,0,0,1-.073.911c-.213.236-.257.37.057.575a.9.9,0,0,1,.176,1.493c-.242.269-.423.438.046.709.506.292.415.828-.135,1.06a.45.45,0,0,0-.319.547A7.248,7.248,0,0,1,683.05,1471.542Z" fill="url(#linear-gradient-7)"/>
        <path id="Trazado_102624" data-name="Trazado 102624" d="M687.286,1457a2.106,2.106,0,0,1-.561-.306.464.464,0,0,1,.051-.706.521.521,0,0,1,.751.043.658.658,0,0,0,.377.186.746.746,0,0,1,.818.613.721.721,0,0,1-1.415.277A.5.5,0,0,1,687.286,1457Z" fill="url(#linear-gradient-8)"/>
        <path id="Trazado_102625" data-name="Trazado 102625" d="M688.547,1461.711c-.026-.634.163-.938.6-.983a.678.678,0,0,1,.762.559c.079.444-.152.713-.755.867-.054.312-.163.629-.552.589a.665.665,0,0,1-.456-.341C688,1462.045,688.26,1461.847,688.547,1461.711Z" fill="url(#linear-gradient-9)"/>
        <path id="Trazado_102626" data-name="Trazado 102626" d="M684.141,1452.337c-.339-.452-.339-.807,0-1.05a.649.649,0,0,1,.865.116c.249.317.15.688-.28,1.029.2.305.293.623-.059.877a.489.489,0,0,1-.682-.066C683.751,1453,683.8,1452.715,684.141,1452.337Z" fill="url(#linear-gradient-10)"/>
        <path id="Trazado_102627" data-name="Trazado 102627" d="M679.7,1458.247c-.289.077-.587.063-.673-.269-.042-.16.061-.5.159-.524a1.456,1.456,0,0,1,.757.095c.474-.165.854-.092,1.044.268a.659.659,0,0,1-.3.917C680.3,1458.925,679.97,1458.764,679.7,1458.247Z" fill="url(#linear-gradient-11)"/>
        <path id="Trazado_102628" data-name="Trazado 102628" d="M684.482,1467.594c-.213-.234-.392-.516-.1-.782a.63.63,0,0,1,.554-.095c.359.153.3.474.168.767.459.329.571.677.34,1.022a.655.655,0,0,1-.884.193C684.21,1468.479,684.177,1468.076,684.482,1467.594Z" fill="url(#linear-gradient-12)"/>
        <path id="Trazado_102629" data-name="Trazado 102629" d="M679,1454.8a.676.676,0,0,1,.676.651.669.669,0,1,1-1.338.016A.674.674,0,0,1,679,1454.8Z" fill="url(#linear-gradient-13)"/>
        <path id="Trazado_102630" data-name="Trazado 102630" d="M683.369,1463.008a.629.629,0,0,1,.021-1.257.649.649,0,0,1,.637.641A.637.637,0,0,1,683.369,1463.008Z" fill="url(#linear-gradient-14)"/>
        <path id="Trazado_102631" data-name="Trazado 102631" d="M679.876,1462.45a.539.539,0,0,1-.532.546.558.558,0,0,1-.566-.551.547.547,0,0,1,.579-.532A.523.523,0,0,1,679.876,1462.45Z" fill="url(#linear-gradient-15)"/>
        <path id="Trazado_102632" data-name="Trazado 102632" d="M683.6,1455.141a.476.476,0,0,1-.485-.509.485.485,0,0,1,.969-.014A.482.482,0,0,1,683.6,1455.141Z" fill="url(#linear-gradient-16)"/>
      </g>
    </g>
  </g>
</svg>
